  0
SECTION
  2
HEADER
  9
$ACADVER
  1
AC1014
  9
$HANDSEED
  5
FFFF
  9
$MEASUREMENT
 70
     1
  0
ENDSEC
  0
SECTION
  2
TABLES
  0
TABLE
  2
VPORT
  5
8
330
0
100
AcDbSymbolTable
 70
     4
  0
VPORT
  5
2E
330
8
100
AcDbSymbolTableRecord
100
AcDbViewportTableRecord
  2
*ACTIVE
 70
     0
 10
0.0
 20
0.0
 11
1.0
 21
1.0
 12
210.0
 22
148.5
 13
0.0
 23
0.0
 14
10.0
 24
10.0
 15
10.0
 25
10.0
 16
0.0
 26
0.0
 36
1.0
 17
0.0
 27
0.0
 37
0.0
 40
341.0
 41
1.24
 42
50.0
 43
0.0
 44
0.0
 50
0.0
 51
0.0
 71
     0
 72
   100
 73
     1
 74
     3
 75
     0
 76
     0
 77
     0
 78
     0
  0
ENDTAB
  0
TABLE
  2
LTYPE
  5
5
330
0
100
AcDbSymbolTable
 70
     1
  0
LTYPE
  5
14
330
5
100
AcDbSymbolTableRecord
100
AcDbLinetypeTableRecord
  2
BYBLOCK
 70
     0
  3

 72
    65
 73
     0
 40
0.0
  0
LTYPE
  5
15
330
5
100
AcDbSymbolTableRecord
100
AcDbLinetypeTableRecord
  2
BYLAYER
 70
     0
  3

 72
    65
 73
     0
 40
0.0
  0
LTYPE
  5
16
330
5
100
AcDbSymbolTableRecord
100
AcDbLinetypeTableRecord
  2
CONTINUOUS
 70
     0
  3
Solid line
 72
    65
 73
     0
 40
0.0
  0
ENDTAB
  0
TABLE
  2
LAYER
  5
2
100
AcDbSymbolTable
 70
1
  0
LAYER
  5
50
100
AcDbSymbolTableRecord
100
AcDbLayerTableRecord
  2
0
 70
0
  6
CONTINUOUS
  0
ENDTAB
  0
TABLE
  2
STYLE
  5
3
330
0
100
AcDbSymbolTable
 70
     1
  0
STYLE
  5
11
330
3
100
AcDbSymbolTableRecord
100
AcDbTextStyleTableRecord
  2
STANDARD
 70
     0
 40
0.0
 41
1.0
 50
0.0
 71
     0
 42
2.5
  3
txt
  4

  0
ENDTAB
  0
TABLE
  2
VIEW
  5
6
330
0
100
AcDbSymbolTable
 70
     0
  0
ENDTAB
  0
TABLE
  2
UCS
  5
7
330
0
100
AcDbSymbolTable
 70
     0
  0
ENDTAB
  0
TABLE
  2
APPID
  5
9
330
0
100
AcDbSymbolTable
 70
     2
  0
APPID
  5
12
330
9
100
AcDbSymbolTableRecord
100
AcDbRegAppTableRecord
  2
ACAD
 70
     0
  0
ENDTAB
  0
TABLE
  2
DIMSTYLE
  5
A
330
0
100
AcDbSymbolTable
 70
     1
  0
DIMSTYLE
105
27
330
A
100
AcDbSymbolTableRecord
100
AcDbDimStyleTableRecord
  2
ISO-25
 70
     0
  3

  4

  5

  6

  7

 40
1.0
 41
2.5
 42
0.625
 43
3.75
 44
1.25
 45
0.0
 46
0.0
 47
0.0
 48
0.0
140
2.5
141
2.5
142
0.0
143
0.03937007874016
144
1.0
145
0.0
146
1.0
147
0.625
 71
     0
 72
     0
 73
     0
 74
     0
 75
     0
 76
     0
 77
     1
 78
     8
170
     0
171
     3
172
     1
173
     0
174
     0
175
     0
176
     0
177
     0
178
     0
270
     2
271
     2
272
     2
273
     2
274
     3
340
11
275
     0
280
     0
281
     0
282
     0
283
     0
284
     8
285
     0
286
     0
287
     3
288
     0
  0
ENDTAB
  0
TABLE
  2
BLOCK_RECORD
  5
1
330
0
100
AcDbSymbolTable
 70
     1
  0
BLOCK_RECORD
  5
1F
330
1
100
AcDbSymbolTableRecord
100
AcDbBlockTableRecord
  2
*MODEL_SPACE
  0
BLOCK_RECORD
  5
1B
330
1
100
AcDbSymbolTableRecord
100
AcDbBlockTableRecord
  2
*PAPER_SPACE
  0
ENDTAB
  0
ENDSEC
  0
SECTION
  2
BLOCKS
  0
BLOCK
  5
20
330
1F
100
AcDbEntity
  8
0
100
AcDbBlockBegin
  2
*MODEL_SPACE
 70
     0
 10
0.0
 20
0.0
 30
0.0
  3
*MODEL_SPACE
  1

  0
ENDBLK
  5
21
330
1F
100
AcDbEntity
  8
0
100
AcDbBlockEnd
  0
BLOCK
  5
1C
330
1B
100
AcDbEntity
 67
     1
  8
0
100
AcDbBlockBegin
  2
*PAPER_SPACE
  1

  0
ENDBLK
  5
1D
330
1B
100
AcDbEntity
 67
     1
  8
0
100
AcDbBlockEnd
  0
ENDSEC
  0
SECTION
  2
ENTITIES
  0
SPLINE
  5
100
100
AcDbEntity
  8
0
 62
7
100
AcDbSpline
 70
8
 71
3
 72
8
 73
4
 74
0
 40
0
 40
0
 40
0
 40
0
 40
1
 40
1
 40
1
 40
1
 10
7.264400
 20
-16.745458
 30
0.0
 10
6.920757
 20
-16.745458
 30
0.0
 10
6.610951
 20
-16.952464
 30
0.0
 10
6.479444
 20
-17.269949
 30
0.0
  0
SPLINE
  5
101
100
AcDbEntity
  8
0
 62
7
100
AcDbSpline
 70
8
 71
3
 72
8
 73
4
 74
0
 40
0
 40
0
 40
0
 40
0
 40
1
 40
1
 40
1
 40
1
 10
6.479444
 20
-17.269949
 30
0.0
 10
6.347938
 20
-17.587434
 30
0.0
 10
6.420628
 20
-17.952875
 30
0.0
 10
6.663621
 20
-18.195867
 30
0.0
  0
SPLINE
  5
102
100
AcDbEntity
  8
0
 62
7
100
AcDbSpline
 70
8
 71
3
 72
8
 73
4
 74
0
 40
0
 40
0
 40
0
 40
0
 40
1
 40
1
 40
1
 40
1
 10
6.663621
 20
-18.195867
 30
0.0
 10
6.906613
 20
-18.438860
 30
0.0
 10
7.272054
 20
-18.511551
 30
0.0
 10
7.589539
 20
-18.380044
 30
0.0
  0
SPLINE
  5
103
100
AcDbEntity
  8
0
 62
7
100
AcDbSpline
 70
8
 71
3
 72
8
 73
4
 74
0
 40
0
 40
0
 40
0
 40
0
 40
1
 40
1
 40
1
 40
1
 10
7.589539
 20
-18.380044
 30
0.0
 10
7.907024
 20
-18.248537
 30
0.0
 10
8.114030
 20
-17.938731
 30
0.0
 10
8.114030
 20
-17.595088
 30
0.0
  0
SPLINE
  5
104
100
AcDbEntity
  8
0
 62
7
100
AcDbSpline
 70
8
 71
3
 72
8
 73
4
 74
0
 40
0
 40
0
 40
0
 40
0
 40
1
 40
1
 40
1
 40
1
 10
8.114030
 20
-17.595088
 30
0.0
 10
8.114030
 20
-17.369752
 30
0.0
 10
8.024516
 20
-17.153646
 30
0.0
 10
7.865179
 20
-16.994309
 30
0.0
  0
SPLINE
  5
105
100
AcDbEntity
  8
0
 62
7
100
AcDbSpline
 70
8
 71
3
 72
8
 73
4
 74
0
 40
0
 40
0
 40
0
 40
0
 40
1
 40
1
 40
1
 40
1
 10
7.865179
 20
-16.994309
 30
0.0
 10
7.705843
 20
-16.834973
 30
0.0
 10
7.489736
 20
-16.745458
 30
0.0
 10
7.264400
 20
-16.745458
 30
0.0
  0
SPLINE
  5
106
100
AcDbEntity
  8
0
 62
7
100
AcDbSpline
 70
8
 71
3
 72
8
 73
4
 74
0
 40
0
 40
0
 40
0
 40
0
 40
1
 40
1
 40
1
 40
1
 10
17.424400
 20
-16.745458
 30
0.0
 10
17.080757
 20
-16.745458
 30
0.0
 10
16.770951
 20
-16.952464
 30
0.0
 10
16.639444
 20
-17.269949
 30
0.0
  0
SPLINE
  5
107
100
AcDbEntity
  8
0
 62
7
100
AcDbSpline
 70
8
 71
3
 72
8
 73
4
 74
0
 40
0
 40
0
 40
0
 40
0
 40
1
 40
1
 40
1
 40
1
 10
16.639444
 20
-17.269949
 30
0.0
 10
16.507938
 20
-17.587434
 30
0.0
 10
16.580628
 20
-17.952875
 30
0.0
 10
16.823621
 20
-18.195867
 30
0.0
  0
SPLINE
  5
108
100
AcDbEntity
  8
0
 62
7
100
AcDbSpline
 70
8
 71
3
 72
8
 73
4
 74
0
 40
0
 40
0
 40
0
 40
0
 40
1
 40
1
 40
1
 40
1
 10
16.823621
 20
-18.195867
 30
0.0
 10
17.066613
 20
-18.438860
 30
0.0
 10
17.432054
 20
-18.511551
 30
0.0
 10
17.749539
 20
-18.380044
 30
0.0
  0
SPLINE
  5
109
100
AcDbEntity
  8
0
 62
7
100
AcDbSpline
 70
8
 71
3
 72
8
 73
4
 74
0
 40
0
 40
0
 40
0
 40
0
 40
1
 40
1
 40
1
 40
1
 10
17.749539
 20
-18.380044
 30
0.0
 10
18.067024
 20
-18.248537
 30
0.0
 10
18.274030
 20
-17.938731
 30
0.0
 10
18.274030
 20
-17.595088
 30
0.0
  0
SPLINE
  5
10a
100
AcDbEntity
  8
0
 62
7
100
AcDbSpline
 70
8
 71
3
 72
8
 73
4
 74
0
 40
0
 40
0
 40
0
 40
0
 40
1
 40
1
 40
1
 40
1
 10
18.274030
 20
-17.595088
 30
0.0
 10
18.274030
 20
-17.369752
 30
0.0
 10
18.184516
 20
-17.153646
 30
0.0
 10
18.025179
 20
-16.994309
 30
0.0
  0
SPLINE
  5
10b
100
AcDbEntity
  8
0
 62
7
100
AcDbSpline
 70
8
 71
3
 72
8
 73
4
 74
0
 40
0
 40
0
 40
0
 40
0
 40
1
 40
1
 40
1
 40
1
 10
18.025179
 20
-16.994309
 30
0.0
 10
17.865843
 20
-16.834973
 30
0.0
 10
17.649736
 20
-16.745458
 30
0.0
 10
17.424400
 20
-16.745458
 30
0.0
  0
LWPOLYLINE
  5
10c
100
AcDbEntity
  8
0
 62
7
100
AcDbPolyline
 90
1
 70
1
 10
7.264400
 20
-16.745458
 30
0.0
  0
SPLINE
  5
10d
100
AcDbEntity
  8
0
 62
7
100
AcDbSpline
 70
8
 71
3
 72
8
 73
4
 74
0
 40
0
 40
0
 40
0
 40
0
 40
1
 40
1
 40
1
 40
1
 10
12.344401
 20
-15.604999
 30
0.0
 10
11.539485
 20
-15.604999
 30
0.0
 10
10.813826
 20
-16.089869
 30
0.0
 10
10.505799
 20
-16.833514
 30
0.0
  0
SPLINE
  5
10e
100
AcDbEntity
  8
0
 62
7
100
AcDbSpline
 70
8
 71
3
 72
8
 73
4
 74
0
 40
0
 40
0
 40
0
 40
0
 40
1
 40
1
 40
1
 40
1
 10
10.505799
 20
-16.833514
 30
0.0
 10
10.197771
 20
-17.577159
 30
0.0
 10
10.368034
 20
-18.433132
 30
0.0
 10
10.937196
 20
-19.002294
 30
0.0
  0
SPLINE
  5
10f
100
AcDbEntity
  8
0
 62
7
100
AcDbSpline
 70
8
 71
3
 72
8
 73
4
 74
0
 40
0
 40
0
 40
0
 40
0
 40
1
 40
1
 40
1
 40
1
 10
10.937196
 20
-19.002294
 30
0.0
 10
11.506357
 20
-19.571455
 30
0.0
 10
12.362330
 20
-19.741719
 30
0.0
 10
13.105975
 20
-19.433691
 30
0.0
  0
SPLINE
  5
110
100
AcDbEntity
  8
0
 62
7
100
AcDbSpline
 70
8
 71
3
 72
8
 73
4
 74
0
 40
0
 40
0
 40
0
 40
0
 40
1
 40
1
 40
1
 40
1
 10
13.105975
 20
-19.433691
 30
0.0
 10
13.849620
 20
-19.125663
 30
0.0
 10
14.334490
 20
-18.400004
 30
0.0
 10
14.334490
 20
-17.595088
 30
0.0
  0
SPLINE
  5
111
100
AcDbEntity
  8
0
 62
7
100
AcDbSpline
 70
8
 71
3
 72
8
 73
4
 74
0
 40
0
 40
0
 40
0
 40
0
 40
1
 40
1
 40
1
 40
1
 10
14.334490
 20
-17.595088
 30
0.0
 10
14.334490
 20
-17.067284
 30
0.0
 10
14.124821
 20
-16.561097
 30
0.0
 10
13.751606
 20
-16.187883
 30
0.0
  0
SPLINE
  5
112
100
AcDbEntity
  8
0
 62
7
100
AcDbSpline
 70
8
 71
3
 72
8
 73
4
 74
0
 40
0
 40
0
 40
0
 40
0
 40
1
 40
1
 40
1
 40
1
 10
13.751606
 20
-16.187883
 30
0.0
 10
13.378392
 20
-15.814669
 30
0.0
 10
12.872205
 20
-15.604999
 30
0.0
 10
12.344401
 20
-15.604999
 30
0.0
  0
LWPOLYLINE
  5
113
100
AcDbEntity
  8
0
 62
7
100
AcDbPolyline
 90
1
 70
1
 10
17.424400
 20
-16.745458
 30
0.0
  0
LWPOLYLINE
  5
114
100
AcDbEntity
  8
0
 62
7
100
AcDbPolyline
 90
1
 70
1
 10
12.344401
 20
-15.604999
 30
0.0
  0
SPLINE
  5
115
100
AcDbEntity
  8
0
 62
7
100
AcDbSpline
 70
8
 71
3
 72
8
 73
4
 74
0
 40
0
 40
0
 40
0
 40
0
 40
1
 40
1
 40
1
 40
1
 10
17.241755
 20
-9.898227
 30
0.0
 10
17.241755
 20
-10.005407
 30
0.0
 10
17.298935
 20
-10.104445
 30
0.0
 10
17.391755
 20
-10.158035
 30
0.0
  0
SPLINE
  5
116
100
AcDbEntity
  8
0
 62
7
100
AcDbSpline
 70
8
 71
3
 72
8
 73
4
 74
0
 40
0
 40
0
 40
0
 40
0
 40
1
 40
1
 40
1
 40
1
 10
17.391755
 20
-10.158035
 30
0.0
 10
17.484575
 20
-10.211625
 30
0.0
 10
17.598935
 20
-10.211625
 30
0.0
 10
17.691755
 20
-10.158035
 30
0.0
  0
SPLINE
  5
117
100
AcDbEntity
  8
0
 62
7
100
AcDbSpline
 70
8
 71
3
 72
8
 73
4
 74
0
 40
0
 40
0
 40
0
 40
0
 40
1
 40
1
 40
1
 40
1
 10
17.691755
 20
-10.158035
 30
0.0
 10
17.784575
 20
-10.104445
 30
0.0
 10
17.841755
 20
-10.005407
 30
0.0
 10
17.841755
 20
-9.898227
 30
0.0
  0
LWPOLYLINE
  5
118
100
AcDbEntity
  8
0
 62
7
100
AcDbPolyline
 90
2
 70
0
 10
17.241756
 20
-9.898227
 30
0.0
 10
17.241756
 20
-8.798230
 30
0.0
  0
SPLINE
  5
119
100
AcDbEntity
  8
0
 62
7
100
AcDbSpline
 70
8
 71
3
 72
8
 73
4
 74
0
 40
0
 40
0
 40
0
 40
0
 40
1
 40
1
 40
1
 40
1
 10
17.841756
 20
-8.798230
 30
0.0
 10
17.841756
 20
-8.691051
 30
0.0
 10
17.784576
 20
-8.592012
 30
0.0
 10
17.691756
 20
-8.538423
 30
0.0
  0
SPLINE
  5
11a
100
AcDbEntity
  8
0
 62
7
100
AcDbSpline
 70
8
 71
3
 72
8
 73
4
 74
0
 40
0
 40
0
 40
0
 40
0
 40
1
 40
1
 40
1
 40
1
 10
17.691756
 20
-8.538423
 30
0.0
 10
17.598936
 20
-8.484833
 30
0.0
 10
17.484576
 20
-8.484833
 30
0.0
 10
17.391756
 20
-8.538423
 30
0.0
  0
SPLINE
  5
11b
100
AcDbEntity
  8
0
 62
7
100
AcDbSpline
 70
8
 71
3
 72
8
 73
4
 74
0
 40
0
 40
0
 40
0
 40
0
 40
1
 40
1
 40
1
 40
1
 10
17.391756
 20
-8.538423
 30
0.0
 10
17.298936
 20
-8.592012
 30
0.0
 10
17.241756
 20
-8.691051
 30
0.0
 10
17.241756
 20
-8.798230
 30
0.0
  0
SPLINE
  5
11c
100
AcDbEntity
  8
0
 62
7
100
AcDbSpline
 70
8
 71
3
 72
8
 73
4
 74
0
 40
0
 40
0
 40
0
 40
0
 40
1
 40
1
 40
1
 40
1
 10
18.971755
 20
-8.493229
 30
0.0
 10
18.840304
 20
-8.493229
 30
0.0
 10
18.721797
 20
-8.572413
 30
0.0
 10
18.671493
 20
-8.693858
 30
0.0
  0
SPLINE
  5
11d
100
AcDbEntity
  8
0
 62
7
100
AcDbSpline
 70
8
 71
3
 72
8
 73
4
 74
0
 40
0
 40
0
 40
0
 40
0
 40
1
 40
1
 40
1
 40
1
 10
18.671493
 20
-8.693858
 30
0.0
 10
18.621189
 20
-8.815302
 30
0.0
 10
18.648995
 20
-8.955091
 30
0.0
 10
18.741945
 20
-9.048041
 30
0.0
  0
SPLINE
  5
11e
100
AcDbEntity
  8
0
 62
7
100
AcDbSpline
 70
8
 71
3
 72
8
 73
4
 74
0
 40
0
 40
0
 40
0
 40
0
 40
1
 40
1
 40
1
 40
1
 10
18.741945
 20
-9.048041
 30
0.0
 10
18.834894
 20
-9.140990
 30
0.0
 10
18.974683
 20
-9.168796
 30
0.0
 10
19.096127
 20
-9.118492
 30
0.0
  0
SPLINE
  5
11f
100
AcDbEntity
  8
0
 62
7
100
AcDbSpline
 70
8
 71
3
 72
8
 73
4
 74
0
 40
0
 40
0
 40
0
 40
0
 40
1
 40
1
 40
1
 40
1
 10
19.096127
 20
-9.118492
 30
0.0
 10
19.217572
 20
-9.068188
 30
0.0
 10
19.296756
 20
-8.949681
 30
0.0
 10
19.296756
 20
-8.818230
 30
0.0
  0
SPLINE
  5
120
100
AcDbEntity
  8
0
 62
7
100
AcDbSpline
 70
8
 71
3
 72
8
 73
4
 74
0
 40
0
 40
0
 40
0
 40
0
 40
1
 40
1
 40
1
 40
1
 10
19.296756
 20
-8.818230
 30
0.0
 10
19.296756
 20
-8.732035
 30
0.0
 10
19.262515
 20
-8.649369
 30
0.0
 10
19.201565
 20
-8.588420
 30
0.0
  0
SPLINE
  5
121
100
AcDbEntity
  8
0
 62
7
100
AcDbSpline
 70
8
 71
3
 72
8
 73
4
 74
0
 40
0
 40
0
 40
0
 40
0
 40
1
 40
1
 40
1
 40
1
 10
19.201565
 20
-8.588420
 30
0.0
 10
19.140616
 20
-8.527470
 30
0.0
 10
19.057951
 20
-8.493229
 30
0.0
 10
18.971755
 20
-8.493229
 30
0.0
  0
LWPOLYLINE
  5
122
100
AcDbEntity
  8
0
 62
7
100
AcDbPolyline
 90
2
 70
0
 10
17.841756
 20
-8.798230
 30
0.0
 10
17.841755
 20
-9.898227
 30
0.0
  0
SPLINE
  5
123
100
AcDbEntity
  8
0
 62
7
100
AcDbSpline
 70
8
 71
3
 72
8
 73
4
 74
0
 40
0
 40
0
 40
0
 40
0
 40
1
 40
1
 40
1
 40
1
 10
24.751753
 20
-8.493229
 30
0.0
 10
24.620302
 20
-8.493229
 30
0.0
 10
24.501795
 20
-8.572413
 30
0.0
 10
24.451491
 20
-8.693858
 30
0.0
  0
SPLINE
  5
124
100
AcDbEntity
  8
0
 62
7
100
AcDbSpline
 70
8
 71
3
 72
8
 73
4
 74
0
 40
0
 40
0
 40
0
 40
0
 40
1
 40
1
 40
1
 40
1
 10
24.451491
 20
-8.693858
 30
0.0
 10
24.401187
 20
-8.815302
 30
0.0
 10
24.428993
 20
-8.955091
 30
0.0
 10
24.521943
 20
-9.048041
 30
0.0
  0
SPLINE
  5
125
100
AcDbEntity
  8
0
 62
7
100
AcDbSpline
 70
8
 71
3
 72
8
 73
4
 74
0
 40
0
 40
0
 40
0
 40
0
 40
1
 40
1
 40
1
 40
1
 10
24.521943
 20
-9.048041
 30
0.0
 10
24.614892
 20
-9.140990
 30
0.0
 10
24.754681
 20
-9.168796
 30
0.0
 10
24.876125
 20
-9.118492
 30
0.0
  0
SPLINE
  5
126
100
AcDbEntity
  8
0
 62
7
100
AcDbSpline
 70
8
 71
3
 72
8
 73
4
 74
0
 40
0
 40
0
 40
0
 40
0
 40
1
 40
1
 40
1
 40
1
 10
24.876125
 20
-9.118492
 30
0.0
 10
24.997570
 20
-9.068188
 30
0.0
 10
25.076754
 20
-8.949681
 30
0.0
 10
25.076754
 20
-8.818230
 30
0.0
  0
SPLINE
  5
127
100
AcDbEntity
  8
0
 62
7
100
AcDbSpline
 70
8
 71
3
 72
8
 73
4
 74
0
 40
0
 40
0
 40
0
 40
0
 40
1
 40
1
 40
1
 40
1
 10
25.076754
 20
-8.818230
 30
0.0
 10
25.076754
 20
-8.732035
 30
0.0
 10
25.042513
 20
-8.649369
 30
0.0
 10
24.981563
 20
-8.588420
 30
0.0
  0
SPLINE
  5
128
100
AcDbEntity
  8
0
 62
7
100
AcDbSpline
 70
8
 71
3
 72
8
 73
4
 74
0
 40
0
 40
0
 40
0
 40
0
 40
1
 40
1
 40
1
 40
1
 10
24.981563
 20
-8.588420
 30
0.0
 10
24.920614
 20
-8.527470
 30
0.0
 10
24.837949
 20
-8.493229
 30
0.0
 10
24.751753
 20
-8.493229
 30
0.0
  0
LWPOLYLINE
  5
129
100
AcDbEntity
  8
0
 62
7
100
AcDbPolyline
 90
1
 70
1
 10
18.971755
 20
-8.493229
 30
0.0
  0
LWPOLYLINE
  5
12a
100
AcDbEntity
  8
0
 62
7
100
AcDbPolyline
 90
1
 70
1
 10
24.751753
 20
-8.493229
 30
0.0
  0
LWPOLYLINE
  5
12b
100
AcDbEntity
  8
0
 62
7
100
AcDbPolyline
 90
2
 70
0
 10
17.841755
 20
-4.868230
 30
0.0
 10
17.841755
 20
-5.468229
 30
0.0
  0
SPLINE
  5
12c
100
AcDbEntity
  8
0
 62
7
100
AcDbSpline
 70
8
 71
3
 72
8
 73
4
 74
0
 40
0
 40
0
 40
0
 40
0
 40
1
 40
1
 40
1
 40
1
 10
17.841754
 20
-4.868230
 30
0.0
 10
17.841754
 20
-4.761051
 30
0.0
 10
17.784575
 20
-4.662013
 30
0.0
 10
17.691754
 20
-4.608423
 30
0.0
  0
SPLINE
  5
12d
100
AcDbEntity
  8
0
 62
7
100
AcDbSpline
 70
8
 71
3
 72
8
 73
4
 74
0
 40
0
 40
0
 40
0
 40
0
 40
1
 40
1
 40
1
 40
1
 10
17.691754
 20
-4.608423
 30
0.0
 10
17.598934
 20
-4.554834
 30
0.0
 10
17.484576
 20
-4.554834
 30
0.0
 10
17.391755
 20
-4.608423
 30
0.0
  0
SPLINE
  5
12e
100
AcDbEntity
  8
0
 62
7
100
AcDbSpline
 70
8
 71
3
 72
8
 73
4
 74
0
 40
0
 40
0
 40
0
 40
0
 40
1
 40
1
 40
1
 40
1
 10
17.391755
 20
-4.608423
 30
0.0
 10
17.298935
 20
-4.662013
 30
0.0
 10
17.241756
 20
-4.761051
 30
0.0
 10
17.241756
 20
-4.868230
 30
0.0
  0
SPLINE
  5
12f
100
AcDbEntity
  8
0
 62
7
100
AcDbSpline
 70
8
 71
3
 72
8
 73
4
 74
0
 40
0
 40
0
 40
0
 40
0
 40
1
 40
1
 40
1
 40
1
 10
26.481752
 20
-8.798229
 30
0.0
 10
26.481752
 20
-8.691050
 30
0.0
 10
26.424572
 20
-8.592012
 30
0.0
 10
26.331752
 20
-8.538423
 30
0.0
  0
SPLINE
  5
130
100
AcDbEntity
  8
0
 62
7
100
AcDbSpline
 70
8
 71
3
 72
8
 73
4
 74
0
 40
0
 40
0
 40
0
 40
0
 40
1
 40
1
 40
1
 40
1
 10
26.331752
 20
-8.538423
 30
0.0
 10
26.238932
 20
-8.484833
 30
0.0
 10
26.124572
 20
-8.484834
 30
0.0
 10
26.031753
 20
-8.538424
 30
0.0
  0
SPLINE
  5
131
100
AcDbEntity
  8
0
 62
7
100
AcDbSpline
 70
8
 71
3
 72
8
 73
4
 74
0
 40
0
 40
0
 40
0
 40
0
 40
1
 40
1
 40
1
 40
1
 10
26.031753
 20
-8.538424
 30
0.0
 10
25.938933
 20
-8.592014
 30
0.0
 10
25.881753
 20
-8.691052
 30
0.0
 10
25.881754
 20
-8.798231
 30
0.0
  0
SPLINE
  5
132
100
AcDbEntity
  8
0
 62
7
100
AcDbSpline
 70
8
 71
3
 72
8
 73
4
 74
0
 40
0
 40
0
 40
0
 40
0
 40
1
 40
1
 40
1
 40
1
 10
25.881753
 20
-5.468229
 30
0.0
 10
25.881753
 20
-5.575409
 30
0.0
 10
25.938933
 20
-5.674447
 30
0.0
 10
26.031753
 20
-5.728037
 30
0.0
  0
SPLINE
  5
133
100
AcDbEntity
  8
0
 62
7
100
AcDbSpline
 70
8
 71
3
 72
8
 73
4
 74
0
 40
0
 40
0
 40
0
 40
0
 40
1
 40
1
 40
1
 40
1
 10
26.031753
 20
-5.728037
 30
0.0
 10
26.124573
 20
-5.781627
 30
0.0
 10
26.238933
 20
-5.781627
 30
0.0
 10
26.331753
 20
-5.728037
 30
0.0
  0
SPLINE
  5
134
100
AcDbEntity
  8
0
 62
7
100
AcDbSpline
 70
8
 71
3
 72
8
 73
4
 74
0
 40
0
 40
0
 40
0
 40
0
 40
1
 40
1
 40
1
 40
1
 10
26.331753
 20
-5.728037
 30
0.0
 10
26.424573
 20
-5.674447
 30
0.0
 10
26.481753
 20
-5.575409
 30
0.0
 10
26.481753
 20
-5.468229
 30
0.0
  0
SPLINE
  5
135
100
AcDbEntity
  8
0
 62
7
100
AcDbSpline
 70
8
 71
3
 72
8
 73
4
 74
0
 40
0
 40
0
 40
0
 40
0
 40
1
 40
1
 40
1
 40
1
 10
26.481752
 20
-4.868230
 30
0.0
 10
26.481752
 20
-4.761051
 30
0.0
 10
26.424573
 20
-4.662013
 30
0.0
 10
26.331752
 20
-4.608423
 30
0.0
  0
SPLINE
  5
136
100
AcDbEntity
  8
0
 62
7
100
AcDbSpline
 70
8
 71
3
 72
8
 73
4
 74
0
 40
0
 40
0
 40
0
 40
0
 40
1
 40
1
 40
1
 40
1
 10
26.331752
 20
-4.608423
 30
0.0
 10
26.238932
 20
-4.554834
 30
0.0
 10
26.124574
 20
-4.554834
 30
0.0
 10
26.031753
 20
-4.608423
 30
0.0
  0
SPLINE
  5
137
100
AcDbEntity
  8
0
 62
7
100
AcDbSpline
 70
8
 71
3
 72
8
 73
4
 74
0
 40
0
 40
0
 40
0
 40
0
 40
1
 40
1
 40
1
 40
1
 10
26.031753
 20
-4.608423
 30
0.0
 10
25.938933
 20
-4.662013
 30
0.0
 10
25.881754
 20
-4.761051
 30
0.0
 10
25.881754
 20
-4.868230
 30
0.0
  0
LWPOLYLINE
  5
138
100
AcDbEntity
  8
0
 62
7
100
AcDbPolyline
 90
2
 70
0
 10
26.481753
 20
-4.868230
 30
0.0
 10
26.481753
 20
-5.468229
 30
0.0
  0
SPLINE
  5
139
100
AcDbEntity
  8
0
 62
7
100
AcDbSpline
 70
8
 71
3
 72
8
 73
4
 74
0
 40
0
 40
0
 40
0
 40
0
 40
1
 40
1
 40
1
 40
1
 10
17.241755
 20
-5.468229
 30
0.0
 10
17.241755
 20
-5.575409
 30
0.0
 10
17.298935
 20
-5.674447
 30
0.0
 10
17.391755
 20
-5.728037
 30
0.0
  0
SPLINE
  5
13a
100
AcDbEntity
  8
0
 62
7
100
AcDbSpline
 70
8
 71
3
 72
8
 73
4
 74
0
 40
0
 40
0
 40
0
 40
0
 40
1
 40
1
 40
1
 40
1
 10
17.391755
 20
-5.728037
 30
0.0
 10
17.484575
 20
-5.781627
 30
0.0
 10
17.598935
 20
-5.781627
 30
0.0
 10
17.691755
 20
-5.728037
 30
0.0
  0
SPLINE
  5
13b
100
AcDbEntity
  8
0
 62
7
100
AcDbSpline
 70
8
 71
3
 72
8
 73
4
 74
0
 40
0
 40
0
 40
0
 40
0
 40
1
 40
1
 40
1
 40
1
 10
17.691755
 20
-5.728037
 30
0.0
 10
17.784575
 20
-5.674447
 30
0.0
 10
17.841755
 20
-5.575409
 30
0.0
 10
17.841755
 20
-5.468229
 30
0.0
  0
SPLINE
  5
13c
100
AcDbEntity
  8
0
 62
7
100
AcDbSpline
 70
8
 71
3
 72
8
 73
4
 74
0
 40
0
 40
0
 40
0
 40
0
 40
1
 40
1
 40
1
 40
1
 10
25.881753
 20
-9.898227
 30
0.0
 10
25.881753
 20
-10.005407
 30
0.0
 10
25.938933
 20
-10.104445
 30
0.0
 10
26.031753
 20
-10.158035
 30
0.0
  0
SPLINE
  5
13d
100
AcDbEntity
  8
0
 62
7
100
AcDbSpline
 70
8
 71
3
 72
8
 73
4
 74
0
 40
0
 40
0
 40
0
 40
0
 40
1
 40
1
 40
1
 40
1
 10
26.031753
 20
-10.158035
 30
0.0
 10
26.124573
 20
-10.211625
 30
0.0
 10
26.238933
 20
-10.211625
 30
0.0
 10
26.331753
 20
-10.158035
 30
0.0
  0
SPLINE
  5
13e
100
AcDbEntity
  8
0
 62
7
100
AcDbSpline
 70
8
 71
3
 72
8
 73
4
 74
0
 40
0
 40
0
 40
0
 40
0
 40
1
 40
1
 40
1
 40
1
 10
26.331753
 20
-10.158035
 30
0.0
 10
26.424573
 20
-10.104445
 30
0.0
 10
26.481753
 20
-10.005407
 30
0.0
 10
26.481753
 20
-9.898227
 30
0.0
  0
LWPOLYLINE
  5
13f
100
AcDbEntity
  8
0
 62
7
100
AcDbPolyline
 90
2
 70
0
 10
17.241756
 20
-5.468229
 30
0.0
 10
17.241756
 20
-4.868230
 30
0.0
  0
LWPOLYLINE
  5
140
100
AcDbEntity
  8
0
 62
7
100
AcDbPolyline
 90
2
 70
0
 10
25.881754
 20
-9.898227
 30
0.0
 10
25.881754
 20
-8.798231
 30
0.0
  0
LWPOLYLINE
  5
141
100
AcDbEntity
  8
0
 62
7
100
AcDbPolyline
 90
2
 70
0
 10
26.481753
 20
-8.798230
 30
0.0
 10
26.481753
 20
-9.898227
 30
0.0
  0
SPLINE
  5
142
100
AcDbEntity
  8
0
 62
7
100
AcDbSpline
 70
8
 71
3
 72
8
 73
4
 74
0
 40
0
 40
0
 40
0
 40
0
 40
1
 40
1
 40
1
 40
1
 10
17.503961
 20
-4.101688
 30
0.0
 10
17.065792
 20
-4.101581
 30
0.0
 10
16.710404
 20
-4.456519
 30
0.0
 10
16.709955
 20
-4.894687
 30
0.0
  0
SPLINE
  5
143
100
AcDbEntity
  8
0
 62
7
100
AcDbSpline
 70
8
 71
3
 72
8
 73
4
 74
0
 40
0
 40
0
 40
0
 40
0
 40
1
 40
1
 40
1
 40
1
 10
304.444949
 20
-101.732689
 30
0.0
 10
305.076534
 20
-101.733032
 30
0.0
 10
305.682350
 20
-101.482287
 30
0.0
 10
306.128948
 20
-101.035689
 30
0.0
  0
SPLINE
  5
144
100
AcDbEntity
  8
0
 62
7
100
AcDbSpline
 70
8
 71
3
 72
8
 73
4
 74
0
 40
0
 40
0
 40
0
 40
0
 40
1
 40
1
 40
1
 40
1
 10
306.128948
 20
-101.035689
 30
0.0
 10
306.575547
 20
-100.589090
 30
0.0
 10
306.826291
 20
-99.983275
 30
0.0
 10
306.825948
 20
-99.351689
 30
0.0
  0
LWPOLYLINE
  5
145
100
AcDbEntity
  8
0
 62
7
100
AcDbPolyline
 90
2
 70
0
 10
25.881754
 20
-5.468229
 30
0.0
 10
25.881754
 20
-4.868230
 30
0.0
  0
SPLINE
  5
146
100
AcDbEntity
  8
0
 62
7
100
AcDbSpline
 70
8
 71
3
 72
8
 73
4
 74
0
 40
0
 40
0
 40
0
 40
0
 40
1
 40
1
 40
1
 40
1
 10
27.028955
 20
-8.069690
 30
0.0
 10
27.028734
 20
-8.946421
 30
0.0
 10
27.739230
 20
-9.657361
 30
0.0
 10
28.615961
 20
-9.657687
 30
0.0
  0
LWPOLYLINE
  5
147
100
AcDbEntity
  8
0
 62
7
100
AcDbPolyline
 90
2
 70
0
 10
306.825948
 20
-99.351689
 30
0.0
 10
306.825948
 20
-12.038692
 30
0.0
  0
SPLINE
  5
148
100
AcDbEntity
  8
0
 62
7
100
AcDbSpline
 70
8
 71
3
 72
8
 73
4
 74
0
 40
0
 40
0
 40
0
 40
0
 40
1
 40
1
 40
1
 40
1
 10
5.993951
 20
-9.657687
 30
0.0
 10
4.679048
 20
-9.657906
 30
0.0
 10
3.613163
 20
-10.723789
 30
0.0
 10
3.612940
 20
-12.038692
 30
0.0
  0
LWPOLYLINE
  5
149
100
AcDbEntity
  8
0
 62
7
100
AcDbPolyline
 90
2
 70
0
 10
27.028956
 20
-8.069690
 30
0.0
 10
27.028955
 20
-4.894687
 30
0.0
  0
SPLINE
  5
14a
100
AcDbEntity
  8
0
 62
7
100
AcDbSpline
 70
8
 71
3
 72
8
 73
4
 74
0
 40
0
 40
0
 40
0
 40
0
 40
1
 40
1
 40
1
 40
1
 10
15.122949
 20
-9.657687
 30
0.0
 10
15.999680
 20
-9.657361
 30
0.0
 10
16.710176
 20
-8.946421
 30
0.0
 10
16.709955
 20
-8.069690
 30
0.0
  0
SPLINE
  5
14b
100
AcDbEntity
  8
0
 62
7
100
AcDbSpline
 70
8
 71
3
 72
8
 73
4
 74
0
 40
0
 40
0
 40
0
 40
0
 40
1
 40
1
 40
1
 40
1
 10
27.028955
 20
-4.894688
 30
0.0
 10
27.028507
 20
-4.456519
 30
0.0
 10
26.673118
 20
-4.101580
 30
0.0
 10
26.234949
 20
-4.101687
 30
0.0
  0
SPLINE
  5
14c
100
AcDbEntity
  8
0
 62
7
100
AcDbSpline
 70
8
 71
3
 72
8
 73
4
 74
0
 40
0
 40
0
 40
0
 40
0
 40
1
 40
1
 40
1
 40
1
 10
3.612939
 20
-99.351690
 30
0.0
 10
3.613166
 20
-100.666591
 30
0.0
 10
4.679051
 20
-101.732470
 30
0.0
 10
5.993952
 20
-101.732690
 30
0.0
  0
LWPOLYLINE
  5
14d
100
AcDbEntity
  8
0
 62
7
100
AcDbPolyline
 90
2
 70
0
 10
5.993952
 20
-101.732690
 30
0.0
 10
304.444950
 20
-101.732690
 30
0.0
  0
SPLINE
  5
14e
100
AcDbEntity
  8
0
 62
7
100
AcDbSpline
 70
8
 71
3
 72
8
 73
4
 74
0
 40
0
 40
0
 40
0
 40
0
 40
1
 40
1
 40
1
 40
1
 10
306.825948
 20
-12.038693
 30
0.0
 10
306.826293
 20
-11.407107
 30
0.0
 10
306.575550
 20
-10.801289
 30
0.0
 10
306.128951
 20
-10.354690
 30
0.0
  0
SPLINE
  5
14f
100
AcDbEntity
  8
0
 62
7
100
AcDbSpline
 70
8
 71
3
 72
8
 73
4
 74
0
 40
0
 40
0
 40
0
 40
0
 40
1
 40
1
 40
1
 40
1
 10
306.128951
 20
-10.354690
 30
0.0
 10
305.682353
 20
-9.908090
 30
0.0
 10
305.076536
 20
-9.657344
 30
0.0
 10
304.444950
 20
-9.657688
 30
0.0
  0
LWPOLYLINE
  5
150
100
AcDbEntity
  8
0
 62
7
100
AcDbPolyline
 90
2
 70
0
 10
16.709955
 20
-4.894687
 30
0.0
 10
16.709955
 20
-8.069690
 30
0.0
  0
LWPOLYLINE
  5
151
100
AcDbEntity
  8
0
 62
7
100
AcDbPolyline
 90
2
 70
0
 10
26.234949
 20
-4.101687
 30
0.0
 10
17.503961
 20
-4.101687
 30
0.0
  0
LWPOLYLINE
  5
152
100
AcDbEntity
  8
0
 62
7
100
AcDbPolyline
 90
2
 70
0
 10
304.444950
 20
-9.657687
 30
0.0
 10
28.615961
 20
-9.657687
 30
0.0
  0
LWPOLYLINE
  5
153
100
AcDbEntity
  8
0
 62
7
100
AcDbPolyline
 90
2
 70
0
 10
3.612940
 20
-12.038692
 30
0.0
 10
3.612940
 20
-99.351689
 30
0.0
  0
LWPOLYLINE
  5
154
100
AcDbEntity
  8
0
 62
7
100
AcDbPolyline
 90
2
 70
0
 10
15.122949
 20
-9.657687
 30
0.0
 10
5.993951
 20
-9.657687
 30
0.0
  0
ENDSEC
  0
SECTION
  2
OBJECTS
  0
DICTIONARY
  5
C
330
0
100
AcDbDictionary
  3
ACAD_GROUP
350
D
  3
ACAD_MLINESTYLE
350
17
  0
DICTIONARY
  5
D
330
C
100
AcDbDictionary
  0
DICTIONARY
  5
1A
330
C
100
AcDbDictionary
  0
DICTIONARY
  5
17
330
C
100
AcDbDictionary
  3
STANDARD
350
18
  0
DICTIONARY
  5
19
330
C
100
AcDbDictionary
  0
ENDSEC
  0
EOF
