0
SECTION
2
HEADER
9
$INSUNITS
70
4
9
$ACADVER
1
AC1014
9
$HANDSEED
5
FFFF
0
ENDSEC
0
SECTION
2
TABLES
0
TABLE
2
VPORT
5
8
100
AcDbSymbolTable
0
ENDTAB
0
TABLE
2
LTYPE
5
5
100
AcDbSymbolTable
0
LTYPE
5
14
100
AcDbSymbolTableRecord
100
AcDbLinetypeTableRecord
2
BYBLOCK
70
0
0
LTYPE
5
15
100
AcDbSymbolTableRecord
100
AcDbLinetypeTableRecord
2
BYLAYER
70
0
0
ENDTAB
0
TABLE
2
LAYER
5
2
100
AcDbSymbolTable
70
2
0
LAYER
5
50
100
AcDbSymbolTableRecord
100
AcDbLayerTableRecord
2
0
70
0
6
CONTINUOUS
0
ENDTAB
0
TABLE
2
STYLE
5
3
100
AcDbSymbolTable
70
1
0
STYLE
5
11
100
AcDbSymbolTableRecord
100
AcDbTextStyleTableRecord
2
STANDARD
70
0
0
ENDTAB
0
TABLE
2
VIEW
5
6
100
AcDbSymbolTable
70
0
0
ENDTAB
0
TABLE
2
UCS
5
7
100
AcDbSymbolTable
70
0
0
ENDTAB
0
TABLE
2
APPID
5
9
100
AcDbSymbolTable
70
2
0
APPID
5
12
100
AcDbSymbolTableRecord
100
AcDbRegAppTableRecord
2
ACAD
70
0
0
ENDTAB
0
TABLE
2
DIMSTYLE
5
A
100
AcDbSymbolTable
70
1
0
ENDTAB
0
TABLE
2
BLOCK_RECORD
5
1
100
AcDbSymbolTable
70
1
0
BLOCK_RECORD
5
1F
100
AcDbSymbolTableRecord
100
AcDbBlockTableRecord
2
*MODEL_SPACE
0
BLOCK_RECORD
5
1B
100
AcDbSymbolTableRecord
100
AcDbBlockTableRecord
2
*PAPER_SPACE
0
ENDTAB
0
ENDSEC
0
SECTION
2
BLOCKS
0
BLOCK
5
20
100
AcDbEntity
100
AcDbBlockBegin
2
*MODEL_SPACE
0
ENDBLK
5
21
100
AcDbEntity
100
AcDbBlockEnd
0
BLOCK
5
1C
100
AcDbEntity
100
AcDbBlockBegin
2
*PAPER_SPACE
0
ENDBLK
5
1D
100
AcDbEntity
100
AcDbBlockEnd
0
ENDSEC
0
SECTION
2
ENTITIES
0
LWPOLYLINE
5
100
100
AcDbEntity
8
0
100
AcDbPolyline
90
8
70
1
43
0.0
10
3.0249999999999999
20
-16.524999999999999
10
16.024999999999999
20
-16.525000000000002
42
0.41421356237309503
10
16.524999999999999
20
-16.024999999999999
10
16.525000000000002
20
-3.0249999999999999
42
0.41421356237309503
10
16.024999999999999
20
-2.5249999999999999
10
3.0249999999999999
20
-2.5249999999999999
42
0.41421356237309503
10
2.5249999999999999
20
-3.0249999999999999
10
2.5249999999999999
20
-16.024999999999999
42
0.41421356237309503
0
LWPOLYLINE
5
101
100
AcDbEntity
8
0
100
AcDbPolyline
90
8
70
1
43
0.0
10
22.074999999999999
20
-2.5249999999999999
10
35.075000000000003
20
-2.5249999999999999
42
-0.41421356237309959
10
35.575000000000003
20
-3.0249999999999999
10
35.575000000000003
20
-16.024999999999999
42
-0.41421356237309115
10
35.075000000000003
20
-16.524999999999995
10
22.074999999999999
20
-16.524999999999999
42
-0.41421356237309631
10
21.575000000000003
20
-16.024999999999999
10
21.575000000000003
20
-3.0249999999999999
42
-0.41421356237309537
0
LWPOLYLINE
5
102
100
AcDbEntity
8
0
100
AcDbPolyline
90
8
70
1
43
0.0
10
41.125
20
-2.5249999999999999
10
54.125000000000007
20
-2.5250000000000017
42
-0.41421356237309503
10
54.625
20
-3.0249999999999999
10
54.625
20
-16.024999999999999
42
-0.41421356237309503
10
54.125000000000007
20
-16.524999999999999
10
41.125
20
-16.524999999999999
42
-0.41421356237309503
10
40.625
20
-16.024999999999999
10
40.625
20
-3.0249999999999999
42
-0.41421356237309503
0
LWPOLYLINE
5
103
100
AcDbEntity
8
0
100
AcDbPolyline
90
102
70
1
43
0.0
10
114.29681226889201
20
2.4749999996030141
42
-0.41421356237310297
10
112.296812268892
20
0.47499999960302075
10
85.10318773111193
20
0.4749999996031562
42
-0.41421356237308304
10
83.10318773111193
20
2.4749999996030709
10
83.103187731111916
20
2.8249999995231718
42
0.41421356237309531
10
81.103187731111944
20
4.8249999995231132
10
73.274999999999949
20
4.8249999995230581
42
0.41421356237310658
10
72.274999999999949
20
3.8249999995230017
10
72.27499999999992
20
2.2432248343631191
42
-0.4142135623730851
10
71.274999999999949
20
1.2432248343631191
10
24.913935963199965
20
1.2432248343631191
42
-0.41421356237307599
10
23.91393596319995
20
2.2432248343631191
10
23.91393596319995
20
3.8249999995230017
42
0.41421356237309914
10
22.91393596319995
20
4.8249999995229986
10
9.8124999999999432
20
4.8249999995230306
42
0.41421356237309515
10
8.4624999999999204
20
3.474999999523007
10
8.4624999999999488
20
2.7432248343630334
42
-0.41421356237310242
10
6.4624999999999488
20
0.74322483436300457
10
1.7749999999999488
20
0.7432248343630049
42
0.41421356237309997
10
-1.225000000000023
20
-2.2567751656369675
10
-1.22500000000008
20
-93.993226754312801
42
0.41421356237309614
10
0.77499999999992042
20
-95.993226754312801
10
6.4624999999999213
20
-95.993226754312801
42
-0.41421356237308821
10
8.4624999999999204
20
-97.993226754312815
10
8.4624999999999204
20
-98.724999999997024
42
0.41421356237309331
10
9.8124999999999183
20
-100.07499999999702
10
22.913935963199922
20
-100.07499999999702
42
0.41421356237310675
10
23.91393596319994
20
-99.074999999997004
10
23.91393596319995
20
-97.493224834836937
42
-0.41421356237310025
10
24.913935963199926
20
-96.493224834836937
10
71.27499999999992
20
-96.493224834836937
42
-0.41421356237309503
10
72.27499999999992
20
-97.493224834836937
10
72.27499999999992
20
-99.074999999997019
42
0.41421356237308204
10
73.274999999999935
20
-100.07499999999702
10
81.103187731111916
20
-100.07499999999702
42
0.41421356237309243
10
83.103187731111916
20
-98.074999999997004
10
83.103187731111916
20
-97.725000000077131
42
-0.41421356237310281
10
85.10318773111193
20
-95.725000000077145
10
112.29681226889191
20
-95.725000000077003
42
-0.41421356237309243
10
114.29681226889201
20
-97.725000000077017
10
114.29681226889193
20
-98.074999999997004
42
0.41421356237309243
10
116.29681226889191
20
-100.07499999999702
10
129.03893596320992
20
-100.07499999999702
42
0.41421356237310542
10
130.03893596321001
20
-99.074999999997019
10
130.03893596321001
20
-97.493224834836951
42
-0.41421356237310025
10
131.03893596320995
20
-96.49322483483698
10
178.40000000000001
20
-96.493224834836937
42
-0.414213562373069
10
179.39999999999998
20
-97.493224834836951
10
179.39999999999995
20
-99.074999999997061
42
0.41421356237314705
10
180.39999999999992
20
-100.07499999999702
10
189.60318773110995
20
-100.07499999999702
42
0.41421356237310025
10
191.60318773111001
20
-98.074999999997061
10
191.60318773111001
20
-97.779188010567069
42
-0.41421356237306639
10
193.60318773111004
20
-95.779188010567026
10
218.39681226888996
20
-95.779188010567083
42
-0.41421356237308721
10
220.39681226889002
20
-97.779188010567069
10
220.39681226888996
20
-98.074999999997061
42
0.41421356237310025
10
222.39681226889002
20
-100.07499999999702
10
241.16393596321012
20
-100.07499999999702
42
0.4142135623730846
10
242.16393596320998
20
-99.074999999997061
10
242.16393596321012
20
-97.493224834836965
42
-0.41421356237304302
10
243.16393596321009
20
-96.493224834836951
10
285.52499999999998
20
-96.493224834836937
42
-0.41421356237306384
10
286.52499999999986
20
-97.493224834836965
10
286.52499999999986
20
-99.074999999997061
42
0.41421356237310542
10
287.52499999999998
20
-100.07499999999702
10
291.49577736514902
20
-100.0749999999971
42
0.39625535951324681
10
292.843208527689
20
-98.808242190119856
42
-0.39625535951327784
10
295.83749999999998
20
-95.993224834836923
10
304.02499999999998
20
-95.993224834837051
42
0.41421356237307161
10
306.02499999999998
20
-93.993224834837065
10
306.02499999999986
20
-2.2567751656370305
42
0.41421356237310619
10
303.02499999999998
20
0.74322483436291242
10
295.83749999999998
20
0.7432248343631187
42
-0.39625535951327412
10
292.84320852768917
20
3.5582421896458944
42
0.3962553595132588
10
291.49577736514902
20
4.8249999995232571
10
284.22500000000014
20
4.8249999995232002
42
0.41421356237302431
10
283.2249999999998
20
3.8249999995229733
10
283.22499999999991
20
2.2432248343630623
42
-0.41421356237307094
10
282.22500000000019
20
1.2432248343630237
10
243.16393596321009
20
1.2432248343631191
42
-0.41421356237306206
10
242.16393596320998
20
2.2432248343630623
10
242.16393596321012
20
3.8249999995229733
42
0.41421356237308266
10
241.16393596321012
20
4.8249999995230164
10
222.39681226889002
20
4.8249999995229436
42
0.41421356237311929
10
220.39681226889002
20
2.8249999995230586
10
220.39681226889002
20
2.5291880100930801
42
-0.41421356237307838
10
218.39681226888996
20
0.5291880100930797
10
193.60318773111004
20
0.52918801009307959
42
-0.41421356237311741
10
191.60318773110998
20
2.5291880100930801
10
191.60318773111001
20
2.8249999995230874
42
0.41421356237309093
10
189.60318773110995
20
4.824999999523115
10
180.39999999999992
20
4.8249999995230013
42
0.41421356237310952
10
179.39999999999995
20
3.8249999995229733
10
179.39999999999995
20
2.2432248343630903
42
-0.4142135623730851
10
178.39999999999992
20
1.24322483436311
10
131.03893596321001
20
1.2432248343631191
42
-0.4142135623731073
10
130.03893596321001
20
2.2432248343630903
10
130.03893596321001
20
3.8249999995229733
42
0.41421356237312529
10
129.03893596321001
20
4.8249999995230022
10
116.29681226889201
20
4.8249999995229729
42
0.41421356237307538
10
114.2968122688921
20
2.8249999995231718
0
CIRCLE
5
104
100
AcDbEntity
8
0
100
AcDbCircle
10
42.862499999999947
20
-76.200099095696245
30
1.9102000000000005e-12
40
1.45
210
0
220
0
230
1
0
LWPOLYLINE
5
105
100
AcDbEntity
8
0
100
AcDbPolyline
90
8
70
1
43
0.0
10
59.675000000000004
20
-16.024999999999999
42
0.41421356237309503
10
60.174999999999997
20
-16.525000000000002
10
73.174999999999997
20
-16.525000000000002
42
0.41421356237309503
10
73.674999999999997
20
-16.024999999999999
10
73.674999999999997
20
-3.0249999999999999
42
0.41421356237309503
10
73.174999999999997
20
-2.5249999999999999
10
60.174999999999997
20
-2.5249999999999999
42
0.41421356237309503
10
59.675000000000004
20
-3.0249999999999999
0
LWPOLYLINE
5
106
100
AcDbEntity
8
0
100
AcDbPolyline
90
8
70
1
43
0.0
10
212.57499999999999
20
-2.5249999999999999
10
225.57500000000002
20
-2.5249999999999928
42
-0.41421356237309503
10
226.07500000000002
20
-3.0249999999999999
10
226.07500000000002
20
-16.024999999999999
42
-0.41421356237309503
10
225.57500000000002
20
-16.525000000000002
10
212.57499999999999
20
-16.525000000000006
42
-0.41421356237309503
10
212.07499999999999
20
-16.024999999999999
10
212.07499999999999
20
-3.0249999999999999
42
-0.41421356237309503
0
LWPOLYLINE
5
107
100
AcDbEntity
8
0
100
AcDbPolyline
90
8
70
1
43
0.0
10
92.224999999999994
20
-16.525000000000002
42
0.41421356237309503
10
92.725000000000009
20
-16.024999999999999
10
92.725000000000009
20
-3.0249999999999999
42
0.41421356237309503
10
92.224999999999994
20
-2.5249999999999999
10
79.224999999999994
20
-2.5249999999999999
42
0.41421356237309503
10
78.724999999999994
20
-3.0249999999999999
10
78.724999999999994
20
-16.024999999999999
42
0.41421356237309503
10
79.224999999999994
20
-16.525000000000002
0
LWPOLYLINE
5
108
100
AcDbEntity
8
0
100
AcDbPolyline
90
8
70
1
43
0.0
10
245.12500000000003
20
-3.0249999999999999
42
0.41421356237309503
10
244.62500000000003
20
-2.5249999999999999
10
231.625
20
-2.5249999999999999
42
0.41421356237309503
10
231.125
20
-3.0249999999999999
10
231.125
20
-16.024999999999999
42
0.41421356237309503
10
231.625
20
-16.524999999999999
10
244.62500000000003
20
-16.525000000000002
42
0.41421356237309503
10
245.12500000000003
20
-16.024999999999999
0
CIRCLE
5
109
100
AcDbEntity
8
0
100
AcDbCircle
10
285.74999745999997
20
-76.20004829569632
30
1.9102000000000005e-12
40
1.45
210
0
220
0
230
1
0
CIRCLE
5
110
100
AcDbEntity
8
0
100
AcDbCircle
10
233.31805000000003
20
-57.181749999996313
30
6.3550000000000007e-13
40
1.45
210
0
220
0
230
1
0
LWPOLYLINE
5
111
100
AcDbEntity
8
0
100
AcDbPolyline
90
8
70
1
43
0.0
10
250.67500000000001
20
-16.524999999999999
10
263.67500000000001
20
-16.525000000000002
42
0.41421356237309503
10
264.17500000000007
20
-16.024999999999999
10
264.17500000000007
20
-3.0249999999999999
42
0.41421356237309503
10
263.67500000000001
20
-2.5249999999999999
10
250.67500000000001
20
-2.5249999999999999
42
0.41421356237309503
10
250.17500000000001
20
-3.0249999999999999
10
250.17500000000001
20
-16.024999999999999
42
0.41421356237309503
0
LWPOLYLINE
5
112
100
AcDbEntity
8
0
100
AcDbPolyline
90
8
70
1
43
0.0
10
269.22500000000002
20
-3.0249999999999999
10
269.22500000000002
20
-16.024999999999999
42
0.41421356237309503
10
269.72500000000002
20
-16.525000000000002
10
282.72500000000002
20
-16.525000000000002
42
0.41421356237309503
10
283.22500000000002
20
-16.024999999999999
10
283.22500000000002
20
-3.0249999999999999
42
0.41421356237309503
10
282.72500000000002
20
-2.5249999999999999
10
269.72500000000002
20
-2.5249999999999999
42
0.41421356237309503
0
LWPOLYLINE
5
113
100
AcDbEntity
8
0
100
AcDbPolyline
90
8
70
1
43
0.0
10
3.0249999999999999
20
-21.575000000000003
42
0.41421356237309503
10
2.5249999999999999
20
-22.074999999999999
10
2.5249999999999999
20
-35.075000000000003
42
0.41421356237309503
10
3.0249999999999999
20
-35.575000000000003
10
16.024999999999999
20
-35.575000000000003
42
0.41421356237309503
10
16.525000000000002
20
-35.075000000000003
10
16.525000000000002
20
-22.074999999999999
42
0.41421356237309503
10
16.024999999999999
20
-21.575000000000003
0
LWPOLYLINE
5
114
100
AcDbEntity
8
0
100
AcDbPolyline
90
8
70
1
43
0.0
10
40.625
20
-35.075000000000003
42
0.41421356237309503
10
41.125
20
-35.575000000000003
10
54.125000000000007
20
-35.575000000000003
42
0.41421356237309503
10
54.625
20
-35.075000000000003
10
54.625
20
-22.074999999999999
42
0.41421356237309503
10
54.125000000000007
20
-21.575000000000003
10
41.125
20
-21.575000000000003
42
0.41421356237309503
10
40.625
20
-22.074999999999999
0
LWPOLYLINE
5
115
100
AcDbEntity
8
0
100
AcDbPolyline
90
8
70
1
43
0.0
10
22.074999999999999
20
-21.575000000000003
42
0.41421356237309503
10
21.575000000000003
20
-22.074999999999999
10
21.575000000000003
20
-35.075000000000003
42
0.41421356237309503
10
22.074999999999999
20
-35.575000000000003
10
35.075000000000003
20
-35.575000000000003
42
0.41421356237309503
10
35.575000000000003
20
-35.075000000000003
10
35.575000000000003
20
-22.074999999999999
42
0.41421356237309503
10
35.075000000000003
20
-21.575000000000003
0
LWPOLYLINE
5
116
100
AcDbEntity
8
0
100
AcDbPolyline
90
8
70
1
43
0.0
10
226.07500000000002
20
-22.074999999999999
10
226.07500000000002
20
-35.075000000000003
42
-0.41421356237309503
10
225.57500000000002
20
-35.575000000000003
10
212.57499999999999
20
-35.57500000000001
42
-0.41421356237309503
10
212.07499999999999
20
-35.075000000000003
10
212.07499999999999
20
-22.074999999999999
42
-0.41421356237309503
10
212.57499999999999
20
-21.575000000000003
10
225.57500000000002
20
-21.574999999999992
42
-0.41421356237309503
0
LWPOLYLINE
5
117
100
AcDbEntity
8
0
100
AcDbPolyline
90
8
70
1
43
0.0
10
288.77499999999998
20
-2.5249999999999999
42
0.41421356237309503
10
288.27499999999998
20
-3.0249999999999999
10
288.27499999999998
20
-16.024999999999999
42
0.41421356237309503
10
288.77499999999998
20
-16.525000000000002
10
301.77499999999998
20
-16.525000000000002
42
0.41421356237309503
10
302.27499999999998
20
-16.024999999999999
10
302.27499999999998
20
-3.0249999999999999
42
0.41421356237309503
10
301.77499999999998
20
-2.5249999999999999
0
LWPOLYLINE
5
118
100
AcDbEntity
8
0
100
AcDbPolyline
90
8
70
1
43
0.0
10
59.675000000000004
20
-35.075000000000003
42
0.41421356237309503
10
60.174999999999997
20
-35.575000000000003
10
73.174999999999997
20
-35.575000000000003
42
0.41421356237309503
10
73.674999999999997
20
-35.075000000000003
10
73.674999999999997
20
-22.074999999999999
42
0.41421356237309503
10
73.174999999999997
20
-21.575000000000003
10
60.174999999999997
20
-21.575000000000003
42
0.41421356237309503
10
59.675000000000004
20
-22.074999999999999
0
LWPOLYLINE
5
119
100
AcDbEntity
8
0
100
AcDbPolyline
90
8
70
1
43
0.0
10
288.27499999999998
20
-22.074999999999999
10
288.27499999999998
20
-35.075000000000003
42
0.41421356237309503
10
288.77499999999998
20
-35.575000000000003
10
301.77499999999998
20
-35.575000000000003
42
0.41421356237309503
10
302.27499999999998
20
-35.075000000000003
10
302.27499999999998
20
-22.074999999999999
42
0.41421356237309503
10
301.77499999999998
20
-21.575000000000003
10
288.77499999999998
20
-21.575000000000003
42
0.41421356237309503
0
LWPOLYLINE
5
120
100
AcDbEntity
8
0
100
AcDbPolyline
90
8
70
1
43
0.0
10
231.625
20
-21.575000000000003
10
244.62500000000003
20
-21.574999999999992
42
-0.41421356237309503
10
245.12500000000003
20
-22.074999999999999
10
245.12500000000003
20
-35.075000000000003
42
-0.41421356237309503
10
244.62500000000003
20
-35.575000000000003
10
231.625
20
-35.57500000000001
42
-0.41421356237309503
10
231.125
20
-35.075000000000003
10
231.125
20
-22.074999999999999
42
-0.41421356237309503
0
LWPOLYLINE
5
121
100
AcDbEntity
8
0
100
AcDbPolyline
90
8
70
1
43
0.0
10
78.724999999999994
20
-35.075000000000003
42
0.41421356237309503
10
79.224999999999994
20
-35.575000000000003
10
92.224999999999994
20
-35.575000000000003
42
0.41421356237309503
10
92.725000000000009
20
-35.075000000000003
10
92.725000000000009
20
-22.074999999999999
42
0.41421356237309503
10
92.224999999999994
20
-21.575000000000003
10
79.224999999999994
20
-21.575000000000003
42
0.41421356237309503
10
78.724999999999994
20
-22.074999999999999
0
LWPOLYLINE
5
122
100
AcDbEntity
8
0
100
AcDbPolyline
90
8
70
1
43
0.0
10
269.72500000000002
20
-35.575000000000003
10
282.72500000000002
20
-35.575000000000003
42
0.41421356237309503
10
283.22500000000002
20
-35.075000000000003
10
283.22500000000002
20
-22.074999999999999
42
0.41421356237309503
10
282.72500000000002
20
-21.575000000000003
10
269.72500000000002
20
-21.575000000000003
42
0.41421356237309503
10
269.22500000000002
20
-22.074999999999999
10
269.22500000000002
20
-35.075000000000003
42
0.41421356237309503
0
LWPOLYLINE
5
123
100
AcDbEntity
8
0
100
AcDbPolyline
90
8
70
1
43
0.0
10
250.67500000000001
20
-21.575000000000003
10
263.67500000000001
20
-21.574999999999992
42
-0.41421356237309503
10
264.17500000000007
20
-22.074999999999999
10
264.17500000000007
20
-35.075000000000003
42
-0.41421356237309503
10
263.67500000000001
20
-35.575000000000003
10
250.67500000000001
20
-35.57500000000001
42
-0.41421356237309503
10
250.17500000000001
20
-35.075000000000003
10
250.17500000000001
20
-22.074999999999999
42
-0.41421356237309503
0
CIRCLE
5
124
100
AcDbEntity
8
0
100
AcDbCircle
10
73.806049999999829
20
-57.181749999996285
30
6.3550000000000007e-13
40
1.45
210
0
220
0
230
1
0
LWPOLYLINE
5
125
100
AcDbEntity
8
0
100
AcDbPolyline
90
8
70
1
43
0.0
10
21.575000000000003
20
-54.125000000000007
42
0.41421356237309503
10
22.074999999999999
20
-54.625
10
35.075000000000003
20
-54.625
42
0.41421356237309503
10
35.575000000000003
20
-54.125000000000007
10
35.575000000000003
20
-41.125
42
0.41421356237309503
10
35.075000000000003
20
-40.625
10
22.074999999999999
20
-40.625
42
0.41421356237309503
10
21.575000000000003
20
-41.125
0
LWPOLYLINE
5
126
100
AcDbEntity
8
0
100
AcDbPolyline
90
8
70
1
43
0.0
10
16.524999999999999
20
-41.125
10
16.524999999999999
20
-54.125000000000007
42
-0.41421356237309503
10
16.024999999999999
20
-54.625
10
3.0249999999999999
20
-54.625
42
-0.41421356237309503
10
2.5249999999999999
20
-54.125000000000007
10
2.5250000000000017
20
-41.125
42
-0.41421356237309503
10
3.0249999999999999
20
-40.625
10
16.024999999999999
20
-40.625
42
-0.41421356237309503
0
LWPOLYLINE
5
127
100
AcDbEntity
8
0
100
AcDbPolyline
90
8
70
1
43
0.0
10
41.125
20
-40.625
10
54.125000000000007
20
-40.625
42
-0.41421356237309503
10
54.625
20
-41.125
10
54.625
20
-54.125000000000007
42
-0.41421356237309503
10
54.125000000000007
20
-54.625
10
41.125
20
-54.625
42
-0.41421356237309503
10
40.625
20
-54.125000000000007
10
40.625
20
-41.125
42
-0.41421356237309503
0
LWPOLYLINE
5
128
100
AcDbEntity
8
0
100
AcDbPolyline
90
8
70
1
43
0.0
10
60.174999999999997
20
-54.625
10
73.174999999999997
20
-54.625
42
0.41421356237309503
10
73.674999999999997
20
-54.125000000000007
10
73.674999999999997
20
-41.125
42
0.41421356237309503
10
73.174999999999997
20
-40.625
10
60.174999999999997
20
-40.625
42
0.41421356237309503
10
59.675000000000004
20
-41.125
10
59.675000000000004
20
-54.125000000000007
42
0.41421356237309503
0
LWPOLYLINE
5
129
100
AcDbEntity
8
0
100
AcDbPolyline
90
8
70
1
43
0.0
10
79.224999999999994
20
-54.625
10
92.224999999999994
20
-54.625
42
0.41421356237309503
10
92.725000000000009
20
-54.125000000000007
10
92.725000000000009
20
-41.125
42
0.41421356237309503
10
92.224999999999994
20
-40.625
10
79.224999999999994
20
-40.625
42
0.41421356237309503
10
78.724999999999994
20
-41.125
10
78.724999999999994
20
-54.125000000000007
42
0.41421356237309503
0
LWPOLYLINE
5
130
100
AcDbEntity
8
0
100
AcDbPolyline
90
8
70
1
43
0.0
10
212.57499999999999
20
-54.625
10
225.57500000000002
20
-54.625
42
0.41421356237309503
10
226.07500000000002
20
-54.125000000000007
10
226.07500000000002
20
-41.125
42
0.41421356237309503
10
225.57500000000002
20
-40.625
10
212.57499999999999
20
-40.625
42
0.41421356237309503
10
212.07499999999999
20
-41.125
10
212.07499999999999
20
-54.125000000000007
42
0.41421356237309503
0
LWPOLYLINE
5
131
100
AcDbEntity
8
0
100
AcDbPolyline
90
8
70
1
43
0.0
10
264.17500000000007
20
-41.125
42
0.41421356237309503
10
263.67500000000001
20
-40.625
10
250.67500000000001
20
-40.625
42
0.41421356237309503
10
250.17500000000001
20
-41.125
10
250.17500000000001
20
-54.125000000000007
42
0.41421356237309503
10
250.67500000000001
20
-54.625
10
263.67500000000001
20
-54.625
42
0.41421356237309503
10
264.17500000000007
20
-54.125000000000007
0
LWPOLYLINE
5
132
100
AcDbEntity
8
0
100
AcDbPolyline
90
8
70
1
43
0.0
10
111.77500000000002
20
-60.174999999999997
10
111.77500000000002
20
-73.174999999999997
42
-0.41421356237309503
10
111.27500000000001
20
-73.674999999999997
10
98.275000000000006
20
-73.675000000000011
42
-0.41421356237309503
10
97.775000000000006
20
-73.174999999999997
10
97.775000000000006
20
-60.174999999999997
42
-0.41421356237309503
10
98.275000000000006
20
-59.675000000000004
10
111.27500000000001
20
-59.674999999999997
42
-0.41421356237309503
0
LWPOLYLINE
5
133
100
AcDbEntity
8
0
100
AcDbPolyline
90
8
70
1
43
0.0
10
22.074999999999999
20
-73.674999999999997
10
35.075000000000003
20
-73.674999999999997
42
0.41421356237309503
10
35.575000000000003
20
-73.174999999999997
10
35.575000000000003
20
-60.174999999999997
42
0.41421356237309503
10
35.075000000000003
20
-59.675000000000004
10
22.074999999999999
20
-59.675000000000004
42
0.41421356237309503
10
21.575000000000003
20
-60.174999999999997
10
21.575000000000003
20
-73.174999999999997
42
0.41421356237309503
0
LWPOLYLINE
5
134
100
AcDbEntity
8
0
100
AcDbPolyline
90
8
70
1
43
0.0
10
73.174999999999997
20
-73.674999999999997
42
0.41421356237309503
10
73.674999999999997
20
-73.174999999999997
10
73.674999999999997
20
-60.174999999999997
42
0.41421356237309503
10
73.174999999999997
20
-59.675000000000004
10
60.174999999999997
20
-59.675000000000004
42
0.41421356237309503
10
59.675000000000004
20
-60.174999999999997
10
59.675000000000004
20
-73.174999999999997
42
0.41421356237309503
10
60.174999999999997
20
-73.674999999999997
0
LWPOLYLINE
5
135
100
AcDbEntity
8
0
100
AcDbPolyline
90
8
70
1
43
0.0
10
3.0249999999999999
20
-59.675000000000004
10
16.024999999999999
20
-59.675000000000004
42
-0.41421356237309503
10
16.525000000000002
20
-60.174999999999997
10
16.524999999999999
20
-73.174999999999997
42
-0.41421356237309503
10
16.024999999999999
20
-73.674999999999997
10
3.0249999999999999
20
-73.674999999999997
42
-0.41421356237309503
10
2.5249999999999999
20
-73.174999999999997
10
2.5250000000000017
20
-60.174999999999997
42
-0.41421356237309503
0
LWPOLYLINE
5
136
100
AcDbEntity
8
0
100
AcDbPolyline
90
8
70
1
43
0.0
10
269.22500000000002
20
-41.125
10
269.22500000000002
20
-54.125000000000007
42
0.41421356237309503
10
269.72500000000002
20
-54.625
10
282.72500000000002
20
-54.625
42
0.41421356237309503
10
283.22500000000002
20
-54.125000000000007
10
283.22500000000002
20
-41.125
42
0.41421356237309503
10
282.72500000000002
20
-40.625
10
269.72500000000002
20
-40.625
42
0.41421356237309503
0
LWPOLYLINE
5
137
100
AcDbEntity
8
0
100
AcDbPolyline
90
8
70
1
43
0.0
10
79.224999999999994
20
-59.675000000000004
10
92.224999999999994
20
-59.674999999999997
42
-0.41421356237309503
10
92.725000000000009
20
-60.174999999999997
10
92.725000000000009
20
-73.174999999999997
42
-0.41421356237309503
10
92.224999999999994
20
-73.674999999999997
10
79.224999999999994
20
-73.674999999999997
42
-0.41421356237309503
10
78.724999999999994
20
-73.174999999999997
10
78.724999999999994
20
-60.174999999999997
42
-0.41421356237309503
0
LWPOLYLINE
5
138
100
AcDbEntity
8
0
100
AcDbPolyline
90
8
70
1
43
0.0
10
288.77499999999998
20
-54.625
10
301.77499999999998
20
-54.625
42
0.41421356237309503
10
302.27499999999998
20
-54.125000000000007
10
302.27499999999998
20
-41.125
42
0.41421356237309503
10
301.77499999999998
20
-40.625
10
288.77499999999998
20
-40.625
42
0.41421356237309503
10
288.27499999999998
20
-41.125
10
288.27499999999998
20
-54.125000000000007
42
0.41421356237309503
0
LWPOLYLINE
5
139
100
AcDbEntity
8
0
100
AcDbPolyline
90
8
70
1
43
0.0
10
54.625
20
-60.174999999999997
42
0.41421356237309503
10
54.125000000000007
20
-59.675000000000004
10
41.125
20
-59.675000000000004
42
0.41421356237309503
10
40.625
20
-60.174999999999997
10
40.625
20
-73.174999999999997
42
0.41421356237309503
10
41.125
20
-73.674999999999997
10
54.125000000000007
20
-73.674999999999997
42
0.41421356237309503
10
54.625
20
-73.174999999999997
0
LWPOLYLINE
5
140
100
AcDbEntity
8
0
100
AcDbPolyline
90
8
70
1
43
0.0
10
231.125
20
-41.125
10
231.125
20
-54.125000000000007
42
0.41421356237309503
10
231.625
20
-54.625
10
244.62500000000003
20
-54.625
42
0.41421356237309503
10
245.12500000000003
20
-54.125000000000007
10
245.12500000000003
20
-41.125
42
0.41421356237309503
10
244.62500000000003
20
-40.625
10
231.625
20
-40.625
42
0.41421356237309503
0
LWPOLYLINE
5
141
100
AcDbEntity
8
0
100
AcDbPolyline
90
8
70
1
43
0.0
10
269.22500000000002
20
-73.174999999999997
42
0.41421356237309503
10
269.72500000000002
20
-73.674999999999997
10
282.72500000000002
20
-73.674999999999997
42
0.41421356237309503
10
283.22500000000002
20
-73.174999999999997
10
283.22500000000002
20
-60.174999999999997
42
0.41421356237309503
10
282.72500000000002
20
-59.675000000000004
10
269.72500000000002
20
-59.675000000000004
42
0.41421356237309503
10
269.22500000000002
20
-60.174999999999997
0
LWPOLYLINE
5
142
100
AcDbEntity
8
0
100
AcDbPolyline
90
8
70
1
43
0.0
10
137.46875
20
-69.200000000000003
10
124.46875
20
-69.200000000000003
42
0.41421356237309503
10
123.96875000000001
20
-69.700000000000003
10
123.96875
20
-82.700000000000017
42
0.41421356237309503
10
124.46875
20
-83.200000000000017
10
137.46875
20
-83.200000000000017
42
0.41421356237309503
10
137.96875
20
-82.700000000000017
10
137.96875000000003
20
-69.700000000000003
42
0.41421356237309503
0
LWPOLYLINE
5
143
100
AcDbEntity
8
0
100
AcDbPolyline
90
8
70
1
43
0.0
10
206.52500000000003
20
-73.674999999999997
42
0.41421356237309503
10
207.02500000000003
20
-73.174999999999997
10
207.02500000000003
20
-60.174999999999997
42
0.41421356237309503
10
206.52500000000003
20
-59.675000000000004
10
193.52500000000003
20
-59.675000000000004
42
0.41421356237309503
10
193.02500000000003
20
-60.174999999999997
10
193.02500000000003
20
-73.174999999999997
42
0.41421356237309503
10
193.52500000000003
20
-73.674999999999997
0
LWPOLYLINE
5
144
100
AcDbEntity
8
0
100
AcDbPolyline
90
8
70
1
43
0.0
10
226.07500000000002
20
-60.174999999999997
42
0.41421356237309503
10
225.57500000000002
20
-59.675000000000004
10
212.57499999999999
20
-59.675000000000004
42
0.41421356237309503
10
212.07499999999999
20
-60.174999999999997
10
212.07499999999999
20
-73.174999999999997
42
0.41421356237309503
10
212.57499999999999
20
-73.674999999999997
10
225.57500000000002
20
-73.674999999999997
42
0.41421356237309503
10
226.07500000000002
20
-73.174999999999997
0
LWPOLYLINE
5
145
100
AcDbEntity
8
0
100
AcDbPolyline
90
8
70
1
43
0.0
10
136.46875
20
-60.762
10
122.46875000000001
20
-60.762000000000008
42
0.41421356237309503
10
121.96875
20
-61.262000000000008
10
121.96875
20
-67.262
42
0.41421356237309503
10
122.46875000000001
20
-67.762
10
136.46875
20
-67.762
42
0.41421356237309503
10
136.96875000000003
20
-67.262
10
136.96875000000003
20
-61.262000000000008
42
0.41421356237309503
0
LWPOLYLINE
5
146
100
AcDbEntity
8
0
100
AcDbPolyline
90
8
70
1
43
0.0
10
231.625
20
-59.675000000000004
10
244.62500000000003
20
-59.674999999999997
42
-0.41421356237309503
10
245.12500000000003
20
-60.174999999999997
10
245.12500000000003
20
-73.174999999999997
42
-0.41421356237309503
10
244.62500000000003
20
-73.674999999999997
10
231.625
20
-73.675000000000011
42
-0.41421356237309503
10
231.125
20
-73.174999999999997
10
231.125
20
-60.174999999999997
42
-0.41421356237309503
0
LWPOLYLINE
5
147
100
AcDbEntity
8
0
100
AcDbPolyline
90
8
70
1
43
0.0
10
122.46875000000001
20
-84.637999999999991
42
0.41421356237309503
10
121.96875
20
-85.138000000000005
10
121.96875
20
-91.137999999999991
42
0.41421356237309503
10
122.46875000000001
20
-91.638000000000005
10
136.46875
20
-91.638000000000005
42
0.41421356237309503
10
136.96875
20
-91.137999999999991
10
136.96875000000003
20
-85.138000000000005
42
0.41421356237309503
10
136.46875
20
-84.637999999999991
0
LWPOLYLINE
5
148
100
AcDbEntity
8
0
100
AcDbPolyline
90
8
70
1
43
0.0
10
5.40625
20
-92.724999999999994
10
18.40625
20
-92.725000000000009
42
0.41421356237309503
10
18.906250000000004
20
-92.224999999999994
10
18.906250000000004
20
-79.224999999999994
42
0.41421356237309503
10
18.40625
20
-78.724999999999994
10
5.40625
20
-78.724999999999994
42
0.41421356237309503
10
4.90625
20
-79.224999999999994
10
4.90625
20
-92.224999999999994
42
0.41421356237309503
0
LWPOLYLINE
5
149
100
AcDbEntity
8
0
100
AcDbPolyline
90
8
70
1
43
0.0
10
40.337500000000006
20
-79.224999999999994
10
40.337500000000013
20
-92.224999999999994
42
-0.41421356237309503
10
39.837499999999999
20
-92.724999999999994
10
26.837499999999999
20
-92.725000000000009
42
-0.41421356237309503
10
26.337499999999999
20
-92.224999999999994
10
26.337499999999999
20
-79.224999999999994
42
-0.41421356237309503
10
26.837499999999999
20
-78.724999999999994
10
39.837499999999999
20
-78.724999999999994
42
-0.41421356237309503
0
LWPOLYLINE
5
150
100
AcDbEntity
8
0
100
AcDbPolyline
90
8
70
1
43
0.0
10
101.80675000000001
20
-76.725000000000009
42
0.41421356237309503
10
101.30674999999999
20
-77.224999999999994
10
101.30674999999999
20
-91.225000000000009
42
0.41421356237309503
10
101.80675000000001
20
-91.725000000000009
10
107.80675000000001
20
-91.725000000000009
42
0.41421356237309503
10
108.30675000000001
20
-91.225000000000009
10
108.30675000000001
20
-77.224999999999994
42
0.41421356237309503
10
107.80675000000001
20
-76.724999999999994
0
LWPOLYLINE
5
151
100
AcDbEntity
8
0
100
AcDbPolyline
90
8
70
1
43
0.0
10
288.77499999999998
20
-59.675000000000004
10
301.77499999999998
20
-59.674999999999997
42
-0.41421356237309503
10
302.27499999999998
20
-60.174999999999997
10
302.27499999999998
20
-73.174999999999997
42
-0.41421356237309503
10
301.77499999999998
20
-73.674999999999997
10
288.77499999999998
20
-73.675000000000011
42
-0.41421356237309503
10
288.27499999999998
20
-73.174999999999997
10
288.27499999999998
20
-60.174999999999997
42
-0.41421356237309503
0
LWPOLYLINE
5
152
100
AcDbEntity
8
0
100
AcDbPolyline
90
8
70
1
43
0.0
10
48.268750000000004
20
-92.724999999999994
10
61.268749999999997
20
-92.725000000000009
42
0.41421356237309503
10
61.768749999999997
20
-92.224999999999994
10
61.768749999999997
20
-79.224999999999994
42
0.41421356237309503
10
61.268749999999997
20
-78.724999999999994
10
48.268750000000004
20
-78.724999999999994
42
0.41421356237309503
10
47.768749999999997
20
-79.224999999999994
10
47.768750000000004
20
-92.224999999999994
42
0.41421356237309503
0
LWPOLYLINE
5
153
100
AcDbEntity
8
0
100
AcDbPolyline
90
8
70
1
43
0.0
10
83.930750000000018
20
-91.725000000000009
42
0.41421356237309503
10
84.430750000000018
20
-91.225000000000009
10
84.430750000000018
20
-77.224999999999994
42
0.41421356237309503
10
83.930750000000018
20
-76.725000000000009
10
77.930750000000003
20
-76.725000000000009
42
0.41421356237309503
10
77.430750000000018
20
-77.224999999999994
10
77.430750000000018
20
-91.225000000000009
42
0.41421356237309503
10
77.930750000000003
20
-91.725000000000009
0
LWPOLYLINE
5
154
100
AcDbEntity
8
0
100
AcDbPolyline
90
8
70
1
43
0.0
10
250.17500000000001
20
-60.174999999999997
10
250.17500000000001
20
-73.174999999999997
42
0.41421356237309503
10
250.67500000000001
20
-73.674999999999997
10
263.67500000000001
20
-73.674999999999997
42
0.41421356237309503
10
264.17500000000007
20
-73.174999999999997
10
264.17500000000007
20
-60.174999999999997
42
0.41421356237309503
10
263.67500000000001
20
-59.675000000000004
10
250.67500000000001
20
-59.675000000000004
42
0.41421356237309503
0
LWPOLYLINE
5
155
100
AcDbEntity
8
0
100
AcDbPolyline
90
8
70
1
43
0.0
10
210.19374999999999
20
-78.724999999999994
10
223.19375000000002
20
-78.724999999999994
42
-0.41421356237309503
10
223.69375000000002
20
-79.224999999999994
10
223.69375000000002
20
-92.224999999999994
42
-0.41421356237309503
10
223.19375000000002
20
-92.725000000000009
10
210.19374999999999
20
-92.725000000000009
42
-0.41421356237309503
10
209.69374999999999
20
-92.224999999999994
10
209.69374999999999
20
-79.224999999999994
42
-0.41421356237309503
0
LWPOLYLINE
5
156
100
AcDbEntity
8
0
100
AcDbPolyline
90
8
70
1
43
0.0
10
85.868750000000006
20
-92.224999999999994
42
0.41421356237309503
10
86.36875000000002
20
-92.725000000000009
10
99.368750000000006
20
-92.725000000000009
42
0.41421356237309503
10
99.868750000000006
20
-92.224999999999994
10
99.868750000000006
20
-79.224999999999994
42
0.41421356237309503
10
99.368750000000006
20
-78.724999999999994
10
86.36875000000002
20
-78.724999999999994
42
0.41421356237309503
10
85.868750000000006
20
-79.224999999999994
0
LWPOLYLINE
5
157
100
AcDbEntity
8
0
100
AcDbPolyline
90
8
70
1
43
0.0
10
201.75575000000003
20
-76.724999999999994
10
207.75575000000003
20
-76.724999999999994
42
-0.41421356237309503
10
208.25575000000001
20
-77.224999999999994
10
208.25575000000003
20
-91.225000000000009
42
-0.41421356237309503
10
207.75575000000003
20
-91.725000000000009
10
201.75575000000003
20
-91.725000000000009
42
-0.41421356237309503
10
201.25575000000001
20
-91.225000000000009
10
201.25575000000001
20
-77.224999999999994
42
-0.41421356237309503
0
LWPOLYLINE
5
158
100
AcDbEntity
8
0
100
AcDbPolyline
90
8
70
1
43
0.0
10
255.43750000000003
20
-78.724999999999994
10
268.4375
20
-78.724999999999994
42
-0.41421356237309503
10
268.9375
20
-79.224999999999994
10
268.9375
20
-92.224999999999994
42
-0.41421356237309503
10
268.4375
20
-92.724999999999994
10
255.43750000000003
20
-92.725000000000009
42
-0.41421356237309503
10
254.93750000000003
20
-92.224999999999994
10
254.93750000000003
20
-79.224999999999994
42
-0.41421356237309503
0
LWPOLYLINE
5
159
100
AcDbEntity
8
0
100
AcDbPolyline
90
8
70
1
43
0.0
10
283.51249999999999
20
-79.224999999999994
10
283.51249999999999
20
-92.224999999999994
42
0.41421356237309503
10
284.01249999999999
20
-92.725000000000009
10
297.01250000000005
20
-92.725000000000009
42
0.41421356237309503
10
297.51249999999999
20
-92.224999999999994
10
297.51250000000005
20
-79.224999999999994
42
0.41421356237309503
10
297.01250000000005
20
-78.724999999999994
10
284.01249999999999
20
-78.724999999999994
42
0.41421356237309503
0
LWPOLYLINE
5
160
100
AcDbEntity
8
0
100
AcDbPolyline
90
8
70
1
43
0.0
10
172.09375
20
-83.200000000000003
10
185.09375000000003
20
-83.200000000000017
42
0.41421356237309503
10
185.59375
20
-82.700000000000017
10
185.59375000000003
20
-69.700000000000003
42
0.41421356237309503
10
185.09375000000003
20
-69.200000000000003
10
172.09375
20
-69.200000000000003
42
0.41421356237309503
10
171.59375
20
-69.700000000000003
10
171.59375
20
-82.700000000000017
42
0.41421356237309503
0
LWPOLYLINE
5
161
100
AcDbEntity
8
0
100
AcDbPolyline
90
8
70
1
43
0.0
10
225.13175000000001
20
-91.225000000000009
42
0.41421356237309503
10
225.63175000000001
20
-91.725000000000009
10
231.63175000000001
20
-91.725000000000009
42
0.41421356237309503
10
232.13175000000004
20
-91.225000000000009
10
232.13175000000004
20
-77.224999999999994
42
0.41421356237309503
10
231.63175000000001
20
-76.725000000000009
10
225.63175000000001
20
-76.725000000000009
42
0.41421356237309503
10
225.13175000000004
20
-77.224999999999994
0
LWPOLYLINE
5
162
100
AcDbEntity
8
0
100
AcDbPolyline
90
8
70
1
43
0.0
10
187.09375
20
-91.638000000000005
42
0.41421356237309503
10
187.59375000000003
20
-91.137999999999991
10
187.59375000000003
20
-85.138000000000005
42
0.41421356237309503
10
187.09375
20
-84.637999999999991
10
173.09375
20
-84.637999999999991
42
0.41421356237309503
10
172.59375000000003
20
-85.138000000000005
10
172.59375
20
-91.137999999999991
42
0.41421356237309503
10
173.09375
20
-91.638000000000005
0
LWPOLYLINE
5
163
100
AcDbEntity
8
0
100
AcDbPolyline
90
8
70
1
43
0.0
10
187.59375000000003
20
-61.262000000000008
42
0.41421356237309503
10
187.09375
20
-60.762000000000008
10
173.09375
20
-60.762000000000008
42
0.41421356237309503
10
172.59375000000003
20
-61.262000000000008
10
172.59375
20
-67.262
42
0.41421356237309503
10
173.09375
20
-67.762
10
187.09375
20
-67.762
42
0.41421356237309503
10
187.59375000000003
20
-67.262
0
LWPOLYLINE
5
164
100
AcDbEntity
8
0
100
AcDbPolyline
90
11
70
1
43
0.0
10
96.25
20
-0.47500000000000014
10
208.55000000000004
20
-0.47499999999999959
42
-0.41421356237309076
10
209.07499999999999
20
-1.000000000000002
10
209.07499999999999
20
-56.150000000000006
42
-0.41421356237309997
10
208.55000000000004
20
-56.675000000000004
10
167.68754999999999
20
-56.67499999999982
10
141.87495000000001
20
-56.675000000000004
10
114.29995000000011
20
-56.674999999999969
10
96.25
20
-56.675000000000004
42
-0.41421356237310991
10
95.72499999999998
20
-56.150000000000006
10
95.724999999999994
20
-0.99999999999999978
42
-0.41421356237308871
0
LWPOLYLINE
5
165
100
AcDbEntity
8
0
100
AcDbPolyline
90
4
70
1
43
0.0
10
288.27499999999998
20
-2.5249999999999999
10
288.27499999999998
20
-16.524999999999999
10
302.27499999999998
20
-16.524999999999999
10
302.27499999999998
20
-2.5249999999999995
0
LWPOLYLINE
5
166
100
AcDbEntity
8
0
100
AcDbPolyline
90
4
70
1
43
0.0
10
147.78125
20
-59.675000000000004
10
147.78125
20
-73.674999999999997
10
161.78125
20
-73.674999999999997
10
161.78125
20
-59.675000000000004
0
LWPOLYLINE
5
167
100
AcDbEntity
8
0
100
AcDbPolyline
90
4
70
1
43
0.0
10
147.78125
20
-92.724999999999994
10
161.78125
20
-92.724999999999994
10
161.78125
20
-78.724999999999994
10
147.78125
20
-78.724999999999994
0
LWPOLYLINE
5
168
100
AcDbEntity
8
0
100
AcDbPolyline
90
4
70
1
43
0.0
10
2.5249999999999999
20
-16.524999999999999
10
16.524999999999999
20
-16.524999999999999
10
16.524999999999999
20
-2.5249999999999999
10
2.5249999999999995
20
-2.5249999999999999
0
LWPOLYLINE
5
169
100
AcDbEntity
8
0
100
AcDbPolyline
90
3
70
1
43
0.0
10
96.249999999999986
20
-56.150000000000013
10
152.40000000000003
20
-0.47499999999999987
10
208.55000000000001
20
-56.150000000000048
0
LINE
5
170
100
AcDbEntity
8
0
100
AcDbLine
10
96.249999999999986
20
-56.150000000000013
30
0
11
113.2924950032489
21
-39.251675702477613
31
0
0
CIRCLE
5
171
100
AcDbEntity
8
0
100
AcDbCircle
10
113.2924950032489
20
-39.251675702477613
30
0
40
10
210
0
220
0
230
1
0
LINE
5
172
100
AcDbEntity
8
0
100
AcDbLine
10
208.55000000000001
20
-56.150000000000048
30
0
11
191.50750499675109
21
-39.251675702477641
31
0
0
CIRCLE
5
173
100
AcDbEntity
8
0
100
AcDbCircle
10
191.50750499675109
20
-39.251675702477641
30
0
40
9.9999999999999982
210
0
220
0
230
1
0
LINE
5
174
100
AcDbEntity
8
0
100
AcDbLine
10
191.50750499675109
20
-39.251675702477641
30
0
11
113.2924950032489
21
-39.251675702477613
31
0
0
LINE
5
175
100
AcDbEntity
8
0
100
AcDbLine
10
152.39999999999998
20
-55.60133831624897
30
0
11
152.40000000000003
21
-0.47499999999999987
31
0
0
LINE
5
176
100
AcDbEntity
8
0
100
AcDbLine
10
152.39999999999998
20
-56.150000000000027
30
0
11
152.40000000000001
21
-28.650000000000027
31
0
0
CIRCLE
5
177
100
AcDbEntity
8
0
100
AcDbCircle
10
152.40000000000001
20
-28.650000000000027
30
0
40
20
210
0
220
0
230
1
0
LINE
5
178
100
AcDbEntity
8
0
100
AcDbLine
10
96.25
20
-1.0000000000000111
30
0
11
208.55000000000001
21
-56.150000000000048
31
0
0
LINE
5
179
100
AcDbEntity
8
0
100
AcDbLine
10
208.55000000000001
20
-0.99999999999997424
30
0
11
96.249999999999986
21
-56.150000000000013
31
0
0
LINE
5
180
100
AcDbEntity
8
0
100
AcDbLine
10
96.25
20
-1.0000000000000111
30
0
11
152.39999999999998
21
-56.674999999999926
31
0
0
LINE
5
181
100
AcDbEntity
8
0
100
AcDbLine
10
152.39999999999998
20
-56.674999999999926
30
0
11
208.55000000000001
21
-0.99999999999997424
31
0
0
LINE
5
182
100
AcDbEntity
8
0
100
AcDbLine
10
208.55000000000001
20
-0.99999999999997424
30
0
11
96.25
21
-1.0000000000000111
31
0
0
ENDSEC
0
SECTION
2
OBJECTS
0
DICTIONARY
5
C
100
AcDbDictionary
3
ACAD_GROUP
350
D
3
ACAD_MLINESTYLE
350
17
0
DICTIONARY
5
D
100
AcDbDictionary
0
DICTIONARY
5
1A
330
C
100
AcDbDictionary
0
DICTIONARY
5
17
100
AcDbDictionary
0
ENDSEC
0
EOF
