  0
SECTION
  2
HEADER
  9
$ACADVER
  1
AC1027
  9
$ACADMAINTVER
 70
   105
  9
$DWGCODEPAGE
  3
ANSI_1252
  9
$LASTSAVEDBY
  1
sture
  9
$REQUIREDVERSIONS
160
                 0
  9
$INSBASE
 10
0.0
 20
0.0
 30
0.0
  9
$EXTMIN
 10
-1.22500000000008
 20
-100.0749999999971
 30
-0.0000000000007103
  9
$EXTMAX
 10
306.025
 20
4.824999999523257
 30
0.0000000000025476
  9
$LIMMIN
 10
0.0
 20
0.0
  9
$LIMMAX
 10
12.0
 20
9.0
  9
$ORTHOMODE
 70
     0
  9
$REGENMODE
 70
     1
  9
$FILLMODE
 70
     1
  9
$QTEXTMODE
 70
     0
  9
$MIRRTEXT
 70
     1
  9
$LTSCALE
 40
1.0
  9
$ATTMODE
 70
     1
  9
$TEXTSIZE
 40
0.2
  9
$TRACEWID
 40
0.05
  9
$TEXTSTYLE
  7
Standard
  9
$CLAYER
  8
0
  9
$CELTYPE
  6
ByLayer
  9
$CECOLOR
 62
   256
  9
$CELTSCALE
 40
1.0
  9
$DISPSILH
 70
     0
  9
$DIMSCALE
 40
1.0
  9
$DIMASZ
 40
0.18
  9
$DIMEXO
 40
0.0625
  9
$DIMDLI
 40
0.38
  9
$DIMRND
 40
0.0
  9
$DIMDLE
 40
0.0
  9
$DIMEXE
 40
0.18
  9
$DIMTP
 40
0.0
  9
$DIMTM
 40
0.0
  9
$DIMTXT
 40
0.18
  9
$DIMCEN
 40
0.09
  9
$DIMTSZ
 40
0.0
  9
$DIMTOL
 70
     0
  9
$DIMLIM
 70
     0
  9
$DIMTIH
 70
     1
  9
$DIMTOH
 70
     1
  9
$DIMSE1
 70
     0
  9
$DIMSE2
 70
     0
  9
$DIMTAD
 70
     0
  9
$DIMZIN
 70
     0
  9
$DIMBLK
  1

  9
$DIMASO
 70
     1
  9
$DIMSHO
 70
     1
  9
$DIMPOST
  1

  9
$DIMAPOST
  1

  9
$DIMALT
 70
     0
  9
$DIMALTD
 70
     2
  9
$DIMALTF
 40
25.4
  9
$DIMLFAC
 40
1.0
  9
$DIMTOFL
 70
     0
  9
$DIMTVP
 40
0.0
  9
$DIMTIX
 70
     0
  9
$DIMSOXD
 70
     0
  9
$DIMSAH
 70
     0
  9
$DIMBLK1
  1

  9
$DIMBLK2
  1

  9
$DIMSTYLE
  2
Standard
  9
$DIMCLRD
 70
     0
  9
$DIMCLRE
 70
     0
  9
$DIMCLRT
 70
     0
  9
$DIMTFAC
 40
1.0
  9
$DIMGAP
 40
0.09
  9
$DIMJUST
 70
     0
  9
$DIMSD1
 70
     0
  9
$DIMSD2
 70
     0
  9
$DIMTOLJ
 70
     1
  9
$DIMTZIN
 70
     0
  9
$DIMALTZ
 70
     0
  9
$DIMALTTZ
 70
     0
  9
$DIMUPT
 70
     0
  9
$DIMDEC
 70
     4
  9
$DIMTDEC
 70
     4
  9
$DIMALTU
 70
     2
  9
$DIMALTTD
 70
     2
  9
$DIMTXSTY
  7
Standard
  9
$DIMAUNIT
 70
     0
  9
$DIMADEC
 70
     0
  9
$DIMALTRND
 40
0.0
  9
$DIMAZIN
 70
     0
  9
$DIMDSEP
 70
    46
  9
$DIMATFIT
 70
     3
  9
$DIMFRAC
 70
     0
  9
$DIMLDRBLK
  1

  9
$DIMLUNIT
 70
     2
  9
$DIMLWD
 70
    -2
  9
$DIMLWE
 70
    -2
  9
$DIMTMOVE
 70
     0
  9
$DIMFXL
 40
1.0
  9
$DIMFXLON
 70
     0
  9
$DIMJOGANG
 40
0.7853981633974483
  9
$DIMTFILL
 70
     0
  9
$DIMTFILLCLR
 70
     0
  9
$DIMARCSYM
 70
     0
  9
$DIMLTYPE
  6

  9
$DIMLTEX1
  6

  9
$DIMLTEX2
  6

  9
$DIMTXTDIRECTION
 70
     0
  9
$LUNITS
 70
     2
  9
$LUPREC
 70
     4
  9
$SKETCHINC
 40
0.1
  9
$FILLETRAD
 40
0.0
  9
$AUNITS
 70
     0
  9
$AUPREC
 70
     0
  9
$MENU
  1
.
  9
$ELEVATION
 40
0.0
  9
$PELEVATION
 40
0.0
  9
$THICKNESS
 40
0.0
  9
$LIMCHECK
 70
     0
  9
$CHAMFERA
 40
0.0
  9
$CHAMFERB
 40
0.0
  9
$CHAMFERC
 40
0.0
  9
$CHAMFERD
 40
0.0
  9
$SKPOLY
 70
     0
  9
$TDCREATE
 40
2459812.873528889
  9
$TDUCREATE
 40
2459812.790195555
  9
$TDUPDATE
 40
2459812.873532002
  9
$TDUUPDATE
 40
2459812.790198669
  9
$TDINDWG
 40
0.0000000116
  9
$TDUSRTIMER
 40
0.0000000116
  9
$USRTIMER
 70
     1
  9
$ANGBASE
 50
0.0
  9
$ANGDIR
 70
     0
  9
$PDMODE
 70
     0
  9
$PDSIZE
 40
0.0
  9
$PLINEWID
 40
0.0
  9
$SPLFRAME
 70
     0
  9
$SPLINETYPE
 70
     6
  9
$SPLINESEGS
 70
     8
  9
$HANDSEED
  5
820
  9
$SURFTAB1
 70
     6
  9
$SURFTAB2
 70
     6
  9
$SURFTYPE
 70
     6
  9
$SURFU
 70
     6
  9
$SURFV
 70
     6
  9
$UCSBASE
  2

  9
$UCSNAME
  2

  9
$UCSORG
 10
0.0
 20
0.0
 30
0.0
  9
$UCSXDIR
 10
1.0
 20
0.0
 30
0.0
  9
$UCSYDIR
 10
0.0
 20
1.0
 30
0.0
  9
$UCSORTHOREF
  2

  9
$UCSORTHOVIEW
 70
     0
  9
$UCSORGTOP
 10
0.0
 20
0.0
 30
0.0
  9
$UCSORGBOTTOM
 10
0.0
 20
0.0
 30
0.0
  9
$UCSORGLEFT
 10
0.0
 20
0.0
 30
0.0
  9
$UCSORGRIGHT
 10
0.0
 20
0.0
 30
0.0
  9
$UCSORGFRONT
 10
0.0
 20
0.0
 30
0.0
  9
$UCSORGBACK
 10
0.0
 20
0.0
 30
0.0
  9
$PUCSBASE
  2

  9
$PUCSNAME
  2

  9
$PUCSORG
 10
0.0
 20
0.0
 30
0.0
  9
$PUCSXDIR
 10
1.0
 20
0.0
 30
0.0
  9
$PUCSYDIR
 10
0.0
 20
1.0
 30
0.0
  9
$PUCSORTHOREF
  2

  9
$PUCSORTHOVIEW
 70
     0
  9
$PUCSORGTOP
 10
0.0
 20
0.0
 30
0.0
  9
$PUCSORGBOTTOM
 10
0.0
 20
0.0
 30
0.0
  9
$PUCSORGLEFT
 10
0.0
 20
0.0
 30
0.0
  9
$PUCSORGRIGHT
 10
0.0
 20
0.0
 30
0.0
  9
$PUCSORGFRONT
 10
0.0
 20
0.0
 30
0.0
  9
$PUCSORGBACK
 10
0.0
 20
0.0
 30
0.0
  9
$USERI1
 70
     0
  9
$USERI2
 70
     0
  9
$USERI3
 70
     0
  9
$USERI4
 70
     0
  9
$USERI5
 70
     0
  9
$USERR1
 40
0.0
  9
$USERR2
 40
0.0
  9
$USERR3
 40
0.0
  9
$USERR4
 40
0.0
  9
$USERR5
 40
0.0
  9
$WORLDVIEW
 70
     1
  9
$SHADEDGE
 70
     3
  9
$SHADEDIF
 70
    70
  9
$TILEMODE
 70
     1
  9
$MAXACTVP
 70
    64
  9
$PINSBASE
 10
0.0
 20
0.0
 30
0.0
  9
$PLIMCHECK
 70
     0
  9
$PEXTMIN
 10
1.000000000000000E+20
 20
1.000000000000000E+20
 30
1.000000000000000E+20
  9
$PEXTMAX
 10
-1.000000000000000E+20
 20
-1.000000000000000E+20
 30
-1.000000000000000E+20
  9
$PLIMMIN
 10
-0.25
 20
-0.25
  9
$PLIMMAX
 10
10.75
 20
8.25
  9
$UNITMODE
 70
     0
  9
$VISRETAIN
 70
     1
  9
$PLINEGEN
 70
     0
  9
$PSLTSCALE
 70
     1
  9
$TREEDEPTH
 70
  3020
  9
$CMLSTYLE
  2
Standard
  9
$CMLJUST
 70
     0
  9
$CMLSCALE
 40
1.0
  9
$PROXYGRAPHICS
 70
     1
  9
$MEASUREMENT
 70
     0
  9
$CELWEIGHT
370
    -1
  9
$ENDCAPS
280
     0
  9
$JOINSTYLE
280
     0
  9
$LWDISPLAY
290
     0
  9
$INSUNITS
 70
     4
  9
$HYPERLINKBASE
  1

  9
$STYLESHEET
  1

  9
$XEDIT
290
     1
  9
$CEPSNTYPE
380
     0
  9
$PSTYLEMODE
290
     1
  9
$FINGERPRINTGUID
  2
{0f40ed5b-8740-4c70-8717-329bce56669f}
  9
$VERSIONGUID
  2
{FAEB1C32-E019-11D5-929B-00C0DF256EC4}
  9
$EXTNAMES
290
     1
  9
$PSVPSCALE
 40
0.0
  9
$OLESTARTUP
290
     0
  9
$SORTENTS
280
   127
  9
$INDEXCTL
280
     0
  9
$HIDETEXT
280
     1
  9
$XCLIPFRAME
280
     2
  9
$HALOGAP
280
     0
  9
$OBSCOLOR
 70
   257
  9
$OBSLTYPE
280
     0
  9
$INTERSECTIONDISPLAY
280
     0
  9
$INTERSECTIONCOLOR
 70
   257
  9
$DIMASSOC
280
     2
  9
$PROJECTNAME
  1

  9
$CAMERADISPLAY
290
     0
  9
$LENSLENGTH
 40
50.0
  9
$CAMERAHEIGHT
 40
0.0
  9
$STEPSPERSEC
 40
2.0
  9
$STEPSIZE
 40
6.0
  9
$3DDWFPREC
 40
2.0
  9
$PSOLWIDTH
 40
0.25
  9
$PSOLHEIGHT
 40
4.0
  9
$LOFTANG1
 40
1.570796326794897
  9
$LOFTANG2
 40
1.570796326794897
  9
$LOFTMAG1
 40
0.0
  9
$LOFTMAG2
 40
0.0
  9
$LOFTPARAM
 70
     7
  9
$LOFTNORMALS
280
     1
  9
$LATITUDE
 40
37.795
  9
$LONGITUDE
 40
-122.394
  9
$NORTHDIRECTION
 40
0.0
  9
$TIMEZONE
 70
 -8000
  9
$LIGHTGLYPHDISPLAY
280
     1
  9
$TILEMODELIGHTSYNCH
280
     1
  9
$CMATERIAL
347
78E
  9
$SOLIDHIST
280
     0
  9
$SHOWHIST
280
     1
  9
$DWFFRAME
280
     2
  9
$DGNFRAME
280
     2
  9
$REALWORLDSCALE
290
     1
  9
$INTERFERECOLOR
 62
   256
  9
$CSHADOW
280
     0
  9
$SHADOWPLANELOCATION
 40
0.0
  0
ENDSEC
  0
SECTION
  2
CLASSES
  0
CLASS
  1
ACDBDICTIONARYWDFLT
  2
AcDbDictionaryWithDefault
  3
ObjectDBX Classes
 90
        0
 91
        3
280
     0
281
     0
  0
CLASS
  1
VISUALSTYLE
  2
AcDbVisualStyle
  3
ObjectDBX Classes
 90
     4095
 91
        3
280
     0
281
     0
  0
CLASS
  1
MATERIAL
  2
AcDbMaterial
  3
ObjectDBX Classes
 90
     1153
 91
        3
280
     0
281
     0
  0
CLASS
  1
SCALE
  2
AcDbScale
  3
ObjectDBX Classes
 90
     1153
 91
        3
280
     0
281
     0
  0
CLASS
  1
TABLESTYLE
  2
AcDbTableStyle
  3
ObjectDBX Classes
 90
     4095
 91
        3
280
     0
281
     0
  0
CLASS
  1
MLEADERSTYLE
  2
AcDbMLeaderStyle
  3
ACDB_MLEADERSTYLE_CLASS
 90
     4095
 91
        3
280
     0
281
     0
  0
CLASS
  1
SUN
  2
AcDbSun
  3
SCENEOE
 90
     1153
 91
        3
280
     0
281
     0
  0
CLASS
  1
DICTIONARYVAR
  2
AcDbDictionaryVar
  3
ObjectDBX Classes
 90
        0
 91
        3
280
     0
281
     0
  0
CLASS
  1
CELLSTYLEMAP
  2
AcDbCellStyleMap
  3
ObjectDBX Classes
 90
     1152
 91
        3
280
     0
281
     0
  0
ENDSEC
  0
SECTION
  2
TABLES
  0
TABLE
  2
VPORT
  5
753
330
0
100
AcDbSymbolTable
 70
     1
  0
VPORT
  5
773
330
753
100
AcDbSymbolTableRecord
100
AcDbViewportTableRecord
  2
*Active
 70
     0
 10
0.0
 20
0.0
 11
1.0
 21
1.0
 12
80.54654921944659
 22
-90.02298392171359
 13
0.0
 23
0.0
 14
0.5
 24
0.5
 15
0.5
 25
0.5
 16
0.0
 26
0.0
 36
1.0
 17
0.0
 27
0.0
 37
0.0
 40
221.2671911966986
 41
2.051841746248295
 42
50.0
 43
0.0
 44
0.0
 50
0.0
 51
0.0
 71
     0
 72
   100
 73
     1
 74
     3
 75
     0
 76
     0
 77
     0
 78
     0
281
     0
 65
     1
110
0.0
120
0.0
130
0.0
111
1.0
121
0.0
131
0.0
112
0.0
122
1.0
132
0.0
 79
     0
146
0.0
348
779
 60
     3
 61
     5
292
     1
282
     1
141
0.0
142
0.0
 63
   250
361
7A7
  0
ENDTAB
  0
TABLE
  2
LTYPE
  5
750
330
0
100
AcDbSymbolTable
 70
    48
  0
LTYPE
  5
75E
330
750
100
AcDbSymbolTableRecord
100
AcDbLinetypeTableRecord
  2
ByBlock
 70
     0
  3

 72
    65
 73
     0
 40
0.0
  0
LTYPE
  5
75F
330
750
100
AcDbSymbolTableRecord
100
AcDbLinetypeTableRecord
  2
ByLayer
 70
     0
  3

 72
    65
 73
     0
 40
0.0
  0
LTYPE
  5
760
330
750
100
AcDbSymbolTableRecord
100
AcDbLinetypeTableRecord
  2
Continuous
 70
     0
  3
Solid line
 72
    65
 73
     0
 40
0.0
  0
LTYPE
  5
7E1
330
750
100
AcDbSymbolTableRecord
100
AcDbLinetypeTableRecord
  2
DASHDOT2
 70
     0
  3
Dash dot (.5x) _._._._._._._._._._._._._._._.
 72
    65
 73
     4
 40
12.7
 49
6.35
 74
     0
 49
-3.175
 74
     0
 49
0.0
 74
     0
 49
-3.175
 74
     0
  0
LTYPE
  5
7E2
330
750
100
AcDbSymbolTableRecord
100
AcDbLinetypeTableRecord
  2
DASHDOTX2
 70
     0
  3
Dash dot (2x) ____  .  ____  .  ____  .  ___
 72
    65
 73
     4
 40
50.8
 49
25.4
 74
     0
 49
-12.7
 74
     0
 49
0.0
 74
     0
 49
-12.7
 74
     0
  0
LTYPE
  5
7E3
330
750
100
AcDbSymbolTableRecord
100
AcDbLinetypeTableRecord
  2
ACAD_ISO02W100
 70
     0
  3
ISO dash __ __ __ __ __ __ __ __ __ __ __ __ __
 72
    65
 73
     2
 40
15.0
 49
12.0
 74
     0
 49
-3.0
 74
     0
  0
LTYPE
  5
7E4
330
750
100
AcDbSymbolTableRecord
100
AcDbLinetypeTableRecord
  2
ACAD_ISO03W100
 70
     0
  3
ISO dash space __    __    __    __    __    __
 72
    65
 73
     2
 40
30.0
 49
12.0
 74
     0
 49
-18.0
 74
     0
  0
LTYPE
  5
7E5
330
750
100
AcDbSymbolTableRecord
100
AcDbLinetypeTableRecord
  2
ACAD_ISO04W100
 70
     0
  3
ISO long-dash dot ____ . ____ . ____ . ____ . _
 72
    65
 73
     4
 40
30.0
 49
24.0
 74
     0
 49
-3.0
 74
     0
 49
0.0
 74
     0
 49
-3.0
 74
     0
  0
LTYPE
  5
7E6
330
750
100
AcDbSymbolTableRecord
100
AcDbLinetypeTableRecord
  2
ACAD_ISO05W100
 70
     0
  3
ISO long-dash double-dot ____ .. ____ .. ____ . 
 72
    65
 73
     6
 40
33.0
 49
24.0
 74
     0
 49
-3.0
 74
     0
 49
0.0
 74
     0
 49
-3.0
 74
     0
 49
0.0
 74
     0
 49
-3.0
 74
     0
  0
LTYPE
  5
7E7
330
750
100
AcDbSymbolTableRecord
100
AcDbLinetypeTableRecord
  2
ACAD_ISO06W100
 70
     0
  3
ISO long-dash triple-dot ____ ... ____ ... ____
 72
    65
 73
     8
 40
36.0
 49
24.0
 74
     0
 49
-3.0
 74
     0
 49
0.0
 74
     0
 49
-3.0
 74
     0
 49
0.0
 74
     0
 49
-3.0
 74
     0
 49
0.0
 74
     0
 49
-3.0
 74
     0
  0
LTYPE
  5
7E8
330
750
100
AcDbSymbolTableRecord
100
AcDbLinetypeTableRecord
  2
ACAD_ISO07W100
 70
     0
  3
ISO dot . . . . . . . . . . . . . . . . . . . . 
 72
    65
 73
     2
 40
3.0
 49
0.0
 74
     0
 49
-3.0
 74
     0
  0
LTYPE
  5
7E9
330
750
100
AcDbSymbolTableRecord
100
AcDbLinetypeTableRecord
  2
ACAD_ISO08W100
 70
     0
  3
ISO long-dash short-dash ____ __ ____ __ ____ _
 72
    65
 73
     4
 40
36.0
 49
24.0
 74
     0
 49
-3.0
 74
     0
 49
6.0
 74
     0
 49
-3.0
 74
     0
  0
LTYPE
  5
7EA
330
750
100
AcDbSymbolTableRecord
100
AcDbLinetypeTableRecord
  2
ACAD_ISO09W100
 70
     0
  3
ISO long-dash double-short-dash ____ __ __ ____
 72
    65
 73
     6
 40
45.0
 49
24.0
 74
     0
 49
-3.0
 74
     0
 49
6.0
 74
     0
 49
-3.0
 74
     0
 49
6.0
 74
     0
 49
-3.0
 74
     0
  0
LTYPE
  5
7EB
330
750
100
AcDbSymbolTableRecord
100
AcDbLinetypeTableRecord
  2
HIDDENX2
 70
     0
  3
Hidden (2x) ____ ____ ____ ____ ____ ____ ____ 
 72
    65
 73
     2
 40
19.05
 49
12.7
 74
     0
 49
-6.35
 74
     0
  0
LTYPE
  5
7ED
330
750
100
AcDbSymbolTableRecord
100
AcDbLinetypeTableRecord
  2
HOT_WATER_SUPPLY
 70
     0
  3
Hot water supply ---- HW ---- HW ---- HW ----
 72
    65
 73
     3
 40
22.86
 49
12.7
 74
     0
 49
-5.08
 74
     2
 75
     0
340
7EC
 46
2.54
 50
0.0
 44
-2.54
 45
-1.27
  9
HW
 49
-5.08
 74
     0
  0
LTYPE
  5
7EE
330
750
100
AcDbSymbolTableRecord
100
AcDbLinetypeTableRecord
  2
PHANTOM
 70
     0
  3
Phantom ______  __  __  ______  __  __  ______ 
 72
    65
 73
     6
 40
63.50000000000001
 49
31.75
 74
     0
 49
-6.35
 74
     0
 49
6.35
 74
     0
 49
-6.35
 74
     0
 49
6.35
 74
     0
 49
-6.35
 74
     0
  0
LTYPE
  5
7EF
330
750
100
AcDbSymbolTableRecord
100
AcDbLinetypeTableRecord
  2
PHANTOM2
 70
     0
  3
Phantom (.5x) ___ _ _ ___ _ _ ___ _ _ ___ _ _
 72
    65
 73
     6
 40
31.75
 49
15.875
 74
     0
 49
-3.175
 74
     0
 49
3.175
 74
     0
 49
-3.175
 74
     0
 49
3.175
 74
     0
 49
-3.175
 74
     0
  0
LTYPE
  5
7F0
330
750
100
AcDbSymbolTableRecord
100
AcDbLinetypeTableRecord
  2
PHANTOMX2
 70
     0
  3
Phantom (2x) ____________    ____    ____   _
 72
    65
 73
     6
 40
127.0
 49
63.5
 74
     0
 49
-12.7
 74
     0
 49
12.7
 74
     0
 49
-12.7
 74
     0
 49
12.7
 74
     0
 49
-12.7
 74
     0
  0
LTYPE
  5
7F2
330
750
100
AcDbSymbolTableRecord
100
AcDbLinetypeTableRecord
  2
TRACKS
 70
     0
  3
Tracks -|-|-|-|-|-|-|-|-|-|-|-|-|-|-|-|-|-|-|-|-|-|-|-|-
 72
    65
 73
     2
 40
7.62
 49
3.81
 74
     2
 75
     0
340
7F1
 46
6.35
 50
0.0
 44
0.0
 45
0.0
  9
TRACK1
 49
3.81
 74
     0
  0
LTYPE
  5
7F3
330
750
100
AcDbSymbolTableRecord
100
AcDbLinetypeTableRecord
  2
ZIGZAG
 70
     0
  3
Zig zag /\/\/\/\/\/\/\/\/\/\/\/\/\/\/\/\/\/\/\/\/\/\/\/
 72
    65
 73
     4
 40
20.32254
 49
0.00254
 74
     0
 49
-5.08
 74
     2
 75
     0
340
7F1
 46
5.08
 50
0.0
 44
-5.08
 45
0.0
  9
ZIG
 49
-10.16
 74
     2
 75
     0
340
7F1
 46
5.08
 50
180.0
 44
5.08
 45
0.0
  9
ZIG
 49
-5.08
 74
     0
  0
LTYPE
  5
7F4
330
750
100
AcDbSymbolTableRecord
100
AcDbLinetypeTableRecord
  2
DASHED
 70
     0
  3
Dashed __ __ __ __ __ __ __ __ __ __ __ __ __ _
 72
    65
 73
     2
 40
19.05
 49
12.7
 74
     0
 49
-6.35
 74
     0
  0
LTYPE
  5
7F5
330
750
100
AcDbSymbolTableRecord
100
AcDbLinetypeTableRecord
  2
DASHED2
 70
     0
  3
Dashed (.5x) _ _ _ _ _ _ _ _ _ _ _ _ _ _ _ _ _ 
 72
    65
 73
     2
 40
9.524999999999999
 49
6.35
 74
     0
 49
-3.175
 74
     0
  0
LTYPE
  5
7F6
330
750
100
AcDbSymbolTableRecord
100
AcDbLinetypeTableRecord
  2
DASHEDX2
 70
     0
  3
Dashed (2x) ____  ____  ____  ____  ____  ___
 72
    65
 73
     2
 40
38.09999999999999
 49
25.4
 74
     0
 49
-12.7
 74
     0
  0
LTYPE
  5
7F7
330
750
100
AcDbSymbolTableRecord
100
AcDbLinetypeTableRecord
  2
DIVIDE
 70
     0
  3
Divide ____ . . ____ . . ____ . . ____ . . ____
 72
    65
 73
     6
 40
31.75
 49
12.7
 74
     0
 49
-6.35
 74
     0
 49
0.0
 74
     0
 49
-6.35
 74
     0
 49
0.0
 74
     0
 49
-6.35
 74
     0
  0
LTYPE
  5
7F8
330
750
100
AcDbSymbolTableRecord
100
AcDbLinetypeTableRecord
  2
DIVIDE2
 70
     0
  3
Divide (.5x) __..__..__..__..__..__..__..__.._
 72
    65
 73
     6
 40
15.875
 49
6.35
 74
     0
 49
-3.175
 74
     0
 49
0.0
 74
     0
 49
-3.175
 74
     0
 49
0.0
 74
     0
 49
-3.175
 74
     0
  0
LTYPE
  5
7F9
330
750
100
AcDbSymbolTableRecord
100
AcDbLinetypeTableRecord
  2
DIVIDEX2
 70
     0
  3
Divide (2x) ________  .  .  ________  .  .  _
 72
    65
 73
     6
 40
63.5
 49
25.4
 74
     0
 49
-12.7
 74
     0
 49
0.0
 74
     0
 49
-12.7
 74
     0
 49
0.0
 74
     0
 49
-12.7
 74
     0
  0
LTYPE
  5
7FA
330
750
100
AcDbSymbolTableRecord
100
AcDbLinetypeTableRecord
  2
DOT
 70
     0
  3
Dot . . . . . . . . . . . . . . . . . . . . . . . .
 72
    65
 73
     2
 40
6.35
 49
0.0
 74
     0
 49
-6.35
 74
     0
  0
LTYPE
  5
7FB
330
750
100
AcDbSymbolTableRecord
100
AcDbLinetypeTableRecord
  2
DOT2
 70
     0
  3
Dot (.5x) ........................................
 72
    65
 73
     2
 40
3.175
 49
0.0
 74
     0
 49
-3.175
 74
     0
  0
LTYPE
  5
7FC
330
750
100
AcDbSymbolTableRecord
100
AcDbLinetypeTableRecord
  2
DOTX2
 70
     0
  3
Dot (2x) .  .  .  .  .  .  .  .  .  .  .  .  .  .
 72
    65
 73
     2
 40
12.7
 49
0.0
 74
     0
 49
-12.7
 74
     0
  0
LTYPE
  5
7FE
330
750
100
AcDbSymbolTableRecord
100
AcDbLinetypeTableRecord
  2
DRAINAGE
 70
     0
  3
Drainage ---->---->---->----
 72
    65
 73
     2
 40
10.16
 49
5.08
 74
     2
 75
     0
340
7FD
 46
2.54
 50
180.0
 44
0.0
 45
0.0
  9
RIGHT_ARROW
 49
5.08
 74
     0
  0
LTYPE
  5
7FF
330
750
100
AcDbSymbolTableRecord
100
AcDbLinetypeTableRecord
  2
DRAINAGE2
 70
     0
  3
Drainage reversed----<----<----<----
 72
    65
 73
     2
 40
10.16
 49
5.08
 74
     2
 75
     0
340
7FD
 46
2.54
 50
0.0
 44
0.0
 45
0.0
  9
RIGHT_ARROW
 49
5.08
 74
     0
  0
LTYPE
  5
800
330
750
100
AcDbSymbolTableRecord
100
AcDbLinetypeTableRecord
  2
FENCELINE1
 70
     0
  3
Fenceline circle ----0-----0----0-----0----0-----0--
 72
    65
 73
     4
 40
36.83
 49
6.35
 74
     0
 49
-2.54
 74
     2
 75
     0
340
7F1
 46
2.54
 50
0.0
 44
-2.54
 45
0.0
  9
CIRC1
 49
-2.54
 74
     0
 49
25.4
 74
     0
  0
LTYPE
  5
801
330
750
100
AcDbSymbolTableRecord
100
AcDbLinetypeTableRecord
  2
FENCELINE2
 70
     0
  3
Fenceline square ----[]-----[]----[]-----[]----[]---
 72
    65
 73
     4
 40
36.83
 49
6.35
 74
     0
 49
-2.54
 74
     2
 75
     0
340
7F1
 46
2.54
 50
0.0
 44
-2.54
 45
0.0
  9
BOX
 49
-2.54
 74
     0
 49
25.4
 74
     0
  0
LTYPE
  5
802
330
750
100
AcDbSymbolTableRecord
100
AcDbLinetypeTableRecord
  2
GAS_LINE
 70
     0
  3
Gas line ----GAS----GAS----GAS----GAS----GAS----GAS--
 72
    65
 73
     3
 40
24.13
 49
12.7
 74
     0
 49
-5.08
 74
     2
 75
     0
340
7EC
 46
2.54
 50
0.0
 44
-2.54
 45
-1.27
  9
GAS
 49
-6.35
 74
     0
  0
LTYPE
  5
803
330
750
100
AcDbSymbolTableRecord
100
AcDbLinetypeTableRecord
  2
HIDDEN
 70
     0
  3
Hidden __ __ __ __ __ __ __ __ __ __ __ __ __ __
 72
    65
 73
     2
 40
9.524999999999999
 49
6.35
 74
     0
 49
-3.175
 74
     0
  0
LTYPE
  5
804
330
750
100
AcDbSymbolTableRecord
100
AcDbLinetypeTableRecord
  2
HIDDEN2
 70
     0
  3
Hidden (.5x) _ _ _ _ _ _ _ _ _ _ _ _ _ _ _ _ _ 
 72
    65
 73
     2
 40
4.762499999999999
 49
3.175
 74
     0
 49
-1.5875
 74
     0
  0
LTYPE
  5
805
330
750
100
AcDbSymbolTableRecord
100
AcDbLinetypeTableRecord
  2
ACAD_ISO10W100
 70
     0
  3
ISO dash dot __ . __ . __ . __ . __ . __ . __ . 
 72
    65
 73
     4
 40
18.0
 49
12.0
 74
     0
 49
-3.0
 74
     0
 49
0.0
 74
     0
 49
-3.0
 74
     0
  0
LTYPE
  5
806
330
750
100
AcDbSymbolTableRecord
100
AcDbLinetypeTableRecord
  2
ACAD_ISO11W100
 70
     0
  3
ISO double-dash dot __ __ . __ __ . __ __ . __ _
 72
    65
 73
     6
 40
33.0
 49
12.0
 74
     0
 49
-3.0
 74
     0
 49
12.0
 74
     0
 49
-3.0
 74
     0
 49
0.0
 74
     0
 49
-3.0
 74
     0
  0
LTYPE
  5
807
330
750
100
AcDbSymbolTableRecord
100
AcDbLinetypeTableRecord
  2
ACAD_ISO12W100
 70
     0
  3
ISO dash double-dot __ . . __ . . __ . . __ . . 
 72
    65
 73
     6
 40
21.0
 49
12.0
 74
     0
 49
-3.0
 74
     0
 49
0.0
 74
     0
 49
-3.0
 74
     0
 49
0.0
 74
     0
 49
-3.0
 74
     0
  0
LTYPE
  5
808
330
750
100
AcDbSymbolTableRecord
100
AcDbLinetypeTableRecord
  2
ACAD_ISO13W100
 70
     0
  3
ISO double-dash double-dot __ __ . . __ __ . . _
 72
    65
 73
     8
 40
36.0
 49
12.0
 74
     0
 49
-3.0
 74
     0
 49
12.0
 74
     0
 49
-3.0
 74
     0
 49
0.0
 74
     0
 49
-3.0
 74
     0
 49
0.0
 74
     0
 49
-3.0
 74
     0
  0
LTYPE
  5
809
330
750
100
AcDbSymbolTableRecord
100
AcDbLinetypeTableRecord
  2
ACAD_ISO14W100
 70
     0
  3
ISO dash triple-dot __ . . . __ . . . __ . . . _
 72
    65
 73
     8
 40
24.0
 49
12.0
 74
     0
 49
-3.0
 74
     0
 49
0.0
 74
     0
 49
-3.0
 74
     0
 49
0.0
 74
     0
 49
-3.0
 74
     0
 49
0.0
 74
     0
 49
-3.0
 74
     0
  0
LTYPE
  5
80A
330
750
100
AcDbSymbolTableRecord
100
AcDbLinetypeTableRecord
  2
ACAD_ISO15W100
 70
     0
  3
ISO double-dash triple-dot __ __ . . . __ __ . .
 72
    65
 73
    10
 40
39.0
 49
12.0
 74
     0
 49
-3.0
 74
     0
 49
12.0
 74
     0
 49
-3.0
 74
     0
 49
0.0
 74
     0
 49
-3.0
 74
     0
 49
0.0
 74
     0
 49
-3.0
 74
     0
 49
0.0
 74
     0
 49
-3.0
 74
     0
  0
LTYPE
  5
80B
330
750
100
AcDbSymbolTableRecord
100
AcDbLinetypeTableRecord
  2
BATTING
 70
     0
  3
Batting SSSSSSSSSSSSSSSSSSSSSSSSSSSSSSSSSSSSSSSSSSSSSSS
 72
    65
 73
     4
 40
10.16254
 49
0.00254
 74
     0
 49
-2.54
 74
     2
 75
     0
340
7F1
 46
2.54
 50
0.0
 44
-2.54
 45
0.0
  9
BAT
 49
-5.08
 74
     2
 75
     0
340
7F1
 46
2.54
 50
180.0
 44
2.54
 45
0.0
  9
BAT
 49
-2.54
 74
     0
  0
LTYPE
  5
80C
330
750
100
AcDbSymbolTableRecord
100
AcDbLinetypeTableRecord
  2
BORDER
 70
     0
  3
Border __ __ . __ __ . __ __ . __ __ . __ __ .
 72
    65
 73
     6
 40
44.45
 49
12.7
 74
     0
 49
-6.35
 74
     0
 49
12.7
 74
     0
 49
-6.35
 74
     0
 49
0.0
 74
     0
 49
-6.35
 74
     0
  0
LTYPE
  5
80D
330
750
100
AcDbSymbolTableRecord
100
AcDbLinetypeTableRecord
  2
BORDER2
 70
     0
  3
Border (.5x) __.__.__.__.__.__.__.__.__.__.__.
 72
    65
 73
     6
 40
22.225
 49
6.35
 74
     0
 49
-3.175
 74
     0
 49
6.35
 74
     0
 49
-3.175
 74
     0
 49
0.0
 74
     0
 49
-3.175
 74
     0
  0
LTYPE
  5
80E
330
750
100
AcDbSymbolTableRecord
100
AcDbLinetypeTableRecord
  2
BORDERX2
 70
     0
  3
Border (2x) ____  ____  .  ____  ____  .  ___
 72
    65
 73
     6
 40
88.89999999999999
 49
25.4
 74
     0
 49
-12.7
 74
     0
 49
25.4
 74
     0
 49
-12.7
 74
     0
 49
0.0
 74
     0
 49
-12.7
 74
     0
  0
LTYPE
  5
80F
330
750
100
AcDbSymbolTableRecord
100
AcDbLinetypeTableRecord
  2
CENTER
 70
     0
  3
Center ____ _ ____ _ ____ _ ____ _ ____ _ ____
 72
    65
 73
     4
 40
50.8
 49
31.75
 74
     0
 49
-6.35
 74
     0
 49
6.35
 74
     0
 49
-6.35
 74
     0
  0
LTYPE
  5
810
330
750
100
AcDbSymbolTableRecord
100
AcDbLinetypeTableRecord
  2
CENTER2
 70
     0
  3
Center (.5x) ___ _ ___ _ ___ _ ___ _ ___ _ ___
 72
    65
 73
     4
 40
28.575
 49
19.05
 74
     0
 49
-3.175
 74
     0
 49
3.175
 74
     0
 49
-3.175
 74
     0
  0
LTYPE
  5
811
330
750
100
AcDbSymbolTableRecord
100
AcDbLinetypeTableRecord
  2
CENTERX2
 70
     0
  3
Center (2x) ________  __  ________  __  _____
 72
    65
 73
     4
 40
101.6
 49
63.5
 74
     0
 49
-12.7
 74
     0
 49
12.7
 74
     0
 49
-12.7
 74
     0
  0
LTYPE
  5
812
330
750
100
AcDbSymbolTableRecord
100
AcDbLinetypeTableRecord
  2
DASHDOT
 70
     0
  3
Dash dot __ . __ . __ . __ . __ . __ . __ . __
 72
    65
 73
     4
 40
25.4
 49
12.7
 74
     0
 49
-6.35
 74
     0
 49
0.0
 74
     0
 49
-6.35
 74
     0
  0
ENDTAB
  0
TABLE
  2
LAYER
  5
74E
330
0
100
AcDbSymbolTable
 70
     3
  0
LAYER
  5
75B
330
74E
100
AcDbSymbolTableRecord
100
AcDbLayerTableRecord
  2
0
 70
     0
 62
     7
  6
Continuous
370
    -3
390
75A
347
790
348
0
  0
LAYER
  5
813
330
74E
100
AcDbSymbolTableRecord
100
AcDbLayerTableRecord
  2
Original Plate
 70
     5
 62
    -1
  6
Continuous
290
     0
370
    -3
390
75A
347
790
348
0
  0
LAYER
  5
814
330
74E
100
AcDbSymbolTableRecord
100
AcDbLayerTableRecord
  2
Top Plate
 70
     1
 62
    -7
  6
Continuous
370
    25
390
75A
347
790
348
0
  0
ENDTAB
  0
TABLE
  2
STYLE
  5
74F
330
0
100
AcDbSymbolTable
 70
     4
  0
STYLE
  5
75C
330
74F
100
AcDbSymbolTableRecord
100
AcDbTextStyleTableRecord
  2
Standard
 70
     0
 40
0.0
 41
1.0
 50
0.0
 71
     0
 42
0.2
  3
txt
  4

  0
STYLE
  5
7EC
330
74F
100
AcDbSymbolTableRecord
100
AcDbTextStyleTableRecord
  2
textstyle0
 70
     0
 40
0.0
 41
1.0
 50
0.0
 71
     0
 42
0.2
  3
STANDARD
  4

  0
STYLE
  5
7F1
330
74F
100
AcDbSymbolTableRecord
100
AcDbTextStyleTableRecord
  2
textstyle1
 70
     0
 40
0.0
 41
1.0
 50
0.0
 71
     0
 42
0.2
  3
ltypeshp.shx
  4

  0
STYLE
  5
7FD
330
74F
100
AcDbSymbolTableRecord
100
AcDbTextStyleTableRecord
  2
textstyle2
 70
     0
 40
0.0
 41
1.0
 50
0.0
 71
     0
 42
0.2
  3
qcadshp.shx
  4

  0
ENDTAB
  0
TABLE
  2
VIEW
  5
751
330
0
100
AcDbSymbolTable
 70
     0
  0
ENDTAB
  0
TABLE
  2
UCS
  5
752
330
0
100
AcDbSymbolTable
 70
     0
  0
ENDTAB
  0
TABLE
  2
APPID
  5
754
330
0
100
AcDbSymbolTable
 70
     2
  0
APPID
  5
75D
330
754
100
AcDbSymbolTableRecord
100
AcDbRegAppTableRecord
  2
ACAD
 70
     0
  0
APPID
  5
7A8
330
754
100
AcDbSymbolTableRecord
100
AcDbRegAppTableRecord
  2
QCAD
 70
     0
  0
ENDTAB
  0
TABLE
  2
DIMSTYLE
  5
755
330
0
100
AcDbSymbolTable
 70
     2
100
AcDbDimStyleTable
  0
DIMSTYLE
105
771
330
755
100
AcDbSymbolTableRecord
100
AcDbDimStyleTableRecord
  2
Standard
 70
     0
178
     0
340
75C
  0
DIMSTYLE
105
7E0
102
{ACAD_REACTORS
330
21D
330
21E
102
}
330
755
100
AcDbSymbolTableRecord
100
AcDbDimStyleTableRecord
  2
QCADDimStyle
 70
     0
178
     0
279
     2
340
75C
  0
ENDTAB
  0
TABLE
  2
BLOCK_RECORD
  5
74D
330
0
100
AcDbSymbolTable
 70
     0
  0
BLOCK_RECORD
  5
769
330
74D
100
AcDbSymbolTableRecord
100
AcDbBlockTableRecord
  2
*Model_Space
340
76C
 70
     0
280
     1
281
     0
  0
BLOCK_RECORD
  5
765
330
74D
100
AcDbSymbolTableRecord
100
AcDbBlockTableRecord
  2
*Paper_Space
340
768
 70
     0
280
     1
281
     0
  0
ENDTAB
  0
ENDSEC
  0
SECTION
  2
BLOCKS
  0
BLOCK
  5
76A
330
769
100
AcDbEntity
  8
0
100
AcDbBlockBegin
  2
*Model_Space
 70
     0
 10
0.0
 20
0.0
 30
0.0
  3
*Model_Space
  1

  0
ENDBLK
  5
76B
330
769
100
AcDbEntity
  8
0
100
AcDbBlockEnd
  0
BLOCK
  5
766
330
765
100
AcDbEntity
 67
     1
  8
0
100
AcDbBlockBegin
  2
*Paper_Space
 70
     0
 10
0.0
 20
0.0
 30
0.0
  3
*Paper_Space
  1

  0
ENDBLK
  5
767
330
765
100
AcDbEntity
 67
     1
  8
0
100
AcDbBlockEnd
  0
ENDSEC
  0
SECTION
  2
ENTITIES
  0
LINE
  5
41
330
769
100
AcDbEntity
  8
0
100
AcDbLine
 10
3.025
 20
-2.525
 30
0.0
 11
16.025
 21
-2.525
 31
0.0
  0
LWPOLYLINE
  5
6F8
330
769
100
AcDbEntity
  8
Original Plate
100
AcDbPolyline
 90
        8
 70
     1
 43
0.0
 10
64.4374999999999
 20
-73.1749999999969
 10
64.43749999999991
 20
-60.17499999999701
 42
-0.4142135623730976
 10
64.93749999999993
 20
-59.67499999999701
 10
77.93749999999996
 20
-59.67499999999701
 42
-0.4142135623730716
 10
78.43749999999994
 20
-60.17499999999701
 10
78.43749999999994
 20
-73.1749999999969
 42
-0.4142135623730898
 10
77.9374999999999
 20
-73.6749999999969
 10
64.93749999999993
 20
-73.67499999999693
 42
-0.4142135623730768
  0
LINE
  5
42
330
769
100
AcDbEntity
  8
0
100
AcDbLine
 10
3.025
 20
-16.525
 30
0.0
 11
16.025
 21
-16.525
 31
0.0
  0
LWPOLYLINE
  5
6F9
330
769
100
AcDbEntity
  8
Original Plate
100
AcDbPolyline
 90
        8
 70
     1
 43
0.0
 10
226.8625
 20
-40.62499999999996
 10
239.8625
 20
-40.62499999999999
 42
-0.4142135623730066
 10
240.3625
 20
-41.12499999999999
 10
240.3625
 20
-54.12500000000001
 42
-0.4142135623731367
 10
239.8625
 20
-54.62500000000001
 10
226.8625
 20
-54.62500000000001
 42
-0.4142135623730482
 10
226.3625
 20
-54.12499999999999
 10
226.3625
 20
-41.12499999999999
 42
-0.4142135623730586
  0
LINE
  5
43
330
769
100
AcDbEntity
  8
0
100
AcDbLine
 10
2.525
 20
-3.025
 30
0.0
 11
2.525
 21
-16.025
 31
0.0
  0
LWPOLYLINE
  5
6FA
330
769
100
AcDbEntity
  8
Original Plate
100
AcDbPolyline
 90
        8
 70
     1
 43
0.0
 10
263.675
 20
-92.72499999999705
 10
250.675
 20
-92.72499999999705
 42
-0.4142135623731067
 10
250.175
 20
-92.22499999999702
 10
250.175
 20
-79.22499999999702
 42
-0.414213562373095
 10
250.675
 20
-78.72499999999705
 10
263.675
 20
-78.72499999999702
 42
-0.4142135623731132
 10
264.175
 20
-79.22499999999702
 10
264.175
 20
-92.22499999999702
 42
-0.4142135623730749
  0
LINE
  5
44
330
769
100
AcDbEntity
  8
0
100
AcDbLine
 10
16.525
 20
-3.025
 30
0.0
 11
16.525
 21
-16.025
 31
0.0
  0
LWPOLYLINE
  5
6FB
330
769
100
AcDbEntity
  8
Original Plate
100
AcDbPolyline
 90
        8
 70
     1
 43
0.0
 10
20.78754999999992
 20
-78.72499999999697
 42
-0.4142135623730846
 10
21.28754999999995
 20
-79.224999999997
 10
21.28754999999992
 20
-92.22499999999697
 42
-0.4142135623731074
 10
20.78754999999992
 20
-92.724999999997
 10
5.406249999999915
 20
-92.72499999999697
 42
-0.4142135623730957
 10
4.906249999999915
 20
-92.224999999997
 10
4.906249999999943
 20
-79.224999999997
 42
-0.4142135623730892
 10
5.406249999999915
 20
-78.72499999999697
  0
ARC
  5
45
330
769
100
AcDbEntity
  8
0
100
AcDbCircle
 10
3.025
 20
-3.025
 30
0.0
 40
0.5
100
AcDbArc
 50
90.0
 51
180.0
  0
LWPOLYLINE
  5
6FC
330
769
100
AcDbEntity
  8
Original Plate
100
AcDbPolyline
 90
        8
 70
     1
 43
0.0
 10
203.05
 20
-21.57499999999702
 10
216.05
 20
-21.57499999999699
 42
-0.4142135623730586
 10
216.55
 20
-22.07499999999705
 10
216.55
 20
-35.07499999999693
 42
-0.4142135623730586
 10
216.05
 20
-35.57499999999696
 10
203.05
 20
-35.57499999999696
 42
-0.4142135623730794
 10
202.55
 20
-35.07499999999693
 10
202.55
 20
-22.07499999999702
 42
-0.4142135623732303
  0
ARC
  5
46
330
769
100
AcDbEntity
  8
0
100
AcDbCircle
 10
16.025
 20
-3.025
 30
0.0
 40
0.5
100
AcDbArc
 50
0.0
 51
90.0
  0
LWPOLYLINE
  5
6FD
330
769
100
AcDbEntity
  8
Original Plate
100
AcDbPolyline
 90
       24
 70
     1
 43
0.0
 10
258.262
 20
-16.8249999999969
 10
258.2619999999999
 20
-18.02499999999704
 42
-0.4142135623730638
 10
257.7620000000001
 20
-18.52499999999706
 10
251.7619999999999
 20
-18.52499999999704
 42
-0.4142135623731367
 10
251.2619999999999
 20
-18.02499999999704
 10
251.2620000000001
 20
-16.82499999999693
 42
0.4142135623730603
 10
250.9619999999999
 20
-16.52499999999689
 10
250.675
 20
-16.52499999999692
 42
-0.4142135623731262
 10
250.175
 20
-16.02499999999692
 10
250.175
 20
-3.024999999997036
 42
-0.414213562373147
 10
250.675
 20
-2.524999999997036
 10
282.725
 20
-2.524999999997036
 42
-0.4142135623730118
 10
283.2249999999999
 20
-3.024999999997007
 10
283.225
 20
-16.02499999999695
 42
-0.4142135623730326
 10
282.725
 20
-16.52499999999692
 10
282.438
 20
-16.52499999999695
 42
0.414213562373095
 10
282.138
 20
-16.82499999999696
 10
282.1379999999999
 20
-18.02499999999704
 42
-0.4142135623730222
 10
281.638
 20
-18.52499999999706
 10
275.638
 20
-18.52499999999701
 42
-0.414213562373043
 10
275.1379999999999
 20
-18.02499999999704
 10
275.1379999999999
 20
-16.82499999999685
 42
0.4142135623729563
 10
274.8379999999998
 20
-16.52499999999689
 10
258.562
 20
-16.52499999999687
 42
0.4142135623731124
  0
ARC
  5
47
330
769
100
AcDbEntity
  8
0
100
AcDbCircle
 10
3.025
 20
-16.025
 30
0.0
 40
0.5
100
AcDbArc
 50
180.0
 51
270.0
  0
LWPOLYLINE
  5
6FE
330
769
100
AcDbEntity
  8
Original Plate
100
AcDbPolyline
 90
        8
 70
     1
 43
0.0
 10
288.2749999999999
 20
-16.02499999999695
 10
288.2749999999999
 20
-3.024999999997007
 42
-0.4142135623731054
 10
288.775
 20
-2.524999999997036
 10
301.775
 20
-2.524999999997036
 42
-0.4142135623730222
 10
302.275
 20
-3.024999999997007
 10
302.2749999999999
 20
-16.02499999999695
 42
-0.4142135623730846
 10
301.775
 20
-16.52499999999692
 10
288.775
 20
-16.52499999999698
 42
-0.4142135623730534
  0
ARC
  5
48
330
769
100
AcDbEntity
  8
0
100
AcDbCircle
 10
16.025
 20
-16.025
 30
0.0
 40
0.5
100
AcDbArc
 50
270.0
 51
0.0
  0
LWPOLYLINE
  5
6FF
330
769
100
AcDbEntity
  8
Original Plate
100
AcDbPolyline
 90
        8
 70
     1
 43
0.0
 10
44.60004999999992
 20
-78.72499999999697
 42
-0.4142135623730898
 10
45.10004999999992
 20
-79.224999999997
 10
45.10004999999992
 20
-92.224999999997
 42
-0.4142135623730644
 10
44.6000499999999
 20
-92.724999999997
 10
29.21874999999991
 20
-92.72499999999697
 42
-0.4142135623730892
 10
28.71874999999991
 20
-92.224999999997
 10
28.71874999999993
 20
-79.224999999997
 42
-0.4142135623730976
 10
29.21874999999991
 20
-78.724999999997
  0
LWPOLYLINE
  5
700
330
769
100
AcDbEntity
  8
Original Plate
100
AcDbPolyline
 90
        8
 70
     1
 43
0.0
 10
269.225
 20
-73.17499999999696
 10
269.225
 20
-60.17499999999707
 42
-0.4142135623731054
 10
269.725
 20
-59.67499999999693
 10
282.725
 20
-59.67499999999707
 42
-0.4142135623731003
 10
283.2249999999999
 20
-60.17499999999707
 10
283.2249999999999
 20
-73.17499999999696
 42
-0.4142135623730768
 10
282.725
 20
-73.67499999999696
 10
269.725
 20
-73.67499999999696
 42
-0.4142135623731288
  0
LWPOLYLINE
  5
74A
330
769
100
AcDbEntity
  8
0
100
AcDbPolyline
 90
        8
 70
   129
 43
0.0
 10
35.075
 20
-2.525
 42
-0.414213562373095
 10
35.575
 20
-3.025
 10
35.575
 20
-16.025
 42
-0.414213562373095
 10
35.075
 20
-16.525
 10
22.075
 20
-16.525
 42
-0.414213562373095
 10
21.575
 20
-16.025
 10
21.575
 20
-3.025
 42
-0.414213562373095
 10
22.075
 20
-2.525
  0
LWPOLYLINE
  5
701
330
769
100
AcDbEntity
  8
Original Plate
100
AcDbPolyline
 90
        8
 70
     1
 43
0.0
 10
63.64999999999993
 20
-35.5749999999969
 10
50.64999999999995
 20
-35.5749999999969
 42
-0.4142135623730482
 10
50.14999999999995
 20
-35.07499999999688
 10
50.14999999999986
 20
-22.07499999999699
 42
-0.4142135623731054
 10
50.64999999999995
 20
-21.5749999999969
 10
63.64999999999993
 20
-21.57499999999699
 42
-0.414213562373095
 10
64.14999999999993
 20
-22.07499999999699
 10
64.14999999999995
 20
-35.07499999999688
 42
-0.4142135623730586
  0
LWPOLYLINE
  5
702
330
769
100
AcDbEntity
  8
Original Plate
100
AcDbPolyline
 90
        8
 70
     1
 43
0.0
 10
54.91249999999994
 20
-54.12499999999996
 10
54.91249999999994
 20
-41.12499999999996
 42
-0.4142135623731106
 10
55.41249999999994
 20
-40.62499999999996
 10
68.41249999999995
 20
-40.62499999999996
 42
-0.4142135623731106
 10
68.91249999999995
 20
-41.12499999999996
 10
68.91249999999995
 20
-54.12499999999996
 42
-0.4142135623730846
 10
68.41249999999995
 20
-54.62499999999996
 10
55.41249999999994
 20
-54.62499999999996
 42
-0.4142135623730846
  0
LWPOLYLINE
  5
703
330
769
100
AcDbEntity
  8
Original Plate
100
AcDbPolyline
 90
        8
 70
     1
 43
0.0
 10
219.7187499999999
 20
-78.72499999999702
 10
235.09995
 20
-78.72499999999705
 42
-0.4142135623730404
 10
235.59995
 20
-79.22499999999702
 10
235.5999499999999
 20
-92.22499999999702
 42
-0.4142135623730488
 10
235.09995
 20
-92.72499999999702
 10
219.7187499999999
 20
-92.72499999999708
 42
-0.414213562372989
 10
219.21875
 20
-92.22499999999702
 10
219.21875
 20
-79.22499999999702
 42
-0.4142135623730508
  0
LWPOLYLINE
  5
704
330
769
100
AcDbEntity
  8
Original Plate
100
AcDbPolyline
 90
        8
 70
     1
 43
0.0
 10
265.3437500000001
 20
-47.03800000000003
 10
265.34375
 20
-53.03800000000003
 42
0.4142135623730534
 10
265.8437500000001
 20
-53.53800000000005
 10
282.3437500000001
 20
-53.53800000000005
 42
0.4142135623730482
 10
282.84375
 20
-53.03799999999997
 10
282.8437500000001
 20
-47.03800000000003
 42
0.4142135623730534
 10
282.3437500000001
 20
-46.53799999999997
 10
265.8437500000001
 20
-46.53800000000005
 42
0.4142135623731262
  0
LWPOLYLINE
  5
705
330
769
100
AcDbEntity
  8
Original Plate
100
AcDbPolyline
 90
        8
 70
     1
 43
0.0
 10
26.83749999999992
 20
-73.6749999999969
 10
39.83749999999992
 20
-73.6749999999969
 42
0.4142135623730976
 10
40.33749999999992
 20
-73.1749999999969
 10
40.33749999999993
 20
-60.17499999999698
 42
0.4142135623730638
 10
39.83749999999995
 20
-59.67499999999698
 10
26.83749999999992
 20
-59.67499999999698
 42
0.4142135623730664
 10
26.33749999999992
 20
-60.17499999999698
 10
26.33749999999992
 20
-73.1749999999969
 42
0.4142135623730924
  0
LWPOLYLINE
  5
706
330
769
100
AcDbEntity
  8
Original Plate
100
AcDbPolyline
 90
        8
 70
     1
 43
0.0
 10
130.325
 20
-16.52499999999692
 10
117.325
 20
-16.52499999999689
 42
-0.414213562373095
 10
116.8249999999999
 20
-16.02499999999692
 10
116.825
 20
-3.024999999997007
 42
-0.4142135623731367
 10
117.325
 20
-2.524999999997036
 10
130.325
 20
-2.524999999997064
 42
-0.4142135623730742
 10
130.825
 20
-3.024999999997007
 10
130.8249999999999
 20
-16.02499999999692
 42
-0.4142135623731054
  0
LWPOLYLINE
  5
707
330
769
100
AcDbEntity
  8
Original Plate
100
AcDbPolyline
 90
        8
 70
     1
 43
0.0
 10
282.3437500000001
 20
-22.66199999999996
 10
265.8437500000001
 20
-22.66199999999996
 42
0.4142135623730326
 10
265.34375
 20
-23.16199999999996
 10
265.34375
 20
-29.16199999999996
 42
0.414213562373095
 10
265.8437500000001
 20
-29.66199999999994
 10
282.3437500000001
 20
-29.66200000000002
 42
0.414213562373147
 10
282.8437500000001
 20
-29.16199999999996
 10
282.8437500000001
 20
-23.16199999999996
 42
0.414213562373069
  0
LINE
  5
51
330
769
100
AcDbEntity
  8
0
100
AcDbLine
 10
41.125
 20
-2.525
 30
0.0
 11
54.125
 21
-2.525
 31
0.0
  0
CIRCLE
  5
708
330
769
100
AcDbEntity
  8
0
100
AcDbCircle
 10
42.86249999999994
 20
-76.20009909569625
 30
0.0000000000019102
 40
1.45
  0
LINE
  5
52
330
769
100
AcDbEntity
  8
0
100
AcDbLine
 10
41.125
 20
-16.525
 30
0.0
 11
54.125
 21
-16.525
 31
0.0
  0
LWPOLYLINE
  5
709
330
769
100
AcDbEntity
  8
Original Plate
100
AcDbPolyline
 90
        8
 70
     1
 43
0.0
 10
4.906249999999915
 20
-73.17499999999698
 42
0.4142135623731067
 10
5.406249999999915
 20
-73.67499999999698
 10
18.40624999999991
 20
-73.67499999999698
 42
0.4142135623731054
 10
18.90624999999991
 20
-73.17499999999698
 10
18.90624999999994
 20
-60.17499999999698
 42
0.4142135623730989
 10
18.40624999999994
 20
-59.67499999999696
 10
5.406249999999915
 20
-59.67499999999696
 42
0.4142135623730898
 10
4.906249999999915
 20
-60.17499999999698
  0
LINE
  5
53
330
769
100
AcDbEntity
  8
0
100
AcDbLine
 10
40.625
 20
-3.025
 30
0.0
 11
40.625
 21
-16.025
 31
0.0
  0
LWPOLYLINE
  5
70A
330
769
100
AcDbEntity
  8
Original Plate
100
AcDbPolyline
 90
        8
 70
     1
 43
0.0
 10
280.34375
 20
-45.09999999999998
 42
0.4142135623731626
 10
280.8437500000001
 20
-44.59999999999998
 10
280.8437500000001
 20
-31.60000000000001
 42
0.4142135623731418
 10
280.34375
 20
-31.09999999999995
 10
267.34375
 20
-31.09999999999998
 42
0.4142135623730638
 10
266.8437499999999
 20
-31.59999999999998
 10
266.84375
 20
-44.59999999999998
 42
0.4142135623730066
 10
267.34375
 20
-45.09999999999998
  0
LINE
  5
54
330
769
100
AcDbEntity
  8
0
100
AcDbLine
 10
54.625
 20
-3.025
 30
0.0
 11
54.625
 21
-16.025
 31
0.0
  0
LWPOLYLINE
  5
70B
330
769
100
AcDbEntity
  8
Original Plate
100
AcDbPolyline
 90
        8
 70
     1
 43
0.0
 10
258.9125
 20
-54.62500000000004
 42
0.4142135623731159
 10
259.4125
 20
-54.12500000000001
 10
259.4125
 20
-41.12499999999999
 42
0.414213562373017
 10
258.9125
 20
-40.62499999999999
 10
245.9125
 20
-40.62499999999996
 42
0.4142135623730794
 10
245.4125
 20
-41.12499999999999
 10
245.4125
 20
-54.12499999999999
 42
0.4142135623730482
 10
245.9125
 20
-54.62500000000001
  0
ARC
  5
55
330
769
100
AcDbEntity
  8
0
100
AcDbCircle
 10
41.125
 20
-3.025
 30
0.0
 40
0.5
100
AcDbArc
 50
90.0
 51
180.0
  0
LWPOLYLINE
  5
70C
330
769
100
AcDbEntity
  8
0
100
AcDbPolyline
 90
      102
 70
     1
 43
0.0
 10
114.296812268892
 20
2.474999999603014
 42
-0.414213562373095
 10
112.296812268892
 20
0.4749999996030141
 10
85.10318773111194
 20
0.4749999996031562
 42
-0.4142135623730872
 10
83.10318773111192
 20
2.474999999603071
 10
83.10318773111192
 20
2.824999999523172
 42
0.414213562373095
 10
81.10318773111194
 20
4.824999999523115
 10
73.27499999999995
 20
4.824999999523058
 42
0.4142135623731003
 10
72.27499999999995
 20
3.824999999523001
 10
72.27499999999992
 20
2.243224834363119
 42
-0.4142135623730872
 10
71.27499999999993
 20
1.243224834363119
 10
24.91393596319996
 20
1.243224834363119
 42
-0.4142135623730807
 10
23.91393596319995
 20
2.243224834363119
 10
23.91393596319995
 20
3.824999999523001
 42
0.4142135623730963
 10
22.91393596319995
 20
4.824999999523001
 10
9.812499999999943
 20
4.82499999952303
 42
0.414213562373095
 10
8.46249999999992
 20
3.474999999523007
 10
8.462499999999949
 20
2.743224834363033
 42
-0.4142135623731027
 10
6.462499999999949
 20
0.743224834363005
 10
1.774999999999949
 20
0.743224834363005
 42
0.4142135623730999
 10
-1.225000000000023
 20
-2.256775165636967
 10
-1.22500000000008
 20
-93.9932267543128
 42
0.4142135623730973
 10
0.7749999999999204
 20
-95.9932267543128
 10
6.46249999999992
 20
-95.9932267543128
 42
-0.4142135623730951
 10
8.46249999999992
 20
-97.9932267543128
 10
8.46249999999992
 20
-98.724999999997
 42
0.4142135623730902
 10
9.812499999999915
 20
-100.074999999997
 10
22.91393596319992
 20
-100.074999999997
 42
0.4142135623731005
 10
23.91393596319995
 20
-99.07499999999699
 10
23.91393596319995
 20
-97.49322483483691
 42
-0.4142135623731015
 10
24.91393596319992
 20
-96.49322483483691
 10
71.27499999999992
 20
-96.49322483483691
 42
-0.4142135623730913
 10
72.27499999999992
 20
-97.49322483483691
 10
72.27499999999992
 20
-99.07499999999702
 42
0.4142135623730982
 10
73.27499999999993
 20
-100.074999999997
 10
81.10318773111192
 20
-100.074999999997
 42
0.4142135623730855
 10
83.10318773111192
 20
-98.07499999999699
 10
83.10318773111192
 20
-97.72500000007712
 42
-0.4142135623730968
 10
85.10318773111192
 20
-95.72500000007712
 10
112.2968122688919
 20
-95.725000000077
 42
-0.4142135623730929
 10
114.296812268892
 20
-97.725000000077
 10
114.2968122688919
 20
-98.07499999999699
 42
0.4142135623730961
 10
116.2968122688919
 20
-100.074999999997
 10
129.0389359632099
 20
-100.074999999997
 42
0.4142135623730959
 10
130.03893596321
 20
-99.07499999999702
 10
130.03893596321
 20
-97.49322483483694
 42
-0.4142135623731228
 10
131.0389359632099
 20
-96.49322483483697
 10
178.4
 20
-96.49322483483691
 42
-0.4142135623730734
 10
179.3999999999999
 20
-97.49322483483694
 10
179.3999999999999
 20
-99.07499999999705
 42
0.4142135623731053
 10
180.3999999999999
 20
-100.074999999997
 10
189.6031877311099
 20
-100.074999999997
 42
0.4142135623730808
 10
191.60318773111
 20
-98.07499999999705
 10
191.60318773111
 20
-97.77918801056704
 42
-0.4142135623730802
 10
193.60318773111
 20
-95.77918801056701
 10
218.3968122688899
 20
-95.77918801056707
 42
-0.4142135623730795
 10
220.39681226889
 20
-97.77918801056704
 10
220.3968122688899
 20
-98.07499999999705
 42
0.4142135623731228
 10
222.39681226889
 20
-100.074999999997
 10
241.1639359632101
 20
-100.074999999997
 42
0.4142135623731094
 10
242.16393596321
 20
-99.07499999999705
 10
242.1639359632101
 20
-97.49322483483697
 42
-0.4142135623730576
 10
243.1639359632101
 20
-96.49322483483697
 10
285.525
 20
-96.49322483483694
 42
-0.4142135623730787
 10
286.5249999999999
 20
-97.49322483483697
 10
286.5249999999999
 20
-99.07499999999705
 42
0.4142135623731162
 10
287.525
 20
-100.074999999997
 10
291.495777365149
 20
-100.0749999999971
 42
0.3962553595132694
 10
292.843208527689
 20
-98.80824219011986
 42
-0.3962553595132831
 10
295.8375
 20
-95.99322483483694
 10
304.025
 20
-95.99322483483705
 42
0.4142135623730809
 10
306.025
 20
-93.99322483483705
 10
306.0249999999999
 20
-2.256775165637023
 42
0.4142135623731037
 10
303.025
 20
0.7432248343629198
 10
295.8375
 20
0.7432248343631187
 42
-0.3962553595132655
 10
292.8432085276891
 20
3.558242189645895
 42
0.3962553595132483
 10
291.495777365149
 20
4.824999999523257
 10
284.2250000000001
 20
4.8249999995232
 42
0.4142135623730378
 10
283.2249999999998
 20
3.824999999522973
 10
283.2249999999999
 20
2.243224834363062
 42
-0.4142135623730742
 10
282.2250000000002
 20
1.243224834363033
 10
243.1639359632101
 20
1.243224834363119
 42
-0.4142135623730586
 10
242.16393596321
 20
2.243224834363062
 10
242.1639359632101
 20
3.824999999522973
 42
0.4142135623730846
 10
241.1639359632101
 20
4.82499999952303
 10
222.39681226889
 20
4.824999999522944
 42
0.414213562373121
 10
220.39681226889
 20
2.824999999523058
 10
220.39681226889
 20
2.52918801009308
 42
-0.4142135623730794
 10
218.3968122688899
 20
0.5291880100930797
 10
193.60318773111
 20
0.5291880100930797
 42
-0.4142135623731132
 10
191.60318773111
 20
2.52918801009308
 10
191.60318773111
 20
2.824999999523087
 42
0.4142135623731054
 10
189.6031877311099
 20
4.824999999523115
 10
180.3999999999999
 20
4.824999999523001
 42
0.414213562373121
 10
179.3999999999999
 20
3.824999999522973
 10
179.3999999999999
 20
2.24322483436309
 42
-0.4142135623731159
 10
178.3999999999999
 20
1.243224834363119
 10
131.03893596321
 20
1.243224834363119
 42
-0.4142135623730898
 10
130.03893596321
 20
2.24322483436309
 10
130.03893596321
 20
3.824999999522973
 42
0.4142135623731314
 10
129.03893596321
 20
4.824999999523001
 10
116.296812268892
 20
4.824999999522973
 42
0.414213562373082
 10
114.2968122688921
 20
2.824999999523172
  0
ARC
  5
56
330
769
100
AcDbEntity
  8
0
100
AcDbCircle
 10
54.125
 20
-3.025
 30
0.0
 40
0.5
100
AcDbArc
 50
0.0
 51
90.0
  0
CIRCLE
  5
70D
330
769
100
AcDbEntity
  8
0
100
AcDbCircle
 10
152.3682499999999
 20
-85.7249161799963
 30
0.0000000000025476
 40
1.45
  0
ARC
  5
57
330
769
100
AcDbEntity
  8
0
100
AcDbCircle
 10
41.125
 20
-16.025
 30
0.0
 40
0.5
100
AcDbArc
 50
180.0
 51
270.0
  0
LWPOLYLINE
  5
70E
330
769
100
AcDbEntity
  8
Original Plate
100
AcDbPolyline
 90
        8
 70
     1
 43
0.0
 10
149.374999999999
 20
-2.524999999997036
 42
-0.414213562373147
 10
149.874999999999
 20
-3.024999999997007
 10
149.8749999999989
 20
-16.02499999999692
 42
-0.4142135623731679
 10
149.3749999999989
 20
-16.52499999999692
 10
136.3749999999999
 20
-16.52499999999692
 42
-0.4142135623730846
 10
135.8749999999999
 20
-16.02499999999692
 10
135.875
 20
-3.024999999997007
 42
-0.4142135623731367
 10
136.375
 20
-2.524999999997036
  0
ARC
  5
58
330
769
100
AcDbEntity
  8
0
100
AcDbCircle
 10
54.125
 20
-16.025
 30
0.0
 40
0.5
100
AcDbArc
 50
270.0
 51
0.0
  0
CIRCLE
  5
70F
330
769
100
AcDbEntity
  8
0
100
AcDbCircle
 10
233.31805
 20
-57.18174999999631
 30
0.0000000000006355
 40
1.45
  0
LINE
  5
59
330
769
100
AcDbEntity
  8
0
100
AcDbLine
 10
60.175
 20
-2.525
 30
0.0
 11
73.175
 21
-2.525
 31
0.0
  0
CIRCLE
  5
710
330
769
100
AcDbEntity
  8
0
100
AcDbCircle
 10
285.74999746
 20
-76.20004829569633
 30
0.0000000000019102
 40
1.45
  0
LINE
  5
5A
330
769
100
AcDbEntity
  8
0
100
AcDbLine
 10
60.175
 20
-16.525
 30
0.0
 11
73.175
 21
-16.525
 31
0.0
  0
LINE
  5
5B
330
769
100
AcDbEntity
  8
0
100
AcDbLine
 10
59.675
 20
-3.025
 30
0.0
 11
59.675
 21
-16.025
 31
0.0
  0
CIRCLE
  5
712
330
769
100
AcDbEntity
  8
0
100
AcDbCircle
 10
109.5374974599999
 20
-38.09999749569828
 30
-0.0000000000007103
 40
1.45
  0
LINE
  5
5C
330
769
100
AcDbEntity
  8
0
100
AcDbLine
 10
73.675
 20
-3.025
 30
0.0
 11
73.675
 21
-16.025
 31
0.0
  0
LWPOLYLINE
  5
713
330
769
100
AcDbEntity
  8
Original Plate
100
AcDbPolyline
 90
        8
 70
     1
 43
0.0
 10
68.41254999999992
 20
-92.724999999997
 10
53.03124999999991
 20
-92.72499999999702
 42
-0.414213562373084
 10
52.53124999999991
 20
-92.224999999997
 10
52.53124999999993
 20
-79.224999999997
 42
-0.4142135623730612
 10
53.03124999999991
 20
-78.724999999997
 10
68.41254999999991
 20
-78.724999999997
 42
-0.4142135623730872
 10
68.91254999999994
 20
-79.224999999997
 10
68.9125499999999
 20
-92.224999999997
 42
-0.414213562373112
  0
ARC
  5
5D
330
769
100
AcDbEntity
  8
0
100
AcDbCircle
 10
60.175
 20
-3.025
 30
0.0
 40
0.5
100
AcDbArc
 50
90.0
 51
180.0
  0
LWPOLYLINE
  5
714
330
769
100
AcDbEntity
  8
Original Plate
100
AcDbPolyline
 90
        8
 70
     1
 43
0.0
 10
288.2749999999999
 20
-54.12500000000001
 10
288.2749999999999
 20
-41.12499999999999
 42
-0.414213562373095
 10
288.775
 20
-40.62500000000001
 10
301.775
 20
-40.62499999999999
 42
-0.4142135623730482
 10
302.2749999999999
 20
-41.12499999999999
 10
302.2749999999999
 20
-54.12500000000001
 42
-0.4142135623731626
 10
301.775
 20
-54.62499999999999
 10
288.775
 20
-54.62500000000001
 42
-0.414213562373069
  0
ARC
  5
5E
330
769
100
AcDbEntity
  8
0
100
AcDbCircle
 10
73.175
 20
-3.025
 30
0.0
 40
0.5
100
AcDbArc
 50
0.0
 51
90.0
  0
LWPOLYLINE
  5
715
330
769
100
AcDbEntity
  8
Original Plate
100
AcDbPolyline
 90
        8
 70
     1
 43
0.0
 10
211.2875
 20
-59.67499999999701
 42
-0.414213562373069
 10
211.7875
 20
-60.17499999999701
 10
211.7875
 20
-73.17499999999696
 42
-0.4142135623731236
 10
211.2874999999999
 20
-73.6749999999969
 10
198.2874999999999
 20
-73.67499999999693
 42
-0.4142135623730118
 10
197.7875
 20
-73.17499999999693
 10
197.7875
 20
-60.17499999999701
 42
-0.4142135623731003
 10
198.2874999999999
 20
-59.67499999999701
  0
ARC
  5
5F
330
769
100
AcDbEntity
  8
0
100
AcDbCircle
 10
60.175
 20
-16.025
 30
0.0
 40
0.5
100
AcDbArc
 50
180.0
 51
270.0
  0
LWPOLYLINE
  5
716
330
769
100
AcDbEntity
  8
Original Plate
100
AcDbPolyline
 90
        8
 70
     1
 43
0.0
 10
93.01249999999993
 20
-54.12499999999996
 10
93.01249999999993
 20
-41.12499999999996
 42
-0.4142135623730482
 10
93.5124999999999
 20
-40.62499999999996
 10
106.5124999999999
 20
-40.62499999999999
 42
-0.4142135623730898
 10
107.0125
 20
-41.12499999999996
 10
107.0125
 20
-54.12499999999996
 42
-0.4142135623731054
 10
106.5125
 20
-54.62499999999996
 10
93.5124999999999
 20
-54.62499999999996
 42
-0.4142135623730378
  0
ARC
  5
60
330
769
100
AcDbEntity
  8
0
100
AcDbCircle
 10
73.175
 20
-16.025
 30
0.0
 40
0.5
100
AcDbArc
 50
270.0
 51
0.0
  0
LWPOLYLINE
  5
717
330
769
100
AcDbEntity
  8
Original Plate
100
AcDbPolyline
 90
        8
 70
     1
 43
0.0
 10
254.65
 20
-35.07499999999693
 42
-0.4142135623732459
 10
254.1499999999999
 20
-35.57499999999693
 10
241.15
 20
-35.5749999999969
 42
-0.414213562373095
 10
240.6499999999999
 20
-35.07499999999693
 10
240.6499999999999
 20
-22.07499999999705
 42
-0.4142135623731159
 10
241.15
 20
-21.57499999999708
 10
254.1499999999999
 20
-21.57499999999705
 42
-0.4142135623731679
 10
254.65
 20
-22.07499999999705
  0
LINE
  5
61
330
769
100
AcDbEntity
  8
0
100
AcDbLine
 10
79.225
 20
-2.525
 30
0.0
 11
92.225
 21
-2.525
 31
0.0
  0
LWPOLYLINE
  5
718
330
769
100
AcDbEntity
  8
Original Plate
100
AcDbPolyline
 90
        8
 70
     1
 43
0.0
 10
107.8
 20
-21.57499999999702
 10
120.8
 20
-21.57499999999702
 42
-0.4142135623731159
 10
121.2999999999999
 20
-22.07499999999702
 10
121.3
 20
-35.0749999999969
 42
-0.414213562373043
 10
120.7999999999999
 20
-35.5749999999969
 10
107.8
 20
-35.5749999999969
 42
-0.414213562373121
 10
107.3
 20
-35.0749999999969
 10
107.3
 20
-22.07499999999702
 42
-0.4142135623730482
  0
LINE
  5
62
330
769
100
AcDbEntity
  8
0
100
AcDbLine
 10
79.225
 20
-16.525
 30
0.0
 11
92.225
 21
-16.525
 31
0.0
  0
LWPOLYLINE
  5
719
330
769
100
AcDbEntity
  8
Original Plate
100
AcDbPolyline
 90
        8
 70
     1
 43
0.0
 10
164.1625
 20
-41.12499999999999
 10
164.1624999999999
 20
-54.12499999999999
 42
-0.4142135623730742
 10
163.6625
 20
-54.62499999999996
 10
150.6624999999989
 20
-54.62499999999999
 42
-0.4142135623731367
 10
150.1624999999989
 20
-54.12499999999999
 10
150.1624999999989
 20
-41.12499999999999
 42
-0.4142135623730898
 10
150.6624999999989
 20
-40.62499999999999
 10
163.6625
 20
-40.62499999999996
 42
-0.4142135623730638
  0
LINE
  5
63
330
769
100
AcDbEntity
  8
0
100
AcDbLine
 10
78.725
 20
-3.025
 30
0.0
 11
78.725
 21
-16.025
 31
0.0
  0
LWPOLYLINE
  5
71A
330
769
100
AcDbEntity
  8
Original Plate
100
AcDbPolyline
 90
        8
 70
     1
 43
0.0
 10
173.6875
 20
-60.17499999999701
 10
173.6875
 20
-73.17499999999693
 42
-0.4142135623731185
 10
173.1875
 20
-73.6749999999969
 10
160.1874999999989
 20
-73.67499999999693
 42
-0.4142135623730742
 10
159.6874999999989
 20
-73.17499999999693
 10
159.6874999999989
 20
-60.17499999999701
 42
-0.4142135623731418
 10
160.1874999999989
 20
-59.67499999999701
 10
173.1875
 20
-59.67499999999701
 42
-0.4142135623730716
  0
LINE
  5
64
330
769
100
AcDbEntity
  8
0
100
AcDbLine
 10
92.725
 20
-3.025
 30
0.0
 11
92.725
 21
-16.025
 31
0.0
  0
LWPOLYLINE
  5
71B
330
769
100
AcDbEntity
  8
Original Plate
100
AcDbPolyline
 90
        8
 70
     1
 43
0.0
 10
207.3125
 20
-54.12499999999999
 10
207.3125
 20
-41.12499999999999
 42
-0.4142135623730534
 10
207.8124999999999
 20
-40.62499999999996
 10
220.8124999999999
 20
-40.62500000000001
 42
-0.4142135623731575
 10
221.3124999999999
 20
-41.12499999999999
 10
221.3124999999999
 20
-54.12499999999999
 42
-0.4142135623729806
 10
220.8124999999999
 20
-54.62500000000001
 10
207.8124999999999
 20
-54.62500000000001
 42
-0.4142135623730378
  0
ARC
  5
65
330
769
100
AcDbEntity
  8
0
100
AcDbCircle
 10
79.225
 20
-3.025
 30
0.0
 40
0.5
100
AcDbArc
 50
90.0
 51
180.0
  0
LWPOLYLINE
  5
71C
330
769
100
AcDbEntity
  8
Original Plate
100
AcDbPolyline
 90
        8
 70
     1
 43
0.0
 10
111.775
 20
-3.024999999997007
 10
111.775
 20
-16.02499999999692
 42
-0.4142135623731054
 10
111.275
 20
-16.52499999999692
 10
98.27499999999992
 20
-16.52499999999689
 42
-0.414213562373095
 10
97.77499999999998
 20
-16.02499999999692
 10
97.775
 20
-3.024999999997007
 42
-0.4142135623730742
 10
98.27499999999998
 20
-2.524999999997036
 10
111.275
 20
-2.524999999997007
 42
-0.4142135623730742
  0
ARC
  5
66
330
769
100
AcDbEntity
  8
0
100
AcDbCircle
 10
92.225
 20
-3.025
 30
0.0
 40
0.5
100
AcDbArc
 50
0.0
 51
90.0
  0
LWPOLYLINE
  5
71D
330
769
100
AcDbEntity
  8
Original Plate
100
AcDbPolyline
 90
        8
 70
     1
 43
0.0
 10
54.62499999999994
 20
-3.024999999997007
 10
54.62499999999994
 20
-16.02499999999684
 42
-0.4142135623730586
 10
54.12499999999994
 20
-16.52499999999684
 10
41.12499999999993
 20
-16.52499999999689
 42
-0.414213562373121
 10
40.62499999999994
 20
-16.02499999999684
 10
40.62499999999994
 20
-3.024999999997007
 42
-0.4142135623731054
 10
41.12499999999993
 20
-2.524999999997036
 10
54.12499999999994
 20
-2.524999999997036
 42
-0.4142135623730586
  0
ARC
  5
67
330
769
100
AcDbEntity
  8
0
100
AcDbCircle
 10
79.225
 20
-16.025
 30
0.0
 40
0.5
100
AcDbArc
 50
180.0
 51
270.0
  0
LWPOLYLINE
  5
71E
330
769
100
AcDbEntity
  8
Original Plate
100
AcDbPolyline
 90
        8
 70
     1
 43
0.0
 10
221.6
 20
-35.07499999999693
 10
221.6
 20
-22.07499999999705
 42
-0.4142135623730794
 10
222.1
 20
-21.57499999999702
 10
235.1
 20
-21.57499999999702
 42
-0.4142135623730118
 10
235.5999999999999
 20
-22.07499999999705
 10
235.5999999999999
 20
-35.07499999999693
 42
-0.4142135623731003
 10
235.1
 20
-35.57499999999693
 10
222.1
 20
-35.57499999999696
 42
-0.4142135623730794
  0
ARC
  5
68
330
769
100
AcDbEntity
  8
0
100
AcDbCircle
 10
92.225
 20
-16.025
 30
0.0
 40
0.5
100
AcDbArc
 50
270.0
 51
0.0
  0
LWPOLYLINE
  5
71F
330
769
100
AcDbEntity
  8
Original Plate
100
AcDbPolyline
 90
        8
 70
     1
 43
0.0
 10
5.406249999999943
 20
-54.62499999999996
 42
-0.4142135623730892
 10
4.906249999999943
 20
-54.12499999999996
 10
4.906249999999972
 20
-41.12499999999996
 42
-0.4142135623731217
 10
5.406249999999943
 20
-40.62499999999996
 10
23.16874999999996
 20
-40.62499999999993
 42
-0.4142135623731054
 10
23.66874999999999
 20
-41.12499999999996
 10
23.66874999999999
 20
-54.12499999999996
 42
-0.414213562373082
 10
23.16874999999996
 20
-54.62499999999996
  0
LINE
  5
69
330
769
100
AcDbEntity
  8
0
100
AcDbLine
 10
212.575
 20
-2.525
 30
0.0
 11
225.575
 21
-2.525
 31
0.0
  0
LWPOLYLINE
  5
720
330
769
100
AcDbEntity
  8
Original Plate
100
AcDbPolyline
 90
        8
 70
     1
 43
0.0
 10
60.17499999999994
 20
-2.524999999997036
 10
73.17499999999995
 20
-2.524999999997036
 42
-0.4142135623730378
 10
73.67499999999995
 20
-3.024999999997007
 10
73.67499999999995
 20
-16.02499999999687
 42
-0.4142135623731159
 10
73.17499999999995
 20
-16.52499999999689
 10
60.17499999999994
 20
-16.52499999999689
 42
-0.414213562373121
 10
59.67499999999995
 20
-16.02499999999684
 10
59.67499999999995
 20
-3.024999999997007
 42
-0.4142135623730794
  0
LINE
  5
6A
330
769
100
AcDbEntity
  8
0
100
AcDbLine
 10
212.575
 20
-16.525
 30
0.0
 11
225.575
 21
-16.525
 31
0.0
  0
LWPOLYLINE
  5
721
330
769
100
AcDbEntity
  8
Original Plate
100
AcDbPolyline
 90
        8
 70
     1
 43
0.0
 10
243.5312499999999
 20
-73.67499999999696
 42
-0.4142135623731288
 10
243.0312499999999
 20
-73.17499999999696
 10
243.0312499999999
 20
-60.17499999999707
 42
-0.4142135623731393
 10
243.5312499999999
 20
-59.67499999999704
 10
256.5312499999999
 20
-59.67499999999704
 42
-0.4142135623730794
 10
257.03125
 20
-60.17499999999707
 10
257.0312499999999
 20
-73.17499999999696
 42
-0.414213562373056
 10
256.5312499999999
 20
-73.67499999999698
  0
LINE
  5
6B
330
769
100
AcDbEntity
  8
0
100
AcDbLine
 10
212.075
 20
-3.025
 30
0.0
 11
212.075
 21
-16.025
 31
0.0
  0
LWPOLYLINE
  5
722
330
769
100
AcDbEntity
  8
Original Plate
100
AcDbPolyline
 90
        8
 70
     1
 43
0.0
 10
212.5749999999999
 20
-2.524999999997036
 10
225.575
 20
-2.524999999997036
 42
-0.4142135623730742
 10
226.0749999999999
 20
-3.024999999997036
 10
226.0749999999999
 20
-16.02499999999692
 42
-0.4142135623731054
 10
225.575
 20
-16.52499999999692
 10
212.5749999999999
 20
-16.52499999999692
 42
-0.4142135623731262
 10
212.075
 20
-16.02499999999692
 10
212.075
 20
-3.024999999997036
 42
-0.4142135623730742
  0
LINE
  5
6C
330
769
100
AcDbEntity
  8
0
100
AcDbLine
 10
226.075
 20
-3.025
 30
0.0
 11
226.075
 21
-16.025
 31
0.0
  0
LWPOLYLINE
  5
723
330
769
100
AcDbEntity
  8
Original Plate
100
AcDbPolyline
 90
        8
 70
     1
 43
0.0
 10
231.6249999999999
 20
-16.52499999999692
 42
-0.4142135623731054
 10
231.1249999999999
 20
-16.02499999999692
 10
231.1249999999999
 20
-3.024999999997036
 42
-0.414213562373147
 10
231.6249999999999
 20
-2.524999999997036
 10
244.6249999999999
 20
-2.524999999997036
 42
-0.4142135623730326
 10
245.1249999999999
 20
-3.024999999997007
 10
245.125
 20
-16.02499999999695
 42
-0.4142135623731054
 10
244.6249999999999
 20
-16.52499999999692
  0
ARC
  5
6D
330
769
100
AcDbEntity
  8
0
100
AcDbCircle
 10
212.575
 20
-3.025
 30
0.0
 40
0.5
100
AcDbArc
 50
90.0
 51
180.0
  0
LWPOLYLINE
  5
724
330
769
100
AcDbEntity
  8
Original Plate
100
AcDbPolyline
 90
        8
 70
     1
 43
0.0
 10
217.3375
 20
-59.67499999999693
 10
230.3374999999999
 20
-59.67499999999707
 42
-0.414213562373095
 10
230.8375
 20
-60.17499999999707
 10
230.8375
 20
-73.17499999999696
 42
-0.4142135623731159
 10
230.3375
 20
-73.67499999999698
 10
217.3375
 20
-73.67499999999696
 42
-0.4142135623730716
 10
216.8375
 20
-73.17499999999693
 10
216.8374999999999
 20
-60.17499999999707
 42
-0.4142135623731367
  0
ARC
  5
6E
330
769
100
AcDbEntity
  8
0
100
AcDbCircle
 10
225.575
 20
-3.025
 30
0.0
 40
0.5
100
AcDbArc
 50
0.0
 51
90.0
  0
LWPOLYLINE
  5
725
330
769
100
AcDbEntity
  8
Original Plate
100
AcDbPolyline
 90
        8
 70
     1
 43
0.0
 10
196.9999999999999
 20
-35.57499999999693
 10
183.9999999999999
 20
-35.57499999999693
 42
-0.4142135623730118
 10
183.4999999999999
 20
-35.07499999999693
 10
183.4999999999999
 20
-22.07499999999702
 42
-0.4142135623730274
 10
183.9999999999999
 20
-21.57499999999702
 10
197.0
 20
-21.57499999999699
 42
-0.4142135623730482
 10
197.4999999999999
 20
-22.07499999999702
 10
197.4999999999999
 20
-35.07499999999693
 42
-0.4142135623731418
  0
ARC
  5
6F
330
769
100
AcDbEntity
  8
0
100
AcDbCircle
 10
212.575
 20
-16.025
 30
0.0
 40
0.5
100
AcDbArc
 50
180.0
 51
270.0
  0
LWPOLYLINE
  5
726
330
769
100
AcDbEntity
  8
Original Plate
100
AcDbPolyline
 90
        8
 70
     1
 43
0.0
 10
302.275
 20
-79.22499999999705
 10
302.275
 20
-92.22499999999702
 42
-0.4142135623731607
 10
301.775
 20
-92.72499999999702
 10
288.775
 20
-92.72499999999705
 42
-0.4142135623730788
 10
288.2749999999999
 20
-92.22499999999702
 10
288.2749999999999
 20
-79.22499999999705
 42
-0.4142135623730794
 10
288.775
 20
-78.72499999999702
 10
301.775
 20
-78.72499999999702
 42
-0.4142135623731106
  0
ARC
  5
70
330
769
100
AcDbEntity
  8
0
100
AcDbCircle
 10
225.575
 20
-16.025
 30
0.0
 40
0.5
100
AcDbArc
 50
270.0
 51
0.0
  0
LWPOLYLINE
  5
727
330
769
100
AcDbEntity
  8
Original Plate
100
AcDbPolyline
 90
        8
 70
     1
 43
0.0
 10
155.424999999999
 20
-16.52499999999692
 42
-0.414213562373095
 10
154.9249999999989
 20
-16.02499999999692
 10
154.924999999999
 20
-3.024999999997007
 42
-0.4142135623731679
 10
155.424999999999
 20
-2.524999999997036
 10
168.425
 20
-2.524999999997007
 42
-0.4142135623730118
 10
168.925
 20
-3.024999999997007
 10
168.9249999999999
 20
-16.02499999999692
 42
-0.4142135623731054
 10
168.425
 20
-16.52499999999692
  0
LINE
  5
71
330
769
100
AcDbEntity
  8
0
100
AcDbLine
 10
231.625
 20
-2.525
 30
0.0
 11
244.625
 21
-2.525
 31
0.0
  0
LWPOLYLINE
  5
728
330
769
100
AcDbEntity
  8
Original Plate
100
AcDbPolyline
 90
        8
 70
     1
 43
0.0
 10
7.287499999999937
 20
-22.07499999999699
 42
-0.4142135623730996
 10
7.787499999999937
 20
-21.57499999999699
 10
20.78749999999991
 20
-21.57499999999699
 42
-0.414213562373069
 10
21.28749999999994
 20
-22.07499999999699
 10
21.28749999999994
 20
-35.07499999999688
 42
-0.414213562373069
 10
20.78749999999991
 20
-35.57499999999688
 10
7.787499999999937
 20
-35.5749999999969
 42
-0.414213562373082
 10
7.287499999999909
 20
-35.07499999999688
  0
LINE
  5
72
330
769
100
AcDbEntity
  8
0
100
AcDbLine
 10
231.625
 20
-16.525
 30
0.0
 11
244.625
 21
-16.525
 31
0.0
  0
LWPOLYLINE
  5
729
330
769
100
AcDbEntity
  8
Original Plate
100
AcDbPolyline
 90
        8
 70
     1
 43
0.0
 10
206.525
 20
-2.524999999997036
 42
-0.4142135623731783
 10
207.0249999999999
 20
-3.024999999997036
 10
207.0249999999999
 20
-16.02499999999692
 42
-0.4142135623731679
 10
206.525
 20
-16.52499999999692
 10
193.5249999999999
 20
-16.52499999999692
 42
-0.4142135623731054
 10
193.025
 20
-16.02499999999692
 10
193.025
 20
-3.024999999997007
 42
-0.4142135623731054
 10
193.5249999999999
 20
-2.524999999997036
  0
LINE
  5
73
330
769
100
AcDbEntity
  8
0
100
AcDbLine
 10
231.125
 20
-3.025
 30
0.0
 11
231.125
 21
-16.025
 31
0.0
  0
LWPOLYLINE
  5
72A
330
769
100
AcDbEntity
  8
Original Plate
100
AcDbPolyline
 90
        8
 70
     1
 43
0.0
 10
159.3999999999989
 20
-22.07499999999702
 10
159.3999999999988
 20
-35.07499999999693
 42
-0.4142135623731106
 10
158.899999999999
 20
-35.57499999999693
 10
145.899999999999
 20
-35.5749999999969
 42
-0.4142135623730742
 10
145.399999999999
 20
-35.0749999999969
 10
145.399999999999
 20
-22.07499999999702
 42
-0.414213562373069
 10
145.899999999999
 20
-21.57499999999702
 10
158.899999999999
 20
-21.57499999999705
 42
-0.4142135623729754
  0
LINE
  5
74
330
769
100
AcDbEntity
  8
0
100
AcDbLine
 10
245.125
 20
-3.025
 30
0.0
 11
245.125
 21
-16.025
 31
0.0
  0
LWPOLYLINE
  5
72B
330
769
100
AcDbEntity
  8
Original Plate
100
AcDbPolyline
 90
        8
 70
     1
 43
0.0
 10
177.96875
 20
-92.72499999999702
 42
-0.4142135623731601
 10
177.46875
 20
-92.22499999999702
 10
177.46875
 20
-77.22499999999691
 42
-0.4142135623731444
 10
177.96875
 20
-76.72499999999691
 10
184.00675
 20
-76.72499999999691
 42
-0.4142135623731003
 10
184.50675
 20
-77.22499999999691
 10
184.50675
 20
-92.22499999999702
 42
-0.4142135623731347
 10
184.00675
 20
-92.72499999999702
  0
ARC
  5
75
330
769
100
AcDbEntity
  8
0
100
AcDbCircle
 10
231.625
 20
-3.025
 30
0.0
 40
0.5
100
AcDbArc
 50
90.0
 51
180.0
  0
LWPOLYLINE
  5
72C
330
769
100
AcDbEntity
  8
Original Plate
100
AcDbPolyline
 90
        8
 70
     1
 43
0.0
 10
269.725
 20
-78.72499999999702
 10
282.725
 20
-78.72499999999705
 42
-0.4142135623731341
 10
283.2250000000001
 20
-79.22499999999702
 10
283.2249999999999
 20
-92.22499999999702
 42
-0.4142135623731035
 10
282.725
 20
-92.72499999999702
 10
269.725
 20
-92.72499999999705
 42
-0.4142135623731067
 10
269.225
 20
-92.22499999999702
 10
269.225
 20
-79.22499999999702
 42
-0.4142135623731341
  0
ARC
  5
76
330
769
100
AcDbEntity
  8
0
100
AcDbCircle
 10
244.625
 20
-3.025
 30
0.0
 40
0.5
100
AcDbArc
 50
0.0
 51
90.0
  0
LWPOLYLINE
  5
72D
330
769
100
AcDbEntity
  8
Original Plate
100
AcDbPolyline
 90
        8
 70
     1
 43
0.0
 10
188.2625
 20
-54.12499999999999
 10
188.2625
 20
-41.12499999999999
 42
-0.4142135623730066
 10
188.7624999999999
 20
-40.62499999999999
 10
201.7625
 20
-40.62500000000001
 42
-0.4142135623731991
 10
202.2624999999999
 20
-41.12499999999999
 10
202.2624999999999
 20
-54.12499999999999
 42
-0.4142135623731418
 10
201.7624999999999
 20
-54.62499999999999
 10
188.7624999999999
 20
-54.62500000000001
 42
-0.4142135623730118
  0
ARC
  5
77
330
769
100
AcDbEntity
  8
0
100
AcDbCircle
 10
231.625
 20
-16.025
 30
0.0
 40
0.5
100
AcDbArc
 50
180.0
 51
270.0
  0
LWPOLYLINE
  5
72E
330
769
100
AcDbEntity
  8
Original Plate
100
AcDbPolyline
 90
        8
 70
     1
 43
0.0
 10
192.7375
 20
-60.17499999999701
 10
192.7375
 20
-73.17499999999693
 42
-0.4142135623731054
 10
192.2374999999999
 20
-73.67499999999696
 10
179.2374999999999
 20
-73.67499999999693
 42
-0.4142135623730118
 10
178.7375
 20
-73.17499999999693
 10
178.7375
 20
-60.17499999999701
 42
-0.4142135623731003
 10
179.2374999999999
 20
-59.67499999999701
 10
192.2375
 20
-59.67499999999704
 42
-0.4142135623731028
  0
ARC
  5
78
330
769
100
AcDbEntity
  8
0
100
AcDbCircle
 10
244.625
 20
-16.025
 30
0.0
 40
0.5
100
AcDbArc
 50
270.0
 51
0.0
  0
LWPOLYLINE
  5
72F
330
769
100
AcDbEntity
  8
Original Plate
100
AcDbPolyline
 90
        8
 70
     1
 43
0.0
 10
22.07499999999996
 20
-16.52499999999689
 42
-0.4142135623730274
 10
21.57499999999996
 20
-16.02499999999687
 10
21.57499999999999
 20
-3.024999999997007
 42
-0.4142135623731132
 10
22.07499999999996
 20
-2.524999999996922
 10
35.07499999999993
 20
-2.524999999997036
 42
-0.414213562373056
 10
35.57499999999993
 20
-3.024999999997007
 10
35.57499999999992
 20
-16.02499999999687
 42
-0.4142135623730508
 10
35.07499999999993
 20
-16.52499999999689
  0
LINE
  5
79
330
769
100
AcDbEntity
  8
0
100
AcDbLine
 10
250.675
 20
-2.525
 30
0.0
 11
263.675
 21
-2.525
 31
0.0
  0
LWPOLYLINE
  5
730
330
769
100
AcDbEntity
  8
Original Plate
100
AcDbPolyline
 90
        8
 70
     1
 43
0.0
 10
73.96249999999993
 20
-54.12499999999996
 10
73.96249999999995
 20
-41.12499999999996
 42
-0.4142135623730898
 10
74.46249999999993
 20
-40.62499999999999
 10
87.46249999999998
 20
-40.62499999999996
 42
-0.414213562373069
 10
87.96249999999998
 20
-41.12499999999996
 10
87.96249999999992
 20
-54.12499999999996
 42
-0.4142135623730898
 10
87.46249999999998
 20
-54.62499999999996
 10
74.46249999999993
 20
-54.62499999999996
 42
-0.4142135623730846
  0
LINE
  5
7A
330
769
100
AcDbEntity
  8
0
100
AcDbLine
 10
250.675
 20
-16.525
 30
0.0
 11
263.675
 21
-16.525
 31
0.0
  0
LWPOLYLINE
  5
731
330
769
100
AcDbEntity
  8
Original Plate
100
AcDbPolyline
 90
        8
 70
     1
 43
0.0
 10
45.09999999999994
 20
-22.07499999999699
 10
45.09999999999995
 20
-35.07499999999688
 42
-0.4142135623730586
 10
44.59999999999994
 20
-35.5749999999969
 10
31.59999999999994
 20
-35.5749999999969
 42
-0.4142135623730794
 10
31.09999999999994
 20
-35.07499999999688
 10
31.09999999999995
 20
-22.07499999999699
 42
-0.4142135623731003
 10
31.59999999999994
 20
-21.57499999999699
 10
44.59999999999994
 20
-21.57499999999699
 42
-0.414213562373095
  0
LINE
  5
7B
330
769
100
AcDbEntity
  8
0
100
AcDbLine
 10
250.175
 20
-3.025
 30
0.0
 11
250.175
 21
-16.025
 31
0.0
  0
LWPOLYLINE
  5
732
330
769
100
AcDbEntity
  8
Original Plate
100
AcDbPolyline
 90
        8
 70
     1
 43
0.0
 10
88.74999999999994
 20
-35.5749999999969
 42
-0.4142135623731418
 10
88.24999999999994
 20
-35.0749999999969
 10
88.24999999999994
 20
-22.07499999999702
 42
-0.4142135623730482
 10
88.74999999999994
 20
-21.57499999999702
 10
101.7499999999999
 20
-21.57499999999702
 42
-0.4142135623730898
 10
102.2499999999999
 20
-22.07499999999702
 10
102.2499999999999
 20
-35.0749999999969
 42
-0.4142135623731159
 10
101.7499999999999
 20
-35.5749999999969
  0
LINE
  5
7C
330
769
100
AcDbEntity
  8
0
100
AcDbLine
 10
264.175
 20
-3.025
 30
0.0
 11
264.175
 21
-16.025
 31
0.0
  0
LWPOLYLINE
  5
733
330
769
100
AcDbEntity
  8
Original Plate
100
AcDbPolyline
 90
        8
 70
     1
 43
0.0
 10
116.0374999999999
 20
-59.67499999999701
 42
-0.4142135623730092
 10
116.5375
 20
-60.17499999999701
 10
116.5375
 20
-73.1749999999969
 42
-0.4142135623730378
 10
116.0374999999999
 20
-73.6749999999969
 10
103.0375
 20
-73.6749999999969
 42
-0.4142135623730872
 10
102.5374999999999
 20
-73.1749999999969
 10
102.5374999999999
 20
-60.17499999999701
 42
-0.414213562373095
 10
103.0375
 20
-59.67499999999701
  0
ARC
  5
7D
330
769
100
AcDbEntity
  8
0
100
AcDbCircle
 10
250.675
 20
-3.025
 30
0.0
 40
0.5
100
AcDbArc
 50
90.0
 51
180.0
  0
LWPOLYLINE
  5
734
330
769
100
AcDbEntity
  8
Original Plate
100
AcDbPolyline
 90
        8
 70
     1
 43
0.0
 10
301.775
 20
-73.67499999999696
 10
288.775
 20
-73.67499999999698
 42
-0.4142135623730534
 10
288.2749999999999
 20
-73.17499999999696
 10
288.2749999999999
 20
-60.17499999999707
 42
-0.4142135623730742
 10
288.775
 20
-59.67499999999704
 10
301.775
 20
-59.6749999999971
 42
-0.4142135623730638
 10
302.275
 20
-60.17499999999707
 10
302.2749999999999
 20
-73.17499999999696
 42
-0.4142135623731705
  0
ARC
  5
7E
330
769
100
AcDbEntity
  8
0
100
AcDbCircle
 10
263.675
 20
-3.025
 30
0.0
 40
0.5
100
AcDbArc
 50
0.0
 51
90.0
  0
LWPOLYLINE
  5
735
330
769
100
AcDbEntity
  8
Original Plate
100
AcDbPolyline
 90
        8
 70
     1
 43
0.0
 10
69.69999999999995
 20
-21.57499999999699
 10
82.69999999999999
 20
-21.57499999999699
 42
-0.4142135623730846
 10
83.19999999999993
 20
-22.07499999999702
 10
83.19999999999993
 20
-35.0749999999969
 42
-0.4142135623730846
 10
82.69999999999999
 20
-35.5749999999969
 10
69.69999999999995
 20
-35.5749999999969
 42
-0.414213562373069
 10
69.19999999999995
 20
-35.07499999999688
 10
69.19999999999995
 20
-22.07499999999702
 42
-0.4142135623731159
  0
ARC
  5
7F
330
769
100
AcDbEntity
  8
0
100
AcDbCircle
 10
250.675
 20
-16.025
 30
0.0
 40
0.5
100
AcDbArc
 50
180.0
 51
270.0
  0
LWPOLYLINE
  5
736
330
769
100
AcDbEntity
  8
Original Plate
100
AcDbPolyline
 90
        8
 70
     1
 43
0.0
 10
149.3749499999999
 20
-78.72499999999702
 42
-0.414213562373095
 10
149.8749499999999
 20
-79.22499999999702
 10
149.87495
 20
-92.224999999997
 42
-0.4142135623731197
 10
149.3749499999999
 20
-92.724999999997
 10
124.4687499999999
 20
-92.724999999997
 42
-0.4142135623731061
 10
123.9687499999999
 20
-92.22499999999702
 10
123.9687499999999
 20
-79.224999999997
 42
-0.4142135623730872
 10
124.4687499999999
 20
-78.724999999997
  0
ARC
  5
80
330
769
100
AcDbEntity
  8
0
100
AcDbCircle
 10
263.675
 20
-16.025
 30
0.0
 40
0.5
100
AcDbArc
 50
270.0
 51
0.0
  0
LWPOLYLINE
  5
737
330
769
100
AcDbEntity
  8
Original Plate
100
AcDbPolyline
 90
        8
 70
     1
 43
0.0
 10
58.88749999999995
 20
-59.67499999999701
 42
-0.414213562373108
 10
59.38749999999993
 20
-60.17499999999698
 10
59.38749999999993
 20
-73.1749999999969
 42
-0.4142135623730794
 10
58.88749999999993
 20
-73.67499999999687
 10
45.88749999999992
 20
-73.67499999999693
 42
-0.4142135623731262
 10
45.3874999999999
 20
-73.1749999999969
 10
45.38749999999995
 20
-60.17499999999698
 42
-0.4142135623730794
 10
45.88749999999992
 20
-59.67499999999698
  0
LINE
  5
81
330
769
100
AcDbEntity
  8
0
100
AcDbLine
 10
269.725
 20
-2.525
 30
0.0
 11
282.725
 21
-2.525
 31
0.0
  0
LWPOLYLINE
  5
738
330
769
100
AcDbEntity
  8
Original Plate
100
AcDbPolyline
 90
        8
 70
     1
 43
0.0
 10
169.2124999999999
 20
-41.12499999999999
 42
-0.4142135623731367
 10
169.7124999999999
 20
-40.62499999999999
 10
182.7125
 20
-40.62499999999993
 42
-0.4142135623731159
 10
183.2125
 20
-41.12499999999999
 10
183.2125
 20
-54.12499999999999
 42
-0.4142135623731991
 10
182.7125
 20
-54.62499999999996
 10
169.7124999999999
 20
-54.62499999999999
 42
-0.4142135623730742
 10
169.2124999999999
 20
-54.12499999999999
  0
LINE
  5
82
330
769
100
AcDbEntity
  8
0
100
AcDbLine
 10
269.725
 20
-16.525
 30
0.0
 11
282.725
 21
-16.525
 31
0.0
  0
LWPOLYLINE
  5
739
330
769
100
AcDbEntity
  8
Original Plate
100
AcDbPolyline
 90
        8
 70
     1
 43
0.0
 10
78.72499999999995
 20
-3.024999999997007
 42
-0.4142135623731887
 10
79.22499999999995
 20
-2.524999999997036
 10
92.22499999999991
 20
-2.524999999997036
 42
-0.4142135623729806
 10
92.72499999999997
 20
-3.024999999997007
 10
92.72499999999994
 20
-16.02499999999692
 42
-0.4142135623730846
 10
92.22499999999991
 20
-16.52499999999692
 10
79.22499999999995
 20
-16.52499999999689
 42
-0.414213562373043
 10
78.72499999999995
 20
-16.02499999999687
  0
LINE
  5
83
330
769
100
AcDbEntity
  8
0
100
AcDbLine
 10
269.225
 20
-3.025
 30
0.0
 11
269.225
 21
-16.025
 31
0.0
  0
LWPOLYLINE
  5
73A
330
769
100
AcDbEntity
  8
Original Plate
100
AcDbPolyline
 90
        8
 70
     1
 43
0.0
 10
302.275
 20
-35.07499999999696
 42
-0.4142135623731887
 10
301.775
 20
-35.57499999999693
 10
288.775
 20
-35.57499999999696
 42
-0.414213562373069
 10
288.2749999999999
 20
-35.07499999999696
 10
288.2749999999999
 20
-22.07499999999705
 42
-0.4142135623731003
 10
288.775
 20
-21.57499999999708
 10
301.775
 20
-21.57499999999702
 42
-0.4142135623731106
 10
302.275
 20
-22.07499999999705
  0
LINE
  5
84
330
769
100
AcDbEntity
  8
0
100
AcDbLine
 10
283.225
 20
-3.025
 30
0.0
 11
283.225
 21
-16.025
 31
0.0
  0
LWPOLYLINE
  5
73B
330
769
100
AcDbEntity
  8
Original Plate
100
AcDbPolyline
 90
        8
 70
     1
 43
0.0
 10
2.524999999999949
 20
-3.024999999997007
 42
-0.414213562373136
 10
3.024999999999949
 20
-2.524999999996922
 10
16.02499999999995
 20
-2.524999999996979
 42
-0.4142135623730417
 10
16.52499999999995
 20
-3.024999999997007
 10
16.52499999999992
 20
-16.02499999999687
 42
-0.4142135623730534
 10
16.02499999999995
 20
-16.52499999999684
 10
3.024999999999949
 20
-16.52499999999684
 42
-0.4142135623730687
 10
2.524999999999949
 20
-16.02499999999687
  0
ARC
  5
85
330
769
100
AcDbEntity
  8
0
100
AcDbCircle
 10
269.725
 20
-3.025
 30
0.0
 40
0.5
100
AcDbArc
 50
90.0
 51
180.0
  0
LWPOLYLINE
  5
73C
330
769
100
AcDbEntity
  8
Original Plate
100
AcDbPolyline
 90
        8
 70
     1
 43
0.0
 10
35.86249999999993
 20
-54.12499999999996
 10
35.86249999999995
 20
-41.12499999999996
 42
-0.4142135623730846
 10
36.36249999999995
 20
-40.62499999999999
 10
49.36249999999995
 20
-40.62499999999996
 42
-0.414213562373069
 10
49.86249999999994
 20
-41.12499999999996
 10
49.86249999999994
 20
-54.12499999999996
 42
-0.414213562373095
 10
49.36249999999995
 20
-54.62499999999996
 10
36.36249999999995
 20
-54.62499999999996
 42
-0.4142135623731236
  0
ARC
  5
86
330
769
100
AcDbEntity
  8
0
100
AcDbCircle
 10
282.725
 20
-3.025
 30
0.0
 40
0.5
100
AcDbArc
 50
0.0
 51
90.0
  0
LWPOLYLINE
  5
73D
330
769
100
AcDbEntity
  8
Original Plate
100
AcDbPolyline
 90
       14
 70
     1
 43
0.0
 10
208.9062499999999
 20
-92.72499999999702
 10
195.90625
 20
-92.72499999999702
 42
-0.4142135623730736
 10
195.4062499999999
 20
-92.22499999999702
 10
195.4062499999999
 20
-79.22499999999702
 42
-0.4142135623731418
 10
195.9062499999999
 20
-78.72499999999702
 10
196.5187500000001
 20
-78.72499999999702
 10
196.51875
 20
-77.22499999999691
 42
-0.4142135623731444
 10
197.01875
 20
-76.72499999999691
 10
203.05675
 20
-76.72499999999691
 42
-0.4142135623730716
 10
203.55675
 20
-77.22499999999691
 10
203.5567499999999
 20
-78.72499999999702
 10
208.9062499999999
 20
-78.724999999997
 42
-0.4142135623730508
 10
209.4062499999999
 20
-79.22499999999702
 10
209.4062500000001
 20
-92.22499999999702
 42
-0.4142135623731926
  0
ARC
  5
87
330
769
100
AcDbEntity
  8
0
100
AcDbCircle
 10
269.725
 20
-16.025
 30
0.0
 40
0.5
100
AcDbArc
 50
180.0
 51
270.0
  0
LWPOLYLINE
  5
73E
330
769
100
AcDbEntity
  8
Original Plate
100
AcDbPolyline
 90
        8
 70
     1
 43
0.0
 10
83.98749999999995
 20
-59.67499999999701
 10
96.98749999999993
 20
-59.67499999999701
 42
-0.4142135623731132
 10
97.48749999999995
 20
-60.17499999999701
 10
97.48749999999995
 20
-73.1749999999969
 42
-0.4142135623731054
 10
96.98749999999995
 20
-73.6749999999969
 10
83.98749999999995
 20
-73.6749999999969
 42
-0.414213562373108
 10
83.48749999999993
 20
-73.1749999999969
 10
83.48749999999993
 20
-60.17499999999701
 42
-0.4142135623731054
  0
ARC
  5
88
330
769
100
AcDbEntity
  8
0
100
AcDbCircle
 10
282.725
 20
-16.025
 30
0.0
 40
0.5
100
AcDbArc
 50
270.0
 51
0.0
  0
LWPOLYLINE
  5
73F
330
769
100
AcDbEntity
  8
Original Plate
100
AcDbPolyline
 90
        8
 70
     1
 43
0.0
 10
126.8499999999999
 20
-21.57499999999693
 10
139.85
 20
-21.57499999999702
 42
-0.4142135623731054
 10
140.35
 20
-22.07499999999702
 10
140.35
 20
-35.0749999999969
 42
-0.4142135623731159
 10
139.85
 20
-35.5749999999969
 10
126.8499999999999
 20
-35.5749999999969
 42
-0.4142135623731054
 10
126.35
 20
-35.0749999999969
 10
126.3499999999999
 20
-22.07499999999702
 42
-0.4142135623730274
  0
LINE
  5
89
330
769
100
AcDbEntity
  8
0
100
AcDbLine
 10
288.775
 20
-2.525
 30
0.0
 11
301.775
 21
-2.525
 31
0.0
  0
LWPOLYLINE
  5
740
330
769
100
AcDbEntity
  8
Original Plate
100
AcDbPolyline
 90
        8
 70
     1
 43
0.0
 10
145.112499999999
 20
-41.12499999999999
 10
145.112499999999
 20
-54.12499999999999
 42
-0.4142135623731367
 10
144.6124999999989
 20
-54.62499999999996
 10
131.6125
 20
-54.62499999999996
 42
-0.4142135623730898
 10
131.1124999999999
 20
-54.12499999999999
 10
131.1125
 20
-41.12499999999999
 42
-0.4142135623731314
 10
131.6125
 20
-40.62499999999999
 10
144.6124999999989
 20
-40.62499999999999
 42
-0.414213562373095
  0
LINE
  5
8A
330
769
100
AcDbEntity
  8
0
100
AcDbLine
 10
288.775
 20
-16.525
 30
0.0
 11
301.775
 21
-16.525
 31
0.0
  0
LWPOLYLINE
  5
741
330
769
100
AcDbEntity
  8
Original Plate
100
AcDbPolyline
 90
        8
 70
     1
 43
0.0
 10
178.4499999999999
 20
-35.07499999999693
 42
-0.4142135623731106
 10
177.95
 20
-35.57499999999693
 10
164.95
 20
-35.57499999999693
 42
-0.4142135623731367
 10
164.4499999999999
 20
-35.07499999999693
 10
164.4499999999999
 20
-22.07499999999702
 42
-0.4142135623732199
 10
164.95
 20
-21.57499999999702
 10
177.95
 20
-21.57499999999705
 42
-0.4142135623729754
 10
178.4499999999999
 20
-22.07499999999702
  0
LINE
  5
8B
330
769
100
AcDbEntity
  8
0
100
AcDbLine
 10
288.275
 20
-3.025
 30
0.0
 11
288.275
 21
-16.025
 31
0.0
  0
LWPOLYLINE
  5
742
330
769
100
AcDbEntity
  8
Original Plate
100
AcDbPolyline
 90
        8
 70
     1
 43
0.0
 10
154.6374999999989
 20
-60.17499999999701
 10
154.6374999999989
 20
-73.17499999999693
 42
-0.4142135623730612
 10
154.137499999999
 20
-73.6749999999969
 10
141.1374999999999
 20
-73.6749999999969
 42
-0.4142135623730716
 10
140.6375
 20
-73.1749999999969
 10
140.6375
 20
-60.17499999999701
 42
-0.4142135623730872
 10
141.1374999999999
 20
-59.67499999999701
 10
154.137499999999
 20
-59.67499999999704
 42
-0.4142135623731393
  0
LINE
  5
8C
330
769
100
AcDbEntity
  8
0
100
AcDbLine
 10
302.275
 20
-3.025
 30
0.0
 11
302.275
 21
-16.025
 31
0.0
  0
LWPOLYLINE
  5
743
330
769
100
AcDbEntity
  8
Original Plate
100
AcDbPolyline
 90
        8
 70
     1
 43
0.0
 10
77.93074999999995
 20
-92.724999999997
 42
-0.4142135623730749
 10
77.43074999999997
 20
-92.224999999997
 10
77.43074999999997
 20
-77.22499999999691
 42
-0.4142135623730716
 10
77.93074999999995
 20
-76.72499999999691
 10
88.43694999999991
 20
-76.72499999999688
 42
-0.4142135623730976
 10
88.93694999999997
 20
-77.22499999999691
 10
88.93694999999994
 20
-92.224999999997
 42
-0.4142135623730742
 10
88.43694999999991
 20
-92.72499999999702
  0
ARC
  5
8D
330
769
100
AcDbEntity
  8
0
100
AcDbCircle
 10
288.775
 20
-3.025
 30
0.0
 40
0.5
100
AcDbArc
 50
90.0
 51
180.0
  0
LWPOLYLINE
  5
744
330
769
100
AcDbEntity
  8
Original Plate
100
AcDbPolyline
 90
        8
 70
     1
 43
0.0
 10
121.5874999999999
 20
-60.17499999999701
 42
-0.4142135623730768
 10
122.0875
 20
-59.67499999999701
 10
135.0874999999999
 20
-59.67499999999701
 42
-0.4142135623730586
 10
135.5874999999999
 20
-60.17499999999701
 10
135.5874999999999
 20
-73.1749999999969
 42
-0.414213562373056
 10
135.0874999999999
 20
-73.67499999999693
 10
122.0875
 20
-73.6749999999969
 42
-0.4142135623730898
 10
121.5874999999999
 20
-73.1749999999969
  0
ARC
  5
8E
330
769
100
AcDbEntity
  8
0
100
AcDbCircle
 10
301.775
 20
-3.025
 30
0.0
 40
0.5
100
AcDbArc
 50
0.0
 51
90.0
  0
LWPOLYLINE
  5
745
330
769
100
AcDbEntity
  8
Original Plate
100
AcDbPolyline
 90
        8
 70
     1
 43
0.0
 10
125.5625
 20
-40.62499999999999
 42
-0.4142135623730846
 10
126.0625
 20
-41.12499999999999
 10
126.0625
 20
-54.12499999999999
 42
-0.414213562373069
 10
125.5625
 20
-54.62499999999996
 10
112.5624999999999
 20
-54.62499999999996
 42
-0.4142135623730898
 10
112.0624999999999
 20
-54.12499999999999
 10
112.0624999999999
 20
-41.12499999999996
 42
-0.4142135623730898
 10
112.5624999999999
 20
-40.62499999999999
  0
ARC
  5
8F
330
769
100
AcDbEntity
  8
0
100
AcDbCircle
 10
288.775
 20
-16.025
 30
0.0
 40
0.5
100
AcDbArc
 50
180.0
 51
270.0
  0
LWPOLYLINE
  5
746
330
769
100
AcDbEntity
  8
Original Plate
100
AcDbPolyline
 90
        8
 70
     1
 43
0.0
 10
187.9749999999999
 20
-16.02499999999692
 42
-0.4142135623731262
 10
187.475
 20
-16.52499999999692
 10
174.4749999999999
 20
-16.52499999999692
 42
-0.4142135623731262
 10
173.975
 20
-16.02499999999692
 10
173.975
 20
-3.024999999997007
 42
-0.4142135623731054
 10
174.475
 20
-2.524999999997064
 10
187.475
 20
-2.524999999997007
 42
-0.4142135623730118
 10
187.975
 20
-3.024999999997007
  0
ARC
  5
90
330
769
100
AcDbEntity
  8
0
100
AcDbCircle
 10
301.775
 20
-16.025
 30
0.0
 40
0.5
100
AcDbArc
 50
270.0
 51
0.0
  0
CIRCLE
  5
747
330
769
100
AcDbEntity
  8
0
100
AcDbCircle
 10
185.73749746
 20
-38.09999749569828
 30
-0.0000000000006393
 40
1.45
  0
LINE
  5
91
330
769
100
AcDbEntity
  8
0
100
AcDbLine
 10
3.025
 20
-21.575
 30
0.0
 11
16.025
 21
-21.575
 31
0.0
  0
CIRCLE
  5
748
330
769
100
AcDbEntity
  8
0
100
AcDbCircle
 10
73.80604999999983
 20
-57.18174999999628
 30
0.0000000000006355
 40
1.45
  0
LINE
  5
92
330
769
100
AcDbEntity
  8
0
100
AcDbLine
 10
3.025
 20
-35.575
 30
0.0
 11
16.025
 21
-35.575
 31
0.0
  0
LWPOLYLINE
  5
749
330
769
100
AcDbEntity
  8
Original Plate
100
AcDbPolyline
 90
        8
 70
     1
 43
0.0
 10
241.15
 20
-78.72499999999702
 10
244.6249999999999
 20
-78.72499999999705
 42
-0.4142135623731236
 10
245.1249999999999
 20
-79.22499999999702
 10
245.125
 20
-92.22499999999702
 42
-0.4142135623731035
 10
244.6249999999999
 20
-92.72499999999702
 10
241.15
 20
-92.72499999999702
 42
-0.414213562373121
 10
240.65
 20
-92.22499999999702
 10
240.6499999999999
 20
-79.22499999999702
 42
-0.4142135623731028
  0
LINE
  5
93
330
769
100
AcDbEntity
  8
0
100
AcDbLine
 10
2.525
 20
-22.075
 30
0.0
 11
2.525
 21
-35.075
 31
0.0
  0
LINE
  5
94
330
769
100
AcDbEntity
  8
0
100
AcDbLine
 10
16.525
 20
-22.075
 30
0.0
 11
16.525
 21
-35.075
 31
0.0
  0
ARC
  5
95
330
769
100
AcDbEntity
  8
0
100
AcDbCircle
 10
3.025
 20
-22.075
 30
0.0
 40
0.5
100
AcDbArc
 50
90.0
 51
180.0
  0
ARC
  5
96
330
769
100
AcDbEntity
  8
0
100
AcDbCircle
 10
16.025
 20
-22.075
 30
0.0
 40
0.5
100
AcDbArc
 50
0.0
 51
90.0
  0
ARC
  5
97
330
769
100
AcDbEntity
  8
0
100
AcDbCircle
 10
3.025
 20
-35.075
 30
0.0
 40
0.5
100
AcDbArc
 50
180.0
 51
270.0
  0
ARC
  5
98
330
769
100
AcDbEntity
  8
0
100
AcDbCircle
 10
16.025
 20
-35.075
 30
0.0
 40
0.5
100
AcDbArc
 50
270.0
 51
0.0
  0
LINE
  5
99
330
769
100
AcDbEntity
  8
0
100
AcDbLine
 10
22.075
 20
-21.575
 30
0.0
 11
35.075
 21
-21.575
 31
0.0
  0
LINE
  5
9A
330
769
100
AcDbEntity
  8
0
100
AcDbLine
 10
22.075
 20
-35.575
 30
0.0
 11
35.075
 21
-35.575
 31
0.0
  0
LINE
  5
9B
330
769
100
AcDbEntity
  8
0
100
AcDbLine
 10
21.575
 20
-22.075
 30
0.0
 11
21.575
 21
-35.075
 31
0.0
  0
LINE
  5
9C
330
769
100
AcDbEntity
  8
0
100
AcDbLine
 10
35.575
 20
-22.075
 30
0.0
 11
35.575
 21
-35.075
 31
0.0
  0
ARC
  5
9D
330
769
100
AcDbEntity
  8
0
100
AcDbCircle
 10
22.075
 20
-22.075
 30
0.0
 40
0.5
100
AcDbArc
 50
90.0
 51
180.0
  0
ARC
  5
9E
330
769
100
AcDbEntity
  8
0
100
AcDbCircle
 10
35.075
 20
-22.075
 30
0.0
 40
0.5
100
AcDbArc
 50
0.0
 51
90.0
  0
ARC
  5
9F
330
769
100
AcDbEntity
  8
0
100
AcDbCircle
 10
22.075
 20
-35.075
 30
0.0
 40
0.5
100
AcDbArc
 50
180.0
 51
270.0
  0
ARC
  5
A0
330
769
100
AcDbEntity
  8
0
100
AcDbCircle
 10
35.075
 20
-35.075
 30
0.0
 40
0.5
100
AcDbArc
 50
270.0
 51
0.0
  0
LINE
  5
A1
330
769
100
AcDbEntity
  8
0
100
AcDbLine
 10
41.125
 20
-21.575
 30
0.0
 11
54.125
 21
-21.575
 31
0.0
  0
LINE
  5
A2
330
769
100
AcDbEntity
  8
0
100
AcDbLine
 10
41.125
 20
-35.575
 30
0.0
 11
54.125
 21
-35.575
 31
0.0
  0
LINE
  5
A3
330
769
100
AcDbEntity
  8
0
100
AcDbLine
 10
40.625
 20
-22.075
 30
0.0
 11
40.625
 21
-35.075
 31
0.0
  0
LINE
  5
A4
330
769
100
AcDbEntity
  8
0
100
AcDbLine
 10
54.625
 20
-22.075
 30
0.0
 11
54.625
 21
-35.075
 31
0.0
  0
ARC
  5
A5
330
769
100
AcDbEntity
  8
0
100
AcDbCircle
 10
41.125
 20
-22.075
 30
0.0
 40
0.5
100
AcDbArc
 50
90.0
 51
180.0
  0
ARC
  5
A6
330
769
100
AcDbEntity
  8
0
100
AcDbCircle
 10
54.125
 20
-22.075
 30
0.0
 40
0.5
100
AcDbArc
 50
0.0
 51
90.0
  0
ARC
  5
A7
330
769
100
AcDbEntity
  8
0
100
AcDbCircle
 10
41.125
 20
-35.075
 30
0.0
 40
0.5
100
AcDbArc
 50
180.0
 51
270.0
  0
ARC
  5
A8
330
769
100
AcDbEntity
  8
0
100
AcDbCircle
 10
54.125
 20
-35.075
 30
0.0
 40
0.5
100
AcDbArc
 50
270.0
 51
0.0
  0
LINE
  5
A9
330
769
100
AcDbEntity
  8
0
100
AcDbLine
 10
60.175
 20
-21.575
 30
0.0
 11
73.175
 21
-21.575
 31
0.0
  0
LINE
  5
AA
330
769
100
AcDbEntity
  8
0
100
AcDbLine
 10
60.175
 20
-35.575
 30
0.0
 11
73.175
 21
-35.575
 31
0.0
  0
LINE
  5
AB
330
769
100
AcDbEntity
  8
0
100
AcDbLine
 10
59.675
 20
-22.075
 30
0.0
 11
59.675
 21
-35.075
 31
0.0
  0
LINE
  5
AC
330
769
100
AcDbEntity
  8
0
100
AcDbLine
 10
73.675
 20
-22.075
 30
0.0
 11
73.675
 21
-35.075
 31
0.0
  0
ARC
  5
AD
330
769
100
AcDbEntity
  8
0
100
AcDbCircle
 10
60.175
 20
-22.075
 30
0.0
 40
0.5
100
AcDbArc
 50
90.0
 51
180.0
  0
ARC
  5
AE
330
769
100
AcDbEntity
  8
0
100
AcDbCircle
 10
73.175
 20
-22.075
 30
0.0
 40
0.5
100
AcDbArc
 50
0.0
 51
90.0
  0
ARC
  5
AF
330
769
100
AcDbEntity
  8
0
100
AcDbCircle
 10
60.175
 20
-35.075
 30
0.0
 40
0.5
100
AcDbArc
 50
180.0
 51
270.0
  0
ARC
  5
B0
330
769
100
AcDbEntity
  8
0
100
AcDbCircle
 10
73.175
 20
-35.075
 30
0.0
 40
0.5
100
AcDbArc
 50
270.0
 51
0.0
  0
LINE
  5
B1
330
769
100
AcDbEntity
  8
0
100
AcDbLine
 10
79.225
 20
-21.575
 30
0.0
 11
92.225
 21
-21.575
 31
0.0
  0
LINE
  5
B2
330
769
100
AcDbEntity
  8
0
100
AcDbLine
 10
79.225
 20
-35.575
 30
0.0
 11
92.225
 21
-35.575
 31
0.0
  0
LINE
  5
B3
330
769
100
AcDbEntity
  8
0
100
AcDbLine
 10
78.725
 20
-22.075
 30
0.0
 11
78.725
 21
-35.075
 31
0.0
  0
LINE
  5
B4
330
769
100
AcDbEntity
  8
0
100
AcDbLine
 10
92.725
 20
-22.075
 30
0.0
 11
92.725
 21
-35.075
 31
0.0
  0
ARC
  5
B5
330
769
100
AcDbEntity
  8
0
100
AcDbCircle
 10
79.225
 20
-22.075
 30
0.0
 40
0.5
100
AcDbArc
 50
90.0
 51
180.0
  0
ARC
  5
B6
330
769
100
AcDbEntity
  8
0
100
AcDbCircle
 10
92.225
 20
-22.075
 30
0.0
 40
0.5
100
AcDbArc
 50
0.0
 51
90.0
  0
ARC
  5
B7
330
769
100
AcDbEntity
  8
0
100
AcDbCircle
 10
79.225
 20
-35.075
 30
0.0
 40
0.5
100
AcDbArc
 50
180.0
 51
270.0
  0
ARC
  5
B8
330
769
100
AcDbEntity
  8
0
100
AcDbCircle
 10
92.225
 20
-35.075
 30
0.0
 40
0.5
100
AcDbArc
 50
270.0
 51
0.0
  0
LINE
  5
B9
330
769
100
AcDbEntity
  8
0
100
AcDbLine
 10
212.575
 20
-21.575
 30
0.0
 11
225.575
 21
-21.575
 31
0.0
  0
LINE
  5
BA
330
769
100
AcDbEntity
  8
0
100
AcDbLine
 10
212.575
 20
-35.575
 30
0.0
 11
225.575
 21
-35.575
 31
0.0
  0
LINE
  5
BB
330
769
100
AcDbEntity
  8
0
100
AcDbLine
 10
212.075
 20
-22.075
 30
0.0
 11
212.075
 21
-35.075
 31
0.0
  0
LINE
  5
BC
330
769
100
AcDbEntity
  8
0
100
AcDbLine
 10
226.075
 20
-22.075
 30
0.0
 11
226.075
 21
-35.075
 31
0.0
  0
ARC
  5
BD
330
769
100
AcDbEntity
  8
0
100
AcDbCircle
 10
212.575
 20
-22.075
 30
0.0
 40
0.5
100
AcDbArc
 50
90.0
 51
180.0
  0
ARC
  5
BE
330
769
100
AcDbEntity
  8
0
100
AcDbCircle
 10
225.575
 20
-22.075
 30
0.0
 40
0.5
100
AcDbArc
 50
0.0
 51
90.0
  0
ARC
  5
BF
330
769
100
AcDbEntity
  8
0
100
AcDbCircle
 10
212.575
 20
-35.075
 30
0.0
 40
0.5
100
AcDbArc
 50
180.0
 51
270.0
  0
ARC
  5
C0
330
769
100
AcDbEntity
  8
0
100
AcDbCircle
 10
225.575
 20
-35.075
 30
0.0
 40
0.5
100
AcDbArc
 50
270.0
 51
0.0
  0
LINE
  5
C1
330
769
100
AcDbEntity
  8
0
100
AcDbLine
 10
231.625
 20
-21.575
 30
0.0
 11
244.625
 21
-21.575
 31
0.0
  0
LINE
  5
C2
330
769
100
AcDbEntity
  8
0
100
AcDbLine
 10
231.625
 20
-35.575
 30
0.0
 11
244.625
 21
-35.575
 31
0.0
  0
LINE
  5
C3
330
769
100
AcDbEntity
  8
0
100
AcDbLine
 10
231.125
 20
-22.075
 30
0.0
 11
231.125
 21
-35.075
 31
0.0
  0
LINE
  5
C4
330
769
100
AcDbEntity
  8
0
100
AcDbLine
 10
245.125
 20
-22.075
 30
0.0
 11
245.125
 21
-35.075
 31
0.0
  0
ARC
  5
C5
330
769
100
AcDbEntity
  8
0
100
AcDbCircle
 10
231.625
 20
-22.075
 30
0.0
 40
0.5
100
AcDbArc
 50
90.0
 51
180.0
  0
ARC
  5
C6
330
769
100
AcDbEntity
  8
0
100
AcDbCircle
 10
244.625
 20
-22.075
 30
0.0
 40
0.5
100
AcDbArc
 50
0.0
 51
90.0
  0
ARC
  5
C7
330
769
100
AcDbEntity
  8
0
100
AcDbCircle
 10
231.625
 20
-35.075
 30
0.0
 40
0.5
100
AcDbArc
 50
180.0
 51
270.0
  0
ARC
  5
C8
330
769
100
AcDbEntity
  8
0
100
AcDbCircle
 10
244.625
 20
-35.075
 30
0.0
 40
0.5
100
AcDbArc
 50
270.0
 51
0.0
  0
LINE
  5
C9
330
769
100
AcDbEntity
  8
0
100
AcDbLine
 10
250.675
 20
-21.575
 30
0.0
 11
263.675
 21
-21.575
 31
0.0
  0
LINE
  5
CA
330
769
100
AcDbEntity
  8
0
100
AcDbLine
 10
250.675
 20
-35.575
 30
0.0
 11
263.675
 21
-35.575
 31
0.0
  0
LINE
  5
CB
330
769
100
AcDbEntity
  8
0
100
AcDbLine
 10
250.175
 20
-22.075
 30
0.0
 11
250.175
 21
-35.075
 31
0.0
  0
LINE
  5
CC
330
769
100
AcDbEntity
  8
0
100
AcDbLine
 10
264.175
 20
-22.075
 30
0.0
 11
264.175
 21
-35.075
 31
0.0
  0
ARC
  5
CD
330
769
100
AcDbEntity
  8
0
100
AcDbCircle
 10
250.675
 20
-22.075
 30
0.0
 40
0.5
100
AcDbArc
 50
90.0
 51
180.0
  0
ARC
  5
CE
330
769
100
AcDbEntity
  8
0
100
AcDbCircle
 10
263.675
 20
-22.075
 30
0.0
 40
0.5
100
AcDbArc
 50
0.0
 51
90.0
  0
ARC
  5
CF
330
769
100
AcDbEntity
  8
0
100
AcDbCircle
 10
250.675
 20
-35.075
 30
0.0
 40
0.5
100
AcDbArc
 50
180.0
 51
270.0
  0
ARC
  5
D0
330
769
100
AcDbEntity
  8
0
100
AcDbCircle
 10
263.675
 20
-35.075
 30
0.0
 40
0.5
100
AcDbArc
 50
270.0
 51
0.0
  0
LINE
  5
D1
330
769
100
AcDbEntity
  8
0
100
AcDbLine
 10
269.725
 20
-21.575
 30
0.0
 11
282.725
 21
-21.575
 31
0.0
  0
LINE
  5
D2
330
769
100
AcDbEntity
  8
0
100
AcDbLine
 10
269.725
 20
-35.575
 30
0.0
 11
282.725
 21
-35.575
 31
0.0
  0
LINE
  5
D3
330
769
100
AcDbEntity
  8
0
100
AcDbLine
 10
269.225
 20
-22.075
 30
0.0
 11
269.225
 21
-35.075
 31
0.0
  0
LINE
  5
D4
330
769
100
AcDbEntity
  8
0
100
AcDbLine
 10
283.225
 20
-22.075
 30
0.0
 11
283.225
 21
-35.075
 31
0.0
  0
ARC
  5
D5
330
769
100
AcDbEntity
  8
0
100
AcDbCircle
 10
269.725
 20
-22.075
 30
0.0
 40
0.5
100
AcDbArc
 50
90.0
 51
180.0
  0
ARC
  5
D6
330
769
100
AcDbEntity
  8
0
100
AcDbCircle
 10
282.725
 20
-22.075
 30
0.0
 40
0.5
100
AcDbArc
 50
0.0
 51
90.0
  0
ARC
  5
D7
330
769
100
AcDbEntity
  8
0
100
AcDbCircle
 10
269.725
 20
-35.075
 30
0.0
 40
0.5
100
AcDbArc
 50
180.0
 51
270.0
  0
ARC
  5
D8
330
769
100
AcDbEntity
  8
0
100
AcDbCircle
 10
282.725
 20
-35.075
 30
0.0
 40
0.5
100
AcDbArc
 50
270.0
 51
0.0
  0
LINE
  5
D9
330
769
100
AcDbEntity
  8
0
100
AcDbLine
 10
288.775
 20
-21.575
 30
0.0
 11
301.775
 21
-21.575
 31
0.0
  0
LINE
  5
DA
330
769
100
AcDbEntity
  8
0
100
AcDbLine
 10
288.775
 20
-35.575
 30
0.0
 11
301.775
 21
-35.575
 31
0.0
  0
LINE
  5
DB
330
769
100
AcDbEntity
  8
0
100
AcDbLine
 10
288.275
 20
-22.075
 30
0.0
 11
288.275
 21
-35.075
 31
0.0
  0
LINE
  5
DC
330
769
100
AcDbEntity
  8
0
100
AcDbLine
 10
302.275
 20
-22.075
 30
0.0
 11
302.275
 21
-35.075
 31
0.0
  0
ARC
  5
DD
330
769
100
AcDbEntity
  8
0
100
AcDbCircle
 10
288.775
 20
-22.075
 30
0.0
 40
0.5
100
AcDbArc
 50
90.0
 51
180.0
  0
ARC
  5
DE
330
769
100
AcDbEntity
  8
0
100
AcDbCircle
 10
301.775
 20
-22.075
 30
0.0
 40
0.5
100
AcDbArc
 50
0.0
 51
90.0
  0
ARC
  5
DF
330
769
100
AcDbEntity
  8
0
100
AcDbCircle
 10
288.775
 20
-35.075
 30
0.0
 40
0.5
100
AcDbArc
 50
180.0
 51
270.0
  0
ARC
  5
E0
330
769
100
AcDbEntity
  8
0
100
AcDbCircle
 10
301.775
 20
-35.075
 30
0.0
 40
0.5
100
AcDbArc
 50
270.0
 51
0.0
  0
LINE
  5
E1
330
769
100
AcDbEntity
  8
0
100
AcDbLine
 10
3.025
 20
-40.625
 30
0.0
 11
16.025
 21
-40.625
 31
0.0
  0
LINE
  5
E2
330
769
100
AcDbEntity
  8
0
100
AcDbLine
 10
3.025
 20
-54.625
 30
0.0
 11
16.025
 21
-54.625
 31
0.0
  0
LINE
  5
E3
330
769
100
AcDbEntity
  8
0
100
AcDbLine
 10
2.525
 20
-41.125
 30
0.0
 11
2.525
 21
-54.125
 31
0.0
  0
LINE
  5
E4
330
769
100
AcDbEntity
  8
0
100
AcDbLine
 10
16.525
 20
-41.125
 30
0.0
 11
16.525
 21
-54.125
 31
0.0
  0
ARC
  5
E5
330
769
100
AcDbEntity
  8
0
100
AcDbCircle
 10
3.025
 20
-41.125
 30
0.0
 40
0.5
100
AcDbArc
 50
90.0
 51
180.0
  0
ARC
  5
E6
330
769
100
AcDbEntity
  8
0
100
AcDbCircle
 10
16.025
 20
-41.125
 30
0.0
 40
0.5
100
AcDbArc
 50
0.0
 51
90.0
  0
ARC
  5
E7
330
769
100
AcDbEntity
  8
0
100
AcDbCircle
 10
3.025
 20
-54.125
 30
0.0
 40
0.5
100
AcDbArc
 50
180.0
 51
270.0
  0
ARC
  5
E8
330
769
100
AcDbEntity
  8
0
100
AcDbCircle
 10
16.025
 20
-54.125
 30
0.0
 40
0.5
100
AcDbArc
 50
270.0
 51
0.0
  0
LINE
  5
E9
330
769
100
AcDbEntity
  8
0
100
AcDbLine
 10
22.075
 20
-40.625
 30
0.0
 11
35.075
 21
-40.625
 31
0.0
  0
LINE
  5
EA
330
769
100
AcDbEntity
  8
0
100
AcDbLine
 10
22.075
 20
-54.625
 30
0.0
 11
35.075
 21
-54.625
 31
0.0
  0
LINE
  5
EB
330
769
100
AcDbEntity
  8
0
100
AcDbLine
 10
21.575
 20
-41.125
 30
0.0
 11
21.575
 21
-54.125
 31
0.0
  0
LINE
  5
EC
330
769
100
AcDbEntity
  8
0
100
AcDbLine
 10
35.575
 20
-41.125
 30
0.0
 11
35.575
 21
-54.125
 31
0.0
  0
ARC
  5
ED
330
769
100
AcDbEntity
  8
0
100
AcDbCircle
 10
22.075
 20
-41.125
 30
0.0
 40
0.5
100
AcDbArc
 50
90.0
 51
180.0
  0
ARC
  5
EE
330
769
100
AcDbEntity
  8
0
100
AcDbCircle
 10
35.075
 20
-41.125
 30
0.0
 40
0.5
100
AcDbArc
 50
0.0
 51
90.0
  0
ARC
  5
EF
330
769
100
AcDbEntity
  8
0
100
AcDbCircle
 10
22.075
 20
-54.125
 30
0.0
 40
0.5
100
AcDbArc
 50
180.0
 51
270.0
  0
ARC
  5
F0
330
769
100
AcDbEntity
  8
0
100
AcDbCircle
 10
35.075
 20
-54.125
 30
0.0
 40
0.5
100
AcDbArc
 50
270.0
 51
0.0
  0
LINE
  5
F1
330
769
100
AcDbEntity
  8
0
100
AcDbLine
 10
41.125
 20
-40.625
 30
0.0
 11
54.125
 21
-40.625
 31
0.0
  0
LINE
  5
F2
330
769
100
AcDbEntity
  8
0
100
AcDbLine
 10
41.125
 20
-54.625
 30
0.0
 11
54.125
 21
-54.625
 31
0.0
  0
LINE
  5
F3
330
769
100
AcDbEntity
  8
0
100
AcDbLine
 10
40.625
 20
-41.125
 30
0.0
 11
40.625
 21
-54.125
 31
0.0
  0
LINE
  5
F4
330
769
100
AcDbEntity
  8
0
100
AcDbLine
 10
54.625
 20
-41.125
 30
0.0
 11
54.625
 21
-54.125
 31
0.0
  0
ARC
  5
F5
330
769
100
AcDbEntity
  8
0
100
AcDbCircle
 10
41.125
 20
-41.125
 30
0.0
 40
0.5
100
AcDbArc
 50
90.0
 51
180.0
  0
ARC
  5
F6
330
769
100
AcDbEntity
  8
0
100
AcDbCircle
 10
54.125
 20
-41.125
 30
0.0
 40
0.5
100
AcDbArc
 50
0.0
 51
90.0
  0
ARC
  5
F7
330
769
100
AcDbEntity
  8
0
100
AcDbCircle
 10
41.125
 20
-54.125
 30
0.0
 40
0.5
100
AcDbArc
 50
180.0
 51
270.0
  0
ARC
  5
F8
330
769
100
AcDbEntity
  8
0
100
AcDbCircle
 10
54.125
 20
-54.125
 30
0.0
 40
0.5
100
AcDbArc
 50
270.0
 51
0.0
  0
LINE
  5
F9
330
769
100
AcDbEntity
  8
0
100
AcDbLine
 10
60.175
 20
-40.625
 30
0.0
 11
73.175
 21
-40.625
 31
0.0
  0
LINE
  5
FA
330
769
100
AcDbEntity
  8
0
100
AcDbLine
 10
60.175
 20
-54.625
 30
0.0
 11
73.175
 21
-54.625
 31
0.0
  0
LINE
  5
FB
330
769
100
AcDbEntity
  8
0
100
AcDbLine
 10
59.675
 20
-41.125
 30
0.0
 11
59.675
 21
-54.125
 31
0.0
  0
LINE
  5
FC
330
769
100
AcDbEntity
  8
0
100
AcDbLine
 10
73.675
 20
-41.125
 30
0.0
 11
73.675
 21
-54.125
 31
0.0
  0
ARC
  5
FD
330
769
100
AcDbEntity
  8
0
100
AcDbCircle
 10
60.175
 20
-41.125
 30
0.0
 40
0.5
100
AcDbArc
 50
90.0
 51
180.0
  0
ARC
  5
FE
330
769
100
AcDbEntity
  8
0
100
AcDbCircle
 10
73.175
 20
-41.125
 30
0.0
 40
0.5
100
AcDbArc
 50
0.0
 51
90.0
  0
ARC
  5
FF
330
769
100
AcDbEntity
  8
0
100
AcDbCircle
 10
60.175
 20
-54.125
 30
0.0
 40
0.5
100
AcDbArc
 50
180.0
 51
270.0
  0
ARC
  5
100
330
769
100
AcDbEntity
  8
0
100
AcDbCircle
 10
73.175
 20
-54.125
 30
0.0
 40
0.5
100
AcDbArc
 50
270.0
 51
0.0
  0
LINE
  5
101
330
769
100
AcDbEntity
  8
0
100
AcDbLine
 10
79.225
 20
-40.625
 30
0.0
 11
92.225
 21
-40.625
 31
0.0
  0
LINE
  5
102
330
769
100
AcDbEntity
  8
0
100
AcDbLine
 10
79.225
 20
-54.625
 30
0.0
 11
92.225
 21
-54.625
 31
0.0
  0
LINE
  5
103
330
769
100
AcDbEntity
  8
0
100
AcDbLine
 10
78.725
 20
-41.125
 30
0.0
 11
78.725
 21
-54.125
 31
0.0
  0
LINE
  5
104
330
769
100
AcDbEntity
  8
0
100
AcDbLine
 10
92.725
 20
-41.125
 30
0.0
 11
92.725
 21
-54.125
 31
0.0
  0
ARC
  5
105
330
769
100
AcDbEntity
  8
0
100
AcDbCircle
 10
79.225
 20
-41.125
 30
0.0
 40
0.5
100
AcDbArc
 50
90.0
 51
180.0
  0
ARC
  5
106
330
769
100
AcDbEntity
  8
0
100
AcDbCircle
 10
92.225
 20
-41.125
 30
0.0
 40
0.5
100
AcDbArc
 50
0.0
 51
90.0
  0
ARC
  5
107
330
769
100
AcDbEntity
  8
0
100
AcDbCircle
 10
79.225
 20
-54.125
 30
0.0
 40
0.5
100
AcDbArc
 50
180.0
 51
270.0
  0
ARC
  5
108
330
769
100
AcDbEntity
  8
0
100
AcDbCircle
 10
92.225
 20
-54.125
 30
0.0
 40
0.5
100
AcDbArc
 50
270.0
 51
0.0
  0
LINE
  5
109
330
769
100
AcDbEntity
  8
0
100
AcDbLine
 10
212.575
 20
-40.625
 30
0.0
 11
225.575
 21
-40.625
 31
0.0
  0
LINE
  5
10A
330
769
100
AcDbEntity
  8
0
100
AcDbLine
 10
212.575
 20
-54.625
 30
0.0
 11
225.575
 21
-54.625
 31
0.0
  0
LINE
  5
10B
330
769
100
AcDbEntity
  8
0
100
AcDbLine
 10
212.075
 20
-41.125
 30
0.0
 11
212.075
 21
-54.125
 31
0.0
  0
LINE
  5
10C
330
769
100
AcDbEntity
  8
0
100
AcDbLine
 10
226.075
 20
-41.125
 30
0.0
 11
226.075
 21
-54.125
 31
0.0
  0
ARC
  5
10D
330
769
100
AcDbEntity
  8
0
100
AcDbCircle
 10
212.575
 20
-41.125
 30
0.0
 40
0.5
100
AcDbArc
 50
90.0
 51
180.0
  0
ARC
  5
10E
330
769
100
AcDbEntity
  8
0
100
AcDbCircle
 10
225.575
 20
-41.125
 30
0.0
 40
0.5
100
AcDbArc
 50
0.0
 51
90.0
  0
ARC
  5
10F
330
769
100
AcDbEntity
  8
0
100
AcDbCircle
 10
212.575
 20
-54.125
 30
0.0
 40
0.5
100
AcDbArc
 50
180.0
 51
270.0
  0
ARC
  5
110
330
769
100
AcDbEntity
  8
0
100
AcDbCircle
 10
225.575
 20
-54.125
 30
0.0
 40
0.5
100
AcDbArc
 50
270.0
 51
0.0
  0
LINE
  5
111
330
769
100
AcDbEntity
  8
0
100
AcDbLine
 10
231.625
 20
-40.625
 30
0.0
 11
244.625
 21
-40.625
 31
0.0
  0
LINE
  5
112
330
769
100
AcDbEntity
  8
0
100
AcDbLine
 10
231.625
 20
-54.625
 30
0.0
 11
244.625
 21
-54.625
 31
0.0
  0
LINE
  5
113
330
769
100
AcDbEntity
  8
0
100
AcDbLine
 10
231.125
 20
-41.125
 30
0.0
 11
231.125
 21
-54.125
 31
0.0
  0
LINE
  5
114
330
769
100
AcDbEntity
  8
0
100
AcDbLine
 10
245.125
 20
-41.125
 30
0.0
 11
245.125
 21
-54.125
 31
0.0
  0
ARC
  5
115
330
769
100
AcDbEntity
  8
0
100
AcDbCircle
 10
231.625
 20
-41.125
 30
0.0
 40
0.5
100
AcDbArc
 50
90.0
 51
180.0
  0
ARC
  5
116
330
769
100
AcDbEntity
  8
0
100
AcDbCircle
 10
244.625
 20
-41.125
 30
0.0
 40
0.5
100
AcDbArc
 50
0.0
 51
90.0
  0
ARC
  5
117
330
769
100
AcDbEntity
  8
0
100
AcDbCircle
 10
231.625
 20
-54.125
 30
0.0
 40
0.5
100
AcDbArc
 50
180.0
 51
270.0
  0
ARC
  5
118
330
769
100
AcDbEntity
  8
0
100
AcDbCircle
 10
244.625
 20
-54.125
 30
0.0
 40
0.5
100
AcDbArc
 50
270.0
 51
0.0
  0
LINE
  5
119
330
769
100
AcDbEntity
  8
0
100
AcDbLine
 10
250.675
 20
-40.625
 30
0.0
 11
263.675
 21
-40.625
 31
0.0
  0
LINE
  5
11A
330
769
100
AcDbEntity
  8
0
100
AcDbLine
 10
250.675
 20
-54.625
 30
0.0
 11
263.675
 21
-54.625
 31
0.0
  0
LINE
  5
11B
330
769
100
AcDbEntity
  8
0
100
AcDbLine
 10
250.175
 20
-41.125
 30
0.0
 11
250.175
 21
-54.125
 31
0.0
  0
LINE
  5
11C
330
769
100
AcDbEntity
  8
0
100
AcDbLine
 10
264.175
 20
-41.125
 30
0.0
 11
264.175
 21
-54.125
 31
0.0
  0
ARC
  5
11D
330
769
100
AcDbEntity
  8
0
100
AcDbCircle
 10
250.675
 20
-41.125
 30
0.0
 40
0.5
100
AcDbArc
 50
90.0
 51
180.0
  0
ARC
  5
11E
330
769
100
AcDbEntity
  8
0
100
AcDbCircle
 10
263.675
 20
-41.125
 30
0.0
 40
0.5
100
AcDbArc
 50
0.0
 51
90.0
  0
ARC
  5
11F
330
769
100
AcDbEntity
  8
0
100
AcDbCircle
 10
250.675
 20
-54.125
 30
0.0
 40
0.5
100
AcDbArc
 50
180.0
 51
270.0
  0
ARC
  5
120
330
769
100
AcDbEntity
  8
0
100
AcDbCircle
 10
263.675
 20
-54.125
 30
0.0
 40
0.5
100
AcDbArc
 50
270.0
 51
0.0
  0
LINE
  5
121
330
769
100
AcDbEntity
  8
0
100
AcDbLine
 10
269.725
 20
-40.625
 30
0.0
 11
282.725
 21
-40.625
 31
0.0
  0
LINE
  5
122
330
769
100
AcDbEntity
  8
0
100
AcDbLine
 10
269.725
 20
-54.625
 30
0.0
 11
282.725
 21
-54.625
 31
0.0
  0
LINE
  5
123
330
769
100
AcDbEntity
  8
0
100
AcDbLine
 10
269.225
 20
-41.125
 30
0.0
 11
269.225
 21
-54.125
 31
0.0
  0
LINE
  5
124
330
769
100
AcDbEntity
  8
0
100
AcDbLine
 10
283.225
 20
-41.125
 30
0.0
 11
283.225
 21
-54.125
 31
0.0
  0
ARC
  5
125
330
769
100
AcDbEntity
  8
0
100
AcDbCircle
 10
269.725
 20
-41.125
 30
0.0
 40
0.5
100
AcDbArc
 50
90.0
 51
180.0
  0
ARC
  5
126
330
769
100
AcDbEntity
  8
0
100
AcDbCircle
 10
282.725
 20
-41.125
 30
0.0
 40
0.5
100
AcDbArc
 50
0.0
 51
90.0
  0
ARC
  5
127
330
769
100
AcDbEntity
  8
0
100
AcDbCircle
 10
269.725
 20
-54.125
 30
0.0
 40
0.5
100
AcDbArc
 50
180.0
 51
270.0
  0
ARC
  5
128
330
769
100
AcDbEntity
  8
0
100
AcDbCircle
 10
282.725
 20
-54.125
 30
0.0
 40
0.5
100
AcDbArc
 50
270.0
 51
0.0
  0
LINE
  5
129
330
769
100
AcDbEntity
  8
0
100
AcDbLine
 10
288.775
 20
-40.625
 30
0.0
 11
301.775
 21
-40.625
 31
0.0
  0
LINE
  5
12A
330
769
100
AcDbEntity
  8
0
100
AcDbLine
 10
288.775
 20
-54.625
 30
0.0
 11
301.775
 21
-54.625
 31
0.0
  0
LINE
  5
12B
330
769
100
AcDbEntity
  8
0
100
AcDbLine
 10
288.275
 20
-41.125
 30
0.0
 11
288.275
 21
-54.125
 31
0.0
  0
LINE
  5
12C
330
769
100
AcDbEntity
  8
0
100
AcDbLine
 10
302.275
 20
-41.125
 30
0.0
 11
302.275
 21
-54.125
 31
0.0
  0
ARC
  5
12D
330
769
100
AcDbEntity
  8
0
100
AcDbCircle
 10
288.775
 20
-41.125
 30
0.0
 40
0.5
100
AcDbArc
 50
90.0
 51
180.0
  0
ARC
  5
12E
330
769
100
AcDbEntity
  8
0
100
AcDbCircle
 10
301.775
 20
-41.125
 30
0.0
 40
0.5
100
AcDbArc
 50
0.0
 51
90.0
  0
ARC
  5
12F
330
769
100
AcDbEntity
  8
0
100
AcDbCircle
 10
288.775
 20
-54.125
 30
0.0
 40
0.5
100
AcDbArc
 50
180.0
 51
270.0
  0
ARC
  5
130
330
769
100
AcDbEntity
  8
0
100
AcDbCircle
 10
301.775
 20
-54.125
 30
0.0
 40
0.5
100
AcDbArc
 50
270.0
 51
0.0
  0
LINE
  5
131
330
769
100
AcDbEntity
  8
0
100
AcDbLine
 10
3.025
 20
-59.675
 30
0.0
 11
16.025
 21
-59.675
 31
0.0
  0
LINE
  5
132
330
769
100
AcDbEntity
  8
0
100
AcDbLine
 10
3.025
 20
-73.675
 30
0.0
 11
16.025
 21
-73.675
 31
0.0
  0
LINE
  5
133
330
769
100
AcDbEntity
  8
0
100
AcDbLine
 10
2.525
 20
-60.175
 30
0.0
 11
2.525
 21
-73.175
 31
0.0
  0
LINE
  5
134
330
769
100
AcDbEntity
  8
0
100
AcDbLine
 10
16.525
 20
-60.175
 30
0.0
 11
16.525
 21
-73.175
 31
0.0
  0
ARC
  5
135
330
769
100
AcDbEntity
  8
0
100
AcDbCircle
 10
3.025
 20
-60.175
 30
0.0
 40
0.5
100
AcDbArc
 50
90.0
 51
180.0
  0
ARC
  5
136
330
769
100
AcDbEntity
  8
0
100
AcDbCircle
 10
16.025
 20
-60.175
 30
0.0
 40
0.5
100
AcDbArc
 50
0.0
 51
90.0
  0
ARC
  5
137
330
769
100
AcDbEntity
  8
0
100
AcDbCircle
 10
3.025
 20
-73.175
 30
0.0
 40
0.5
100
AcDbArc
 50
180.0
 51
270.0
  0
ARC
  5
138
330
769
100
AcDbEntity
  8
0
100
AcDbCircle
 10
16.025
 20
-73.175
 30
0.0
 40
0.5
100
AcDbArc
 50
270.0
 51
0.0
  0
LINE
  5
139
330
769
100
AcDbEntity
  8
0
100
AcDbLine
 10
22.075
 20
-59.675
 30
0.0
 11
35.075
 21
-59.675
 31
0.0
  0
LINE
  5
13A
330
769
100
AcDbEntity
  8
0
100
AcDbLine
 10
22.075
 20
-73.675
 30
0.0
 11
35.075
 21
-73.675
 31
0.0
  0
LINE
  5
13B
330
769
100
AcDbEntity
  8
0
100
AcDbLine
 10
21.575
 20
-60.175
 30
0.0
 11
21.575
 21
-73.175
 31
0.0
  0
LINE
  5
13C
330
769
100
AcDbEntity
  8
0
100
AcDbLine
 10
35.575
 20
-60.175
 30
0.0
 11
35.575
 21
-73.175
 31
0.0
  0
ARC
  5
13D
330
769
100
AcDbEntity
  8
0
100
AcDbCircle
 10
22.075
 20
-60.175
 30
0.0
 40
0.5
100
AcDbArc
 50
90.0
 51
180.0
  0
ARC
  5
13E
330
769
100
AcDbEntity
  8
0
100
AcDbCircle
 10
35.075
 20
-60.175
 30
0.0
 40
0.5
100
AcDbArc
 50
0.0
 51
90.0
  0
ARC
  5
13F
330
769
100
AcDbEntity
  8
0
100
AcDbCircle
 10
22.075
 20
-73.175
 30
0.0
 40
0.5
100
AcDbArc
 50
180.0
 51
270.0
  0
ARC
  5
140
330
769
100
AcDbEntity
  8
0
100
AcDbCircle
 10
35.075
 20
-73.175
 30
0.0
 40
0.5
100
AcDbArc
 50
270.0
 51
0.0
  0
LINE
  5
141
330
769
100
AcDbEntity
  8
0
100
AcDbLine
 10
41.125
 20
-59.675
 30
0.0
 11
54.125
 21
-59.675
 31
0.0
  0
LINE
  5
142
330
769
100
AcDbEntity
  8
0
100
AcDbLine
 10
41.125
 20
-73.675
 30
0.0
 11
54.125
 21
-73.675
 31
0.0
  0
LINE
  5
143
330
769
100
AcDbEntity
  8
0
100
AcDbLine
 10
40.625
 20
-60.175
 30
0.0
 11
40.625
 21
-73.175
 31
0.0
  0
LINE
  5
144
330
769
100
AcDbEntity
  8
0
100
AcDbLine
 10
54.625
 20
-60.175
 30
0.0
 11
54.625
 21
-73.175
 31
0.0
  0
ARC
  5
145
330
769
100
AcDbEntity
  8
0
100
AcDbCircle
 10
41.125
 20
-60.175
 30
0.0
 40
0.5
100
AcDbArc
 50
90.0
 51
180.0
  0
ARC
  5
146
330
769
100
AcDbEntity
  8
0
100
AcDbCircle
 10
54.125
 20
-60.175
 30
0.0
 40
0.5
100
AcDbArc
 50
0.0
 51
90.0
  0
ARC
  5
147
330
769
100
AcDbEntity
  8
0
100
AcDbCircle
 10
41.125
 20
-73.175
 30
0.0
 40
0.5
100
AcDbArc
 50
180.0
 51
270.0
  0
ARC
  5
148
330
769
100
AcDbEntity
  8
0
100
AcDbCircle
 10
54.125
 20
-73.175
 30
0.0
 40
0.5
100
AcDbArc
 50
270.0
 51
0.0
  0
LINE
  5
149
330
769
100
AcDbEntity
  8
0
100
AcDbLine
 10
60.175
 20
-59.675
 30
0.0
 11
73.175
 21
-59.675
 31
0.0
  0
LINE
  5
14A
330
769
100
AcDbEntity
  8
0
100
AcDbLine
 10
60.175
 20
-73.675
 30
0.0
 11
73.175
 21
-73.675
 31
0.0
  0
LINE
  5
14B
330
769
100
AcDbEntity
  8
0
100
AcDbLine
 10
59.675
 20
-60.175
 30
0.0
 11
59.675
 21
-73.175
 31
0.0
  0
LINE
  5
14C
330
769
100
AcDbEntity
  8
0
100
AcDbLine
 10
73.675
 20
-60.175
 30
0.0
 11
73.675
 21
-73.175
 31
0.0
  0
ARC
  5
14D
330
769
100
AcDbEntity
  8
0
100
AcDbCircle
 10
60.175
 20
-60.175
 30
0.0
 40
0.5
100
AcDbArc
 50
90.0
 51
180.0
  0
ARC
  5
14E
330
769
100
AcDbEntity
  8
0
100
AcDbCircle
 10
73.175
 20
-60.175
 30
0.0
 40
0.5
100
AcDbArc
 50
0.0
 51
90.0
  0
ARC
  5
14F
330
769
100
AcDbEntity
  8
0
100
AcDbCircle
 10
60.175
 20
-73.175
 30
0.0
 40
0.5
100
AcDbArc
 50
180.0
 51
270.0
  0
ARC
  5
150
330
769
100
AcDbEntity
  8
0
100
AcDbCircle
 10
73.175
 20
-73.175
 30
0.0
 40
0.5
100
AcDbArc
 50
270.0
 51
0.0
  0
LINE
  5
151
330
769
100
AcDbEntity
  8
0
100
AcDbLine
 10
79.225
 20
-59.675
 30
0.0
 11
92.225
 21
-59.675
 31
0.0
  0
LINE
  5
152
330
769
100
AcDbEntity
  8
0
100
AcDbLine
 10
79.225
 20
-73.675
 30
0.0
 11
92.225
 21
-73.675
 31
0.0
  0
LINE
  5
153
330
769
100
AcDbEntity
  8
0
100
AcDbLine
 10
78.725
 20
-60.175
 30
0.0
 11
78.725
 21
-73.175
 31
0.0
  0
LINE
  5
154
330
769
100
AcDbEntity
  8
0
100
AcDbLine
 10
92.725
 20
-60.175
 30
0.0
 11
92.725
 21
-73.175
 31
0.0
  0
ARC
  5
155
330
769
100
AcDbEntity
  8
0
100
AcDbCircle
 10
79.225
 20
-60.175
 30
0.0
 40
0.5
100
AcDbArc
 50
90.0
 51
180.0
  0
ARC
  5
156
330
769
100
AcDbEntity
  8
0
100
AcDbCircle
 10
92.225
 20
-60.175
 30
0.0
 40
0.5
100
AcDbArc
 50
0.0
 51
90.0
  0
ARC
  5
157
330
769
100
AcDbEntity
  8
0
100
AcDbCircle
 10
79.225
 20
-73.175
 30
0.0
 40
0.5
100
AcDbArc
 50
180.0
 51
270.0
  0
ARC
  5
158
330
769
100
AcDbEntity
  8
0
100
AcDbCircle
 10
92.225
 20
-73.175
 30
0.0
 40
0.5
100
AcDbArc
 50
270.0
 51
0.0
  0
LINE
  5
159
330
769
100
AcDbEntity
  8
0
100
AcDbLine
 10
98.275
 20
-59.675
 30
0.0
 11
111.275
 21
-59.675
 31
0.0
  0
LINE
  5
15A
330
769
100
AcDbEntity
  8
0
100
AcDbLine
 10
98.275
 20
-73.675
 30
0.0
 11
111.275
 21
-73.675
 31
0.0
  0
LINE
  5
15B
330
769
100
AcDbEntity
  8
0
100
AcDbLine
 10
97.775
 20
-60.175
 30
0.0
 11
97.775
 21
-73.175
 31
0.0
  0
LINE
  5
15C
330
769
100
AcDbEntity
  8
0
100
AcDbLine
 10
111.775
 20
-60.175
 30
0.0
 11
111.775
 21
-73.175
 31
0.0
  0
ARC
  5
15D
330
769
100
AcDbEntity
  8
0
100
AcDbCircle
 10
98.275
 20
-60.175
 30
0.0
 40
0.5
100
AcDbArc
 50
90.0
 51
180.0
  0
ARC
  5
15E
330
769
100
AcDbEntity
  8
0
100
AcDbCircle
 10
111.275
 20
-60.175
 30
0.0
 40
0.5
100
AcDbArc
 50
0.0
 51
90.0
  0
ARC
  5
15F
330
769
100
AcDbEntity
  8
0
100
AcDbCircle
 10
98.275
 20
-73.175
 30
0.0
 40
0.5
100
AcDbArc
 50
180.0
 51
270.0
  0
ARC
  5
160
330
769
100
AcDbEntity
  8
0
100
AcDbCircle
 10
111.275
 20
-73.175
 30
0.0
 40
0.5
100
AcDbArc
 50
270.0
 51
0.0
  0
LINE
  5
161
330
769
100
AcDbEntity
  8
0
100
AcDbLine
 10
137.96875
 20
-69.7
 30
0.0
 11
137.96875
 21
-82.7
 31
0.0
  0
LINE
  5
162
330
769
100
AcDbEntity
  8
0
100
AcDbLine
 10
123.96875
 20
-69.7
 30
0.0
 11
123.96875
 21
-82.7
 31
0.0
  0
LINE
  5
163
330
769
100
AcDbEntity
  8
0
100
AcDbLine
 10
137.46875
 20
-69.2
 30
0.0
 11
124.46875
 21
-69.2
 31
0.0
  0
LINE
  5
164
330
769
100
AcDbEntity
  8
0
100
AcDbLine
 10
137.46875
 20
-83.2
 30
0.0
 11
124.46875
 21
-83.2
 31
0.0
  0
ARC
  5
165
330
769
100
AcDbEntity
  8
0
100
AcDbCircle
 10
137.46875
 20
-69.7
 30
0.0
 40
0.5
100
AcDbArc
 50
0.0
 51
90.0
  0
ARC
  5
166
330
769
100
AcDbEntity
  8
0
100
AcDbCircle
 10
137.46875
 20
-82.7
 30
0.0
 40
0.5
100
AcDbArc
 50
270.0
 51
0.0
  0
ARC
  5
167
330
769
100
AcDbEntity
  8
0
100
AcDbCircle
 10
124.46875
 20
-69.7
 30
0.0
 40
0.5
100
AcDbArc
 50
90.0
 51
180.0
  0
ARC
  5
168
330
769
100
AcDbEntity
  8
0
100
AcDbCircle
 10
124.46875
 20
-82.7
 30
0.0
 40
0.5
100
AcDbArc
 50
180.0
 51
270.0
  0
LINE
  5
169
330
769
100
AcDbEntity
  8
0
100
AcDbLine
 10
136.96875
 20
-61.262
 30
0.0
 11
136.96875
 21
-67.262
 31
0.0
  0
LINE
  5
16A
330
769
100
AcDbEntity
  8
0
100
AcDbLine
 10
121.96875
 20
-61.262
 30
0.0
 11
121.96875
 21
-67.262
 31
0.0
  0
LINE
  5
16B
330
769
100
AcDbEntity
  8
0
100
AcDbLine
 10
136.46875
 20
-60.762
 30
0.0
 11
122.46875
 21
-60.762
 31
0.0
  0
LINE
  5
16C
330
769
100
AcDbEntity
  8
0
100
AcDbLine
 10
136.46875
 20
-67.762
 30
0.0
 11
122.46875
 21
-67.762
 31
0.0
  0
ARC
  5
16D
330
769
100
AcDbEntity
  8
0
100
AcDbCircle
 10
136.46875
 20
-61.262
 30
0.0
 40
0.5
100
AcDbArc
 50
0.0
 51
90.0
  0
ARC
  5
16E
330
769
100
AcDbEntity
  8
0
100
AcDbCircle
 10
136.46875
 20
-67.262
 30
0.0
 40
0.5
100
AcDbArc
 50
270.0
 51
0.0
  0
ARC
  5
16F
330
769
100
AcDbEntity
  8
0
100
AcDbCircle
 10
122.46875
 20
-61.262
 30
0.0
 40
0.5
100
AcDbArc
 50
90.0
 51
180.0
  0
ARC
  5
170
330
769
100
AcDbEntity
  8
0
100
AcDbCircle
 10
122.46875
 20
-67.262
 30
0.0
 40
0.5
100
AcDbArc
 50
180.0
 51
270.0
  0
LINE
  5
171
330
769
100
AcDbEntity
  8
0
100
AcDbLine
 10
136.96875
 20
-85.138
 30
0.0
 11
136.96875
 21
-91.138
 31
0.0
  0
LINE
  5
172
330
769
100
AcDbEntity
  8
0
100
AcDbLine
 10
121.96875
 20
-85.138
 30
0.0
 11
121.96875
 21
-91.138
 31
0.0
  0
LINE
  5
173
330
769
100
AcDbEntity
  8
0
100
AcDbLine
 10
136.46875
 20
-84.638
 30
0.0
 11
122.46875
 21
-84.638
 31
0.0
  0
LINE
  5
174
330
769
100
AcDbEntity
  8
0
100
AcDbLine
 10
136.46875
 20
-91.638
 30
0.0
 11
122.46875
 21
-91.638
 31
0.0
  0
ARC
  5
175
330
769
100
AcDbEntity
  8
0
100
AcDbCircle
 10
136.46875
 20
-85.138
 30
0.0
 40
0.5
100
AcDbArc
 50
0.0
 51
90.0
  0
ARC
  5
176
330
769
100
AcDbEntity
  8
0
100
AcDbCircle
 10
136.46875
 20
-91.138
 30
0.0
 40
0.5
100
AcDbArc
 50
270.0
 51
0.0
  0
ARC
  5
177
330
769
100
AcDbEntity
  8
0
100
AcDbCircle
 10
122.46875
 20
-85.138
 30
0.0
 40
0.5
100
AcDbArc
 50
90.0
 51
180.0
  0
ARC
  5
178
330
769
100
AcDbEntity
  8
0
100
AcDbCircle
 10
122.46875
 20
-91.138
 30
0.0
 40
0.5
100
AcDbArc
 50
180.0
 51
270.0
  0
LINE
  5
179
330
769
100
AcDbEntity
  8
0
100
AcDbLine
 10
193.525
 20
-59.675
 30
0.0
 11
206.525
 21
-59.675
 31
0.0
  0
LINE
  5
17A
330
769
100
AcDbEntity
  8
0
100
AcDbLine
 10
193.525
 20
-73.675
 30
0.0
 11
206.525
 21
-73.675
 31
0.0
  0
LINE
  5
17B
330
769
100
AcDbEntity
  8
0
100
AcDbLine
 10
193.025
 20
-60.175
 30
0.0
 11
193.025
 21
-73.175
 31
0.0
  0
LINE
  5
17C
330
769
100
AcDbEntity
  8
0
100
AcDbLine
 10
207.025
 20
-60.175
 30
0.0
 11
207.025
 21
-73.175
 31
0.0
  0
ARC
  5
17D
330
769
100
AcDbEntity
  8
0
100
AcDbCircle
 10
193.525
 20
-60.175
 30
0.0
 40
0.5
100
AcDbArc
 50
90.0
 51
180.0
  0
ARC
  5
17E
330
769
100
AcDbEntity
  8
0
100
AcDbCircle
 10
206.525
 20
-60.175
 30
0.0
 40
0.5
100
AcDbArc
 50
0.0
 51
90.0
  0
ARC
  5
17F
330
769
100
AcDbEntity
  8
0
100
AcDbCircle
 10
193.525
 20
-73.175
 30
0.0
 40
0.5
100
AcDbArc
 50
180.0
 51
270.0
  0
ARC
  5
180
330
769
100
AcDbEntity
  8
0
100
AcDbCircle
 10
206.525
 20
-73.175
 30
0.0
 40
0.5
100
AcDbArc
 50
270.0
 51
0.0
  0
LINE
  5
181
330
769
100
AcDbEntity
  8
0
100
AcDbLine
 10
212.575
 20
-59.675
 30
0.0
 11
225.575
 21
-59.675
 31
0.0
  0
LINE
  5
182
330
769
100
AcDbEntity
  8
0
100
AcDbLine
 10
212.575
 20
-73.675
 30
0.0
 11
225.575
 21
-73.675
 31
0.0
  0
LINE
  5
183
330
769
100
AcDbEntity
  8
0
100
AcDbLine
 10
212.075
 20
-60.175
 30
0.0
 11
212.075
 21
-73.175
 31
0.0
  0
LINE
  5
184
330
769
100
AcDbEntity
  8
0
100
AcDbLine
 10
226.075
 20
-60.175
 30
0.0
 11
226.075
 21
-73.175
 31
0.0
  0
ARC
  5
185
330
769
100
AcDbEntity
  8
0
100
AcDbCircle
 10
212.575
 20
-60.175
 30
0.0
 40
0.5
100
AcDbArc
 50
90.0
 51
180.0
  0
ARC
  5
186
330
769
100
AcDbEntity
  8
0
100
AcDbCircle
 10
225.575
 20
-60.175
 30
0.0
 40
0.5
100
AcDbArc
 50
0.0
 51
90.0
  0
ARC
  5
187
330
769
100
AcDbEntity
  8
0
100
AcDbCircle
 10
212.575
 20
-73.175
 30
0.0
 40
0.5
100
AcDbArc
 50
180.0
 51
270.0
  0
ARC
  5
188
330
769
100
AcDbEntity
  8
0
100
AcDbCircle
 10
225.575
 20
-73.175
 30
0.0
 40
0.5
100
AcDbArc
 50
270.0
 51
0.0
  0
LINE
  5
189
330
769
100
AcDbEntity
  8
0
100
AcDbLine
 10
231.625
 20
-59.675
 30
0.0
 11
244.625
 21
-59.675
 31
0.0
  0
LINE
  5
18A
330
769
100
AcDbEntity
  8
0
100
AcDbLine
 10
231.625
 20
-73.675
 30
0.0
 11
244.625
 21
-73.675
 31
0.0
  0
LINE
  5
18B
330
769
100
AcDbEntity
  8
0
100
AcDbLine
 10
231.125
 20
-60.175
 30
0.0
 11
231.125
 21
-73.175
 31
0.0
  0
LINE
  5
18C
330
769
100
AcDbEntity
  8
0
100
AcDbLine
 10
245.125
 20
-60.175
 30
0.0
 11
245.125
 21
-73.175
 31
0.0
  0
ARC
  5
18D
330
769
100
AcDbEntity
  8
0
100
AcDbCircle
 10
231.625
 20
-60.175
 30
0.0
 40
0.5
100
AcDbArc
 50
90.0
 51
180.0
  0
ARC
  5
18E
330
769
100
AcDbEntity
  8
0
100
AcDbCircle
 10
244.625
 20
-60.175
 30
0.0
 40
0.5
100
AcDbArc
 50
0.0
 51
90.0
  0
ARC
  5
18F
330
769
100
AcDbEntity
  8
0
100
AcDbCircle
 10
231.625
 20
-73.175
 30
0.0
 40
0.5
100
AcDbArc
 50
180.0
 51
270.0
  0
ARC
  5
190
330
769
100
AcDbEntity
  8
0
100
AcDbCircle
 10
244.625
 20
-73.175
 30
0.0
 40
0.5
100
AcDbArc
 50
270.0
 51
0.0
  0
LINE
  5
191
330
769
100
AcDbEntity
  8
0
100
AcDbLine
 10
250.675
 20
-59.675
 30
0.0
 11
263.675
 21
-59.675
 31
0.0
  0
LINE
  5
192
330
769
100
AcDbEntity
  8
0
100
AcDbLine
 10
250.675
 20
-73.675
 30
0.0
 11
263.675
 21
-73.675
 31
0.0
  0
LINE
  5
193
330
769
100
AcDbEntity
  8
0
100
AcDbLine
 10
250.175
 20
-60.175
 30
0.0
 11
250.175
 21
-73.175
 31
0.0
  0
LINE
  5
194
330
769
100
AcDbEntity
  8
0
100
AcDbLine
 10
264.175
 20
-60.175
 30
0.0
 11
264.175
 21
-73.175
 31
0.0
  0
ARC
  5
195
330
769
100
AcDbEntity
  8
0
100
AcDbCircle
 10
250.675
 20
-60.175
 30
0.0
 40
0.5
100
AcDbArc
 50
90.0
 51
180.0
  0
ARC
  5
196
330
769
100
AcDbEntity
  8
0
100
AcDbCircle
 10
263.675
 20
-60.175
 30
0.0
 40
0.5
100
AcDbArc
 50
0.0
 51
90.0
  0
ARC
  5
197
330
769
100
AcDbEntity
  8
0
100
AcDbCircle
 10
250.675
 20
-73.175
 30
0.0
 40
0.5
100
AcDbArc
 50
180.0
 51
270.0
  0
ARC
  5
198
330
769
100
AcDbEntity
  8
0
100
AcDbCircle
 10
263.675
 20
-73.175
 30
0.0
 40
0.5
100
AcDbArc
 50
270.0
 51
0.0
  0
LINE
  5
199
330
769
100
AcDbEntity
  8
0
100
AcDbLine
 10
269.725
 20
-59.675
 30
0.0
 11
282.725
 21
-59.675
 31
0.0
  0
LINE
  5
19A
330
769
100
AcDbEntity
  8
0
100
AcDbLine
 10
269.725
 20
-73.675
 30
0.0
 11
282.725
 21
-73.675
 31
0.0
  0
LINE
  5
19B
330
769
100
AcDbEntity
  8
0
100
AcDbLine
 10
269.225
 20
-60.175
 30
0.0
 11
269.225
 21
-73.175
 31
0.0
  0
LINE
  5
19C
330
769
100
AcDbEntity
  8
0
100
AcDbLine
 10
283.225
 20
-60.175
 30
0.0
 11
283.225
 21
-73.175
 31
0.0
  0
ARC
  5
19D
330
769
100
AcDbEntity
  8
0
100
AcDbCircle
 10
269.725
 20
-60.175
 30
0.0
 40
0.5
100
AcDbArc
 50
90.0
 51
180.0
  0
ARC
  5
19E
330
769
100
AcDbEntity
  8
0
100
AcDbCircle
 10
282.725
 20
-60.175
 30
0.0
 40
0.5
100
AcDbArc
 50
0.0
 51
90.0
  0
ARC
  5
19F
330
769
100
AcDbEntity
  8
0
100
AcDbCircle
 10
269.725
 20
-73.175
 30
0.0
 40
0.5
100
AcDbArc
 50
180.0
 51
270.0
  0
ARC
  5
1A0
330
769
100
AcDbEntity
  8
0
100
AcDbCircle
 10
282.725
 20
-73.175
 30
0.0
 40
0.5
100
AcDbArc
 50
270.0
 51
0.0
  0
LINE
  5
1A1
330
769
100
AcDbEntity
  8
0
100
AcDbLine
 10
288.775
 20
-59.675
 30
0.0
 11
301.775
 21
-59.675
 31
0.0
  0
LINE
  5
1A2
330
769
100
AcDbEntity
  8
0
100
AcDbLine
 10
288.775
 20
-73.675
 30
0.0
 11
301.775
 21
-73.675
 31
0.0
  0
LINE
  5
1A3
330
769
100
AcDbEntity
  8
0
100
AcDbLine
 10
288.275
 20
-60.175
 30
0.0
 11
288.275
 21
-73.175
 31
0.0
  0
LINE
  5
1A4
330
769
100
AcDbEntity
  8
0
100
AcDbLine
 10
302.275
 20
-60.175
 30
0.0
 11
302.275
 21
-73.175
 31
0.0
  0
ARC
  5
1A5
330
769
100
AcDbEntity
  8
0
100
AcDbCircle
 10
288.775
 20
-60.175
 30
0.0
 40
0.5
100
AcDbArc
 50
90.0
 51
180.0
  0
ARC
  5
1A6
330
769
100
AcDbEntity
  8
0
100
AcDbCircle
 10
301.775
 20
-60.175
 30
0.0
 40
0.5
100
AcDbArc
 50
0.0
 51
90.0
  0
ARC
  5
1A7
330
769
100
AcDbEntity
  8
0
100
AcDbCircle
 10
288.775
 20
-73.175
 30
0.0
 40
0.5
100
AcDbArc
 50
180.0
 51
270.0
  0
ARC
  5
1A8
330
769
100
AcDbEntity
  8
0
100
AcDbCircle
 10
301.775
 20
-73.175
 30
0.0
 40
0.5
100
AcDbArc
 50
270.0
 51
0.0
  0
LINE
  5
1A9
330
769
100
AcDbEntity
  8
0
100
AcDbLine
 10
5.40625
 20
-78.725
 30
0.0
 11
18.40625
 21
-78.725
 31
0.0
  0
LINE
  5
1AA
330
769
100
AcDbEntity
  8
0
100
AcDbLine
 10
5.40625
 20
-92.725
 30
0.0
 11
18.40625
 21
-92.725
 31
0.0
  0
LINE
  5
1AB
330
769
100
AcDbEntity
  8
0
100
AcDbLine
 10
4.90625
 20
-79.225
 30
0.0
 11
4.90625
 21
-92.225
 31
0.0
  0
LINE
  5
1AC
330
769
100
AcDbEntity
  8
0
100
AcDbLine
 10
18.90625
 20
-79.225
 30
0.0
 11
18.90625
 21
-92.225
 31
0.0
  0
ARC
  5
1AD
330
769
100
AcDbEntity
  8
0
100
AcDbCircle
 10
5.40625
 20
-79.225
 30
0.0
 40
0.5
100
AcDbArc
 50
90.0
 51
180.0
  0
ARC
  5
1AE
330
769
100
AcDbEntity
  8
0
100
AcDbCircle
 10
18.40625
 20
-79.225
 30
0.0
 40
0.5
100
AcDbArc
 50
0.0
 51
90.0
  0
ARC
  5
1AF
330
769
100
AcDbEntity
  8
0
100
AcDbCircle
 10
5.40625
 20
-92.225
 30
0.0
 40
0.5
100
AcDbArc
 50
180.0
 51
270.0
  0
ARC
  5
1B0
330
769
100
AcDbEntity
  8
0
100
AcDbCircle
 10
18.40625
 20
-92.225
 30
0.0
 40
0.5
100
AcDbArc
 50
270.0
 51
0.0
  0
LINE
  5
1B1
330
769
100
AcDbEntity
  8
0
100
AcDbLine
 10
26.8375
 20
-78.725
 30
0.0
 11
39.8375
 21
-78.725
 31
0.0
  0
LINE
  5
1B2
330
769
100
AcDbEntity
  8
0
100
AcDbLine
 10
26.8375
 20
-92.725
 30
0.0
 11
39.8375
 21
-92.725
 31
0.0
  0
LINE
  5
1B3
330
769
100
AcDbEntity
  8
0
100
AcDbLine
 10
26.3375
 20
-79.225
 30
0.0
 11
26.3375
 21
-92.225
 31
0.0
  0
LINE
  5
1B4
330
769
100
AcDbEntity
  8
0
100
AcDbLine
 10
40.3375
 20
-79.225
 30
0.0
 11
40.3375
 21
-92.225
 31
0.0
  0
ARC
  5
1B5
330
769
100
AcDbEntity
  8
0
100
AcDbCircle
 10
26.8375
 20
-79.225
 30
0.0
 40
0.5
100
AcDbArc
 50
90.0
 51
180.0
  0
ARC
  5
1B6
330
769
100
AcDbEntity
  8
0
100
AcDbCircle
 10
39.8375
 20
-79.225
 30
0.0
 40
0.5
100
AcDbArc
 50
0.0
 51
90.0
  0
ARC
  5
1B7
330
769
100
AcDbEntity
  8
0
100
AcDbCircle
 10
26.8375
 20
-92.225
 30
0.0
 40
0.5
100
AcDbArc
 50
180.0
 51
270.0
  0
ARC
  5
1B8
330
769
100
AcDbEntity
  8
0
100
AcDbCircle
 10
39.8375
 20
-92.225
 30
0.0
 40
0.5
100
AcDbArc
 50
270.0
 51
0.0
  0
LINE
  5
1B9
330
769
100
AcDbEntity
  8
0
100
AcDbLine
 10
48.26875
 20
-78.725
 30
0.0
 11
61.26875
 21
-78.725
 31
0.0
  0
LINE
  5
1BA
330
769
100
AcDbEntity
  8
0
100
AcDbLine
 10
48.26875
 20
-92.725
 30
0.0
 11
61.26875
 21
-92.725
 31
0.0
  0
LINE
  5
1BB
330
769
100
AcDbEntity
  8
0
100
AcDbLine
 10
47.76875
 20
-79.225
 30
0.0
 11
47.76875
 21
-92.225
 31
0.0
  0
LINE
  5
1BC
330
769
100
AcDbEntity
  8
0
100
AcDbLine
 10
61.76875
 20
-79.225
 30
0.0
 11
61.76875
 21
-92.225
 31
0.0
  0
ARC
  5
1BD
330
769
100
AcDbEntity
  8
0
100
AcDbCircle
 10
48.26875
 20
-79.225
 30
0.0
 40
0.5
100
AcDbArc
 50
90.0
 51
180.0
  0
ARC
  5
1BE
330
769
100
AcDbEntity
  8
0
100
AcDbCircle
 10
61.26875
 20
-79.225
 30
0.0
 40
0.5
100
AcDbArc
 50
0.0
 51
90.0
  0
ARC
  5
1BF
330
769
100
AcDbEntity
  8
0
100
AcDbCircle
 10
48.26875
 20
-92.225
 30
0.0
 40
0.5
100
AcDbArc
 50
180.0
 51
270.0
  0
ARC
  5
1C0
330
769
100
AcDbEntity
  8
0
100
AcDbCircle
 10
61.26875
 20
-92.225
 30
0.0
 40
0.5
100
AcDbArc
 50
270.0
 51
0.0
  0
LINE
  5
1C1
330
769
100
AcDbEntity
  8
0
100
AcDbLine
 10
86.36875
 20
-78.725
 30
0.0
 11
99.36875
 21
-78.725
 31
0.0
  0
LINE
  5
1C2
330
769
100
AcDbEntity
  8
0
100
AcDbLine
 10
86.36875
 20
-92.725
 30
0.0
 11
99.36875
 21
-92.725
 31
0.0
  0
LINE
  5
1C3
330
769
100
AcDbEntity
  8
0
100
AcDbLine
 10
85.86875
 20
-79.225
 30
0.0
 11
85.86875
 21
-92.225
 31
0.0
  0
LINE
  5
1C4
330
769
100
AcDbEntity
  8
0
100
AcDbLine
 10
99.86875
 20
-79.225
 30
0.0
 11
99.86875
 21
-92.225
 31
0.0
  0
ARC
  5
1C5
330
769
100
AcDbEntity
  8
0
100
AcDbCircle
 10
86.36875
 20
-79.225
 30
0.0
 40
0.5
100
AcDbArc
 50
90.0
 51
180.0
  0
ARC
  5
1C6
330
769
100
AcDbEntity
  8
0
100
AcDbCircle
 10
99.36875
 20
-79.225
 30
0.0
 40
0.5
100
AcDbArc
 50
0.0
 51
90.0
  0
ARC
  5
1C7
330
769
100
AcDbEntity
  8
0
100
AcDbCircle
 10
86.36875
 20
-92.225
 30
0.0
 40
0.5
100
AcDbArc
 50
180.0
 51
270.0
  0
ARC
  5
1C8
330
769
100
AcDbEntity
  8
0
100
AcDbCircle
 10
99.36875
 20
-92.225
 30
0.0
 40
0.5
100
AcDbArc
 50
270.0
 51
0.0
  0
LINE
  5
1C9
330
769
100
AcDbEntity
  8
0
100
AcDbLine
 10
77.93075
 20
-76.725
 30
0.0
 11
83.93075
 21
-76.725
 31
0.0
  0
LINE
  5
1CA
330
769
100
AcDbEntity
  8
0
100
AcDbLine
 10
77.93075
 20
-91.725
 30
0.0
 11
83.93075
 21
-91.725
 31
0.0
  0
LINE
  5
1CB
330
769
100
AcDbEntity
  8
0
100
AcDbLine
 10
77.43075
 20
-77.225
 30
0.0
 11
77.43075
 21
-91.225
 31
0.0
  0
LINE
  5
1CC
330
769
100
AcDbEntity
  8
0
100
AcDbLine
 10
84.43075
 20
-77.225
 30
0.0
 11
84.43075
 21
-91.225
 31
0.0
  0
ARC
  5
1CD
330
769
100
AcDbEntity
  8
0
100
AcDbCircle
 10
77.93075
 20
-77.225
 30
0.0
 40
0.5
100
AcDbArc
 50
90.0
 51
180.0
  0
ARC
  5
1CE
330
769
100
AcDbEntity
  8
0
100
AcDbCircle
 10
83.93075
 20
-77.225
 30
0.0
 40
0.5
100
AcDbArc
 50
0.0
 51
90.0
  0
ARC
  5
1CF
330
769
100
AcDbEntity
  8
0
100
AcDbCircle
 10
77.93075
 20
-91.225
 30
0.0
 40
0.5
100
AcDbArc
 50
180.0
 51
270.0
  0
ARC
  5
1D0
330
769
100
AcDbEntity
  8
0
100
AcDbCircle
 10
83.93075
 20
-91.225
 30
0.0
 40
0.5
100
AcDbArc
 50
270.0
 51
0.0
  0
LINE
  5
1D1
330
769
100
AcDbEntity
  8
0
100
AcDbLine
 10
101.80675
 20
-76.725
 30
0.0
 11
107.80675
 21
-76.725
 31
0.0
  0
LINE
  5
1D2
330
769
100
AcDbEntity
  8
0
100
AcDbLine
 10
101.80675
 20
-91.725
 30
0.0
 11
107.80675
 21
-91.725
 31
0.0
  0
LINE
  5
1D3
330
769
100
AcDbEntity
  8
0
100
AcDbLine
 10
101.30675
 20
-77.225
 30
0.0
 11
101.30675
 21
-91.225
 31
0.0
  0
LINE
  5
1D4
330
769
100
AcDbEntity
  8
0
100
AcDbLine
 10
108.30675
 20
-77.225
 30
0.0
 11
108.30675
 21
-91.225
 31
0.0
  0
ARC
  5
1D5
330
769
100
AcDbEntity
  8
0
100
AcDbCircle
 10
101.80675
 20
-77.225
 30
0.0
 40
0.5
100
AcDbArc
 50
90.0
 51
180.0
  0
ARC
  5
1D6
330
769
100
AcDbEntity
  8
0
100
AcDbCircle
 10
107.80675
 20
-77.225
 30
0.0
 40
0.5
100
AcDbArc
 50
0.0
 51
90.0
  0
ARC
  5
1D7
330
769
100
AcDbEntity
  8
0
100
AcDbCircle
 10
101.80675
 20
-91.225
 30
0.0
 40
0.5
100
AcDbArc
 50
180.0
 51
270.0
  0
ARC
  5
1D8
330
769
100
AcDbEntity
  8
0
100
AcDbCircle
 10
107.80675
 20
-91.225
 30
0.0
 40
0.5
100
AcDbArc
 50
270.0
 51
0.0
  0
LINE
  5
1D9
330
769
100
AcDbEntity
  8
0
100
AcDbLine
 10
210.19375
 20
-78.725
 30
0.0
 11
223.19375
 21
-78.725
 31
0.0
  0
LINE
  5
1DA
330
769
100
AcDbEntity
  8
0
100
AcDbLine
 10
210.19375
 20
-92.725
 30
0.0
 11
223.19375
 21
-92.725
 31
0.0
  0
LINE
  5
1DB
330
769
100
AcDbEntity
  8
0
100
AcDbLine
 10
209.69375
 20
-79.225
 30
0.0
 11
209.69375
 21
-92.225
 31
0.0
  0
LINE
  5
1DC
330
769
100
AcDbEntity
  8
0
100
AcDbLine
 10
223.69375
 20
-79.225
 30
0.0
 11
223.69375
 21
-92.225
 31
0.0
  0
ARC
  5
1DD
330
769
100
AcDbEntity
  8
0
100
AcDbCircle
 10
210.19375
 20
-79.225
 30
0.0
 40
0.5
100
AcDbArc
 50
90.0
 51
180.0
  0
ARC
  5
1DE
330
769
100
AcDbEntity
  8
0
100
AcDbCircle
 10
223.19375
 20
-79.225
 30
0.0
 40
0.5
100
AcDbArc
 50
0.0
 51
90.0
  0
ARC
  5
1DF
330
769
100
AcDbEntity
  8
0
100
AcDbCircle
 10
210.19375
 20
-92.225
 30
0.0
 40
0.5
100
AcDbArc
 50
180.0
 51
270.0
  0
ARC
  5
1E0
330
769
100
AcDbEntity
  8
0
100
AcDbCircle
 10
223.19375
 20
-92.225
 30
0.0
 40
0.5
100
AcDbArc
 50
270.0
 51
0.0
  0
LINE
  5
1E1
330
769
100
AcDbEntity
  8
0
100
AcDbLine
 10
201.75575
 20
-76.725
 30
0.0
 11
207.75575
 21
-76.725
 31
0.0
  0
LINE
  5
1E2
330
769
100
AcDbEntity
  8
0
100
AcDbLine
 10
201.75575
 20
-91.725
 30
0.0
 11
207.75575
 21
-91.725
 31
0.0
  0
LINE
  5
1E3
330
769
100
AcDbEntity
  8
0
100
AcDbLine
 10
201.25575
 20
-77.225
 30
0.0
 11
201.25575
 21
-91.225
 31
0.0
  0
LINE
  5
1E4
330
769
100
AcDbEntity
  8
0
100
AcDbLine
 10
208.25575
 20
-77.225
 30
0.0
 11
208.25575
 21
-91.225
 31
0.0
  0
ARC
  5
1E5
330
769
100
AcDbEntity
  8
0
100
AcDbCircle
 10
201.75575
 20
-77.225
 30
0.0
 40
0.5
100
AcDbArc
 50
90.0
 51
180.0
  0
ARC
  5
1E6
330
769
100
AcDbEntity
  8
0
100
AcDbCircle
 10
207.75575
 20
-77.225
 30
0.0
 40
0.5
100
AcDbArc
 50
0.0
 51
90.0
  0
ARC
  5
1E7
330
769
100
AcDbEntity
  8
0
100
AcDbCircle
 10
201.75575
 20
-91.225
 30
0.0
 40
0.5
100
AcDbArc
 50
180.0
 51
270.0
  0
ARC
  5
1E8
330
769
100
AcDbEntity
  8
0
100
AcDbCircle
 10
207.75575
 20
-91.225
 30
0.0
 40
0.5
100
AcDbArc
 50
270.0
 51
0.0
  0
LINE
  5
1E9
330
769
100
AcDbEntity
  8
0
100
AcDbLine
 10
225.63175
 20
-76.725
 30
0.0
 11
231.63175
 21
-76.725
 31
0.0
  0
LINE
  5
1EA
330
769
100
AcDbEntity
  8
0
100
AcDbLine
 10
225.63175
 20
-91.725
 30
0.0
 11
231.63175
 21
-91.725
 31
0.0
  0
LINE
  5
1EB
330
769
100
AcDbEntity
  8
0
100
AcDbLine
 10
225.13175
 20
-77.225
 30
0.0
 11
225.13175
 21
-91.225
 31
0.0
  0
LINE
  5
1EC
330
769
100
AcDbEntity
  8
0
100
AcDbLine
 10
232.13175
 20
-77.225
 30
0.0
 11
232.13175
 21
-91.225
 31
0.0
  0
ARC
  5
1ED
330
769
100
AcDbEntity
  8
0
100
AcDbCircle
 10
225.63175
 20
-77.225
 30
0.0
 40
0.5
100
AcDbArc
 50
90.0
 51
180.0
  0
ARC
  5
1EE
330
769
100
AcDbEntity
  8
0
100
AcDbCircle
 10
231.63175
 20
-77.225
 30
0.0
 40
0.5
100
AcDbArc
 50
0.0
 51
90.0
  0
ARC
  5
1EF
330
769
100
AcDbEntity
  8
0
100
AcDbCircle
 10
225.63175
 20
-91.225
 30
0.0
 40
0.5
100
AcDbArc
 50
180.0
 51
270.0
  0
ARC
  5
1F0
330
769
100
AcDbEntity
  8
0
100
AcDbCircle
 10
231.63175
 20
-91.225
 30
0.0
 40
0.5
100
AcDbArc
 50
270.0
 51
0.0
  0
LINE
  5
1F1
330
769
100
AcDbEntity
  8
0
100
AcDbLine
 10
255.4375
 20
-78.725
 30
0.0
 11
268.4375
 21
-78.725
 31
0.0
  0
LINE
  5
1F2
330
769
100
AcDbEntity
  8
0
100
AcDbLine
 10
255.4375
 20
-92.725
 30
0.0
 11
268.4375
 21
-92.725
 31
0.0
  0
LINE
  5
1F3
330
769
100
AcDbEntity
  8
0
100
AcDbLine
 10
254.9375
 20
-79.225
 30
0.0
 11
254.9375
 21
-92.225
 31
0.0
  0
LINE
  5
1F4
330
769
100
AcDbEntity
  8
0
100
AcDbLine
 10
268.9375
 20
-79.225
 30
0.0
 11
268.9375
 21
-92.225
 31
0.0
  0
ARC
  5
1F5
330
769
100
AcDbEntity
  8
0
100
AcDbCircle
 10
255.4375
 20
-79.225
 30
0.0
 40
0.5
100
AcDbArc
 50
90.0
 51
180.0
  0
ARC
  5
1F6
330
769
100
AcDbEntity
  8
0
100
AcDbCircle
 10
268.4375
 20
-79.225
 30
0.0
 40
0.5
100
AcDbArc
 50
0.0
 51
90.0
  0
ARC
  5
1F7
330
769
100
AcDbEntity
  8
0
100
AcDbCircle
 10
255.4375
 20
-92.225
 30
0.0
 40
0.5
100
AcDbArc
 50
180.0
 51
270.0
  0
ARC
  5
1F8
330
769
100
AcDbEntity
  8
0
100
AcDbCircle
 10
268.4375
 20
-92.225
 30
0.0
 40
0.5
100
AcDbArc
 50
270.0
 51
0.0
  0
LINE
  5
1F9
330
769
100
AcDbEntity
  8
0
100
AcDbLine
 10
284.0125
 20
-78.725
 30
0.0
 11
297.0125
 21
-78.725
 31
0.0
  0
LINE
  5
1FA
330
769
100
AcDbEntity
  8
0
100
AcDbLine
 10
284.0125
 20
-92.725
 30
0.0
 11
297.0125
 21
-92.725
 31
0.0
  0
LINE
  5
1FB
330
769
100
AcDbEntity
  8
0
100
AcDbLine
 10
283.5125
 20
-79.225
 30
0.0
 11
283.5125
 21
-92.225
 31
0.0
  0
LINE
  5
1FC
330
769
100
AcDbEntity
  8
0
100
AcDbLine
 10
297.5125
 20
-79.225
 30
0.0
 11
297.5125
 21
-92.225
 31
0.0
  0
ARC
  5
1FD
330
769
100
AcDbEntity
  8
0
100
AcDbCircle
 10
284.0125
 20
-79.225
 30
0.0
 40
0.5
100
AcDbArc
 50
90.0
 51
180.0
  0
ARC
  5
1FE
330
769
100
AcDbEntity
  8
0
100
AcDbCircle
 10
297.0125
 20
-79.225
 30
0.0
 40
0.5
100
AcDbArc
 50
0.0
 51
90.0
  0
ARC
  5
1FF
330
769
100
AcDbEntity
  8
0
100
AcDbCircle
 10
284.0125
 20
-92.225
 30
0.0
 40
0.5
100
AcDbArc
 50
180.0
 51
270.0
  0
ARC
  5
200
330
769
100
AcDbEntity
  8
0
100
AcDbCircle
 10
297.0125
 20
-92.225
 30
0.0
 40
0.5
100
AcDbArc
 50
270.0
 51
0.0
  0
LINE
  5
201
330
769
100
AcDbEntity
  8
0
100
AcDbLine
 10
171.59375
 20
-82.7
 30
0.0
 11
171.59375
 21
-69.7
 31
0.0
  0
LINE
  5
202
330
769
100
AcDbEntity
  8
0
100
AcDbLine
 10
185.59375
 20
-82.7
 30
0.0
 11
185.59375
 21
-69.7
 31
0.0
  0
LINE
  5
203
330
769
100
AcDbEntity
  8
0
100
AcDbLine
 10
172.09375
 20
-83.2
 30
0.0
 11
185.09375
 21
-83.2
 31
0.0
  0
LINE
  5
204
330
769
100
AcDbEntity
  8
0
100
AcDbLine
 10
172.09375
 20
-69.2
 30
0.0
 11
185.09375
 21
-69.2
 31
0.0
  0
ARC
  5
205
330
769
100
AcDbEntity
  8
0
100
AcDbCircle
 10
172.09375
 20
-82.7
 30
0.0
 40
0.5
100
AcDbArc
 50
180.0
 51
270.0
  0
ARC
  5
206
330
769
100
AcDbEntity
  8
0
100
AcDbCircle
 10
172.09375
 20
-69.7
 30
0.0
 40
0.5
100
AcDbArc
 50
90.0
 51
180.0
  0
ARC
  5
207
330
769
100
AcDbEntity
  8
0
100
AcDbCircle
 10
185.09375
 20
-82.7
 30
0.0
 40
0.5
100
AcDbArc
 50
270.0
 51
0.0
  0
ARC
  5
208
330
769
100
AcDbEntity
  8
0
100
AcDbCircle
 10
185.09375
 20
-69.7
 30
0.0
 40
0.5
100
AcDbArc
 50
0.0
 51
90.0
  0
LINE
  5
209
330
769
100
AcDbEntity
  8
0
100
AcDbLine
 10
172.59375
 20
-91.138
 30
0.0
 11
172.59375
 21
-85.138
 31
0.0
  0
LINE
  5
20A
330
769
100
AcDbEntity
  8
0
100
AcDbLine
 10
187.59375
 20
-91.138
 30
0.0
 11
187.59375
 21
-85.138
 31
0.0
  0
LINE
  5
20B
330
769
100
AcDbEntity
  8
0
100
AcDbLine
 10
173.09375
 20
-91.638
 30
0.0
 11
187.09375
 21
-91.638
 31
0.0
  0
LINE
  5
20C
330
769
100
AcDbEntity
  8
0
100
AcDbLine
 10
173.09375
 20
-84.638
 30
0.0
 11
187.09375
 21
-84.638
 31
0.0
  0
ARC
  5
20D
330
769
100
AcDbEntity
  8
0
100
AcDbCircle
 10
173.09375
 20
-91.138
 30
0.0
 40
0.5
100
AcDbArc
 50
180.0
 51
270.0
  0
ARC
  5
20E
330
769
100
AcDbEntity
  8
0
100
AcDbCircle
 10
173.09375
 20
-85.138
 30
0.0
 40
0.5
100
AcDbArc
 50
90.0
 51
180.0
  0
ARC
  5
20F
330
769
100
AcDbEntity
  8
0
100
AcDbCircle
 10
187.09375
 20
-91.138
 30
0.0
 40
0.5
100
AcDbArc
 50
270.0
 51
0.0
  0
ARC
  5
210
330
769
100
AcDbEntity
  8
0
100
AcDbCircle
 10
187.09375
 20
-85.138
 30
0.0
 40
0.5
100
AcDbArc
 50
0.0
 51
90.0
  0
LINE
  5
211
330
769
100
AcDbEntity
  8
0
100
AcDbLine
 10
172.59375
 20
-67.262
 30
0.0
 11
172.59375
 21
-61.262
 31
0.0
  0
LINE
  5
212
330
769
100
AcDbEntity
  8
0
100
AcDbLine
 10
187.59375
 20
-67.262
 30
0.0
 11
187.59375
 21
-61.262
 31
0.0
  0
LINE
  5
213
330
769
100
AcDbEntity
  8
0
100
AcDbLine
 10
173.09375
 20
-67.762
 30
0.0
 11
187.09375
 21
-67.762
 31
0.0
  0
LINE
  5
214
330
769
100
AcDbEntity
  8
0
100
AcDbLine
 10
173.09375
 20
-60.762
 30
0.0
 11
187.09375
 21
-60.762
 31
0.0
  0
ARC
  5
215
330
769
100
AcDbEntity
  8
0
100
AcDbCircle
 10
173.09375
 20
-67.262
 30
0.0
 40
0.5
100
AcDbArc
 50
180.0
 51
270.0
  0
ARC
  5
216
330
769
100
AcDbEntity
  8
0
100
AcDbCircle
 10
173.09375
 20
-61.262
 30
0.0
 40
0.5
100
AcDbArc
 50
90.0
 51
180.0
  0
ARC
  5
217
330
769
100
AcDbEntity
  8
0
100
AcDbCircle
 10
187.09375
 20
-67.262
 30
0.0
 40
0.5
100
AcDbArc
 50
270.0
 51
0.0
  0
ARC
  5
218
330
769
100
AcDbEntity
  8
0
100
AcDbCircle
 10
187.09375
 20
-61.262
 30
0.0
 40
0.5
100
AcDbArc
 50
0.0
 51
90.0
  0
DIMENSION
  5
21D
330
769
100
AcDbEntity
  8
0
100
AcDbDimension
280
     0
 10
1.0
 20
-2.524999999999999
 30
0.0
 11
1.0
 21
-9.524999999999999
 31
0.0
 70
    33
 71
     5
 42
-1.0
 73
     0
 74
     0
 75
     0
  3
QCADDimStyle
100
AcDbAlignedDimension
 13
3.025
 23
-2.525
 33
0.0
 14
3.025
 24
-16.525
 34
0.0
  0
DIMENSION
  5
21E
330
769
100
AcDbEntity
  8
0
100
AcDbDimension
280
     0
 10
2.525
 20
-1.275290591632698
 30
0.0
 11
9.524999999999999
 21
-1.275290591632698
 31
0.0
 70
    33
 71
     5
 42
-1.0
 73
     0
 74
     0
 75
     0
  3
QCADDimStyle
100
AcDbAlignedDimension
 13
2.525
 23
-3.025
 33
0.0
 14
16.525
 24
-3.025
 34
0.0
  0
VIEWPORT
  5
815
330
765
100
AcDbEntity
 67
     1
  8
0
100
AcDbViewport
 10
5.25
 20
4.0
 30
0.0
 40
11.638
 41
8.993
 68
     1
 69
     1
 12
5.25
 22
4.0
 13
0.0
 23
0.0
 14
0.5
 24
0.5
 15
0.5
 25
0.5
 16
0.0
 26
0.0
 36
1.0
 17
0.0
 27
0.0
 37
0.0
 42
50.0
 43
0.0
 44
0.0
 45
8.993
 50
0.0
 51
0.0
 72
   100
 90
   557152
  1

281
     0
 71
     1
 74
     0
110
0.0
120
0.0
130
0.0
111
1.0
121
0.0
131
0.0
112
0.0
122
1.0
132
0.0
 79
     0
146
0.0
170
     0
 61
     5
348
779
292
     1
282
     1
141
0.0
142
0.0
 63
   256
361
816
  0
ENDSEC
  0
SECTION
  2
OBJECTS
  0
DICTIONARY
  5
757
330
0
100
AcDbDictionary
281
     1
  3
ACAD_DETAILVIEWSTYLE
350
81E
  3
ACAD_GROUP
350
758
  3
ACAD_LAYOUT
350
764
  3
ACAD_MATERIAL
350
78D
  3
ACAD_MLEADERSTYLE
350
7A5
  3
ACAD_MLINESTYLE
350
761
  3
ACAD_PLOTSETTINGS
350
763
  3
ACAD_PLOTSTYLENAME
350
759
  3
ACAD_SCALELIST
350
791
  3
ACAD_SECTIONVIEWSTYLE
350
81F
  3
ACAD_TABLESTYLE
350
7A3
  3
ACAD_VISUALSTYLE
350
774
  3
ACDB_RECOMPOSE_DATA
350
81B
  3
AcDbVariableDictionary
350
817
  3
QCAD_OBJECTS
350
7A9
  0
SUN
  5
7A7
330
773
100
AcDbSun
 90
        1
290
     0
 63
     7
421
 16777215
 40
1.0
291
     1
 91
  2455826
 92
 54000000
292
     0
 70
     2
 71
   256
280
     1
  0
SUN
  5
816
330
815
100
AcDbSun
 90
        1
290
     0
 63
     7
421
 16777215
 40
1.0
291
     1
 91
  2455826
 92
 54000000
292
     0
 70
     2
 71
   256
280
     1
  0
DICTIONARY
  5
81E
102
{ACAD_REACTORS
330
757
102
}
330
757
100
AcDbDictionary
281
     1
  0
DICTIONARY
  5
758
102
{ACAD_REACTORS
330
757
102
}
330
757
100
AcDbDictionary
281
     1
  0
DICTIONARY
  5
764
102
{ACAD_REACTORS
330
757
102
}
330
757
100
AcDbDictionary
281
     1
  3
Layout1
350
768
  3
Model
350
76C
  0
DICTIONARY
  5
78D
102
{ACAD_REACTORS
330
757
102
}
330
757
100
AcDbDictionary
281
     1
  3
ByBlock
350
78F
  3
ByLayer
350
78E
  3
Global
350
790
  0
DICTIONARY
  5
7A5
102
{ACAD_REACTORS
330
757
102
}
330
757
100
AcDbDictionary
281
     1
  3
Standard
350
7A6
  0
DICTIONARY
  5
761
102
{ACAD_REACTORS
330
757
102
}
330
757
100
AcDbDictionary
281
     1
  3
Standard
350
762
  0
DICTIONARY
  5
763
102
{ACAD_REACTORS
330
757
102
}
330
757
100
AcDbDictionary
281
     1
  0
ACDBDICTIONARYWDFLT
  5
759
102
{ACAD_REACTORS
330
757
102
}
330
757
100
AcDbDictionary
281
     1
  3
Normal
350
75A
100
AcDbDictionaryWithDefault
340
75A
  0
DICTIONARY
  5
791
102
{ACAD_REACTORS
330
757
102
}
330
757
100
AcDbDictionary
281
     1
  3
A0
350
792
  3
A1
350
793
  3
A2
350
794
  3
A3
350
795
  3
A4
350
796
  3
A5
350
797
  3
A6
350
798
  3
A7
350
799
  3
A8
350
79A
  3
A9
350
79B
  3
B1
350
79C
  3
B2
350
79D
  3
B3
350
79E
  3
B4
350
79F
  3
B5
350
7A0
  3
B6
350
7A1
  3
B7
350
7A2
  0
DICTIONARY
  5
81F
102
{ACAD_REACTORS
330
757
102
}
330
757
100
AcDbDictionary
281
     1
  0
DICTIONARY
  5
7A3
102
{ACAD_REACTORS
330
757
102
}
330
757
100
AcDbDictionary
281
     1
  3
Standard
350
7A4
  0
DICTIONARY
  5
774
102
{ACAD_REACTORS
330
757
102
}
330
757
100
AcDbDictionary
281
     1
  3
2dWireframe
350
779
  3
Basic
350
77C
  3
Brighten
350
780
  3
ColorChange
350
784
  3
Conceptual
350
77E
  3
Dim
350
77F
  3
EdgeColorOff
350
787
  3
Facepattern
350
783
  3
Flat
350
775
  3
FlatWithEdges
350
776
  3
Gouraud
350
777
  3
GouraudWithEdges
350
778
  3
Hidden
350
77B
  3
JitterOff
350
785
  3
Linepattern
350
782
  3
OverhangOff
350
786
  3
Realistic
350
77D
  3
Shaded
350
78C
  3
Shaded with edges
350
78B
  3
Shades of Gray
350
788
  3
Sketchy
350
789
  3
Thicken
350
781
  3
Wireframe
350
77A
  3
X-Ray
350
78A
  0
XRECORD
  5
81B
102
{ACAD_REACTORS
330
757
102
}
330
757
100
AcDbXrecord
280
     1
 90
        1
330
7A4
  0
DICTIONARY
  5
817
102
{ACAD_REACTORS
330
757
102
}
330
757
100
AcDbDictionary
281
     1
  3
CANNOSCALE
350
818
  3
CMLEADERSTYLE
350
81D
  3
CTABLESTYLE
350
81C
  0
DICTIONARY
  5
7A9
102
{ACAD_REACTORS
330
757
102
}
330
757
100
AcDbDictionary
281
     1
  3
ColorSettings/BackgroundColor
350
7AB
  3
ColorSettings/ColorMode
350
7AC
  3
Grid/DisplayGrid00
350
7AD
  3
Grid/DisplayGrid01
350
7AE
  3
Grid/DisplayGrid02
350
7AF
  3
Grid/DisplayGrid03
350
7B0
  3
Grid/GridSpacingX00
350
7B1
  3
Grid/GridSpacingX01
350
7B2
  3
Grid/GridSpacingX02
350
7B3
  3
Grid/GridSpacingX03
350
7B4
  3
Grid/GridSpacingY00
350
7B5
  3
Grid/GridSpacingY01
350
7B6
  3
Grid/GridSpacingY02
350
7B7
  3
Grid/GridSpacingY03
350
7B8
  3
Grid/IsometricGrid00
350
7B9
  3
Grid/IsometricGrid01
350
7BA
  3
Grid/IsometricGrid02
350
7BB
  3
Grid/IsometricGrid03
350
7BC
  3
Grid/IsometricProjection00
350
7BD
  3
Grid/IsometricProjection01
350
7BE
  3
Grid/IsometricProjection02
350
7BF
  3
Grid/IsometricProjection03
350
7C0
  3
Grid/MetaGridSpacingX00
350
7C1
  3
Grid/MetaGridSpacingX01
350
7C2
  3
Grid/MetaGridSpacingX02
350
7C3
  3
Grid/MetaGridSpacingX03
350
7C4
  3
Grid/MetaGridSpacingY00
350
7C5
  3
Grid/MetaGridSpacingY01
350
7C6
  3
Grid/MetaGridSpacingY02
350
7C7
  3
Grid/MetaGridSpacingY03
350
7C8
  3
MultiPageSettings/Columns
350
7C9
  3
MultiPageSettings/GlueMarginsBottom
350
7CA
  3
MultiPageSettings/GlueMarginsLeft
350
7CB
  3
MultiPageSettings/GlueMarginsRight
350
7CC
  3
MultiPageSettings/GlueMarginsTop
350
7CD
  3
MultiPageSettings/PrintCropMarks
350
7CE
  3
MultiPageSettings/Rows
350
7CF
  3
PageSettings/OffsetX
350
7D0
  3
PageSettings/OffsetY
350
7D1
  3
PageSettings/PageOrientation
350
7D2
  3
PageSettings/PaperHeight
350
7D3
  3
PageSettings/PaperWidth
350
7D4
  3
PageSettings/Scale
350
7D5
  3
PageSettings/ShowPaperBorders
350
7D6
  3
PageTagSettings/EnablePageTags
350
7D7
  3
PageTagSettings/TagAlignment
350
7D8
  3
PageTagSettings/TagFont
350
7D9
  3
PageTagSettings/TagPosition
350
7DA
  3
QCADVersion
350
7DB
  3
UnitSettings/PaperUnit
350
7DC
  3
ViewportCenter
350
7DD
  3
ViewportHeight
350
7DE
  3
ViewportWidth
350
7DF
  0
LAYOUT
  5
768
102
{ACAD_REACTORS
330
764
102
}
330
764
100
AcDbPlotSettings
  1

  2
none_device
  4
Letter_(8.50_x_11.00_Inches)
  6

 40
6.35
 41
6.35
 42
6.35001
 43
6.35001
 44
215.9
 45
279.4
 46
0.0
 47
0.0
 48
0.0
 49
0.0
140
0.0
141
0.0
142
1.0
143
1.0
 70
   688
 72
     0
 73
     1
 74
     5
  7

 75
    16
 76
     0
 77
     2
 78
   300
147
1.0
148
0.0
149
0.0
100
AcDbLayout
  1
Layout1
 70
     1
 71
     1
 10
-0.25
 20
-0.25
 11
10.75
 21
8.25
 12
0.0
 22
0.0
 32
0.0
 14
1.000000000000000E+20
 24
1.000000000000000E+20
 34
1.000000000000000E+20
 15
-1.000000000000000E+20
 25
-1.000000000000000E+20
 35
-1.000000000000000E+20
146
0.0
 13
0.0
 23
0.0
 33
0.0
 16
1.0
 26
0.0
 36
0.0
 17
0.0
 27
1.0
 37
0.0
 76
     0
330
765
331
815
  0
LAYOUT
  5
76C
102
{ACAD_REACTORS
330
764
102
}
330
764
100
AcDbPlotSettings
  1

  2
none_device
  4
Letter_(8.50_x_11.00_Inches)
  6

 40
6.35
 41
6.35
 42
6.35000508
 43
6.35000508
 44
215.9
 45
279.4
 46
0.0
 47
0.0
 48
0.0
 49
0.0
140
0.0
141
0.0
142
1.0
143
1.0
 70
  1712
 72
     0
 73
     0
 74
     0
  7

 75
     0
 76
     0
 77
     2
 78
   300
147
1.0
148
0.0
149
0.0
100
AcDbLayout
  1
Model
 70
     1
 71
     0
 10
0.0
 20
0.0
 11
12.0
 21
9.0
 12
0.0
 22
0.0
 32
0.0
 14
-1.22500000000008
 24
-100.0749999999971
 34
-0.0000000000007103
 15
306.025
 25
4.824999999523257
 35
0.0000000000025476
146
0.0
 13
0.0
 23
0.0
 33
0.0
 16
1.0
 26
0.0
 36
0.0
 17
0.0
 27
1.0
 37
0.0
 76
     0
330
769
331
773
  0
MATERIAL
  5
78F
102
{ACAD_REACTORS
330
78D
102
}
330
78D
100
AcDbMaterial
  1
ByBlock
 72
     1
 94
      127
  0
MATERIAL
  5
78E
102
{ACAD_REACTORS
330
78D
102
}
330
78D
100
AcDbMaterial
  1
ByLayer
 72
     1
 94
      127
  0
MATERIAL
  5
790
102
{ACAD_REACTORS
330
78D
102
}
330
78D
100
AcDbMaterial
  1
Global
 72
     1
 94
      127
  0
MLEADERSTYLE
  5
7A6
102
{ACAD_REACTORS
330
7A5
102
}
330
7A5
100
AcDbMLeaderStyle
179
     2
170
     2
171
     1
172
     0
 90
        2
 40
0.0
 41
0.0
173
     1
 91
-1056964608
340
75E
 92
       -2
290
     1
 42
0.09
291
     1
 43
0.36
  3
Standard
341
0
 44
0.18
300

342
75C
174
     1
178
     6
175
     1
176
     0
 93
-1056964608
 45
0.18
292
     0
297
     0
 46
0.18
343
0
 94
-1056964608
 47
1.0
 49
1.0
140
1.0
293
     1
141
0.0
294
     1
177
     0
142
1.0
295
     0
296
     0
143
0.125
271
     0
272
     9
273
     9
298
     0
  0
MLINESTYLE
  5
762
102
{ACAD_REACTORS
330
761
102
}
330
761
100
AcDbMlineStyle
  2
Standard
 70
     0
  3

 62
   256
 51
90.0
 52
90.0
 71
     2
 49
0.5
 62
   256
  6
BYLAYER
 49
-0.5
 62
   256
  6
BYLAYER
  0
ACDBPLACEHOLDER
  5
75A
102
{ACAD_REACTORS
330
759
102
}
330
759
  0
SCALE
  5
792
102
{ACAD_REACTORS
330
791
102
}
330
791
100
AcDbScale
 70
     0
300
1:1
140
1.0
141
1.0
290
     1
  0
SCALE
  5
793
102
{ACAD_REACTORS
330
791
102
}
330
791
100
AcDbScale
 70
     0
300
1/128" = 1'-0"
140
0.0078125
141
12.0
290
     0
  0
SCALE
  5
794
102
{ACAD_REACTORS
330
791
102
}
330
791
100
AcDbScale
 70
     0
300
1/64" = 1'-0"
140
0.015625
141
12.0
290
     0
  0
SCALE
  5
795
102
{ACAD_REACTORS
330
791
102
}
330
791
100
AcDbScale
 70
     0
300
1/32" = 1'-0"
140
0.03125
141
12.0
290
     0
  0
SCALE
  5
796
102
{ACAD_REACTORS
330
791
102
}
330
791
100
AcDbScale
 70
     0
300
1/16" = 1'-0"
140
0.0625
141
12.0
290
     0
  0
SCALE
  5
797
102
{ACAD_REACTORS
330
791
102
}
330
791
100
AcDbScale
 70
     0
300
3/32" = 1'-0"
140
0.09375
141
12.0
290
     0
  0
SCALE
  5
798
102
{ACAD_REACTORS
330
791
102
}
330
791
100
AcDbScale
 70
     0
300
1/8" = 1'-0"
140
0.125
141
12.0
290
     0
  0
SCALE
  5
799
102
{ACAD_REACTORS
330
791
102
}
330
791
100
AcDbScale
 70
     0
300
3/16" = 1'-0"
140
0.1875
141
12.0
290
     0
  0
SCALE
  5
79A
102
{ACAD_REACTORS
330
791
102
}
330
791
100
AcDbScale
 70
     0
300
1/4" = 1'-0"
140
0.25
141
12.0
290
     0
  0
SCALE
  5
79B
102
{ACAD_REACTORS
330
791
102
}
330
791
100
AcDbScale
 70
     0
300
3/8" = 1'-0"
140
0.375
141
12.0
290
     0
  0
SCALE
  5
79C
102
{ACAD_REACTORS
330
791
102
}
330
791
100
AcDbScale
 70
     0
300
1/2" = 1'-0"
140
0.5
141
12.0
290
     0
  0
SCALE
  5
79D
102
{ACAD_REACTORS
330
791
102
}
330
791
100
AcDbScale
 70
     0
300
3/4" = 1'-0"
140
0.75
141
12.0
290
     0
  0
SCALE
  5
79E
102
{ACAD_REACTORS
330
791
102
}
330
791
100
AcDbScale
 70
     0
300
1" = 1'-0"
140
1.0
141
12.0
290
     0
  0
SCALE
  5
79F
102
{ACAD_REACTORS
330
791
102
}
330
791
100
AcDbScale
 70
     0
300
1-1/2" = 1'-0"
140
1.5
141
12.0
290
     0
  0
SCALE
  5
7A0
102
{ACAD_REACTORS
330
791
102
}
330
791
100
AcDbScale
 70
     0
300
3" = 1'-0"
140
3.0
141
12.0
290
     0
  0
SCALE
  5
7A1
102
{ACAD_REACTORS
330
791
102
}
330
791
100
AcDbScale
 70
     0
300
6" = 1'-0"
140
6.0
141
12.0
290
     0
  0
SCALE
  5
7A2
102
{ACAD_REACTORS
330
791
102
}
330
791
100
AcDbScale
 70
     0
300
1'-0" = 1'-0"
140
12.0
141
12.0
290
     0
  0
TABLESTYLE
  5
7A4
102
{ACAD_REACTORS
330
7A3
102
}
102
{ACAD_XDICTIONARY
360
819
102
}
330
7A3
100
AcDbTableStyle
  3
Standard
 70
     0
 71
     0
 40
0.06
 41
0.06
280
     0
281
     0
  7
Standard
140
0.18
170
     2
 62
     0
 63
   257
283
     0
 90
        4
 91
        0
  1

274
    -2
284
     1
 64
     0
275
    -2
285
     1
 65
     0
276
    -2
286
     1
 66
     0
277
    -2
287
     1
 67
     0
278
    -2
288
     1
 68
     0
279
    -2
289
     1
 69
     0
  7
Standard
140
0.25
170
     5
 62
     0
 63
   257
283
     0
 90
        4
 91
        0
  1

274
    -2
284
     1
 64
     0
275
    -2
285
     1
 65
     0
276
    -2
286
     1
 66
     0
277
    -2
287
     1
 67
     0
278
    -2
288
     1
 68
     0
279
    -2
289
     1
 69
     0
  7
Standard
140
0.18
170
     5
 62
     0
 63
   257
283
     0
 90
        4
 91
        0
  1

274
    -2
284
     1
 64
     0
275
    -2
285
     1
 65
     0
276
    -2
286
     1
 66
     0
277
    -2
287
     1
 67
     0
278
    -2
288
     1
 68
     0
279
    -2
289
     1
 69
     0
  0
VISUALSTYLE
  5
779
102
{ACAD_REACTORS
330
774
102
}
330
774
100
AcDbVisualStyle
  2
2dWireframe
 70
     4
177
     3
291
     0
 70
    58
 90
        0
176
     1
 90
        2
176
     1
 90
        0
176
     1
 90
        0
176
     1
 40
0.6
176
     1
 40
30.0
176
     1
 62
     7
420
 16777215
176
     1
 90
        1
176
     1
 90
        4
176
     1
 62
     7
176
     1
 62
   257
176
     1
 90
        1
176
     1
 90
        1
176
     1
 40
1.0
176
     1
 90
        0
176
     1
 62
   257
176
     1
 40
1.0
176
     1
 90
        1
176
     1
 90
        6
176
     1
 90
        2
176
     1
 62
     7
176
     1
 90
        5
176
     1
 90
        0
176
     1
 90
        0
176
     1
290
     0
176
     1
 90
        1
176
     1
 40
0.0
176
     1
 90
        0
176
     1
290
     1
176
     1
290
     1
176
     1
290
     0
176
     1
290
     0
176
     1
290
     0
176
     1
290
     0
176
     1
290
     0
176
     1
290
     0
176
     1
290
     0
176
     1
 90
       50
176
     1
 40
0.0
176
     1
 40
1.0
176
     1
 90
        0
176
     1
 62
    18
420
        0
176
     1
 90
       50
176
     1
 90
        3
176
     1
 62
     5
420
      255
176
     1
290
     0
176
     1
 90
       50
176
     1
 90
       50
176
     1
 90
       50
176
     1
290
     0
176
     1
 90
       50
176
     1
 62
   256
176
     0
 40
1.0
176
     0
 90
        2
176
     1
  1
strokes_ogs.tif
176
     1
290
     0
176
     1
 40
1.0
176
     1
 40
1.0
176
     1
  0
VISUALSTYLE
  5
77C
102
{ACAD_REACTORS
330
774
102
}
330
774
100
AcDbVisualStyle
  2
Basic
 70
     7
177
     3
291
     1
 70
    58
 90
        1
176
     1
 90
        0
176
     1
 90
        1
176
     1
 90
        0
176
     1
 40
0.6
176
     1
 40
30.0
176
     1
 62
     7
420
 16777215
176
     1
 90
        0
176
     1
 90
        4
176
     1
 62
     7
176
     1
 62
   257
176
     1
 90
        1
176
     1
 90
        1
176
     1
 40
1.0
176
     1
 90
        8
176
     1
 62
     7
176
     1
 40
1.0
176
     1
 90
        1
176
     1
 90
        6
176
     1
 90
        2
176
     1
 62
     7
176
     1
 90
        5
176
     1
 90
        0
176
     1
 90
        0
176
     1
290
     0
176
     1
 90
        1
176
     1
 40
0.0
176
     1
 90
        0
176
     1
290
     0
176
     1
290
     1
176
     1
290
     1
176
     1
290
     0
176
     1
290
     0
176
     1
290
     0
176
     1
290
     0
176
     1
290
     0
176
     1
290
     0
176
     1
 90
       50
176
     1
 40
0.0
176
     1
 40
1.0
176
     1
 90
        0
176
     1
 62
    18
420
        0
176
     1
 90
       50
176
     1
 90
        3
176
     1
 62
     5
420
      255
176
     1
290
     0
176
     1
 90
       50
176
     1
 90
       50
176
     1
 90
       50
176
     1
290
     0
176
     1
 90
       50
176
     1
 62
   256
176
     0
 40
1.0
176
     0
 90
        2
176
     1
  1
strokes_ogs.tif
176
     1
290
     0
176
     1
 40
1.0
176
     1
 40
1.0
176
     1
  0
VISUALSTYLE
  5
780
102
{ACAD_REACTORS
330
774
102
}
330
774
100
AcDbVisualStyle
  2
Brighten
 70
    12
177
     3
291
     1
 70
    58
 90
        2
176
     1
 90
        2
176
     1
 90
        0
176
     1
 90
        0
176
     1
 40
0.6
176
     1
 40
30.0
176
     1
 62
     7
420
 16777215
176
     1
 90
        1
176
     1
 90
        4
176
     1
 62
     7
176
     1
 62
   257
176
     1
 90
        1
176
     1
 90
        1
176
     1
 40
1.0
176
     1
 90
        8
176
     1
 62
     7
176
     1
 40
1.0
176
     1
 90
        1
176
     1
 90
        6
176
     1
 90
        2
176
     1
 62
     7
176
     1
 90
        5
176
     1
 90
        0
176
     1
 90
        0
176
     1
290
     0
176
     1
 90
        1
176
     1
 40
50.0
176
     1
 90
        0
176
     1
290
     0
176
     1
290
     1
176
     1
290
     1
176
     1
290
     0
176
     1
290
     0
176
     1
290
     0
176
     1
290
     0
176
     1
290
     0
176
     1
290
     0
176
     1
 90
       50
176
     1
 40
0.0
176
     1
 40
1.0
176
     1
 90
        0
176
     1
 62
    18
420
        0
176
     1
 90
       50
176
     1
 90
        3
176
     1
 62
     5
420
      255
176
     1
290
     0
176
     1
 90
       50
176
     1
 90
       50
176
     1
 90
       50
176
     1
290
     0
176
     1
 90
       50
176
     1
 62
   256
176
     0
 40
1.0
176
     0
 90
        2
176
     1
  1
strokes_ogs.tif
176
     1
290
     0
176
     1
 40
1.0
176
     1
 40
1.0
176
     1
  0
VISUALSTYLE
  5
784
102
{ACAD_REACTORS
330
774
102
}
330
774
100
AcDbVisualStyle
  2
ColorChange
 70
    16
177
     3
291
     1
 70
    58
 90
        2
176
     1
 90
        2
176
     1
 90
        3
176
     1
 90
        0
176
     1
 40
0.6
176
     1
 40
30.0
176
     1
 62
     8
420
  8421504
176
     1
 90
        1
176
     1
 90
        4
176
     1
 62
     7
176
     1
 62
   257
176
     1
 90
        1
176
     1
 90
        1
176
     1
 40
1.0
176
     1
 90
        8
176
     1
 62
     8
420
  8421504
176
     1
 40
1.0
176
     1
 90
        1
176
     1
 90
        6
176
     1
 90
        2
176
     1
 62
     7
176
     1
 90
        5
176
     1
 90
        0
176
     1
 90
        0
176
     1
290
     0
176
     1
 90
        1
176
     1
 40
0.0
176
     1
 90
        0
176
     1
290
     0
176
     1
290
     1
176
     1
290
     1
176
     1
290
     0
176
     1
290
     0
176
     1
290
     0
176
     1
290
     0
176
     1
290
     0
176
     1
290
     0
176
     1
 90
       50
176
     1
 40
0.0
176
     1
 40
1.0
176
     1
 90
        0
176
     1
 62
    18
420
        0
176
     1
 90
       50
176
     1
 90
        3
176
     1
 62
     5
420
      255
176
     1
290
     0
176
     1
 90
       50
176
     1
 90
       50
176
     1
 90
       50
176
     1
290
     0
176
     1
 90
       50
176
     1
 62
   256
176
     0
 40
1.0
176
     0
 90
        2
176
     1
  1
strokes_ogs.tif
176
     1
290
     0
176
     1
 40
1.0
176
     1
 40
1.0
176
     1
  0
VISUALSTYLE
  5
77E
102
{ACAD_REACTORS
330
774
102
}
330
774
100
AcDbVisualStyle
  2
Conceptual
 70
     9
177
     3
291
     0
 70
    58
 90
        3
176
     1
 90
        2
176
     1
 90
        0
176
     1
 90
        0
176
     1
 40
0.6
176
     1
 40
30.0
176
     1
 62
     7
420
 16777215
176
     1
 90
        2
176
     1
 90
        2
176
     1
 62
     7
176
     1
 62
   257
176
     1
 90
        1
176
     1
 90
        1
176
     1
 40
179.0
176
     1
 90
        8
176
     1
 62
     7
176
     1
 40
1.0
176
     1
 90
        1
176
     1
 90
        6
176
     1
 90
        2
176
     1
 62
     7
176
     1
 90
        3
176
     1
 90
        0
176
     1
 90
        0
176
     1
290
     0
176
     1
 90
        1
176
     1
 40
0.0
176
     1
 90
        0
176
     1
290
     0
176
     1
290
     1
176
     1
290
     1
176
     1
290
     0
176
     1
290
     0
176
     1
290
     0
176
     1
290
     0
176
     1
290
     0
176
     1
290
     0
176
     1
 90
       50
176
     1
 40
0.0
176
     1
 40
1.0
176
     1
 90
        0
176
     1
 62
    18
420
        0
176
     1
 90
       50
176
     1
 90
        3
176
     1
 62
     5
420
      255
176
     1
290
     0
176
     1
 90
       50
176
     1
 90
       50
176
     1
 90
       50
176
     1
290
     0
176
     1
 90
       50
176
     1
 62
   256
176
     0
 40
1.0
176
     0
 90
        2
176
     1
  1
strokes_ogs.tif
176
     1
290
     0
176
     1
 40
1.0
176
     1
 40
1.0
176
     1
  0
VISUALSTYLE
  5
77F
102
{ACAD_REACTORS
330
774
102
}
330
774
100
AcDbVisualStyle
  2
Dim
 70
    11
177
     3
291
     1
 70
    58
 90
        2
176
     1
 90
        2
176
     1
 90
        0
176
     1
 90
        0
176
     1
 40
0.6
176
     1
 40
30.0
176
     1
 62
     7
420
 16777215
176
     1
 90
        1
176
     1
 90
        4
176
     1
 62
     7
176
     1
 62
   257
176
     1
 90
        1
176
     1
 90
        1
176
     1
 40
1.0
176
     1
 90
        8
176
     1
 62
     7
176
     1
 40
1.0
176
     1
 90
        1
176
     1
 90
        6
176
     1
 90
        2
176
     1
 62
     7
176
     1
 90
        5
176
     1
 90
        0
176
     1
 90
        0
176
     1
290
     0
176
     1
 90
        1
176
     1
 40
-50.0
176
     1
 90
        0
176
     1
290
     0
176
     1
290
     1
176
     1
290
     1
176
     1
290
     0
176
     1
290
     0
176
     1
290
     0
176
     1
290
     0
176
     1
290
     0
176
     1
290
     0
176
     1
 90
       50
176
     1
 40
0.0
176
     1
 40
1.0
176
     1
 90
        0
176
     1
 62
    18
420
        0
176
     1
 90
       50
176
     1
 90
        3
176
     1
 62
     5
420
      255
176
     1
290
     0
176
     1
 90
       50
176
     1
 90
       50
176
     1
 90
       50
176
     1
290
     0
176
     1
 90
       50
176
     1
 62
   256
176
     0
 40
1.0
176
     0
 90
        2
176
     1
  1
strokes_ogs.tif
176
     1
290
     0
176
     1
 40
1.0
176
     1
 40
1.0
176
     1
  0
VISUALSTYLE
  5
787
102
{ACAD_REACTORS
330
774
102
}
330
774
100
AcDbVisualStyle
  2
EdgeColorOff
 70
    22
177
     3
291
     1
 70
    58
 90
        2
176
     0
 90
        2
176
     0
 90
        0
176
     0
 90
        0
176
     0
 40
0.6
176
     0
 40
30.0
176
     0
 62
     7
420
 16777215
176
     0
 90
        1
176
     0
 90
        4
176
     0
 62
     7
176
     0
 62
   257
176
     0
 90
        1
176
     0
 90
        1
176
     0
 40
1.0
176
     0
 90
        8
176
     2
 62
     7
176
     0
 40
1.0
176
     0
 90
        1
176
     0
 90
        6
176
     0
 90
        2
176
     0
 62
     7
176
     0
 90
        5
176
     0
 90
        0
176
     0
 90
        0
176
     0
290
     0
176
     0
 90
        1
176
     0
 40
0.0
176
     0
 90
        0
176
     0
290
     0
176
     0
290
     1
176
     0
290
     1
176
     0
290
     0
176
     0
290
     0
176
     0
290
     0
176
     0
290
     0
176
     0
290
     0
176
     0
290
     0
176
     0
 90
       50
176
     0
 40
0.0
176
     0
 40
1.0
176
     0
 90
        0
176
     0
 62
    18
420
        0
176
     0
 90
       50
176
     0
 90
        3
176
     0
 62
     5
420
      255
176
     0
290
     0
176
     0
 90
       50
176
     0
 90
       50
176
     0
 90
       50
176
     0
290
     0
176
     0
 90
       50
176
     0
 62
   256
176
     0
 40
1.0
176
     0
 90
        2
176
     0
  1
strokes_ogs.tif
176
     0
290
     0
176
     0
 40
1.0
176
     0
 40
1.0
176
     0
  0
VISUALSTYLE
  5
783
102
{ACAD_REACTORS
330
774
102
}
330
774
100
AcDbVisualStyle
  2
Facepattern
 70
    15
177
     3
291
     1
 70
    58
 90
        2
176
     1
 90
        2
176
     1
 90
        0
176
     1
 90
        0
176
     1
 40
0.6
176
     1
 40
30.0
176
     1
 62
     7
420
 16777215
176
     1
 90
        1
176
     1
 90
        4
176
     1
 62
     7
176
     1
 62
   257
176
     1
 90
        1
176
     1
 90
        1
176
     1
 40
1.0
176
     1
 90
        8
176
     1
 62
     7
176
     1
 40
1.0
176
     1
 90
        1
176
     1
 90
        6
176
     1
 90
        2
176
     1
 62
     7
176
     1
 90
        5
176
     1
 90
        0
176
     1
 90
        0
176
     1
290
     0
176
     1
 90
        1
176
     1
 40
0.0
176
     1
 90
        0
176
     1
290
     0
176
     1
290
     1
176
     1
290
     1
176
     1
290
     0
176
     1
290
     0
176
     1
290
     0
176
     1
290
     0
176
     1
290
     0
176
     1
290
     0
176
     1
 90
       50
176
     1
 40
0.0
176
     1
 40
1.0
176
     1
 90
        0
176
     1
 62
    18
420
        0
176
     1
 90
       50
176
     1
 90
        3
176
     1
 62
     5
420
      255
176
     1
290
     0
176
     1
 90
       50
176
     1
 90
       50
176
     1
 90
       50
176
     1
290
     0
176
     1
 90
       50
176
     1
 62
   256
176
     0
 40
1.0
176
     0
 90
        2
176
     1
  1
strokes_ogs.tif
176
     1
290
     0
176
     1
 40
1.0
176
     1
 40
1.0
176
     1
  0
VISUALSTYLE
  5
775
102
{ACAD_REACTORS
330
774
102
}
330
774
100
AcDbVisualStyle
  2
Flat
 70
     0
177
     3
291
     1
 70
    58
 90
        2
176
     1
 90
        1
176
     1
 90
        1
176
     1
 90
        2
176
     1
 40
0.6
176
     1
 40
30.0
176
     1
 62
     7
420
 16777215
176
     1
 90
        0
176
     1
 90
        0
176
     1
 62
     7
176
     1
 62
   257
176
     1
 90
        1
176
     1
 90
        1
176
     1
 40
1.0
176
     1
 90
        8
176
     1
 62
     7
176
     1
 40
1.0
176
     1
 90
        1
176
     1
 90
        6
176
     1
 90
        2
176
     1
 62
     7
176
     1
 90
        5
176
     1
 90
        0
176
     1
 90
        0
176
     1
290
     0
176
     1
 90
       13
176
     1
 40
0.0
176
     1
 90
        0
176
     1
290
     0
176
     1
290
     1
176
     1
290
     1
176
     1
290
     0
176
     1
290
     0
176
     1
290
     0
176
     1
290
     0
176
     1
290
     0
176
     1
290
     0
176
     1
 90
       50
176
     1
 40
0.0
176
     1
 40
1.0
176
     1
 90
        0
176
     1
 62
    18
420
        0
176
     1
 90
       50
176
     1
 90
        3
176
     1
 62
     5
420
      255
176
     1
290
     0
176
     1
 90
       50
176
     1
 90
       50
176
     1
 90
       50
176
     1
290
     0
176
     1
 90
       50
176
     1
 62
   256
176
     0
 40
1.0
176
     0
 90
        2
176
     1
  1
strokes_ogs.tif
176
     1
290
     0
176
     1
 40
1.0
176
     1
 40
1.0
176
     1
  0
VISUALSTYLE
  5
776
102
{ACAD_REACTORS
330
774
102
}
330
774
100
AcDbVisualStyle
  2
FlatWithEdges
 70
     1
177
     3
291
     1
 70
    58
 90
        2
176
     1
 90
        1
176
     1
 90
        1
176
     1
 90
        2
176
     1
 40
0.6
176
     1
 40
30.0
176
     1
 62
     7
420
 16777215
176
     1
 90
        1
176
     1
 90
        0
176
     1
 62
     7
176
     1
 62
   257
176
     1
 90
        1
176
     1
 90
        1
176
     1
 40
1.0
176
     1
 90
        0
176
     1
 62
   257
176
     1
 40
1.0
176
     1
 90
        1
176
     1
 90
        6
176
     1
 90
        2
176
     1
 62
     7
176
     1
 90
        5
176
     1
 90
        0
176
     1
 90
        0
176
     1
290
     0
176
     1
 90
       13
176
     1
 40
0.0
176
     1
 90
        0
176
     1
290
     0
176
     1
290
     1
176
     1
290
     1
176
     1
290
     0
176
     1
290
     0
176
     1
290
     0
176
     1
290
     0
176
     1
290
     0
176
     1
290
     0
176
     1
 90
       50
176
     1
 40
0.0
176
     1
 40
1.0
176
     1
 90
        0
176
     1
 62
    18
420
        0
176
     1
 90
       50
176
     1
 90
        3
176
     1
 62
     5
420
      255
176
     1
290
     0
176
     1
 90
       50
176
     1
 90
       50
176
     1
 90
       50
176
     1
290
     0
176
     1
 90
       50
176
     1
 62
   256
176
     0
 40
1.0
176
     0
 90
        2
176
     1
  1
strokes_ogs.tif
176
     1
290
     0
176
     1
 40
1.0
176
     1
 40
1.0
176
     1
  0
VISUALSTYLE
  5
777
102
{ACAD_REACTORS
330
774
102
}
330
774
100
AcDbVisualStyle
  2
Gouraud
 70
     2
177
     3
291
     1
 70
    58
 90
        2
176
     1
 90
        2
176
     1
 90
        1
176
     1
 90
        2
176
     1
 40
0.6
176
     1
 40
30.0
176
     1
 62
     7
420
 16777215
176
     1
 90
        0
176
     1
 90
        0
176
     1
 62
     7
176
     1
 62
   257
176
     1
 90
        1
176
     1
 90
        1
176
     1
 40
1.0
176
     1
 90
        0
176
     1
 62
     7
176
     1
 40
1.0
176
     1
 90
        1
176
     1
 90
        6
176
     1
 90
        2
176
     1
 62
     7
176
     1
 90
        5
176
     1
 90
        0
176
     1
 90
        0
176
     1
290
     0
176
     1
 90
       13
176
     1
 40
0.0
176
     1
 90
        0
176
     1
290
     0
176
     1
290
     1
176
     1
290
     1
176
     1
290
     0
176
     1
290
     0
176
     1
290
     0
176
     1
290
     0
176
     1
290
     0
176
     1
290
     0
176
     1
 90
       50
176
     1
 40
0.0
176
     1
 40
1.0
176
     1
 90
        0
176
     1
 62
    18
420
        0
176
     1
 90
       50
176
     1
 90
        3
176
     1
 62
     5
420
      255
176
     1
290
     0
176
     1
 90
       50
176
     1
 90
       50
176
     1
 90
       50
176
     1
290
     0
176
     1
 90
       50
176
     1
 62
   256
176
     0
 40
1.0
176
     0
 90
        2
176
     1
  1
strokes_ogs.tif
176
     1
290
     0
176
     1
 40
1.0
176
     1
 40
1.0
176
     1
  0
VISUALSTYLE
  5
778
102
{ACAD_REACTORS
330
774
102
}
330
774
100
AcDbVisualStyle
  2
GouraudWithEdges
 70
     3
177
     3
291
     1
 70
    58
 90
        2
176
     1
 90
        2
176
     1
 90
        1
176
     1
 90
        2
176
     1
 40
0.6
176
     1
 40
30.0
176
     1
 62
     7
420
 16777215
176
     1
 90
        1
176
     1
 90
        0
176
     1
 62
     7
176
     1
 62
   257
176
     1
 90
        1
176
     1
 90
        1
176
     1
 40
1.0
176
     1
 90
        0
176
     1
 62
   257
176
     1
 40
1.0
176
     1
 90
        1
176
     1
 90
        6
176
     1
 90
        2
176
     1
 62
     7
176
     1
 90
        5
176
     1
 90
        0
176
     1
 90
        0
176
     1
290
     0
176
     1
 90
       13
176
     1
 40
0.0
176
     1
 90
        0
176
     1
290
     0
176
     1
290
     1
176
     1
290
     1
176
     1
290
     0
176
     1
290
     0
176
     1
290
     0
176
     1
290
     0
176
     1
290
     0
176
     1
290
     0
176
     1
 90
       50
176
     1
 40
0.0
176
     1
 40
1.0
176
     1
 90
        0
176
     1
 62
    18
420
        0
176
     1
 90
       50
176
     1
 90
        3
176
     1
 62
     5
420
      255
176
     1
290
     0
176
     1
 90
       50
176
     1
 90
       50
176
     1
 90
       50
176
     1
290
     0
176
     1
 90
       50
176
     1
 62
   256
176
     0
 40
1.0
176
     0
 90
        2
176
     1
  1
strokes_ogs.tif
176
     1
290
     0
176
     1
 40
1.0
176
     1
 40
1.0
176
     1
  0
VISUALSTYLE
  5
77B
102
{ACAD_REACTORS
330
774
102
}
330
774
100
AcDbVisualStyle
  2
Hidden
 70
     6
177
     3
291
     0
 70
    58
 90
        1
176
     1
 90
        2
176
     1
 90
        2
176
     1
 90
        0
176
     1
 40
0.6
176
     1
 40
30.0
176
     1
 62
     7
420
 16777215
176
     1
 90
        2
176
     1
 90
        2
176
     1
 62
     7
176
     1
 62
   257
176
     1
 90
        2
176
     1
 90
        1
176
     1
 40
40.0
176
     1
 90
        0
176
     1
 62
   257
176
     1
 40
1.0
176
     1
 90
        1
176
     1
 90
        6
176
     1
 90
        2
176
     1
 62
     7
176
     1
 90
        3
176
     1
 90
        0
176
     1
 90
        0
176
     1
290
     0
176
     1
 90
        1
176
     1
 40
0.0
176
     1
 90
        0
176
     1
290
     0
176
     1
290
     1
176
     1
290
     1
176
     1
290
     0
176
     1
290
     0
176
     1
290
     0
176
     1
290
     0
176
     1
290
     0
176
     1
290
     0
176
     1
 90
       50
176
     1
 40
0.0
176
     1
 40
1.0
176
     1
 90
        0
176
     1
 62
    18
420
        0
176
     1
 90
       50
176
     1
 90
        3
176
     1
 62
     5
420
      255
176
     1
290
     0
176
     1
 90
       50
176
     1
 90
       50
176
     1
 90
       50
176
     1
290
     0
176
     1
 90
       50
176
     1
 62
   256
176
     0
 40
1.0
176
     0
 90
        2
176
     1
  1
strokes_ogs.tif
176
     1
290
     0
176
     1
 40
1.0
176
     1
 40
1.0
176
     1
  0
VISUALSTYLE
  5
785
102
{ACAD_REACTORS
330
774
102
}
330
774
100
AcDbVisualStyle
  2
JitterOff
 70
    20
177
     3
291
     1
 70
    58
 90
        2
176
     0
 90
        2
176
     0
 90
        0
176
     0
 90
        0
176
     0
 40
0.6
176
     0
 40
30.0
176
     0
 62
     7
420
 16777215
176
     0
 90
        1
176
     0
 90
        4
176
     0
 62
     7
176
     0
 62
   257
176
     0
 90
        1
176
     0
 90
        1
176
     0
 40
1.0
176
     0
 90
       10
176
     2
 62
     7
176
     0
 40
1.0
176
     0
 90
        1
176
     0
 90
        6
176
     0
 90
        2
176
     0
 62
     7
176
     0
 90
        5
176
     0
 90
        0
176
     0
 90
        0
176
     0
290
     0
176
     0
 90
        1
176
     0
 40
0.0
176
     0
 90
        0
176
     0
290
     0
176
     0
290
     1
176
     0
290
     1
176
     0
290
     0
176
     0
290
     0
176
     0
290
     0
176
     0
290
     0
176
     0
290
     0
176
     0
290
     0
176
     0
 90
       50
176
     0
 40
0.0
176
     0
 40
1.0
176
     0
 90
        0
176
     0
 62
    18
420
        0
176
     0
 90
       50
176
     0
 90
        3
176
     0
 62
     5
420
      255
176
     0
290
     0
176
     0
 90
       50
176
     0
 90
       50
176
     0
 90
       50
176
     0
290
     0
176
     0
 90
       50
176
     0
 62
   256
176
     0
 40
1.0
176
     0
 90
        2
176
     0
  1
strokes_ogs.tif
176
     0
290
     0
176
     0
 40
1.0
176
     0
 40
1.0
176
     0
  0
VISUALSTYLE
  5
782
102
{ACAD_REACTORS
330
774
102
}
330
774
100
AcDbVisualStyle
  2
Linepattern
 70
    14
177
     3
291
     1
 70
    58
 90
        2
176
     1
 90
        2
176
     1
 90
        0
176
     1
 90
        0
176
     1
 40
0.6
176
     1
 40
30.0
176
     1
 62
     7
420
 16777215
176
     1
 90
        1
176
     1
 90
        4
176
     1
 62
     7
176
     1
 62
   257
176
     1
 90
        7
176
     1
 90
        7
176
     1
 40
1.0
176
     1
 90
        8
176
     1
 62
     7
176
     1
 40
1.0
176
     1
 90
        1
176
     1
 90
        6
176
     1
 90
        2
176
     1
 62
     7
176
     1
 90
        5
176
     1
 90
        0
176
     1
 90
        0
176
     1
290
     0
176
     1
 90
        1
176
     1
 40
0.0
176
     1
 90
        0
176
     1
290
     0
176
     1
290
     1
176
     1
290
     1
176
     1
290
     0
176
     1
290
     0
176
     1
290
     0
176
     1
290
     0
176
     1
290
     0
176
     1
290
     0
176
     1
 90
       50
176
     1
 40
0.0
176
     1
 40
1.0
176
     1
 90
        0
176
     1
 62
    18
420
        0
176
     1
 90
       50
176
     1
 90
        3
176
     1
 62
     5
420
      255
176
     1
290
     0
176
     1
 90
       50
176
     1
 90
       50
176
     1
 90
       50
176
     1
290
     0
176
     1
 90
       50
176
     1
 62
   256
176
     0
 40
1.0
176
     0
 90
        2
176
     1
  1
strokes_ogs.tif
176
     1
290
     0
176
     1
 40
1.0
176
     1
 40
1.0
176
     1
  0
VISUALSTYLE
  5
786
102
{ACAD_REACTORS
330
774
102
}
330
774
100
AcDbVisualStyle
  2
OverhangOff
 70
    21
177
     3
291
     1
 70
    58
 90
        2
176
     0
 90
        2
176
     0
 90
        0
176
     0
 90
        0
176
     0
 40
0.6
176
     0
 40
30.0
176
     0
 62
     7
420
 16777215
176
     0
 90
        1
176
     0
 90
        4
176
     0
 62
     7
176
     0
 62
   257
176
     0
 90
        1
176
     0
 90
        1
176
     0
 40
1.0
176
     0
 90
        9
176
     2
 62
     7
176
     0
 40
1.0
176
     0
 90
        1
176
     0
 90
        6
176
     0
 90
        2
176
     0
 62
     7
176
     0
 90
        5
176
     0
 90
        0
176
     0
 90
        0
176
     0
290
     0
176
     0
 90
        1
176
     0
 40
0.0
176
     0
 90
        0
176
     0
290
     0
176
     0
290
     1
176
     0
290
     1
176
     0
290
     0
176
     0
290
     0
176
     0
290
     0
176
     0
290
     0
176
     0
290
     0
176
     0
290
     0
176
     0
 90
       50
176
     0
 40
0.0
176
     0
 40
1.0
176
     0
 90
        0
176
     0
 62
    18
420
        0
176
     0
 90
       50
176
     0
 90
        3
176
     0
 62
     5
420
      255
176
     0
290
     0
176
     0
 90
       50
176
     0
 90
       50
176
     0
 90
       50
176
     0
290
     0
176
     0
 90
       50
176
     0
 62
   256
176
     0
 40
1.0
176
     0
 90
        2
176
     0
  1
strokes_ogs.tif
176
     0
290
     0
176
     0
 40
1.0
176
     0
 40
1.0
176
     0
  0
VISUALSTYLE
  5
77D
102
{ACAD_REACTORS
330
774
102
}
330
774
100
AcDbVisualStyle
  2
Realistic
 70
     8
177
     3
291
     0
 70
    58
 90
        2
176
     1
 90
        3
176
     1
 90
        0
176
     1
 90
        2
176
     1
 40
0.6
176
     1
 40
30.0
176
     1
 62
     7
420
 16777215
176
     1
 90
        0
176
     1
 90
        0
176
     1
 62
     7
176
     1
 62
   257
176
     1
 90
        1
176
     1
 90
        1
176
     1
 40
1.0
176
     1
 90
        8
176
     1
 62
   257
176
     1
 40
1.0
176
     1
 90
        1
176
     1
 90
        6
176
     1
 90
        2
176
     1
 62
     7
176
     1
 90
        3
176
     1
 90
        0
176
     1
 90
        0
176
     1
290
     0
176
     1
 90
       13
176
     1
 40
0.0
176
     1
 90
        0
176
     1
290
     0
176
     1
290
     1
176
     1
290
     1
176
     1
290
     0
176
     1
290
     0
176
     1
290
     0
176
     1
290
     0
176
     1
290
     0
176
     1
290
     0
176
     1
 90
       50
176
     1
 40
0.0
176
     1
 40
1.0
176
     1
 90
        0
176
     1
 62
    18
420
        0
176
     1
 90
       50
176
     1
 90
        3
176
     1
 62
     5
420
      255
176
     1
290
     0
176
     1
 90
       50
176
     1
 90
       50
176
     1
 90
       50
176
     1
290
     0
176
     1
 90
       50
176
     1
 62
   256
176
     0
 40
1.0
176
     0
 90
        2
176
     1
  1
strokes_ogs.tif
176
     1
290
     0
176
     1
 40
1.0
176
     1
 40
1.0
176
     1
  0
VISUALSTYLE
  5
78C
102
{ACAD_REACTORS
330
774
102
}
330
774
100
AcDbVisualStyle
  2
Shaded
 70
    27
177
     3
291
     0
 70
    58
 90
        2
176
     1
 90
        2
176
     1
 90
        1
176
     1
 90
        2
176
     1
 40
0.6
176
     1
 40
30.0
176
     1
 62
     7
420
 16777215
176
     1
 90
        0
176
     1
 90
        4
176
     1
 62
     7
176
     1
 62
   257
176
     1
 90
        1
176
     1
 90
        1
176
     1
 40
1.0
176
     1
 90
        8
176
     1
 62
   257
176
     1
 40
1.0
176
     1
 90
        1
176
     1
 90
        6
176
     1
 90
        2
176
     1
 62
     8
420
  7895160
176
     1
 90
        3
176
     1
 90
        0
176
     1
 90
        0
176
     1
290
     0
176
     1
 90
        5
176
     1
 40
0.0
176
     1
 90
        0
176
     1
290
     0
176
     1
290
     1
176
     1
290
     1
176
     1
290
     0
176
     1
290
     0
176
     1
290
     0
176
     1
290
     0
176
     1
290
     0
176
     1
290
     0
176
     1
 90
       50
176
     1
 40
0.0
176
     1
 40
1.0
176
     1
 90
        0
176
     1
 62
    18
420
        0
176
     1
 90
       50
176
     1
 90
        3
176
     1
 62
     5
420
      255
176
     1
290
     0
176
     1
 90
       50
176
     1
 90
       50
176
     1
 90
       50
176
     1
290
     0
176
     1
 90
       50
176
     1
 62
   256
176
     0
 40
1.0
176
     0
 90
        2
176
     1
  1
strokes_ogs.tif
176
     1
290
     0
176
     1
 40
1.0
176
     1
 40
1.0
176
     1
  0
VISUALSTYLE
  5
78B
102
{ACAD_REACTORS
330
774
102
}
330
774
100
AcDbVisualStyle
  2
Shaded with edges
 70
    26
177
     3
291
     0
 70
    58
 90
        2
176
     1
 90
        2
176
     1
 90
        1
176
     1
 90
        2
176
     1
 40
0.6
176
     1
 40
30.0
176
     1
 62
     7
420
 16777215
176
     1
 90
        1
176
     1
 90
       10
176
     1
 62
     7
176
     1
 62
   257
176
     1
 90
        2
176
     1
 90
        1
176
     1
 40
1.0
176
     1
 90
        8
176
     1
 62
   257
176
     1
 40
1.0
176
     1
 90
        1
176
     1
 90
        6
176
     1
 90
        2
176
     1
 62
     7
176
     1
 90
        3
176
     1
 90
        0
176
     1
 90
        0
176
     1
290
     0
176
     1
 90
        5
176
     1
 40
0.0
176
     1
 90
        0
176
     1
290
     0
176
     1
290
     1
176
     1
290
     1
176
     1
290
     0
176
     1
290
     0
176
     1
290
     0
176
     1
290
     0
176
     1
290
     0
176
     1
290
     0
176
     1
 90
       50
176
     1
 40
0.0
176
     1
 40
1.0
176
     1
 90
        0
176
     1
 62
    18
420
        0
176
     1
 90
       50
176
     1
 90
        3
176
     1
 62
     5
420
      255
176
     1
290
     0
176
     1
 90
       50
176
     1
 90
       50
176
     1
 90
       50
176
     1
290
     0
176
     1
 90
       50
176
     1
 62
   256
176
     0
 40
1.0
176
     0
 90
        2
176
     1
  1
strokes_ogs.tif
176
     1
290
     0
176
     1
 40
1.0
176
     1
 40
1.0
176
     1
  0
VISUALSTYLE
  5
788
102
{ACAD_REACTORS
330
774
102
}
330
774
100
AcDbVisualStyle
  2
Shades of Gray
 70
    23
177
     3
291
     0
 70
    58
 90
        2
176
     1
 90
        2
176
     1
 90
        3
176
     1
 90
        0
176
     1
 40
0.6
176
     1
 40
30.0
176
     1
 62
     7
420
 16777215
176
     1
 90
        2
176
     1
 90
        2
176
     1
 62
     7
176
     1
 62
     7
176
     1
 90
        1
176
     1
 90
        1
176
     1
 40
40.0
176
     1
 90
        8
176
     1
 62
     7
176
     1
 40
1.0
176
     1
 90
        1
176
     1
 90
        6
176
     1
 90
        2
176
     1
 62
     7
176
     1
 90
        3
176
     1
 90
        0
176
     1
 90
        0
176
     1
290
     0
176
     1
 90
        1
176
     1
 40
0.0
176
     1
 90
        0
176
     1
290
     0
176
     1
290
     1
176
     1
290
     1
176
     1
290
     0
176
     1
290
     0
176
     1
290
     0
176
     1
290
     0
176
     1
290
     0
176
     1
290
     0
176
     1
 90
       50
176
     1
 40
0.0
176
     1
 40
1.0
176
     1
 90
        0
176
     1
 62
    18
420
        0
176
     1
 90
       50
176
     1
 90
        3
176
     1
 62
     5
420
      255
176
     1
290
     0
176
     1
 90
       50
176
     1
 90
       50
176
     1
 90
       50
176
     1
290
     0
176
     1
 90
       50
176
     1
 62
   256
176
     0
 40
1.0
176
     0
 90
        2
176
     1
  1
strokes_ogs.tif
176
     1
290
     0
176
     1
 40
1.0
176
     1
 40
1.0
176
     1
  0
VISUALSTYLE
  5
789
102
{ACAD_REACTORS
330
774
102
}
330
774
100
AcDbVisualStyle
  2
Sketchy
 70
    24
177
     3
291
     0
 70
    58
 90
        1
176
     1
 90
        2
176
     1
 90
        2
176
     1
 90
        0
176
     1
 40
0.6
176
     1
 40
30.0
176
     1
 62
     7
420
 16777215
176
     1
 90
        2
176
     1
 90
        2
176
     1
 62
     7
176
     1
 62
     7
176
     1
 90
        1
176
     1
 90
        1
176
     1
 40
40.0
176
     1
 90
       11
176
     1
 62
     7
176
     1
 40
1.0
176
     1
 90
        1
176
     1
 90
        6
176
     1
 90
        2
176
     1
 62
     7
176
     1
 90
        6
176
     1
 90
        0
176
     1
 90
        0
176
     1
290
     0
176
     1
 90
        1
176
     1
 40
0.0
176
     1
 90
        0
176
     1
290
     0
176
     1
290
     1
176
     1
290
     1
176
     1
290
     0
176
     1
290
     0
176
     1
290
     0
176
     1
290
     0
176
     1
290
     0
176
     1
290
     0
176
     1
 90
       50
176
     1
 40
0.0
176
     1
 40
1.0
176
     1
 90
        0
176
     1
 62
    18
420
        0
176
     1
 90
       50
176
     1
 90
        3
176
     1
 62
     5
420
      255
176
     1
290
     0
176
     1
 90
       50
176
     1
 90
       50
176
     1
 90
       50
176
     1
290
     0
176
     1
 90
       50
176
     1
 62
   256
176
     0
 40
1.0
176
     0
 90
        2
176
     1
  1
strokes_ogs.tif
176
     1
290
     0
176
     1
 40
1.0
176
     1
 40
1.0
176
     1
  0
VISUALSTYLE
  5
781
102
{ACAD_REACTORS
330
774
102
}
330
774
100
AcDbVisualStyle
  2
Thicken
 70
    13
177
     3
291
     1
 70
    58
 90
        2
176
     1
 90
        2
176
     1
 90
        0
176
     1
 90
        0
176
     1
 40
0.6
176
     1
 40
30.0
176
     1
 62
     7
420
 16777215
176
     1
 90
        1
176
     1
 90
        4
176
     1
 62
     7
176
     1
 62
   257
176
     1
 90
        1
176
     1
 90
        1
176
     1
 40
1.0
176
     1
 90
       12
176
     1
 62
     7
176
     1
 40
1.0
176
     1
 90
        1
176
     1
 90
        6
176
     1
 90
        2
176
     1
 62
     7
176
     1
 90
        5
176
     1
 90
        0
176
     1
 90
        0
176
     1
290
     0
176
     1
 90
        1
176
     1
 40
0.0
176
     1
 90
        0
176
     1
290
     0
176
     1
290
     1
176
     1
290
     1
176
     1
290
     0
176
     1
290
     0
176
     1
290
     0
176
     1
290
     0
176
     1
290
     0
176
     1
290
     0
176
     1
 90
       50
176
     1
 40
0.0
176
     1
 40
1.0
176
     1
 90
        0
176
     1
 62
    18
420
        0
176
     1
 90
       50
176
     1
 90
        3
176
     1
 62
     5
420
      255
176
     1
290
     0
176
     1
 90
       50
176
     1
 90
       50
176
     1
 90
       50
176
     1
290
     0
176
     1
 90
       50
176
     1
 62
   256
176
     0
 40
1.0
176
     0
 90
        2
176
     1
  1
strokes_ogs.tif
176
     1
290
     0
176
     1
 40
1.0
176
     1
 40
1.0
176
     1
  0
VISUALSTYLE
  5
77A
102
{ACAD_REACTORS
330
774
102
}
330
774
100
AcDbVisualStyle
  2
Wireframe
 70
     5
177
     3
291
     0
 70
    58
 90
        0
176
     1
 90
        2
176
     1
 90
        0
176
     1
 90
        0
176
     1
 40
0.6
176
     1
 40
30.0
176
     1
 62
     7
420
 16777215
176
     1
 90
        1
176
     1
 90
        4
176
     1
 62
     7
176
     1
 62
   257
176
     1
 90
        1
176
     1
 90
        1
176
     1
 40
1.0
176
     1
 90
        0
176
     1
 62
   257
176
     1
 40
1.0
176
     1
 90
        1
176
     1
 90
        6
176
     1
 90
        2
176
     1
 62
     7
176
     1
 90
        3
176
     1
 90
        0
176
     1
 90
        0
176
     1
290
     0
176
     1
 90
        1
176
     1
 40
0.0
176
     1
 90
        0
176
     1
290
     0
176
     1
290
     1
176
     1
290
     1
176
     1
290
     0
176
     1
290
     0
176
     1
290
     0
176
     1
290
     0
176
     1
290
     0
176
     1
290
     0
176
     1
 90
       50
176
     1
 40
0.0
176
     1
 40
1.0
176
     1
 90
        0
176
     1
 62
    18
420
        0
176
     1
 90
       50
176
     1
 90
        3
176
     1
 62
     5
420
      255
176
     1
290
     0
176
     1
 90
       50
176
     1
 90
       50
176
     1
 90
       50
176
     1
290
     0
176
     1
 90
       50
176
     1
 62
   256
176
     0
 40
1.0
176
     0
 90
        2
176
     1
  1
strokes_ogs.tif
176
     1
290
     0
176
     1
 40
1.0
176
     1
 40
1.0
176
     1
  0
VISUALSTYLE
  5
78A
102
{ACAD_REACTORS
330
774
102
}
330
774
100
AcDbVisualStyle
  2
X-Ray
 70
    25
177
     3
291
     0
 70
    58
 90
        2
176
     1
 90
        2
176
     1
 90
        1
176
     1
 90
        1
176
     1
 40
0.5
176
     1
 40
30.0
176
     1
 62
     7
420
 16777215
176
     1
 90
        1
176
     1
 90
        0
176
     1
 62
     7
176
     1
 62
   257
176
     1
 90
        1
176
     1
 90
        1
176
     1
 40
1.0
176
     1
 90
        8
176
     1
 62
     7
176
     1
 40
1.0
176
     1
 90
        1
176
     1
 90
        6
176
     1
 90
        2
176
     1
 62
     7
176
     1
 90
        3
176
     1
 90
        0
176
     1
 90
        0
176
     1
290
     0
176
     1
 90
       13
176
     1
 40
0.0
176
     1
 90
        0
176
     1
290
     0
176
     1
290
     1
176
     1
290
     1
176
     1
290
     0
176
     1
290
     0
176
     1
290
     0
176
     1
290
     0
176
     1
290
     0
176
     1
290
     0
176
     1
 90
       50
176
     1
 40
0.0
176
     1
 40
1.0
176
     1
 90
        0
176
     1
 62
    18
420
        0
176
     1
 90
       50
176
     1
 90
        3
176
     1
 62
     5
420
      255
176
     1
290
     0
176
     1
 90
       50
176
     1
 90
       50
176
     1
 90
       50
176
     1
290
     0
176
     1
 90
       50
176
     1
 62
   256
176
     0
 40
1.0
176
     0
 90
        2
176
     1
  1
strokes_ogs.tif
176
     1
290
     0
176
     1
 40
1.0
176
     1
 40
1.0
176
     1
  0
DICTIONARYVAR
  5
818
102
{ACAD_REACTORS
330
817
102
}
330
817
100
DictionaryVariables
280
     0
  1
1:1
  0
DICTIONARYVAR
  5
81D
102
{ACAD_REACTORS
330
817
102
}
330
817
100
DictionaryVariables
280
     0
  1
Standard
  0
DICTIONARYVAR
  5
81C
102
{ACAD_REACTORS
330
817
102
}
330
817
100
DictionaryVariables
280
     0
  1
Standard
  0
XRECORD
  5
7AB
102
{ACAD_REACTORS
330
7A9
102
}
330
7A9
100
AcDbXrecord
280
     1
1000
#ffffff
  0
XRECORD
  5
7AC
102
{ACAD_REACTORS
330
7A9
102
}
330
7A9
100
AcDbXrecord
280
     1
1000
FullColor
  0
XRECORD
  5
7AD
102
{ACAD_REACTORS
330
7A9
102
}
330
7A9
100
AcDbXrecord
280
     1
290
     0
  0
XRECORD
  5
7AE
102
{ACAD_REACTORS
330
7A9
102
}
330
7A9
100
AcDbXrecord
280
     1
290
     1
  0
XRECORD
  5
7AF
102
{ACAD_REACTORS
330
7A9
102
}
330
7A9
100
AcDbXrecord
280
     1
290
     1
  0
XRECORD
  5
7B0
102
{ACAD_REACTORS
330
7A9
102
}
330
7A9
100
AcDbXrecord
280
     1
290
     1
  0
XRECORD
  5
7B1
102
{ACAD_REACTORS
330
7A9
102
}
330
7A9
100
AcDbXrecord
280
     1
1000
auto
  0
XRECORD
  5
7B2
102
{ACAD_REACTORS
330
7A9
102
}
330
7A9
100
AcDbXrecord
280
     1
1000
auto
  0
XRECORD
  5
7B3
102
{ACAD_REACTORS
330
7A9
102
}
330
7A9
100
AcDbXrecord
280
     1
1000
auto
  0
XRECORD
  5
7B4
102
{ACAD_REACTORS
330
7A9
102
}
330
7A9
100
AcDbXrecord
280
     1
1000
auto
  0
XRECORD
  5
7B5
102
{ACAD_REACTORS
330
7A9
102
}
330
7A9
100
AcDbXrecord
280
     1
1000
auto
  0
XRECORD
  5
7B6
102
{ACAD_REACTORS
330
7A9
102
}
330
7A9
100
AcDbXrecord
280
     1
1000
auto
  0
XRECORD
  5
7B7
102
{ACAD_REACTORS
330
7A9
102
}
330
7A9
100
AcDbXrecord
280
     1
1000
auto
  0
XRECORD
  5
7B8
102
{ACAD_REACTORS
330
7A9
102
}
330
7A9
100
AcDbXrecord
280
     1
1000
auto
  0
XRECORD
  5
7B9
102
{ACAD_REACTORS
330
7A9
102
}
330
7A9
100
AcDbXrecord
280
     1
290
     0
  0
XRECORD
  5
7BA
102
{ACAD_REACTORS
330
7A9
102
}
330
7A9
100
AcDbXrecord
280
     1
290
     0
  0
XRECORD
  5
7BB
102
{ACAD_REACTORS
330
7A9
102
}
330
7A9
100
AcDbXrecord
280
     1
290
     0
  0
XRECORD
  5
7BC
102
{ACAD_REACTORS
330
7A9
102
}
330
7A9
100
AcDbXrecord
280
     1
290
     0
  0
XRECORD
  5
7BD
102
{ACAD_REACTORS
330
7A9
102
}
330
7A9
100
AcDbXrecord
280
     1
 90
    65537
  0
XRECORD
  5
7BE
102
{ACAD_REACTORS
330
7A9
102
}
330
7A9
100
AcDbXrecord
280
     1
 90
    65537
  0
XRECORD
  5
7BF
102
{ACAD_REACTORS
330
7A9
102
}
330
7A9
100
AcDbXrecord
280
     1
 90
    65537
  0
XRECORD
  5
7C0
102
{ACAD_REACTORS
330
7A9
102
}
330
7A9
100
AcDbXrecord
280
     1
 90
    65537
  0
XRECORD
  5
7C1
102
{ACAD_REACTORS
330
7A9
102
}
330
7A9
100
AcDbXrecord
280
     1
1000
auto
  0
XRECORD
  5
7C2
102
{ACAD_REACTORS
330
7A9
102
}
330
7A9
100
AcDbXrecord
280
     1
1000
auto
  0
XRECORD
  5
7C3
102
{ACAD_REACTORS
330
7A9
102
}
330
7A9
100
AcDbXrecord
280
     1
1000
auto
  0
XRECORD
  5
7C4
102
{ACAD_REACTORS
330
7A9
102
}
330
7A9
100
AcDbXrecord
280
     1
1000
auto
  0
XRECORD
  5
7C5
102
{ACAD_REACTORS
330
7A9
102
}
330
7A9
100
AcDbXrecord
280
     1
1000
auto
  0
XRECORD
  5
7C6
102
{ACAD_REACTORS
330
7A9
102
}
330
7A9
100
AcDbXrecord
280
     1
1000
auto
  0
XRECORD
  5
7C7
102
{ACAD_REACTORS
330
7A9
102
}
330
7A9
100
AcDbXrecord
280
     1
1000
auto
  0
XRECORD
  5
7C8
102
{ACAD_REACTORS
330
7A9
102
}
330
7A9
100
AcDbXrecord
280
     1
1000
auto
  0
XRECORD
  5
7C9
102
{ACAD_REACTORS
330
7A9
102
}
330
7A9
100
AcDbXrecord
280
     1
 90
        1
  0
XRECORD
  5
7CA
102
{ACAD_REACTORS
330
7A9
102
}
330
7A9
100
AcDbXrecord
280
     1
 40
10.0
  0
XRECORD
  5
7CB
102
{ACAD_REACTORS
330
7A9
102
}
330
7A9
100
AcDbXrecord
280
     1
 40
10.0
  0
XRECORD
  5
7CC
102
{ACAD_REACTORS
330
7A9
102
}
330
7A9
100
AcDbXrecord
280
     1
 40
10.0
  0
XRECORD
  5
7CD
102
{ACAD_REACTORS
330
7A9
102
}
330
7A9
100
AcDbXrecord
280
     1
 40
10.0
  0
XRECORD
  5
7CE
102
{ACAD_REACTORS
330
7A9
102
}
330
7A9
100
AcDbXrecord
280
     1
290
     0
  0
XRECORD
  5
7CF
102
{ACAD_REACTORS
330
7A9
102
}
330
7A9
100
AcDbXrecord
280
     1
 90
        1
  0
XRECORD
  5
7D0
102
{ACAD_REACTORS
330
7A9
102
}
330
7A9
100
AcDbXrecord
280
     1
 40
0.0
  0
XRECORD
  5
7D1
102
{ACAD_REACTORS
330
7A9
102
}
330
7A9
100
AcDbXrecord
280
     1
 40
0.0
  0
XRECORD
  5
7D2
102
{ACAD_REACTORS
330
7A9
102
}
330
7A9
100
AcDbXrecord
280
     1
1000
Portrait
  0
XRECORD
  5
7D3
102
{ACAD_REACTORS
330
7A9
102
}
330
7A9
100
AcDbXrecord
280
     1
 40
297.0
  0
XRECORD
  5
7D4
102
{ACAD_REACTORS
330
7A9
102
}
330
7A9
100
AcDbXrecord
280
     1
 40
210.0
  0
XRECORD
  5
7D5
102
{ACAD_REACTORS
330
7A9
102
}
330
7A9
100
AcDbXrecord
280
     1
1000
1:1
  0
XRECORD
  5
7D6
102
{ACAD_REACTORS
330
7A9
102
}
330
7A9
100
AcDbXrecord
280
     1
290
     1
  0
XRECORD
  5
7D7
102
{ACAD_REACTORS
330
7A9
102
}
330
7A9
100
AcDbXrecord
280
     1
290
     0
  0
XRECORD
  5
7D8
102
{ACAD_REACTORS
330
7A9
102
}
330
7A9
100
AcDbXrecord
280
     1
1000
Inside
  0
XRECORD
  5
7D9
102
{ACAD_REACTORS
330
7A9
102
}
330
7A9
100
AcDbXrecord
280
     1
1000
Arial,10,-1,5,50,0,0,0,0,0
  0
XRECORD
  5
7DA
102
{ACAD_REACTORS
330
7A9
102
}
330
7A9
100
AcDbXrecord
280
     1
1000
TopLeft
  0
XRECORD
  5
7DB
102
{ACAD_REACTORS
330
7A9
102
}
330
7A9
100
AcDbXrecord
280
     1
1000
3.27.6
  0
XRECORD
  5
7DC
102
{ACAD_REACTORS
330
7A9
102
}
330
7A9
100
AcDbXrecord
280
     1
 90
        4
  0
XRECORD
  5
7DD
102
{ACAD_REACTORS
330
7A9
102
}
330
7A9
100
AcDbXrecord
280
     1
  0
XRECORD
  5
7DE
102
{ACAD_REACTORS
330
7A9
102
}
330
7A9
100
AcDbXrecord
280
     1
 40
221.2671911966986
  0
XRECORD
  5
7DF
102
{ACAD_REACTORS
330
7A9
102
}
330
7A9
100
AcDbXrecord
280
     1
 40
454.0052599724894
  0
DICTIONARY
  5
819
330
7A4
100
AcDbDictionary
280
     1
281
     1
  3
ACAD_ROUNDTRIP_2008_TABLESTYLE_CELLSTYLEMAP
360
81A
  0
CELLSTYLEMAP
  5
81A
102
{ACAD_REACTORS
330
819
102
}
330
819
100
AcDbCellStyleMap
 90
        3
300
CELLSTYLE
  1
TABLEFORMAT_BEGIN
 90
        5
170
     1
 91
        0
 92
    32768
 62
   257
 93
        1
300
CONTENTFORMAT
  1
CONTENTFORMAT_BEGIN
 90
        0
 91
        0
 92
        4
 93
        0
300

 40
0.0
140
1.0
 94
        5
 62
     0
340
75C
144
0.25
309
CONTENTFORMAT_END
171
     1
301
MARGIN
  1
CELLMARGIN_BEGIN
 40
0.06
 40
0.06
 40
0.06
 40
0.06
 40
0.06
 40
0.06
309
CELLMARGIN_END
 94
        6
 95
        1
302
GRIDFORMAT
  1
GRIDFORMAT_BEGIN
 90
        0
 91
        1
 62
     0
 92
       -2
340
75E
 93
        0
 40
0.045
309
GRIDFORMAT_END
 95
        2
302
GRIDFORMAT
  1
GRIDFORMAT_BEGIN
 90
        0
 91
        1
 62
     0
 92
       -2
340
75E
 93
        0
 40
0.045
309
GRIDFORMAT_END
 95
        4
302
GRIDFORMAT
  1
GRIDFORMAT_BEGIN
 90
        0
 91
        1
 62
     0
 92
       -2
340
75E
 93
        0
 40
0.045
309
GRIDFORMAT_END
 95
        8
302
GRIDFORMAT
  1
GRIDFORMAT_BEGIN
 90
        0
 91
        1
 62
     0
 92
       -2
340
75E
 93
        0
 40
0.045
309
GRIDFORMAT_END
 95
       16
302
GRIDFORMAT
  1
GRIDFORMAT_BEGIN
 90
        0
 91
        1
 62
     0
 92
       -2
340
75E
 93
        0
 40
0.045
309
GRIDFORMAT_END
 95
       32
302
GRIDFORMAT
  1
GRIDFORMAT_BEGIN
 90
        0
 91
        1
 62
     0
 92
       -2
340
75E
 93
        0
 40
0.045
309
GRIDFORMAT_END
309
TABLEFORMAT_END
  1
CELLSTYLE_BEGIN
 90
        1
 91
        1
300
_TITLE
309
CELLSTYLE_END
300
CELLSTYLE
  1
TABLEFORMAT_BEGIN
 90
        5
170
     1
 91
        0
 92
        0
 62
   257
 93
        1
300
CONTENTFORMAT
  1
CONTENTFORMAT_BEGIN
 90
        0
 91
        0
 92
        4
 93
        0
300

 40
0.0
140
1.0
 94
        5
 62
     0
340
75C
144
0.18
309
CONTENTFORMAT_END
171
     1
301
MARGIN
  1
CELLMARGIN_BEGIN
 40
0.06
 40
0.06
 40
0.06
 40
0.06
 40
0.06
 40
0.06
309
CELLMARGIN_END
 94
        6
 95
        1
302
GRIDFORMAT
  1
GRIDFORMAT_BEGIN
 90
        0
 91
        1
 62
     0
 92
       -2
340
75E
 93
        0
 40
0.045
309
GRIDFORMAT_END
 95
        2
302
GRIDFORMAT
  1
GRIDFORMAT_BEGIN
 90
        0
 91
        1
 62
     0
 92
       -2
340
75E
 93
        0
 40
0.045
309
GRIDFORMAT_END
 95
        4
302
GRIDFORMAT
  1
GRIDFORMAT_BEGIN
 90
        0
 91
        1
 62
     0
 92
       -2
340
75E
 93
        0
 40
0.045
309
GRIDFORMAT_END
 95
        8
302
GRIDFORMAT
  1
GRIDFORMAT_BEGIN
 90
        0
 91
        1
 62
     0
 92
       -2
340
75E
 93
        0
 40
0.045
309
GRIDFORMAT_END
 95
       16
302
GRIDFORMAT
  1
GRIDFORMAT_BEGIN
 90
        0
 91
        1
 62
     0
 92
       -2
340
75E
 93
        0
 40
0.045
309
GRIDFORMAT_END
 95
       32
302
GRIDFORMAT
  1
GRIDFORMAT_BEGIN
 90
        0
 91
        1
 62
     0
 92
       -2
340
75E
 93
        0
 40
0.045
309
GRIDFORMAT_END
309
TABLEFORMAT_END
  1
CELLSTYLE_BEGIN
 90
        2
 91
        1
300
_HEADER
309
CELLSTYLE_END
300
CELLSTYLE
  1
TABLEFORMAT_BEGIN
 90
        5
170
     1
 91
        0
 92
        0
 62
   257
 93
        1
300
CONTENTFORMAT
  1
CONTENTFORMAT_BEGIN
 90
        0
 91
        0
 92
        4
 93
        0
300

 40
0.0
140
1.0
 94
        2
 62
     0
340
75C
144
0.18
309
CONTENTFORMAT_END
171
     1
301
MARGIN
  1
CELLMARGIN_BEGIN
 40
0.06
 40
0.06
 40
0.06
 40
0.06
 40
0.06
 40
0.06
309
CELLMARGIN_END
 94
        6
 95
        1
302
GRIDFORMAT
  1
GRIDFORMAT_BEGIN
 90
        0
 91
        1
 62
     0
 92
       -2
340
75E
 93
        0
 40
0.045
309
GRIDFORMAT_END
 95
        2
302
GRIDFORMAT
  1
GRIDFORMAT_BEGIN
 90
        0
 91
        1
 62
     0
 92
       -2
340
75E
 93
        0
 40
0.045
309
GRIDFORMAT_END
 95
        4
302
GRIDFORMAT
  1
GRIDFORMAT_BEGIN
 90
        0
 91
        1
 62
     0
 92
       -2
340
75E
 93
        0
 40
0.045
309
GRIDFORMAT_END
 95
        8
302
GRIDFORMAT
  1
GRIDFORMAT_BEGIN
 90
        0
 91
        1
 62
     0
 92
       -2
340
75E
 93
        0
 40
0.045
309
GRIDFORMAT_END
 95
       16
302
GRIDFORMAT
  1
GRIDFORMAT_BEGIN
 90
        0
 91
        1
 62
     0
 92
       -2
340
75E
 93
        0
 40
0.045
309
GRIDFORMAT_END
 95
       32
302
GRIDFORMAT
  1
GRIDFORMAT_BEGIN
 90
        0
 91
        1
 62
     0
 92
       -2
340
75E
 93
        0
 40
0.045
309
GRIDFORMAT_END
309
TABLEFORMAT_END
  1
CELLSTYLE_BEGIN
 90
        3
 91
        2
300
_DATA
309
CELLSTYLE_END
  0
ENDSEC
  0
EOF
