0
SECTION
2
HEADER
9
$INSUNITS
70
4
0
ENDSEC
0
SECTION
2
TABLES
0
TABLE
2
LTYPE
0
LTYPE
72
65
70
64
2
CONTINUOUS
3
______
73
0
40
0
0
ENDTAB
0
TABLE
2
LAYER
0
ENDTAB
0
ENDSEC
0
SECTION
2
ENTITIES
0
LINE
8
0
10
3.025
20
-2.525
11
16.025
21
-2.525
0
LINE
8
0
10
3.025
20
-16.525
11
16.025
21
-16.525
0
LINE
8
0
10
2.525
20
-3.025
11
2.525
21
-16.025
0
LINE
8
0
10
16.525
20
-3.025
11
16.525
21
-16.025
0
ARC
8
0
10
3.025
20
-3.025
40
0.5
50
90
51
180
0
ARC
8
0
10
16.025
20
-3.025
40
0.5
50
0
51
90
0
ARC
8
0
10
3.025
20
-16.025
40
0.5
50
180
51
270
0
ARC
8
0
10
16.025
20
-16.025
40
0.5
50
270
51
0
0
LINE
8
0
10
22.075
20
-2.525
11
35.075
21
-2.525
0
LINE
8
0
10
22.075
20
-16.525
11
35.075
21
-16.525
0
LINE
8
0
10
21.575
20
-3.025
11
21.575
21
-16.025
0
LINE
8
0
10
35.575
20
-3.025
11
35.575
21
-16.025
0
ARC
8
0
10
22.075
20
-3.025
40
0.5
50
90
51
180
0
ARC
8
0
10
35.075
20
-3.025
40
0.5
50
0
51
90
0
ARC
8
0
10
22.075
20
-16.025
40
0.5
50
180
51
270
0
ARC
8
0
10
35.075
20
-16.025
40
0.5
50
270
51
0
0
LINE
8
0
10
41.125
20
-2.525
11
54.125
21
-2.525
0
LINE
8
0
10
41.125
20
-16.525
11
54.125
21
-16.525
0
LINE
8
0
10
40.625
20
-3.025
11
40.625
21
-16.025
0
LINE
8
0
10
54.625
20
-3.025
11
54.625
21
-16.025
0
ARC
8
0
10
41.125
20
-3.025
40
0.5
50
90
51
180
0
ARC
8
0
10
54.125
20
-3.025
40
0.5
50
0
51
90
0
ARC
8
0
10
41.125
20
-16.025
40
0.5
50
180
51
270
0
ARC
8
0
10
54.125
20
-16.025
40
0.5
50
270
51
0
0
LINE
8
0
10
60.175
20
-2.525
11
73.175
21
-2.525
0
LINE
8
0
10
60.175
20
-16.525
11
73.175
21
-16.525
0
LINE
8
0
10
59.675
20
-3.025
11
59.675
21
-16.025
0
LINE
8
0
10
73.675
20
-3.025
11
73.675
21
-16.025
0
ARC
8
0
10
60.175
20
-3.025
40
0.5
50
90
51
180
0
ARC
8
0
10
73.175
20
-3.025
40
0.5
50
0
51
90
0
ARC
8
0
10
60.175
20
-16.025
40
0.5
50
180
51
270
0
ARC
8
0
10
73.175
20
-16.025
40
0.5
50
270
51
0
0
LINE
8
0
10
79.225
20
-2.525
11
92.225
21
-2.525
0
LINE
8
0
10
79.225
20
-16.525
11
92.225
21
-16.525
0
LINE
8
0
10
78.725
20
-3.025
11
78.725
21
-16.025
0
LINE
8
0
10
92.725
20
-3.025
11
92.725
21
-16.025
0
ARC
8
0
10
79.225
20
-3.025
40
0.5
50
90
51
180
0
ARC
8
0
10
92.225
20
-3.025
40
0.5
50
0
51
90
0
ARC
8
0
10
79.225
20
-16.025
40
0.5
50
180
51
270
0
ARC
8
0
10
92.225
20
-16.025
40
0.5
50
270
51
0
0
LINE
8
0
10
212.575
20
-2.525
11
225.575
21
-2.525
0
LINE
8
0
10
212.575
20
-16.525
11
225.575
21
-16.525
0
LINE
8
0
10
212.075
20
-3.025
11
212.075
21
-16.025
0
LINE
8
0
10
226.075
20
-3.025
11
226.075
21
-16.025
0
ARC
8
0
10
212.575
20
-3.025
40
0.5
50
90
51
180
0
ARC
8
0
10
225.575
20
-3.025
40
0.5
50
0
51
90
0
ARC
8
0
10
212.575
20
-16.025
40
0.5
50
180
51
270
0
ARC
8
0
10
225.575
20
-16.025
40
0.5
50
270
51
0
0
LINE
8
0
10
231.625
20
-2.525
11
244.625
21
-2.525
0
LINE
8
0
10
231.625
20
-16.525
11
244.625
21
-16.525
0
LINE
8
0
10
231.125
20
-3.025
11
231.125
21
-16.025
0
LINE
8
0
10
245.125
20
-3.025
11
245.125
21
-16.025
0
ARC
8
0
10
231.625
20
-3.025
40
0.5
50
90
51
180
0
ARC
8
0
10
244.625
20
-3.025
40
0.5
50
0
51
90
0
ARC
8
0
10
231.625
20
-16.025
40
0.5
50
180
51
270
0
ARC
8
0
10
244.625
20
-16.025
40
0.5
50
270
51
0
0
LINE
8
0
10
250.675
20
-2.525
11
263.675
21
-2.525
0
LINE
8
0
10
250.675
20
-16.525
11
263.675
21
-16.525
0
LINE
8
0
10
250.175
20
-3.025
11
250.175
21
-16.025
0
LINE
8
0
10
264.175
20
-3.025
11
264.175
21
-16.025
0
ARC
8
0
10
250.675
20
-3.025
40
0.5
50
90
51
180
0
ARC
8
0
10
263.675
20
-3.025
40
0.5
50
0
51
90
0
ARC
8
0
10
250.675
20
-16.025
40
0.5
50
180
51
270
0
ARC
8
0
10
263.675
20
-16.025
40
0.5
50
270
51
0
0
LINE
8
0
10
269.725
20
-2.525
11
282.725
21
-2.525
0
LINE
8
0
10
269.725
20
-16.525
11
282.725
21
-16.525
0
LINE
8
0
10
269.225
20
-3.025
11
269.225
21
-16.025
0
LINE
8
0
10
283.225
20
-3.025
11
283.225
21
-16.025
0
ARC
8
0
10
269.725
20
-3.025
40
0.5
50
90
51
180
0
ARC
8
0
10
282.725
20
-3.025
40
0.5
50
0
51
90
0
ARC
8
0
10
269.725
20
-16.025
40
0.5
50
180
51
270
0
ARC
8
0
10
282.725
20
-16.025
40
0.5
50
270
51
0
0
LINE
8
0
10
288.775
20
-2.525
11
301.775
21
-2.525
0
LINE
8
0
10
288.775
20
-16.525
11
301.775
21
-16.525
0
LINE
8
0
10
288.275
20
-3.025
11
288.275
21
-16.025
0
LINE
8
0
10
302.275
20
-3.025
11
302.275
21
-16.025
0
ARC
8
0
10
288.775
20
-3.025
40
0.5
50
90
51
180
0
ARC
8
0
10
301.775
20
-3.025
40
0.5
50
0
51
90
0
ARC
8
0
10
288.775
20
-16.025
40
0.5
50
180
51
270
0
ARC
8
0
10
301.775
20
-16.025
40
0.5
50
270
51
0
0
LINE
8
0
10
3.025
20
-21.575
11
16.025
21
-21.575
0
LINE
8
0
10
3.025
20
-35.575
11
16.025
21
-35.575
0
LINE
8
0
10
2.525
20
-22.075
11
2.525
21
-35.075
0
LINE
8
0
10
16.525
20
-22.075
11
16.525
21
-35.075
0
ARC
8
0
10
3.025
20
-22.075
40
0.5
50
90
51
180
0
ARC
8
0
10
16.025
20
-22.075
40
0.5
50
0
51
90
0
ARC
8
0
10
3.025
20
-35.075
40
0.5
50
180
51
270
0
ARC
8
0
10
16.025
20
-35.075
40
0.5
50
270
51
0
0
LINE
8
0
10
22.075
20
-21.575
11
35.075
21
-21.575
0
LINE
8
0
10
22.075
20
-35.575
11
35.075
21
-35.575
0
LINE
8
0
10
21.575
20
-22.075
11
21.575
21
-35.075
0
LINE
8
0
10
35.575
20
-22.075
11
35.575
21
-35.075
0
ARC
8
0
10
22.075
20
-22.075
40
0.5
50
90
51
180
0
ARC
8
0
10
35.075
20
-22.075
40
0.5
50
0
51
90
0
ARC
8
0
10
22.075
20
-35.075
40
0.5
50
180
51
270
0
ARC
8
0
10
35.075
20
-35.075
40
0.5
50
270
51
0
0
LINE
8
0
10
41.125
20
-21.575
11
54.125
21
-21.575
0
LINE
8
0
10
41.125
20
-35.575
11
54.125
21
-35.575
0
LINE
8
0
10
40.625
20
-22.075
11
40.625
21
-35.075
0
LINE
8
0
10
54.625
20
-22.075
11
54.625
21
-35.075
0
ARC
8
0
10
41.125
20
-22.075
40
0.5
50
90
51
180
0
ARC
8
0
10
54.125
20
-22.075
40
0.5
50
0
51
90
0
ARC
8
0
10
41.125
20
-35.075
40
0.5
50
180
51
270
0
ARC
8
0
10
54.125
20
-35.075
40
0.5
50
270
51
0
0
LINE
8
0
10
60.175
20
-21.575
11
73.175
21
-21.575
0
LINE
8
0
10
60.175
20
-35.575
11
73.175
21
-35.575
0
LINE
8
0
10
59.675
20
-22.075
11
59.675
21
-35.075
0
LINE
8
0
10
73.675
20
-22.075
11
73.675
21
-35.075
0
ARC
8
0
10
60.175
20
-22.075
40
0.5
50
90
51
180
0
ARC
8
0
10
73.175
20
-22.075
40
0.5
50
0
51
90
0
ARC
8
0
10
60.175
20
-35.075
40
0.5
50
180
51
270
0
ARC
8
0
10
73.175
20
-35.075
40
0.5
50
270
51
0
0
LINE
8
0
10
79.225
20
-21.575
11
92.225
21
-21.575
0
LINE
8
0
10
79.225
20
-35.575
11
92.225
21
-35.575
0
LINE
8
0
10
78.725
20
-22.075
11
78.725
21
-35.075
0
LINE
8
0
10
92.725
20
-22.075
11
92.725
21
-35.075
0
ARC
8
0
10
79.225
20
-22.075
40
0.5
50
90
51
180
0
ARC
8
0
10
92.225
20
-22.075
40
0.5
50
0
51
90
0
ARC
8
0
10
79.225
20
-35.075
40
0.5
50
180
51
270
0
ARC
8
0
10
92.225
20
-35.075
40
0.5
50
270
51
0
0
LINE
8
0
10
212.575
20
-21.575
11
225.575
21
-21.575
0
LINE
8
0
10
212.575
20
-35.575
11
225.575
21
-35.575
0
LINE
8
0
10
212.075
20
-22.075
11
212.075
21
-35.075
0
LINE
8
0
10
226.075
20
-22.075
11
226.075
21
-35.075
0
ARC
8
0
10
212.575
20
-22.075
40
0.5
50
90
51
180
0
ARC
8
0
10
225.575
20
-22.075
40
0.5
50
0
51
90
0
ARC
8
0
10
212.575
20
-35.075
40
0.5
50
180
51
270
0
ARC
8
0
10
225.575
20
-35.075
40
0.5
50
270
51
0
0
LINE
8
0
10
231.625
20
-21.575
11
244.625
21
-21.575
0
LINE
8
0
10
231.625
20
-35.575
11
244.625
21
-35.575
0
LINE
8
0
10
231.125
20
-22.075
11
231.125
21
-35.075
0
LINE
8
0
10
245.125
20
-22.075
11
245.125
21
-35.075
0
ARC
8
0
10
231.625
20
-22.075
40
0.5
50
90
51
180
0
ARC
8
0
10
244.625
20
-22.075
40
0.5
50
0
51
90
0
ARC
8
0
10
231.625
20
-35.075
40
0.5
50
180
51
270
0
ARC
8
0
10
244.625
20
-35.075
40
0.5
50
270
51
0
0
LINE
8
0
10
250.675
20
-21.575
11
263.675
21
-21.575
0
LINE
8
0
10
250.675
20
-35.575
11
263.675
21
-35.575
0
LINE
8
0
10
250.175
20
-22.075
11
250.175
21
-35.075
0
LINE
8
0
10
264.175
20
-22.075
11
264.175
21
-35.075
0
ARC
8
0
10
250.675
20
-22.075
40
0.5
50
90
51
180
0
ARC
8
0
10
263.675
20
-22.075
40
0.5
50
0
51
90
0
ARC
8
0
10
250.675
20
-35.075
40
0.5
50
180
51
270
0
ARC
8
0
10
263.675
20
-35.075
40
0.5
50
270
51
0
0
LINE
8
0
10
269.725
20
-21.575
11
282.725
21
-21.575
0
LINE
8
0
10
269.725
20
-35.575
11
282.725
21
-35.575
0
LINE
8
0
10
269.225
20
-22.075
11
269.225
21
-35.075
0
LINE
8
0
10
283.225
20
-22.075
11
283.225
21
-35.075
0
ARC
8
0
10
269.725
20
-22.075
40
0.5
50
90
51
180
0
ARC
8
0
10
282.725
20
-22.075
40
0.5
50
0
51
90
0
ARC
8
0
10
269.725
20
-35.075
40
0.5
50
180
51
270
0
ARC
8
0
10
282.725
20
-35.075
40
0.5
50
270
51
0
0
LINE
8
0
10
288.775
20
-21.575
11
301.775
21
-21.575
0
LINE
8
0
10
288.775
20
-35.575
11
301.775
21
-35.575
0
LINE
8
0
10
288.275
20
-22.075
11
288.275
21
-35.075
0
LINE
8
0
10
302.275
20
-22.075
11
302.275
21
-35.075
0
ARC
8
0
10
288.775
20
-22.075
40
0.5
50
90
51
180
0
ARC
8
0
10
301.775
20
-22.075
40
0.5
50
0
51
90
0
ARC
8
0
10
288.775
20
-35.075
40
0.5
50
180
51
270
0
ARC
8
0
10
301.775
20
-35.075
40
0.5
50
270
51
0
0
LINE
8
0
10
3.025
20
-40.625
11
16.025
21
-40.625
0
LINE
8
0
10
3.025
20
-54.625
11
16.025
21
-54.625
0
LINE
8
0
10
2.525
20
-41.125
11
2.525
21
-54.125
0
LINE
8
0
10
16.525
20
-41.125
11
16.525
21
-54.125
0
ARC
8
0
10
3.025
20
-41.125
40
0.5
50
90
51
180
0
ARC
8
0
10
16.025
20
-41.125
40
0.5
50
0
51
90
0
ARC
8
0
10
3.025
20
-54.125
40
0.5
50
180
51
270
0
ARC
8
0
10
16.025
20
-54.125
40
0.5
50
270
51
0
0
LINE
8
0
10
22.075
20
-40.625
11
35.075
21
-40.625
0
LINE
8
0
10
22.075
20
-54.625
11
35.075
21
-54.625
0
LINE
8
0
10
21.575
20
-41.125
11
21.575
21
-54.125
0
LINE
8
0
10
35.575
20
-41.125
11
35.575
21
-54.125
0
ARC
8
0
10
22.075
20
-41.125
40
0.5
50
90
51
180
0
ARC
8
0
10
35.075
20
-41.125
40
0.5
50
0
51
90
0
ARC
8
0
10
22.075
20
-54.125
40
0.5
50
180
51
270
0
ARC
8
0
10
35.075
20
-54.125
40
0.5
50
270
51
0
0
LINE
8
0
10
41.125
20
-40.625
11
54.125
21
-40.625
0
LINE
8
0
10
41.125
20
-54.625
11
54.125
21
-54.625
0
LINE
8
0
10
40.625
20
-41.125
11
40.625
21
-54.125
0
LINE
8
0
10
54.625
20
-41.125
11
54.625
21
-54.125
0
ARC
8
0
10
41.125
20
-41.125
40
0.5
50
90
51
180
0
ARC
8
0
10
54.125
20
-41.125
40
0.5
50
0
51
90
0
ARC
8
0
10
41.125
20
-54.125
40
0.5
50
180
51
270
0
ARC
8
0
10
54.125
20
-54.125
40
0.5
50
270
51
0
0
LINE
8
0
10
60.175
20
-40.625
11
73.175
21
-40.625
0
LINE
8
0
10
60.175
20
-54.625
11
73.175
21
-54.625
0
LINE
8
0
10
59.675
20
-41.125
11
59.675
21
-54.125
0
LINE
8
0
10
73.675
20
-41.125
11
73.675
21
-54.125
0
ARC
8
0
10
60.175
20
-41.125
40
0.5
50
90
51
180
0
ARC
8
0
10
73.175
20
-41.125
40
0.5
50
0
51
90
0
ARC
8
0
10
60.175
20
-54.125
40
0.5
50
180
51
270
0
ARC
8
0
10
73.175
20
-54.125
40
0.5
50
270
51
0
0
LINE
8
0
10
79.225
20
-40.625
11
92.225
21
-40.625
0
LINE
8
0
10
79.225
20
-54.625
11
92.225
21
-54.625
0
LINE
8
0
10
78.725
20
-41.125
11
78.725
21
-54.125
0
LINE
8
0
10
92.725
20
-41.125
11
92.725
21
-54.125
0
ARC
8
0
10
79.225
20
-41.125
40
0.5
50
90
51
180
0
ARC
8
0
10
92.225
20
-41.125
40
0.5
50
0
51
90
0
ARC
8
0
10
79.225
20
-54.125
40
0.5
50
180
51
270
0
ARC
8
0
10
92.225
20
-54.125
40
0.5
50
270
51
0
0
LINE
8
0
10
212.575
20
-40.625
11
225.575
21
-40.625
0
LINE
8
0
10
212.575
20
-54.625
11
225.575
21
-54.625
0
LINE
8
0
10
212.075
20
-41.125
11
212.075
21
-54.125
0
LINE
8
0
10
226.075
20
-41.125
11
226.075
21
-54.125
0
ARC
8
0
10
212.575
20
-41.125
40
0.5
50
90
51
180
0
ARC
8
0
10
225.575
20
-41.125
40
0.5
50
0
51
90
0
ARC
8
0
10
212.575
20
-54.125
40
0.5
50
180
51
270
0
ARC
8
0
10
225.575
20
-54.125
40
0.5
50
270
51
0
0
LINE
8
0
10
231.625
20
-40.625
11
244.625
21
-40.625
0
LINE
8
0
10
231.625
20
-54.625
11
244.625
21
-54.625
0
LINE
8
0
10
231.125
20
-41.125
11
231.125
21
-54.125
0
LINE
8
0
10
245.125
20
-41.125
11
245.125
21
-54.125
0
ARC
8
0
10
231.625
20
-41.125
40
0.5
50
90
51
180
0
ARC
8
0
10
244.625
20
-41.125
40
0.5
50
0
51
90
0
ARC
8
0
10
231.625
20
-54.125
40
0.5
50
180
51
270
0
ARC
8
0
10
244.625
20
-54.125
40
0.5
50
270
51
0
0
LINE
8
0
10
250.675
20
-40.625
11
263.675
21
-40.625
0
LINE
8
0
10
250.675
20
-54.625
11
263.675
21
-54.625
0
LINE
8
0
10
250.175
20
-41.125
11
250.175
21
-54.125
0
LINE
8
0
10
264.175
20
-41.125
11
264.175
21
-54.125
0
ARC
8
0
10
250.675
20
-41.125
40
0.5
50
90
51
180
0
ARC
8
0
10
263.675
20
-41.125
40
0.5
50
0
51
90
0
ARC
8
0
10
250.675
20
-54.125
40
0.5
50
180
51
270
0
ARC
8
0
10
263.675
20
-54.125
40
0.5
50
270
51
0
0
LINE
8
0
10
269.725
20
-40.625
11
282.725
21
-40.625
0
LINE
8
0
10
269.725
20
-54.625
11
282.725
21
-54.625
0
LINE
8
0
10
269.225
20
-41.125
11
269.225
21
-54.125
0
LINE
8
0
10
283.225
20
-41.125
11
283.225
21
-54.125
0
ARC
8
0
10
269.725
20
-41.125
40
0.5
50
90
51
180
0
ARC
8
0
10
282.725
20
-41.125
40
0.5
50
0
51
90
0
ARC
8
0
10
269.725
20
-54.125
40
0.5
50
180
51
270
0
ARC
8
0
10
282.725
20
-54.125
40
0.5
50
270
51
0
0
LINE
8
0
10
288.775
20
-40.625
11
301.775
21
-40.625
0
LINE
8
0
10
288.775
20
-54.625
11
301.775
21
-54.625
0
LINE
8
0
10
288.275
20
-41.125
11
288.275
21
-54.125
0
LINE
8
0
10
302.275
20
-41.125
11
302.275
21
-54.125
0
ARC
8
0
10
288.775
20
-41.125
40
0.5
50
90
51
180
0
ARC
8
0
10
301.775
20
-41.125
40
0.5
50
0
51
90
0
ARC
8
0
10
288.775
20
-54.125
40
0.5
50
180
51
270
0
ARC
8
0
10
301.775
20
-54.125
40
0.5
50
270
51
0
0
LINE
8
0
10
3.025
20
-59.675
11
16.025
21
-59.675
0
LINE
8
0
10
3.025
20
-73.675
11
16.025
21
-73.675
0
LINE
8
0
10
2.525
20
-60.175
11
2.525
21
-73.175
0
LINE
8
0
10
16.525
20
-60.175
11
16.525
21
-73.175
0
ARC
8
0
10
3.025
20
-60.175
40
0.5
50
90
51
180
0
ARC
8
0
10
16.025
20
-60.175
40
0.5
50
0
51
90
0
ARC
8
0
10
3.025
20
-73.175
40
0.5
50
180
51
270
0
ARC
8
0
10
16.025
20
-73.175
40
0.5
50
270
51
0
0
LINE
8
0
10
22.075
20
-59.675
11
35.075
21
-59.675
0
LINE
8
0
10
22.075
20
-73.675
11
35.075
21
-73.675
0
LINE
8
0
10
21.575
20
-60.175
11
21.575
21
-73.175
0
LINE
8
0
10
35.575
20
-60.175
11
35.575
21
-73.175
0
ARC
8
0
10
22.075
20
-60.175
40
0.5
50
90
51
180
0
ARC
8
0
10
35.075
20
-60.175
40
0.5
50
0
51
90
0
ARC
8
0
10
22.075
20
-73.175
40
0.5
50
180
51
270
0
ARC
8
0
10
35.075
20
-73.175
40
0.5
50
270
51
0
0
LINE
8
0
10
41.125
20
-59.675
11
54.125
21
-59.675
0
LINE
8
0
10
41.125
20
-73.675
11
54.125
21
-73.675
0
LINE
8
0
10
40.625
20
-60.175
11
40.625
21
-73.175
0
LINE
8
0
10
54.625
20
-60.175
11
54.625
21
-73.175
0
ARC
8
0
10
41.125
20
-60.175
40
0.5
50
90
51
180
0
ARC
8
0
10
54.125
20
-60.175
40
0.5
50
0
51
90
0
ARC
8
0
10
41.125
20
-73.175
40
0.5
50
180
51
270
0
ARC
8
0
10
54.125
20
-73.175
40
0.5
50
270
51
0
0
LINE
8
0
10
60.175
20
-59.675
11
73.175
21
-59.675
0
LINE
8
0
10
60.175
20
-73.675
11
73.175
21
-73.675
0
LINE
8
0
10
59.675
20
-60.175
11
59.675
21
-73.175
0
LINE
8
0
10
73.675
20
-60.175
11
73.675
21
-73.175
0
ARC
8
0
10
60.175
20
-60.175
40
0.5
50
90
51
180
0
ARC
8
0
10
73.175
20
-60.175
40
0.5
50
0
51
90
0
ARC
8
0
10
60.175
20
-73.175
40
0.5
50
180
51
270
0
ARC
8
0
10
73.175
20
-73.175
40
0.5
50
270
51
0
0
LINE
8
0
10
79.225
20
-59.675
11
92.225
21
-59.675
0
LINE
8
0
10
79.225
20
-73.675
11
92.225
21
-73.675
0
LINE
8
0
10
78.725
20
-60.175
11
78.725
21
-73.175
0
LINE
8
0
10
92.725
20
-60.175
11
92.725
21
-73.175
0
ARC
8
0
10
79.225
20
-60.175
40
0.5
50
90
51
180
0
ARC
8
0
10
92.225
20
-60.175
40
0.5
50
0
51
90
0
ARC
8
0
10
79.225
20
-73.175
40
0.5
50
180
51
270
0
ARC
8
0
10
92.225
20
-73.175
40
0.5
50
270
51
0
0
LINE
8
0
10
98.275
20
-59.675
11
111.275
21
-59.675
0
LINE
8
0
10
98.275
20
-73.675
11
111.275
21
-73.675
0
LINE
8
0
10
97.775
20
-60.175
11
97.775
21
-73.175
0
LINE
8
0
10
111.775
20
-60.175
11
111.775
21
-73.175
0
ARC
8
0
10
98.275
20
-60.175
40
0.5
50
90
51
180
0
ARC
8
0
10
111.275
20
-60.175
40
0.5
50
0
51
90
0
ARC
8
0
10
98.275
20
-73.175
40
0.5
50
180
51
270
0
ARC
8
0
10
111.275
20
-73.175
40
0.5
50
270
51
0
0
LINE
8
0
10
137.96875
20
-69.7
11
137.96875
21
-82.7
0
LINE
8
0
10
123.96875
20
-69.7
11
123.96875
21
-82.7
0
LINE
8
0
10
137.46875
20
-69.2
11
124.46875
21
-69.2
0
LINE
8
0
10
137.46875
20
-83.2
11
124.46875
21
-83.2
0
ARC
8
0
10
137.46875
20
-69.7
40
0.5
50
0
51
90
0
ARC
8
0
10
137.46875
20
-82.7
40
0.5
50
270
51
0
0
ARC
8
0
10
124.46875
20
-69.7
40
0.5
50
90
51
180
0
ARC
8
0
10
124.46875
20
-82.7
40
0.5
50
180
51
270
0
LINE
8
0
10
136.96875
20
-61.262
11
136.96875
21
-67.262
0
LINE
8
0
10
121.96875
20
-61.262
11
121.96875
21
-67.262
0
LINE
8
0
10
136.46875
20
-60.762
11
122.46875
21
-60.762
0
LINE
8
0
10
136.46875
20
-67.762
11
122.46875
21
-67.762
0
ARC
8
0
10
136.46875
20
-61.262
40
0.5
50
0
51
90
0
ARC
8
0
10
136.46875
20
-67.262
40
0.5
50
270
51
0
0
ARC
8
0
10
122.46875
20
-61.262
40
0.5
50
90
51
180
0
ARC
8
0
10
122.46875
20
-67.262
40
0.5
50
180
51
270
0
LINE
8
0
10
136.96875
20
-85.138
11
136.96875
21
-91.138
0
LINE
8
0
10
121.96875
20
-85.138
11
121.96875
21
-91.138
0
LINE
8
0
10
136.46875
20
-84.638
11
122.46875
21
-84.638
0
LINE
8
0
10
136.46875
20
-91.638
11
122.46875
21
-91.638
0
ARC
8
0
10
136.46875
20
-85.138
40
0.5
50
0
51
90
0
ARC
8
0
10
136.46875
20
-91.138
40
0.5
50
270
51
0
0
ARC
8
0
10
122.46875
20
-85.138
40
0.5
50
90
51
180
0
ARC
8
0
10
122.46875
20
-91.138
40
0.5
50
180
51
270
0
LINE
8
0
10
193.525
20
-59.675
11
206.525
21
-59.675
0
LINE
8
0
10
193.525
20
-73.675
11
206.525
21
-73.675
0
LINE
8
0
10
193.025
20
-60.175
11
193.025
21
-73.175
0
LINE
8
0
10
207.025
20
-60.175
11
207.025
21
-73.175
0
ARC
8
0
10
193.525
20
-60.175
40
0.5
50
90
51
180
0
ARC
8
0
10
206.525
20
-60.175
40
0.5
50
0
51
90
0
ARC
8
0
10
193.525
20
-73.175
40
0.5
50
180
51
270
0
ARC
8
0
10
206.525
20
-73.175
40
0.5
50
270
51
0
0
LINE
8
0
10
212.575
20
-59.675
11
225.575
21
-59.675
0
LINE
8
0
10
212.575
20
-73.675
11
225.575
21
-73.675
0
LINE
8
0
10
212.075
20
-60.175
11
212.075
21
-73.175
0
LINE
8
0
10
226.075
20
-60.175
11
226.075
21
-73.175
0
ARC
8
0
10
212.575
20
-60.175
40
0.5
50
90
51
180
0
ARC
8
0
10
225.575
20
-60.175
40
0.5
50
0
51
90
0
ARC
8
0
10
212.575
20
-73.175
40
0.5
50
180
51
270
0
ARC
8
0
10
225.575
20
-73.175
40
0.5
50
270
51
0
0
LINE
8
0
10
231.625
20
-59.675
11
244.625
21
-59.675
0
LINE
8
0
10
231.625
20
-73.675
11
244.625
21
-73.675
0
LINE
8
0
10
231.125
20
-60.175
11
231.125
21
-73.175
0
LINE
8
0
10
245.125
20
-60.175
11
245.125
21
-73.175
0
ARC
8
0
10
231.625
20
-60.175
40
0.5
50
90
51
180
0
ARC
8
0
10
244.625
20
-60.175
40
0.5
50
0
51
90
0
ARC
8
0
10
231.625
20
-73.175
40
0.5
50
180
51
270
0
ARC
8
0
10
244.625
20
-73.175
40
0.5
50
270
51
0
0
LINE
8
0
10
250.675
20
-59.675
11
263.675
21
-59.675
0
LINE
8
0
10
250.675
20
-73.675
11
263.675
21
-73.675
0
LINE
8
0
10
250.175
20
-60.175
11
250.175
21
-73.175
0
LINE
8
0
10
264.175
20
-60.175
11
264.175
21
-73.175
0
ARC
8
0
10
250.675
20
-60.175
40
0.5
50
90
51
180
0
ARC
8
0
10
263.675
20
-60.175
40
0.5
50
0
51
90
0
ARC
8
0
10
250.675
20
-73.175
40
0.5
50
180
51
270
0
ARC
8
0
10
263.675
20
-73.175
40
0.5
50
270
51
0
0
LINE
8
0
10
269.725
20
-59.675
11
282.725
21
-59.675
0
LINE
8
0
10
269.725
20
-73.675
11
282.725
21
-73.675
0
LINE
8
0
10
269.225
20
-60.175
11
269.225
21
-73.175
0
LINE
8
0
10
283.225
20
-60.175
11
283.225
21
-73.175
0
ARC
8
0
10
269.725
20
-60.175
40
0.5
50
90
51
180
0
ARC
8
0
10
282.725
20
-60.175
40
0.5
50
0
51
90
0
ARC
8
0
10
269.725
20
-73.175
40
0.5
50
180
51
270
0
ARC
8
0
10
282.725
20
-73.175
40
0.5
50
270
51
0
0
LINE
8
0
10
288.775
20
-59.675
11
301.775
21
-59.675
0
LINE
8
0
10
288.775
20
-73.675
11
301.775
21
-73.675
0
LINE
8
0
10
288.275
20
-60.175
11
288.275
21
-73.175
0
LINE
8
0
10
302.275
20
-60.175
11
302.275
21
-73.175
0
ARC
8
0
10
288.775
20
-60.175
40
0.5
50
90
51
180
0
ARC
8
0
10
301.775
20
-60.175
40
0.5
50
0
51
90
0
ARC
8
0
10
288.775
20
-73.175
40
0.5
50
180
51
270
0
ARC
8
0
10
301.775
20
-73.175
40
0.5
50
270
51
0
0
LINE
8
0
10
5.40625
20
-78.725
11
18.40625
21
-78.725
0
LINE
8
0
10
5.40625
20
-92.725
11
18.40625
21
-92.725
0
LINE
8
0
10
4.90625
20
-79.225
11
4.90625
21
-92.225
0
LINE
8
0
10
18.90625
20
-79.225
11
18.90625
21
-92.225
0
ARC
8
0
10
5.40625
20
-79.225
40
0.5
50
90
51
180
0
ARC
8
0
10
18.40625
20
-79.225
40
0.5
50
0
51
90
0
ARC
8
0
10
5.40625
20
-92.225
40
0.5
50
180
51
270
0
ARC
8
0
10
18.40625
20
-92.225
40
0.5
50
270
51
0
0
LINE
8
0
10
26.8375
20
-78.725
11
39.8375
21
-78.725
0
LINE
8
0
10
26.8375
20
-92.725
11
39.8375
21
-92.725
0
LINE
8
0
10
26.3375
20
-79.225
11
26.3375
21
-92.225
0
LINE
8
0
10
40.3375
20
-79.225
11
40.3375
21
-92.225
0
ARC
8
0
10
26.8375
20
-79.225
40
0.5
50
90
51
180
0
ARC
8
0
10
39.8375
20
-79.225
40
0.5
50
0
51
90
0
ARC
8
0
10
26.8375
20
-92.225
40
0.5
50
180
51
270
0
ARC
8
0
10
39.8375
20
-92.225
40
0.5
50
270
51
0
0
LINE
8
0
10
48.26875
20
-78.725
11
61.26875
21
-78.725
0
LINE
8
0
10
48.26875
20
-92.725
11
61.26875
21
-92.725
0
LINE
8
0
10
47.76875
20
-79.225
11
47.76875
21
-92.225
0
LINE
8
0
10
61.76875
20
-79.225
11
61.76875
21
-92.225
0
ARC
8
0
10
48.26875
20
-79.225
40
0.5
50
90
51
180
0
ARC
8
0
10
61.26875
20
-79.225
40
0.5
50
0
51
90
0
ARC
8
0
10
48.26875
20
-92.225
40
0.5
50
180
51
270
0
ARC
8
0
10
61.26875
20
-92.225
40
0.5
50
270
51
0
0
LINE
8
0
10
86.36875
20
-78.725
11
99.36875
21
-78.725
0
LINE
8
0
10
86.36875
20
-92.725
11
99.36875
21
-92.725
0
LINE
8
0
10
85.86875
20
-79.225
11
85.86875
21
-92.225
0
LINE
8
0
10
99.86875
20
-79.225
11
99.86875
21
-92.225
0
ARC
8
0
10
86.36875
20
-79.225
40
0.5
50
90
51
180
0
ARC
8
0
10
99.36875
20
-79.225
40
0.5
50
0
51
90
0
ARC
8
0
10
86.36875
20
-92.225
40
0.5
50
180
51
270
0
ARC
8
0
10
99.36875
20
-92.225
40
0.5
50
270
51
0
0
LINE
8
0
10
77.93075
20
-79.725
11
83.93075
21
-79.725
0
LINE
8
0
10
77.93075
20
-94.725
11
83.93075
21
-94.725
0
LINE
8
0
10
77.43075
20
-80.225
11
77.43075
21
-94.225
0
LINE
8
0
10
84.43075
20
-80.225
11
84.43075
21
-94.225
0
ARC
8
0
10
77.93075
20
-80.225
40
0.5
50
90
51
180
0
ARC
8
0
10
83.93075
20
-80.225
40
0.5
50
0
51
90
0
ARC
8
0
10
77.93075
20
-94.225
40
0.5
50
180
51
270
0
ARC
8
0
10
83.93075
20
-94.225
40
0.5
50
270
51
0
0
LINE
8
0
10
101.80675
20
-79.725
11
107.80675
21
-79.725
0
LINE
8
0
10
101.80675
20
-94.725
11
107.80675
21
-94.725
0
LINE
8
0
10
101.30675
20
-80.225
11
101.30675
21
-94.225
0
LINE
8
0
10
108.30675
20
-80.225
11
108.30675
21
-94.225
0
ARC
8
0
10
101.80675
20
-80.225
40
0.5
50
90
51
180
0
ARC
8
0
10
107.80675
20
-80.225
40
0.5
50
0
51
90
0
ARC
8
0
10
101.80675
20
-94.225
40
0.5
50
180
51
270
0
ARC
8
0
10
107.80675
20
-94.225
40
0.5
50
270
51
0
0
LINE
8
0
10
210.19375
20
-78.725
11
223.19375
21
-78.725
0
LINE
8
0
10
210.19375
20
-92.725
11
223.19375
21
-92.725
0
LINE
8
0
10
209.69375
20
-79.225
11
209.69375
21
-92.225
0
LINE
8
0
10
223.69375
20
-79.225
11
223.69375
21
-92.225
0
ARC
8
0
10
210.19375
20
-79.225
40
0.5
50
90
51
180
0
ARC
8
0
10
223.19375
20
-79.225
40
0.5
50
0
51
90
0
ARC
8
0
10
210.19375
20
-92.225
40
0.5
50
180
51
270
0
ARC
8
0
10
223.19375
20
-92.225
40
0.5
50
270
51
0
0
LINE
8
0
10
201.75575
20
-79.725
11
207.75575
21
-79.725
0
LINE
8
0
10
201.75575
20
-94.725
11
207.75575
21
-94.725
0
LINE
8
0
10
201.25575
20
-80.225
11
201.25575
21
-94.225
0
LINE
8
0
10
208.25575
20
-80.225
11
208.25575
21
-94.225
0
ARC
8
0
10
201.75575
20
-80.225
40
0.5
50
90
51
180
0
ARC
8
0
10
207.75575
20
-80.225
40
0.5
50
0
51
90
0
ARC
8
0
10
201.75575
20
-94.225
40
0.5
50
180
51
270
0
ARC
8
0
10
207.75575
20
-94.225
40
0.5
50
270
51
0
0
LINE
8
0
10
225.63175
20
-79.725
11
231.63175
21
-79.725
0
LINE
8
0
10
225.63175
20
-94.725
11
231.63175
21
-94.725
0
LINE
8
0
10
225.13175
20
-80.225
11
225.13175
21
-94.225
0
LINE
8
0
10
232.13175
20
-80.225
11
232.13175
21
-94.225
0
ARC
8
0
10
225.63175
20
-80.225
40
0.5
50
90
51
180
0
ARC
8
0
10
231.63175
20
-80.225
40
0.5
50
0
51
90
0
ARC
8
0
10
225.63175
20
-94.225
40
0.5
50
180
51
270
0
ARC
8
0
10
231.63175
20
-94.225
40
0.5
50
270
51
0
0
LINE
8
0
10
255.4375
20
-78.725
11
268.4375
21
-78.725
0
LINE
8
0
10
255.4375
20
-92.725
11
268.4375
21
-92.725
0
LINE
8
0
10
254.9375
20
-79.225
11
254.9375
21
-92.225
0
LINE
8
0
10
268.9375
20
-79.225
11
268.9375
21
-92.225
0
ARC
8
0
10
255.4375
20
-79.225
40
0.5
50
90
51
180
0
ARC
8
0
10
268.4375
20
-79.225
40
0.5
50
0
51
90
0
ARC
8
0
10
255.4375
20
-92.225
40
0.5
50
180
51
270
0
ARC
8
0
10
268.4375
20
-92.225
40
0.5
50
270
51
0
0
LINE
8
0
10
284.0125
20
-78.725
11
297.0125
21
-78.725
0
LINE
8
0
10
284.0125
20
-92.725
11
297.0125
21
-92.725
0
LINE
8
0
10
283.5125
20
-79.225
11
283.5125
21
-92.225
0
LINE
8
0
10
297.5125
20
-79.225
11
297.5125
21
-92.225
0
ARC
8
0
10
284.0125
20
-79.225
40
0.5
50
90
51
180
0
ARC
8
0
10
297.0125
20
-79.225
40
0.5
50
0
51
90
0
ARC
8
0
10
284.0125
20
-92.225
40
0.5
50
180
51
270
0
ARC
8
0
10
297.0125
20
-92.225
40
0.5
50
270
51
0
0
LINE
8
0
10
171.59375
20
-82.7
11
171.59375
21
-69.7
0
LINE
8
0
10
185.59375
20
-82.7
11
185.59375
21
-69.7
0
LINE
8
0
10
172.09375
20
-83.2
11
185.09375
21
-83.2
0
LINE
8
0
10
172.09375
20
-69.2
11
185.09375
21
-69.2
0
ARC
8
0
10
172.09375
20
-82.7
40
0.5
50
180
51
270
0
ARC
8
0
10
172.09375
20
-69.7
40
0.5
50
90
51
180
0
ARC
8
0
10
185.09375
20
-82.7
40
0.5
50
270
51
0
0
ARC
8
0
10
185.09375
20
-69.7
40
0.5
50
0
51
90
0
LINE
8
0
10
172.59375
20
-91.138
11
172.59375
21
-85.138
0
LINE
8
0
10
187.59375
20
-91.138
11
187.59375
21
-85.138
0
LINE
8
0
10
173.09375
20
-91.638
11
187.09375
21
-91.638
0
LINE
8
0
10
173.09375
20
-84.638
11
187.09375
21
-84.638
0
ARC
8
0
10
173.09375
20
-91.138
40
0.5
50
180
51
270
0
ARC
8
0
10
173.09375
20
-85.138
40
0.5
50
90
51
180
0
ARC
8
0
10
187.09375
20
-91.138
40
0.5
50
270
51
0
0
ARC
8
0
10
187.09375
20
-85.138
40
0.5
50
0
51
90
0
LINE
8
0
10
172.59375
20
-67.262
11
172.59375
21
-61.262
0
LINE
8
0
10
187.59375
20
-67.262
11
187.59375
21
-61.262
0
LINE
8
0
10
173.09375
20
-67.762
11
187.09375
21
-67.762
0
LINE
8
0
10
173.09375
20
-60.762
11
187.09375
21
-60.762
0
ARC
8
0
10
173.09375
20
-67.262
40
0.5
50
180
51
270
0
ARC
8
0
10
173.09375
20
-61.262
40
0.5
50
90
51
180
0
ARC
8
0
10
187.09375
20
-67.262
40
0.5
50
270
51
0
0
ARC
8
0
10
187.09375
20
-61.262
40
0.5
50
0
51
90
0
LINE
8
0
10
0
20
-95.25
11
304.8
21
-95.25
0
LINE
8
0
10
0
20
0
11
304.8
21
0
0
LINE
8
0
10
0
20
-95.25
11
0
21
0
0
LINE
8
0
10
304.8
20
-95.25
11
304.8
21
0
0
ENDSEC
0
EOF