%TF.GenerationSoftware,KiCad,Pcbnew,7.0.7*%
%TF.CreationDate,2023-09-28T00:00:25+02:00*%
%TF.ProjectId,32u4,33327534-2e6b-4696-9361-645f70636258,rev?*%
%TF.SameCoordinates,Original*%
%TF.FileFunction,Legend,Bot*%
%TF.FilePolarity,Positive*%
%FSLAX46Y46*%
G04 Gerber Fmt 4.6, Leading zero omitted, Abs format (unit mm)*
G04 Created by KiCad (PCBNEW 7.0.7) date 2023-09-28 00:00:25*
%MOMM*%
%LPD*%
G01*
G04 APERTURE LIST*
%ADD10C,0.300000*%
%ADD11C,0.400000*%
%ADD12C,0.150000*%
%ADD13C,0.120000*%
G04 APERTURE END LIST*
D10*
X36256679Y-61661066D02*
X35037632Y-61661066D01*
X35647155Y-62270590D02*
X35647155Y-61051542D01*
X33513822Y-60670590D02*
X34275727Y-60670590D01*
X34275727Y-60670590D02*
X34351918Y-61432495D01*
X34351918Y-61432495D02*
X34275727Y-61356304D01*
X34275727Y-61356304D02*
X34123346Y-61280114D01*
X34123346Y-61280114D02*
X33742394Y-61280114D01*
X33742394Y-61280114D02*
X33590013Y-61356304D01*
X33590013Y-61356304D02*
X33513822Y-61432495D01*
X33513822Y-61432495D02*
X33437632Y-61584876D01*
X33437632Y-61584876D02*
X33437632Y-61965828D01*
X33437632Y-61965828D02*
X33513822Y-62118209D01*
X33513822Y-62118209D02*
X33590013Y-62194400D01*
X33590013Y-62194400D02*
X33742394Y-62270590D01*
X33742394Y-62270590D02*
X34123346Y-62270590D01*
X34123346Y-62270590D02*
X34275727Y-62194400D01*
X34275727Y-62194400D02*
X34351918Y-62118209D01*
X36256679Y-64846590D02*
X36256679Y-63246590D01*
X36256679Y-63246590D02*
X35875727Y-63246590D01*
X35875727Y-63246590D02*
X35647155Y-63322780D01*
X35647155Y-63322780D02*
X35494774Y-63475161D01*
X35494774Y-63475161D02*
X35418584Y-63627542D01*
X35418584Y-63627542D02*
X35342393Y-63932304D01*
X35342393Y-63932304D02*
X35342393Y-64160876D01*
X35342393Y-64160876D02*
X35418584Y-64465638D01*
X35418584Y-64465638D02*
X35494774Y-64618019D01*
X35494774Y-64618019D02*
X35647155Y-64770400D01*
X35647155Y-64770400D02*
X35875727Y-64846590D01*
X35875727Y-64846590D02*
X36256679Y-64846590D01*
X34656679Y-64237066D02*
X33437632Y-64237066D01*
X34047155Y-64846590D02*
X34047155Y-63627542D01*
X36256679Y-67422590D02*
X36256679Y-65822590D01*
X36256679Y-65822590D02*
X35875727Y-65822590D01*
X35875727Y-65822590D02*
X35647155Y-65898780D01*
X35647155Y-65898780D02*
X35494774Y-66051161D01*
X35494774Y-66051161D02*
X35418584Y-66203542D01*
X35418584Y-66203542D02*
X35342393Y-66508304D01*
X35342393Y-66508304D02*
X35342393Y-66736876D01*
X35342393Y-66736876D02*
X35418584Y-67041638D01*
X35418584Y-67041638D02*
X35494774Y-67194019D01*
X35494774Y-67194019D02*
X35647155Y-67346400D01*
X35647155Y-67346400D02*
X35875727Y-67422590D01*
X35875727Y-67422590D02*
X36256679Y-67422590D01*
X34656679Y-66813066D02*
X33437632Y-66813066D01*
X35418584Y-68474780D02*
X35570965Y-68398590D01*
X35570965Y-68398590D02*
X35799536Y-68398590D01*
X35799536Y-68398590D02*
X36028108Y-68474780D01*
X36028108Y-68474780D02*
X36180489Y-68627161D01*
X36180489Y-68627161D02*
X36256679Y-68779542D01*
X36256679Y-68779542D02*
X36332870Y-69084304D01*
X36332870Y-69084304D02*
X36332870Y-69312876D01*
X36332870Y-69312876D02*
X36256679Y-69617638D01*
X36256679Y-69617638D02*
X36180489Y-69770019D01*
X36180489Y-69770019D02*
X36028108Y-69922400D01*
X36028108Y-69922400D02*
X35799536Y-69998590D01*
X35799536Y-69998590D02*
X35647155Y-69998590D01*
X35647155Y-69998590D02*
X35418584Y-69922400D01*
X35418584Y-69922400D02*
X35342393Y-69846209D01*
X35342393Y-69846209D02*
X35342393Y-69312876D01*
X35342393Y-69312876D02*
X35647155Y-69312876D01*
X34656679Y-69998590D02*
X34656679Y-68398590D01*
X34656679Y-68398590D02*
X33742393Y-69998590D01*
X33742393Y-69998590D02*
X33742393Y-68398590D01*
X32980489Y-69998590D02*
X32980489Y-68398590D01*
X32980489Y-68398590D02*
X32599537Y-68398590D01*
X32599537Y-68398590D02*
X32370965Y-68474780D01*
X32370965Y-68474780D02*
X32218584Y-68627161D01*
X32218584Y-68627161D02*
X32142394Y-68779542D01*
X32142394Y-68779542D02*
X32066203Y-69084304D01*
X32066203Y-69084304D02*
X32066203Y-69312876D01*
X32066203Y-69312876D02*
X32142394Y-69617638D01*
X32142394Y-69617638D02*
X32218584Y-69770019D01*
X32218584Y-69770019D02*
X32370965Y-69922400D01*
X32370965Y-69922400D02*
X32599537Y-69998590D01*
X32599537Y-69998590D02*
X32980489Y-69998590D01*
D11*
X201017859Y-86669114D02*
X201208335Y-86573876D01*
X201208335Y-86573876D02*
X201398811Y-86383400D01*
X201398811Y-86383400D02*
X201684525Y-86097685D01*
X201684525Y-86097685D02*
X201875002Y-86002447D01*
X201875002Y-86002447D02*
X202065478Y-86002447D01*
X201970240Y-86478638D02*
X202160716Y-86383400D01*
X202160716Y-86383400D02*
X202351192Y-86192923D01*
X202351192Y-86192923D02*
X202446430Y-85811971D01*
X202446430Y-85811971D02*
X202446430Y-85145304D01*
X202446430Y-85145304D02*
X202351192Y-84764352D01*
X202351192Y-84764352D02*
X202160716Y-84573876D01*
X202160716Y-84573876D02*
X201970240Y-84478638D01*
X201970240Y-84478638D02*
X201589287Y-84478638D01*
X201589287Y-84478638D02*
X201398811Y-84573876D01*
X201398811Y-84573876D02*
X201208335Y-84764352D01*
X201208335Y-84764352D02*
X201113097Y-85145304D01*
X201113097Y-85145304D02*
X201113097Y-85811971D01*
X201113097Y-85811971D02*
X201208335Y-86192923D01*
X201208335Y-86192923D02*
X201398811Y-86383400D01*
X201398811Y-86383400D02*
X201589287Y-86478638D01*
X201589287Y-86478638D02*
X201970240Y-86478638D01*
X199398811Y-85145304D02*
X199398811Y-86478638D01*
X200255954Y-85145304D02*
X200255954Y-86192923D01*
X200255954Y-86192923D02*
X200160716Y-86383400D01*
X200160716Y-86383400D02*
X199970240Y-86478638D01*
X199970240Y-86478638D02*
X199684525Y-86478638D01*
X199684525Y-86478638D02*
X199494049Y-86383400D01*
X199494049Y-86383400D02*
X199398811Y-86288161D01*
X197589287Y-86478638D02*
X197589287Y-85431019D01*
X197589287Y-85431019D02*
X197684525Y-85240542D01*
X197684525Y-85240542D02*
X197875001Y-85145304D01*
X197875001Y-85145304D02*
X198255954Y-85145304D01*
X198255954Y-85145304D02*
X198446430Y-85240542D01*
X197589287Y-86383400D02*
X197779763Y-86478638D01*
X197779763Y-86478638D02*
X198255954Y-86478638D01*
X198255954Y-86478638D02*
X198446430Y-86383400D01*
X198446430Y-86383400D02*
X198541668Y-86192923D01*
X198541668Y-86192923D02*
X198541668Y-86002447D01*
X198541668Y-86002447D02*
X198446430Y-85811971D01*
X198446430Y-85811971D02*
X198255954Y-85716733D01*
X198255954Y-85716733D02*
X197779763Y-85716733D01*
X197779763Y-85716733D02*
X197589287Y-85621495D01*
X196732144Y-86383400D02*
X196541668Y-86478638D01*
X196541668Y-86478638D02*
X196160716Y-86478638D01*
X196160716Y-86478638D02*
X195970239Y-86383400D01*
X195970239Y-86383400D02*
X195875001Y-86192923D01*
X195875001Y-86192923D02*
X195875001Y-86097685D01*
X195875001Y-86097685D02*
X195970239Y-85907209D01*
X195970239Y-85907209D02*
X196160716Y-85811971D01*
X196160716Y-85811971D02*
X196446430Y-85811971D01*
X196446430Y-85811971D02*
X196636906Y-85716733D01*
X196636906Y-85716733D02*
X196732144Y-85526257D01*
X196732144Y-85526257D02*
X196732144Y-85431019D01*
X196732144Y-85431019D02*
X196636906Y-85240542D01*
X196636906Y-85240542D02*
X196446430Y-85145304D01*
X196446430Y-85145304D02*
X196160716Y-85145304D01*
X196160716Y-85145304D02*
X195970239Y-85240542D01*
X194160715Y-86478638D02*
X194160715Y-85431019D01*
X194160715Y-85431019D02*
X194255953Y-85240542D01*
X194255953Y-85240542D02*
X194446429Y-85145304D01*
X194446429Y-85145304D02*
X194827382Y-85145304D01*
X194827382Y-85145304D02*
X195017858Y-85240542D01*
X194160715Y-86383400D02*
X194351191Y-86478638D01*
X194351191Y-86478638D02*
X194827382Y-86478638D01*
X194827382Y-86478638D02*
X195017858Y-86383400D01*
X195017858Y-86383400D02*
X195113096Y-86192923D01*
X195113096Y-86192923D02*
X195113096Y-86002447D01*
X195113096Y-86002447D02*
X195017858Y-85811971D01*
X195017858Y-85811971D02*
X194827382Y-85716733D01*
X194827382Y-85716733D02*
X194351191Y-85716733D01*
X194351191Y-85716733D02*
X194160715Y-85621495D01*
X193208334Y-86478638D02*
X193208334Y-85145304D01*
X193208334Y-85526257D02*
X193113096Y-85335780D01*
X193113096Y-85335780D02*
X193017858Y-85240542D01*
X193017858Y-85240542D02*
X192827382Y-85145304D01*
X192827382Y-85145304D02*
X192636905Y-85145304D01*
X191970239Y-85716733D02*
X190446430Y-85716733D01*
X188636906Y-84478638D02*
X189017859Y-84478638D01*
X189017859Y-84478638D02*
X189208335Y-84573876D01*
X189208335Y-84573876D02*
X189303573Y-84669114D01*
X189303573Y-84669114D02*
X189494049Y-84954828D01*
X189494049Y-84954828D02*
X189589287Y-85335780D01*
X189589287Y-85335780D02*
X189589287Y-86097685D01*
X189589287Y-86097685D02*
X189494049Y-86288161D01*
X189494049Y-86288161D02*
X189398811Y-86383400D01*
X189398811Y-86383400D02*
X189208335Y-86478638D01*
X189208335Y-86478638D02*
X188827382Y-86478638D01*
X188827382Y-86478638D02*
X188636906Y-86383400D01*
X188636906Y-86383400D02*
X188541668Y-86288161D01*
X188541668Y-86288161D02*
X188446430Y-86097685D01*
X188446430Y-86097685D02*
X188446430Y-85621495D01*
X188446430Y-85621495D02*
X188541668Y-85431019D01*
X188541668Y-85431019D02*
X188636906Y-85335780D01*
X188636906Y-85335780D02*
X188827382Y-85240542D01*
X188827382Y-85240542D02*
X189208335Y-85240542D01*
X189208335Y-85240542D02*
X189398811Y-85335780D01*
X189398811Y-85335780D02*
X189494049Y-85431019D01*
X189494049Y-85431019D02*
X189589287Y-85621495D01*
X187779763Y-84478638D02*
X186446430Y-84478638D01*
X186446430Y-84478638D02*
X187303573Y-86478638D01*
X184160715Y-86478638D02*
X184160715Y-84478638D01*
X183208334Y-86478638D02*
X183208334Y-84478638D01*
X180255953Y-87145304D02*
X180255953Y-84288161D01*
X176636904Y-85431019D02*
X176351190Y-85526257D01*
X176351190Y-85526257D02*
X176255952Y-85621495D01*
X176255952Y-85621495D02*
X176160714Y-85811971D01*
X176160714Y-85811971D02*
X176160714Y-86097685D01*
X176160714Y-86097685D02*
X176255952Y-86288161D01*
X176255952Y-86288161D02*
X176351190Y-86383400D01*
X176351190Y-86383400D02*
X176541666Y-86478638D01*
X176541666Y-86478638D02*
X177303571Y-86478638D01*
X177303571Y-86478638D02*
X177303571Y-84478638D01*
X177303571Y-84478638D02*
X176636904Y-84478638D01*
X176636904Y-84478638D02*
X176446428Y-84573876D01*
X176446428Y-84573876D02*
X176351190Y-84669114D01*
X176351190Y-84669114D02*
X176255952Y-84859590D01*
X176255952Y-84859590D02*
X176255952Y-85050066D01*
X176255952Y-85050066D02*
X176351190Y-85240542D01*
X176351190Y-85240542D02*
X176446428Y-85335780D01*
X176446428Y-85335780D02*
X176636904Y-85431019D01*
X176636904Y-85431019D02*
X177303571Y-85431019D01*
X175494047Y-85145304D02*
X175017857Y-86478638D01*
X174541666Y-85145304D02*
X175017857Y-86478638D01*
X175017857Y-86478638D02*
X175208333Y-86954828D01*
X175208333Y-86954828D02*
X175303571Y-87050066D01*
X175303571Y-87050066D02*
X175494047Y-87145304D01*
X172351189Y-86383400D02*
X172065475Y-86478638D01*
X172065475Y-86478638D02*
X171589284Y-86478638D01*
X171589284Y-86478638D02*
X171398808Y-86383400D01*
X171398808Y-86383400D02*
X171303570Y-86288161D01*
X171303570Y-86288161D02*
X171208332Y-86097685D01*
X171208332Y-86097685D02*
X171208332Y-85907209D01*
X171208332Y-85907209D02*
X171303570Y-85716733D01*
X171303570Y-85716733D02*
X171398808Y-85621495D01*
X171398808Y-85621495D02*
X171589284Y-85526257D01*
X171589284Y-85526257D02*
X171970237Y-85431019D01*
X171970237Y-85431019D02*
X172160713Y-85335780D01*
X172160713Y-85335780D02*
X172255951Y-85240542D01*
X172255951Y-85240542D02*
X172351189Y-85050066D01*
X172351189Y-85050066D02*
X172351189Y-84859590D01*
X172351189Y-84859590D02*
X172255951Y-84669114D01*
X172255951Y-84669114D02*
X172160713Y-84573876D01*
X172160713Y-84573876D02*
X171970237Y-84478638D01*
X171970237Y-84478638D02*
X171494046Y-84478638D01*
X171494046Y-84478638D02*
X171208332Y-84573876D01*
X169494046Y-86383400D02*
X169684522Y-86478638D01*
X169684522Y-86478638D02*
X170065475Y-86478638D01*
X170065475Y-86478638D02*
X170255951Y-86383400D01*
X170255951Y-86383400D02*
X170351189Y-86288161D01*
X170351189Y-86288161D02*
X170446427Y-86097685D01*
X170446427Y-86097685D02*
X170446427Y-85526257D01*
X170446427Y-85526257D02*
X170351189Y-85335780D01*
X170351189Y-85335780D02*
X170255951Y-85240542D01*
X170255951Y-85240542D02*
X170065475Y-85145304D01*
X170065475Y-85145304D02*
X169684522Y-85145304D01*
X169684522Y-85145304D02*
X169494046Y-85240542D01*
X167779760Y-86478638D02*
X167779760Y-85431019D01*
X167779760Y-85431019D02*
X167874998Y-85240542D01*
X167874998Y-85240542D02*
X168065474Y-85145304D01*
X168065474Y-85145304D02*
X168446427Y-85145304D01*
X168446427Y-85145304D02*
X168636903Y-85240542D01*
X167779760Y-86383400D02*
X167970236Y-86478638D01*
X167970236Y-86478638D02*
X168446427Y-86478638D01*
X168446427Y-86478638D02*
X168636903Y-86383400D01*
X168636903Y-86383400D02*
X168732141Y-86192923D01*
X168732141Y-86192923D02*
X168732141Y-86002447D01*
X168732141Y-86002447D02*
X168636903Y-85811971D01*
X168636903Y-85811971D02*
X168446427Y-85716733D01*
X168446427Y-85716733D02*
X167970236Y-85716733D01*
X167970236Y-85716733D02*
X167779760Y-85621495D01*
X167113093Y-85145304D02*
X166351189Y-85145304D01*
X166827379Y-84478638D02*
X166827379Y-86192923D01*
X166827379Y-86192923D02*
X166732141Y-86383400D01*
X166732141Y-86383400D02*
X166541665Y-86478638D01*
X166541665Y-86478638D02*
X166351189Y-86478638D01*
X165970236Y-85145304D02*
X165208332Y-85145304D01*
X165684522Y-84478638D02*
X165684522Y-86192923D01*
X165684522Y-86192923D02*
X165589284Y-86383400D01*
X165589284Y-86383400D02*
X165398808Y-86478638D01*
X165398808Y-86478638D02*
X165208332Y-86478638D01*
X163779760Y-86383400D02*
X163970236Y-86478638D01*
X163970236Y-86478638D02*
X164351189Y-86478638D01*
X164351189Y-86478638D02*
X164541665Y-86383400D01*
X164541665Y-86383400D02*
X164636903Y-86192923D01*
X164636903Y-86192923D02*
X164636903Y-85431019D01*
X164636903Y-85431019D02*
X164541665Y-85240542D01*
X164541665Y-85240542D02*
X164351189Y-85145304D01*
X164351189Y-85145304D02*
X163970236Y-85145304D01*
X163970236Y-85145304D02*
X163779760Y-85240542D01*
X163779760Y-85240542D02*
X163684522Y-85431019D01*
X163684522Y-85431019D02*
X163684522Y-85621495D01*
X163684522Y-85621495D02*
X164636903Y-85811971D01*
X162827379Y-86478638D02*
X162827379Y-85145304D01*
X162827379Y-85526257D02*
X162732141Y-85335780D01*
X162732141Y-85335780D02*
X162636903Y-85240542D01*
X162636903Y-85240542D02*
X162446427Y-85145304D01*
X162446427Y-85145304D02*
X162255950Y-85145304D01*
X160827379Y-86383400D02*
X161017855Y-86478638D01*
X161017855Y-86478638D02*
X161398808Y-86478638D01*
X161398808Y-86478638D02*
X161589284Y-86383400D01*
X161589284Y-86383400D02*
X161684522Y-86192923D01*
X161684522Y-86192923D02*
X161684522Y-85431019D01*
X161684522Y-85431019D02*
X161589284Y-85240542D01*
X161589284Y-85240542D02*
X161398808Y-85145304D01*
X161398808Y-85145304D02*
X161017855Y-85145304D01*
X161017855Y-85145304D02*
X160827379Y-85240542D01*
X160827379Y-85240542D02*
X160732141Y-85431019D01*
X160732141Y-85431019D02*
X160732141Y-85621495D01*
X160732141Y-85621495D02*
X161684522Y-85811971D01*
X159017855Y-86478638D02*
X159017855Y-84478638D01*
X159017855Y-86383400D02*
X159208331Y-86478638D01*
X159208331Y-86478638D02*
X159589284Y-86478638D01*
X159589284Y-86478638D02*
X159779760Y-86383400D01*
X159779760Y-86383400D02*
X159874998Y-86288161D01*
X159874998Y-86288161D02*
X159970236Y-86097685D01*
X159970236Y-86097685D02*
X159970236Y-85526257D01*
X159970236Y-85526257D02*
X159874998Y-85335780D01*
X159874998Y-85335780D02*
X159779760Y-85240542D01*
X159779760Y-85240542D02*
X159589284Y-85145304D01*
X159589284Y-85145304D02*
X159208331Y-85145304D01*
X159208331Y-85145304D02*
X159017855Y-85240542D01*
X158065474Y-86478638D02*
X158065474Y-84478638D01*
X158065474Y-84478638D02*
X157589284Y-84478638D01*
X157589284Y-84478638D02*
X157303569Y-84573876D01*
X157303569Y-84573876D02*
X157113093Y-84764352D01*
X157113093Y-84764352D02*
X157017855Y-84954828D01*
X157017855Y-84954828D02*
X156922617Y-85335780D01*
X156922617Y-85335780D02*
X156922617Y-85621495D01*
X156922617Y-85621495D02*
X157017855Y-86002447D01*
X157017855Y-86002447D02*
X157113093Y-86192923D01*
X157113093Y-86192923D02*
X157303569Y-86383400D01*
X157303569Y-86383400D02*
X157589284Y-86478638D01*
X157589284Y-86478638D02*
X158065474Y-86478638D01*
X156065474Y-86478638D02*
X156065474Y-85145304D01*
X156065474Y-85526257D02*
X155970236Y-85335780D01*
X155970236Y-85335780D02*
X155874998Y-85240542D01*
X155874998Y-85240542D02*
X155684522Y-85145304D01*
X155684522Y-85145304D02*
X155494045Y-85145304D01*
X154827379Y-86478638D02*
X154827379Y-85145304D01*
X154827379Y-84478638D02*
X154922617Y-84573876D01*
X154922617Y-84573876D02*
X154827379Y-84669114D01*
X154827379Y-84669114D02*
X154732141Y-84573876D01*
X154732141Y-84573876D02*
X154827379Y-84478638D01*
X154827379Y-84478638D02*
X154827379Y-84669114D01*
X154160712Y-85145304D02*
X153398808Y-85145304D01*
X153874998Y-86478638D02*
X153874998Y-84764352D01*
X153874998Y-84764352D02*
X153779760Y-84573876D01*
X153779760Y-84573876D02*
X153589284Y-84478638D01*
X153589284Y-84478638D02*
X153398808Y-84478638D01*
X153017855Y-85145304D02*
X152255951Y-85145304D01*
X152732141Y-84478638D02*
X152732141Y-86192923D01*
X152732141Y-86192923D02*
X152636903Y-86383400D01*
X152636903Y-86383400D02*
X152446427Y-86478638D01*
X152446427Y-86478638D02*
X152255951Y-86478638D01*
X150827379Y-86383400D02*
X151017855Y-86478638D01*
X151017855Y-86478638D02*
X151398808Y-86478638D01*
X151398808Y-86478638D02*
X151589284Y-86383400D01*
X151589284Y-86383400D02*
X151684522Y-86192923D01*
X151684522Y-86192923D02*
X151684522Y-85431019D01*
X151684522Y-85431019D02*
X151589284Y-85240542D01*
X151589284Y-85240542D02*
X151398808Y-85145304D01*
X151398808Y-85145304D02*
X151017855Y-85145304D01*
X151017855Y-85145304D02*
X150827379Y-85240542D01*
X150827379Y-85240542D02*
X150732141Y-85431019D01*
X150732141Y-85431019D02*
X150732141Y-85621495D01*
X150732141Y-85621495D02*
X151684522Y-85811971D01*
X149874998Y-86478638D02*
X149874998Y-85145304D01*
X149874998Y-85526257D02*
X149779760Y-85335780D01*
X149779760Y-85335780D02*
X149684522Y-85240542D01*
X149684522Y-85240542D02*
X149494046Y-85145304D01*
X149494046Y-85145304D02*
X149303569Y-85145304D01*
X146636903Y-87145304D02*
X146636903Y-84288161D01*
X143017854Y-85431019D02*
X142732140Y-85526257D01*
X142732140Y-85526257D02*
X142636902Y-85621495D01*
X142636902Y-85621495D02*
X142541664Y-85811971D01*
X142541664Y-85811971D02*
X142541664Y-86097685D01*
X142541664Y-86097685D02*
X142636902Y-86288161D01*
X142636902Y-86288161D02*
X142732140Y-86383400D01*
X142732140Y-86383400D02*
X142922616Y-86478638D01*
X142922616Y-86478638D02*
X143684521Y-86478638D01*
X143684521Y-86478638D02*
X143684521Y-84478638D01*
X143684521Y-84478638D02*
X143017854Y-84478638D01*
X143017854Y-84478638D02*
X142827378Y-84573876D01*
X142827378Y-84573876D02*
X142732140Y-84669114D01*
X142732140Y-84669114D02*
X142636902Y-84859590D01*
X142636902Y-84859590D02*
X142636902Y-85050066D01*
X142636902Y-85050066D02*
X142732140Y-85240542D01*
X142732140Y-85240542D02*
X142827378Y-85335780D01*
X142827378Y-85335780D02*
X143017854Y-85431019D01*
X143017854Y-85431019D02*
X143684521Y-85431019D01*
X141398807Y-86478638D02*
X141589283Y-86383400D01*
X141589283Y-86383400D02*
X141684521Y-86288161D01*
X141684521Y-86288161D02*
X141779759Y-86097685D01*
X141779759Y-86097685D02*
X141779759Y-85526257D01*
X141779759Y-85526257D02*
X141684521Y-85335780D01*
X141684521Y-85335780D02*
X141589283Y-85240542D01*
X141589283Y-85240542D02*
X141398807Y-85145304D01*
X141398807Y-85145304D02*
X141113092Y-85145304D01*
X141113092Y-85145304D02*
X140922616Y-85240542D01*
X140922616Y-85240542D02*
X140827378Y-85335780D01*
X140827378Y-85335780D02*
X140732140Y-85526257D01*
X140732140Y-85526257D02*
X140732140Y-86097685D01*
X140732140Y-86097685D02*
X140827378Y-86288161D01*
X140827378Y-86288161D02*
X140922616Y-86383400D01*
X140922616Y-86383400D02*
X141113092Y-86478638D01*
X141113092Y-86478638D02*
X141398807Y-86478638D01*
X139874997Y-85145304D02*
X139874997Y-86478638D01*
X139874997Y-85335780D02*
X139779759Y-85240542D01*
X139779759Y-85240542D02*
X139589283Y-85145304D01*
X139589283Y-85145304D02*
X139303568Y-85145304D01*
X139303568Y-85145304D02*
X139113092Y-85240542D01*
X139113092Y-85240542D02*
X139017854Y-85431019D01*
X139017854Y-85431019D02*
X139017854Y-86478638D01*
X138065473Y-86478638D02*
X138065473Y-84478638D01*
X137874997Y-85716733D02*
X137303568Y-86478638D01*
X137303568Y-85145304D02*
X138065473Y-85907209D01*
D12*
X105009523Y-60632200D02*
X104866666Y-60679819D01*
X104866666Y-60679819D02*
X104628571Y-60679819D01*
X104628571Y-60679819D02*
X104533333Y-60632200D01*
X104533333Y-60632200D02*
X104485714Y-60584580D01*
X104485714Y-60584580D02*
X104438095Y-60489342D01*
X104438095Y-60489342D02*
X104438095Y-60394104D01*
X104438095Y-60394104D02*
X104485714Y-60298866D01*
X104485714Y-60298866D02*
X104533333Y-60251247D01*
X104533333Y-60251247D02*
X104628571Y-60203628D01*
X104628571Y-60203628D02*
X104819047Y-60156009D01*
X104819047Y-60156009D02*
X104914285Y-60108390D01*
X104914285Y-60108390D02*
X104961904Y-60060771D01*
X104961904Y-60060771D02*
X105009523Y-59965533D01*
X105009523Y-59965533D02*
X105009523Y-59870295D01*
X105009523Y-59870295D02*
X104961904Y-59775057D01*
X104961904Y-59775057D02*
X104914285Y-59727438D01*
X104914285Y-59727438D02*
X104819047Y-59679819D01*
X104819047Y-59679819D02*
X104580952Y-59679819D01*
X104580952Y-59679819D02*
X104438095Y-59727438D01*
X104104761Y-59679819D02*
X103866666Y-60679819D01*
X103866666Y-60679819D02*
X103676190Y-59965533D01*
X103676190Y-59965533D02*
X103485714Y-60679819D01*
X103485714Y-60679819D02*
X103247619Y-59679819D01*
X102342857Y-60679819D02*
X102914285Y-60679819D01*
X102628571Y-60679819D02*
X102628571Y-59679819D01*
X102628571Y-59679819D02*
X102723809Y-59822676D01*
X102723809Y-59822676D02*
X102819047Y-59917914D01*
X102819047Y-59917914D02*
X102914285Y-59965533D01*
X101485714Y-60013152D02*
X101485714Y-60679819D01*
X101723809Y-59632200D02*
X101961904Y-60346485D01*
X101961904Y-60346485D02*
X101342857Y-60346485D01*
X124059523Y-98732200D02*
X123916666Y-98779819D01*
X123916666Y-98779819D02*
X123678571Y-98779819D01*
X123678571Y-98779819D02*
X123583333Y-98732200D01*
X123583333Y-98732200D02*
X123535714Y-98684580D01*
X123535714Y-98684580D02*
X123488095Y-98589342D01*
X123488095Y-98589342D02*
X123488095Y-98494104D01*
X123488095Y-98494104D02*
X123535714Y-98398866D01*
X123535714Y-98398866D02*
X123583333Y-98351247D01*
X123583333Y-98351247D02*
X123678571Y-98303628D01*
X123678571Y-98303628D02*
X123869047Y-98256009D01*
X123869047Y-98256009D02*
X123964285Y-98208390D01*
X123964285Y-98208390D02*
X124011904Y-98160771D01*
X124011904Y-98160771D02*
X124059523Y-98065533D01*
X124059523Y-98065533D02*
X124059523Y-97970295D01*
X124059523Y-97970295D02*
X124011904Y-97875057D01*
X124011904Y-97875057D02*
X123964285Y-97827438D01*
X123964285Y-97827438D02*
X123869047Y-97779819D01*
X123869047Y-97779819D02*
X123630952Y-97779819D01*
X123630952Y-97779819D02*
X123488095Y-97827438D01*
X123154761Y-97779819D02*
X122916666Y-98779819D01*
X122916666Y-98779819D02*
X122726190Y-98065533D01*
X122726190Y-98065533D02*
X122535714Y-98779819D01*
X122535714Y-98779819D02*
X122297619Y-97779819D01*
X122011904Y-97779819D02*
X121392857Y-97779819D01*
X121392857Y-97779819D02*
X121726190Y-98160771D01*
X121726190Y-98160771D02*
X121583333Y-98160771D01*
X121583333Y-98160771D02*
X121488095Y-98208390D01*
X121488095Y-98208390D02*
X121440476Y-98256009D01*
X121440476Y-98256009D02*
X121392857Y-98351247D01*
X121392857Y-98351247D02*
X121392857Y-98589342D01*
X121392857Y-98589342D02*
X121440476Y-98684580D01*
X121440476Y-98684580D02*
X121488095Y-98732200D01*
X121488095Y-98732200D02*
X121583333Y-98779819D01*
X121583333Y-98779819D02*
X121869047Y-98779819D01*
X121869047Y-98779819D02*
X121964285Y-98732200D01*
X121964285Y-98732200D02*
X122011904Y-98684580D01*
X120488095Y-97779819D02*
X120964285Y-97779819D01*
X120964285Y-97779819D02*
X121011904Y-98256009D01*
X121011904Y-98256009D02*
X120964285Y-98208390D01*
X120964285Y-98208390D02*
X120869047Y-98160771D01*
X120869047Y-98160771D02*
X120630952Y-98160771D01*
X120630952Y-98160771D02*
X120535714Y-98208390D01*
X120535714Y-98208390D02*
X120488095Y-98256009D01*
X120488095Y-98256009D02*
X120440476Y-98351247D01*
X120440476Y-98351247D02*
X120440476Y-98589342D01*
X120440476Y-98589342D02*
X120488095Y-98684580D01*
X120488095Y-98684580D02*
X120535714Y-98732200D01*
X120535714Y-98732200D02*
X120630952Y-98779819D01*
X120630952Y-98779819D02*
X120869047Y-98779819D01*
X120869047Y-98779819D02*
X120964285Y-98732200D01*
X120964285Y-98732200D02*
X121011904Y-98684580D01*
X124059523Y-60632200D02*
X123916666Y-60679819D01*
X123916666Y-60679819D02*
X123678571Y-60679819D01*
X123678571Y-60679819D02*
X123583333Y-60632200D01*
X123583333Y-60632200D02*
X123535714Y-60584580D01*
X123535714Y-60584580D02*
X123488095Y-60489342D01*
X123488095Y-60489342D02*
X123488095Y-60394104D01*
X123488095Y-60394104D02*
X123535714Y-60298866D01*
X123535714Y-60298866D02*
X123583333Y-60251247D01*
X123583333Y-60251247D02*
X123678571Y-60203628D01*
X123678571Y-60203628D02*
X123869047Y-60156009D01*
X123869047Y-60156009D02*
X123964285Y-60108390D01*
X123964285Y-60108390D02*
X124011904Y-60060771D01*
X124011904Y-60060771D02*
X124059523Y-59965533D01*
X124059523Y-59965533D02*
X124059523Y-59870295D01*
X124059523Y-59870295D02*
X124011904Y-59775057D01*
X124011904Y-59775057D02*
X123964285Y-59727438D01*
X123964285Y-59727438D02*
X123869047Y-59679819D01*
X123869047Y-59679819D02*
X123630952Y-59679819D01*
X123630952Y-59679819D02*
X123488095Y-59727438D01*
X123154761Y-59679819D02*
X122916666Y-60679819D01*
X122916666Y-60679819D02*
X122726190Y-59965533D01*
X122726190Y-59965533D02*
X122535714Y-60679819D01*
X122535714Y-60679819D02*
X122297619Y-59679819D01*
X121392857Y-60679819D02*
X121964285Y-60679819D01*
X121678571Y-60679819D02*
X121678571Y-59679819D01*
X121678571Y-59679819D02*
X121773809Y-59822676D01*
X121773809Y-59822676D02*
X121869047Y-59917914D01*
X121869047Y-59917914D02*
X121964285Y-59965533D01*
X120488095Y-59679819D02*
X120964285Y-59679819D01*
X120964285Y-59679819D02*
X121011904Y-60156009D01*
X121011904Y-60156009D02*
X120964285Y-60108390D01*
X120964285Y-60108390D02*
X120869047Y-60060771D01*
X120869047Y-60060771D02*
X120630952Y-60060771D01*
X120630952Y-60060771D02*
X120535714Y-60108390D01*
X120535714Y-60108390D02*
X120488095Y-60156009D01*
X120488095Y-60156009D02*
X120440476Y-60251247D01*
X120440476Y-60251247D02*
X120440476Y-60489342D01*
X120440476Y-60489342D02*
X120488095Y-60584580D01*
X120488095Y-60584580D02*
X120535714Y-60632200D01*
X120535714Y-60632200D02*
X120630952Y-60679819D01*
X120630952Y-60679819D02*
X120869047Y-60679819D01*
X120869047Y-60679819D02*
X120964285Y-60632200D01*
X120964285Y-60632200D02*
X121011904Y-60584580D01*
X47859523Y-98732200D02*
X47716666Y-98779819D01*
X47716666Y-98779819D02*
X47478571Y-98779819D01*
X47478571Y-98779819D02*
X47383333Y-98732200D01*
X47383333Y-98732200D02*
X47335714Y-98684580D01*
X47335714Y-98684580D02*
X47288095Y-98589342D01*
X47288095Y-98589342D02*
X47288095Y-98494104D01*
X47288095Y-98494104D02*
X47335714Y-98398866D01*
X47335714Y-98398866D02*
X47383333Y-98351247D01*
X47383333Y-98351247D02*
X47478571Y-98303628D01*
X47478571Y-98303628D02*
X47669047Y-98256009D01*
X47669047Y-98256009D02*
X47764285Y-98208390D01*
X47764285Y-98208390D02*
X47811904Y-98160771D01*
X47811904Y-98160771D02*
X47859523Y-98065533D01*
X47859523Y-98065533D02*
X47859523Y-97970295D01*
X47859523Y-97970295D02*
X47811904Y-97875057D01*
X47811904Y-97875057D02*
X47764285Y-97827438D01*
X47764285Y-97827438D02*
X47669047Y-97779819D01*
X47669047Y-97779819D02*
X47430952Y-97779819D01*
X47430952Y-97779819D02*
X47288095Y-97827438D01*
X46954761Y-97779819D02*
X46716666Y-98779819D01*
X46716666Y-98779819D02*
X46526190Y-98065533D01*
X46526190Y-98065533D02*
X46335714Y-98779819D01*
X46335714Y-98779819D02*
X46097619Y-97779819D01*
X45811904Y-97779819D02*
X45192857Y-97779819D01*
X45192857Y-97779819D02*
X45526190Y-98160771D01*
X45526190Y-98160771D02*
X45383333Y-98160771D01*
X45383333Y-98160771D02*
X45288095Y-98208390D01*
X45288095Y-98208390D02*
X45240476Y-98256009D01*
X45240476Y-98256009D02*
X45192857Y-98351247D01*
X45192857Y-98351247D02*
X45192857Y-98589342D01*
X45192857Y-98589342D02*
X45240476Y-98684580D01*
X45240476Y-98684580D02*
X45288095Y-98732200D01*
X45288095Y-98732200D02*
X45383333Y-98779819D01*
X45383333Y-98779819D02*
X45669047Y-98779819D01*
X45669047Y-98779819D02*
X45764285Y-98732200D01*
X45764285Y-98732200D02*
X45811904Y-98684580D01*
X44240476Y-98779819D02*
X44811904Y-98779819D01*
X44526190Y-98779819D02*
X44526190Y-97779819D01*
X44526190Y-97779819D02*
X44621428Y-97922676D01*
X44621428Y-97922676D02*
X44716666Y-98017914D01*
X44716666Y-98017914D02*
X44811904Y-98065533D01*
X124059523Y-79682200D02*
X123916666Y-79729819D01*
X123916666Y-79729819D02*
X123678571Y-79729819D01*
X123678571Y-79729819D02*
X123583333Y-79682200D01*
X123583333Y-79682200D02*
X123535714Y-79634580D01*
X123535714Y-79634580D02*
X123488095Y-79539342D01*
X123488095Y-79539342D02*
X123488095Y-79444104D01*
X123488095Y-79444104D02*
X123535714Y-79348866D01*
X123535714Y-79348866D02*
X123583333Y-79301247D01*
X123583333Y-79301247D02*
X123678571Y-79253628D01*
X123678571Y-79253628D02*
X123869047Y-79206009D01*
X123869047Y-79206009D02*
X123964285Y-79158390D01*
X123964285Y-79158390D02*
X124011904Y-79110771D01*
X124011904Y-79110771D02*
X124059523Y-79015533D01*
X124059523Y-79015533D02*
X124059523Y-78920295D01*
X124059523Y-78920295D02*
X124011904Y-78825057D01*
X124011904Y-78825057D02*
X123964285Y-78777438D01*
X123964285Y-78777438D02*
X123869047Y-78729819D01*
X123869047Y-78729819D02*
X123630952Y-78729819D01*
X123630952Y-78729819D02*
X123488095Y-78777438D01*
X123154761Y-78729819D02*
X122916666Y-79729819D01*
X122916666Y-79729819D02*
X122726190Y-79015533D01*
X122726190Y-79015533D02*
X122535714Y-79729819D01*
X122535714Y-79729819D02*
X122297619Y-78729819D01*
X121964285Y-78825057D02*
X121916666Y-78777438D01*
X121916666Y-78777438D02*
X121821428Y-78729819D01*
X121821428Y-78729819D02*
X121583333Y-78729819D01*
X121583333Y-78729819D02*
X121488095Y-78777438D01*
X121488095Y-78777438D02*
X121440476Y-78825057D01*
X121440476Y-78825057D02*
X121392857Y-78920295D01*
X121392857Y-78920295D02*
X121392857Y-79015533D01*
X121392857Y-79015533D02*
X121440476Y-79158390D01*
X121440476Y-79158390D02*
X122011904Y-79729819D01*
X122011904Y-79729819D02*
X121392857Y-79729819D01*
X120488095Y-78729819D02*
X120964285Y-78729819D01*
X120964285Y-78729819D02*
X121011904Y-79206009D01*
X121011904Y-79206009D02*
X120964285Y-79158390D01*
X120964285Y-79158390D02*
X120869047Y-79110771D01*
X120869047Y-79110771D02*
X120630952Y-79110771D01*
X120630952Y-79110771D02*
X120535714Y-79158390D01*
X120535714Y-79158390D02*
X120488095Y-79206009D01*
X120488095Y-79206009D02*
X120440476Y-79301247D01*
X120440476Y-79301247D02*
X120440476Y-79539342D01*
X120440476Y-79539342D02*
X120488095Y-79634580D01*
X120488095Y-79634580D02*
X120535714Y-79682200D01*
X120535714Y-79682200D02*
X120630952Y-79729819D01*
X120630952Y-79729819D02*
X120869047Y-79729819D01*
X120869047Y-79729819D02*
X120964285Y-79682200D01*
X120964285Y-79682200D02*
X121011904Y-79634580D01*
X48097618Y-60632200D02*
X47954761Y-60679819D01*
X47954761Y-60679819D02*
X47716666Y-60679819D01*
X47716666Y-60679819D02*
X47621428Y-60632200D01*
X47621428Y-60632200D02*
X47573809Y-60584580D01*
X47573809Y-60584580D02*
X47526190Y-60489342D01*
X47526190Y-60489342D02*
X47526190Y-60394104D01*
X47526190Y-60394104D02*
X47573809Y-60298866D01*
X47573809Y-60298866D02*
X47621428Y-60251247D01*
X47621428Y-60251247D02*
X47716666Y-60203628D01*
X47716666Y-60203628D02*
X47907142Y-60156009D01*
X47907142Y-60156009D02*
X48002380Y-60108390D01*
X48002380Y-60108390D02*
X48049999Y-60060771D01*
X48049999Y-60060771D02*
X48097618Y-59965533D01*
X48097618Y-59965533D02*
X48097618Y-59870295D01*
X48097618Y-59870295D02*
X48049999Y-59775057D01*
X48049999Y-59775057D02*
X48002380Y-59727438D01*
X48002380Y-59727438D02*
X47907142Y-59679819D01*
X47907142Y-59679819D02*
X47669047Y-59679819D01*
X47669047Y-59679819D02*
X47526190Y-59727438D01*
X47192856Y-59679819D02*
X46954761Y-60679819D01*
X46954761Y-60679819D02*
X46764285Y-59965533D01*
X46764285Y-59965533D02*
X46573809Y-60679819D01*
X46573809Y-60679819D02*
X46335714Y-59679819D01*
X45430952Y-60679819D02*
X46002380Y-60679819D01*
X45716666Y-60679819D02*
X45716666Y-59679819D01*
X45716666Y-59679819D02*
X45811904Y-59822676D01*
X45811904Y-59822676D02*
X45907142Y-59917914D01*
X45907142Y-59917914D02*
X46002380Y-59965533D01*
X45002380Y-60584580D02*
X44954761Y-60632200D01*
X44954761Y-60632200D02*
X45002380Y-60679819D01*
X45002380Y-60679819D02*
X45049999Y-60632200D01*
X45049999Y-60632200D02*
X45002380Y-60584580D01*
X45002380Y-60584580D02*
X45002380Y-60679819D01*
X44002381Y-60679819D02*
X44573809Y-60679819D01*
X44288095Y-60679819D02*
X44288095Y-59679819D01*
X44288095Y-59679819D02*
X44383333Y-59822676D01*
X44383333Y-59822676D02*
X44478571Y-59917914D01*
X44478571Y-59917914D02*
X44573809Y-59965533D01*
X224072023Y-117782200D02*
X223929166Y-117829819D01*
X223929166Y-117829819D02*
X223691071Y-117829819D01*
X223691071Y-117829819D02*
X223595833Y-117782200D01*
X223595833Y-117782200D02*
X223548214Y-117734580D01*
X223548214Y-117734580D02*
X223500595Y-117639342D01*
X223500595Y-117639342D02*
X223500595Y-117544104D01*
X223500595Y-117544104D02*
X223548214Y-117448866D01*
X223548214Y-117448866D02*
X223595833Y-117401247D01*
X223595833Y-117401247D02*
X223691071Y-117353628D01*
X223691071Y-117353628D02*
X223881547Y-117306009D01*
X223881547Y-117306009D02*
X223976785Y-117258390D01*
X223976785Y-117258390D02*
X224024404Y-117210771D01*
X224024404Y-117210771D02*
X224072023Y-117115533D01*
X224072023Y-117115533D02*
X224072023Y-117020295D01*
X224072023Y-117020295D02*
X224024404Y-116925057D01*
X224024404Y-116925057D02*
X223976785Y-116877438D01*
X223976785Y-116877438D02*
X223881547Y-116829819D01*
X223881547Y-116829819D02*
X223643452Y-116829819D01*
X223643452Y-116829819D02*
X223500595Y-116877438D01*
X223167261Y-116829819D02*
X222929166Y-117829819D01*
X222929166Y-117829819D02*
X222738690Y-117115533D01*
X222738690Y-117115533D02*
X222548214Y-117829819D01*
X222548214Y-117829819D02*
X222310119Y-116829819D01*
X221500595Y-117163152D02*
X221500595Y-117829819D01*
X221738690Y-116782200D02*
X221976785Y-117496485D01*
X221976785Y-117496485D02*
X221357738Y-117496485D01*
X221072023Y-116829819D02*
X220405357Y-116829819D01*
X220405357Y-116829819D02*
X220833928Y-117829819D01*
X66433332Y-41582200D02*
X66290475Y-41629819D01*
X66290475Y-41629819D02*
X66052380Y-41629819D01*
X66052380Y-41629819D02*
X65957142Y-41582200D01*
X65957142Y-41582200D02*
X65909523Y-41534580D01*
X65909523Y-41534580D02*
X65861904Y-41439342D01*
X65861904Y-41439342D02*
X65861904Y-41344104D01*
X65861904Y-41344104D02*
X65909523Y-41248866D01*
X65909523Y-41248866D02*
X65957142Y-41201247D01*
X65957142Y-41201247D02*
X66052380Y-41153628D01*
X66052380Y-41153628D02*
X66242856Y-41106009D01*
X66242856Y-41106009D02*
X66338094Y-41058390D01*
X66338094Y-41058390D02*
X66385713Y-41010771D01*
X66385713Y-41010771D02*
X66433332Y-40915533D01*
X66433332Y-40915533D02*
X66433332Y-40820295D01*
X66433332Y-40820295D02*
X66385713Y-40725057D01*
X66385713Y-40725057D02*
X66338094Y-40677438D01*
X66338094Y-40677438D02*
X66242856Y-40629819D01*
X66242856Y-40629819D02*
X66004761Y-40629819D01*
X66004761Y-40629819D02*
X65861904Y-40677438D01*
X65528570Y-40629819D02*
X65290475Y-41629819D01*
X65290475Y-41629819D02*
X65099999Y-40915533D01*
X65099999Y-40915533D02*
X64909523Y-41629819D01*
X64909523Y-41629819D02*
X64671428Y-40629819D01*
X64338094Y-40725057D02*
X64290475Y-40677438D01*
X64290475Y-40677438D02*
X64195237Y-40629819D01*
X64195237Y-40629819D02*
X63957142Y-40629819D01*
X63957142Y-40629819D02*
X63861904Y-40677438D01*
X63861904Y-40677438D02*
X63814285Y-40725057D01*
X63814285Y-40725057D02*
X63766666Y-40820295D01*
X63766666Y-40820295D02*
X63766666Y-40915533D01*
X63766666Y-40915533D02*
X63814285Y-41058390D01*
X63814285Y-41058390D02*
X64385713Y-41629819D01*
X64385713Y-41629819D02*
X63766666Y-41629819D01*
X76434523Y-111432200D02*
X76291666Y-111479819D01*
X76291666Y-111479819D02*
X76053571Y-111479819D01*
X76053571Y-111479819D02*
X75958333Y-111432200D01*
X75958333Y-111432200D02*
X75910714Y-111384580D01*
X75910714Y-111384580D02*
X75863095Y-111289342D01*
X75863095Y-111289342D02*
X75863095Y-111194104D01*
X75863095Y-111194104D02*
X75910714Y-111098866D01*
X75910714Y-111098866D02*
X75958333Y-111051247D01*
X75958333Y-111051247D02*
X76053571Y-111003628D01*
X76053571Y-111003628D02*
X76244047Y-110956009D01*
X76244047Y-110956009D02*
X76339285Y-110908390D01*
X76339285Y-110908390D02*
X76386904Y-110860771D01*
X76386904Y-110860771D02*
X76434523Y-110765533D01*
X76434523Y-110765533D02*
X76434523Y-110670295D01*
X76434523Y-110670295D02*
X76386904Y-110575057D01*
X76386904Y-110575057D02*
X76339285Y-110527438D01*
X76339285Y-110527438D02*
X76244047Y-110479819D01*
X76244047Y-110479819D02*
X76005952Y-110479819D01*
X76005952Y-110479819D02*
X75863095Y-110527438D01*
X75529761Y-110479819D02*
X75291666Y-111479819D01*
X75291666Y-111479819D02*
X75101190Y-110765533D01*
X75101190Y-110765533D02*
X74910714Y-111479819D01*
X74910714Y-111479819D02*
X74672619Y-110479819D01*
X73767857Y-111479819D02*
X74339285Y-111479819D01*
X74053571Y-111479819D02*
X74053571Y-110479819D01*
X74053571Y-110479819D02*
X74148809Y-110622676D01*
X74148809Y-110622676D02*
X74244047Y-110717914D01*
X74244047Y-110717914D02*
X74339285Y-110765533D01*
X73386904Y-110575057D02*
X73339285Y-110527438D01*
X73339285Y-110527438D02*
X73244047Y-110479819D01*
X73244047Y-110479819D02*
X73005952Y-110479819D01*
X73005952Y-110479819D02*
X72910714Y-110527438D01*
X72910714Y-110527438D02*
X72863095Y-110575057D01*
X72863095Y-110575057D02*
X72815476Y-110670295D01*
X72815476Y-110670295D02*
X72815476Y-110765533D01*
X72815476Y-110765533D02*
X72863095Y-110908390D01*
X72863095Y-110908390D02*
X73434523Y-111479819D01*
X73434523Y-111479819D02*
X72815476Y-111479819D01*
X95484523Y-117782200D02*
X95341666Y-117829819D01*
X95341666Y-117829819D02*
X95103571Y-117829819D01*
X95103571Y-117829819D02*
X95008333Y-117782200D01*
X95008333Y-117782200D02*
X94960714Y-117734580D01*
X94960714Y-117734580D02*
X94913095Y-117639342D01*
X94913095Y-117639342D02*
X94913095Y-117544104D01*
X94913095Y-117544104D02*
X94960714Y-117448866D01*
X94960714Y-117448866D02*
X95008333Y-117401247D01*
X95008333Y-117401247D02*
X95103571Y-117353628D01*
X95103571Y-117353628D02*
X95294047Y-117306009D01*
X95294047Y-117306009D02*
X95389285Y-117258390D01*
X95389285Y-117258390D02*
X95436904Y-117210771D01*
X95436904Y-117210771D02*
X95484523Y-117115533D01*
X95484523Y-117115533D02*
X95484523Y-117020295D01*
X95484523Y-117020295D02*
X95436904Y-116925057D01*
X95436904Y-116925057D02*
X95389285Y-116877438D01*
X95389285Y-116877438D02*
X95294047Y-116829819D01*
X95294047Y-116829819D02*
X95055952Y-116829819D01*
X95055952Y-116829819D02*
X94913095Y-116877438D01*
X94579761Y-116829819D02*
X94341666Y-117829819D01*
X94341666Y-117829819D02*
X94151190Y-117115533D01*
X94151190Y-117115533D02*
X93960714Y-117829819D01*
X93960714Y-117829819D02*
X93722619Y-116829819D01*
X92913095Y-117163152D02*
X92913095Y-117829819D01*
X93151190Y-116782200D02*
X93389285Y-117496485D01*
X93389285Y-117496485D02*
X92770238Y-117496485D01*
X92246428Y-117258390D02*
X92341666Y-117210771D01*
X92341666Y-117210771D02*
X92389285Y-117163152D01*
X92389285Y-117163152D02*
X92436904Y-117067914D01*
X92436904Y-117067914D02*
X92436904Y-117020295D01*
X92436904Y-117020295D02*
X92389285Y-116925057D01*
X92389285Y-116925057D02*
X92341666Y-116877438D01*
X92341666Y-116877438D02*
X92246428Y-116829819D01*
X92246428Y-116829819D02*
X92055952Y-116829819D01*
X92055952Y-116829819D02*
X91960714Y-116877438D01*
X91960714Y-116877438D02*
X91913095Y-116925057D01*
X91913095Y-116925057D02*
X91865476Y-117020295D01*
X91865476Y-117020295D02*
X91865476Y-117067914D01*
X91865476Y-117067914D02*
X91913095Y-117163152D01*
X91913095Y-117163152D02*
X91960714Y-117210771D01*
X91960714Y-117210771D02*
X92055952Y-117258390D01*
X92055952Y-117258390D02*
X92246428Y-117258390D01*
X92246428Y-117258390D02*
X92341666Y-117306009D01*
X92341666Y-117306009D02*
X92389285Y-117353628D01*
X92389285Y-117353628D02*
X92436904Y-117448866D01*
X92436904Y-117448866D02*
X92436904Y-117639342D01*
X92436904Y-117639342D02*
X92389285Y-117734580D01*
X92389285Y-117734580D02*
X92341666Y-117782200D01*
X92341666Y-117782200D02*
X92246428Y-117829819D01*
X92246428Y-117829819D02*
X92055952Y-117829819D01*
X92055952Y-117829819D02*
X91960714Y-117782200D01*
X91960714Y-117782200D02*
X91913095Y-117734580D01*
X91913095Y-117734580D02*
X91865476Y-117639342D01*
X91865476Y-117639342D02*
X91865476Y-117448866D01*
X91865476Y-117448866D02*
X91913095Y-117353628D01*
X91913095Y-117353628D02*
X91960714Y-117306009D01*
X91960714Y-117306009D02*
X92055952Y-117258390D01*
X281222023Y-117782200D02*
X281079166Y-117829819D01*
X281079166Y-117829819D02*
X280841071Y-117829819D01*
X280841071Y-117829819D02*
X280745833Y-117782200D01*
X280745833Y-117782200D02*
X280698214Y-117734580D01*
X280698214Y-117734580D02*
X280650595Y-117639342D01*
X280650595Y-117639342D02*
X280650595Y-117544104D01*
X280650595Y-117544104D02*
X280698214Y-117448866D01*
X280698214Y-117448866D02*
X280745833Y-117401247D01*
X280745833Y-117401247D02*
X280841071Y-117353628D01*
X280841071Y-117353628D02*
X281031547Y-117306009D01*
X281031547Y-117306009D02*
X281126785Y-117258390D01*
X281126785Y-117258390D02*
X281174404Y-117210771D01*
X281174404Y-117210771D02*
X281222023Y-117115533D01*
X281222023Y-117115533D02*
X281222023Y-117020295D01*
X281222023Y-117020295D02*
X281174404Y-116925057D01*
X281174404Y-116925057D02*
X281126785Y-116877438D01*
X281126785Y-116877438D02*
X281031547Y-116829819D01*
X281031547Y-116829819D02*
X280793452Y-116829819D01*
X280793452Y-116829819D02*
X280650595Y-116877438D01*
X280317261Y-116829819D02*
X280079166Y-117829819D01*
X280079166Y-117829819D02*
X279888690Y-117115533D01*
X279888690Y-117115533D02*
X279698214Y-117829819D01*
X279698214Y-117829819D02*
X279460119Y-116829819D01*
X278650595Y-117163152D02*
X278650595Y-117829819D01*
X278888690Y-116782200D02*
X279126785Y-117496485D01*
X279126785Y-117496485D02*
X278507738Y-117496485D01*
X278079166Y-117829819D02*
X277888690Y-117829819D01*
X277888690Y-117829819D02*
X277793452Y-117782200D01*
X277793452Y-117782200D02*
X277745833Y-117734580D01*
X277745833Y-117734580D02*
X277650595Y-117591723D01*
X277650595Y-117591723D02*
X277602976Y-117401247D01*
X277602976Y-117401247D02*
X277602976Y-117020295D01*
X277602976Y-117020295D02*
X277650595Y-116925057D01*
X277650595Y-116925057D02*
X277698214Y-116877438D01*
X277698214Y-116877438D02*
X277793452Y-116829819D01*
X277793452Y-116829819D02*
X277983928Y-116829819D01*
X277983928Y-116829819D02*
X278079166Y-116877438D01*
X278079166Y-116877438D02*
X278126785Y-116925057D01*
X278126785Y-116925057D02*
X278174404Y-117020295D01*
X278174404Y-117020295D02*
X278174404Y-117258390D01*
X278174404Y-117258390D02*
X278126785Y-117353628D01*
X278126785Y-117353628D02*
X278079166Y-117401247D01*
X278079166Y-117401247D02*
X277983928Y-117448866D01*
X277983928Y-117448866D02*
X277793452Y-117448866D01*
X277793452Y-117448866D02*
X277698214Y-117401247D01*
X277698214Y-117401247D02*
X277650595Y-117353628D01*
X277650595Y-117353628D02*
X277602976Y-117258390D01*
X237883332Y-41582200D02*
X237740475Y-41629819D01*
X237740475Y-41629819D02*
X237502380Y-41629819D01*
X237502380Y-41629819D02*
X237407142Y-41582200D01*
X237407142Y-41582200D02*
X237359523Y-41534580D01*
X237359523Y-41534580D02*
X237311904Y-41439342D01*
X237311904Y-41439342D02*
X237311904Y-41344104D01*
X237311904Y-41344104D02*
X237359523Y-41248866D01*
X237359523Y-41248866D02*
X237407142Y-41201247D01*
X237407142Y-41201247D02*
X237502380Y-41153628D01*
X237502380Y-41153628D02*
X237692856Y-41106009D01*
X237692856Y-41106009D02*
X237788094Y-41058390D01*
X237788094Y-41058390D02*
X237835713Y-41010771D01*
X237835713Y-41010771D02*
X237883332Y-40915533D01*
X237883332Y-40915533D02*
X237883332Y-40820295D01*
X237883332Y-40820295D02*
X237835713Y-40725057D01*
X237835713Y-40725057D02*
X237788094Y-40677438D01*
X237788094Y-40677438D02*
X237692856Y-40629819D01*
X237692856Y-40629819D02*
X237454761Y-40629819D01*
X237454761Y-40629819D02*
X237311904Y-40677438D01*
X236978570Y-40629819D02*
X236740475Y-41629819D01*
X236740475Y-41629819D02*
X236549999Y-40915533D01*
X236549999Y-40915533D02*
X236359523Y-41629819D01*
X236359523Y-41629819D02*
X236121428Y-40629819D01*
X235835713Y-40629819D02*
X235169047Y-40629819D01*
X235169047Y-40629819D02*
X235597618Y-41629819D01*
X119297023Y-111432200D02*
X119154166Y-111479819D01*
X119154166Y-111479819D02*
X118916071Y-111479819D01*
X118916071Y-111479819D02*
X118820833Y-111432200D01*
X118820833Y-111432200D02*
X118773214Y-111384580D01*
X118773214Y-111384580D02*
X118725595Y-111289342D01*
X118725595Y-111289342D02*
X118725595Y-111194104D01*
X118725595Y-111194104D02*
X118773214Y-111098866D01*
X118773214Y-111098866D02*
X118820833Y-111051247D01*
X118820833Y-111051247D02*
X118916071Y-111003628D01*
X118916071Y-111003628D02*
X119106547Y-110956009D01*
X119106547Y-110956009D02*
X119201785Y-110908390D01*
X119201785Y-110908390D02*
X119249404Y-110860771D01*
X119249404Y-110860771D02*
X119297023Y-110765533D01*
X119297023Y-110765533D02*
X119297023Y-110670295D01*
X119297023Y-110670295D02*
X119249404Y-110575057D01*
X119249404Y-110575057D02*
X119201785Y-110527438D01*
X119201785Y-110527438D02*
X119106547Y-110479819D01*
X119106547Y-110479819D02*
X118868452Y-110479819D01*
X118868452Y-110479819D02*
X118725595Y-110527438D01*
X118392261Y-110479819D02*
X118154166Y-111479819D01*
X118154166Y-111479819D02*
X117963690Y-110765533D01*
X117963690Y-110765533D02*
X117773214Y-111479819D01*
X117773214Y-111479819D02*
X117535119Y-110479819D01*
X116677976Y-110479819D02*
X117154166Y-110479819D01*
X117154166Y-110479819D02*
X117201785Y-110956009D01*
X117201785Y-110956009D02*
X117154166Y-110908390D01*
X117154166Y-110908390D02*
X117058928Y-110860771D01*
X117058928Y-110860771D02*
X116820833Y-110860771D01*
X116820833Y-110860771D02*
X116725595Y-110908390D01*
X116725595Y-110908390D02*
X116677976Y-110956009D01*
X116677976Y-110956009D02*
X116630357Y-111051247D01*
X116630357Y-111051247D02*
X116630357Y-111289342D01*
X116630357Y-111289342D02*
X116677976Y-111384580D01*
X116677976Y-111384580D02*
X116725595Y-111432200D01*
X116725595Y-111432200D02*
X116820833Y-111479819D01*
X116820833Y-111479819D02*
X117058928Y-111479819D01*
X117058928Y-111479819D02*
X117154166Y-111432200D01*
X117154166Y-111432200D02*
X117201785Y-111384580D01*
X115677976Y-111479819D02*
X116249404Y-111479819D01*
X115963690Y-111479819D02*
X115963690Y-110479819D01*
X115963690Y-110479819D02*
X116058928Y-110622676D01*
X116058928Y-110622676D02*
X116154166Y-110717914D01*
X116154166Y-110717914D02*
X116249404Y-110765533D01*
X28809523Y-98732200D02*
X28666666Y-98779819D01*
X28666666Y-98779819D02*
X28428571Y-98779819D01*
X28428571Y-98779819D02*
X28333333Y-98732200D01*
X28333333Y-98732200D02*
X28285714Y-98684580D01*
X28285714Y-98684580D02*
X28238095Y-98589342D01*
X28238095Y-98589342D02*
X28238095Y-98494104D01*
X28238095Y-98494104D02*
X28285714Y-98398866D01*
X28285714Y-98398866D02*
X28333333Y-98351247D01*
X28333333Y-98351247D02*
X28428571Y-98303628D01*
X28428571Y-98303628D02*
X28619047Y-98256009D01*
X28619047Y-98256009D02*
X28714285Y-98208390D01*
X28714285Y-98208390D02*
X28761904Y-98160771D01*
X28761904Y-98160771D02*
X28809523Y-98065533D01*
X28809523Y-98065533D02*
X28809523Y-97970295D01*
X28809523Y-97970295D02*
X28761904Y-97875057D01*
X28761904Y-97875057D02*
X28714285Y-97827438D01*
X28714285Y-97827438D02*
X28619047Y-97779819D01*
X28619047Y-97779819D02*
X28380952Y-97779819D01*
X28380952Y-97779819D02*
X28238095Y-97827438D01*
X27904761Y-97779819D02*
X27666666Y-98779819D01*
X27666666Y-98779819D02*
X27476190Y-98065533D01*
X27476190Y-98065533D02*
X27285714Y-98779819D01*
X27285714Y-98779819D02*
X27047619Y-97779819D01*
X26761904Y-97779819D02*
X26142857Y-97779819D01*
X26142857Y-97779819D02*
X26476190Y-98160771D01*
X26476190Y-98160771D02*
X26333333Y-98160771D01*
X26333333Y-98160771D02*
X26238095Y-98208390D01*
X26238095Y-98208390D02*
X26190476Y-98256009D01*
X26190476Y-98256009D02*
X26142857Y-98351247D01*
X26142857Y-98351247D02*
X26142857Y-98589342D01*
X26142857Y-98589342D02*
X26190476Y-98684580D01*
X26190476Y-98684580D02*
X26238095Y-98732200D01*
X26238095Y-98732200D02*
X26333333Y-98779819D01*
X26333333Y-98779819D02*
X26619047Y-98779819D01*
X26619047Y-98779819D02*
X26714285Y-98732200D01*
X26714285Y-98732200D02*
X26761904Y-98684580D01*
X25523809Y-97779819D02*
X25428571Y-97779819D01*
X25428571Y-97779819D02*
X25333333Y-97827438D01*
X25333333Y-97827438D02*
X25285714Y-97875057D01*
X25285714Y-97875057D02*
X25238095Y-97970295D01*
X25238095Y-97970295D02*
X25190476Y-98160771D01*
X25190476Y-98160771D02*
X25190476Y-98398866D01*
X25190476Y-98398866D02*
X25238095Y-98589342D01*
X25238095Y-98589342D02*
X25285714Y-98684580D01*
X25285714Y-98684580D02*
X25333333Y-98732200D01*
X25333333Y-98732200D02*
X25428571Y-98779819D01*
X25428571Y-98779819D02*
X25523809Y-98779819D01*
X25523809Y-98779819D02*
X25619047Y-98732200D01*
X25619047Y-98732200D02*
X25666666Y-98684580D01*
X25666666Y-98684580D02*
X25714285Y-98589342D01*
X25714285Y-98589342D02*
X25761904Y-98398866D01*
X25761904Y-98398866D02*
X25761904Y-98160771D01*
X25761904Y-98160771D02*
X25714285Y-97970295D01*
X25714285Y-97970295D02*
X25666666Y-97875057D01*
X25666666Y-97875057D02*
X25619047Y-97827438D01*
X25619047Y-97827438D02*
X25523809Y-97779819D01*
X31190773Y-117782200D02*
X31047916Y-117829819D01*
X31047916Y-117829819D02*
X30809821Y-117829819D01*
X30809821Y-117829819D02*
X30714583Y-117782200D01*
X30714583Y-117782200D02*
X30666964Y-117734580D01*
X30666964Y-117734580D02*
X30619345Y-117639342D01*
X30619345Y-117639342D02*
X30619345Y-117544104D01*
X30619345Y-117544104D02*
X30666964Y-117448866D01*
X30666964Y-117448866D02*
X30714583Y-117401247D01*
X30714583Y-117401247D02*
X30809821Y-117353628D01*
X30809821Y-117353628D02*
X31000297Y-117306009D01*
X31000297Y-117306009D02*
X31095535Y-117258390D01*
X31095535Y-117258390D02*
X31143154Y-117210771D01*
X31143154Y-117210771D02*
X31190773Y-117115533D01*
X31190773Y-117115533D02*
X31190773Y-117020295D01*
X31190773Y-117020295D02*
X31143154Y-116925057D01*
X31143154Y-116925057D02*
X31095535Y-116877438D01*
X31095535Y-116877438D02*
X31000297Y-116829819D01*
X31000297Y-116829819D02*
X30762202Y-116829819D01*
X30762202Y-116829819D02*
X30619345Y-116877438D01*
X30286011Y-116829819D02*
X30047916Y-117829819D01*
X30047916Y-117829819D02*
X29857440Y-117115533D01*
X29857440Y-117115533D02*
X29666964Y-117829819D01*
X29666964Y-117829819D02*
X29428869Y-116829819D01*
X28619345Y-117163152D02*
X28619345Y-117829819D01*
X28857440Y-116782200D02*
X29095535Y-117496485D01*
X29095535Y-117496485D02*
X28476488Y-117496485D01*
X27905059Y-116829819D02*
X27809821Y-116829819D01*
X27809821Y-116829819D02*
X27714583Y-116877438D01*
X27714583Y-116877438D02*
X27666964Y-116925057D01*
X27666964Y-116925057D02*
X27619345Y-117020295D01*
X27619345Y-117020295D02*
X27571726Y-117210771D01*
X27571726Y-117210771D02*
X27571726Y-117448866D01*
X27571726Y-117448866D02*
X27619345Y-117639342D01*
X27619345Y-117639342D02*
X27666964Y-117734580D01*
X27666964Y-117734580D02*
X27714583Y-117782200D01*
X27714583Y-117782200D02*
X27809821Y-117829819D01*
X27809821Y-117829819D02*
X27905059Y-117829819D01*
X27905059Y-117829819D02*
X28000297Y-117782200D01*
X28000297Y-117782200D02*
X28047916Y-117734580D01*
X28047916Y-117734580D02*
X28095535Y-117639342D01*
X28095535Y-117639342D02*
X28143154Y-117448866D01*
X28143154Y-117448866D02*
X28143154Y-117210771D01*
X28143154Y-117210771D02*
X28095535Y-117020295D01*
X28095535Y-117020295D02*
X28047916Y-116925057D01*
X28047916Y-116925057D02*
X28000297Y-116877438D01*
X28000297Y-116877438D02*
X27905059Y-116829819D01*
X29047618Y-60632200D02*
X28904761Y-60679819D01*
X28904761Y-60679819D02*
X28666666Y-60679819D01*
X28666666Y-60679819D02*
X28571428Y-60632200D01*
X28571428Y-60632200D02*
X28523809Y-60584580D01*
X28523809Y-60584580D02*
X28476190Y-60489342D01*
X28476190Y-60489342D02*
X28476190Y-60394104D01*
X28476190Y-60394104D02*
X28523809Y-60298866D01*
X28523809Y-60298866D02*
X28571428Y-60251247D01*
X28571428Y-60251247D02*
X28666666Y-60203628D01*
X28666666Y-60203628D02*
X28857142Y-60156009D01*
X28857142Y-60156009D02*
X28952380Y-60108390D01*
X28952380Y-60108390D02*
X28999999Y-60060771D01*
X28999999Y-60060771D02*
X29047618Y-59965533D01*
X29047618Y-59965533D02*
X29047618Y-59870295D01*
X29047618Y-59870295D02*
X28999999Y-59775057D01*
X28999999Y-59775057D02*
X28952380Y-59727438D01*
X28952380Y-59727438D02*
X28857142Y-59679819D01*
X28857142Y-59679819D02*
X28619047Y-59679819D01*
X28619047Y-59679819D02*
X28476190Y-59727438D01*
X28142856Y-59679819D02*
X27904761Y-60679819D01*
X27904761Y-60679819D02*
X27714285Y-59965533D01*
X27714285Y-59965533D02*
X27523809Y-60679819D01*
X27523809Y-60679819D02*
X27285714Y-59679819D01*
X26380952Y-60679819D02*
X26952380Y-60679819D01*
X26666666Y-60679819D02*
X26666666Y-59679819D01*
X26666666Y-59679819D02*
X26761904Y-59822676D01*
X26761904Y-59822676D02*
X26857142Y-59917914D01*
X26857142Y-59917914D02*
X26952380Y-59965533D01*
X25952380Y-60584580D02*
X25904761Y-60632200D01*
X25904761Y-60632200D02*
X25952380Y-60679819D01*
X25952380Y-60679819D02*
X25999999Y-60632200D01*
X25999999Y-60632200D02*
X25952380Y-60584580D01*
X25952380Y-60584580D02*
X25952380Y-60679819D01*
X25285714Y-59679819D02*
X25190476Y-59679819D01*
X25190476Y-59679819D02*
X25095238Y-59727438D01*
X25095238Y-59727438D02*
X25047619Y-59775057D01*
X25047619Y-59775057D02*
X25000000Y-59870295D01*
X25000000Y-59870295D02*
X24952381Y-60060771D01*
X24952381Y-60060771D02*
X24952381Y-60298866D01*
X24952381Y-60298866D02*
X25000000Y-60489342D01*
X25000000Y-60489342D02*
X25047619Y-60584580D01*
X25047619Y-60584580D02*
X25095238Y-60632200D01*
X25095238Y-60632200D02*
X25190476Y-60679819D01*
X25190476Y-60679819D02*
X25285714Y-60679819D01*
X25285714Y-60679819D02*
X25380952Y-60632200D01*
X25380952Y-60632200D02*
X25428571Y-60584580D01*
X25428571Y-60584580D02*
X25476190Y-60489342D01*
X25476190Y-60489342D02*
X25523809Y-60298866D01*
X25523809Y-60298866D02*
X25523809Y-60060771D01*
X25523809Y-60060771D02*
X25476190Y-59870295D01*
X25476190Y-59870295D02*
X25428571Y-59775057D01*
X25428571Y-59775057D02*
X25380952Y-59727438D01*
X25380952Y-59727438D02*
X25285714Y-59679819D01*
X256933332Y-41582200D02*
X256790475Y-41629819D01*
X256790475Y-41629819D02*
X256552380Y-41629819D01*
X256552380Y-41629819D02*
X256457142Y-41582200D01*
X256457142Y-41582200D02*
X256409523Y-41534580D01*
X256409523Y-41534580D02*
X256361904Y-41439342D01*
X256361904Y-41439342D02*
X256361904Y-41344104D01*
X256361904Y-41344104D02*
X256409523Y-41248866D01*
X256409523Y-41248866D02*
X256457142Y-41201247D01*
X256457142Y-41201247D02*
X256552380Y-41153628D01*
X256552380Y-41153628D02*
X256742856Y-41106009D01*
X256742856Y-41106009D02*
X256838094Y-41058390D01*
X256838094Y-41058390D02*
X256885713Y-41010771D01*
X256885713Y-41010771D02*
X256933332Y-40915533D01*
X256933332Y-40915533D02*
X256933332Y-40820295D01*
X256933332Y-40820295D02*
X256885713Y-40725057D01*
X256885713Y-40725057D02*
X256838094Y-40677438D01*
X256838094Y-40677438D02*
X256742856Y-40629819D01*
X256742856Y-40629819D02*
X256504761Y-40629819D01*
X256504761Y-40629819D02*
X256361904Y-40677438D01*
X256028570Y-40629819D02*
X255790475Y-41629819D01*
X255790475Y-41629819D02*
X255599999Y-40915533D01*
X255599999Y-40915533D02*
X255409523Y-41629819D01*
X255409523Y-41629819D02*
X255171428Y-40629819D01*
X254647618Y-41058390D02*
X254742856Y-41010771D01*
X254742856Y-41010771D02*
X254790475Y-40963152D01*
X254790475Y-40963152D02*
X254838094Y-40867914D01*
X254838094Y-40867914D02*
X254838094Y-40820295D01*
X254838094Y-40820295D02*
X254790475Y-40725057D01*
X254790475Y-40725057D02*
X254742856Y-40677438D01*
X254742856Y-40677438D02*
X254647618Y-40629819D01*
X254647618Y-40629819D02*
X254457142Y-40629819D01*
X254457142Y-40629819D02*
X254361904Y-40677438D01*
X254361904Y-40677438D02*
X254314285Y-40725057D01*
X254314285Y-40725057D02*
X254266666Y-40820295D01*
X254266666Y-40820295D02*
X254266666Y-40867914D01*
X254266666Y-40867914D02*
X254314285Y-40963152D01*
X254314285Y-40963152D02*
X254361904Y-41010771D01*
X254361904Y-41010771D02*
X254457142Y-41058390D01*
X254457142Y-41058390D02*
X254647618Y-41058390D01*
X254647618Y-41058390D02*
X254742856Y-41106009D01*
X254742856Y-41106009D02*
X254790475Y-41153628D01*
X254790475Y-41153628D02*
X254838094Y-41248866D01*
X254838094Y-41248866D02*
X254838094Y-41439342D01*
X254838094Y-41439342D02*
X254790475Y-41534580D01*
X254790475Y-41534580D02*
X254742856Y-41582200D01*
X254742856Y-41582200D02*
X254647618Y-41629819D01*
X254647618Y-41629819D02*
X254457142Y-41629819D01*
X254457142Y-41629819D02*
X254361904Y-41582200D01*
X254361904Y-41582200D02*
X254314285Y-41534580D01*
X254314285Y-41534580D02*
X254266666Y-41439342D01*
X254266666Y-41439342D02*
X254266666Y-41248866D01*
X254266666Y-41248866D02*
X254314285Y-41153628D01*
X254314285Y-41153628D02*
X254361904Y-41106009D01*
X254361904Y-41106009D02*
X254457142Y-41058390D01*
X238359523Y-98732200D02*
X238216666Y-98779819D01*
X238216666Y-98779819D02*
X237978571Y-98779819D01*
X237978571Y-98779819D02*
X237883333Y-98732200D01*
X237883333Y-98732200D02*
X237835714Y-98684580D01*
X237835714Y-98684580D02*
X237788095Y-98589342D01*
X237788095Y-98589342D02*
X237788095Y-98494104D01*
X237788095Y-98494104D02*
X237835714Y-98398866D01*
X237835714Y-98398866D02*
X237883333Y-98351247D01*
X237883333Y-98351247D02*
X237978571Y-98303628D01*
X237978571Y-98303628D02*
X238169047Y-98256009D01*
X238169047Y-98256009D02*
X238264285Y-98208390D01*
X238264285Y-98208390D02*
X238311904Y-98160771D01*
X238311904Y-98160771D02*
X238359523Y-98065533D01*
X238359523Y-98065533D02*
X238359523Y-97970295D01*
X238359523Y-97970295D02*
X238311904Y-97875057D01*
X238311904Y-97875057D02*
X238264285Y-97827438D01*
X238264285Y-97827438D02*
X238169047Y-97779819D01*
X238169047Y-97779819D02*
X237930952Y-97779819D01*
X237930952Y-97779819D02*
X237788095Y-97827438D01*
X237454761Y-97779819D02*
X237216666Y-98779819D01*
X237216666Y-98779819D02*
X237026190Y-98065533D01*
X237026190Y-98065533D02*
X236835714Y-98779819D01*
X236835714Y-98779819D02*
X236597619Y-97779819D01*
X236311904Y-97779819D02*
X235692857Y-97779819D01*
X235692857Y-97779819D02*
X236026190Y-98160771D01*
X236026190Y-98160771D02*
X235883333Y-98160771D01*
X235883333Y-98160771D02*
X235788095Y-98208390D01*
X235788095Y-98208390D02*
X235740476Y-98256009D01*
X235740476Y-98256009D02*
X235692857Y-98351247D01*
X235692857Y-98351247D02*
X235692857Y-98589342D01*
X235692857Y-98589342D02*
X235740476Y-98684580D01*
X235740476Y-98684580D02*
X235788095Y-98732200D01*
X235788095Y-98732200D02*
X235883333Y-98779819D01*
X235883333Y-98779819D02*
X236169047Y-98779819D01*
X236169047Y-98779819D02*
X236264285Y-98732200D01*
X236264285Y-98732200D02*
X236311904Y-98684580D01*
X235359523Y-97779819D02*
X234692857Y-97779819D01*
X234692857Y-97779819D02*
X235121428Y-98779819D01*
X28333332Y-41582200D02*
X28190475Y-41629819D01*
X28190475Y-41629819D02*
X27952380Y-41629819D01*
X27952380Y-41629819D02*
X27857142Y-41582200D01*
X27857142Y-41582200D02*
X27809523Y-41534580D01*
X27809523Y-41534580D02*
X27761904Y-41439342D01*
X27761904Y-41439342D02*
X27761904Y-41344104D01*
X27761904Y-41344104D02*
X27809523Y-41248866D01*
X27809523Y-41248866D02*
X27857142Y-41201247D01*
X27857142Y-41201247D02*
X27952380Y-41153628D01*
X27952380Y-41153628D02*
X28142856Y-41106009D01*
X28142856Y-41106009D02*
X28238094Y-41058390D01*
X28238094Y-41058390D02*
X28285713Y-41010771D01*
X28285713Y-41010771D02*
X28333332Y-40915533D01*
X28333332Y-40915533D02*
X28333332Y-40820295D01*
X28333332Y-40820295D02*
X28285713Y-40725057D01*
X28285713Y-40725057D02*
X28238094Y-40677438D01*
X28238094Y-40677438D02*
X28142856Y-40629819D01*
X28142856Y-40629819D02*
X27904761Y-40629819D01*
X27904761Y-40629819D02*
X27761904Y-40677438D01*
X27428570Y-40629819D02*
X27190475Y-41629819D01*
X27190475Y-41629819D02*
X26999999Y-40915533D01*
X26999999Y-40915533D02*
X26809523Y-41629819D01*
X26809523Y-41629819D02*
X26571428Y-40629819D01*
X25999999Y-40629819D02*
X25904761Y-40629819D01*
X25904761Y-40629819D02*
X25809523Y-40677438D01*
X25809523Y-40677438D02*
X25761904Y-40725057D01*
X25761904Y-40725057D02*
X25714285Y-40820295D01*
X25714285Y-40820295D02*
X25666666Y-41010771D01*
X25666666Y-41010771D02*
X25666666Y-41248866D01*
X25666666Y-41248866D02*
X25714285Y-41439342D01*
X25714285Y-41439342D02*
X25761904Y-41534580D01*
X25761904Y-41534580D02*
X25809523Y-41582200D01*
X25809523Y-41582200D02*
X25904761Y-41629819D01*
X25904761Y-41629819D02*
X25999999Y-41629819D01*
X25999999Y-41629819D02*
X26095237Y-41582200D01*
X26095237Y-41582200D02*
X26142856Y-41534580D01*
X26142856Y-41534580D02*
X26190475Y-41439342D01*
X26190475Y-41439342D02*
X26238094Y-41248866D01*
X26238094Y-41248866D02*
X26238094Y-41010771D01*
X26238094Y-41010771D02*
X26190475Y-40820295D01*
X26190475Y-40820295D02*
X26142856Y-40725057D01*
X26142856Y-40725057D02*
X26095237Y-40677438D01*
X26095237Y-40677438D02*
X25999999Y-40629819D01*
X66909523Y-98732200D02*
X66766666Y-98779819D01*
X66766666Y-98779819D02*
X66528571Y-98779819D01*
X66528571Y-98779819D02*
X66433333Y-98732200D01*
X66433333Y-98732200D02*
X66385714Y-98684580D01*
X66385714Y-98684580D02*
X66338095Y-98589342D01*
X66338095Y-98589342D02*
X66338095Y-98494104D01*
X66338095Y-98494104D02*
X66385714Y-98398866D01*
X66385714Y-98398866D02*
X66433333Y-98351247D01*
X66433333Y-98351247D02*
X66528571Y-98303628D01*
X66528571Y-98303628D02*
X66719047Y-98256009D01*
X66719047Y-98256009D02*
X66814285Y-98208390D01*
X66814285Y-98208390D02*
X66861904Y-98160771D01*
X66861904Y-98160771D02*
X66909523Y-98065533D01*
X66909523Y-98065533D02*
X66909523Y-97970295D01*
X66909523Y-97970295D02*
X66861904Y-97875057D01*
X66861904Y-97875057D02*
X66814285Y-97827438D01*
X66814285Y-97827438D02*
X66719047Y-97779819D01*
X66719047Y-97779819D02*
X66480952Y-97779819D01*
X66480952Y-97779819D02*
X66338095Y-97827438D01*
X66004761Y-97779819D02*
X65766666Y-98779819D01*
X65766666Y-98779819D02*
X65576190Y-98065533D01*
X65576190Y-98065533D02*
X65385714Y-98779819D01*
X65385714Y-98779819D02*
X65147619Y-97779819D01*
X64861904Y-97779819D02*
X64242857Y-97779819D01*
X64242857Y-97779819D02*
X64576190Y-98160771D01*
X64576190Y-98160771D02*
X64433333Y-98160771D01*
X64433333Y-98160771D02*
X64338095Y-98208390D01*
X64338095Y-98208390D02*
X64290476Y-98256009D01*
X64290476Y-98256009D02*
X64242857Y-98351247D01*
X64242857Y-98351247D02*
X64242857Y-98589342D01*
X64242857Y-98589342D02*
X64290476Y-98684580D01*
X64290476Y-98684580D02*
X64338095Y-98732200D01*
X64338095Y-98732200D02*
X64433333Y-98779819D01*
X64433333Y-98779819D02*
X64719047Y-98779819D01*
X64719047Y-98779819D02*
X64814285Y-98732200D01*
X64814285Y-98732200D02*
X64861904Y-98684580D01*
X63861904Y-97875057D02*
X63814285Y-97827438D01*
X63814285Y-97827438D02*
X63719047Y-97779819D01*
X63719047Y-97779819D02*
X63480952Y-97779819D01*
X63480952Y-97779819D02*
X63385714Y-97827438D01*
X63385714Y-97827438D02*
X63338095Y-97875057D01*
X63338095Y-97875057D02*
X63290476Y-97970295D01*
X63290476Y-97970295D02*
X63290476Y-98065533D01*
X63290476Y-98065533D02*
X63338095Y-98208390D01*
X63338095Y-98208390D02*
X63909523Y-98779819D01*
X63909523Y-98779819D02*
X63290476Y-98779819D01*
X52622023Y-117782200D02*
X52479166Y-117829819D01*
X52479166Y-117829819D02*
X52241071Y-117829819D01*
X52241071Y-117829819D02*
X52145833Y-117782200D01*
X52145833Y-117782200D02*
X52098214Y-117734580D01*
X52098214Y-117734580D02*
X52050595Y-117639342D01*
X52050595Y-117639342D02*
X52050595Y-117544104D01*
X52050595Y-117544104D02*
X52098214Y-117448866D01*
X52098214Y-117448866D02*
X52145833Y-117401247D01*
X52145833Y-117401247D02*
X52241071Y-117353628D01*
X52241071Y-117353628D02*
X52431547Y-117306009D01*
X52431547Y-117306009D02*
X52526785Y-117258390D01*
X52526785Y-117258390D02*
X52574404Y-117210771D01*
X52574404Y-117210771D02*
X52622023Y-117115533D01*
X52622023Y-117115533D02*
X52622023Y-117020295D01*
X52622023Y-117020295D02*
X52574404Y-116925057D01*
X52574404Y-116925057D02*
X52526785Y-116877438D01*
X52526785Y-116877438D02*
X52431547Y-116829819D01*
X52431547Y-116829819D02*
X52193452Y-116829819D01*
X52193452Y-116829819D02*
X52050595Y-116877438D01*
X51717261Y-116829819D02*
X51479166Y-117829819D01*
X51479166Y-117829819D02*
X51288690Y-117115533D01*
X51288690Y-117115533D02*
X51098214Y-117829819D01*
X51098214Y-117829819D02*
X50860119Y-116829819D01*
X50050595Y-117163152D02*
X50050595Y-117829819D01*
X50288690Y-116782200D02*
X50526785Y-117496485D01*
X50526785Y-117496485D02*
X49907738Y-117496485D01*
X49002976Y-117829819D02*
X49574404Y-117829819D01*
X49288690Y-117829819D02*
X49288690Y-116829819D01*
X49288690Y-116829819D02*
X49383928Y-116972676D01*
X49383928Y-116972676D02*
X49479166Y-117067914D01*
X49479166Y-117067914D02*
X49574404Y-117115533D01*
X47383332Y-41582200D02*
X47240475Y-41629819D01*
X47240475Y-41629819D02*
X47002380Y-41629819D01*
X47002380Y-41629819D02*
X46907142Y-41582200D01*
X46907142Y-41582200D02*
X46859523Y-41534580D01*
X46859523Y-41534580D02*
X46811904Y-41439342D01*
X46811904Y-41439342D02*
X46811904Y-41344104D01*
X46811904Y-41344104D02*
X46859523Y-41248866D01*
X46859523Y-41248866D02*
X46907142Y-41201247D01*
X46907142Y-41201247D02*
X47002380Y-41153628D01*
X47002380Y-41153628D02*
X47192856Y-41106009D01*
X47192856Y-41106009D02*
X47288094Y-41058390D01*
X47288094Y-41058390D02*
X47335713Y-41010771D01*
X47335713Y-41010771D02*
X47383332Y-40915533D01*
X47383332Y-40915533D02*
X47383332Y-40820295D01*
X47383332Y-40820295D02*
X47335713Y-40725057D01*
X47335713Y-40725057D02*
X47288094Y-40677438D01*
X47288094Y-40677438D02*
X47192856Y-40629819D01*
X47192856Y-40629819D02*
X46954761Y-40629819D01*
X46954761Y-40629819D02*
X46811904Y-40677438D01*
X46478570Y-40629819D02*
X46240475Y-41629819D01*
X46240475Y-41629819D02*
X46049999Y-40915533D01*
X46049999Y-40915533D02*
X45859523Y-41629819D01*
X45859523Y-41629819D02*
X45621428Y-40629819D01*
X44716666Y-41629819D02*
X45288094Y-41629819D01*
X45002380Y-41629819D02*
X45002380Y-40629819D01*
X45002380Y-40629819D02*
X45097618Y-40772676D01*
X45097618Y-40772676D02*
X45192856Y-40867914D01*
X45192856Y-40867914D02*
X45288094Y-40915533D01*
X315035713Y-98732200D02*
X314892856Y-98779819D01*
X314892856Y-98779819D02*
X314654761Y-98779819D01*
X314654761Y-98779819D02*
X314559523Y-98732200D01*
X314559523Y-98732200D02*
X314511904Y-98684580D01*
X314511904Y-98684580D02*
X314464285Y-98589342D01*
X314464285Y-98589342D02*
X314464285Y-98494104D01*
X314464285Y-98494104D02*
X314511904Y-98398866D01*
X314511904Y-98398866D02*
X314559523Y-98351247D01*
X314559523Y-98351247D02*
X314654761Y-98303628D01*
X314654761Y-98303628D02*
X314845237Y-98256009D01*
X314845237Y-98256009D02*
X314940475Y-98208390D01*
X314940475Y-98208390D02*
X314988094Y-98160771D01*
X314988094Y-98160771D02*
X315035713Y-98065533D01*
X315035713Y-98065533D02*
X315035713Y-97970295D01*
X315035713Y-97970295D02*
X314988094Y-97875057D01*
X314988094Y-97875057D02*
X314940475Y-97827438D01*
X314940475Y-97827438D02*
X314845237Y-97779819D01*
X314845237Y-97779819D02*
X314607142Y-97779819D01*
X314607142Y-97779819D02*
X314464285Y-97827438D01*
X314130951Y-97779819D02*
X313892856Y-98779819D01*
X313892856Y-98779819D02*
X313702380Y-98065533D01*
X313702380Y-98065533D02*
X313511904Y-98779819D01*
X313511904Y-98779819D02*
X313273809Y-97779819D01*
X312988094Y-97779819D02*
X312369047Y-97779819D01*
X312369047Y-97779819D02*
X312702380Y-98160771D01*
X312702380Y-98160771D02*
X312559523Y-98160771D01*
X312559523Y-98160771D02*
X312464285Y-98208390D01*
X312464285Y-98208390D02*
X312416666Y-98256009D01*
X312416666Y-98256009D02*
X312369047Y-98351247D01*
X312369047Y-98351247D02*
X312369047Y-98589342D01*
X312369047Y-98589342D02*
X312416666Y-98684580D01*
X312416666Y-98684580D02*
X312464285Y-98732200D01*
X312464285Y-98732200D02*
X312559523Y-98779819D01*
X312559523Y-98779819D02*
X312845237Y-98779819D01*
X312845237Y-98779819D02*
X312940475Y-98732200D01*
X312940475Y-98732200D02*
X312988094Y-98684580D01*
X311416666Y-98779819D02*
X311988094Y-98779819D01*
X311702380Y-98779819D02*
X311702380Y-97779819D01*
X311702380Y-97779819D02*
X311797618Y-97922676D01*
X311797618Y-97922676D02*
X311892856Y-98017914D01*
X311892856Y-98017914D02*
X311988094Y-98065533D01*
X310464285Y-98779819D02*
X311035713Y-98779819D01*
X310749999Y-98779819D02*
X310749999Y-97779819D01*
X310749999Y-97779819D02*
X310845237Y-97922676D01*
X310845237Y-97922676D02*
X310940475Y-98017914D01*
X310940475Y-98017914D02*
X311035713Y-98065533D01*
X276459523Y-79682200D02*
X276316666Y-79729819D01*
X276316666Y-79729819D02*
X276078571Y-79729819D01*
X276078571Y-79729819D02*
X275983333Y-79682200D01*
X275983333Y-79682200D02*
X275935714Y-79634580D01*
X275935714Y-79634580D02*
X275888095Y-79539342D01*
X275888095Y-79539342D02*
X275888095Y-79444104D01*
X275888095Y-79444104D02*
X275935714Y-79348866D01*
X275935714Y-79348866D02*
X275983333Y-79301247D01*
X275983333Y-79301247D02*
X276078571Y-79253628D01*
X276078571Y-79253628D02*
X276269047Y-79206009D01*
X276269047Y-79206009D02*
X276364285Y-79158390D01*
X276364285Y-79158390D02*
X276411904Y-79110771D01*
X276411904Y-79110771D02*
X276459523Y-79015533D01*
X276459523Y-79015533D02*
X276459523Y-78920295D01*
X276459523Y-78920295D02*
X276411904Y-78825057D01*
X276411904Y-78825057D02*
X276364285Y-78777438D01*
X276364285Y-78777438D02*
X276269047Y-78729819D01*
X276269047Y-78729819D02*
X276030952Y-78729819D01*
X276030952Y-78729819D02*
X275888095Y-78777438D01*
X275554761Y-78729819D02*
X275316666Y-79729819D01*
X275316666Y-79729819D02*
X275126190Y-79015533D01*
X275126190Y-79015533D02*
X274935714Y-79729819D01*
X274935714Y-79729819D02*
X274697619Y-78729819D01*
X274364285Y-78825057D02*
X274316666Y-78777438D01*
X274316666Y-78777438D02*
X274221428Y-78729819D01*
X274221428Y-78729819D02*
X273983333Y-78729819D01*
X273983333Y-78729819D02*
X273888095Y-78777438D01*
X273888095Y-78777438D02*
X273840476Y-78825057D01*
X273840476Y-78825057D02*
X273792857Y-78920295D01*
X273792857Y-78920295D02*
X273792857Y-79015533D01*
X273792857Y-79015533D02*
X273840476Y-79158390D01*
X273840476Y-79158390D02*
X274411904Y-79729819D01*
X274411904Y-79729819D02*
X273792857Y-79729819D01*
X273316666Y-79729819D02*
X273126190Y-79729819D01*
X273126190Y-79729819D02*
X273030952Y-79682200D01*
X273030952Y-79682200D02*
X272983333Y-79634580D01*
X272983333Y-79634580D02*
X272888095Y-79491723D01*
X272888095Y-79491723D02*
X272840476Y-79301247D01*
X272840476Y-79301247D02*
X272840476Y-78920295D01*
X272840476Y-78920295D02*
X272888095Y-78825057D01*
X272888095Y-78825057D02*
X272935714Y-78777438D01*
X272935714Y-78777438D02*
X273030952Y-78729819D01*
X273030952Y-78729819D02*
X273221428Y-78729819D01*
X273221428Y-78729819D02*
X273316666Y-78777438D01*
X273316666Y-78777438D02*
X273364285Y-78825057D01*
X273364285Y-78825057D02*
X273411904Y-78920295D01*
X273411904Y-78920295D02*
X273411904Y-79158390D01*
X273411904Y-79158390D02*
X273364285Y-79253628D01*
X273364285Y-79253628D02*
X273316666Y-79301247D01*
X273316666Y-79301247D02*
X273221428Y-79348866D01*
X273221428Y-79348866D02*
X273030952Y-79348866D01*
X273030952Y-79348866D02*
X272935714Y-79301247D01*
X272935714Y-79301247D02*
X272888095Y-79253628D01*
X272888095Y-79253628D02*
X272840476Y-79158390D01*
X295509523Y-41582200D02*
X295366666Y-41629819D01*
X295366666Y-41629819D02*
X295128571Y-41629819D01*
X295128571Y-41629819D02*
X295033333Y-41582200D01*
X295033333Y-41582200D02*
X294985714Y-41534580D01*
X294985714Y-41534580D02*
X294938095Y-41439342D01*
X294938095Y-41439342D02*
X294938095Y-41344104D01*
X294938095Y-41344104D02*
X294985714Y-41248866D01*
X294985714Y-41248866D02*
X295033333Y-41201247D01*
X295033333Y-41201247D02*
X295128571Y-41153628D01*
X295128571Y-41153628D02*
X295319047Y-41106009D01*
X295319047Y-41106009D02*
X295414285Y-41058390D01*
X295414285Y-41058390D02*
X295461904Y-41010771D01*
X295461904Y-41010771D02*
X295509523Y-40915533D01*
X295509523Y-40915533D02*
X295509523Y-40820295D01*
X295509523Y-40820295D02*
X295461904Y-40725057D01*
X295461904Y-40725057D02*
X295414285Y-40677438D01*
X295414285Y-40677438D02*
X295319047Y-40629819D01*
X295319047Y-40629819D02*
X295080952Y-40629819D01*
X295080952Y-40629819D02*
X294938095Y-40677438D01*
X294604761Y-40629819D02*
X294366666Y-41629819D01*
X294366666Y-41629819D02*
X294176190Y-40915533D01*
X294176190Y-40915533D02*
X293985714Y-41629819D01*
X293985714Y-41629819D02*
X293747619Y-40629819D01*
X292842857Y-41629819D02*
X293414285Y-41629819D01*
X293128571Y-41629819D02*
X293128571Y-40629819D01*
X293128571Y-40629819D02*
X293223809Y-40772676D01*
X293223809Y-40772676D02*
X293319047Y-40867914D01*
X293319047Y-40867914D02*
X293414285Y-40915533D01*
X292223809Y-40629819D02*
X292128571Y-40629819D01*
X292128571Y-40629819D02*
X292033333Y-40677438D01*
X292033333Y-40677438D02*
X291985714Y-40725057D01*
X291985714Y-40725057D02*
X291938095Y-40820295D01*
X291938095Y-40820295D02*
X291890476Y-41010771D01*
X291890476Y-41010771D02*
X291890476Y-41248866D01*
X291890476Y-41248866D02*
X291938095Y-41439342D01*
X291938095Y-41439342D02*
X291985714Y-41534580D01*
X291985714Y-41534580D02*
X292033333Y-41582200D01*
X292033333Y-41582200D02*
X292128571Y-41629819D01*
X292128571Y-41629819D02*
X292223809Y-41629819D01*
X292223809Y-41629819D02*
X292319047Y-41582200D01*
X292319047Y-41582200D02*
X292366666Y-41534580D01*
X292366666Y-41534580D02*
X292414285Y-41439342D01*
X292414285Y-41439342D02*
X292461904Y-41248866D01*
X292461904Y-41248866D02*
X292461904Y-41010771D01*
X292461904Y-41010771D02*
X292414285Y-40820295D01*
X292414285Y-40820295D02*
X292366666Y-40725057D01*
X292366666Y-40725057D02*
X292319047Y-40677438D01*
X292319047Y-40677438D02*
X292223809Y-40629819D01*
X275983332Y-41582200D02*
X275840475Y-41629819D01*
X275840475Y-41629819D02*
X275602380Y-41629819D01*
X275602380Y-41629819D02*
X275507142Y-41582200D01*
X275507142Y-41582200D02*
X275459523Y-41534580D01*
X275459523Y-41534580D02*
X275411904Y-41439342D01*
X275411904Y-41439342D02*
X275411904Y-41344104D01*
X275411904Y-41344104D02*
X275459523Y-41248866D01*
X275459523Y-41248866D02*
X275507142Y-41201247D01*
X275507142Y-41201247D02*
X275602380Y-41153628D01*
X275602380Y-41153628D02*
X275792856Y-41106009D01*
X275792856Y-41106009D02*
X275888094Y-41058390D01*
X275888094Y-41058390D02*
X275935713Y-41010771D01*
X275935713Y-41010771D02*
X275983332Y-40915533D01*
X275983332Y-40915533D02*
X275983332Y-40820295D01*
X275983332Y-40820295D02*
X275935713Y-40725057D01*
X275935713Y-40725057D02*
X275888094Y-40677438D01*
X275888094Y-40677438D02*
X275792856Y-40629819D01*
X275792856Y-40629819D02*
X275554761Y-40629819D01*
X275554761Y-40629819D02*
X275411904Y-40677438D01*
X275078570Y-40629819D02*
X274840475Y-41629819D01*
X274840475Y-41629819D02*
X274649999Y-40915533D01*
X274649999Y-40915533D02*
X274459523Y-41629819D01*
X274459523Y-41629819D02*
X274221428Y-40629819D01*
X273792856Y-41629819D02*
X273602380Y-41629819D01*
X273602380Y-41629819D02*
X273507142Y-41582200D01*
X273507142Y-41582200D02*
X273459523Y-41534580D01*
X273459523Y-41534580D02*
X273364285Y-41391723D01*
X273364285Y-41391723D02*
X273316666Y-41201247D01*
X273316666Y-41201247D02*
X273316666Y-40820295D01*
X273316666Y-40820295D02*
X273364285Y-40725057D01*
X273364285Y-40725057D02*
X273411904Y-40677438D01*
X273411904Y-40677438D02*
X273507142Y-40629819D01*
X273507142Y-40629819D02*
X273697618Y-40629819D01*
X273697618Y-40629819D02*
X273792856Y-40677438D01*
X273792856Y-40677438D02*
X273840475Y-40725057D01*
X273840475Y-40725057D02*
X273888094Y-40820295D01*
X273888094Y-40820295D02*
X273888094Y-41058390D01*
X273888094Y-41058390D02*
X273840475Y-41153628D01*
X273840475Y-41153628D02*
X273792856Y-41201247D01*
X273792856Y-41201247D02*
X273697618Y-41248866D01*
X273697618Y-41248866D02*
X273507142Y-41248866D01*
X273507142Y-41248866D02*
X273411904Y-41201247D01*
X273411904Y-41201247D02*
X273364285Y-41153628D01*
X273364285Y-41153628D02*
X273316666Y-41058390D01*
X238359523Y-60632200D02*
X238216666Y-60679819D01*
X238216666Y-60679819D02*
X237978571Y-60679819D01*
X237978571Y-60679819D02*
X237883333Y-60632200D01*
X237883333Y-60632200D02*
X237835714Y-60584580D01*
X237835714Y-60584580D02*
X237788095Y-60489342D01*
X237788095Y-60489342D02*
X237788095Y-60394104D01*
X237788095Y-60394104D02*
X237835714Y-60298866D01*
X237835714Y-60298866D02*
X237883333Y-60251247D01*
X237883333Y-60251247D02*
X237978571Y-60203628D01*
X237978571Y-60203628D02*
X238169047Y-60156009D01*
X238169047Y-60156009D02*
X238264285Y-60108390D01*
X238264285Y-60108390D02*
X238311904Y-60060771D01*
X238311904Y-60060771D02*
X238359523Y-59965533D01*
X238359523Y-59965533D02*
X238359523Y-59870295D01*
X238359523Y-59870295D02*
X238311904Y-59775057D01*
X238311904Y-59775057D02*
X238264285Y-59727438D01*
X238264285Y-59727438D02*
X238169047Y-59679819D01*
X238169047Y-59679819D02*
X237930952Y-59679819D01*
X237930952Y-59679819D02*
X237788095Y-59727438D01*
X237454761Y-59679819D02*
X237216666Y-60679819D01*
X237216666Y-60679819D02*
X237026190Y-59965533D01*
X237026190Y-59965533D02*
X236835714Y-60679819D01*
X236835714Y-60679819D02*
X236597619Y-59679819D01*
X235692857Y-60679819D02*
X236264285Y-60679819D01*
X235978571Y-60679819D02*
X235978571Y-59679819D01*
X235978571Y-59679819D02*
X236073809Y-59822676D01*
X236073809Y-59822676D02*
X236169047Y-59917914D01*
X236169047Y-59917914D02*
X236264285Y-59965533D01*
X235359523Y-59679819D02*
X234692857Y-59679819D01*
X234692857Y-59679819D02*
X235121428Y-60679819D01*
X310273213Y-111432200D02*
X310130356Y-111479819D01*
X310130356Y-111479819D02*
X309892261Y-111479819D01*
X309892261Y-111479819D02*
X309797023Y-111432200D01*
X309797023Y-111432200D02*
X309749404Y-111384580D01*
X309749404Y-111384580D02*
X309701785Y-111289342D01*
X309701785Y-111289342D02*
X309701785Y-111194104D01*
X309701785Y-111194104D02*
X309749404Y-111098866D01*
X309749404Y-111098866D02*
X309797023Y-111051247D01*
X309797023Y-111051247D02*
X309892261Y-111003628D01*
X309892261Y-111003628D02*
X310082737Y-110956009D01*
X310082737Y-110956009D02*
X310177975Y-110908390D01*
X310177975Y-110908390D02*
X310225594Y-110860771D01*
X310225594Y-110860771D02*
X310273213Y-110765533D01*
X310273213Y-110765533D02*
X310273213Y-110670295D01*
X310273213Y-110670295D02*
X310225594Y-110575057D01*
X310225594Y-110575057D02*
X310177975Y-110527438D01*
X310177975Y-110527438D02*
X310082737Y-110479819D01*
X310082737Y-110479819D02*
X309844642Y-110479819D01*
X309844642Y-110479819D02*
X309701785Y-110527438D01*
X309368451Y-110479819D02*
X309130356Y-111479819D01*
X309130356Y-111479819D02*
X308939880Y-110765533D01*
X308939880Y-110765533D02*
X308749404Y-111479819D01*
X308749404Y-111479819D02*
X308511309Y-110479819D01*
X307701785Y-110813152D02*
X307701785Y-111479819D01*
X307939880Y-110432200D02*
X308177975Y-111146485D01*
X308177975Y-111146485D02*
X307558928Y-111146485D01*
X306654166Y-111479819D02*
X307225594Y-111479819D01*
X306939880Y-111479819D02*
X306939880Y-110479819D01*
X306939880Y-110479819D02*
X307035118Y-110622676D01*
X307035118Y-110622676D02*
X307130356Y-110717914D01*
X307130356Y-110717914D02*
X307225594Y-110765533D01*
X305701785Y-111479819D02*
X306273213Y-111479819D01*
X305987499Y-111479819D02*
X305987499Y-110479819D01*
X305987499Y-110479819D02*
X306082737Y-110622676D01*
X306082737Y-110622676D02*
X306177975Y-110717914D01*
X306177975Y-110717914D02*
X306273213Y-110765533D01*
X315035713Y-79682200D02*
X314892856Y-79729819D01*
X314892856Y-79729819D02*
X314654761Y-79729819D01*
X314654761Y-79729819D02*
X314559523Y-79682200D01*
X314559523Y-79682200D02*
X314511904Y-79634580D01*
X314511904Y-79634580D02*
X314464285Y-79539342D01*
X314464285Y-79539342D02*
X314464285Y-79444104D01*
X314464285Y-79444104D02*
X314511904Y-79348866D01*
X314511904Y-79348866D02*
X314559523Y-79301247D01*
X314559523Y-79301247D02*
X314654761Y-79253628D01*
X314654761Y-79253628D02*
X314845237Y-79206009D01*
X314845237Y-79206009D02*
X314940475Y-79158390D01*
X314940475Y-79158390D02*
X314988094Y-79110771D01*
X314988094Y-79110771D02*
X315035713Y-79015533D01*
X315035713Y-79015533D02*
X315035713Y-78920295D01*
X315035713Y-78920295D02*
X314988094Y-78825057D01*
X314988094Y-78825057D02*
X314940475Y-78777438D01*
X314940475Y-78777438D02*
X314845237Y-78729819D01*
X314845237Y-78729819D02*
X314607142Y-78729819D01*
X314607142Y-78729819D02*
X314464285Y-78777438D01*
X314130951Y-78729819D02*
X313892856Y-79729819D01*
X313892856Y-79729819D02*
X313702380Y-79015533D01*
X313702380Y-79015533D02*
X313511904Y-79729819D01*
X313511904Y-79729819D02*
X313273809Y-78729819D01*
X312940475Y-78825057D02*
X312892856Y-78777438D01*
X312892856Y-78777438D02*
X312797618Y-78729819D01*
X312797618Y-78729819D02*
X312559523Y-78729819D01*
X312559523Y-78729819D02*
X312464285Y-78777438D01*
X312464285Y-78777438D02*
X312416666Y-78825057D01*
X312416666Y-78825057D02*
X312369047Y-78920295D01*
X312369047Y-78920295D02*
X312369047Y-79015533D01*
X312369047Y-79015533D02*
X312416666Y-79158390D01*
X312416666Y-79158390D02*
X312988094Y-79729819D01*
X312988094Y-79729819D02*
X312369047Y-79729819D01*
X311416666Y-79729819D02*
X311988094Y-79729819D01*
X311702380Y-79729819D02*
X311702380Y-78729819D01*
X311702380Y-78729819D02*
X311797618Y-78872676D01*
X311797618Y-78872676D02*
X311892856Y-78967914D01*
X311892856Y-78967914D02*
X311988094Y-79015533D01*
X310464285Y-79729819D02*
X311035713Y-79729819D01*
X310749999Y-79729819D02*
X310749999Y-78729819D01*
X310749999Y-78729819D02*
X310845237Y-78872676D01*
X310845237Y-78872676D02*
X310940475Y-78967914D01*
X310940475Y-78967914D02*
X311035713Y-79015533D01*
X276459523Y-60632200D02*
X276316666Y-60679819D01*
X276316666Y-60679819D02*
X276078571Y-60679819D01*
X276078571Y-60679819D02*
X275983333Y-60632200D01*
X275983333Y-60632200D02*
X275935714Y-60584580D01*
X275935714Y-60584580D02*
X275888095Y-60489342D01*
X275888095Y-60489342D02*
X275888095Y-60394104D01*
X275888095Y-60394104D02*
X275935714Y-60298866D01*
X275935714Y-60298866D02*
X275983333Y-60251247D01*
X275983333Y-60251247D02*
X276078571Y-60203628D01*
X276078571Y-60203628D02*
X276269047Y-60156009D01*
X276269047Y-60156009D02*
X276364285Y-60108390D01*
X276364285Y-60108390D02*
X276411904Y-60060771D01*
X276411904Y-60060771D02*
X276459523Y-59965533D01*
X276459523Y-59965533D02*
X276459523Y-59870295D01*
X276459523Y-59870295D02*
X276411904Y-59775057D01*
X276411904Y-59775057D02*
X276364285Y-59727438D01*
X276364285Y-59727438D02*
X276269047Y-59679819D01*
X276269047Y-59679819D02*
X276030952Y-59679819D01*
X276030952Y-59679819D02*
X275888095Y-59727438D01*
X275554761Y-59679819D02*
X275316666Y-60679819D01*
X275316666Y-60679819D02*
X275126190Y-59965533D01*
X275126190Y-59965533D02*
X274935714Y-60679819D01*
X274935714Y-60679819D02*
X274697619Y-59679819D01*
X273792857Y-60679819D02*
X274364285Y-60679819D01*
X274078571Y-60679819D02*
X274078571Y-59679819D01*
X274078571Y-59679819D02*
X274173809Y-59822676D01*
X274173809Y-59822676D02*
X274269047Y-59917914D01*
X274269047Y-59917914D02*
X274364285Y-59965533D01*
X273316666Y-60679819D02*
X273126190Y-60679819D01*
X273126190Y-60679819D02*
X273030952Y-60632200D01*
X273030952Y-60632200D02*
X272983333Y-60584580D01*
X272983333Y-60584580D02*
X272888095Y-60441723D01*
X272888095Y-60441723D02*
X272840476Y-60251247D01*
X272840476Y-60251247D02*
X272840476Y-59870295D01*
X272840476Y-59870295D02*
X272888095Y-59775057D01*
X272888095Y-59775057D02*
X272935714Y-59727438D01*
X272935714Y-59727438D02*
X273030952Y-59679819D01*
X273030952Y-59679819D02*
X273221428Y-59679819D01*
X273221428Y-59679819D02*
X273316666Y-59727438D01*
X273316666Y-59727438D02*
X273364285Y-59775057D01*
X273364285Y-59775057D02*
X273411904Y-59870295D01*
X273411904Y-59870295D02*
X273411904Y-60108390D01*
X273411904Y-60108390D02*
X273364285Y-60203628D01*
X273364285Y-60203628D02*
X273316666Y-60251247D01*
X273316666Y-60251247D02*
X273221428Y-60298866D01*
X273221428Y-60298866D02*
X273030952Y-60298866D01*
X273030952Y-60298866D02*
X272935714Y-60251247D01*
X272935714Y-60251247D02*
X272888095Y-60203628D01*
X272888095Y-60203628D02*
X272840476Y-60108390D01*
X85959523Y-98732200D02*
X85816666Y-98779819D01*
X85816666Y-98779819D02*
X85578571Y-98779819D01*
X85578571Y-98779819D02*
X85483333Y-98732200D01*
X85483333Y-98732200D02*
X85435714Y-98684580D01*
X85435714Y-98684580D02*
X85388095Y-98589342D01*
X85388095Y-98589342D02*
X85388095Y-98494104D01*
X85388095Y-98494104D02*
X85435714Y-98398866D01*
X85435714Y-98398866D02*
X85483333Y-98351247D01*
X85483333Y-98351247D02*
X85578571Y-98303628D01*
X85578571Y-98303628D02*
X85769047Y-98256009D01*
X85769047Y-98256009D02*
X85864285Y-98208390D01*
X85864285Y-98208390D02*
X85911904Y-98160771D01*
X85911904Y-98160771D02*
X85959523Y-98065533D01*
X85959523Y-98065533D02*
X85959523Y-97970295D01*
X85959523Y-97970295D02*
X85911904Y-97875057D01*
X85911904Y-97875057D02*
X85864285Y-97827438D01*
X85864285Y-97827438D02*
X85769047Y-97779819D01*
X85769047Y-97779819D02*
X85530952Y-97779819D01*
X85530952Y-97779819D02*
X85388095Y-97827438D01*
X85054761Y-97779819D02*
X84816666Y-98779819D01*
X84816666Y-98779819D02*
X84626190Y-98065533D01*
X84626190Y-98065533D02*
X84435714Y-98779819D01*
X84435714Y-98779819D02*
X84197619Y-97779819D01*
X83911904Y-97779819D02*
X83292857Y-97779819D01*
X83292857Y-97779819D02*
X83626190Y-98160771D01*
X83626190Y-98160771D02*
X83483333Y-98160771D01*
X83483333Y-98160771D02*
X83388095Y-98208390D01*
X83388095Y-98208390D02*
X83340476Y-98256009D01*
X83340476Y-98256009D02*
X83292857Y-98351247D01*
X83292857Y-98351247D02*
X83292857Y-98589342D01*
X83292857Y-98589342D02*
X83340476Y-98684580D01*
X83340476Y-98684580D02*
X83388095Y-98732200D01*
X83388095Y-98732200D02*
X83483333Y-98779819D01*
X83483333Y-98779819D02*
X83769047Y-98779819D01*
X83769047Y-98779819D02*
X83864285Y-98732200D01*
X83864285Y-98732200D02*
X83911904Y-98684580D01*
X82959523Y-97779819D02*
X82340476Y-97779819D01*
X82340476Y-97779819D02*
X82673809Y-98160771D01*
X82673809Y-98160771D02*
X82530952Y-98160771D01*
X82530952Y-98160771D02*
X82435714Y-98208390D01*
X82435714Y-98208390D02*
X82388095Y-98256009D01*
X82388095Y-98256009D02*
X82340476Y-98351247D01*
X82340476Y-98351247D02*
X82340476Y-98589342D01*
X82340476Y-98589342D02*
X82388095Y-98684580D01*
X82388095Y-98684580D02*
X82435714Y-98732200D01*
X82435714Y-98732200D02*
X82530952Y-98779819D01*
X82530952Y-98779819D02*
X82816666Y-98779819D01*
X82816666Y-98779819D02*
X82911904Y-98732200D01*
X82911904Y-98732200D02*
X82959523Y-98684580D01*
X295985713Y-60632200D02*
X295842856Y-60679819D01*
X295842856Y-60679819D02*
X295604761Y-60679819D01*
X295604761Y-60679819D02*
X295509523Y-60632200D01*
X295509523Y-60632200D02*
X295461904Y-60584580D01*
X295461904Y-60584580D02*
X295414285Y-60489342D01*
X295414285Y-60489342D02*
X295414285Y-60394104D01*
X295414285Y-60394104D02*
X295461904Y-60298866D01*
X295461904Y-60298866D02*
X295509523Y-60251247D01*
X295509523Y-60251247D02*
X295604761Y-60203628D01*
X295604761Y-60203628D02*
X295795237Y-60156009D01*
X295795237Y-60156009D02*
X295890475Y-60108390D01*
X295890475Y-60108390D02*
X295938094Y-60060771D01*
X295938094Y-60060771D02*
X295985713Y-59965533D01*
X295985713Y-59965533D02*
X295985713Y-59870295D01*
X295985713Y-59870295D02*
X295938094Y-59775057D01*
X295938094Y-59775057D02*
X295890475Y-59727438D01*
X295890475Y-59727438D02*
X295795237Y-59679819D01*
X295795237Y-59679819D02*
X295557142Y-59679819D01*
X295557142Y-59679819D02*
X295414285Y-59727438D01*
X295080951Y-59679819D02*
X294842856Y-60679819D01*
X294842856Y-60679819D02*
X294652380Y-59965533D01*
X294652380Y-59965533D02*
X294461904Y-60679819D01*
X294461904Y-60679819D02*
X294223809Y-59679819D01*
X293319047Y-60679819D02*
X293890475Y-60679819D01*
X293604761Y-60679819D02*
X293604761Y-59679819D01*
X293604761Y-59679819D02*
X293699999Y-59822676D01*
X293699999Y-59822676D02*
X293795237Y-59917914D01*
X293795237Y-59917914D02*
X293890475Y-59965533D01*
X292366666Y-60679819D02*
X292938094Y-60679819D01*
X292652380Y-60679819D02*
X292652380Y-59679819D01*
X292652380Y-59679819D02*
X292747618Y-59822676D01*
X292747618Y-59822676D02*
X292842856Y-59917914D01*
X292842856Y-59917914D02*
X292938094Y-59965533D01*
X291747618Y-59679819D02*
X291652380Y-59679819D01*
X291652380Y-59679819D02*
X291557142Y-59727438D01*
X291557142Y-59727438D02*
X291509523Y-59775057D01*
X291509523Y-59775057D02*
X291461904Y-59870295D01*
X291461904Y-59870295D02*
X291414285Y-60060771D01*
X291414285Y-60060771D02*
X291414285Y-60298866D01*
X291414285Y-60298866D02*
X291461904Y-60489342D01*
X291461904Y-60489342D02*
X291509523Y-60584580D01*
X291509523Y-60584580D02*
X291557142Y-60632200D01*
X291557142Y-60632200D02*
X291652380Y-60679819D01*
X291652380Y-60679819D02*
X291747618Y-60679819D01*
X291747618Y-60679819D02*
X291842856Y-60632200D01*
X291842856Y-60632200D02*
X291890475Y-60584580D01*
X291890475Y-60584580D02*
X291938094Y-60489342D01*
X291938094Y-60489342D02*
X291985713Y-60298866D01*
X291985713Y-60298866D02*
X291985713Y-60060771D01*
X291985713Y-60060771D02*
X291938094Y-59870295D01*
X291938094Y-59870295D02*
X291890475Y-59775057D01*
X291890475Y-59775057D02*
X291842856Y-59727438D01*
X291842856Y-59727438D02*
X291747618Y-59679819D01*
X219309523Y-98732200D02*
X219166666Y-98779819D01*
X219166666Y-98779819D02*
X218928571Y-98779819D01*
X218928571Y-98779819D02*
X218833333Y-98732200D01*
X218833333Y-98732200D02*
X218785714Y-98684580D01*
X218785714Y-98684580D02*
X218738095Y-98589342D01*
X218738095Y-98589342D02*
X218738095Y-98494104D01*
X218738095Y-98494104D02*
X218785714Y-98398866D01*
X218785714Y-98398866D02*
X218833333Y-98351247D01*
X218833333Y-98351247D02*
X218928571Y-98303628D01*
X218928571Y-98303628D02*
X219119047Y-98256009D01*
X219119047Y-98256009D02*
X219214285Y-98208390D01*
X219214285Y-98208390D02*
X219261904Y-98160771D01*
X219261904Y-98160771D02*
X219309523Y-98065533D01*
X219309523Y-98065533D02*
X219309523Y-97970295D01*
X219309523Y-97970295D02*
X219261904Y-97875057D01*
X219261904Y-97875057D02*
X219214285Y-97827438D01*
X219214285Y-97827438D02*
X219119047Y-97779819D01*
X219119047Y-97779819D02*
X218880952Y-97779819D01*
X218880952Y-97779819D02*
X218738095Y-97827438D01*
X218404761Y-97779819D02*
X218166666Y-98779819D01*
X218166666Y-98779819D02*
X217976190Y-98065533D01*
X217976190Y-98065533D02*
X217785714Y-98779819D01*
X217785714Y-98779819D02*
X217547619Y-97779819D01*
X217261904Y-97779819D02*
X216642857Y-97779819D01*
X216642857Y-97779819D02*
X216976190Y-98160771D01*
X216976190Y-98160771D02*
X216833333Y-98160771D01*
X216833333Y-98160771D02*
X216738095Y-98208390D01*
X216738095Y-98208390D02*
X216690476Y-98256009D01*
X216690476Y-98256009D02*
X216642857Y-98351247D01*
X216642857Y-98351247D02*
X216642857Y-98589342D01*
X216642857Y-98589342D02*
X216690476Y-98684580D01*
X216690476Y-98684580D02*
X216738095Y-98732200D01*
X216738095Y-98732200D02*
X216833333Y-98779819D01*
X216833333Y-98779819D02*
X217119047Y-98779819D01*
X217119047Y-98779819D02*
X217214285Y-98732200D01*
X217214285Y-98732200D02*
X217261904Y-98684580D01*
X215785714Y-97779819D02*
X215976190Y-97779819D01*
X215976190Y-97779819D02*
X216071428Y-97827438D01*
X216071428Y-97827438D02*
X216119047Y-97875057D01*
X216119047Y-97875057D02*
X216214285Y-98017914D01*
X216214285Y-98017914D02*
X216261904Y-98208390D01*
X216261904Y-98208390D02*
X216261904Y-98589342D01*
X216261904Y-98589342D02*
X216214285Y-98684580D01*
X216214285Y-98684580D02*
X216166666Y-98732200D01*
X216166666Y-98732200D02*
X216071428Y-98779819D01*
X216071428Y-98779819D02*
X215880952Y-98779819D01*
X215880952Y-98779819D02*
X215785714Y-98732200D01*
X215785714Y-98732200D02*
X215738095Y-98684580D01*
X215738095Y-98684580D02*
X215690476Y-98589342D01*
X215690476Y-98589342D02*
X215690476Y-98351247D01*
X215690476Y-98351247D02*
X215738095Y-98256009D01*
X215738095Y-98256009D02*
X215785714Y-98208390D01*
X215785714Y-98208390D02*
X215880952Y-98160771D01*
X215880952Y-98160771D02*
X216071428Y-98160771D01*
X216071428Y-98160771D02*
X216166666Y-98208390D01*
X216166666Y-98208390D02*
X216214285Y-98256009D01*
X216214285Y-98256009D02*
X216261904Y-98351247D01*
X218833332Y-41582200D02*
X218690475Y-41629819D01*
X218690475Y-41629819D02*
X218452380Y-41629819D01*
X218452380Y-41629819D02*
X218357142Y-41582200D01*
X218357142Y-41582200D02*
X218309523Y-41534580D01*
X218309523Y-41534580D02*
X218261904Y-41439342D01*
X218261904Y-41439342D02*
X218261904Y-41344104D01*
X218261904Y-41344104D02*
X218309523Y-41248866D01*
X218309523Y-41248866D02*
X218357142Y-41201247D01*
X218357142Y-41201247D02*
X218452380Y-41153628D01*
X218452380Y-41153628D02*
X218642856Y-41106009D01*
X218642856Y-41106009D02*
X218738094Y-41058390D01*
X218738094Y-41058390D02*
X218785713Y-41010771D01*
X218785713Y-41010771D02*
X218833332Y-40915533D01*
X218833332Y-40915533D02*
X218833332Y-40820295D01*
X218833332Y-40820295D02*
X218785713Y-40725057D01*
X218785713Y-40725057D02*
X218738094Y-40677438D01*
X218738094Y-40677438D02*
X218642856Y-40629819D01*
X218642856Y-40629819D02*
X218404761Y-40629819D01*
X218404761Y-40629819D02*
X218261904Y-40677438D01*
X217928570Y-40629819D02*
X217690475Y-41629819D01*
X217690475Y-41629819D02*
X217499999Y-40915533D01*
X217499999Y-40915533D02*
X217309523Y-41629819D01*
X217309523Y-41629819D02*
X217071428Y-40629819D01*
X216261904Y-40629819D02*
X216452380Y-40629819D01*
X216452380Y-40629819D02*
X216547618Y-40677438D01*
X216547618Y-40677438D02*
X216595237Y-40725057D01*
X216595237Y-40725057D02*
X216690475Y-40867914D01*
X216690475Y-40867914D02*
X216738094Y-41058390D01*
X216738094Y-41058390D02*
X216738094Y-41439342D01*
X216738094Y-41439342D02*
X216690475Y-41534580D01*
X216690475Y-41534580D02*
X216642856Y-41582200D01*
X216642856Y-41582200D02*
X216547618Y-41629819D01*
X216547618Y-41629819D02*
X216357142Y-41629819D01*
X216357142Y-41629819D02*
X216261904Y-41582200D01*
X216261904Y-41582200D02*
X216214285Y-41534580D01*
X216214285Y-41534580D02*
X216166666Y-41439342D01*
X216166666Y-41439342D02*
X216166666Y-41201247D01*
X216166666Y-41201247D02*
X216214285Y-41106009D01*
X216214285Y-41106009D02*
X216261904Y-41058390D01*
X216261904Y-41058390D02*
X216357142Y-41010771D01*
X216357142Y-41010771D02*
X216547618Y-41010771D01*
X216547618Y-41010771D02*
X216642856Y-41058390D01*
X216642856Y-41058390D02*
X216690475Y-41106009D01*
X216690475Y-41106009D02*
X216738094Y-41201247D01*
X247884523Y-117782200D02*
X247741666Y-117829819D01*
X247741666Y-117829819D02*
X247503571Y-117829819D01*
X247503571Y-117829819D02*
X247408333Y-117782200D01*
X247408333Y-117782200D02*
X247360714Y-117734580D01*
X247360714Y-117734580D02*
X247313095Y-117639342D01*
X247313095Y-117639342D02*
X247313095Y-117544104D01*
X247313095Y-117544104D02*
X247360714Y-117448866D01*
X247360714Y-117448866D02*
X247408333Y-117401247D01*
X247408333Y-117401247D02*
X247503571Y-117353628D01*
X247503571Y-117353628D02*
X247694047Y-117306009D01*
X247694047Y-117306009D02*
X247789285Y-117258390D01*
X247789285Y-117258390D02*
X247836904Y-117210771D01*
X247836904Y-117210771D02*
X247884523Y-117115533D01*
X247884523Y-117115533D02*
X247884523Y-117020295D01*
X247884523Y-117020295D02*
X247836904Y-116925057D01*
X247836904Y-116925057D02*
X247789285Y-116877438D01*
X247789285Y-116877438D02*
X247694047Y-116829819D01*
X247694047Y-116829819D02*
X247455952Y-116829819D01*
X247455952Y-116829819D02*
X247313095Y-116877438D01*
X246979761Y-116829819D02*
X246741666Y-117829819D01*
X246741666Y-117829819D02*
X246551190Y-117115533D01*
X246551190Y-117115533D02*
X246360714Y-117829819D01*
X246360714Y-117829819D02*
X246122619Y-116829819D01*
X245265476Y-116829819D02*
X245741666Y-116829819D01*
X245741666Y-116829819D02*
X245789285Y-117306009D01*
X245789285Y-117306009D02*
X245741666Y-117258390D01*
X245741666Y-117258390D02*
X245646428Y-117210771D01*
X245646428Y-117210771D02*
X245408333Y-117210771D01*
X245408333Y-117210771D02*
X245313095Y-117258390D01*
X245313095Y-117258390D02*
X245265476Y-117306009D01*
X245265476Y-117306009D02*
X245217857Y-117401247D01*
X245217857Y-117401247D02*
X245217857Y-117639342D01*
X245217857Y-117639342D02*
X245265476Y-117734580D01*
X245265476Y-117734580D02*
X245313095Y-117782200D01*
X245313095Y-117782200D02*
X245408333Y-117829819D01*
X245408333Y-117829819D02*
X245646428Y-117829819D01*
X245646428Y-117829819D02*
X245741666Y-117782200D01*
X245741666Y-117782200D02*
X245789285Y-117734580D01*
X244884523Y-116829819D02*
X244265476Y-116829819D01*
X244265476Y-116829819D02*
X244598809Y-117210771D01*
X244598809Y-117210771D02*
X244455952Y-117210771D01*
X244455952Y-117210771D02*
X244360714Y-117258390D01*
X244360714Y-117258390D02*
X244313095Y-117306009D01*
X244313095Y-117306009D02*
X244265476Y-117401247D01*
X244265476Y-117401247D02*
X244265476Y-117639342D01*
X244265476Y-117639342D02*
X244313095Y-117734580D01*
X244313095Y-117734580D02*
X244360714Y-117782200D01*
X244360714Y-117782200D02*
X244455952Y-117829819D01*
X244455952Y-117829819D02*
X244741666Y-117829819D01*
X244741666Y-117829819D02*
X244836904Y-117782200D01*
X244836904Y-117782200D02*
X244884523Y-117734580D01*
X276459523Y-98732200D02*
X276316666Y-98779819D01*
X276316666Y-98779819D02*
X276078571Y-98779819D01*
X276078571Y-98779819D02*
X275983333Y-98732200D01*
X275983333Y-98732200D02*
X275935714Y-98684580D01*
X275935714Y-98684580D02*
X275888095Y-98589342D01*
X275888095Y-98589342D02*
X275888095Y-98494104D01*
X275888095Y-98494104D02*
X275935714Y-98398866D01*
X275935714Y-98398866D02*
X275983333Y-98351247D01*
X275983333Y-98351247D02*
X276078571Y-98303628D01*
X276078571Y-98303628D02*
X276269047Y-98256009D01*
X276269047Y-98256009D02*
X276364285Y-98208390D01*
X276364285Y-98208390D02*
X276411904Y-98160771D01*
X276411904Y-98160771D02*
X276459523Y-98065533D01*
X276459523Y-98065533D02*
X276459523Y-97970295D01*
X276459523Y-97970295D02*
X276411904Y-97875057D01*
X276411904Y-97875057D02*
X276364285Y-97827438D01*
X276364285Y-97827438D02*
X276269047Y-97779819D01*
X276269047Y-97779819D02*
X276030952Y-97779819D01*
X276030952Y-97779819D02*
X275888095Y-97827438D01*
X275554761Y-97779819D02*
X275316666Y-98779819D01*
X275316666Y-98779819D02*
X275126190Y-98065533D01*
X275126190Y-98065533D02*
X274935714Y-98779819D01*
X274935714Y-98779819D02*
X274697619Y-97779819D01*
X274411904Y-97779819D02*
X273792857Y-97779819D01*
X273792857Y-97779819D02*
X274126190Y-98160771D01*
X274126190Y-98160771D02*
X273983333Y-98160771D01*
X273983333Y-98160771D02*
X273888095Y-98208390D01*
X273888095Y-98208390D02*
X273840476Y-98256009D01*
X273840476Y-98256009D02*
X273792857Y-98351247D01*
X273792857Y-98351247D02*
X273792857Y-98589342D01*
X273792857Y-98589342D02*
X273840476Y-98684580D01*
X273840476Y-98684580D02*
X273888095Y-98732200D01*
X273888095Y-98732200D02*
X273983333Y-98779819D01*
X273983333Y-98779819D02*
X274269047Y-98779819D01*
X274269047Y-98779819D02*
X274364285Y-98732200D01*
X274364285Y-98732200D02*
X274411904Y-98684580D01*
X273316666Y-98779819D02*
X273126190Y-98779819D01*
X273126190Y-98779819D02*
X273030952Y-98732200D01*
X273030952Y-98732200D02*
X272983333Y-98684580D01*
X272983333Y-98684580D02*
X272888095Y-98541723D01*
X272888095Y-98541723D02*
X272840476Y-98351247D01*
X272840476Y-98351247D02*
X272840476Y-97970295D01*
X272840476Y-97970295D02*
X272888095Y-97875057D01*
X272888095Y-97875057D02*
X272935714Y-97827438D01*
X272935714Y-97827438D02*
X273030952Y-97779819D01*
X273030952Y-97779819D02*
X273221428Y-97779819D01*
X273221428Y-97779819D02*
X273316666Y-97827438D01*
X273316666Y-97827438D02*
X273364285Y-97875057D01*
X273364285Y-97875057D02*
X273411904Y-97970295D01*
X273411904Y-97970295D02*
X273411904Y-98208390D01*
X273411904Y-98208390D02*
X273364285Y-98303628D01*
X273364285Y-98303628D02*
X273316666Y-98351247D01*
X273316666Y-98351247D02*
X273221428Y-98398866D01*
X273221428Y-98398866D02*
X273030952Y-98398866D01*
X273030952Y-98398866D02*
X272935714Y-98351247D01*
X272935714Y-98351247D02*
X272888095Y-98303628D01*
X272888095Y-98303628D02*
X272840476Y-98208390D01*
X235978273Y-117782200D02*
X235835416Y-117829819D01*
X235835416Y-117829819D02*
X235597321Y-117829819D01*
X235597321Y-117829819D02*
X235502083Y-117782200D01*
X235502083Y-117782200D02*
X235454464Y-117734580D01*
X235454464Y-117734580D02*
X235406845Y-117639342D01*
X235406845Y-117639342D02*
X235406845Y-117544104D01*
X235406845Y-117544104D02*
X235454464Y-117448866D01*
X235454464Y-117448866D02*
X235502083Y-117401247D01*
X235502083Y-117401247D02*
X235597321Y-117353628D01*
X235597321Y-117353628D02*
X235787797Y-117306009D01*
X235787797Y-117306009D02*
X235883035Y-117258390D01*
X235883035Y-117258390D02*
X235930654Y-117210771D01*
X235930654Y-117210771D02*
X235978273Y-117115533D01*
X235978273Y-117115533D02*
X235978273Y-117020295D01*
X235978273Y-117020295D02*
X235930654Y-116925057D01*
X235930654Y-116925057D02*
X235883035Y-116877438D01*
X235883035Y-116877438D02*
X235787797Y-116829819D01*
X235787797Y-116829819D02*
X235549702Y-116829819D01*
X235549702Y-116829819D02*
X235406845Y-116877438D01*
X235073511Y-116829819D02*
X234835416Y-117829819D01*
X234835416Y-117829819D02*
X234644940Y-117115533D01*
X234644940Y-117115533D02*
X234454464Y-117829819D01*
X234454464Y-117829819D02*
X234216369Y-116829819D01*
X233359226Y-116829819D02*
X233835416Y-116829819D01*
X233835416Y-116829819D02*
X233883035Y-117306009D01*
X233883035Y-117306009D02*
X233835416Y-117258390D01*
X233835416Y-117258390D02*
X233740178Y-117210771D01*
X233740178Y-117210771D02*
X233502083Y-117210771D01*
X233502083Y-117210771D02*
X233406845Y-117258390D01*
X233406845Y-117258390D02*
X233359226Y-117306009D01*
X233359226Y-117306009D02*
X233311607Y-117401247D01*
X233311607Y-117401247D02*
X233311607Y-117639342D01*
X233311607Y-117639342D02*
X233359226Y-117734580D01*
X233359226Y-117734580D02*
X233406845Y-117782200D01*
X233406845Y-117782200D02*
X233502083Y-117829819D01*
X233502083Y-117829819D02*
X233740178Y-117829819D01*
X233740178Y-117829819D02*
X233835416Y-117782200D01*
X233835416Y-117782200D02*
X233883035Y-117734580D01*
X232978273Y-116829819D02*
X232311607Y-116829819D01*
X232311607Y-116829819D02*
X232740178Y-117829819D01*
X257409523Y-98732200D02*
X257266666Y-98779819D01*
X257266666Y-98779819D02*
X257028571Y-98779819D01*
X257028571Y-98779819D02*
X256933333Y-98732200D01*
X256933333Y-98732200D02*
X256885714Y-98684580D01*
X256885714Y-98684580D02*
X256838095Y-98589342D01*
X256838095Y-98589342D02*
X256838095Y-98494104D01*
X256838095Y-98494104D02*
X256885714Y-98398866D01*
X256885714Y-98398866D02*
X256933333Y-98351247D01*
X256933333Y-98351247D02*
X257028571Y-98303628D01*
X257028571Y-98303628D02*
X257219047Y-98256009D01*
X257219047Y-98256009D02*
X257314285Y-98208390D01*
X257314285Y-98208390D02*
X257361904Y-98160771D01*
X257361904Y-98160771D02*
X257409523Y-98065533D01*
X257409523Y-98065533D02*
X257409523Y-97970295D01*
X257409523Y-97970295D02*
X257361904Y-97875057D01*
X257361904Y-97875057D02*
X257314285Y-97827438D01*
X257314285Y-97827438D02*
X257219047Y-97779819D01*
X257219047Y-97779819D02*
X256980952Y-97779819D01*
X256980952Y-97779819D02*
X256838095Y-97827438D01*
X256504761Y-97779819D02*
X256266666Y-98779819D01*
X256266666Y-98779819D02*
X256076190Y-98065533D01*
X256076190Y-98065533D02*
X255885714Y-98779819D01*
X255885714Y-98779819D02*
X255647619Y-97779819D01*
X255361904Y-97779819D02*
X254742857Y-97779819D01*
X254742857Y-97779819D02*
X255076190Y-98160771D01*
X255076190Y-98160771D02*
X254933333Y-98160771D01*
X254933333Y-98160771D02*
X254838095Y-98208390D01*
X254838095Y-98208390D02*
X254790476Y-98256009D01*
X254790476Y-98256009D02*
X254742857Y-98351247D01*
X254742857Y-98351247D02*
X254742857Y-98589342D01*
X254742857Y-98589342D02*
X254790476Y-98684580D01*
X254790476Y-98684580D02*
X254838095Y-98732200D01*
X254838095Y-98732200D02*
X254933333Y-98779819D01*
X254933333Y-98779819D02*
X255219047Y-98779819D01*
X255219047Y-98779819D02*
X255314285Y-98732200D01*
X255314285Y-98732200D02*
X255361904Y-98684580D01*
X254171428Y-98208390D02*
X254266666Y-98160771D01*
X254266666Y-98160771D02*
X254314285Y-98113152D01*
X254314285Y-98113152D02*
X254361904Y-98017914D01*
X254361904Y-98017914D02*
X254361904Y-97970295D01*
X254361904Y-97970295D02*
X254314285Y-97875057D01*
X254314285Y-97875057D02*
X254266666Y-97827438D01*
X254266666Y-97827438D02*
X254171428Y-97779819D01*
X254171428Y-97779819D02*
X253980952Y-97779819D01*
X253980952Y-97779819D02*
X253885714Y-97827438D01*
X253885714Y-97827438D02*
X253838095Y-97875057D01*
X253838095Y-97875057D02*
X253790476Y-97970295D01*
X253790476Y-97970295D02*
X253790476Y-98017914D01*
X253790476Y-98017914D02*
X253838095Y-98113152D01*
X253838095Y-98113152D02*
X253885714Y-98160771D01*
X253885714Y-98160771D02*
X253980952Y-98208390D01*
X253980952Y-98208390D02*
X254171428Y-98208390D01*
X254171428Y-98208390D02*
X254266666Y-98256009D01*
X254266666Y-98256009D02*
X254314285Y-98303628D01*
X254314285Y-98303628D02*
X254361904Y-98398866D01*
X254361904Y-98398866D02*
X254361904Y-98589342D01*
X254361904Y-98589342D02*
X254314285Y-98684580D01*
X254314285Y-98684580D02*
X254266666Y-98732200D01*
X254266666Y-98732200D02*
X254171428Y-98779819D01*
X254171428Y-98779819D02*
X253980952Y-98779819D01*
X253980952Y-98779819D02*
X253885714Y-98732200D01*
X253885714Y-98732200D02*
X253838095Y-98684580D01*
X253838095Y-98684580D02*
X253790476Y-98589342D01*
X253790476Y-98589342D02*
X253790476Y-98398866D01*
X253790476Y-98398866D02*
X253838095Y-98303628D01*
X253838095Y-98303628D02*
X253885714Y-98256009D01*
X253885714Y-98256009D02*
X253980952Y-98208390D01*
X276459523Y-111432200D02*
X276316666Y-111479819D01*
X276316666Y-111479819D02*
X276078571Y-111479819D01*
X276078571Y-111479819D02*
X275983333Y-111432200D01*
X275983333Y-111432200D02*
X275935714Y-111384580D01*
X275935714Y-111384580D02*
X275888095Y-111289342D01*
X275888095Y-111289342D02*
X275888095Y-111194104D01*
X275888095Y-111194104D02*
X275935714Y-111098866D01*
X275935714Y-111098866D02*
X275983333Y-111051247D01*
X275983333Y-111051247D02*
X276078571Y-111003628D01*
X276078571Y-111003628D02*
X276269047Y-110956009D01*
X276269047Y-110956009D02*
X276364285Y-110908390D01*
X276364285Y-110908390D02*
X276411904Y-110860771D01*
X276411904Y-110860771D02*
X276459523Y-110765533D01*
X276459523Y-110765533D02*
X276459523Y-110670295D01*
X276459523Y-110670295D02*
X276411904Y-110575057D01*
X276411904Y-110575057D02*
X276364285Y-110527438D01*
X276364285Y-110527438D02*
X276269047Y-110479819D01*
X276269047Y-110479819D02*
X276030952Y-110479819D01*
X276030952Y-110479819D02*
X275888095Y-110527438D01*
X275554761Y-110479819D02*
X275316666Y-111479819D01*
X275316666Y-111479819D02*
X275126190Y-110765533D01*
X275126190Y-110765533D02*
X274935714Y-111479819D01*
X274935714Y-111479819D02*
X274697619Y-110479819D01*
X273840476Y-110479819D02*
X274316666Y-110479819D01*
X274316666Y-110479819D02*
X274364285Y-110956009D01*
X274364285Y-110956009D02*
X274316666Y-110908390D01*
X274316666Y-110908390D02*
X274221428Y-110860771D01*
X274221428Y-110860771D02*
X273983333Y-110860771D01*
X273983333Y-110860771D02*
X273888095Y-110908390D01*
X273888095Y-110908390D02*
X273840476Y-110956009D01*
X273840476Y-110956009D02*
X273792857Y-111051247D01*
X273792857Y-111051247D02*
X273792857Y-111289342D01*
X273792857Y-111289342D02*
X273840476Y-111384580D01*
X273840476Y-111384580D02*
X273888095Y-111432200D01*
X273888095Y-111432200D02*
X273983333Y-111479819D01*
X273983333Y-111479819D02*
X274221428Y-111479819D01*
X274221428Y-111479819D02*
X274316666Y-111432200D01*
X274316666Y-111432200D02*
X274364285Y-111384580D01*
X273411904Y-110575057D02*
X273364285Y-110527438D01*
X273364285Y-110527438D02*
X273269047Y-110479819D01*
X273269047Y-110479819D02*
X273030952Y-110479819D01*
X273030952Y-110479819D02*
X272935714Y-110527438D01*
X272935714Y-110527438D02*
X272888095Y-110575057D01*
X272888095Y-110575057D02*
X272840476Y-110670295D01*
X272840476Y-110670295D02*
X272840476Y-110765533D01*
X272840476Y-110765533D02*
X272888095Y-110908390D01*
X272888095Y-110908390D02*
X273459523Y-111479819D01*
X273459523Y-111479819D02*
X272840476Y-111479819D01*
X314559523Y-41582200D02*
X314416666Y-41629819D01*
X314416666Y-41629819D02*
X314178571Y-41629819D01*
X314178571Y-41629819D02*
X314083333Y-41582200D01*
X314083333Y-41582200D02*
X314035714Y-41534580D01*
X314035714Y-41534580D02*
X313988095Y-41439342D01*
X313988095Y-41439342D02*
X313988095Y-41344104D01*
X313988095Y-41344104D02*
X314035714Y-41248866D01*
X314035714Y-41248866D02*
X314083333Y-41201247D01*
X314083333Y-41201247D02*
X314178571Y-41153628D01*
X314178571Y-41153628D02*
X314369047Y-41106009D01*
X314369047Y-41106009D02*
X314464285Y-41058390D01*
X314464285Y-41058390D02*
X314511904Y-41010771D01*
X314511904Y-41010771D02*
X314559523Y-40915533D01*
X314559523Y-40915533D02*
X314559523Y-40820295D01*
X314559523Y-40820295D02*
X314511904Y-40725057D01*
X314511904Y-40725057D02*
X314464285Y-40677438D01*
X314464285Y-40677438D02*
X314369047Y-40629819D01*
X314369047Y-40629819D02*
X314130952Y-40629819D01*
X314130952Y-40629819D02*
X313988095Y-40677438D01*
X313654761Y-40629819D02*
X313416666Y-41629819D01*
X313416666Y-41629819D02*
X313226190Y-40915533D01*
X313226190Y-40915533D02*
X313035714Y-41629819D01*
X313035714Y-41629819D02*
X312797619Y-40629819D01*
X311892857Y-41629819D02*
X312464285Y-41629819D01*
X312178571Y-41629819D02*
X312178571Y-40629819D01*
X312178571Y-40629819D02*
X312273809Y-40772676D01*
X312273809Y-40772676D02*
X312369047Y-40867914D01*
X312369047Y-40867914D02*
X312464285Y-40915533D01*
X310940476Y-41629819D02*
X311511904Y-41629819D01*
X311226190Y-41629819D02*
X311226190Y-40629819D01*
X311226190Y-40629819D02*
X311321428Y-40772676D01*
X311321428Y-40772676D02*
X311416666Y-40867914D01*
X311416666Y-40867914D02*
X311511904Y-40915533D01*
X105009523Y-98732200D02*
X104866666Y-98779819D01*
X104866666Y-98779819D02*
X104628571Y-98779819D01*
X104628571Y-98779819D02*
X104533333Y-98732200D01*
X104533333Y-98732200D02*
X104485714Y-98684580D01*
X104485714Y-98684580D02*
X104438095Y-98589342D01*
X104438095Y-98589342D02*
X104438095Y-98494104D01*
X104438095Y-98494104D02*
X104485714Y-98398866D01*
X104485714Y-98398866D02*
X104533333Y-98351247D01*
X104533333Y-98351247D02*
X104628571Y-98303628D01*
X104628571Y-98303628D02*
X104819047Y-98256009D01*
X104819047Y-98256009D02*
X104914285Y-98208390D01*
X104914285Y-98208390D02*
X104961904Y-98160771D01*
X104961904Y-98160771D02*
X105009523Y-98065533D01*
X105009523Y-98065533D02*
X105009523Y-97970295D01*
X105009523Y-97970295D02*
X104961904Y-97875057D01*
X104961904Y-97875057D02*
X104914285Y-97827438D01*
X104914285Y-97827438D02*
X104819047Y-97779819D01*
X104819047Y-97779819D02*
X104580952Y-97779819D01*
X104580952Y-97779819D02*
X104438095Y-97827438D01*
X104104761Y-97779819D02*
X103866666Y-98779819D01*
X103866666Y-98779819D02*
X103676190Y-98065533D01*
X103676190Y-98065533D02*
X103485714Y-98779819D01*
X103485714Y-98779819D02*
X103247619Y-97779819D01*
X102961904Y-97779819D02*
X102342857Y-97779819D01*
X102342857Y-97779819D02*
X102676190Y-98160771D01*
X102676190Y-98160771D02*
X102533333Y-98160771D01*
X102533333Y-98160771D02*
X102438095Y-98208390D01*
X102438095Y-98208390D02*
X102390476Y-98256009D01*
X102390476Y-98256009D02*
X102342857Y-98351247D01*
X102342857Y-98351247D02*
X102342857Y-98589342D01*
X102342857Y-98589342D02*
X102390476Y-98684580D01*
X102390476Y-98684580D02*
X102438095Y-98732200D01*
X102438095Y-98732200D02*
X102533333Y-98779819D01*
X102533333Y-98779819D02*
X102819047Y-98779819D01*
X102819047Y-98779819D02*
X102914285Y-98732200D01*
X102914285Y-98732200D02*
X102961904Y-98684580D01*
X101485714Y-98113152D02*
X101485714Y-98779819D01*
X101723809Y-97732200D02*
X101961904Y-98446485D01*
X101961904Y-98446485D02*
X101342857Y-98446485D01*
X295985713Y-98732200D02*
X295842856Y-98779819D01*
X295842856Y-98779819D02*
X295604761Y-98779819D01*
X295604761Y-98779819D02*
X295509523Y-98732200D01*
X295509523Y-98732200D02*
X295461904Y-98684580D01*
X295461904Y-98684580D02*
X295414285Y-98589342D01*
X295414285Y-98589342D02*
X295414285Y-98494104D01*
X295414285Y-98494104D02*
X295461904Y-98398866D01*
X295461904Y-98398866D02*
X295509523Y-98351247D01*
X295509523Y-98351247D02*
X295604761Y-98303628D01*
X295604761Y-98303628D02*
X295795237Y-98256009D01*
X295795237Y-98256009D02*
X295890475Y-98208390D01*
X295890475Y-98208390D02*
X295938094Y-98160771D01*
X295938094Y-98160771D02*
X295985713Y-98065533D01*
X295985713Y-98065533D02*
X295985713Y-97970295D01*
X295985713Y-97970295D02*
X295938094Y-97875057D01*
X295938094Y-97875057D02*
X295890475Y-97827438D01*
X295890475Y-97827438D02*
X295795237Y-97779819D01*
X295795237Y-97779819D02*
X295557142Y-97779819D01*
X295557142Y-97779819D02*
X295414285Y-97827438D01*
X295080951Y-97779819D02*
X294842856Y-98779819D01*
X294842856Y-98779819D02*
X294652380Y-98065533D01*
X294652380Y-98065533D02*
X294461904Y-98779819D01*
X294461904Y-98779819D02*
X294223809Y-97779819D01*
X293938094Y-97779819D02*
X293319047Y-97779819D01*
X293319047Y-97779819D02*
X293652380Y-98160771D01*
X293652380Y-98160771D02*
X293509523Y-98160771D01*
X293509523Y-98160771D02*
X293414285Y-98208390D01*
X293414285Y-98208390D02*
X293366666Y-98256009D01*
X293366666Y-98256009D02*
X293319047Y-98351247D01*
X293319047Y-98351247D02*
X293319047Y-98589342D01*
X293319047Y-98589342D02*
X293366666Y-98684580D01*
X293366666Y-98684580D02*
X293414285Y-98732200D01*
X293414285Y-98732200D02*
X293509523Y-98779819D01*
X293509523Y-98779819D02*
X293795237Y-98779819D01*
X293795237Y-98779819D02*
X293890475Y-98732200D01*
X293890475Y-98732200D02*
X293938094Y-98684580D01*
X292366666Y-98779819D02*
X292938094Y-98779819D01*
X292652380Y-98779819D02*
X292652380Y-97779819D01*
X292652380Y-97779819D02*
X292747618Y-97922676D01*
X292747618Y-97922676D02*
X292842856Y-98017914D01*
X292842856Y-98017914D02*
X292938094Y-98065533D01*
X291747618Y-97779819D02*
X291652380Y-97779819D01*
X291652380Y-97779819D02*
X291557142Y-97827438D01*
X291557142Y-97827438D02*
X291509523Y-97875057D01*
X291509523Y-97875057D02*
X291461904Y-97970295D01*
X291461904Y-97970295D02*
X291414285Y-98160771D01*
X291414285Y-98160771D02*
X291414285Y-98398866D01*
X291414285Y-98398866D02*
X291461904Y-98589342D01*
X291461904Y-98589342D02*
X291509523Y-98684580D01*
X291509523Y-98684580D02*
X291557142Y-98732200D01*
X291557142Y-98732200D02*
X291652380Y-98779819D01*
X291652380Y-98779819D02*
X291747618Y-98779819D01*
X291747618Y-98779819D02*
X291842856Y-98732200D01*
X291842856Y-98732200D02*
X291890475Y-98684580D01*
X291890475Y-98684580D02*
X291938094Y-98589342D01*
X291938094Y-98589342D02*
X291985713Y-98398866D01*
X291985713Y-98398866D02*
X291985713Y-98160771D01*
X291985713Y-98160771D02*
X291938094Y-97970295D01*
X291938094Y-97970295D02*
X291890475Y-97875057D01*
X291890475Y-97875057D02*
X291842856Y-97827438D01*
X291842856Y-97827438D02*
X291747618Y-97779819D01*
X67147618Y-60632200D02*
X67004761Y-60679819D01*
X67004761Y-60679819D02*
X66766666Y-60679819D01*
X66766666Y-60679819D02*
X66671428Y-60632200D01*
X66671428Y-60632200D02*
X66623809Y-60584580D01*
X66623809Y-60584580D02*
X66576190Y-60489342D01*
X66576190Y-60489342D02*
X66576190Y-60394104D01*
X66576190Y-60394104D02*
X66623809Y-60298866D01*
X66623809Y-60298866D02*
X66671428Y-60251247D01*
X66671428Y-60251247D02*
X66766666Y-60203628D01*
X66766666Y-60203628D02*
X66957142Y-60156009D01*
X66957142Y-60156009D02*
X67052380Y-60108390D01*
X67052380Y-60108390D02*
X67099999Y-60060771D01*
X67099999Y-60060771D02*
X67147618Y-59965533D01*
X67147618Y-59965533D02*
X67147618Y-59870295D01*
X67147618Y-59870295D02*
X67099999Y-59775057D01*
X67099999Y-59775057D02*
X67052380Y-59727438D01*
X67052380Y-59727438D02*
X66957142Y-59679819D01*
X66957142Y-59679819D02*
X66719047Y-59679819D01*
X66719047Y-59679819D02*
X66576190Y-59727438D01*
X66242856Y-59679819D02*
X66004761Y-60679819D01*
X66004761Y-60679819D02*
X65814285Y-59965533D01*
X65814285Y-59965533D02*
X65623809Y-60679819D01*
X65623809Y-60679819D02*
X65385714Y-59679819D01*
X64480952Y-60679819D02*
X65052380Y-60679819D01*
X64766666Y-60679819D02*
X64766666Y-59679819D01*
X64766666Y-59679819D02*
X64861904Y-59822676D01*
X64861904Y-59822676D02*
X64957142Y-59917914D01*
X64957142Y-59917914D02*
X65052380Y-59965533D01*
X64052380Y-60584580D02*
X64004761Y-60632200D01*
X64004761Y-60632200D02*
X64052380Y-60679819D01*
X64052380Y-60679819D02*
X64099999Y-60632200D01*
X64099999Y-60632200D02*
X64052380Y-60584580D01*
X64052380Y-60584580D02*
X64052380Y-60679819D01*
X63623809Y-59775057D02*
X63576190Y-59727438D01*
X63576190Y-59727438D02*
X63480952Y-59679819D01*
X63480952Y-59679819D02*
X63242857Y-59679819D01*
X63242857Y-59679819D02*
X63147619Y-59727438D01*
X63147619Y-59727438D02*
X63100000Y-59775057D01*
X63100000Y-59775057D02*
X63052381Y-59870295D01*
X63052381Y-59870295D02*
X63052381Y-59965533D01*
X63052381Y-59965533D02*
X63100000Y-60108390D01*
X63100000Y-60108390D02*
X63671428Y-60679819D01*
X63671428Y-60679819D02*
X63052381Y-60679819D01*
X85959523Y-79682200D02*
X85816666Y-79729819D01*
X85816666Y-79729819D02*
X85578571Y-79729819D01*
X85578571Y-79729819D02*
X85483333Y-79682200D01*
X85483333Y-79682200D02*
X85435714Y-79634580D01*
X85435714Y-79634580D02*
X85388095Y-79539342D01*
X85388095Y-79539342D02*
X85388095Y-79444104D01*
X85388095Y-79444104D02*
X85435714Y-79348866D01*
X85435714Y-79348866D02*
X85483333Y-79301247D01*
X85483333Y-79301247D02*
X85578571Y-79253628D01*
X85578571Y-79253628D02*
X85769047Y-79206009D01*
X85769047Y-79206009D02*
X85864285Y-79158390D01*
X85864285Y-79158390D02*
X85911904Y-79110771D01*
X85911904Y-79110771D02*
X85959523Y-79015533D01*
X85959523Y-79015533D02*
X85959523Y-78920295D01*
X85959523Y-78920295D02*
X85911904Y-78825057D01*
X85911904Y-78825057D02*
X85864285Y-78777438D01*
X85864285Y-78777438D02*
X85769047Y-78729819D01*
X85769047Y-78729819D02*
X85530952Y-78729819D01*
X85530952Y-78729819D02*
X85388095Y-78777438D01*
X85054761Y-78729819D02*
X84816666Y-79729819D01*
X84816666Y-79729819D02*
X84626190Y-79015533D01*
X84626190Y-79015533D02*
X84435714Y-79729819D01*
X84435714Y-79729819D02*
X84197619Y-78729819D01*
X83864285Y-78825057D02*
X83816666Y-78777438D01*
X83816666Y-78777438D02*
X83721428Y-78729819D01*
X83721428Y-78729819D02*
X83483333Y-78729819D01*
X83483333Y-78729819D02*
X83388095Y-78777438D01*
X83388095Y-78777438D02*
X83340476Y-78825057D01*
X83340476Y-78825057D02*
X83292857Y-78920295D01*
X83292857Y-78920295D02*
X83292857Y-79015533D01*
X83292857Y-79015533D02*
X83340476Y-79158390D01*
X83340476Y-79158390D02*
X83911904Y-79729819D01*
X83911904Y-79729819D02*
X83292857Y-79729819D01*
X82959523Y-78729819D02*
X82340476Y-78729819D01*
X82340476Y-78729819D02*
X82673809Y-79110771D01*
X82673809Y-79110771D02*
X82530952Y-79110771D01*
X82530952Y-79110771D02*
X82435714Y-79158390D01*
X82435714Y-79158390D02*
X82388095Y-79206009D01*
X82388095Y-79206009D02*
X82340476Y-79301247D01*
X82340476Y-79301247D02*
X82340476Y-79539342D01*
X82340476Y-79539342D02*
X82388095Y-79634580D01*
X82388095Y-79634580D02*
X82435714Y-79682200D01*
X82435714Y-79682200D02*
X82530952Y-79729819D01*
X82530952Y-79729819D02*
X82816666Y-79729819D01*
X82816666Y-79729819D02*
X82911904Y-79682200D01*
X82911904Y-79682200D02*
X82959523Y-79634580D01*
X315035713Y-60632200D02*
X314892856Y-60679819D01*
X314892856Y-60679819D02*
X314654761Y-60679819D01*
X314654761Y-60679819D02*
X314559523Y-60632200D01*
X314559523Y-60632200D02*
X314511904Y-60584580D01*
X314511904Y-60584580D02*
X314464285Y-60489342D01*
X314464285Y-60489342D02*
X314464285Y-60394104D01*
X314464285Y-60394104D02*
X314511904Y-60298866D01*
X314511904Y-60298866D02*
X314559523Y-60251247D01*
X314559523Y-60251247D02*
X314654761Y-60203628D01*
X314654761Y-60203628D02*
X314845237Y-60156009D01*
X314845237Y-60156009D02*
X314940475Y-60108390D01*
X314940475Y-60108390D02*
X314988094Y-60060771D01*
X314988094Y-60060771D02*
X315035713Y-59965533D01*
X315035713Y-59965533D02*
X315035713Y-59870295D01*
X315035713Y-59870295D02*
X314988094Y-59775057D01*
X314988094Y-59775057D02*
X314940475Y-59727438D01*
X314940475Y-59727438D02*
X314845237Y-59679819D01*
X314845237Y-59679819D02*
X314607142Y-59679819D01*
X314607142Y-59679819D02*
X314464285Y-59727438D01*
X314130951Y-59679819D02*
X313892856Y-60679819D01*
X313892856Y-60679819D02*
X313702380Y-59965533D01*
X313702380Y-59965533D02*
X313511904Y-60679819D01*
X313511904Y-60679819D02*
X313273809Y-59679819D01*
X312369047Y-60679819D02*
X312940475Y-60679819D01*
X312654761Y-60679819D02*
X312654761Y-59679819D01*
X312654761Y-59679819D02*
X312749999Y-59822676D01*
X312749999Y-59822676D02*
X312845237Y-59917914D01*
X312845237Y-59917914D02*
X312940475Y-59965533D01*
X311416666Y-60679819D02*
X311988094Y-60679819D01*
X311702380Y-60679819D02*
X311702380Y-59679819D01*
X311702380Y-59679819D02*
X311797618Y-59822676D01*
X311797618Y-59822676D02*
X311892856Y-59917914D01*
X311892856Y-59917914D02*
X311988094Y-59965533D01*
X310464285Y-60679819D02*
X311035713Y-60679819D01*
X310749999Y-60679819D02*
X310749999Y-59679819D01*
X310749999Y-59679819D02*
X310845237Y-59822676D01*
X310845237Y-59822676D02*
X310940475Y-59917914D01*
X310940475Y-59917914D02*
X311035713Y-59965533D01*
X85959523Y-60632200D02*
X85816666Y-60679819D01*
X85816666Y-60679819D02*
X85578571Y-60679819D01*
X85578571Y-60679819D02*
X85483333Y-60632200D01*
X85483333Y-60632200D02*
X85435714Y-60584580D01*
X85435714Y-60584580D02*
X85388095Y-60489342D01*
X85388095Y-60489342D02*
X85388095Y-60394104D01*
X85388095Y-60394104D02*
X85435714Y-60298866D01*
X85435714Y-60298866D02*
X85483333Y-60251247D01*
X85483333Y-60251247D02*
X85578571Y-60203628D01*
X85578571Y-60203628D02*
X85769047Y-60156009D01*
X85769047Y-60156009D02*
X85864285Y-60108390D01*
X85864285Y-60108390D02*
X85911904Y-60060771D01*
X85911904Y-60060771D02*
X85959523Y-59965533D01*
X85959523Y-59965533D02*
X85959523Y-59870295D01*
X85959523Y-59870295D02*
X85911904Y-59775057D01*
X85911904Y-59775057D02*
X85864285Y-59727438D01*
X85864285Y-59727438D02*
X85769047Y-59679819D01*
X85769047Y-59679819D02*
X85530952Y-59679819D01*
X85530952Y-59679819D02*
X85388095Y-59727438D01*
X85054761Y-59679819D02*
X84816666Y-60679819D01*
X84816666Y-60679819D02*
X84626190Y-59965533D01*
X84626190Y-59965533D02*
X84435714Y-60679819D01*
X84435714Y-60679819D02*
X84197619Y-59679819D01*
X83292857Y-60679819D02*
X83864285Y-60679819D01*
X83578571Y-60679819D02*
X83578571Y-59679819D01*
X83578571Y-59679819D02*
X83673809Y-59822676D01*
X83673809Y-59822676D02*
X83769047Y-59917914D01*
X83769047Y-59917914D02*
X83864285Y-59965533D01*
X82959523Y-59679819D02*
X82340476Y-59679819D01*
X82340476Y-59679819D02*
X82673809Y-60060771D01*
X82673809Y-60060771D02*
X82530952Y-60060771D01*
X82530952Y-60060771D02*
X82435714Y-60108390D01*
X82435714Y-60108390D02*
X82388095Y-60156009D01*
X82388095Y-60156009D02*
X82340476Y-60251247D01*
X82340476Y-60251247D02*
X82340476Y-60489342D01*
X82340476Y-60489342D02*
X82388095Y-60584580D01*
X82388095Y-60584580D02*
X82435714Y-60632200D01*
X82435714Y-60632200D02*
X82530952Y-60679819D01*
X82530952Y-60679819D02*
X82816666Y-60679819D01*
X82816666Y-60679819D02*
X82911904Y-60632200D01*
X82911904Y-60632200D02*
X82959523Y-60584580D01*
X112153273Y-117782200D02*
X112010416Y-117829819D01*
X112010416Y-117829819D02*
X111772321Y-117829819D01*
X111772321Y-117829819D02*
X111677083Y-117782200D01*
X111677083Y-117782200D02*
X111629464Y-117734580D01*
X111629464Y-117734580D02*
X111581845Y-117639342D01*
X111581845Y-117639342D02*
X111581845Y-117544104D01*
X111581845Y-117544104D02*
X111629464Y-117448866D01*
X111629464Y-117448866D02*
X111677083Y-117401247D01*
X111677083Y-117401247D02*
X111772321Y-117353628D01*
X111772321Y-117353628D02*
X111962797Y-117306009D01*
X111962797Y-117306009D02*
X112058035Y-117258390D01*
X112058035Y-117258390D02*
X112105654Y-117210771D01*
X112105654Y-117210771D02*
X112153273Y-117115533D01*
X112153273Y-117115533D02*
X112153273Y-117020295D01*
X112153273Y-117020295D02*
X112105654Y-116925057D01*
X112105654Y-116925057D02*
X112058035Y-116877438D01*
X112058035Y-116877438D02*
X111962797Y-116829819D01*
X111962797Y-116829819D02*
X111724702Y-116829819D01*
X111724702Y-116829819D02*
X111581845Y-116877438D01*
X111248511Y-116829819D02*
X111010416Y-117829819D01*
X111010416Y-117829819D02*
X110819940Y-117115533D01*
X110819940Y-117115533D02*
X110629464Y-117829819D01*
X110629464Y-117829819D02*
X110391369Y-116829819D01*
X109581845Y-117163152D02*
X109581845Y-117829819D01*
X109819940Y-116782200D02*
X110058035Y-117496485D01*
X110058035Y-117496485D02*
X109438988Y-117496485D01*
X108629464Y-117163152D02*
X108629464Y-117829819D01*
X108867559Y-116782200D02*
X109105654Y-117496485D01*
X109105654Y-117496485D02*
X108486607Y-117496485D01*
X66909523Y-79682200D02*
X66766666Y-79729819D01*
X66766666Y-79729819D02*
X66528571Y-79729819D01*
X66528571Y-79729819D02*
X66433333Y-79682200D01*
X66433333Y-79682200D02*
X66385714Y-79634580D01*
X66385714Y-79634580D02*
X66338095Y-79539342D01*
X66338095Y-79539342D02*
X66338095Y-79444104D01*
X66338095Y-79444104D02*
X66385714Y-79348866D01*
X66385714Y-79348866D02*
X66433333Y-79301247D01*
X66433333Y-79301247D02*
X66528571Y-79253628D01*
X66528571Y-79253628D02*
X66719047Y-79206009D01*
X66719047Y-79206009D02*
X66814285Y-79158390D01*
X66814285Y-79158390D02*
X66861904Y-79110771D01*
X66861904Y-79110771D02*
X66909523Y-79015533D01*
X66909523Y-79015533D02*
X66909523Y-78920295D01*
X66909523Y-78920295D02*
X66861904Y-78825057D01*
X66861904Y-78825057D02*
X66814285Y-78777438D01*
X66814285Y-78777438D02*
X66719047Y-78729819D01*
X66719047Y-78729819D02*
X66480952Y-78729819D01*
X66480952Y-78729819D02*
X66338095Y-78777438D01*
X66004761Y-78729819D02*
X65766666Y-79729819D01*
X65766666Y-79729819D02*
X65576190Y-79015533D01*
X65576190Y-79015533D02*
X65385714Y-79729819D01*
X65385714Y-79729819D02*
X65147619Y-78729819D01*
X64814285Y-78825057D02*
X64766666Y-78777438D01*
X64766666Y-78777438D02*
X64671428Y-78729819D01*
X64671428Y-78729819D02*
X64433333Y-78729819D01*
X64433333Y-78729819D02*
X64338095Y-78777438D01*
X64338095Y-78777438D02*
X64290476Y-78825057D01*
X64290476Y-78825057D02*
X64242857Y-78920295D01*
X64242857Y-78920295D02*
X64242857Y-79015533D01*
X64242857Y-79015533D02*
X64290476Y-79158390D01*
X64290476Y-79158390D02*
X64861904Y-79729819D01*
X64861904Y-79729819D02*
X64242857Y-79729819D01*
X63861904Y-78825057D02*
X63814285Y-78777438D01*
X63814285Y-78777438D02*
X63719047Y-78729819D01*
X63719047Y-78729819D02*
X63480952Y-78729819D01*
X63480952Y-78729819D02*
X63385714Y-78777438D01*
X63385714Y-78777438D02*
X63338095Y-78825057D01*
X63338095Y-78825057D02*
X63290476Y-78920295D01*
X63290476Y-78920295D02*
X63290476Y-79015533D01*
X63290476Y-79015533D02*
X63338095Y-79158390D01*
X63338095Y-79158390D02*
X63909523Y-79729819D01*
X63909523Y-79729819D02*
X63290476Y-79729819D01*
X219309523Y-60632200D02*
X219166666Y-60679819D01*
X219166666Y-60679819D02*
X218928571Y-60679819D01*
X218928571Y-60679819D02*
X218833333Y-60632200D01*
X218833333Y-60632200D02*
X218785714Y-60584580D01*
X218785714Y-60584580D02*
X218738095Y-60489342D01*
X218738095Y-60489342D02*
X218738095Y-60394104D01*
X218738095Y-60394104D02*
X218785714Y-60298866D01*
X218785714Y-60298866D02*
X218833333Y-60251247D01*
X218833333Y-60251247D02*
X218928571Y-60203628D01*
X218928571Y-60203628D02*
X219119047Y-60156009D01*
X219119047Y-60156009D02*
X219214285Y-60108390D01*
X219214285Y-60108390D02*
X219261904Y-60060771D01*
X219261904Y-60060771D02*
X219309523Y-59965533D01*
X219309523Y-59965533D02*
X219309523Y-59870295D01*
X219309523Y-59870295D02*
X219261904Y-59775057D01*
X219261904Y-59775057D02*
X219214285Y-59727438D01*
X219214285Y-59727438D02*
X219119047Y-59679819D01*
X219119047Y-59679819D02*
X218880952Y-59679819D01*
X218880952Y-59679819D02*
X218738095Y-59727438D01*
X218404761Y-59679819D02*
X218166666Y-60679819D01*
X218166666Y-60679819D02*
X217976190Y-59965533D01*
X217976190Y-59965533D02*
X217785714Y-60679819D01*
X217785714Y-60679819D02*
X217547619Y-59679819D01*
X216642857Y-60679819D02*
X217214285Y-60679819D01*
X216928571Y-60679819D02*
X216928571Y-59679819D01*
X216928571Y-59679819D02*
X217023809Y-59822676D01*
X217023809Y-59822676D02*
X217119047Y-59917914D01*
X217119047Y-59917914D02*
X217214285Y-59965533D01*
X215785714Y-59679819D02*
X215976190Y-59679819D01*
X215976190Y-59679819D02*
X216071428Y-59727438D01*
X216071428Y-59727438D02*
X216119047Y-59775057D01*
X216119047Y-59775057D02*
X216214285Y-59917914D01*
X216214285Y-59917914D02*
X216261904Y-60108390D01*
X216261904Y-60108390D02*
X216261904Y-60489342D01*
X216261904Y-60489342D02*
X216214285Y-60584580D01*
X216214285Y-60584580D02*
X216166666Y-60632200D01*
X216166666Y-60632200D02*
X216071428Y-60679819D01*
X216071428Y-60679819D02*
X215880952Y-60679819D01*
X215880952Y-60679819D02*
X215785714Y-60632200D01*
X215785714Y-60632200D02*
X215738095Y-60584580D01*
X215738095Y-60584580D02*
X215690476Y-60489342D01*
X215690476Y-60489342D02*
X215690476Y-60251247D01*
X215690476Y-60251247D02*
X215738095Y-60156009D01*
X215738095Y-60156009D02*
X215785714Y-60108390D01*
X215785714Y-60108390D02*
X215880952Y-60060771D01*
X215880952Y-60060771D02*
X216071428Y-60060771D01*
X216071428Y-60060771D02*
X216166666Y-60108390D01*
X216166666Y-60108390D02*
X216214285Y-60156009D01*
X216214285Y-60156009D02*
X216261904Y-60251247D01*
X28809523Y-79682200D02*
X28666666Y-79729819D01*
X28666666Y-79729819D02*
X28428571Y-79729819D01*
X28428571Y-79729819D02*
X28333333Y-79682200D01*
X28333333Y-79682200D02*
X28285714Y-79634580D01*
X28285714Y-79634580D02*
X28238095Y-79539342D01*
X28238095Y-79539342D02*
X28238095Y-79444104D01*
X28238095Y-79444104D02*
X28285714Y-79348866D01*
X28285714Y-79348866D02*
X28333333Y-79301247D01*
X28333333Y-79301247D02*
X28428571Y-79253628D01*
X28428571Y-79253628D02*
X28619047Y-79206009D01*
X28619047Y-79206009D02*
X28714285Y-79158390D01*
X28714285Y-79158390D02*
X28761904Y-79110771D01*
X28761904Y-79110771D02*
X28809523Y-79015533D01*
X28809523Y-79015533D02*
X28809523Y-78920295D01*
X28809523Y-78920295D02*
X28761904Y-78825057D01*
X28761904Y-78825057D02*
X28714285Y-78777438D01*
X28714285Y-78777438D02*
X28619047Y-78729819D01*
X28619047Y-78729819D02*
X28380952Y-78729819D01*
X28380952Y-78729819D02*
X28238095Y-78777438D01*
X27904761Y-78729819D02*
X27666666Y-79729819D01*
X27666666Y-79729819D02*
X27476190Y-79015533D01*
X27476190Y-79015533D02*
X27285714Y-79729819D01*
X27285714Y-79729819D02*
X27047619Y-78729819D01*
X26714285Y-78825057D02*
X26666666Y-78777438D01*
X26666666Y-78777438D02*
X26571428Y-78729819D01*
X26571428Y-78729819D02*
X26333333Y-78729819D01*
X26333333Y-78729819D02*
X26238095Y-78777438D01*
X26238095Y-78777438D02*
X26190476Y-78825057D01*
X26190476Y-78825057D02*
X26142857Y-78920295D01*
X26142857Y-78920295D02*
X26142857Y-79015533D01*
X26142857Y-79015533D02*
X26190476Y-79158390D01*
X26190476Y-79158390D02*
X26761904Y-79729819D01*
X26761904Y-79729819D02*
X26142857Y-79729819D01*
X25523809Y-78729819D02*
X25428571Y-78729819D01*
X25428571Y-78729819D02*
X25333333Y-78777438D01*
X25333333Y-78777438D02*
X25285714Y-78825057D01*
X25285714Y-78825057D02*
X25238095Y-78920295D01*
X25238095Y-78920295D02*
X25190476Y-79110771D01*
X25190476Y-79110771D02*
X25190476Y-79348866D01*
X25190476Y-79348866D02*
X25238095Y-79539342D01*
X25238095Y-79539342D02*
X25285714Y-79634580D01*
X25285714Y-79634580D02*
X25333333Y-79682200D01*
X25333333Y-79682200D02*
X25428571Y-79729819D01*
X25428571Y-79729819D02*
X25523809Y-79729819D01*
X25523809Y-79729819D02*
X25619047Y-79682200D01*
X25619047Y-79682200D02*
X25666666Y-79634580D01*
X25666666Y-79634580D02*
X25714285Y-79539342D01*
X25714285Y-79539342D02*
X25761904Y-79348866D01*
X25761904Y-79348866D02*
X25761904Y-79110771D01*
X25761904Y-79110771D02*
X25714285Y-78920295D01*
X25714285Y-78920295D02*
X25666666Y-78825057D01*
X25666666Y-78825057D02*
X25619047Y-78777438D01*
X25619047Y-78777438D02*
X25523809Y-78729819D01*
X174065773Y-117782200D02*
X173922916Y-117829819D01*
X173922916Y-117829819D02*
X173684821Y-117829819D01*
X173684821Y-117829819D02*
X173589583Y-117782200D01*
X173589583Y-117782200D02*
X173541964Y-117734580D01*
X173541964Y-117734580D02*
X173494345Y-117639342D01*
X173494345Y-117639342D02*
X173494345Y-117544104D01*
X173494345Y-117544104D02*
X173541964Y-117448866D01*
X173541964Y-117448866D02*
X173589583Y-117401247D01*
X173589583Y-117401247D02*
X173684821Y-117353628D01*
X173684821Y-117353628D02*
X173875297Y-117306009D01*
X173875297Y-117306009D02*
X173970535Y-117258390D01*
X173970535Y-117258390D02*
X174018154Y-117210771D01*
X174018154Y-117210771D02*
X174065773Y-117115533D01*
X174065773Y-117115533D02*
X174065773Y-117020295D01*
X174065773Y-117020295D02*
X174018154Y-116925057D01*
X174018154Y-116925057D02*
X173970535Y-116877438D01*
X173970535Y-116877438D02*
X173875297Y-116829819D01*
X173875297Y-116829819D02*
X173637202Y-116829819D01*
X173637202Y-116829819D02*
X173494345Y-116877438D01*
X173161011Y-116829819D02*
X172922916Y-117829819D01*
X172922916Y-117829819D02*
X172732440Y-117115533D01*
X172732440Y-117115533D02*
X172541964Y-117829819D01*
X172541964Y-117829819D02*
X172303869Y-116829819D01*
X171446726Y-116829819D02*
X171922916Y-116829819D01*
X171922916Y-116829819D02*
X171970535Y-117306009D01*
X171970535Y-117306009D02*
X171922916Y-117258390D01*
X171922916Y-117258390D02*
X171827678Y-117210771D01*
X171827678Y-117210771D02*
X171589583Y-117210771D01*
X171589583Y-117210771D02*
X171494345Y-117258390D01*
X171494345Y-117258390D02*
X171446726Y-117306009D01*
X171446726Y-117306009D02*
X171399107Y-117401247D01*
X171399107Y-117401247D02*
X171399107Y-117639342D01*
X171399107Y-117639342D02*
X171446726Y-117734580D01*
X171446726Y-117734580D02*
X171494345Y-117782200D01*
X171494345Y-117782200D02*
X171589583Y-117829819D01*
X171589583Y-117829819D02*
X171827678Y-117829819D01*
X171827678Y-117829819D02*
X171922916Y-117782200D01*
X171922916Y-117782200D02*
X171970535Y-117734580D01*
X170541964Y-116829819D02*
X170732440Y-116829819D01*
X170732440Y-116829819D02*
X170827678Y-116877438D01*
X170827678Y-116877438D02*
X170875297Y-116925057D01*
X170875297Y-116925057D02*
X170970535Y-117067914D01*
X170970535Y-117067914D02*
X171018154Y-117258390D01*
X171018154Y-117258390D02*
X171018154Y-117639342D01*
X171018154Y-117639342D02*
X170970535Y-117734580D01*
X170970535Y-117734580D02*
X170922916Y-117782200D01*
X170922916Y-117782200D02*
X170827678Y-117829819D01*
X170827678Y-117829819D02*
X170637202Y-117829819D01*
X170637202Y-117829819D02*
X170541964Y-117782200D01*
X170541964Y-117782200D02*
X170494345Y-117734580D01*
X170494345Y-117734580D02*
X170446726Y-117639342D01*
X170446726Y-117639342D02*
X170446726Y-117401247D01*
X170446726Y-117401247D02*
X170494345Y-117306009D01*
X170494345Y-117306009D02*
X170541964Y-117258390D01*
X170541964Y-117258390D02*
X170637202Y-117210771D01*
X170637202Y-117210771D02*
X170827678Y-117210771D01*
X170827678Y-117210771D02*
X170922916Y-117258390D01*
X170922916Y-117258390D02*
X170970535Y-117306009D01*
X170970535Y-117306009D02*
X171018154Y-117401247D01*
X174065773Y-98722200D02*
X173922916Y-98769819D01*
X173922916Y-98769819D02*
X173684821Y-98769819D01*
X173684821Y-98769819D02*
X173589583Y-98722200D01*
X173589583Y-98722200D02*
X173541964Y-98674580D01*
X173541964Y-98674580D02*
X173494345Y-98579342D01*
X173494345Y-98579342D02*
X173494345Y-98484104D01*
X173494345Y-98484104D02*
X173541964Y-98388866D01*
X173541964Y-98388866D02*
X173589583Y-98341247D01*
X173589583Y-98341247D02*
X173684821Y-98293628D01*
X173684821Y-98293628D02*
X173875297Y-98246009D01*
X173875297Y-98246009D02*
X173970535Y-98198390D01*
X173970535Y-98198390D02*
X174018154Y-98150771D01*
X174018154Y-98150771D02*
X174065773Y-98055533D01*
X174065773Y-98055533D02*
X174065773Y-97960295D01*
X174065773Y-97960295D02*
X174018154Y-97865057D01*
X174018154Y-97865057D02*
X173970535Y-97817438D01*
X173970535Y-97817438D02*
X173875297Y-97769819D01*
X173875297Y-97769819D02*
X173637202Y-97769819D01*
X173637202Y-97769819D02*
X173494345Y-97817438D01*
X173161011Y-97769819D02*
X172922916Y-98769819D01*
X172922916Y-98769819D02*
X172732440Y-98055533D01*
X172732440Y-98055533D02*
X172541964Y-98769819D01*
X172541964Y-98769819D02*
X172303869Y-97769819D01*
X171446726Y-97769819D02*
X171922916Y-97769819D01*
X171922916Y-97769819D02*
X171970535Y-98246009D01*
X171970535Y-98246009D02*
X171922916Y-98198390D01*
X171922916Y-98198390D02*
X171827678Y-98150771D01*
X171827678Y-98150771D02*
X171589583Y-98150771D01*
X171589583Y-98150771D02*
X171494345Y-98198390D01*
X171494345Y-98198390D02*
X171446726Y-98246009D01*
X171446726Y-98246009D02*
X171399107Y-98341247D01*
X171399107Y-98341247D02*
X171399107Y-98579342D01*
X171399107Y-98579342D02*
X171446726Y-98674580D01*
X171446726Y-98674580D02*
X171494345Y-98722200D01*
X171494345Y-98722200D02*
X171589583Y-98769819D01*
X171589583Y-98769819D02*
X171827678Y-98769819D01*
X171827678Y-98769819D02*
X171922916Y-98722200D01*
X171922916Y-98722200D02*
X171970535Y-98674580D01*
X170494345Y-97769819D02*
X170970535Y-97769819D01*
X170970535Y-97769819D02*
X171018154Y-98246009D01*
X171018154Y-98246009D02*
X170970535Y-98198390D01*
X170970535Y-98198390D02*
X170875297Y-98150771D01*
X170875297Y-98150771D02*
X170637202Y-98150771D01*
X170637202Y-98150771D02*
X170541964Y-98198390D01*
X170541964Y-98198390D02*
X170494345Y-98246009D01*
X170494345Y-98246009D02*
X170446726Y-98341247D01*
X170446726Y-98341247D02*
X170446726Y-98579342D01*
X170446726Y-98579342D02*
X170494345Y-98674580D01*
X170494345Y-98674580D02*
X170541964Y-98722200D01*
X170541964Y-98722200D02*
X170637202Y-98769819D01*
X170637202Y-98769819D02*
X170875297Y-98769819D01*
X170875297Y-98769819D02*
X170970535Y-98722200D01*
X170970535Y-98722200D02*
X171018154Y-98674580D01*
X74053273Y-117782200D02*
X73910416Y-117829819D01*
X73910416Y-117829819D02*
X73672321Y-117829819D01*
X73672321Y-117829819D02*
X73577083Y-117782200D01*
X73577083Y-117782200D02*
X73529464Y-117734580D01*
X73529464Y-117734580D02*
X73481845Y-117639342D01*
X73481845Y-117639342D02*
X73481845Y-117544104D01*
X73481845Y-117544104D02*
X73529464Y-117448866D01*
X73529464Y-117448866D02*
X73577083Y-117401247D01*
X73577083Y-117401247D02*
X73672321Y-117353628D01*
X73672321Y-117353628D02*
X73862797Y-117306009D01*
X73862797Y-117306009D02*
X73958035Y-117258390D01*
X73958035Y-117258390D02*
X74005654Y-117210771D01*
X74005654Y-117210771D02*
X74053273Y-117115533D01*
X74053273Y-117115533D02*
X74053273Y-117020295D01*
X74053273Y-117020295D02*
X74005654Y-116925057D01*
X74005654Y-116925057D02*
X73958035Y-116877438D01*
X73958035Y-116877438D02*
X73862797Y-116829819D01*
X73862797Y-116829819D02*
X73624702Y-116829819D01*
X73624702Y-116829819D02*
X73481845Y-116877438D01*
X73148511Y-116829819D02*
X72910416Y-117829819D01*
X72910416Y-117829819D02*
X72719940Y-117115533D01*
X72719940Y-117115533D02*
X72529464Y-117829819D01*
X72529464Y-117829819D02*
X72291369Y-116829819D01*
X71481845Y-117163152D02*
X71481845Y-117829819D01*
X71719940Y-116782200D02*
X71958035Y-117496485D01*
X71958035Y-117496485D02*
X71338988Y-117496485D01*
X71005654Y-116925057D02*
X70958035Y-116877438D01*
X70958035Y-116877438D02*
X70862797Y-116829819D01*
X70862797Y-116829819D02*
X70624702Y-116829819D01*
X70624702Y-116829819D02*
X70529464Y-116877438D01*
X70529464Y-116877438D02*
X70481845Y-116925057D01*
X70481845Y-116925057D02*
X70434226Y-117020295D01*
X70434226Y-117020295D02*
X70434226Y-117115533D01*
X70434226Y-117115533D02*
X70481845Y-117258390D01*
X70481845Y-117258390D02*
X71053273Y-117829819D01*
X71053273Y-117829819D02*
X70434226Y-117829819D01*
X257409523Y-60632200D02*
X257266666Y-60679819D01*
X257266666Y-60679819D02*
X257028571Y-60679819D01*
X257028571Y-60679819D02*
X256933333Y-60632200D01*
X256933333Y-60632200D02*
X256885714Y-60584580D01*
X256885714Y-60584580D02*
X256838095Y-60489342D01*
X256838095Y-60489342D02*
X256838095Y-60394104D01*
X256838095Y-60394104D02*
X256885714Y-60298866D01*
X256885714Y-60298866D02*
X256933333Y-60251247D01*
X256933333Y-60251247D02*
X257028571Y-60203628D01*
X257028571Y-60203628D02*
X257219047Y-60156009D01*
X257219047Y-60156009D02*
X257314285Y-60108390D01*
X257314285Y-60108390D02*
X257361904Y-60060771D01*
X257361904Y-60060771D02*
X257409523Y-59965533D01*
X257409523Y-59965533D02*
X257409523Y-59870295D01*
X257409523Y-59870295D02*
X257361904Y-59775057D01*
X257361904Y-59775057D02*
X257314285Y-59727438D01*
X257314285Y-59727438D02*
X257219047Y-59679819D01*
X257219047Y-59679819D02*
X256980952Y-59679819D01*
X256980952Y-59679819D02*
X256838095Y-59727438D01*
X256504761Y-59679819D02*
X256266666Y-60679819D01*
X256266666Y-60679819D02*
X256076190Y-59965533D01*
X256076190Y-59965533D02*
X255885714Y-60679819D01*
X255885714Y-60679819D02*
X255647619Y-59679819D01*
X254742857Y-60679819D02*
X255314285Y-60679819D01*
X255028571Y-60679819D02*
X255028571Y-59679819D01*
X255028571Y-59679819D02*
X255123809Y-59822676D01*
X255123809Y-59822676D02*
X255219047Y-59917914D01*
X255219047Y-59917914D02*
X255314285Y-59965533D01*
X254171428Y-60108390D02*
X254266666Y-60060771D01*
X254266666Y-60060771D02*
X254314285Y-60013152D01*
X254314285Y-60013152D02*
X254361904Y-59917914D01*
X254361904Y-59917914D02*
X254361904Y-59870295D01*
X254361904Y-59870295D02*
X254314285Y-59775057D01*
X254314285Y-59775057D02*
X254266666Y-59727438D01*
X254266666Y-59727438D02*
X254171428Y-59679819D01*
X254171428Y-59679819D02*
X253980952Y-59679819D01*
X253980952Y-59679819D02*
X253885714Y-59727438D01*
X253885714Y-59727438D02*
X253838095Y-59775057D01*
X253838095Y-59775057D02*
X253790476Y-59870295D01*
X253790476Y-59870295D02*
X253790476Y-59917914D01*
X253790476Y-59917914D02*
X253838095Y-60013152D01*
X253838095Y-60013152D02*
X253885714Y-60060771D01*
X253885714Y-60060771D02*
X253980952Y-60108390D01*
X253980952Y-60108390D02*
X254171428Y-60108390D01*
X254171428Y-60108390D02*
X254266666Y-60156009D01*
X254266666Y-60156009D02*
X254314285Y-60203628D01*
X254314285Y-60203628D02*
X254361904Y-60298866D01*
X254361904Y-60298866D02*
X254361904Y-60489342D01*
X254361904Y-60489342D02*
X254314285Y-60584580D01*
X254314285Y-60584580D02*
X254266666Y-60632200D01*
X254266666Y-60632200D02*
X254171428Y-60679819D01*
X254171428Y-60679819D02*
X253980952Y-60679819D01*
X253980952Y-60679819D02*
X253885714Y-60632200D01*
X253885714Y-60632200D02*
X253838095Y-60584580D01*
X253838095Y-60584580D02*
X253790476Y-60489342D01*
X253790476Y-60489342D02*
X253790476Y-60298866D01*
X253790476Y-60298866D02*
X253838095Y-60203628D01*
X253838095Y-60203628D02*
X253885714Y-60156009D01*
X253885714Y-60156009D02*
X253980952Y-60108390D01*
X219309523Y-79682200D02*
X219166666Y-79729819D01*
X219166666Y-79729819D02*
X218928571Y-79729819D01*
X218928571Y-79729819D02*
X218833333Y-79682200D01*
X218833333Y-79682200D02*
X218785714Y-79634580D01*
X218785714Y-79634580D02*
X218738095Y-79539342D01*
X218738095Y-79539342D02*
X218738095Y-79444104D01*
X218738095Y-79444104D02*
X218785714Y-79348866D01*
X218785714Y-79348866D02*
X218833333Y-79301247D01*
X218833333Y-79301247D02*
X218928571Y-79253628D01*
X218928571Y-79253628D02*
X219119047Y-79206009D01*
X219119047Y-79206009D02*
X219214285Y-79158390D01*
X219214285Y-79158390D02*
X219261904Y-79110771D01*
X219261904Y-79110771D02*
X219309523Y-79015533D01*
X219309523Y-79015533D02*
X219309523Y-78920295D01*
X219309523Y-78920295D02*
X219261904Y-78825057D01*
X219261904Y-78825057D02*
X219214285Y-78777438D01*
X219214285Y-78777438D02*
X219119047Y-78729819D01*
X219119047Y-78729819D02*
X218880952Y-78729819D01*
X218880952Y-78729819D02*
X218738095Y-78777438D01*
X218404761Y-78729819D02*
X218166666Y-79729819D01*
X218166666Y-79729819D02*
X217976190Y-79015533D01*
X217976190Y-79015533D02*
X217785714Y-79729819D01*
X217785714Y-79729819D02*
X217547619Y-78729819D01*
X217214285Y-78825057D02*
X217166666Y-78777438D01*
X217166666Y-78777438D02*
X217071428Y-78729819D01*
X217071428Y-78729819D02*
X216833333Y-78729819D01*
X216833333Y-78729819D02*
X216738095Y-78777438D01*
X216738095Y-78777438D02*
X216690476Y-78825057D01*
X216690476Y-78825057D02*
X216642857Y-78920295D01*
X216642857Y-78920295D02*
X216642857Y-79015533D01*
X216642857Y-79015533D02*
X216690476Y-79158390D01*
X216690476Y-79158390D02*
X217261904Y-79729819D01*
X217261904Y-79729819D02*
X216642857Y-79729819D01*
X215785714Y-78729819D02*
X215976190Y-78729819D01*
X215976190Y-78729819D02*
X216071428Y-78777438D01*
X216071428Y-78777438D02*
X216119047Y-78825057D01*
X216119047Y-78825057D02*
X216214285Y-78967914D01*
X216214285Y-78967914D02*
X216261904Y-79158390D01*
X216261904Y-79158390D02*
X216261904Y-79539342D01*
X216261904Y-79539342D02*
X216214285Y-79634580D01*
X216214285Y-79634580D02*
X216166666Y-79682200D01*
X216166666Y-79682200D02*
X216071428Y-79729819D01*
X216071428Y-79729819D02*
X215880952Y-79729819D01*
X215880952Y-79729819D02*
X215785714Y-79682200D01*
X215785714Y-79682200D02*
X215738095Y-79634580D01*
X215738095Y-79634580D02*
X215690476Y-79539342D01*
X215690476Y-79539342D02*
X215690476Y-79301247D01*
X215690476Y-79301247D02*
X215738095Y-79206009D01*
X215738095Y-79206009D02*
X215785714Y-79158390D01*
X215785714Y-79158390D02*
X215880952Y-79110771D01*
X215880952Y-79110771D02*
X216071428Y-79110771D01*
X216071428Y-79110771D02*
X216166666Y-79158390D01*
X216166666Y-79158390D02*
X216214285Y-79206009D01*
X216214285Y-79206009D02*
X216261904Y-79301247D01*
X295985713Y-79682200D02*
X295842856Y-79729819D01*
X295842856Y-79729819D02*
X295604761Y-79729819D01*
X295604761Y-79729819D02*
X295509523Y-79682200D01*
X295509523Y-79682200D02*
X295461904Y-79634580D01*
X295461904Y-79634580D02*
X295414285Y-79539342D01*
X295414285Y-79539342D02*
X295414285Y-79444104D01*
X295414285Y-79444104D02*
X295461904Y-79348866D01*
X295461904Y-79348866D02*
X295509523Y-79301247D01*
X295509523Y-79301247D02*
X295604761Y-79253628D01*
X295604761Y-79253628D02*
X295795237Y-79206009D01*
X295795237Y-79206009D02*
X295890475Y-79158390D01*
X295890475Y-79158390D02*
X295938094Y-79110771D01*
X295938094Y-79110771D02*
X295985713Y-79015533D01*
X295985713Y-79015533D02*
X295985713Y-78920295D01*
X295985713Y-78920295D02*
X295938094Y-78825057D01*
X295938094Y-78825057D02*
X295890475Y-78777438D01*
X295890475Y-78777438D02*
X295795237Y-78729819D01*
X295795237Y-78729819D02*
X295557142Y-78729819D01*
X295557142Y-78729819D02*
X295414285Y-78777438D01*
X295080951Y-78729819D02*
X294842856Y-79729819D01*
X294842856Y-79729819D02*
X294652380Y-79015533D01*
X294652380Y-79015533D02*
X294461904Y-79729819D01*
X294461904Y-79729819D02*
X294223809Y-78729819D01*
X293890475Y-78825057D02*
X293842856Y-78777438D01*
X293842856Y-78777438D02*
X293747618Y-78729819D01*
X293747618Y-78729819D02*
X293509523Y-78729819D01*
X293509523Y-78729819D02*
X293414285Y-78777438D01*
X293414285Y-78777438D02*
X293366666Y-78825057D01*
X293366666Y-78825057D02*
X293319047Y-78920295D01*
X293319047Y-78920295D02*
X293319047Y-79015533D01*
X293319047Y-79015533D02*
X293366666Y-79158390D01*
X293366666Y-79158390D02*
X293938094Y-79729819D01*
X293938094Y-79729819D02*
X293319047Y-79729819D01*
X292366666Y-79729819D02*
X292938094Y-79729819D01*
X292652380Y-79729819D02*
X292652380Y-78729819D01*
X292652380Y-78729819D02*
X292747618Y-78872676D01*
X292747618Y-78872676D02*
X292842856Y-78967914D01*
X292842856Y-78967914D02*
X292938094Y-79015533D01*
X291747618Y-78729819D02*
X291652380Y-78729819D01*
X291652380Y-78729819D02*
X291557142Y-78777438D01*
X291557142Y-78777438D02*
X291509523Y-78825057D01*
X291509523Y-78825057D02*
X291461904Y-78920295D01*
X291461904Y-78920295D02*
X291414285Y-79110771D01*
X291414285Y-79110771D02*
X291414285Y-79348866D01*
X291414285Y-79348866D02*
X291461904Y-79539342D01*
X291461904Y-79539342D02*
X291509523Y-79634580D01*
X291509523Y-79634580D02*
X291557142Y-79682200D01*
X291557142Y-79682200D02*
X291652380Y-79729819D01*
X291652380Y-79729819D02*
X291747618Y-79729819D01*
X291747618Y-79729819D02*
X291842856Y-79682200D01*
X291842856Y-79682200D02*
X291890475Y-79634580D01*
X291890475Y-79634580D02*
X291938094Y-79539342D01*
X291938094Y-79539342D02*
X291985713Y-79348866D01*
X291985713Y-79348866D02*
X291985713Y-79110771D01*
X291985713Y-79110771D02*
X291938094Y-78920295D01*
X291938094Y-78920295D02*
X291890475Y-78825057D01*
X291890475Y-78825057D02*
X291842856Y-78777438D01*
X291842856Y-78777438D02*
X291747618Y-78729819D01*
X193300950Y-102865476D02*
X193348569Y-103008333D01*
X193348569Y-103008333D02*
X193348569Y-103246428D01*
X193348569Y-103246428D02*
X193300950Y-103341666D01*
X193300950Y-103341666D02*
X193253330Y-103389285D01*
X193253330Y-103389285D02*
X193158092Y-103436904D01*
X193158092Y-103436904D02*
X193062854Y-103436904D01*
X193062854Y-103436904D02*
X192967616Y-103389285D01*
X192967616Y-103389285D02*
X192919997Y-103341666D01*
X192919997Y-103341666D02*
X192872378Y-103246428D01*
X192872378Y-103246428D02*
X192824759Y-103055952D01*
X192824759Y-103055952D02*
X192777140Y-102960714D01*
X192777140Y-102960714D02*
X192729521Y-102913095D01*
X192729521Y-102913095D02*
X192634283Y-102865476D01*
X192634283Y-102865476D02*
X192539045Y-102865476D01*
X192539045Y-102865476D02*
X192443807Y-102913095D01*
X192443807Y-102913095D02*
X192396188Y-102960714D01*
X192396188Y-102960714D02*
X192348569Y-103055952D01*
X192348569Y-103055952D02*
X192348569Y-103294047D01*
X192348569Y-103294047D02*
X192396188Y-103436904D01*
X192348569Y-103770238D02*
X193348569Y-104008333D01*
X193348569Y-104008333D02*
X192634283Y-104198809D01*
X192634283Y-104198809D02*
X193348569Y-104389285D01*
X193348569Y-104389285D02*
X192348569Y-104627381D01*
X192681902Y-105436904D02*
X193348569Y-105436904D01*
X192300950Y-105198809D02*
X193015235Y-104960714D01*
X193015235Y-104960714D02*
X193015235Y-105579761D01*
X192348569Y-106389285D02*
X192348569Y-106198809D01*
X192348569Y-106198809D02*
X192396188Y-106103571D01*
X192396188Y-106103571D02*
X192443807Y-106055952D01*
X192443807Y-106055952D02*
X192586664Y-105960714D01*
X192586664Y-105960714D02*
X192777140Y-105913095D01*
X192777140Y-105913095D02*
X193158092Y-105913095D01*
X193158092Y-105913095D02*
X193253330Y-105960714D01*
X193253330Y-105960714D02*
X193300950Y-106008333D01*
X193300950Y-106008333D02*
X193348569Y-106103571D01*
X193348569Y-106103571D02*
X193348569Y-106294047D01*
X193348569Y-106294047D02*
X193300950Y-106389285D01*
X193300950Y-106389285D02*
X193253330Y-106436904D01*
X193253330Y-106436904D02*
X193158092Y-106484523D01*
X193158092Y-106484523D02*
X192919997Y-106484523D01*
X192919997Y-106484523D02*
X192824759Y-106436904D01*
X192824759Y-106436904D02*
X192777140Y-106389285D01*
X192777140Y-106389285D02*
X192729521Y-106294047D01*
X192729521Y-106294047D02*
X192729521Y-106103571D01*
X192729521Y-106103571D02*
X192777140Y-106008333D01*
X192777140Y-106008333D02*
X192824759Y-105960714D01*
X192824759Y-105960714D02*
X192919997Y-105913095D01*
X257409523Y-79682200D02*
X257266666Y-79729819D01*
X257266666Y-79729819D02*
X257028571Y-79729819D01*
X257028571Y-79729819D02*
X256933333Y-79682200D01*
X256933333Y-79682200D02*
X256885714Y-79634580D01*
X256885714Y-79634580D02*
X256838095Y-79539342D01*
X256838095Y-79539342D02*
X256838095Y-79444104D01*
X256838095Y-79444104D02*
X256885714Y-79348866D01*
X256885714Y-79348866D02*
X256933333Y-79301247D01*
X256933333Y-79301247D02*
X257028571Y-79253628D01*
X257028571Y-79253628D02*
X257219047Y-79206009D01*
X257219047Y-79206009D02*
X257314285Y-79158390D01*
X257314285Y-79158390D02*
X257361904Y-79110771D01*
X257361904Y-79110771D02*
X257409523Y-79015533D01*
X257409523Y-79015533D02*
X257409523Y-78920295D01*
X257409523Y-78920295D02*
X257361904Y-78825057D01*
X257361904Y-78825057D02*
X257314285Y-78777438D01*
X257314285Y-78777438D02*
X257219047Y-78729819D01*
X257219047Y-78729819D02*
X256980952Y-78729819D01*
X256980952Y-78729819D02*
X256838095Y-78777438D01*
X256504761Y-78729819D02*
X256266666Y-79729819D01*
X256266666Y-79729819D02*
X256076190Y-79015533D01*
X256076190Y-79015533D02*
X255885714Y-79729819D01*
X255885714Y-79729819D02*
X255647619Y-78729819D01*
X255314285Y-78825057D02*
X255266666Y-78777438D01*
X255266666Y-78777438D02*
X255171428Y-78729819D01*
X255171428Y-78729819D02*
X254933333Y-78729819D01*
X254933333Y-78729819D02*
X254838095Y-78777438D01*
X254838095Y-78777438D02*
X254790476Y-78825057D01*
X254790476Y-78825057D02*
X254742857Y-78920295D01*
X254742857Y-78920295D02*
X254742857Y-79015533D01*
X254742857Y-79015533D02*
X254790476Y-79158390D01*
X254790476Y-79158390D02*
X255361904Y-79729819D01*
X255361904Y-79729819D02*
X254742857Y-79729819D01*
X254171428Y-79158390D02*
X254266666Y-79110771D01*
X254266666Y-79110771D02*
X254314285Y-79063152D01*
X254314285Y-79063152D02*
X254361904Y-78967914D01*
X254361904Y-78967914D02*
X254361904Y-78920295D01*
X254361904Y-78920295D02*
X254314285Y-78825057D01*
X254314285Y-78825057D02*
X254266666Y-78777438D01*
X254266666Y-78777438D02*
X254171428Y-78729819D01*
X254171428Y-78729819D02*
X253980952Y-78729819D01*
X253980952Y-78729819D02*
X253885714Y-78777438D01*
X253885714Y-78777438D02*
X253838095Y-78825057D01*
X253838095Y-78825057D02*
X253790476Y-78920295D01*
X253790476Y-78920295D02*
X253790476Y-78967914D01*
X253790476Y-78967914D02*
X253838095Y-79063152D01*
X253838095Y-79063152D02*
X253885714Y-79110771D01*
X253885714Y-79110771D02*
X253980952Y-79158390D01*
X253980952Y-79158390D02*
X254171428Y-79158390D01*
X254171428Y-79158390D02*
X254266666Y-79206009D01*
X254266666Y-79206009D02*
X254314285Y-79253628D01*
X254314285Y-79253628D02*
X254361904Y-79348866D01*
X254361904Y-79348866D02*
X254361904Y-79539342D01*
X254361904Y-79539342D02*
X254314285Y-79634580D01*
X254314285Y-79634580D02*
X254266666Y-79682200D01*
X254266666Y-79682200D02*
X254171428Y-79729819D01*
X254171428Y-79729819D02*
X253980952Y-79729819D01*
X253980952Y-79729819D02*
X253885714Y-79682200D01*
X253885714Y-79682200D02*
X253838095Y-79634580D01*
X253838095Y-79634580D02*
X253790476Y-79539342D01*
X253790476Y-79539342D02*
X253790476Y-79348866D01*
X253790476Y-79348866D02*
X253838095Y-79253628D01*
X253838095Y-79253628D02*
X253885714Y-79206009D01*
X253885714Y-79206009D02*
X253980952Y-79158390D01*
X295509523Y-117782200D02*
X295366666Y-117829819D01*
X295366666Y-117829819D02*
X295128571Y-117829819D01*
X295128571Y-117829819D02*
X295033333Y-117782200D01*
X295033333Y-117782200D02*
X294985714Y-117734580D01*
X294985714Y-117734580D02*
X294938095Y-117639342D01*
X294938095Y-117639342D02*
X294938095Y-117544104D01*
X294938095Y-117544104D02*
X294985714Y-117448866D01*
X294985714Y-117448866D02*
X295033333Y-117401247D01*
X295033333Y-117401247D02*
X295128571Y-117353628D01*
X295128571Y-117353628D02*
X295319047Y-117306009D01*
X295319047Y-117306009D02*
X295414285Y-117258390D01*
X295414285Y-117258390D02*
X295461904Y-117210771D01*
X295461904Y-117210771D02*
X295509523Y-117115533D01*
X295509523Y-117115533D02*
X295509523Y-117020295D01*
X295509523Y-117020295D02*
X295461904Y-116925057D01*
X295461904Y-116925057D02*
X295414285Y-116877438D01*
X295414285Y-116877438D02*
X295319047Y-116829819D01*
X295319047Y-116829819D02*
X295080952Y-116829819D01*
X295080952Y-116829819D02*
X294938095Y-116877438D01*
X294604761Y-116829819D02*
X294366666Y-117829819D01*
X294366666Y-117829819D02*
X294176190Y-117115533D01*
X294176190Y-117115533D02*
X293985714Y-117829819D01*
X293985714Y-117829819D02*
X293747619Y-116829819D01*
X292890476Y-116829819D02*
X293366666Y-116829819D01*
X293366666Y-116829819D02*
X293414285Y-117306009D01*
X293414285Y-117306009D02*
X293366666Y-117258390D01*
X293366666Y-117258390D02*
X293271428Y-117210771D01*
X293271428Y-117210771D02*
X293033333Y-117210771D01*
X293033333Y-117210771D02*
X292938095Y-117258390D01*
X292938095Y-117258390D02*
X292890476Y-117306009D01*
X292890476Y-117306009D02*
X292842857Y-117401247D01*
X292842857Y-117401247D02*
X292842857Y-117639342D01*
X292842857Y-117639342D02*
X292890476Y-117734580D01*
X292890476Y-117734580D02*
X292938095Y-117782200D01*
X292938095Y-117782200D02*
X293033333Y-117829819D01*
X293033333Y-117829819D02*
X293271428Y-117829819D01*
X293271428Y-117829819D02*
X293366666Y-117782200D01*
X293366666Y-117782200D02*
X293414285Y-117734580D01*
X292223809Y-116829819D02*
X292128571Y-116829819D01*
X292128571Y-116829819D02*
X292033333Y-116877438D01*
X292033333Y-116877438D02*
X291985714Y-116925057D01*
X291985714Y-116925057D02*
X291938095Y-117020295D01*
X291938095Y-117020295D02*
X291890476Y-117210771D01*
X291890476Y-117210771D02*
X291890476Y-117448866D01*
X291890476Y-117448866D02*
X291938095Y-117639342D01*
X291938095Y-117639342D02*
X291985714Y-117734580D01*
X291985714Y-117734580D02*
X292033333Y-117782200D01*
X292033333Y-117782200D02*
X292128571Y-117829819D01*
X292128571Y-117829819D02*
X292223809Y-117829819D01*
X292223809Y-117829819D02*
X292319047Y-117782200D01*
X292319047Y-117782200D02*
X292366666Y-117734580D01*
X292366666Y-117734580D02*
X292414285Y-117639342D01*
X292414285Y-117639342D02*
X292461904Y-117448866D01*
X292461904Y-117448866D02*
X292461904Y-117210771D01*
X292461904Y-117210771D02*
X292414285Y-117020295D01*
X292414285Y-117020295D02*
X292366666Y-116925057D01*
X292366666Y-116925057D02*
X292319047Y-116877438D01*
X292319047Y-116877438D02*
X292223809Y-116829819D01*
X104533332Y-41582200D02*
X104390475Y-41629819D01*
X104390475Y-41629819D02*
X104152380Y-41629819D01*
X104152380Y-41629819D02*
X104057142Y-41582200D01*
X104057142Y-41582200D02*
X104009523Y-41534580D01*
X104009523Y-41534580D02*
X103961904Y-41439342D01*
X103961904Y-41439342D02*
X103961904Y-41344104D01*
X103961904Y-41344104D02*
X104009523Y-41248866D01*
X104009523Y-41248866D02*
X104057142Y-41201247D01*
X104057142Y-41201247D02*
X104152380Y-41153628D01*
X104152380Y-41153628D02*
X104342856Y-41106009D01*
X104342856Y-41106009D02*
X104438094Y-41058390D01*
X104438094Y-41058390D02*
X104485713Y-41010771D01*
X104485713Y-41010771D02*
X104533332Y-40915533D01*
X104533332Y-40915533D02*
X104533332Y-40820295D01*
X104533332Y-40820295D02*
X104485713Y-40725057D01*
X104485713Y-40725057D02*
X104438094Y-40677438D01*
X104438094Y-40677438D02*
X104342856Y-40629819D01*
X104342856Y-40629819D02*
X104104761Y-40629819D01*
X104104761Y-40629819D02*
X103961904Y-40677438D01*
X103628570Y-40629819D02*
X103390475Y-41629819D01*
X103390475Y-41629819D02*
X103199999Y-40915533D01*
X103199999Y-40915533D02*
X103009523Y-41629819D01*
X103009523Y-41629819D02*
X102771428Y-40629819D01*
X101961904Y-40963152D02*
X101961904Y-41629819D01*
X102199999Y-40582200D02*
X102438094Y-41296485D01*
X102438094Y-41296485D02*
X101819047Y-41296485D01*
X238359523Y-79682200D02*
X238216666Y-79729819D01*
X238216666Y-79729819D02*
X237978571Y-79729819D01*
X237978571Y-79729819D02*
X237883333Y-79682200D01*
X237883333Y-79682200D02*
X237835714Y-79634580D01*
X237835714Y-79634580D02*
X237788095Y-79539342D01*
X237788095Y-79539342D02*
X237788095Y-79444104D01*
X237788095Y-79444104D02*
X237835714Y-79348866D01*
X237835714Y-79348866D02*
X237883333Y-79301247D01*
X237883333Y-79301247D02*
X237978571Y-79253628D01*
X237978571Y-79253628D02*
X238169047Y-79206009D01*
X238169047Y-79206009D02*
X238264285Y-79158390D01*
X238264285Y-79158390D02*
X238311904Y-79110771D01*
X238311904Y-79110771D02*
X238359523Y-79015533D01*
X238359523Y-79015533D02*
X238359523Y-78920295D01*
X238359523Y-78920295D02*
X238311904Y-78825057D01*
X238311904Y-78825057D02*
X238264285Y-78777438D01*
X238264285Y-78777438D02*
X238169047Y-78729819D01*
X238169047Y-78729819D02*
X237930952Y-78729819D01*
X237930952Y-78729819D02*
X237788095Y-78777438D01*
X237454761Y-78729819D02*
X237216666Y-79729819D01*
X237216666Y-79729819D02*
X237026190Y-79015533D01*
X237026190Y-79015533D02*
X236835714Y-79729819D01*
X236835714Y-79729819D02*
X236597619Y-78729819D01*
X236264285Y-78825057D02*
X236216666Y-78777438D01*
X236216666Y-78777438D02*
X236121428Y-78729819D01*
X236121428Y-78729819D02*
X235883333Y-78729819D01*
X235883333Y-78729819D02*
X235788095Y-78777438D01*
X235788095Y-78777438D02*
X235740476Y-78825057D01*
X235740476Y-78825057D02*
X235692857Y-78920295D01*
X235692857Y-78920295D02*
X235692857Y-79015533D01*
X235692857Y-79015533D02*
X235740476Y-79158390D01*
X235740476Y-79158390D02*
X236311904Y-79729819D01*
X236311904Y-79729819D02*
X235692857Y-79729819D01*
X235359523Y-78729819D02*
X234692857Y-78729819D01*
X234692857Y-78729819D02*
X235121428Y-79729819D01*
X47859523Y-79682200D02*
X47716666Y-79729819D01*
X47716666Y-79729819D02*
X47478571Y-79729819D01*
X47478571Y-79729819D02*
X47383333Y-79682200D01*
X47383333Y-79682200D02*
X47335714Y-79634580D01*
X47335714Y-79634580D02*
X47288095Y-79539342D01*
X47288095Y-79539342D02*
X47288095Y-79444104D01*
X47288095Y-79444104D02*
X47335714Y-79348866D01*
X47335714Y-79348866D02*
X47383333Y-79301247D01*
X47383333Y-79301247D02*
X47478571Y-79253628D01*
X47478571Y-79253628D02*
X47669047Y-79206009D01*
X47669047Y-79206009D02*
X47764285Y-79158390D01*
X47764285Y-79158390D02*
X47811904Y-79110771D01*
X47811904Y-79110771D02*
X47859523Y-79015533D01*
X47859523Y-79015533D02*
X47859523Y-78920295D01*
X47859523Y-78920295D02*
X47811904Y-78825057D01*
X47811904Y-78825057D02*
X47764285Y-78777438D01*
X47764285Y-78777438D02*
X47669047Y-78729819D01*
X47669047Y-78729819D02*
X47430952Y-78729819D01*
X47430952Y-78729819D02*
X47288095Y-78777438D01*
X46954761Y-78729819D02*
X46716666Y-79729819D01*
X46716666Y-79729819D02*
X46526190Y-79015533D01*
X46526190Y-79015533D02*
X46335714Y-79729819D01*
X46335714Y-79729819D02*
X46097619Y-78729819D01*
X45764285Y-78825057D02*
X45716666Y-78777438D01*
X45716666Y-78777438D02*
X45621428Y-78729819D01*
X45621428Y-78729819D02*
X45383333Y-78729819D01*
X45383333Y-78729819D02*
X45288095Y-78777438D01*
X45288095Y-78777438D02*
X45240476Y-78825057D01*
X45240476Y-78825057D02*
X45192857Y-78920295D01*
X45192857Y-78920295D02*
X45192857Y-79015533D01*
X45192857Y-79015533D02*
X45240476Y-79158390D01*
X45240476Y-79158390D02*
X45811904Y-79729819D01*
X45811904Y-79729819D02*
X45192857Y-79729819D01*
X44240476Y-79729819D02*
X44811904Y-79729819D01*
X44526190Y-79729819D02*
X44526190Y-78729819D01*
X44526190Y-78729819D02*
X44621428Y-78872676D01*
X44621428Y-78872676D02*
X44716666Y-78967914D01*
X44716666Y-78967914D02*
X44811904Y-79015533D01*
X85483332Y-41582200D02*
X85340475Y-41629819D01*
X85340475Y-41629819D02*
X85102380Y-41629819D01*
X85102380Y-41629819D02*
X85007142Y-41582200D01*
X85007142Y-41582200D02*
X84959523Y-41534580D01*
X84959523Y-41534580D02*
X84911904Y-41439342D01*
X84911904Y-41439342D02*
X84911904Y-41344104D01*
X84911904Y-41344104D02*
X84959523Y-41248866D01*
X84959523Y-41248866D02*
X85007142Y-41201247D01*
X85007142Y-41201247D02*
X85102380Y-41153628D01*
X85102380Y-41153628D02*
X85292856Y-41106009D01*
X85292856Y-41106009D02*
X85388094Y-41058390D01*
X85388094Y-41058390D02*
X85435713Y-41010771D01*
X85435713Y-41010771D02*
X85483332Y-40915533D01*
X85483332Y-40915533D02*
X85483332Y-40820295D01*
X85483332Y-40820295D02*
X85435713Y-40725057D01*
X85435713Y-40725057D02*
X85388094Y-40677438D01*
X85388094Y-40677438D02*
X85292856Y-40629819D01*
X85292856Y-40629819D02*
X85054761Y-40629819D01*
X85054761Y-40629819D02*
X84911904Y-40677438D01*
X84578570Y-40629819D02*
X84340475Y-41629819D01*
X84340475Y-41629819D02*
X84149999Y-40915533D01*
X84149999Y-40915533D02*
X83959523Y-41629819D01*
X83959523Y-41629819D02*
X83721428Y-40629819D01*
X83435713Y-40629819D02*
X82816666Y-40629819D01*
X82816666Y-40629819D02*
X83149999Y-41010771D01*
X83149999Y-41010771D02*
X83007142Y-41010771D01*
X83007142Y-41010771D02*
X82911904Y-41058390D01*
X82911904Y-41058390D02*
X82864285Y-41106009D01*
X82864285Y-41106009D02*
X82816666Y-41201247D01*
X82816666Y-41201247D02*
X82816666Y-41439342D01*
X82816666Y-41439342D02*
X82864285Y-41534580D01*
X82864285Y-41534580D02*
X82911904Y-41582200D01*
X82911904Y-41582200D02*
X83007142Y-41629819D01*
X83007142Y-41629819D02*
X83292856Y-41629819D01*
X83292856Y-41629819D02*
X83388094Y-41582200D01*
X83388094Y-41582200D02*
X83435713Y-41534580D01*
X152025950Y-102865476D02*
X152073569Y-103008333D01*
X152073569Y-103008333D02*
X152073569Y-103246428D01*
X152073569Y-103246428D02*
X152025950Y-103341666D01*
X152025950Y-103341666D02*
X151978330Y-103389285D01*
X151978330Y-103389285D02*
X151883092Y-103436904D01*
X151883092Y-103436904D02*
X151787854Y-103436904D01*
X151787854Y-103436904D02*
X151692616Y-103389285D01*
X151692616Y-103389285D02*
X151644997Y-103341666D01*
X151644997Y-103341666D02*
X151597378Y-103246428D01*
X151597378Y-103246428D02*
X151549759Y-103055952D01*
X151549759Y-103055952D02*
X151502140Y-102960714D01*
X151502140Y-102960714D02*
X151454521Y-102913095D01*
X151454521Y-102913095D02*
X151359283Y-102865476D01*
X151359283Y-102865476D02*
X151264045Y-102865476D01*
X151264045Y-102865476D02*
X151168807Y-102913095D01*
X151168807Y-102913095D02*
X151121188Y-102960714D01*
X151121188Y-102960714D02*
X151073569Y-103055952D01*
X151073569Y-103055952D02*
X151073569Y-103294047D01*
X151073569Y-103294047D02*
X151121188Y-103436904D01*
X151073569Y-103770238D02*
X152073569Y-104008333D01*
X152073569Y-104008333D02*
X151359283Y-104198809D01*
X151359283Y-104198809D02*
X152073569Y-104389285D01*
X152073569Y-104389285D02*
X151073569Y-104627381D01*
X151406902Y-105436904D02*
X152073569Y-105436904D01*
X151025950Y-105198809D02*
X151740235Y-104960714D01*
X151740235Y-104960714D02*
X151740235Y-105579761D01*
X151073569Y-106436904D02*
X151073569Y-105960714D01*
X151073569Y-105960714D02*
X151549759Y-105913095D01*
X151549759Y-105913095D02*
X151502140Y-105960714D01*
X151502140Y-105960714D02*
X151454521Y-106055952D01*
X151454521Y-106055952D02*
X151454521Y-106294047D01*
X151454521Y-106294047D02*
X151502140Y-106389285D01*
X151502140Y-106389285D02*
X151549759Y-106436904D01*
X151549759Y-106436904D02*
X151644997Y-106484523D01*
X151644997Y-106484523D02*
X151883092Y-106484523D01*
X151883092Y-106484523D02*
X151978330Y-106436904D01*
X151978330Y-106436904D02*
X152025950Y-106389285D01*
X152025950Y-106389285D02*
X152073569Y-106294047D01*
X152073569Y-106294047D02*
X152073569Y-106055952D01*
X152073569Y-106055952D02*
X152025950Y-105960714D01*
X152025950Y-105960714D02*
X151978330Y-105913095D01*
X314559523Y-117782200D02*
X314416666Y-117829819D01*
X314416666Y-117829819D02*
X314178571Y-117829819D01*
X314178571Y-117829819D02*
X314083333Y-117782200D01*
X314083333Y-117782200D02*
X314035714Y-117734580D01*
X314035714Y-117734580D02*
X313988095Y-117639342D01*
X313988095Y-117639342D02*
X313988095Y-117544104D01*
X313988095Y-117544104D02*
X314035714Y-117448866D01*
X314035714Y-117448866D02*
X314083333Y-117401247D01*
X314083333Y-117401247D02*
X314178571Y-117353628D01*
X314178571Y-117353628D02*
X314369047Y-117306009D01*
X314369047Y-117306009D02*
X314464285Y-117258390D01*
X314464285Y-117258390D02*
X314511904Y-117210771D01*
X314511904Y-117210771D02*
X314559523Y-117115533D01*
X314559523Y-117115533D02*
X314559523Y-117020295D01*
X314559523Y-117020295D02*
X314511904Y-116925057D01*
X314511904Y-116925057D02*
X314464285Y-116877438D01*
X314464285Y-116877438D02*
X314369047Y-116829819D01*
X314369047Y-116829819D02*
X314130952Y-116829819D01*
X314130952Y-116829819D02*
X313988095Y-116877438D01*
X313654761Y-116829819D02*
X313416666Y-117829819D01*
X313416666Y-117829819D02*
X313226190Y-117115533D01*
X313226190Y-117115533D02*
X313035714Y-117829819D01*
X313035714Y-117829819D02*
X312797619Y-116829819D01*
X311988095Y-117163152D02*
X311988095Y-117829819D01*
X312226190Y-116782200D02*
X312464285Y-117496485D01*
X312464285Y-117496485D02*
X311845238Y-117496485D01*
X311559523Y-116829819D02*
X310940476Y-116829819D01*
X310940476Y-116829819D02*
X311273809Y-117210771D01*
X311273809Y-117210771D02*
X311130952Y-117210771D01*
X311130952Y-117210771D02*
X311035714Y-117258390D01*
X311035714Y-117258390D02*
X310988095Y-117306009D01*
X310988095Y-117306009D02*
X310940476Y-117401247D01*
X310940476Y-117401247D02*
X310940476Y-117639342D01*
X310940476Y-117639342D02*
X310988095Y-117734580D01*
X310988095Y-117734580D02*
X311035714Y-117782200D01*
X311035714Y-117782200D02*
X311130952Y-117829819D01*
X311130952Y-117829819D02*
X311416666Y-117829819D01*
X311416666Y-117829819D02*
X311511904Y-117782200D01*
X311511904Y-117782200D02*
X311559523Y-117734580D01*
X105009523Y-79682200D02*
X104866666Y-79729819D01*
X104866666Y-79729819D02*
X104628571Y-79729819D01*
X104628571Y-79729819D02*
X104533333Y-79682200D01*
X104533333Y-79682200D02*
X104485714Y-79634580D01*
X104485714Y-79634580D02*
X104438095Y-79539342D01*
X104438095Y-79539342D02*
X104438095Y-79444104D01*
X104438095Y-79444104D02*
X104485714Y-79348866D01*
X104485714Y-79348866D02*
X104533333Y-79301247D01*
X104533333Y-79301247D02*
X104628571Y-79253628D01*
X104628571Y-79253628D02*
X104819047Y-79206009D01*
X104819047Y-79206009D02*
X104914285Y-79158390D01*
X104914285Y-79158390D02*
X104961904Y-79110771D01*
X104961904Y-79110771D02*
X105009523Y-79015533D01*
X105009523Y-79015533D02*
X105009523Y-78920295D01*
X105009523Y-78920295D02*
X104961904Y-78825057D01*
X104961904Y-78825057D02*
X104914285Y-78777438D01*
X104914285Y-78777438D02*
X104819047Y-78729819D01*
X104819047Y-78729819D02*
X104580952Y-78729819D01*
X104580952Y-78729819D02*
X104438095Y-78777438D01*
X104104761Y-78729819D02*
X103866666Y-79729819D01*
X103866666Y-79729819D02*
X103676190Y-79015533D01*
X103676190Y-79015533D02*
X103485714Y-79729819D01*
X103485714Y-79729819D02*
X103247619Y-78729819D01*
X102914285Y-78825057D02*
X102866666Y-78777438D01*
X102866666Y-78777438D02*
X102771428Y-78729819D01*
X102771428Y-78729819D02*
X102533333Y-78729819D01*
X102533333Y-78729819D02*
X102438095Y-78777438D01*
X102438095Y-78777438D02*
X102390476Y-78825057D01*
X102390476Y-78825057D02*
X102342857Y-78920295D01*
X102342857Y-78920295D02*
X102342857Y-79015533D01*
X102342857Y-79015533D02*
X102390476Y-79158390D01*
X102390476Y-79158390D02*
X102961904Y-79729819D01*
X102961904Y-79729819D02*
X102342857Y-79729819D01*
X101485714Y-79063152D02*
X101485714Y-79729819D01*
X101723809Y-78682200D02*
X101961904Y-79396485D01*
X101961904Y-79396485D02*
X101342857Y-79396485D01*
X123583332Y-41582200D02*
X123440475Y-41629819D01*
X123440475Y-41629819D02*
X123202380Y-41629819D01*
X123202380Y-41629819D02*
X123107142Y-41582200D01*
X123107142Y-41582200D02*
X123059523Y-41534580D01*
X123059523Y-41534580D02*
X123011904Y-41439342D01*
X123011904Y-41439342D02*
X123011904Y-41344104D01*
X123011904Y-41344104D02*
X123059523Y-41248866D01*
X123059523Y-41248866D02*
X123107142Y-41201247D01*
X123107142Y-41201247D02*
X123202380Y-41153628D01*
X123202380Y-41153628D02*
X123392856Y-41106009D01*
X123392856Y-41106009D02*
X123488094Y-41058390D01*
X123488094Y-41058390D02*
X123535713Y-41010771D01*
X123535713Y-41010771D02*
X123583332Y-40915533D01*
X123583332Y-40915533D02*
X123583332Y-40820295D01*
X123583332Y-40820295D02*
X123535713Y-40725057D01*
X123535713Y-40725057D02*
X123488094Y-40677438D01*
X123488094Y-40677438D02*
X123392856Y-40629819D01*
X123392856Y-40629819D02*
X123154761Y-40629819D01*
X123154761Y-40629819D02*
X123011904Y-40677438D01*
X122678570Y-40629819D02*
X122440475Y-41629819D01*
X122440475Y-41629819D02*
X122249999Y-40915533D01*
X122249999Y-40915533D02*
X122059523Y-41629819D01*
X122059523Y-41629819D02*
X121821428Y-40629819D01*
X120964285Y-40629819D02*
X121440475Y-40629819D01*
X121440475Y-40629819D02*
X121488094Y-41106009D01*
X121488094Y-41106009D02*
X121440475Y-41058390D01*
X121440475Y-41058390D02*
X121345237Y-41010771D01*
X121345237Y-41010771D02*
X121107142Y-41010771D01*
X121107142Y-41010771D02*
X121011904Y-41058390D01*
X121011904Y-41058390D02*
X120964285Y-41106009D01*
X120964285Y-41106009D02*
X120916666Y-41201247D01*
X120916666Y-41201247D02*
X120916666Y-41439342D01*
X120916666Y-41439342D02*
X120964285Y-41534580D01*
X120964285Y-41534580D02*
X121011904Y-41582200D01*
X121011904Y-41582200D02*
X121107142Y-41629819D01*
X121107142Y-41629819D02*
X121345237Y-41629819D01*
X121345237Y-41629819D02*
X121440475Y-41582200D01*
X121440475Y-41582200D02*
X121488094Y-41534580D01*
X47013333Y-64804819D02*
X47013333Y-65519104D01*
X47013333Y-65519104D02*
X47060952Y-65661961D01*
X47060952Y-65661961D02*
X47156190Y-65757200D01*
X47156190Y-65757200D02*
X47299047Y-65804819D01*
X47299047Y-65804819D02*
X47394285Y-65804819D01*
X46108571Y-64804819D02*
X46299047Y-64804819D01*
X46299047Y-64804819D02*
X46394285Y-64852438D01*
X46394285Y-64852438D02*
X46441904Y-64900057D01*
X46441904Y-64900057D02*
X46537142Y-65042914D01*
X46537142Y-65042914D02*
X46584761Y-65233390D01*
X46584761Y-65233390D02*
X46584761Y-65614342D01*
X46584761Y-65614342D02*
X46537142Y-65709580D01*
X46537142Y-65709580D02*
X46489523Y-65757200D01*
X46489523Y-65757200D02*
X46394285Y-65804819D01*
X46394285Y-65804819D02*
X46203809Y-65804819D01*
X46203809Y-65804819D02*
X46108571Y-65757200D01*
X46108571Y-65757200D02*
X46060952Y-65709580D01*
X46060952Y-65709580D02*
X46013333Y-65614342D01*
X46013333Y-65614342D02*
X46013333Y-65376247D01*
X46013333Y-65376247D02*
X46060952Y-65281009D01*
X46060952Y-65281009D02*
X46108571Y-65233390D01*
X46108571Y-65233390D02*
X46203809Y-65185771D01*
X46203809Y-65185771D02*
X46394285Y-65185771D01*
X46394285Y-65185771D02*
X46489523Y-65233390D01*
X46489523Y-65233390D02*
X46537142Y-65281009D01*
X46537142Y-65281009D02*
X46584761Y-65376247D01*
D13*
%TO.C,J6*%
X39495000Y-70490000D02*
X36835000Y-70490000D01*
X39495000Y-62810000D02*
X39495000Y-70490000D01*
X39495000Y-62810000D02*
X36835000Y-62810000D01*
X38165000Y-60210000D02*
X36835000Y-60210000D01*
X36835000Y-62810000D02*
X36835000Y-70490000D01*
X36835000Y-60210000D02*
X36835000Y-61540000D01*
%TO.C,J0*%
X31830000Y-22690000D02*
X41230000Y-22690000D01*
X31830000Y-24590000D02*
X31830000Y-22690000D01*
X31830000Y-28490000D02*
X31830000Y-26490000D01*
X41230000Y-24590000D02*
X41230000Y-22690000D01*
X41230000Y-28490000D02*
X41230000Y-26490000D01*
%TO.C,J3*%
X20790000Y-64645000D02*
X20790000Y-67145000D01*
X20790000Y-67145000D02*
X21840000Y-67145000D01*
X21840000Y-67145000D02*
X21840000Y-68135000D01*
X21960000Y-62675000D02*
X25840000Y-62675000D01*
X27010000Y-64645000D02*
X27010000Y-67145000D01*
X27010000Y-67145000D02*
X25960000Y-67145000D01*
%TD*%
M02*
