%TF.GenerationSoftware,KiCad,Pcbnew,7.0.7*%
%TF.CreationDate,2023-09-28T00:00:25+02:00*%
%TF.ProjectId,32u4,33327534-2e6b-4696-9361-645f70636258,rev?*%
%TF.SameCoordinates,Original*%
%TF.FileFunction,Legend,Top*%
%TF.FilePolarity,Positive*%
%FSLAX46Y46*%
G04 Gerber Fmt 4.6, Leading zero omitted, Abs format (unit mm)*
G04 Created by KiCad (PCBNEW 7.0.7) date 2023-09-28 00:00:25*
%MOMM*%
%LPD*%
G01*
G04 APERTURE LIST*
%ADD10C,0.150000*%
%ADD11C,0.300000*%
%ADD12C,0.400000*%
%ADD13C,0.120000*%
G04 APERTURE END LIST*
D10*
X154749523Y-67384819D02*
X154273333Y-67384819D01*
X154273333Y-67384819D02*
X154225714Y-67861009D01*
X154225714Y-67861009D02*
X154273333Y-67813390D01*
X154273333Y-67813390D02*
X154368571Y-67765771D01*
X154368571Y-67765771D02*
X154606666Y-67765771D01*
X154606666Y-67765771D02*
X154701904Y-67813390D01*
X154701904Y-67813390D02*
X154749523Y-67861009D01*
X154749523Y-67861009D02*
X154797142Y-67956247D01*
X154797142Y-67956247D02*
X154797142Y-68194342D01*
X154797142Y-68194342D02*
X154749523Y-68289580D01*
X154749523Y-68289580D02*
X154701904Y-68337200D01*
X154701904Y-68337200D02*
X154606666Y-68384819D01*
X154606666Y-68384819D02*
X154368571Y-68384819D01*
X154368571Y-68384819D02*
X154273333Y-68337200D01*
X154273333Y-68337200D02*
X154225714Y-68289580D01*
X155082857Y-67384819D02*
X155416190Y-68384819D01*
X155416190Y-68384819D02*
X155749523Y-67384819D01*
X162000588Y-68202438D02*
X161905350Y-68154819D01*
X161905350Y-68154819D02*
X161762493Y-68154819D01*
X161762493Y-68154819D02*
X161619636Y-68202438D01*
X161619636Y-68202438D02*
X161524398Y-68297676D01*
X161524398Y-68297676D02*
X161476779Y-68392914D01*
X161476779Y-68392914D02*
X161429160Y-68583390D01*
X161429160Y-68583390D02*
X161429160Y-68726247D01*
X161429160Y-68726247D02*
X161476779Y-68916723D01*
X161476779Y-68916723D02*
X161524398Y-69011961D01*
X161524398Y-69011961D02*
X161619636Y-69107200D01*
X161619636Y-69107200D02*
X161762493Y-69154819D01*
X161762493Y-69154819D02*
X161857731Y-69154819D01*
X161857731Y-69154819D02*
X162000588Y-69107200D01*
X162000588Y-69107200D02*
X162048207Y-69059580D01*
X162048207Y-69059580D02*
X162048207Y-68726247D01*
X162048207Y-68726247D02*
X161857731Y-68726247D01*
X162476779Y-69154819D02*
X162476779Y-68154819D01*
X162476779Y-68154819D02*
X163048207Y-69154819D01*
X163048207Y-69154819D02*
X163048207Y-68154819D01*
X163524398Y-69154819D02*
X163524398Y-68154819D01*
X163524398Y-68154819D02*
X163762493Y-68154819D01*
X163762493Y-68154819D02*
X163905350Y-68202438D01*
X163905350Y-68202438D02*
X164000588Y-68297676D01*
X164000588Y-68297676D02*
X164048207Y-68392914D01*
X164048207Y-68392914D02*
X164095826Y-68583390D01*
X164095826Y-68583390D02*
X164095826Y-68726247D01*
X164095826Y-68726247D02*
X164048207Y-68916723D01*
X164048207Y-68916723D02*
X164000588Y-69011961D01*
X164000588Y-69011961D02*
X163905350Y-69107200D01*
X163905350Y-69107200D02*
X163762493Y-69154819D01*
X163762493Y-69154819D02*
X163524398Y-69154819D01*
D11*
X179446685Y-72204285D02*
X179389542Y-72318571D01*
X179389542Y-72318571D02*
X179389542Y-72489999D01*
X179389542Y-72489999D02*
X179446685Y-72661428D01*
X179446685Y-72661428D02*
X179560971Y-72775713D01*
X179560971Y-72775713D02*
X179675257Y-72832856D01*
X179675257Y-72832856D02*
X179903828Y-72889999D01*
X179903828Y-72889999D02*
X180075257Y-72889999D01*
X180075257Y-72889999D02*
X180303828Y-72832856D01*
X180303828Y-72832856D02*
X180418114Y-72775713D01*
X180418114Y-72775713D02*
X180532400Y-72661428D01*
X180532400Y-72661428D02*
X180589542Y-72489999D01*
X180589542Y-72489999D02*
X180589542Y-72375713D01*
X180589542Y-72375713D02*
X180532400Y-72204285D01*
X180532400Y-72204285D02*
X180475257Y-72147142D01*
X180475257Y-72147142D02*
X180075257Y-72147142D01*
X180075257Y-72147142D02*
X180075257Y-72375713D01*
X180589542Y-71632856D02*
X179389542Y-71632856D01*
X179389542Y-71632856D02*
X180589542Y-70947142D01*
X180589542Y-70947142D02*
X179389542Y-70947142D01*
X180589542Y-70375713D02*
X179389542Y-70375713D01*
X179389542Y-70375713D02*
X179389542Y-70089999D01*
X179389542Y-70089999D02*
X179446685Y-69918570D01*
X179446685Y-69918570D02*
X179560971Y-69804285D01*
X179560971Y-69804285D02*
X179675257Y-69747142D01*
X179675257Y-69747142D02*
X179903828Y-69689999D01*
X179903828Y-69689999D02*
X180075257Y-69689999D01*
X180075257Y-69689999D02*
X180303828Y-69747142D01*
X180303828Y-69747142D02*
X180418114Y-69804285D01*
X180418114Y-69804285D02*
X180532400Y-69918570D01*
X180532400Y-69918570D02*
X180589542Y-70089999D01*
X180589542Y-70089999D02*
X180589542Y-70375713D01*
X161866685Y-72464285D02*
X161809542Y-72578571D01*
X161809542Y-72578571D02*
X161809542Y-72749999D01*
X161809542Y-72749999D02*
X161866685Y-72921428D01*
X161866685Y-72921428D02*
X161980971Y-73035713D01*
X161980971Y-73035713D02*
X162095257Y-73092856D01*
X162095257Y-73092856D02*
X162323828Y-73149999D01*
X162323828Y-73149999D02*
X162495257Y-73149999D01*
X162495257Y-73149999D02*
X162723828Y-73092856D01*
X162723828Y-73092856D02*
X162838114Y-73035713D01*
X162838114Y-73035713D02*
X162952400Y-72921428D01*
X162952400Y-72921428D02*
X163009542Y-72749999D01*
X163009542Y-72749999D02*
X163009542Y-72635713D01*
X163009542Y-72635713D02*
X162952400Y-72464285D01*
X162952400Y-72464285D02*
X162895257Y-72407142D01*
X162895257Y-72407142D02*
X162495257Y-72407142D01*
X162495257Y-72407142D02*
X162495257Y-72635713D01*
X163009542Y-71892856D02*
X161809542Y-71892856D01*
X161809542Y-71892856D02*
X163009542Y-71207142D01*
X163009542Y-71207142D02*
X161809542Y-71207142D01*
X163009542Y-70635713D02*
X161809542Y-70635713D01*
X161809542Y-70635713D02*
X161809542Y-70349999D01*
X161809542Y-70349999D02*
X161866685Y-70178570D01*
X161866685Y-70178570D02*
X161980971Y-70064285D01*
X161980971Y-70064285D02*
X162095257Y-70007142D01*
X162095257Y-70007142D02*
X162323828Y-69949999D01*
X162323828Y-69949999D02*
X162495257Y-69949999D01*
X162495257Y-69949999D02*
X162723828Y-70007142D01*
X162723828Y-70007142D02*
X162838114Y-70064285D01*
X162838114Y-70064285D02*
X162952400Y-70178570D01*
X162952400Y-70178570D02*
X163009542Y-70349999D01*
X163009542Y-70349999D02*
X163009542Y-70635713D01*
X172952400Y-73157142D02*
X173009542Y-72985714D01*
X173009542Y-72985714D02*
X173009542Y-72699999D01*
X173009542Y-72699999D02*
X172952400Y-72585714D01*
X172952400Y-72585714D02*
X172895257Y-72528571D01*
X172895257Y-72528571D02*
X172780971Y-72471428D01*
X172780971Y-72471428D02*
X172666685Y-72471428D01*
X172666685Y-72471428D02*
X172552400Y-72528571D01*
X172552400Y-72528571D02*
X172495257Y-72585714D01*
X172495257Y-72585714D02*
X172438114Y-72699999D01*
X172438114Y-72699999D02*
X172380971Y-72928571D01*
X172380971Y-72928571D02*
X172323828Y-73042856D01*
X172323828Y-73042856D02*
X172266685Y-73099999D01*
X172266685Y-73099999D02*
X172152400Y-73157142D01*
X172152400Y-73157142D02*
X172038114Y-73157142D01*
X172038114Y-73157142D02*
X171923828Y-73099999D01*
X171923828Y-73099999D02*
X171866685Y-73042856D01*
X171866685Y-73042856D02*
X171809542Y-72928571D01*
X171809542Y-72928571D02*
X171809542Y-72642856D01*
X171809542Y-72642856D02*
X171866685Y-72471428D01*
X173009542Y-71957142D02*
X171809542Y-71957142D01*
X171809542Y-71957142D02*
X171809542Y-71671428D01*
X171809542Y-71671428D02*
X171866685Y-71499999D01*
X171866685Y-71499999D02*
X171980971Y-71385714D01*
X171980971Y-71385714D02*
X172095257Y-71328571D01*
X172095257Y-71328571D02*
X172323828Y-71271428D01*
X172323828Y-71271428D02*
X172495257Y-71271428D01*
X172495257Y-71271428D02*
X172723828Y-71328571D01*
X172723828Y-71328571D02*
X172838114Y-71385714D01*
X172838114Y-71385714D02*
X172952400Y-71499999D01*
X172952400Y-71499999D02*
X173009542Y-71671428D01*
X173009542Y-71671428D02*
X173009542Y-71957142D01*
X172666685Y-70814285D02*
X172666685Y-70242857D01*
X173009542Y-70928571D02*
X171809542Y-70528571D01*
X171809542Y-70528571D02*
X173009542Y-70128571D01*
X159319542Y-73074285D02*
X159319542Y-72331428D01*
X159319542Y-72331428D02*
X159776685Y-72731428D01*
X159776685Y-72731428D02*
X159776685Y-72559999D01*
X159776685Y-72559999D02*
X159833828Y-72445714D01*
X159833828Y-72445714D02*
X159890971Y-72388571D01*
X159890971Y-72388571D02*
X160005257Y-72331428D01*
X160005257Y-72331428D02*
X160290971Y-72331428D01*
X160290971Y-72331428D02*
X160405257Y-72388571D01*
X160405257Y-72388571D02*
X160462400Y-72445714D01*
X160462400Y-72445714D02*
X160519542Y-72559999D01*
X160519542Y-72559999D02*
X160519542Y-72902856D01*
X160519542Y-72902856D02*
X160462400Y-73017142D01*
X160462400Y-73017142D02*
X160405257Y-73074285D01*
X160405257Y-71817142D02*
X160462400Y-71759999D01*
X160462400Y-71759999D02*
X160519542Y-71817142D01*
X160519542Y-71817142D02*
X160462400Y-71874285D01*
X160462400Y-71874285D02*
X160405257Y-71817142D01*
X160405257Y-71817142D02*
X160519542Y-71817142D01*
X159319542Y-71359999D02*
X159319542Y-70617142D01*
X159319542Y-70617142D02*
X159776685Y-71017142D01*
X159776685Y-71017142D02*
X159776685Y-70845713D01*
X159776685Y-70845713D02*
X159833828Y-70731428D01*
X159833828Y-70731428D02*
X159890971Y-70674285D01*
X159890971Y-70674285D02*
X160005257Y-70617142D01*
X160005257Y-70617142D02*
X160290971Y-70617142D01*
X160290971Y-70617142D02*
X160405257Y-70674285D01*
X160405257Y-70674285D02*
X160462400Y-70731428D01*
X160462400Y-70731428D02*
X160519542Y-70845713D01*
X160519542Y-70845713D02*
X160519542Y-71188570D01*
X160519542Y-71188570D02*
X160462400Y-71302856D01*
X160462400Y-71302856D02*
X160405257Y-71359999D01*
X159719542Y-70217142D02*
X160519542Y-69931428D01*
X160519542Y-69931428D02*
X159719542Y-69645713D01*
X175442400Y-72998571D02*
X175499542Y-72827143D01*
X175499542Y-72827143D02*
X175499542Y-72541428D01*
X175499542Y-72541428D02*
X175442400Y-72427143D01*
X175442400Y-72427143D02*
X175385257Y-72370000D01*
X175385257Y-72370000D02*
X175270971Y-72312857D01*
X175270971Y-72312857D02*
X175156685Y-72312857D01*
X175156685Y-72312857D02*
X175042400Y-72370000D01*
X175042400Y-72370000D02*
X174985257Y-72427143D01*
X174985257Y-72427143D02*
X174928114Y-72541428D01*
X174928114Y-72541428D02*
X174870971Y-72770000D01*
X174870971Y-72770000D02*
X174813828Y-72884285D01*
X174813828Y-72884285D02*
X174756685Y-72941428D01*
X174756685Y-72941428D02*
X174642400Y-72998571D01*
X174642400Y-72998571D02*
X174528114Y-72998571D01*
X174528114Y-72998571D02*
X174413828Y-72941428D01*
X174413828Y-72941428D02*
X174356685Y-72884285D01*
X174356685Y-72884285D02*
X174299542Y-72770000D01*
X174299542Y-72770000D02*
X174299542Y-72484285D01*
X174299542Y-72484285D02*
X174356685Y-72312857D01*
X175385257Y-71112857D02*
X175442400Y-71170000D01*
X175442400Y-71170000D02*
X175499542Y-71341428D01*
X175499542Y-71341428D02*
X175499542Y-71455714D01*
X175499542Y-71455714D02*
X175442400Y-71627143D01*
X175442400Y-71627143D02*
X175328114Y-71741428D01*
X175328114Y-71741428D02*
X175213828Y-71798571D01*
X175213828Y-71798571D02*
X174985257Y-71855714D01*
X174985257Y-71855714D02*
X174813828Y-71855714D01*
X174813828Y-71855714D02*
X174585257Y-71798571D01*
X174585257Y-71798571D02*
X174470971Y-71741428D01*
X174470971Y-71741428D02*
X174356685Y-71627143D01*
X174356685Y-71627143D02*
X174299542Y-71455714D01*
X174299542Y-71455714D02*
X174299542Y-71341428D01*
X174299542Y-71341428D02*
X174356685Y-71170000D01*
X174356685Y-71170000D02*
X174413828Y-71112857D01*
X175499542Y-70027143D02*
X175499542Y-70598571D01*
X175499542Y-70598571D02*
X174299542Y-70598571D01*
D12*
X151643157Y-87794438D02*
X151643157Y-85794438D01*
X151643157Y-86556342D02*
X151833633Y-86461104D01*
X151833633Y-86461104D02*
X152214586Y-86461104D01*
X152214586Y-86461104D02*
X152405062Y-86556342D01*
X152405062Y-86556342D02*
X152500300Y-86651580D01*
X152500300Y-86651580D02*
X152595538Y-86842057D01*
X152595538Y-86842057D02*
X152595538Y-87413485D01*
X152595538Y-87413485D02*
X152500300Y-87603961D01*
X152500300Y-87603961D02*
X152405062Y-87699200D01*
X152405062Y-87699200D02*
X152214586Y-87794438D01*
X152214586Y-87794438D02*
X151833633Y-87794438D01*
X151833633Y-87794438D02*
X151643157Y-87699200D01*
X153262205Y-86461104D02*
X153738395Y-87794438D01*
X154214586Y-86461104D02*
X153738395Y-87794438D01*
X153738395Y-87794438D02*
X153547919Y-88270628D01*
X153547919Y-88270628D02*
X153452681Y-88365866D01*
X153452681Y-88365866D02*
X153262205Y-88461104D01*
X156405063Y-87699200D02*
X156690777Y-87794438D01*
X156690777Y-87794438D02*
X157166968Y-87794438D01*
X157166968Y-87794438D02*
X157357444Y-87699200D01*
X157357444Y-87699200D02*
X157452682Y-87603961D01*
X157452682Y-87603961D02*
X157547920Y-87413485D01*
X157547920Y-87413485D02*
X157547920Y-87223009D01*
X157547920Y-87223009D02*
X157452682Y-87032533D01*
X157452682Y-87032533D02*
X157357444Y-86937295D01*
X157357444Y-86937295D02*
X157166968Y-86842057D01*
X157166968Y-86842057D02*
X156786015Y-86746819D01*
X156786015Y-86746819D02*
X156595539Y-86651580D01*
X156595539Y-86651580D02*
X156500301Y-86556342D01*
X156500301Y-86556342D02*
X156405063Y-86365866D01*
X156405063Y-86365866D02*
X156405063Y-86175390D01*
X156405063Y-86175390D02*
X156500301Y-85984914D01*
X156500301Y-85984914D02*
X156595539Y-85889676D01*
X156595539Y-85889676D02*
X156786015Y-85794438D01*
X156786015Y-85794438D02*
X157262206Y-85794438D01*
X157262206Y-85794438D02*
X157547920Y-85889676D01*
X159262206Y-87699200D02*
X159071730Y-87794438D01*
X159071730Y-87794438D02*
X158690777Y-87794438D01*
X158690777Y-87794438D02*
X158500301Y-87699200D01*
X158500301Y-87699200D02*
X158405063Y-87603961D01*
X158405063Y-87603961D02*
X158309825Y-87413485D01*
X158309825Y-87413485D02*
X158309825Y-86842057D01*
X158309825Y-86842057D02*
X158405063Y-86651580D01*
X158405063Y-86651580D02*
X158500301Y-86556342D01*
X158500301Y-86556342D02*
X158690777Y-86461104D01*
X158690777Y-86461104D02*
X159071730Y-86461104D01*
X159071730Y-86461104D02*
X159262206Y-86556342D01*
X160976492Y-87794438D02*
X160976492Y-86746819D01*
X160976492Y-86746819D02*
X160881254Y-86556342D01*
X160881254Y-86556342D02*
X160690778Y-86461104D01*
X160690778Y-86461104D02*
X160309825Y-86461104D01*
X160309825Y-86461104D02*
X160119349Y-86556342D01*
X160976492Y-87699200D02*
X160786016Y-87794438D01*
X160786016Y-87794438D02*
X160309825Y-87794438D01*
X160309825Y-87794438D02*
X160119349Y-87699200D01*
X160119349Y-87699200D02*
X160024111Y-87508723D01*
X160024111Y-87508723D02*
X160024111Y-87318247D01*
X160024111Y-87318247D02*
X160119349Y-87127771D01*
X160119349Y-87127771D02*
X160309825Y-87032533D01*
X160309825Y-87032533D02*
X160786016Y-87032533D01*
X160786016Y-87032533D02*
X160976492Y-86937295D01*
X161643159Y-86461104D02*
X162405063Y-86461104D01*
X161928873Y-85794438D02*
X161928873Y-87508723D01*
X161928873Y-87508723D02*
X162024111Y-87699200D01*
X162024111Y-87699200D02*
X162214587Y-87794438D01*
X162214587Y-87794438D02*
X162405063Y-87794438D01*
X162786016Y-86461104D02*
X163547920Y-86461104D01*
X163071730Y-85794438D02*
X163071730Y-87508723D01*
X163071730Y-87508723D02*
X163166968Y-87699200D01*
X163166968Y-87699200D02*
X163357444Y-87794438D01*
X163357444Y-87794438D02*
X163547920Y-87794438D01*
X164976492Y-87699200D02*
X164786016Y-87794438D01*
X164786016Y-87794438D02*
X164405063Y-87794438D01*
X164405063Y-87794438D02*
X164214587Y-87699200D01*
X164214587Y-87699200D02*
X164119349Y-87508723D01*
X164119349Y-87508723D02*
X164119349Y-86746819D01*
X164119349Y-86746819D02*
X164214587Y-86556342D01*
X164214587Y-86556342D02*
X164405063Y-86461104D01*
X164405063Y-86461104D02*
X164786016Y-86461104D01*
X164786016Y-86461104D02*
X164976492Y-86556342D01*
X164976492Y-86556342D02*
X165071730Y-86746819D01*
X165071730Y-86746819D02*
X165071730Y-86937295D01*
X165071730Y-86937295D02*
X164119349Y-87127771D01*
X165928873Y-87794438D02*
X165928873Y-86461104D01*
X165928873Y-86842057D02*
X166024111Y-86651580D01*
X166024111Y-86651580D02*
X166119349Y-86556342D01*
X166119349Y-86556342D02*
X166309825Y-86461104D01*
X166309825Y-86461104D02*
X166500302Y-86461104D01*
X167928873Y-87699200D02*
X167738397Y-87794438D01*
X167738397Y-87794438D02*
X167357444Y-87794438D01*
X167357444Y-87794438D02*
X167166968Y-87699200D01*
X167166968Y-87699200D02*
X167071730Y-87508723D01*
X167071730Y-87508723D02*
X167071730Y-86746819D01*
X167071730Y-86746819D02*
X167166968Y-86556342D01*
X167166968Y-86556342D02*
X167357444Y-86461104D01*
X167357444Y-86461104D02*
X167738397Y-86461104D01*
X167738397Y-86461104D02*
X167928873Y-86556342D01*
X167928873Y-86556342D02*
X168024111Y-86746819D01*
X168024111Y-86746819D02*
X168024111Y-86937295D01*
X168024111Y-86937295D02*
X167071730Y-87127771D01*
X169738397Y-87794438D02*
X169738397Y-85794438D01*
X169738397Y-87699200D02*
X169547921Y-87794438D01*
X169547921Y-87794438D02*
X169166968Y-87794438D01*
X169166968Y-87794438D02*
X168976492Y-87699200D01*
X168976492Y-87699200D02*
X168881254Y-87603961D01*
X168881254Y-87603961D02*
X168786016Y-87413485D01*
X168786016Y-87413485D02*
X168786016Y-86842057D01*
X168786016Y-86842057D02*
X168881254Y-86651580D01*
X168881254Y-86651580D02*
X168976492Y-86556342D01*
X168976492Y-86556342D02*
X169166968Y-86461104D01*
X169166968Y-86461104D02*
X169547921Y-86461104D01*
X169547921Y-86461104D02*
X169738397Y-86556342D01*
X170690778Y-87794438D02*
X170690778Y-85794438D01*
X170690778Y-85794438D02*
X171166968Y-85794438D01*
X171166968Y-85794438D02*
X171452683Y-85889676D01*
X171452683Y-85889676D02*
X171643159Y-86080152D01*
X171643159Y-86080152D02*
X171738397Y-86270628D01*
X171738397Y-86270628D02*
X171833635Y-86651580D01*
X171833635Y-86651580D02*
X171833635Y-86937295D01*
X171833635Y-86937295D02*
X171738397Y-87318247D01*
X171738397Y-87318247D02*
X171643159Y-87508723D01*
X171643159Y-87508723D02*
X171452683Y-87699200D01*
X171452683Y-87699200D02*
X171166968Y-87794438D01*
X171166968Y-87794438D02*
X170690778Y-87794438D01*
X172690778Y-87794438D02*
X172690778Y-86461104D01*
X172690778Y-86842057D02*
X172786016Y-86651580D01*
X172786016Y-86651580D02*
X172881254Y-86556342D01*
X172881254Y-86556342D02*
X173071730Y-86461104D01*
X173071730Y-86461104D02*
X173262207Y-86461104D01*
X173928873Y-87794438D02*
X173928873Y-86461104D01*
X173928873Y-85794438D02*
X173833635Y-85889676D01*
X173833635Y-85889676D02*
X173928873Y-85984914D01*
X173928873Y-85984914D02*
X174024111Y-85889676D01*
X174024111Y-85889676D02*
X173928873Y-85794438D01*
X173928873Y-85794438D02*
X173928873Y-85984914D01*
X174595540Y-86461104D02*
X175357444Y-86461104D01*
X174881254Y-87794438D02*
X174881254Y-86080152D01*
X174881254Y-86080152D02*
X174976492Y-85889676D01*
X174976492Y-85889676D02*
X175166968Y-85794438D01*
X175166968Y-85794438D02*
X175357444Y-85794438D01*
X175738397Y-86461104D02*
X176500301Y-86461104D01*
X176024111Y-85794438D02*
X176024111Y-87508723D01*
X176024111Y-87508723D02*
X176119349Y-87699200D01*
X176119349Y-87699200D02*
X176309825Y-87794438D01*
X176309825Y-87794438D02*
X176500301Y-87794438D01*
X177928873Y-87699200D02*
X177738397Y-87794438D01*
X177738397Y-87794438D02*
X177357444Y-87794438D01*
X177357444Y-87794438D02*
X177166968Y-87699200D01*
X177166968Y-87699200D02*
X177071730Y-87508723D01*
X177071730Y-87508723D02*
X177071730Y-86746819D01*
X177071730Y-86746819D02*
X177166968Y-86556342D01*
X177166968Y-86556342D02*
X177357444Y-86461104D01*
X177357444Y-86461104D02*
X177738397Y-86461104D01*
X177738397Y-86461104D02*
X177928873Y-86556342D01*
X177928873Y-86556342D02*
X178024111Y-86746819D01*
X178024111Y-86746819D02*
X178024111Y-86937295D01*
X178024111Y-86937295D02*
X177071730Y-87127771D01*
X178881254Y-87794438D02*
X178881254Y-86461104D01*
X178881254Y-86842057D02*
X178976492Y-86651580D01*
X178976492Y-86651580D02*
X179071730Y-86556342D01*
X179071730Y-86556342D02*
X179262206Y-86461104D01*
X179262206Y-86461104D02*
X179452683Y-86461104D01*
X180214587Y-87699200D02*
X180214587Y-87794438D01*
X180214587Y-87794438D02*
X180119349Y-87984914D01*
X180119349Y-87984914D02*
X180024111Y-88080152D01*
X183262207Y-86746819D02*
X183547921Y-86842057D01*
X183547921Y-86842057D02*
X183643159Y-86937295D01*
X183643159Y-86937295D02*
X183738397Y-87127771D01*
X183738397Y-87127771D02*
X183738397Y-87413485D01*
X183738397Y-87413485D02*
X183643159Y-87603961D01*
X183643159Y-87603961D02*
X183547921Y-87699200D01*
X183547921Y-87699200D02*
X183357445Y-87794438D01*
X183357445Y-87794438D02*
X182595540Y-87794438D01*
X182595540Y-87794438D02*
X182595540Y-85794438D01*
X182595540Y-85794438D02*
X183262207Y-85794438D01*
X183262207Y-85794438D02*
X183452683Y-85889676D01*
X183452683Y-85889676D02*
X183547921Y-85984914D01*
X183547921Y-85984914D02*
X183643159Y-86175390D01*
X183643159Y-86175390D02*
X183643159Y-86365866D01*
X183643159Y-86365866D02*
X183547921Y-86556342D01*
X183547921Y-86556342D02*
X183452683Y-86651580D01*
X183452683Y-86651580D02*
X183262207Y-86746819D01*
X183262207Y-86746819D02*
X182595540Y-86746819D01*
X184881254Y-87794438D02*
X184690778Y-87699200D01*
X184690778Y-87699200D02*
X184595540Y-87603961D01*
X184595540Y-87603961D02*
X184500302Y-87413485D01*
X184500302Y-87413485D02*
X184500302Y-86842057D01*
X184500302Y-86842057D02*
X184595540Y-86651580D01*
X184595540Y-86651580D02*
X184690778Y-86556342D01*
X184690778Y-86556342D02*
X184881254Y-86461104D01*
X184881254Y-86461104D02*
X185166969Y-86461104D01*
X185166969Y-86461104D02*
X185357445Y-86556342D01*
X185357445Y-86556342D02*
X185452683Y-86651580D01*
X185452683Y-86651580D02*
X185547921Y-86842057D01*
X185547921Y-86842057D02*
X185547921Y-87413485D01*
X185547921Y-87413485D02*
X185452683Y-87603961D01*
X185452683Y-87603961D02*
X185357445Y-87699200D01*
X185357445Y-87699200D02*
X185166969Y-87794438D01*
X185166969Y-87794438D02*
X184881254Y-87794438D01*
X186405064Y-86461104D02*
X186405064Y-87794438D01*
X186405064Y-86651580D02*
X186500302Y-86556342D01*
X186500302Y-86556342D02*
X186690778Y-86461104D01*
X186690778Y-86461104D02*
X186976493Y-86461104D01*
X186976493Y-86461104D02*
X187166969Y-86556342D01*
X187166969Y-86556342D02*
X187262207Y-86746819D01*
X187262207Y-86746819D02*
X187262207Y-87794438D01*
X188214588Y-87794438D02*
X188214588Y-85794438D01*
X188405064Y-87032533D02*
X188976493Y-87794438D01*
X188976493Y-86461104D02*
X188214588Y-87223009D01*
D11*
X167832400Y-73048571D02*
X167889542Y-72877143D01*
X167889542Y-72877143D02*
X167889542Y-72591428D01*
X167889542Y-72591428D02*
X167832400Y-72477143D01*
X167832400Y-72477143D02*
X167775257Y-72420000D01*
X167775257Y-72420000D02*
X167660971Y-72362857D01*
X167660971Y-72362857D02*
X167546685Y-72362857D01*
X167546685Y-72362857D02*
X167432400Y-72420000D01*
X167432400Y-72420000D02*
X167375257Y-72477143D01*
X167375257Y-72477143D02*
X167318114Y-72591428D01*
X167318114Y-72591428D02*
X167260971Y-72820000D01*
X167260971Y-72820000D02*
X167203828Y-72934285D01*
X167203828Y-72934285D02*
X167146685Y-72991428D01*
X167146685Y-72991428D02*
X167032400Y-73048571D01*
X167032400Y-73048571D02*
X166918114Y-73048571D01*
X166918114Y-73048571D02*
X166803828Y-72991428D01*
X166803828Y-72991428D02*
X166746685Y-72934285D01*
X166746685Y-72934285D02*
X166689542Y-72820000D01*
X166689542Y-72820000D02*
X166689542Y-72534285D01*
X166689542Y-72534285D02*
X166746685Y-72362857D01*
X167775257Y-71162857D02*
X167832400Y-71220000D01*
X167832400Y-71220000D02*
X167889542Y-71391428D01*
X167889542Y-71391428D02*
X167889542Y-71505714D01*
X167889542Y-71505714D02*
X167832400Y-71677143D01*
X167832400Y-71677143D02*
X167718114Y-71791428D01*
X167718114Y-71791428D02*
X167603828Y-71848571D01*
X167603828Y-71848571D02*
X167375257Y-71905714D01*
X167375257Y-71905714D02*
X167203828Y-71905714D01*
X167203828Y-71905714D02*
X166975257Y-71848571D01*
X166975257Y-71848571D02*
X166860971Y-71791428D01*
X166860971Y-71791428D02*
X166746685Y-71677143D01*
X166746685Y-71677143D02*
X166689542Y-71505714D01*
X166689542Y-71505714D02*
X166689542Y-71391428D01*
X166689542Y-71391428D02*
X166746685Y-71220000D01*
X166746685Y-71220000D02*
X166803828Y-71162857D01*
X167889542Y-70077143D02*
X167889542Y-70648571D01*
X167889542Y-70648571D02*
X166689542Y-70648571D01*
X158019542Y-72285714D02*
X157448114Y-72685714D01*
X158019542Y-72971428D02*
X156819542Y-72971428D01*
X156819542Y-72971428D02*
X156819542Y-72514285D01*
X156819542Y-72514285D02*
X156876685Y-72400000D01*
X156876685Y-72400000D02*
X156933828Y-72342857D01*
X156933828Y-72342857D02*
X157048114Y-72285714D01*
X157048114Y-72285714D02*
X157219542Y-72285714D01*
X157219542Y-72285714D02*
X157333828Y-72342857D01*
X157333828Y-72342857D02*
X157390971Y-72400000D01*
X157390971Y-72400000D02*
X157448114Y-72514285D01*
X157448114Y-72514285D02*
X157448114Y-72971428D01*
X156819542Y-71771428D02*
X157790971Y-71771428D01*
X157790971Y-71771428D02*
X157905257Y-71714285D01*
X157905257Y-71714285D02*
X157962400Y-71657143D01*
X157962400Y-71657143D02*
X158019542Y-71542857D01*
X158019542Y-71542857D02*
X158019542Y-71314285D01*
X158019542Y-71314285D02*
X157962400Y-71200000D01*
X157962400Y-71200000D02*
X157905257Y-71142857D01*
X157905257Y-71142857D02*
X157790971Y-71085714D01*
X157790971Y-71085714D02*
X156819542Y-71085714D01*
X158019542Y-70514285D02*
X156819542Y-70514285D01*
X156819542Y-70514285D02*
X158019542Y-69828571D01*
X158019542Y-69828571D02*
X156819542Y-69828571D01*
X165462400Y-73038571D02*
X165519542Y-72867143D01*
X165519542Y-72867143D02*
X165519542Y-72581428D01*
X165519542Y-72581428D02*
X165462400Y-72467143D01*
X165462400Y-72467143D02*
X165405257Y-72410000D01*
X165405257Y-72410000D02*
X165290971Y-72352857D01*
X165290971Y-72352857D02*
X165176685Y-72352857D01*
X165176685Y-72352857D02*
X165062400Y-72410000D01*
X165062400Y-72410000D02*
X165005257Y-72467143D01*
X165005257Y-72467143D02*
X164948114Y-72581428D01*
X164948114Y-72581428D02*
X164890971Y-72810000D01*
X164890971Y-72810000D02*
X164833828Y-72924285D01*
X164833828Y-72924285D02*
X164776685Y-72981428D01*
X164776685Y-72981428D02*
X164662400Y-73038571D01*
X164662400Y-73038571D02*
X164548114Y-73038571D01*
X164548114Y-73038571D02*
X164433828Y-72981428D01*
X164433828Y-72981428D02*
X164376685Y-72924285D01*
X164376685Y-72924285D02*
X164319542Y-72810000D01*
X164319542Y-72810000D02*
X164319542Y-72524285D01*
X164319542Y-72524285D02*
X164376685Y-72352857D01*
X164319542Y-71952857D02*
X165519542Y-71667143D01*
X165519542Y-71667143D02*
X164662400Y-71438571D01*
X164662400Y-71438571D02*
X165519542Y-71210000D01*
X165519542Y-71210000D02*
X164319542Y-70924286D01*
X165519542Y-70467142D02*
X164319542Y-70467142D01*
X164319542Y-70467142D02*
X164319542Y-70181428D01*
X164319542Y-70181428D02*
X164376685Y-70009999D01*
X164376685Y-70009999D02*
X164490971Y-69895714D01*
X164490971Y-69895714D02*
X164605257Y-69838571D01*
X164605257Y-69838571D02*
X164833828Y-69781428D01*
X164833828Y-69781428D02*
X165005257Y-69781428D01*
X165005257Y-69781428D02*
X165233828Y-69838571D01*
X165233828Y-69838571D02*
X165348114Y-69895714D01*
X165348114Y-69895714D02*
X165462400Y-70009999D01*
X165462400Y-70009999D02*
X165519542Y-70181428D01*
X165519542Y-70181428D02*
X165519542Y-70467142D01*
D10*
X163153754Y-66649456D02*
X162581335Y-66548441D01*
X162749693Y-67053517D02*
X162042587Y-66346410D01*
X162042587Y-66346410D02*
X162311961Y-66077036D01*
X162311961Y-66077036D02*
X162412976Y-66043364D01*
X162412976Y-66043364D02*
X162480319Y-66043364D01*
X162480319Y-66043364D02*
X162581335Y-66077036D01*
X162581335Y-66077036D02*
X162682350Y-66178051D01*
X162682350Y-66178051D02*
X162716022Y-66279067D01*
X162716022Y-66279067D02*
X162716022Y-66346410D01*
X162716022Y-66346410D02*
X162682350Y-66447425D01*
X162682350Y-66447425D02*
X162412976Y-66716799D01*
X163153754Y-65841334D02*
X163052739Y-65875006D01*
X163052739Y-65875006D02*
X162985396Y-65875006D01*
X162985396Y-65875006D02*
X162884380Y-65841334D01*
X162884380Y-65841334D02*
X162850709Y-65807662D01*
X162850709Y-65807662D02*
X162817037Y-65706647D01*
X162817037Y-65706647D02*
X162817037Y-65639303D01*
X162817037Y-65639303D02*
X162850709Y-65538288D01*
X162850709Y-65538288D02*
X162985396Y-65403601D01*
X162985396Y-65403601D02*
X163086411Y-65369929D01*
X163086411Y-65369929D02*
X163153754Y-65369929D01*
X163153754Y-65369929D02*
X163254770Y-65403601D01*
X163254770Y-65403601D02*
X163288441Y-65437273D01*
X163288441Y-65437273D02*
X163322113Y-65538288D01*
X163322113Y-65538288D02*
X163322113Y-65605632D01*
X163322113Y-65605632D02*
X163288441Y-65706647D01*
X163288441Y-65706647D02*
X163153754Y-65841334D01*
X163153754Y-65841334D02*
X163120083Y-65942349D01*
X163120083Y-65942349D02*
X163120083Y-66009693D01*
X163120083Y-66009693D02*
X163153754Y-66110708D01*
X163153754Y-66110708D02*
X163288441Y-66245395D01*
X163288441Y-66245395D02*
X163389457Y-66279067D01*
X163389457Y-66279067D02*
X163456800Y-66279067D01*
X163456800Y-66279067D02*
X163557815Y-66245395D01*
X163557815Y-66245395D02*
X163692502Y-66110708D01*
X163692502Y-66110708D02*
X163726174Y-66009693D01*
X163726174Y-66009693D02*
X163726174Y-65942349D01*
X163726174Y-65942349D02*
X163692502Y-65841334D01*
X163692502Y-65841334D02*
X163557815Y-65706647D01*
X163557815Y-65706647D02*
X163456800Y-65672975D01*
X163456800Y-65672975D02*
X163389457Y-65672975D01*
X163389457Y-65672975D02*
X163288441Y-65706647D01*
D11*
X176869542Y-72881428D02*
X176869542Y-72138571D01*
X176869542Y-72138571D02*
X177326685Y-72538571D01*
X177326685Y-72538571D02*
X177326685Y-72367142D01*
X177326685Y-72367142D02*
X177383828Y-72252857D01*
X177383828Y-72252857D02*
X177440971Y-72195714D01*
X177440971Y-72195714D02*
X177555257Y-72138571D01*
X177555257Y-72138571D02*
X177840971Y-72138571D01*
X177840971Y-72138571D02*
X177955257Y-72195714D01*
X177955257Y-72195714D02*
X178012400Y-72252857D01*
X178012400Y-72252857D02*
X178069542Y-72367142D01*
X178069542Y-72367142D02*
X178069542Y-72709999D01*
X178069542Y-72709999D02*
X178012400Y-72824285D01*
X178012400Y-72824285D02*
X177955257Y-72881428D01*
X177955257Y-71624285D02*
X178012400Y-71567142D01*
X178012400Y-71567142D02*
X178069542Y-71624285D01*
X178069542Y-71624285D02*
X178012400Y-71681428D01*
X178012400Y-71681428D02*
X177955257Y-71624285D01*
X177955257Y-71624285D02*
X178069542Y-71624285D01*
X176869542Y-71167142D02*
X176869542Y-70424285D01*
X176869542Y-70424285D02*
X177326685Y-70824285D01*
X177326685Y-70824285D02*
X177326685Y-70652856D01*
X177326685Y-70652856D02*
X177383828Y-70538571D01*
X177383828Y-70538571D02*
X177440971Y-70481428D01*
X177440971Y-70481428D02*
X177555257Y-70424285D01*
X177555257Y-70424285D02*
X177840971Y-70424285D01*
X177840971Y-70424285D02*
X177955257Y-70481428D01*
X177955257Y-70481428D02*
X178012400Y-70538571D01*
X178012400Y-70538571D02*
X178069542Y-70652856D01*
X178069542Y-70652856D02*
X178069542Y-70995713D01*
X178069542Y-70995713D02*
X178012400Y-71109999D01*
X178012400Y-71109999D02*
X177955257Y-71167142D01*
X176869542Y-70081428D02*
X178069542Y-69681428D01*
X178069542Y-69681428D02*
X176869542Y-69281428D01*
D10*
X163153333Y-59579580D02*
X163105714Y-59627200D01*
X163105714Y-59627200D02*
X162962857Y-59674819D01*
X162962857Y-59674819D02*
X162867619Y-59674819D01*
X162867619Y-59674819D02*
X162724762Y-59627200D01*
X162724762Y-59627200D02*
X162629524Y-59531961D01*
X162629524Y-59531961D02*
X162581905Y-59436723D01*
X162581905Y-59436723D02*
X162534286Y-59246247D01*
X162534286Y-59246247D02*
X162534286Y-59103390D01*
X162534286Y-59103390D02*
X162581905Y-58912914D01*
X162581905Y-58912914D02*
X162629524Y-58817676D01*
X162629524Y-58817676D02*
X162724762Y-58722438D01*
X162724762Y-58722438D02*
X162867619Y-58674819D01*
X162867619Y-58674819D02*
X162962857Y-58674819D01*
X162962857Y-58674819D02*
X163105714Y-58722438D01*
X163105714Y-58722438D02*
X163153333Y-58770057D01*
X164010476Y-59008152D02*
X164010476Y-59674819D01*
X163772381Y-58627200D02*
X163534286Y-59341485D01*
X163534286Y-59341485D02*
X164153333Y-59341485D01*
X174947887Y-35916411D02*
X174880543Y-35916411D01*
X174880543Y-35916411D02*
X174745856Y-35849067D01*
X174745856Y-35849067D02*
X174678513Y-35781724D01*
X174678513Y-35781724D02*
X174611169Y-35647037D01*
X174611169Y-35647037D02*
X174611169Y-35512350D01*
X174611169Y-35512350D02*
X174644841Y-35411335D01*
X174644841Y-35411335D02*
X174745856Y-35242976D01*
X174745856Y-35242976D02*
X174846871Y-35141961D01*
X174846871Y-35141961D02*
X175015230Y-35040945D01*
X175015230Y-35040945D02*
X175116245Y-35007274D01*
X175116245Y-35007274D02*
X175250932Y-35007274D01*
X175250932Y-35007274D02*
X175385619Y-35074617D01*
X175385619Y-35074617D02*
X175452963Y-35141961D01*
X175452963Y-35141961D02*
X175520306Y-35276648D01*
X175520306Y-35276648D02*
X175520306Y-35343991D01*
X175688665Y-35983754D02*
X175654993Y-35882739D01*
X175654993Y-35882739D02*
X175654993Y-35815396D01*
X175654993Y-35815396D02*
X175688665Y-35714380D01*
X175688665Y-35714380D02*
X175722337Y-35680709D01*
X175722337Y-35680709D02*
X175823352Y-35647037D01*
X175823352Y-35647037D02*
X175890696Y-35647037D01*
X175890696Y-35647037D02*
X175991711Y-35680709D01*
X175991711Y-35680709D02*
X176126398Y-35815396D01*
X176126398Y-35815396D02*
X176160070Y-35916411D01*
X176160070Y-35916411D02*
X176160070Y-35983754D01*
X176160070Y-35983754D02*
X176126398Y-36084770D01*
X176126398Y-36084770D02*
X176092726Y-36118441D01*
X176092726Y-36118441D02*
X175991711Y-36152113D01*
X175991711Y-36152113D02*
X175924367Y-36152113D01*
X175924367Y-36152113D02*
X175823352Y-36118441D01*
X175823352Y-36118441D02*
X175688665Y-35983754D01*
X175688665Y-35983754D02*
X175587650Y-35950083D01*
X175587650Y-35950083D02*
X175520306Y-35950083D01*
X175520306Y-35950083D02*
X175419291Y-35983754D01*
X175419291Y-35983754D02*
X175284604Y-36118441D01*
X175284604Y-36118441D02*
X175250932Y-36219457D01*
X175250932Y-36219457D02*
X175250932Y-36286800D01*
X175250932Y-36286800D02*
X175284604Y-36387815D01*
X175284604Y-36387815D02*
X175419291Y-36522502D01*
X175419291Y-36522502D02*
X175520306Y-36556174D01*
X175520306Y-36556174D02*
X175587650Y-36556174D01*
X175587650Y-36556174D02*
X175688665Y-36522502D01*
X175688665Y-36522502D02*
X175823352Y-36387815D01*
X175823352Y-36387815D02*
X175857024Y-36286800D01*
X175857024Y-36286800D02*
X175857024Y-36219457D01*
X175857024Y-36219457D02*
X175823352Y-36118441D01*
X189545714Y-35904819D02*
X188974286Y-35904819D01*
X189260000Y-35904819D02*
X189260000Y-34904819D01*
X189260000Y-34904819D02*
X189164762Y-35047676D01*
X189164762Y-35047676D02*
X189069524Y-35142914D01*
X189069524Y-35142914D02*
X188974286Y-35190533D01*
X162265751Y-41693246D02*
X162838171Y-42265666D01*
X162838171Y-42265666D02*
X162939186Y-42299338D01*
X162939186Y-42299338D02*
X163006530Y-42299338D01*
X163006530Y-42299338D02*
X163107545Y-42265666D01*
X163107545Y-42265666D02*
X163242232Y-42130979D01*
X163242232Y-42130979D02*
X163275904Y-42029964D01*
X163275904Y-42029964D02*
X163275904Y-41962620D01*
X163275904Y-41962620D02*
X163242232Y-41861605D01*
X163242232Y-41861605D02*
X162669812Y-41289185D01*
X162939186Y-41019811D02*
X163376919Y-40582079D01*
X163376919Y-40582079D02*
X163410591Y-41087155D01*
X163410591Y-41087155D02*
X163511606Y-40986140D01*
X163511606Y-40986140D02*
X163612621Y-40952468D01*
X163612621Y-40952468D02*
X163679965Y-40952468D01*
X163679965Y-40952468D02*
X163780980Y-40986140D01*
X163780980Y-40986140D02*
X163949339Y-41154498D01*
X163949339Y-41154498D02*
X163983011Y-41255514D01*
X163983011Y-41255514D02*
X163983011Y-41322857D01*
X163983011Y-41322857D02*
X163949339Y-41423872D01*
X163949339Y-41423872D02*
X163747308Y-41625903D01*
X163747308Y-41625903D02*
X163646293Y-41659575D01*
X163646293Y-41659575D02*
X163578950Y-41659575D01*
X207448200Y-105857996D02*
X206948200Y-104991970D01*
X206948200Y-104991970D02*
X207154397Y-104872923D01*
X207154397Y-104872923D02*
X207301924Y-104842733D01*
X207301924Y-104842733D02*
X207432022Y-104877593D01*
X207432022Y-104877593D02*
X207520880Y-104936262D01*
X207520880Y-104936262D02*
X207657358Y-105077410D01*
X207657358Y-105077410D02*
X207728786Y-105201128D01*
X207728786Y-105201128D02*
X207782785Y-105389894D01*
X207782785Y-105389894D02*
X207789165Y-105496183D01*
X207789165Y-105496183D02*
X207754305Y-105626280D01*
X207754305Y-105626280D02*
X207654397Y-105738948D01*
X207654397Y-105738948D02*
X207448200Y-105857996D01*
X207820605Y-104598258D02*
X207838035Y-104533210D01*
X207838035Y-104533210D02*
X207896704Y-104444351D01*
X207896704Y-104444351D02*
X208102901Y-104325304D01*
X208102901Y-104325304D02*
X208209189Y-104318924D01*
X208209189Y-104318924D02*
X208274238Y-104336354D01*
X208274238Y-104336354D02*
X208363096Y-104395023D01*
X208363096Y-104395023D02*
X208410715Y-104477501D01*
X208410715Y-104477501D02*
X208440904Y-104625029D01*
X208440904Y-104625029D02*
X208231747Y-105405615D01*
X208231747Y-105405615D02*
X208767858Y-105096091D01*
X187496411Y-43622112D02*
X187496411Y-43689456D01*
X187496411Y-43689456D02*
X187429067Y-43824143D01*
X187429067Y-43824143D02*
X187361724Y-43891486D01*
X187361724Y-43891486D02*
X187227037Y-43958830D01*
X187227037Y-43958830D02*
X187092350Y-43958830D01*
X187092350Y-43958830D02*
X186991335Y-43925158D01*
X186991335Y-43925158D02*
X186822976Y-43824143D01*
X186822976Y-43824143D02*
X186721961Y-43723128D01*
X186721961Y-43723128D02*
X186620945Y-43554769D01*
X186620945Y-43554769D02*
X186587274Y-43453754D01*
X186587274Y-43453754D02*
X186587274Y-43319067D01*
X186587274Y-43319067D02*
X186654617Y-43184380D01*
X186654617Y-43184380D02*
X186721961Y-43117036D01*
X186721961Y-43117036D02*
X186856648Y-43049693D01*
X186856648Y-43049693D02*
X186923991Y-43049693D01*
X187193365Y-42780319D02*
X187193365Y-42712975D01*
X187193365Y-42712975D02*
X187227037Y-42611960D01*
X187227037Y-42611960D02*
X187395396Y-42443601D01*
X187395396Y-42443601D02*
X187496411Y-42409929D01*
X187496411Y-42409929D02*
X187563754Y-42409929D01*
X187563754Y-42409929D02*
X187664770Y-42443601D01*
X187664770Y-42443601D02*
X187732113Y-42510945D01*
X187732113Y-42510945D02*
X187799457Y-42645632D01*
X187799457Y-42645632D02*
X187799457Y-43453754D01*
X187799457Y-43453754D02*
X188237189Y-43016021D01*
X150383754Y-53369456D02*
X149811335Y-53268441D01*
X149979693Y-53773517D02*
X149272587Y-53066410D01*
X149272587Y-53066410D02*
X149541961Y-52797036D01*
X149541961Y-52797036D02*
X149642976Y-52763364D01*
X149642976Y-52763364D02*
X149710319Y-52763364D01*
X149710319Y-52763364D02*
X149811335Y-52797036D01*
X149811335Y-52797036D02*
X149912350Y-52898051D01*
X149912350Y-52898051D02*
X149946022Y-52999067D01*
X149946022Y-52999067D02*
X149946022Y-53066410D01*
X149946022Y-53066410D02*
X149912350Y-53167425D01*
X149912350Y-53167425D02*
X149642976Y-53436799D01*
X149912350Y-52426647D02*
X150383754Y-51955242D01*
X150383754Y-51955242D02*
X150787815Y-52965395D01*
X150777887Y-44746411D02*
X150710543Y-44746411D01*
X150710543Y-44746411D02*
X150575856Y-44679067D01*
X150575856Y-44679067D02*
X150508513Y-44611724D01*
X150508513Y-44611724D02*
X150441169Y-44477037D01*
X150441169Y-44477037D02*
X150441169Y-44342350D01*
X150441169Y-44342350D02*
X150474841Y-44241335D01*
X150474841Y-44241335D02*
X150575856Y-44072976D01*
X150575856Y-44072976D02*
X150676871Y-43971961D01*
X150676871Y-43971961D02*
X150845230Y-43870945D01*
X150845230Y-43870945D02*
X150946245Y-43837274D01*
X150946245Y-43837274D02*
X151080932Y-43837274D01*
X151080932Y-43837274D02*
X151215619Y-43904617D01*
X151215619Y-43904617D02*
X151282963Y-43971961D01*
X151282963Y-43971961D02*
X151350306Y-44106648D01*
X151350306Y-44106648D02*
X151350306Y-44173991D01*
X151047261Y-45150472D02*
X151181948Y-45285159D01*
X151181948Y-45285159D02*
X151282963Y-45318831D01*
X151282963Y-45318831D02*
X151350306Y-45318831D01*
X151350306Y-45318831D02*
X151518665Y-45285159D01*
X151518665Y-45285159D02*
X151687024Y-45184144D01*
X151687024Y-45184144D02*
X151956398Y-44914770D01*
X151956398Y-44914770D02*
X151990070Y-44813754D01*
X151990070Y-44813754D02*
X151990070Y-44746411D01*
X151990070Y-44746411D02*
X151956398Y-44645396D01*
X151956398Y-44645396D02*
X151821711Y-44510709D01*
X151821711Y-44510709D02*
X151720696Y-44477037D01*
X151720696Y-44477037D02*
X151653352Y-44477037D01*
X151653352Y-44477037D02*
X151552337Y-44510709D01*
X151552337Y-44510709D02*
X151383978Y-44679067D01*
X151383978Y-44679067D02*
X151350306Y-44780083D01*
X151350306Y-44780083D02*
X151350306Y-44847426D01*
X151350306Y-44847426D02*
X151383978Y-44948441D01*
X151383978Y-44948441D02*
X151518665Y-45083128D01*
X151518665Y-45083128D02*
X151619680Y-45116800D01*
X151619680Y-45116800D02*
X151687024Y-45116800D01*
X151687024Y-45116800D02*
X151788039Y-45083128D01*
X183908170Y-40361605D02*
X184244888Y-40698323D01*
X183302079Y-40226918D02*
X183908170Y-40361605D01*
X183908170Y-40361605D02*
X183773483Y-39755514D01*
X184143872Y-39385124D02*
X184211216Y-39317781D01*
X184211216Y-39317781D02*
X184312231Y-39284109D01*
X184312231Y-39284109D02*
X184379575Y-39284109D01*
X184379575Y-39284109D02*
X184480590Y-39317781D01*
X184480590Y-39317781D02*
X184648949Y-39418796D01*
X184648949Y-39418796D02*
X184817307Y-39587155D01*
X184817307Y-39587155D02*
X184918323Y-39755514D01*
X184918323Y-39755514D02*
X184951994Y-39856529D01*
X184951994Y-39856529D02*
X184951994Y-39923872D01*
X184951994Y-39923872D02*
X184918323Y-40024888D01*
X184918323Y-40024888D02*
X184850979Y-40092231D01*
X184850979Y-40092231D02*
X184749964Y-40125903D01*
X184749964Y-40125903D02*
X184682620Y-40125903D01*
X184682620Y-40125903D02*
X184581605Y-40092231D01*
X184581605Y-40092231D02*
X184413246Y-39991216D01*
X184413246Y-39991216D02*
X184244888Y-39822857D01*
X184244888Y-39822857D02*
X184143872Y-39654498D01*
X184143872Y-39654498D02*
X184110201Y-39553483D01*
X184110201Y-39553483D02*
X184110201Y-39486140D01*
X184110201Y-39486140D02*
X184143872Y-39385124D01*
X149865714Y-58034819D02*
X149294286Y-58034819D01*
X149580000Y-58034819D02*
X149580000Y-57034819D01*
X149580000Y-57034819D02*
X149484762Y-57177676D01*
X149484762Y-57177676D02*
X149389524Y-57272914D01*
X149389524Y-57272914D02*
X149294286Y-57320533D01*
X163173333Y-54904819D02*
X162840000Y-54428628D01*
X162601905Y-54904819D02*
X162601905Y-53904819D01*
X162601905Y-53904819D02*
X162982857Y-53904819D01*
X162982857Y-53904819D02*
X163078095Y-53952438D01*
X163078095Y-53952438D02*
X163125714Y-54000057D01*
X163125714Y-54000057D02*
X163173333Y-54095295D01*
X163173333Y-54095295D02*
X163173333Y-54238152D01*
X163173333Y-54238152D02*
X163125714Y-54333390D01*
X163125714Y-54333390D02*
X163078095Y-54381009D01*
X163078095Y-54381009D02*
X162982857Y-54428628D01*
X162982857Y-54428628D02*
X162601905Y-54428628D01*
X163506667Y-53904819D02*
X164125714Y-53904819D01*
X164125714Y-53904819D02*
X163792381Y-54285771D01*
X163792381Y-54285771D02*
X163935238Y-54285771D01*
X163935238Y-54285771D02*
X164030476Y-54333390D01*
X164030476Y-54333390D02*
X164078095Y-54381009D01*
X164078095Y-54381009D02*
X164125714Y-54476247D01*
X164125714Y-54476247D02*
X164125714Y-54714342D01*
X164125714Y-54714342D02*
X164078095Y-54809580D01*
X164078095Y-54809580D02*
X164030476Y-54857200D01*
X164030476Y-54857200D02*
X163935238Y-54904819D01*
X163935238Y-54904819D02*
X163649524Y-54904819D01*
X163649524Y-54904819D02*
X163554286Y-54857200D01*
X163554286Y-54857200D02*
X163506667Y-54809580D01*
X170978095Y-52094819D02*
X170978095Y-52904342D01*
X170978095Y-52904342D02*
X171025714Y-52999580D01*
X171025714Y-52999580D02*
X171073333Y-53047200D01*
X171073333Y-53047200D02*
X171168571Y-53094819D01*
X171168571Y-53094819D02*
X171359047Y-53094819D01*
X171359047Y-53094819D02*
X171454285Y-53047200D01*
X171454285Y-53047200D02*
X171501904Y-52999580D01*
X171501904Y-52999580D02*
X171549523Y-52904342D01*
X171549523Y-52904342D02*
X171549523Y-52094819D01*
X171978095Y-52190057D02*
X172025714Y-52142438D01*
X172025714Y-52142438D02*
X172120952Y-52094819D01*
X172120952Y-52094819D02*
X172359047Y-52094819D01*
X172359047Y-52094819D02*
X172454285Y-52142438D01*
X172454285Y-52142438D02*
X172501904Y-52190057D01*
X172501904Y-52190057D02*
X172549523Y-52285295D01*
X172549523Y-52285295D02*
X172549523Y-52380533D01*
X172549523Y-52380533D02*
X172501904Y-52523390D01*
X172501904Y-52523390D02*
X171930476Y-53094819D01*
X171930476Y-53094819D02*
X172549523Y-53094819D01*
X154321169Y-39539693D02*
X154253825Y-39539693D01*
X154253825Y-39539693D02*
X154119138Y-39472349D01*
X154119138Y-39472349D02*
X154051795Y-39405006D01*
X154051795Y-39405006D02*
X153984451Y-39270319D01*
X153984451Y-39270319D02*
X153984451Y-39135632D01*
X153984451Y-39135632D02*
X154018123Y-39034617D01*
X154018123Y-39034617D02*
X154119138Y-38866258D01*
X154119138Y-38866258D02*
X154220153Y-38765243D01*
X154220153Y-38765243D02*
X154388512Y-38664227D01*
X154388512Y-38664227D02*
X154489527Y-38630556D01*
X154489527Y-38630556D02*
X154624214Y-38630556D01*
X154624214Y-38630556D02*
X154758901Y-38697899D01*
X154758901Y-38697899D02*
X154826245Y-38765243D01*
X154826245Y-38765243D02*
X154893588Y-38899930D01*
X154893588Y-38899930D02*
X154893588Y-38967273D01*
X154927260Y-40280471D02*
X154523199Y-39876410D01*
X154725230Y-40078441D02*
X155432336Y-39371334D01*
X155432336Y-39371334D02*
X155263978Y-39405006D01*
X155263978Y-39405006D02*
X155129291Y-39405006D01*
X155129291Y-39405006D02*
X155028275Y-39371334D01*
X155836398Y-39910082D02*
X155903741Y-39910082D01*
X155903741Y-39910082D02*
X156004756Y-39943754D01*
X156004756Y-39943754D02*
X156173115Y-40112113D01*
X156173115Y-40112113D02*
X156206787Y-40213128D01*
X156206787Y-40213128D02*
X156206787Y-40280472D01*
X156206787Y-40280472D02*
X156173115Y-40381487D01*
X156173115Y-40381487D02*
X156105772Y-40448830D01*
X156105772Y-40448830D02*
X155971085Y-40516174D01*
X155971085Y-40516174D02*
X155162963Y-40516174D01*
X155162963Y-40516174D02*
X155600695Y-40953907D01*
X152263754Y-58169456D02*
X151691335Y-58068441D01*
X151859693Y-58573517D02*
X151152587Y-57866410D01*
X151152587Y-57866410D02*
X151421961Y-57597036D01*
X151421961Y-57597036D02*
X151522976Y-57563364D01*
X151522976Y-57563364D02*
X151590319Y-57563364D01*
X151590319Y-57563364D02*
X151691335Y-57597036D01*
X151691335Y-57597036D02*
X151792350Y-57698051D01*
X151792350Y-57698051D02*
X151826022Y-57799067D01*
X151826022Y-57799067D02*
X151826022Y-57866410D01*
X151826022Y-57866410D02*
X151792350Y-57967425D01*
X151792350Y-57967425D02*
X151522976Y-58236799D01*
X152162739Y-56856258D02*
X152028052Y-56990945D01*
X152028052Y-56990945D02*
X151994380Y-57091960D01*
X151994380Y-57091960D02*
X151994380Y-57159303D01*
X151994380Y-57159303D02*
X152028052Y-57327662D01*
X152028052Y-57327662D02*
X152129067Y-57496021D01*
X152129067Y-57496021D02*
X152398441Y-57765395D01*
X152398441Y-57765395D02*
X152499457Y-57799067D01*
X152499457Y-57799067D02*
X152566800Y-57799067D01*
X152566800Y-57799067D02*
X152667815Y-57765395D01*
X152667815Y-57765395D02*
X152802502Y-57630708D01*
X152802502Y-57630708D02*
X152836174Y-57529693D01*
X152836174Y-57529693D02*
X152836174Y-57462349D01*
X152836174Y-57462349D02*
X152802502Y-57361334D01*
X152802502Y-57361334D02*
X152634144Y-57192975D01*
X152634144Y-57192975D02*
X152533128Y-57159303D01*
X152533128Y-57159303D02*
X152465785Y-57159303D01*
X152465785Y-57159303D02*
X152364770Y-57192975D01*
X152364770Y-57192975D02*
X152230083Y-57327662D01*
X152230083Y-57327662D02*
X152196411Y-57428677D01*
X152196411Y-57428677D02*
X152196411Y-57496021D01*
X152196411Y-57496021D02*
X152230083Y-57597036D01*
X157783333Y-65349580D02*
X157735714Y-65397200D01*
X157735714Y-65397200D02*
X157592857Y-65444819D01*
X157592857Y-65444819D02*
X157497619Y-65444819D01*
X157497619Y-65444819D02*
X157354762Y-65397200D01*
X157354762Y-65397200D02*
X157259524Y-65301961D01*
X157259524Y-65301961D02*
X157211905Y-65206723D01*
X157211905Y-65206723D02*
X157164286Y-65016247D01*
X157164286Y-65016247D02*
X157164286Y-64873390D01*
X157164286Y-64873390D02*
X157211905Y-64682914D01*
X157211905Y-64682914D02*
X157259524Y-64587676D01*
X157259524Y-64587676D02*
X157354762Y-64492438D01*
X157354762Y-64492438D02*
X157497619Y-64444819D01*
X157497619Y-64444819D02*
X157592857Y-64444819D01*
X157592857Y-64444819D02*
X157735714Y-64492438D01*
X157735714Y-64492438D02*
X157783333Y-64540057D01*
X158735714Y-65444819D02*
X158164286Y-65444819D01*
X158450000Y-65444819D02*
X158450000Y-64444819D01*
X158450000Y-64444819D02*
X158354762Y-64587676D01*
X158354762Y-64587676D02*
X158259524Y-64682914D01*
X158259524Y-64682914D02*
X158164286Y-64730533D01*
X162937142Y-57469580D02*
X162889523Y-57517200D01*
X162889523Y-57517200D02*
X162746666Y-57564819D01*
X162746666Y-57564819D02*
X162651428Y-57564819D01*
X162651428Y-57564819D02*
X162508571Y-57517200D01*
X162508571Y-57517200D02*
X162413333Y-57421961D01*
X162413333Y-57421961D02*
X162365714Y-57326723D01*
X162365714Y-57326723D02*
X162318095Y-57136247D01*
X162318095Y-57136247D02*
X162318095Y-56993390D01*
X162318095Y-56993390D02*
X162365714Y-56802914D01*
X162365714Y-56802914D02*
X162413333Y-56707676D01*
X162413333Y-56707676D02*
X162508571Y-56612438D01*
X162508571Y-56612438D02*
X162651428Y-56564819D01*
X162651428Y-56564819D02*
X162746666Y-56564819D01*
X162746666Y-56564819D02*
X162889523Y-56612438D01*
X162889523Y-56612438D02*
X162937142Y-56660057D01*
X163889523Y-57564819D02*
X163318095Y-57564819D01*
X163603809Y-57564819D02*
X163603809Y-56564819D01*
X163603809Y-56564819D02*
X163508571Y-56707676D01*
X163508571Y-56707676D02*
X163413333Y-56802914D01*
X163413333Y-56802914D02*
X163318095Y-56850533D01*
X164222857Y-56564819D02*
X164889523Y-56564819D01*
X164889523Y-56564819D02*
X164460952Y-57564819D01*
X154341905Y-51884819D02*
X154341905Y-52694342D01*
X154341905Y-52694342D02*
X154389524Y-52789580D01*
X154389524Y-52789580D02*
X154437143Y-52837200D01*
X154437143Y-52837200D02*
X154532381Y-52884819D01*
X154532381Y-52884819D02*
X154722857Y-52884819D01*
X154722857Y-52884819D02*
X154818095Y-52837200D01*
X154818095Y-52837200D02*
X154865714Y-52789580D01*
X154865714Y-52789580D02*
X154913333Y-52694342D01*
X154913333Y-52694342D02*
X154913333Y-51884819D01*
X155818095Y-52218152D02*
X155818095Y-52884819D01*
X155580000Y-51837200D02*
X155341905Y-52551485D01*
X155341905Y-52551485D02*
X155960952Y-52551485D01*
X156770476Y-52218152D02*
X156770476Y-52884819D01*
X156532381Y-51837200D02*
X156294286Y-52551485D01*
X156294286Y-52551485D02*
X156913333Y-52551485D01*
X198205714Y-58034819D02*
X197634286Y-58034819D01*
X197920000Y-58034819D02*
X197920000Y-57034819D01*
X197920000Y-57034819D02*
X197824762Y-57177676D01*
X197824762Y-57177676D02*
X197729524Y-57272914D01*
X197729524Y-57272914D02*
X197634286Y-57320533D01*
X171673333Y-62269580D02*
X171625714Y-62317200D01*
X171625714Y-62317200D02*
X171482857Y-62364819D01*
X171482857Y-62364819D02*
X171387619Y-62364819D01*
X171387619Y-62364819D02*
X171244762Y-62317200D01*
X171244762Y-62317200D02*
X171149524Y-62221961D01*
X171149524Y-62221961D02*
X171101905Y-62126723D01*
X171101905Y-62126723D02*
X171054286Y-61936247D01*
X171054286Y-61936247D02*
X171054286Y-61793390D01*
X171054286Y-61793390D02*
X171101905Y-61602914D01*
X171101905Y-61602914D02*
X171149524Y-61507676D01*
X171149524Y-61507676D02*
X171244762Y-61412438D01*
X171244762Y-61412438D02*
X171387619Y-61364819D01*
X171387619Y-61364819D02*
X171482857Y-61364819D01*
X171482857Y-61364819D02*
X171625714Y-61412438D01*
X171625714Y-61412438D02*
X171673333Y-61460057D01*
X172578095Y-61364819D02*
X172101905Y-61364819D01*
X172101905Y-61364819D02*
X172054286Y-61841009D01*
X172054286Y-61841009D02*
X172101905Y-61793390D01*
X172101905Y-61793390D02*
X172197143Y-61745771D01*
X172197143Y-61745771D02*
X172435238Y-61745771D01*
X172435238Y-61745771D02*
X172530476Y-61793390D01*
X172530476Y-61793390D02*
X172578095Y-61841009D01*
X172578095Y-61841009D02*
X172625714Y-61936247D01*
X172625714Y-61936247D02*
X172625714Y-62174342D01*
X172625714Y-62174342D02*
X172578095Y-62269580D01*
X172578095Y-62269580D02*
X172530476Y-62317200D01*
X172530476Y-62317200D02*
X172435238Y-62364819D01*
X172435238Y-62364819D02*
X172197143Y-62364819D01*
X172197143Y-62364819D02*
X172101905Y-62317200D01*
X172101905Y-62317200D02*
X172054286Y-62269580D01*
X150745714Y-39104819D02*
X150174286Y-39104819D01*
X150460000Y-39104819D02*
X150460000Y-38104819D01*
X150460000Y-38104819D02*
X150364762Y-38247676D01*
X150364762Y-38247676D02*
X150269524Y-38342914D01*
X150269524Y-38342914D02*
X150174286Y-38390533D01*
X164306411Y-36132111D02*
X164306411Y-36199455D01*
X164306411Y-36199455D02*
X164239067Y-36334142D01*
X164239067Y-36334142D02*
X164171724Y-36401485D01*
X164171724Y-36401485D02*
X164037037Y-36468829D01*
X164037037Y-36468829D02*
X163902350Y-36468829D01*
X163902350Y-36468829D02*
X163801335Y-36435157D01*
X163801335Y-36435157D02*
X163632976Y-36334142D01*
X163632976Y-36334142D02*
X163531961Y-36233127D01*
X163531961Y-36233127D02*
X163430945Y-36064768D01*
X163430945Y-36064768D02*
X163397274Y-35963753D01*
X163397274Y-35963753D02*
X163397274Y-35829066D01*
X163397274Y-35829066D02*
X163464617Y-35694379D01*
X163464617Y-35694379D02*
X163531961Y-35627035D01*
X163531961Y-35627035D02*
X163666648Y-35559692D01*
X163666648Y-35559692D02*
X163733991Y-35559692D01*
X164272739Y-34886257D02*
X164138052Y-35020944D01*
X164138052Y-35020944D02*
X164104380Y-35121959D01*
X164104380Y-35121959D02*
X164104380Y-35189302D01*
X164104380Y-35189302D02*
X164138052Y-35357661D01*
X164138052Y-35357661D02*
X164239067Y-35526020D01*
X164239067Y-35526020D02*
X164508441Y-35795394D01*
X164508441Y-35795394D02*
X164609457Y-35829066D01*
X164609457Y-35829066D02*
X164676800Y-35829066D01*
X164676800Y-35829066D02*
X164777815Y-35795394D01*
X164777815Y-35795394D02*
X164912502Y-35660707D01*
X164912502Y-35660707D02*
X164946174Y-35559692D01*
X164946174Y-35559692D02*
X164946174Y-35492348D01*
X164946174Y-35492348D02*
X164912502Y-35391333D01*
X164912502Y-35391333D02*
X164744144Y-35222974D01*
X164744144Y-35222974D02*
X164643128Y-35189302D01*
X164643128Y-35189302D02*
X164575785Y-35189302D01*
X164575785Y-35189302D02*
X164474770Y-35222974D01*
X164474770Y-35222974D02*
X164340083Y-35357661D01*
X164340083Y-35357661D02*
X164306411Y-35458676D01*
X164306411Y-35458676D02*
X164306411Y-35526020D01*
X164306411Y-35526020D02*
X164340083Y-35627035D01*
X152851169Y-41129693D02*
X152783825Y-41129693D01*
X152783825Y-41129693D02*
X152649138Y-41062349D01*
X152649138Y-41062349D02*
X152581795Y-40995006D01*
X152581795Y-40995006D02*
X152514451Y-40860319D01*
X152514451Y-40860319D02*
X152514451Y-40725632D01*
X152514451Y-40725632D02*
X152548123Y-40624617D01*
X152548123Y-40624617D02*
X152649138Y-40456258D01*
X152649138Y-40456258D02*
X152750153Y-40355243D01*
X152750153Y-40355243D02*
X152918512Y-40254227D01*
X152918512Y-40254227D02*
X153019527Y-40220556D01*
X153019527Y-40220556D02*
X153154214Y-40220556D01*
X153154214Y-40220556D02*
X153288901Y-40287899D01*
X153288901Y-40287899D02*
X153356245Y-40355243D01*
X153356245Y-40355243D02*
X153423588Y-40489930D01*
X153423588Y-40489930D02*
X153423588Y-40557273D01*
X153457260Y-41870471D02*
X153053199Y-41466410D01*
X153255230Y-41668441D02*
X153962336Y-40961334D01*
X153962336Y-40961334D02*
X153793978Y-40995006D01*
X153793978Y-40995006D02*
X153659291Y-40995006D01*
X153659291Y-40995006D02*
X153558275Y-40961334D01*
X154130695Y-42543907D02*
X153726634Y-42139846D01*
X153928665Y-42341876D02*
X154635772Y-41634769D01*
X154635772Y-41634769D02*
X154467413Y-41668441D01*
X154467413Y-41668441D02*
X154332726Y-41668441D01*
X154332726Y-41668441D02*
X154231711Y-41634769D01*
X180193547Y-51989500D02*
X179789486Y-51585439D01*
X179991516Y-51787469D02*
X180698623Y-51080363D01*
X180698623Y-51080363D02*
X180530264Y-51114034D01*
X180530264Y-51114034D02*
X180395577Y-51114034D01*
X180395577Y-51114034D02*
X180294562Y-51080363D01*
X163153333Y-52904819D02*
X162820000Y-52428628D01*
X162581905Y-52904819D02*
X162581905Y-51904819D01*
X162581905Y-51904819D02*
X162962857Y-51904819D01*
X162962857Y-51904819D02*
X163058095Y-51952438D01*
X163058095Y-51952438D02*
X163105714Y-52000057D01*
X163105714Y-52000057D02*
X163153333Y-52095295D01*
X163153333Y-52095295D02*
X163153333Y-52238152D01*
X163153333Y-52238152D02*
X163105714Y-52333390D01*
X163105714Y-52333390D02*
X163058095Y-52381009D01*
X163058095Y-52381009D02*
X162962857Y-52428628D01*
X162962857Y-52428628D02*
X162581905Y-52428628D01*
X164010476Y-52238152D02*
X164010476Y-52904819D01*
X163772381Y-51857200D02*
X163534286Y-52571485D01*
X163534286Y-52571485D02*
X164153333Y-52571485D01*
X176360543Y-60773754D02*
X176461558Y-60201335D01*
X175956482Y-60369693D02*
X176663589Y-59662587D01*
X176663589Y-59662587D02*
X176932963Y-59931961D01*
X176932963Y-59931961D02*
X176966635Y-60032976D01*
X176966635Y-60032976D02*
X176966635Y-60100319D01*
X176966635Y-60100319D02*
X176932963Y-60201335D01*
X176932963Y-60201335D02*
X176831948Y-60302350D01*
X176831948Y-60302350D02*
X176730932Y-60336022D01*
X176730932Y-60336022D02*
X176663589Y-60336022D01*
X176663589Y-60336022D02*
X176562574Y-60302350D01*
X176562574Y-60302350D02*
X176293200Y-60032976D01*
X177033978Y-61447189D02*
X176629917Y-61043128D01*
X176831948Y-61245159D02*
X177539054Y-60538052D01*
X177539054Y-60538052D02*
X177370696Y-60571724D01*
X177370696Y-60571724D02*
X177236009Y-60571724D01*
X177236009Y-60571724D02*
X177134993Y-60538052D01*
X134137261Y-106981925D02*
X134903305Y-106339138D01*
X134903305Y-106339138D02*
X135056350Y-106521529D01*
X135056350Y-106521529D02*
X135111698Y-106661573D01*
X135111698Y-106661573D02*
X135099960Y-106795747D01*
X135099960Y-106795747D02*
X135057612Y-106893444D01*
X135057612Y-106893444D02*
X134942308Y-107052358D01*
X134942308Y-107052358D02*
X134832873Y-107144184D01*
X134832873Y-107144184D02*
X134656351Y-107230142D01*
X134656351Y-107230142D02*
X134552785Y-107254881D01*
X134552785Y-107254881D02*
X134418611Y-107243143D01*
X134418611Y-107243143D02*
X134290305Y-107164317D01*
X134290305Y-107164317D02*
X134137261Y-106981925D01*
X135484875Y-107032225D02*
X135882791Y-107506443D01*
X135882791Y-107506443D02*
X135376702Y-107495967D01*
X135376702Y-107495967D02*
X135468529Y-107605402D01*
X135468529Y-107605402D02*
X135493268Y-107708967D01*
X135493268Y-107708967D02*
X135487399Y-107776054D01*
X135487399Y-107776054D02*
X135445051Y-107873751D01*
X135445051Y-107873751D02*
X135262660Y-108026795D01*
X135262660Y-108026795D02*
X135159094Y-108051535D01*
X135159094Y-108051535D02*
X135092007Y-108045665D01*
X135092007Y-108045665D02*
X134994311Y-108003318D01*
X134994311Y-108003318D02*
X134810657Y-107784448D01*
X134810657Y-107784448D02*
X134785918Y-107680882D01*
X134785918Y-107680882D02*
X134791787Y-107613795D01*
X155067772Y-49322696D02*
X154663711Y-49726757D01*
X154865741Y-49524727D02*
X154158635Y-48817620D01*
X154158635Y-48817620D02*
X154192306Y-48985979D01*
X154192306Y-48985979D02*
X154192306Y-49120666D01*
X154192306Y-49120666D02*
X154158635Y-49221681D01*
X156636666Y-60411009D02*
X156303333Y-60411009D01*
X156303333Y-60934819D02*
X156303333Y-59934819D01*
X156303333Y-59934819D02*
X156779523Y-59934819D01*
X157350952Y-59934819D02*
X157446190Y-59934819D01*
X157446190Y-59934819D02*
X157541428Y-59982438D01*
X157541428Y-59982438D02*
X157589047Y-60030057D01*
X157589047Y-60030057D02*
X157636666Y-60125295D01*
X157636666Y-60125295D02*
X157684285Y-60315771D01*
X157684285Y-60315771D02*
X157684285Y-60553866D01*
X157684285Y-60553866D02*
X157636666Y-60744342D01*
X157636666Y-60744342D02*
X157589047Y-60839580D01*
X157589047Y-60839580D02*
X157541428Y-60887200D01*
X157541428Y-60887200D02*
X157446190Y-60934819D01*
X157446190Y-60934819D02*
X157350952Y-60934819D01*
X157350952Y-60934819D02*
X157255714Y-60887200D01*
X157255714Y-60887200D02*
X157208095Y-60839580D01*
X157208095Y-60839580D02*
X157160476Y-60744342D01*
X157160476Y-60744342D02*
X157112857Y-60553866D01*
X157112857Y-60553866D02*
X157112857Y-60315771D01*
X157112857Y-60315771D02*
X157160476Y-60125295D01*
X157160476Y-60125295D02*
X157208095Y-60030057D01*
X157208095Y-60030057D02*
X157255714Y-59982438D01*
X157255714Y-59982438D02*
X157350952Y-59934819D01*
X157028095Y-62734819D02*
X157028095Y-63544342D01*
X157028095Y-63544342D02*
X157075714Y-63639580D01*
X157075714Y-63639580D02*
X157123333Y-63687200D01*
X157123333Y-63687200D02*
X157218571Y-63734819D01*
X157218571Y-63734819D02*
X157409047Y-63734819D01*
X157409047Y-63734819D02*
X157504285Y-63687200D01*
X157504285Y-63687200D02*
X157551904Y-63639580D01*
X157551904Y-63639580D02*
X157599523Y-63544342D01*
X157599523Y-63544342D02*
X157599523Y-62734819D01*
X158599523Y-63734819D02*
X158028095Y-63734819D01*
X158313809Y-63734819D02*
X158313809Y-62734819D01*
X158313809Y-62734819D02*
X158218571Y-62877676D01*
X158218571Y-62877676D02*
X158123333Y-62972914D01*
X158123333Y-62972914D02*
X158028095Y-63020533D01*
X181026970Y-37607398D02*
X180445705Y-37607317D01*
X180699212Y-38075485D02*
X179880060Y-37501908D01*
X179880060Y-37501908D02*
X180098565Y-37189850D01*
X180098565Y-37189850D02*
X180192199Y-37139149D01*
X180192199Y-37139149D02*
X180258519Y-37127455D01*
X180258519Y-37127455D02*
X180363847Y-37143074D01*
X180363847Y-37143074D02*
X180480868Y-37225014D01*
X180480868Y-37225014D02*
X180531570Y-37318647D01*
X180531570Y-37318647D02*
X180543264Y-37384968D01*
X180543264Y-37384968D02*
X180527645Y-37490295D01*
X180527645Y-37490295D02*
X180309139Y-37802353D01*
X180726768Y-36292684D02*
X180453636Y-36682756D01*
X180453636Y-36682756D02*
X180816395Y-36994895D01*
X180816395Y-36994895D02*
X180804701Y-36928575D01*
X180804701Y-36928575D02*
X180820320Y-36823247D01*
X180820320Y-36823247D02*
X180956886Y-36628211D01*
X180956886Y-36628211D02*
X181050520Y-36577510D01*
X181050520Y-36577510D02*
X181116840Y-36565816D01*
X181116840Y-36565816D02*
X181222168Y-36581435D01*
X181222168Y-36581435D02*
X181417204Y-36718000D01*
X181417204Y-36718000D02*
X181467905Y-36811634D01*
X181467905Y-36811634D02*
X181479599Y-36877954D01*
X181479599Y-36877954D02*
X181463980Y-36983282D01*
X181463980Y-36983282D02*
X181327414Y-37178318D01*
X181327414Y-37178318D02*
X181233781Y-37229020D01*
X181233781Y-37229020D02*
X181167460Y-37240714D01*
X158196720Y-36189649D02*
X158130400Y-36177955D01*
X158130400Y-36177955D02*
X158009453Y-36088246D01*
X158009453Y-36088246D02*
X157954827Y-36010232D01*
X157954827Y-36010232D02*
X157911895Y-35865897D01*
X157911895Y-35865897D02*
X157935283Y-35733256D01*
X157935283Y-35733256D02*
X157985984Y-35639623D01*
X157985984Y-35639623D02*
X158114700Y-35491363D01*
X158114700Y-35491363D02*
X158231722Y-35409423D01*
X158231722Y-35409423D02*
X158415064Y-35339178D01*
X158415064Y-35339178D02*
X158520391Y-35323559D01*
X158520391Y-35323559D02*
X158653032Y-35346947D01*
X158653032Y-35346947D02*
X158773979Y-35436655D01*
X158773979Y-35436655D02*
X158828605Y-35514670D01*
X158828605Y-35514670D02*
X158871537Y-35659005D01*
X158871537Y-35659005D02*
X158859843Y-35725325D01*
X158664969Y-37024420D02*
X158337211Y-36556333D01*
X158501090Y-36790377D02*
X159320242Y-36216800D01*
X159320242Y-36216800D02*
X159148594Y-36220725D01*
X159148594Y-36220725D02*
X159015953Y-36197337D01*
X159015953Y-36197337D02*
X158922320Y-36146636D01*
X159839192Y-36957938D02*
X159893819Y-37035952D01*
X159893819Y-37035952D02*
X159909438Y-37141280D01*
X159909438Y-37141280D02*
X159897744Y-37207600D01*
X159897744Y-37207600D02*
X159847042Y-37301234D01*
X159847042Y-37301234D02*
X159718327Y-37449494D01*
X159718327Y-37449494D02*
X159523290Y-37586060D01*
X159523290Y-37586060D02*
X159339948Y-37656305D01*
X159339948Y-37656305D02*
X159234621Y-37671924D01*
X159234621Y-37671924D02*
X159168300Y-37660230D01*
X159168300Y-37660230D02*
X159074667Y-37609529D01*
X159074667Y-37609529D02*
X159020040Y-37531514D01*
X159020040Y-37531514D02*
X159004421Y-37426187D01*
X159004421Y-37426187D02*
X159016115Y-37359866D01*
X159016115Y-37359866D02*
X159066817Y-37266233D01*
X159066817Y-37266233D02*
X159195532Y-37117973D01*
X159195532Y-37117973D02*
X159390569Y-36981407D01*
X159390569Y-36981407D02*
X159573911Y-36911161D01*
X159573911Y-36911161D02*
X159679238Y-36895542D01*
X159679238Y-36895542D02*
X159745559Y-36907236D01*
X159745559Y-36907236D02*
X159839192Y-36957938D01*
X156536720Y-37589649D02*
X156470400Y-37577955D01*
X156470400Y-37577955D02*
X156349453Y-37488246D01*
X156349453Y-37488246D02*
X156294827Y-37410232D01*
X156294827Y-37410232D02*
X156251895Y-37265897D01*
X156251895Y-37265897D02*
X156275283Y-37133256D01*
X156275283Y-37133256D02*
X156325984Y-37039623D01*
X156325984Y-37039623D02*
X156454700Y-36891363D01*
X156454700Y-36891363D02*
X156571722Y-36809423D01*
X156571722Y-36809423D02*
X156755064Y-36739178D01*
X156755064Y-36739178D02*
X156860391Y-36723559D01*
X156860391Y-36723559D02*
X156993032Y-36746947D01*
X156993032Y-36746947D02*
X157113979Y-36836655D01*
X157113979Y-36836655D02*
X157168605Y-36914670D01*
X157168605Y-36914670D02*
X157211537Y-37059005D01*
X157211537Y-37059005D02*
X157199843Y-37125325D01*
X157004969Y-38424420D02*
X156677211Y-37956333D01*
X156841090Y-38190377D02*
X157660242Y-37616800D01*
X157660242Y-37616800D02*
X157488594Y-37620725D01*
X157488594Y-37620725D02*
X157355953Y-37597337D01*
X157355953Y-37597337D02*
X157262320Y-37546636D01*
X158042707Y-38744166D02*
X157496606Y-39126550D01*
X158218200Y-38330625D02*
X157496525Y-38545286D01*
X157496525Y-38545286D02*
X157851596Y-39052380D01*
X182488955Y-38842772D02*
X182500649Y-38909092D01*
X182500649Y-38909092D02*
X182457717Y-39053427D01*
X182457717Y-39053427D02*
X182403091Y-39131441D01*
X182403091Y-39131441D02*
X182282144Y-39221150D01*
X182282144Y-39221150D02*
X182149503Y-39244538D01*
X182149503Y-39244538D02*
X182044175Y-39228919D01*
X182044175Y-39228919D02*
X181860833Y-39158674D01*
X181860833Y-39158674D02*
X181743812Y-39076734D01*
X181743812Y-39076734D02*
X181615096Y-38928474D01*
X181615096Y-38928474D02*
X181564395Y-38834841D01*
X181564395Y-38834841D02*
X181541006Y-38702200D01*
X181541006Y-38702200D02*
X181583939Y-38557865D01*
X181583939Y-38557865D02*
X181638565Y-38479850D01*
X181638565Y-38479850D02*
X181759512Y-38390142D01*
X181759512Y-38390142D02*
X181825832Y-38378448D01*
X181939010Y-38050771D02*
X182294081Y-37543677D01*
X182294081Y-37543677D02*
X182414947Y-38035233D01*
X182414947Y-38035233D02*
X182496886Y-37918211D01*
X182496886Y-37918211D02*
X182590520Y-37867510D01*
X182590520Y-37867510D02*
X182656840Y-37855816D01*
X182656840Y-37855816D02*
X182762168Y-37871435D01*
X182762168Y-37871435D02*
X182957204Y-38008000D01*
X182957204Y-38008000D02*
X183007905Y-38101634D01*
X183007905Y-38101634D02*
X183019599Y-38167954D01*
X183019599Y-38167954D02*
X183003980Y-38273282D01*
X183003980Y-38273282D02*
X182840101Y-38507326D01*
X182840101Y-38507326D02*
X182746468Y-38558027D01*
X182746468Y-38558027D02*
X182680147Y-38569721D01*
X151551169Y-42489693D02*
X151483825Y-42489693D01*
X151483825Y-42489693D02*
X151349138Y-42422349D01*
X151349138Y-42422349D02*
X151281795Y-42355006D01*
X151281795Y-42355006D02*
X151214451Y-42220319D01*
X151214451Y-42220319D02*
X151214451Y-42085632D01*
X151214451Y-42085632D02*
X151248123Y-41984617D01*
X151248123Y-41984617D02*
X151349138Y-41816258D01*
X151349138Y-41816258D02*
X151450153Y-41715243D01*
X151450153Y-41715243D02*
X151618512Y-41614227D01*
X151618512Y-41614227D02*
X151719527Y-41580556D01*
X151719527Y-41580556D02*
X151854214Y-41580556D01*
X151854214Y-41580556D02*
X151988901Y-41647899D01*
X151988901Y-41647899D02*
X152056245Y-41715243D01*
X152056245Y-41715243D02*
X152123588Y-41849930D01*
X152123588Y-41849930D02*
X152123588Y-41917273D01*
X152157260Y-43230471D02*
X151753199Y-42826410D01*
X151955230Y-43028441D02*
X152662336Y-42321334D01*
X152662336Y-42321334D02*
X152493978Y-42355006D01*
X152493978Y-42355006D02*
X152359291Y-42355006D01*
X152359291Y-42355006D02*
X152258275Y-42321334D01*
X153100069Y-42759067D02*
X153537802Y-43196800D01*
X153537802Y-43196800D02*
X153032726Y-43230472D01*
X153032726Y-43230472D02*
X153133741Y-43331487D01*
X153133741Y-43331487D02*
X153167413Y-43432502D01*
X153167413Y-43432502D02*
X153167413Y-43499846D01*
X153167413Y-43499846D02*
X153133741Y-43600861D01*
X153133741Y-43600861D02*
X152965382Y-43769220D01*
X152965382Y-43769220D02*
X152864367Y-43802891D01*
X152864367Y-43802891D02*
X152797024Y-43802891D01*
X152797024Y-43802891D02*
X152696008Y-43769220D01*
X152696008Y-43769220D02*
X152493978Y-43567189D01*
X152493978Y-43567189D02*
X152460306Y-43466174D01*
X152460306Y-43466174D02*
X152460306Y-43398830D01*
D13*
%TO.C,D1819*%
X205874779Y-57754558D02*
X206613543Y-55724822D01*
X205874779Y-57754558D02*
X205000865Y-57436479D01*
X202905350Y-56673775D02*
X203404700Y-55301823D01*
X202905350Y-56673775D02*
X203779264Y-56991853D01*
%TO.C,C4*%
X160861252Y-59925000D02*
X160338748Y-59925000D01*
X160861252Y-58455000D02*
X160338748Y-58455000D01*
%TO.C,C8*%
X173824990Y-33085543D02*
X174194457Y-33455010D01*
X172785543Y-34124990D02*
X173155010Y-34494457D01*
%TO.C,D407*%
X145430000Y-42800000D02*
X143270000Y-42800000D01*
X145430000Y-42800000D02*
X145430000Y-43730000D01*
X145430000Y-45960000D02*
X143970000Y-45960000D01*
X145430000Y-45960000D02*
X145430000Y-45030000D01*
%TO.C,DLED2*%
X189760000Y-34300000D02*
X197060000Y-34300000D01*
X189760000Y-39800000D02*
X197060000Y-39800000D01*
X197060000Y-39800000D02*
X197060000Y-38650000D01*
%TO.C,U3*%
X174995311Y-41648439D02*
X174535692Y-42108058D01*
X169430381Y-46294131D02*
X169890000Y-46753750D01*
X174535692Y-41188820D02*
X174995311Y-41648439D01*
X165244308Y-42108058D02*
X164784689Y-41648439D01*
X170349619Y-37002747D02*
X169890000Y-36543128D01*
X164784689Y-41648439D02*
X165244308Y-41188820D01*
X169890000Y-36543128D02*
X169430381Y-37002747D01*
%TO.C,D2*%
X206741821Y-104678320D02*
X208612436Y-103598320D01*
X206741821Y-104678320D02*
X206276821Y-103872917D01*
X205161821Y-101941680D02*
X206426218Y-101211680D01*
X205161821Y-101941680D02*
X205626821Y-102747083D01*
%TO.C,D3435*%
X140590000Y-88230000D02*
X140590000Y-86070000D01*
X140590000Y-88230000D02*
X139660000Y-88230000D01*
X137430000Y-88230000D02*
X137430000Y-86770000D01*
X137430000Y-88230000D02*
X138360000Y-88230000D01*
%TO.C,D1617*%
X210270000Y-57970000D02*
X210270000Y-55810000D01*
X210270000Y-57970000D02*
X209340000Y-57970000D01*
X207110000Y-57970000D02*
X207110000Y-56510000D01*
X207110000Y-57970000D02*
X208040000Y-57970000D01*
%TO.C,C2*%
X186184457Y-45524990D02*
X185814990Y-45894457D01*
X185145010Y-44485543D02*
X184775543Y-44855010D01*
%TO.C,R7*%
X152079165Y-54069718D02*
X152400282Y-54390835D01*
X151039718Y-55109165D02*
X151360835Y-55430282D01*
%TO.C,J1*%
X158640000Y-76385000D02*
X168860000Y-76385000D01*
X158640000Y-76385000D02*
X158640000Y-73725000D01*
X168860000Y-76385000D02*
X168860000Y-73725000D01*
X156040000Y-75055000D02*
X156040000Y-73725000D01*
X156040000Y-73725000D02*
X157370000Y-73725000D01*
X158640000Y-73725000D02*
X168860000Y-73725000D01*
%TO.C,D2021*%
X151978320Y-84988179D02*
X150898320Y-83117564D01*
X151978320Y-84988179D02*
X151172917Y-85453179D01*
X149241680Y-86568179D02*
X148511680Y-85303782D01*
X149241680Y-86568179D02*
X150047083Y-86103179D01*
%TO.C,C7*%
X169608748Y-31885000D02*
X170131252Y-31885000D01*
X169608748Y-33355000D02*
X170131252Y-33355000D01*
%TO.C,C9*%
X152565010Y-47114457D02*
X152195543Y-46744990D01*
X153604457Y-46075010D02*
X153234990Y-45705543D01*
%TO.C,D1011*%
X140338869Y-54016589D02*
X138950448Y-52361933D01*
X140338869Y-54016589D02*
X139626447Y-54614382D01*
X137918168Y-56047798D02*
X136979698Y-54929373D01*
X137918168Y-56047798D02*
X138630590Y-55450006D01*
%TO.C,Y0*%
X182999290Y-40357918D02*
X180665837Y-42691371D01*
X180665837Y-42691371D02*
X183494264Y-45519798D01*
%TO.C,D110111*%
X201811832Y-56057798D02*
X203200253Y-54403142D01*
X201811832Y-56057798D02*
X201099410Y-55460006D01*
X199391131Y-54026589D02*
X200329601Y-52908164D01*
X199391131Y-54026589D02*
X200103553Y-54624382D01*
%TO.C,DLED4*%
X149080000Y-58730000D02*
X141780000Y-58730000D01*
X149080000Y-53230000D02*
X141780000Y-53230000D01*
X141780000Y-53230000D02*
X141780000Y-54380000D01*
%TO.C,D809*%
X196301821Y-50328320D02*
X198172436Y-49248320D01*
X196301821Y-50328320D02*
X195836821Y-49522917D01*
X194721821Y-47591680D02*
X195986218Y-46861680D01*
X194721821Y-47591680D02*
X195186821Y-48397083D01*
%TO.C,D55*%
X210936168Y-107268202D02*
X209547747Y-108922858D01*
X210936168Y-107268202D02*
X211648590Y-107865994D01*
X213356869Y-109299411D02*
X212418399Y-110417836D01*
X213356869Y-109299411D02*
X212644447Y-108701618D01*
%TO.C,J4*%
X168570000Y-34945000D02*
X168570000Y-35065000D01*
X168570000Y-35065000D02*
X169140000Y-35065000D01*
X169900000Y-33610000D02*
X171230000Y-33610000D01*
X170660000Y-35065000D02*
X171230000Y-35065000D01*
X171230000Y-33610000D02*
X171230000Y-34370000D01*
X171230000Y-34945000D02*
X171230000Y-35065000D01*
%TO.C,R3*%
X160382936Y-53705000D02*
X160837064Y-53705000D01*
X160382936Y-55175000D02*
X160837064Y-55175000D01*
%TO.C,SW-1*%
X179750000Y-82540000D02*
X179750000Y-80540000D01*
X178700000Y-83840000D02*
X178250000Y-84290000D01*
X178700000Y-79240000D02*
X178250000Y-78790000D01*
X178250000Y-84290000D02*
X175750000Y-84290000D01*
X178250000Y-78790000D02*
X175750000Y-78790000D01*
X175300000Y-83840000D02*
X175750000Y-84290000D01*
X175300000Y-79240000D02*
X175750000Y-78790000D01*
X174250000Y-82540000D02*
X174250000Y-80540000D01*
%TO.C,D506*%
X194290000Y-45960000D02*
X196450000Y-45960000D01*
X194290000Y-45960000D02*
X194290000Y-45030000D01*
X194290000Y-42800000D02*
X195750000Y-42800000D01*
X194290000Y-42800000D02*
X194290000Y-43730000D01*
%TO.C,D4041*%
X140422818Y-97635976D02*
X138295633Y-97260896D01*
X140422818Y-97635976D02*
X140261325Y-98551848D01*
X139874090Y-100747969D02*
X138436270Y-100494443D01*
X139874090Y-100747969D02*
X140035583Y-99832098D01*
%TO.C,D2627*%
X184666225Y-80314650D02*
X186695961Y-79575886D01*
X184666225Y-80314650D02*
X184348147Y-79440736D01*
X183585442Y-77345221D02*
X184957393Y-76845872D01*
X183585442Y-77345221D02*
X183903521Y-78219135D01*
%TO.C,ENCODERLEFT2*%
X127680000Y-75300000D02*
X127680000Y-74700000D01*
X127980000Y-75000000D02*
X127680000Y-75300000D01*
X127680000Y-74700000D02*
X127980000Y-75000000D01*
X125880000Y-73600000D02*
X137680000Y-73600000D01*
X125880000Y-69500000D02*
X125880000Y-73600000D01*
X137680000Y-69500000D02*
X137680000Y-73600000D01*
X131780000Y-68000000D02*
X131780000Y-67000000D01*
X131280000Y-67500000D02*
X132280000Y-67500000D01*
X125880000Y-65500000D02*
X125880000Y-61400000D01*
X125880000Y-61400000D02*
X128280000Y-61400000D01*
X130480000Y-61400000D02*
X133080000Y-61400000D01*
X135280000Y-61400000D02*
X137680000Y-61400000D01*
X137680000Y-61400000D02*
X137680000Y-65500000D01*
X134780000Y-67500000D02*
G75*
G03*
X134780000Y-67500000I-3000000J0D01*
G01*
%TO.C,D203*%
X145008179Y-47581680D02*
X143137564Y-46501680D01*
X145008179Y-47581680D02*
X144543179Y-48387083D01*
X143428179Y-50318320D02*
X142163782Y-49588320D01*
X143428179Y-50318320D02*
X143893179Y-49512917D01*
%TO.C,U2*%
X172605000Y-58835000D02*
X172605000Y-58575000D01*
X172605000Y-58575000D02*
X174280000Y-58575000D01*
X172605000Y-53385000D02*
X172605000Y-53645000D01*
X169880000Y-58835000D02*
X172605000Y-58835000D01*
X169880000Y-58835000D02*
X167155000Y-58835000D01*
X169880000Y-53385000D02*
X172605000Y-53385000D01*
X169880000Y-53385000D02*
X167155000Y-53385000D01*
X167155000Y-58835000D02*
X167155000Y-58575000D01*
X167155000Y-53385000D02*
X167155000Y-53645000D01*
%TO.C,ENCODERLEFT1*%
X142680000Y-75300000D02*
X142680000Y-74700000D01*
X142980000Y-75000000D02*
X142680000Y-75300000D01*
X142680000Y-74700000D02*
X142980000Y-75000000D01*
X140880000Y-73600000D02*
X152680000Y-73600000D01*
X140880000Y-69500000D02*
X140880000Y-73600000D01*
X152680000Y-69500000D02*
X152680000Y-73600000D01*
X146780000Y-68000000D02*
X146780000Y-67000000D01*
X146280000Y-67500000D02*
X147280000Y-67500000D01*
X140880000Y-65500000D02*
X140880000Y-61400000D01*
X140880000Y-61400000D02*
X143280000Y-61400000D01*
X145480000Y-61400000D02*
X148080000Y-61400000D01*
X150280000Y-61400000D02*
X152680000Y-61400000D01*
X152680000Y-61400000D02*
X152680000Y-65500000D01*
X149780000Y-67500000D02*
G75*
G03*
X149780000Y-67500000I-3000000J0D01*
G01*
%TO.C,C12*%
X156925010Y-42814457D02*
X156555543Y-42444990D01*
X157964457Y-41775010D02*
X157594990Y-41405543D01*
%TO.C,R6*%
X150679165Y-55459718D02*
X151000282Y-55780835D01*
X149639718Y-56499165D02*
X149960835Y-56820282D01*
%TO.C,J2*%
X181320000Y-73720000D02*
X181320000Y-75050000D01*
X179990000Y-73720000D02*
X181320000Y-73720000D01*
X178720000Y-73720000D02*
X171040000Y-73720000D01*
X178720000Y-73720000D02*
X178720000Y-76380000D01*
X171040000Y-73720000D02*
X171040000Y-76380000D01*
X178720000Y-76380000D02*
X171040000Y-76380000D01*
%TO.C,G\u002A\u002A\u002A*%
G36*
X156594747Y-106552953D02*
G01*
X156694608Y-106706926D01*
X156814164Y-106938604D01*
X156943212Y-107227577D01*
X157071548Y-107553437D01*
X157119080Y-107685763D01*
X157179619Y-107904373D01*
X157232451Y-108177141D01*
X157274564Y-108474022D01*
X157302946Y-108764972D01*
X157314585Y-109019946D01*
X157306469Y-109208900D01*
X157280580Y-109296724D01*
X157173412Y-109365961D01*
X157061736Y-109361337D01*
X157023000Y-109327420D01*
X157004795Y-109247019D01*
X156981755Y-109073961D01*
X156957933Y-108840396D01*
X156950031Y-108748725D01*
X156857405Y-108157792D01*
X156683466Y-107550534D01*
X156446324Y-106989067D01*
X156356505Y-106792773D01*
X156329261Y-106669889D01*
X156358043Y-106589527D01*
X156360900Y-106585993D01*
X156469505Y-106509191D01*
X156524786Y-106497093D01*
X156594747Y-106552953D01*
G37*
G36*
X156971758Y-105279797D02*
G01*
X157057583Y-105344089D01*
X157204000Y-105478608D01*
X157393042Y-105664397D01*
X157606745Y-105882505D01*
X157827144Y-106113977D01*
X158036274Y-106339860D01*
X158216171Y-106541200D01*
X158348869Y-106699043D01*
X158416404Y-106794435D01*
X158421330Y-106809163D01*
X158377579Y-106900910D01*
X158277525Y-107014434D01*
X158167967Y-107102119D01*
X158113159Y-107122709D01*
X158051210Y-107080144D01*
X157919586Y-106962993D01*
X157735116Y-106787076D01*
X157514629Y-106568211D01*
X157409341Y-106461150D01*
X157114917Y-106156568D01*
X156901085Y-105925037D01*
X156758903Y-105752205D01*
X156679427Y-105623722D01*
X156653715Y-105525235D01*
X156672822Y-105442393D01*
X156725482Y-105363705D01*
X156831951Y-105266044D01*
X156938235Y-105266021D01*
X156971758Y-105279797D01*
G37*
G36*
X155969837Y-104262879D02*
G01*
X156010530Y-104303928D01*
X156011617Y-104305671D01*
X156004491Y-104407161D01*
X155906424Y-104563669D01*
X155732097Y-104763129D01*
X155496189Y-104993477D01*
X155213380Y-105242647D01*
X154898352Y-105498576D01*
X154565783Y-105749197D01*
X154230354Y-105982446D01*
X153906745Y-106186258D01*
X153609636Y-106348567D01*
X153425844Y-106430811D01*
X153201536Y-106515100D01*
X153064729Y-106550685D01*
X152988401Y-106539268D01*
X152945533Y-106482551D01*
X152936922Y-106461607D01*
X152922347Y-106384866D01*
X152959873Y-106320317D01*
X153069744Y-106251624D01*
X153272206Y-106162453D01*
X153343568Y-106133472D01*
X153780799Y-105915139D01*
X154274902Y-105590073D01*
X154822052Y-105160955D01*
X155198498Y-104832774D01*
X155476661Y-104584212D01*
X155678423Y-104412311D01*
X155818238Y-104307702D01*
X155910558Y-104261014D01*
X155969837Y-104262879D01*
G37*
G36*
X157783436Y-99469807D02*
G01*
X158125403Y-99569393D01*
X158246129Y-99637088D01*
X158381846Y-99762091D01*
X158464095Y-99902141D01*
X158484388Y-100026411D01*
X158434233Y-100104077D01*
X158377973Y-100115812D01*
X158256082Y-100066928D01*
X158187711Y-99994066D01*
X158062984Y-99888721D01*
X157853870Y-99802896D01*
X157600978Y-99750459D01*
X157445993Y-99740792D01*
X157219237Y-99764210D01*
X156918735Y-99827526D01*
X156584880Y-99919378D01*
X156258069Y-100028402D01*
X155978694Y-100143237D01*
X155928740Y-100167579D01*
X155732285Y-100257127D01*
X155574014Y-100311584D01*
X155496576Y-100319854D01*
X155429337Y-100242797D01*
X155418374Y-100183026D01*
X155474682Y-100097377D01*
X155627724Y-99989127D01*
X155853676Y-99869168D01*
X156128718Y-99748397D01*
X156429026Y-99637707D01*
X156730778Y-99547993D01*
X156885075Y-99512280D01*
X157365040Y-99450315D01*
X157783436Y-99469807D01*
G37*
G36*
X153799807Y-98531913D02*
G01*
X153840743Y-98567413D01*
X153875565Y-98653522D01*
X153928874Y-98838929D01*
X153994624Y-99100237D01*
X154066767Y-99414049D01*
X154103496Y-99584039D01*
X154185493Y-99953452D01*
X154273375Y-100318767D01*
X154358066Y-100644099D01*
X154430488Y-100893562D01*
X154448864Y-100949405D01*
X154523334Y-101171377D01*
X154558140Y-101307919D01*
X154554863Y-101391730D01*
X154515082Y-101455512D01*
X154475299Y-101496819D01*
X154349940Y-101598117D01*
X154251316Y-101596431D01*
X154146069Y-101503446D01*
X154069093Y-101382190D01*
X153979933Y-101190451D01*
X153922984Y-101040650D01*
X153861201Y-100835256D01*
X153790289Y-100558326D01*
X153714950Y-100233483D01*
X153639886Y-99884349D01*
X153569800Y-99534548D01*
X153509394Y-99207701D01*
X153463371Y-98927432D01*
X153436433Y-98717362D01*
X153433282Y-98601114D01*
X153435566Y-98592076D01*
X153522933Y-98513387D01*
X153664073Y-98492132D01*
X153799807Y-98531913D01*
G37*
%TO.C,C1*%
X160338748Y-64195000D02*
X160861252Y-64195000D01*
X160338748Y-65665000D02*
X160861252Y-65665000D01*
%TO.C,D4445*%
X134182202Y-106807876D02*
X135836858Y-108196297D01*
X134182202Y-106807876D02*
X134779994Y-106095454D01*
X136213411Y-104387175D02*
X137331836Y-105325645D01*
X136213411Y-104387175D02*
X135615618Y-105099597D01*
%TO.C,C17*%
X160861252Y-57835000D02*
X160338748Y-57835000D01*
X160861252Y-56365000D02*
X160338748Y-56365000D01*
%TO.C,U44*%
X157490000Y-55260000D02*
X157490000Y-53460000D01*
X157490000Y-55260000D02*
X157490000Y-56060000D01*
X154370000Y-55260000D02*
X154370000Y-54460000D01*
X154370000Y-55260000D02*
X154370000Y-56060000D01*
%TO.C,DLED3*%
X197420000Y-58730000D02*
X190120000Y-58730000D01*
X197420000Y-53230000D02*
X190120000Y-53230000D01*
X190120000Y-53230000D02*
X190120000Y-54380000D01*
%TO.C,D56*%
X171470000Y-65190000D02*
X171470000Y-63030000D01*
X171470000Y-65190000D02*
X170540000Y-65190000D01*
X168310000Y-65190000D02*
X168310000Y-63730000D01*
X168310000Y-65190000D02*
X169240000Y-65190000D01*
%TO.C,D10011*%
X198798015Y-53439399D02*
X200452671Y-52050978D01*
X198798015Y-53439399D02*
X198200222Y-52726977D01*
X196766806Y-51018698D02*
X197885231Y-50080228D01*
X196766806Y-51018698D02*
X197364598Y-51731120D01*
%TO.C,D1415*%
X132610000Y-57970000D02*
X132610000Y-55810000D01*
X132610000Y-57970000D02*
X131680000Y-57970000D01*
X129450000Y-57970000D02*
X129450000Y-56510000D01*
X129450000Y-57970000D02*
X130380000Y-57970000D01*
%TO.C,D210211*%
X190515596Y-86559204D02*
X191595596Y-84688589D01*
X190515596Y-86559204D02*
X189710193Y-86094204D01*
X187778956Y-84979204D02*
X188508956Y-83714807D01*
X187778956Y-84979204D02*
X188584359Y-85444204D01*
%TO.C,J5*%
X156035000Y-69130000D02*
X156035000Y-67800000D01*
X157365000Y-69130000D02*
X156035000Y-69130000D01*
X158635000Y-69130000D02*
X161235000Y-69130000D01*
X158635000Y-69130000D02*
X158635000Y-66470000D01*
X161235000Y-69130000D02*
X161235000Y-66470000D01*
X158635000Y-66470000D02*
X161235000Y-66470000D01*
%TO.C,D3233*%
X144527969Y-87604090D02*
X144152889Y-85476905D01*
X144527969Y-87604090D02*
X143612098Y-87765583D01*
X141415976Y-88152818D02*
X141162450Y-86714999D01*
X141415976Y-88152818D02*
X142331848Y-87991325D01*
%TO.C,C5*%
X170635000Y-60658748D02*
X170635000Y-61181252D01*
X169165000Y-60658748D02*
X169165000Y-61181252D01*
%TO.C,D1213*%
X136824650Y-56673775D02*
X136085886Y-54644039D01*
X136824650Y-56673775D02*
X135950736Y-56991853D01*
X133855221Y-57754558D02*
X133355872Y-56382607D01*
X133855221Y-57754558D02*
X134729135Y-57436479D01*
%TO.C,D3839*%
X198334024Y-88152818D02*
X198709104Y-86025633D01*
X198334024Y-88152818D02*
X197418152Y-87991325D01*
X195222031Y-87604090D02*
X195475557Y-86166270D01*
X195222031Y-87604090D02*
X196137902Y-87765583D01*
%TO.C,DLED1*%
X149960000Y-39800000D02*
X142660000Y-39800000D01*
X149960000Y-34300000D02*
X142660000Y-34300000D01*
X142660000Y-34300000D02*
X142660000Y-35450000D01*
%TO.C,SW-2*%
X165530000Y-82530000D02*
X165530000Y-80530000D01*
X164480000Y-83830000D02*
X164030000Y-84280000D01*
X164480000Y-79230000D02*
X164030000Y-78780000D01*
X164030000Y-84280000D02*
X161530000Y-84280000D01*
X164030000Y-78780000D02*
X161530000Y-78780000D01*
X161080000Y-83830000D02*
X161530000Y-84280000D01*
X161080000Y-79230000D02*
X161530000Y-78780000D01*
X160030000Y-82530000D02*
X160030000Y-80530000D01*
%TO.C,ENCODERRIGHT2*%
X203870000Y-75220000D02*
X203870000Y-74620000D01*
X204170000Y-74920000D02*
X203870000Y-75220000D01*
X203870000Y-74620000D02*
X204170000Y-74920000D01*
X202070000Y-73520000D02*
X213870000Y-73520000D01*
X202070000Y-69420000D02*
X202070000Y-73520000D01*
X213870000Y-69420000D02*
X213870000Y-73520000D01*
X207970000Y-67920000D02*
X207970000Y-66920000D01*
X207470000Y-67420000D02*
X208470000Y-67420000D01*
X202070000Y-65420000D02*
X202070000Y-61320000D01*
X202070000Y-61320000D02*
X204470000Y-61320000D01*
X206670000Y-61320000D02*
X209270000Y-61320000D01*
X211470000Y-61320000D02*
X213870000Y-61320000D01*
X213870000Y-61320000D02*
X213870000Y-65420000D01*
X210970000Y-67420000D02*
G75*
G03*
X210970000Y-67420000I-3000000J0D01*
G01*
%TO.C,R8*%
X163999718Y-60720835D02*
X164320835Y-60399718D01*
X165039165Y-61760282D02*
X165360282Y-61439165D01*
%TO.C,ENCODERRIGHT1*%
X188870000Y-75280000D02*
X188870000Y-74680000D01*
X189170000Y-74980000D02*
X188870000Y-75280000D01*
X188870000Y-74680000D02*
X189170000Y-74980000D01*
X187070000Y-73580000D02*
X198870000Y-73580000D01*
X187070000Y-69480000D02*
X187070000Y-73580000D01*
X198870000Y-69480000D02*
X198870000Y-73580000D01*
X192970000Y-67980000D02*
X192970000Y-66980000D01*
X192470000Y-67480000D02*
X193470000Y-67480000D01*
X187070000Y-65480000D02*
X187070000Y-61380000D01*
X187070000Y-61380000D02*
X189470000Y-61380000D01*
X191670000Y-61380000D02*
X194270000Y-61380000D01*
X196470000Y-61380000D02*
X198870000Y-61380000D01*
X198870000Y-61380000D02*
X198870000Y-65480000D01*
X195970000Y-67480000D02*
G75*
G03*
X195970000Y-67480000I-3000000J0D01*
G01*
%TO.C,C6*%
X166944457Y-34124990D02*
X166574990Y-34494457D01*
X165905010Y-33085543D02*
X165535543Y-33455010D01*
%TO.C,D4243*%
X139438179Y-101931680D02*
X137567564Y-100851680D01*
X139438179Y-101931680D02*
X138973179Y-102737083D01*
X137858179Y-104668320D02*
X136593782Y-103938320D01*
X137858179Y-104668320D02*
X138323179Y-103862917D01*
%TO.C,C11*%
X155475010Y-44244457D02*
X155105543Y-43874990D01*
X156514457Y-43205010D02*
X156144990Y-42835543D01*
%TO.C,D4647*%
X209246611Y-107770869D02*
X210901267Y-106382448D01*
X209246611Y-107770869D02*
X208648818Y-107058447D01*
X207215402Y-105350168D02*
X208333827Y-104411698D01*
X207215402Y-105350168D02*
X207813194Y-106062590D01*
%TO.C,DLED0*%
X179146396Y-51925483D02*
X173984517Y-46763604D01*
X183035483Y-48036396D02*
X177873604Y-42874517D01*
X177873604Y-42874517D02*
X177060431Y-43687689D01*
%TO.C,R4*%
X160382936Y-51705000D02*
X160837064Y-51705000D01*
X160382936Y-53175000D02*
X160837064Y-53175000D01*
%TO.C,D410411*%
X204725910Y-100727969D02*
X206853095Y-100352889D01*
X204725910Y-100727969D02*
X204564417Y-99812098D01*
X204177182Y-97615976D02*
X205615001Y-97362450D01*
X204177182Y-97615976D02*
X204338675Y-98531848D01*
%TO.C,R1*%
X175439165Y-60399718D02*
X175760282Y-60720835D01*
X174399718Y-61439165D02*
X174720835Y-61760282D01*
%TO.C,D2829*%
X186601821Y-83798320D02*
X188472436Y-82718320D01*
X186601821Y-83798320D02*
X186136821Y-82992917D01*
X185021821Y-81061680D02*
X186286218Y-80331680D01*
X185021821Y-81061680D02*
X185486821Y-81867083D01*
%TO.C,D1*%
X142947798Y-51008168D02*
X141293142Y-49619747D01*
X142947798Y-51008168D02*
X142350006Y-51720590D01*
X140916589Y-53428869D02*
X139798164Y-52490399D01*
X140916589Y-53428869D02*
X141514382Y-52716447D01*
%TO.C,D3031*%
X148067969Y-86984090D02*
X147692889Y-84856905D01*
X148067969Y-86984090D02*
X147152098Y-87145583D01*
X144955976Y-87532818D02*
X144702450Y-86094999D01*
X144955976Y-87532818D02*
X145871848Y-87371325D01*
%TO.C,D3*%
X134743869Y-108428545D02*
X133355448Y-106773889D01*
X134743869Y-108428545D02*
X134031447Y-109026338D01*
X132323168Y-110459754D02*
X131384698Y-109341329D01*
X132323168Y-110459754D02*
X133035590Y-109861962D01*
%TO.C,DLED0.5*%
X154084517Y-48036396D02*
X159246396Y-42874517D01*
X157973604Y-51925483D02*
X163135483Y-46763604D01*
X163135483Y-46763604D02*
X162322311Y-45950431D01*
%TO.C,D310311*%
X194814024Y-87532818D02*
X195189104Y-85405633D01*
X194814024Y-87532818D02*
X193898152Y-87371325D01*
X191702031Y-86984090D02*
X191955557Y-85546270D01*
X191702031Y-86984090D02*
X192617902Y-87145583D01*
%TO.C,F0*%
X154747936Y-57660000D02*
X155952064Y-57660000D01*
X154747936Y-59480000D02*
X155952064Y-59480000D01*
%TO.C,D3637*%
X202330000Y-88230000D02*
X202330000Y-86070000D01*
X202330000Y-88230000D02*
X201400000Y-88230000D01*
X199170000Y-88230000D02*
X199170000Y-86770000D01*
X199170000Y-88230000D02*
X200100000Y-88230000D01*
%TO.C,U1*%
X159840000Y-63670000D02*
X162000000Y-63670000D01*
X159840000Y-63670000D02*
X159840000Y-62740000D01*
X159840000Y-60510000D02*
X161300000Y-60510000D01*
X159840000Y-60510000D02*
X159840000Y-61440000D01*
%TO.C,D2223*%
X154728179Y-81071680D02*
X152857564Y-79991680D01*
X154728179Y-81071680D02*
X154263179Y-81877083D01*
X153148179Y-83808320D02*
X151883782Y-83078320D01*
X153148179Y-83808320D02*
X153613179Y-83002917D01*
%TO.C,D2425*%
X156174558Y-77355221D02*
X154144822Y-76616457D01*
X156174558Y-77355221D02*
X155856479Y-78229135D01*
X155093775Y-80324650D02*
X153721823Y-79825300D01*
X155093775Y-80324650D02*
X155411853Y-79450736D01*
%TO.C,R5*%
X179951073Y-40436945D02*
X180211550Y-40064945D01*
X181155226Y-41280103D02*
X181415703Y-40908103D01*
%TO.C,C10*%
X160192669Y-39793778D02*
X159892973Y-39365768D01*
X161396823Y-38950620D02*
X161097127Y-38522610D01*
%TO.C,C14*%
X158577771Y-41245584D02*
X158278075Y-40817574D01*
X159781925Y-40402426D02*
X159482229Y-39974416D01*
%TO.C,C3*%
X179891925Y-39557574D02*
X179592229Y-39985584D01*
X178687771Y-38714416D02*
X178388075Y-39142426D01*
%TO.C,C13*%
X154015010Y-45674457D02*
X153645543Y-45304990D01*
X155054457Y-44635010D02*
X154684990Y-44265543D01*
%TD*%
M02*
