%TF.GenerationSoftware,KiCad,Pcbnew,(6.0.8)*%
%TF.CreationDate,2022-10-26T23:20:13+02:00*%
%TF.ProjectId,32u4,33327534-2e6b-4696-9361-645f70636258,rev?*%
%TF.SameCoordinates,Original*%
%TF.FileFunction,Soldermask,Top*%
%TF.FilePolarity,Negative*%
%FSLAX46Y46*%
G04 Gerber Fmt 4.6, Leading zero omitted, Abs format (unit mm)*
G04 Created by KiCad (PCBNEW (6.0.8)) date 2022-10-26 23:20:13*
%MOMM*%
%LPD*%
G01*
G04 APERTURE LIST*
G04 Aperture macros list*
%AMRoundRect*
0 Rectangle with rounded corners*
0 $1 Rounding radius*
0 $2 $3 $4 $5 $6 $7 $8 $9 X,Y pos of 4 corners*
0 Add a 4 corners polygon primitive as box body*
4,1,4,$2,$3,$4,$5,$6,$7,$8,$9,$2,$3,0*
0 Add four circle primitives for the rounded corners*
1,1,$1+$1,$2,$3*
1,1,$1+$1,$4,$5*
1,1,$1+$1,$6,$7*
1,1,$1+$1,$8,$9*
0 Add four rect primitives between the rounded corners*
20,1,$1+$1,$2,$3,$4,$5,0*
20,1,$1+$1,$4,$5,$6,$7,0*
20,1,$1+$1,$6,$7,$8,$9,0*
20,1,$1+$1,$8,$9,$2,$3,0*%
%AMHorizOval*
0 Thick line with rounded ends*
0 $1 width*
0 $2 $3 position (X,Y) of the first rounded end (center of the circle)*
0 $4 $5 position (X,Y) of the second rounded end (center of the circle)*
0 Add line between two ends*
20,1,$1,$2,$3,$4,$5,0*
0 Add two circle primitives to create the rounded ends*
1,1,$1,$2,$3*
1,1,$1,$4,$5*%
%AMRotRect*
0 Rectangle, with rotation*
0 The origin of the aperture is its center*
0 $1 length*
0 $2 width*
0 $3 Rotation angle, in degrees counterclockwise*
0 Add horizontal line*
21,1,$1,$2,0,0,$3*%
G04 Aperture macros list end*
%ADD10RotRect,0.900000X0.800000X250.000000*%
%ADD11RoundRect,0.250000X0.250000X0.475000X-0.250000X0.475000X-0.250000X-0.475000X0.250000X-0.475000X0*%
%ADD12RoundRect,0.250000X-0.512652X-0.159099X-0.159099X-0.512652X0.512652X0.159099X0.159099X0.512652X0*%
%ADD13R,0.900000X0.800000*%
%ADD14C,1.200000*%
%ADD15C,1.750000*%
%ADD16C,3.987800*%
%ADD17C,1.700000*%
%ADD18HorizOval,2.250000X0.019771X0.290016X-0.019771X-0.290016X0*%
%ADD19C,2.250000*%
%ADD20C,2.000000*%
%ADD21HorizOval,2.250000X0.654995X0.730004X-0.654995X-0.730004X0*%
%ADD22R,1.500000X1.000000*%
%ADD23RoundRect,0.050000X0.309359X-0.238649X-0.238649X0.309359X-0.309359X0.238649X0.238649X-0.309359X0*%
%ADD24RoundRect,0.050000X0.309359X0.238649X0.238649X0.309359X-0.309359X-0.238649X-0.238649X-0.309359X0*%
%ADD25RoundRect,0.144000X2.059095X0.000000X0.000000X2.059095X-2.059095X0.000000X0.000000X-2.059095X0*%
%ADD26R,0.800000X0.900000*%
%ADD27RoundRect,0.250000X-0.159099X0.512652X-0.512652X0.159099X0.159099X-0.512652X0.512652X-0.159099X0*%
%ADD28C,6.400000*%
%ADD29C,0.800000*%
%ADD30RoundRect,0.250000X-0.503814X-0.132583X-0.132583X-0.503814X0.503814X0.132583X0.132583X0.503814X0*%
%ADD31R,1.700000X1.700000*%
%ADD32O,1.700000X1.700000*%
%ADD33RotRect,0.900000X0.800000X300.000000*%
%ADD34RoundRect,0.250000X-0.250000X-0.475000X0.250000X-0.475000X0.250000X0.475000X-0.250000X0.475000X0*%
%ADD35C,3.048000*%
%ADD36RoundRect,0.250000X0.512652X0.159099X0.159099X0.512652X-0.512652X-0.159099X-0.159099X-0.512652X0*%
%ADD37RotRect,0.900000X0.800000X310.000000*%
%ADD38RotRect,1.400000X1.200000X315.000000*%
%ADD39RotRect,0.900000X0.800000X230.000000*%
%ADD40RotRect,0.900000X0.800000X210.000000*%
%ADD41RotRect,0.900000X0.800000X40.000000*%
%ADD42R,1.000000X1.000000*%
%ADD43RoundRect,0.250000X-0.262500X-0.450000X0.262500X-0.450000X0.262500X0.450000X-0.262500X0.450000X0*%
%ADD44R,1.700000X1.000000*%
%ADD45RotRect,0.900000X0.800000X350.000000*%
%ADD46RotRect,0.900000X0.800000X200.000000*%
%ADD47R,2.000000X2.000000*%
%ADD48R,2.000000X3.200000*%
%ADD49RotRect,0.900000X0.800000X330.000000*%
%ADD50RoundRect,0.150000X0.650000X0.150000X-0.650000X0.150000X-0.650000X-0.150000X0.650000X-0.150000X0*%
%ADD51RotRect,0.900000X0.800000X140.000000*%
%ADD52RoundRect,0.150000X-0.150000X0.512500X-0.150000X-0.512500X0.150000X-0.512500X0.150000X0.512500X0*%
%ADD53RotRect,0.900000X0.800000X220.000000*%
%ADD54RotRect,0.900000X0.800000X240.000000*%
%ADD55RotRect,0.900000X0.800000X280.000000*%
%ADD56RoundRect,0.250000X-0.475000X0.250000X-0.475000X-0.250000X0.475000X-0.250000X0.475000X0.250000X0*%
%ADD57RotRect,0.900000X0.800000X290.000000*%
%ADD58RotRect,0.900000X0.800000X260.000000*%
%ADD59RoundRect,0.250000X0.132583X-0.503814X0.503814X-0.132583X-0.132583X0.503814X-0.503814X0.132583X0*%
%ADD60RotRect,1.500000X1.000000X135.000000*%
%ADD61RotRect,0.900000X0.800000X190.000000*%
%ADD62HorizOval,2.250000X0.290016X-0.019771X-0.290016X0.019771X0*%
%ADD63HorizOval,2.250000X0.730004X-0.654995X-0.730004X0.654995X0*%
%ADD64RotRect,0.900000X0.800000X320.000000*%
%ADD65RotRect,1.500000X1.000000X45.000000*%
%ADD66RoundRect,0.250000X-0.375000X-0.625000X0.375000X-0.625000X0.375000X0.625000X-0.375000X0.625000X0*%
%ADD67RotRect,0.900000X0.800000X340.000000*%
%ADD68RoundRect,0.250000X0.218055X-0.473137X0.519182X-0.043082X-0.218055X0.473137X-0.519182X0.043082X0*%
%ADD69RoundRect,0.250000X0.532491X0.067661X0.245703X0.477237X-0.532491X-0.067661X-0.245703X-0.477237X0*%
%ADD70RoundRect,0.250000X-0.245703X0.477237X-0.532491X0.067661X0.245703X-0.477237X0.532491X-0.067661X0*%
%ADD71HorizOval,2.250000X-0.290016X0.019771X0.290016X-0.019771X0*%
%ADD72HorizOval,2.250000X-0.730004X0.654995X0.730004X-0.654995X0*%
%ADD73C,0.650000*%
%ADD74O,1.000000X2.100000*%
%ADD75O,1.000000X1.600000*%
G04 APERTURE END LIST*
%TO.C,G\u002A\u002A\u002A*%
G36*
X165856660Y-102834112D02*
G01*
X166017235Y-102375389D01*
X166167435Y-101948421D01*
X166302059Y-101568184D01*
X166415907Y-101249652D01*
X166503779Y-101007800D01*
X166560473Y-100857604D01*
X166563140Y-100850911D01*
X166615491Y-100749926D01*
X166692934Y-100698687D01*
X166833971Y-100680644D01*
X166963401Y-100678867D01*
X167294725Y-100678867D01*
X167393602Y-100944753D01*
X167480098Y-101181188D01*
X167592924Y-101495448D01*
X167726911Y-101872635D01*
X167876889Y-102297854D01*
X168037690Y-102756208D01*
X168204142Y-103232801D01*
X168371078Y-103712735D01*
X168533328Y-104181115D01*
X168685722Y-104623043D01*
X168823090Y-105023624D01*
X168940264Y-105367960D01*
X169032073Y-105641156D01*
X169093349Y-105828314D01*
X169118922Y-105914538D01*
X169119360Y-105917783D01*
X169072958Y-105964124D01*
X168925642Y-105989541D01*
X168697069Y-105996398D01*
X168274778Y-105996195D01*
X167994927Y-105183097D01*
X167715075Y-104370000D01*
X166192013Y-104370000D01*
X165919602Y-105167660D01*
X165647192Y-105965320D01*
X165224901Y-105983819D01*
X164985766Y-105987502D01*
X164851612Y-105970573D01*
X164803571Y-105930209D01*
X164802611Y-105920710D01*
X164822557Y-105850070D01*
X164878930Y-105676409D01*
X164966529Y-105414703D01*
X165080154Y-105079926D01*
X165214605Y-104687054D01*
X165364681Y-104251061D01*
X165525182Y-103786923D01*
X165624444Y-103501041D01*
X166512617Y-103501041D01*
X166553538Y-103534796D01*
X166665162Y-103551304D01*
X166870820Y-103556474D01*
X166963463Y-103556699D01*
X167217631Y-103551144D01*
X167363099Y-103532629D01*
X167415876Y-103498375D01*
X167414203Y-103478497D01*
X167383553Y-103389508D01*
X167323568Y-103209817D01*
X167243640Y-102967701D01*
X167174269Y-102756075D01*
X166963715Y-102111855D01*
X166759257Y-102721707D01*
X166669514Y-102989955D01*
X166592123Y-103222317D01*
X166537466Y-103387565D01*
X166519070Y-103444129D01*
X166512617Y-103501041D01*
X165624444Y-103501041D01*
X165690909Y-103309615D01*
X165856660Y-102834112D01*
G37*
G36*
X186888515Y-103587980D02*
G01*
X186928277Y-102905903D01*
X187047757Y-102319070D01*
X187247880Y-101825525D01*
X187529574Y-101423312D01*
X187893764Y-101110476D01*
X188124650Y-100978218D01*
X188360171Y-100870106D01*
X188553613Y-100808356D01*
X188760070Y-100780808D01*
X189034639Y-100775303D01*
X189043906Y-100775348D01*
X189487965Y-100810453D01*
X189858772Y-100919154D01*
X190192465Y-101114308D01*
X190345351Y-101238316D01*
X190575576Y-101440456D01*
X190058938Y-102040236D01*
X189786972Y-101832639D01*
X189449484Y-101644350D01*
X189098492Y-101570037D01*
X188753365Y-101602948D01*
X188433473Y-101736333D01*
X188158187Y-101963440D01*
X187946878Y-102277518D01*
X187858938Y-102504633D01*
X187790683Y-102746859D01*
X187769476Y-102886102D01*
X187804182Y-102938535D01*
X187903664Y-102920329D01*
X188052781Y-102858297D01*
X188474031Y-102728994D01*
X188920089Y-102691368D01*
X189357791Y-102742959D01*
X189753971Y-102881306D01*
X189949858Y-102999022D01*
X190143582Y-103182230D01*
X190321357Y-103422834D01*
X190370353Y-103509192D01*
X190462071Y-103707917D01*
X190514201Y-103893635D01*
X190537035Y-104116336D01*
X190541126Y-104338719D01*
X190496889Y-104809514D01*
X190359493Y-105200612D01*
X190122920Y-105522106D01*
X189781153Y-105784086D01*
X189630438Y-105866158D01*
X189183274Y-106021758D01*
X188714015Y-106060053D01*
X188246866Y-105979980D01*
X188111296Y-105932930D01*
X187875235Y-105811967D01*
X187639633Y-105647354D01*
X187558581Y-105576127D01*
X187281023Y-105247069D01*
X187081637Y-104865058D01*
X186954842Y-104413531D01*
X186908044Y-103992727D01*
X187710992Y-103992727D01*
X187789283Y-104329525D01*
X187915642Y-104704498D01*
X188103121Y-104978930D01*
X188364316Y-105167612D01*
X188572356Y-105249101D01*
X188732460Y-105291402D01*
X188857032Y-105296592D01*
X189012765Y-105264250D01*
X189080059Y-105245909D01*
X189271476Y-105157925D01*
X189457678Y-105020407D01*
X189486709Y-104991903D01*
X189582542Y-104881335D01*
X189637797Y-104773540D01*
X189663494Y-104629265D01*
X189670653Y-104409255D01*
X189670837Y-104336033D01*
X189666463Y-104089571D01*
X189646546Y-103930204D01*
X189600899Y-103820018D01*
X189519332Y-103721097D01*
X189500441Y-103701955D01*
X189378852Y-103601862D01*
X189237249Y-103544161D01*
X189031241Y-103513576D01*
X188931529Y-103506183D01*
X188638038Y-103506814D01*
X188390105Y-103560802D01*
X188142823Y-103683011D01*
X187908895Y-103844660D01*
X187710992Y-103992727D01*
X186908044Y-103992727D01*
X186895054Y-103875925D01*
X186888515Y-103587980D01*
G37*
G36*
X161686079Y-102599870D02*
G01*
X161691964Y-103142978D01*
X161697991Y-103575854D01*
X161705255Y-103913387D01*
X161714851Y-104170464D01*
X161727873Y-104361974D01*
X161745416Y-104502804D01*
X161768574Y-104607842D01*
X161798444Y-104691976D01*
X161836118Y-104770095D01*
X161847190Y-104791001D01*
X162028018Y-105040065D01*
X162258222Y-105185571D01*
X162556643Y-105236940D01*
X162727541Y-105231101D01*
X162950757Y-105200361D01*
X163100949Y-105139229D01*
X163229955Y-105025422D01*
X163245220Y-105008572D01*
X163378403Y-104817042D01*
X163476560Y-104603184D01*
X163484607Y-104576659D01*
X163503919Y-104442467D01*
X163520510Y-104196804D01*
X163533944Y-103853303D01*
X163543781Y-103425596D01*
X163549586Y-102927315D01*
X163551030Y-102508793D01*
X163551379Y-100678867D01*
X164437970Y-100678867D01*
X164412872Y-102633916D01*
X164403716Y-103245472D01*
X164391890Y-103746529D01*
X164374989Y-104151714D01*
X164350608Y-104475649D01*
X164316342Y-104732961D01*
X164269787Y-104938274D01*
X164208537Y-105106212D01*
X164130187Y-105251400D01*
X164032333Y-105388464D01*
X163941886Y-105498012D01*
X163681828Y-105749499D01*
X163393191Y-105914548D01*
X163044900Y-106006716D01*
X162706798Y-106036927D01*
X162447638Y-106039581D01*
X162219456Y-106029500D01*
X162065452Y-106008828D01*
X162049496Y-106004329D01*
X161657511Y-105826981D01*
X161348222Y-105574015D01*
X161115449Y-105236564D01*
X160953010Y-104805762D01*
X160857228Y-104293858D01*
X160840058Y-104080981D01*
X160826228Y-103768459D01*
X160816294Y-103381739D01*
X160810813Y-102946269D01*
X160810342Y-102487496D01*
X160812323Y-102242906D01*
X160829951Y-100710147D01*
X161248148Y-100691742D01*
X161666346Y-100673336D01*
X161686079Y-102599870D01*
G37*
G36*
X186073547Y-103744384D02*
G01*
X182570099Y-103744384D01*
X182570099Y-102931083D01*
X186073547Y-102931083D01*
X186073547Y-103744384D01*
G37*
G36*
X149998139Y-106027141D02*
G01*
X150016956Y-105652512D01*
X150550768Y-105652512D01*
X150557530Y-105759356D01*
X150577115Y-105768763D01*
X150579608Y-105763185D01*
X150591984Y-105638989D01*
X150581926Y-105575501D01*
X150562012Y-105549988D01*
X150551180Y-105633084D01*
X150550768Y-105652512D01*
X150016956Y-105652512D01*
X150022755Y-105537049D01*
X150067606Y-105334491D01*
X150606072Y-105334491D01*
X150617574Y-105415634D01*
X150638931Y-105416603D01*
X150653865Y-105332871D01*
X150643870Y-105296693D01*
X150616090Y-105272996D01*
X150606072Y-105334491D01*
X150067606Y-105334491D01*
X150114935Y-105120739D01*
X150663695Y-105120739D01*
X150686585Y-105172234D01*
X150705402Y-105162446D01*
X150712890Y-105088200D01*
X150705402Y-105079031D01*
X150668210Y-105087619D01*
X150663695Y-105120739D01*
X150114935Y-105120739D01*
X150142030Y-104998373D01*
X150166147Y-104933054D01*
X150726256Y-104933054D01*
X150749146Y-104984549D01*
X150767964Y-104974762D01*
X150775451Y-104900516D01*
X150767964Y-104891346D01*
X150730771Y-104899934D01*
X150726256Y-104933054D01*
X150166147Y-104933054D01*
X150223895Y-104776650D01*
X150790734Y-104776650D01*
X150816550Y-104787841D01*
X150851379Y-104745369D01*
X150904318Y-104631318D01*
X150912025Y-104588965D01*
X150886209Y-104577774D01*
X150851379Y-104620246D01*
X150798441Y-104734297D01*
X150790734Y-104776650D01*
X150223895Y-104776650D01*
X150339390Y-104463842D01*
X150913941Y-104463842D01*
X150945222Y-104495123D01*
X150976502Y-104463842D01*
X150945222Y-104432561D01*
X150913941Y-104463842D01*
X150339390Y-104463842D01*
X150356274Y-104418112D01*
X150396241Y-104338719D01*
X150976502Y-104338719D01*
X151007783Y-104370000D01*
X151039064Y-104338719D01*
X151007783Y-104307438D01*
X150976502Y-104338719D01*
X150396241Y-104338719D01*
X150665795Y-103803266D01*
X150681529Y-103775665D01*
X150836488Y-103515842D01*
X151003570Y-103252241D01*
X151147118Y-103041080D01*
X151149614Y-103037626D01*
X151261370Y-102875368D01*
X151330924Y-102758860D01*
X151343718Y-102718240D01*
X151234946Y-102665506D01*
X151040585Y-102602735D01*
X150798591Y-102539716D01*
X150546919Y-102486238D01*
X150323522Y-102452091D01*
X150304131Y-102450109D01*
X150034514Y-102408871D01*
X149872308Y-102340791D01*
X149800754Y-102234448D01*
X149798670Y-102105586D01*
X149817540Y-102032026D01*
X149866523Y-101988946D01*
X149973089Y-101968266D01*
X150164706Y-101961907D01*
X150288325Y-101961566D01*
X150792476Y-102004017D01*
X151226749Y-102113967D01*
X151453571Y-102198970D01*
X151756682Y-102328592D01*
X152108970Y-102489581D01*
X152483323Y-102668683D01*
X152852630Y-102852646D01*
X153189778Y-103028218D01*
X153467656Y-103182145D01*
X153659152Y-103301175D01*
X153667434Y-103307011D01*
X153804501Y-103392965D01*
X153882031Y-103402248D01*
X153921761Y-103362240D01*
X153931090Y-103288432D01*
X153838229Y-103253280D01*
X153705752Y-103199135D01*
X153542622Y-103090490D01*
X153492512Y-103049028D01*
X153318061Y-102922096D01*
X153063796Y-102768952D01*
X152766439Y-102608929D01*
X152462716Y-102461359D01*
X152189351Y-102345574D01*
X152087842Y-102309580D01*
X151898375Y-102233132D01*
X151811054Y-102145166D01*
X151804130Y-102016668D01*
X151818339Y-101950041D01*
X151854321Y-101851791D01*
X151921685Y-101811243D01*
X152059217Y-101812640D01*
X152136617Y-101820742D01*
X152363491Y-101872061D01*
X152638964Y-101973463D01*
X152941176Y-102112147D01*
X153248269Y-102275316D01*
X153538384Y-102450170D01*
X153789662Y-102623910D01*
X153980243Y-102783738D01*
X154088269Y-102916853D01*
X154104581Y-102973037D01*
X154145114Y-102988787D01*
X154260680Y-102917335D01*
X154424937Y-102779775D01*
X154610303Y-102626841D01*
X154781189Y-102509070D01*
X154894148Y-102454387D01*
X155007412Y-102414531D01*
X155043005Y-102384644D01*
X155021194Y-102316335D01*
X154962500Y-102158766D01*
X154877032Y-101938638D01*
X154815469Y-101783554D01*
X154718647Y-101516996D01*
X154608821Y-101174918D01*
X154493426Y-100785059D01*
X154379898Y-100375159D01*
X154275674Y-99972955D01*
X154188189Y-99606188D01*
X154124879Y-99302595D01*
X154093180Y-99089915D01*
X154093082Y-99088755D01*
X154097183Y-98909715D01*
X154159655Y-98799171D01*
X154209478Y-98759870D01*
X154321520Y-98702360D01*
X154407907Y-98733822D01*
X154461040Y-98783109D01*
X154532094Y-98902307D01*
X154604920Y-99100963D01*
X154660451Y-99321228D01*
X154744477Y-99743964D01*
X155005301Y-99591111D01*
X155458169Y-99357388D01*
X155954805Y-99155271D01*
X156465429Y-98993072D01*
X156960256Y-98879104D01*
X157409505Y-98821680D01*
X157749548Y-98825142D01*
X158218885Y-98922511D01*
X158600151Y-99103301D01*
X158892727Y-99361449D01*
X159095995Y-99690888D01*
X159209337Y-100085555D01*
X159232134Y-100539384D01*
X159163769Y-101046312D01*
X159003622Y-101600273D01*
X158751076Y-102195203D01*
X158405513Y-102825038D01*
X158191528Y-103160332D01*
X157850267Y-103671108D01*
X157988421Y-103942352D01*
X158171028Y-104260084D01*
X158373742Y-104519570D01*
X158614419Y-104731648D01*
X158910917Y-104907152D01*
X159281092Y-105056919D01*
X159742800Y-105191785D01*
X160235616Y-105306022D01*
X160521942Y-105372576D01*
X160774387Y-105441011D01*
X160960090Y-105501885D01*
X161033276Y-105535255D01*
X161150864Y-105665368D01*
X161160526Y-105816266D01*
X161076773Y-105936881D01*
X161018424Y-105964954D01*
X160921784Y-105971841D01*
X160767575Y-105955151D01*
X160536516Y-105912494D01*
X160209329Y-105841480D01*
X160091428Y-105814719D01*
X159454007Y-105649229D01*
X158926700Y-105465769D01*
X158494864Y-105255909D01*
X158143853Y-105011216D01*
X157859023Y-104723261D01*
X157635858Y-104401033D01*
X157470159Y-104118290D01*
X157071793Y-104548562D01*
X156926692Y-104696584D01*
X156728053Y-104887540D01*
X156496402Y-105103017D01*
X156252263Y-105324604D01*
X156016163Y-105533890D01*
X155808626Y-105712465D01*
X155650179Y-105841917D01*
X155561347Y-105903835D01*
X155560379Y-105904277D01*
X155581425Y-105959132D01*
X155649164Y-106104934D01*
X155753719Y-106321025D01*
X155885209Y-106586748D01*
X155920608Y-106657469D01*
X156158563Y-107160929D01*
X156330173Y-107603966D01*
X156444867Y-108025727D01*
X156512076Y-108465357D01*
X156541229Y-108962003D01*
X156544483Y-109247298D01*
X156539136Y-109657239D01*
X156522856Y-109946942D01*
X156495284Y-110120842D01*
X156469409Y-110175714D01*
X156352437Y-110236084D01*
X156210684Y-110246324D01*
X156101126Y-110206886D01*
X156077357Y-110172586D01*
X156066694Y-110085118D01*
X156054247Y-109896648D01*
X156041280Y-109631259D01*
X156029055Y-109313036D01*
X156024041Y-109155960D01*
X156001270Y-108654931D01*
X155965612Y-108265891D01*
X155915731Y-107976239D01*
X155887812Y-107873448D01*
X155803234Y-107641108D01*
X155682899Y-107356473D01*
X155543247Y-107053943D01*
X155400716Y-106767918D01*
X155271747Y-106532800D01*
X155179717Y-106391681D01*
X155074286Y-106256256D01*
X154573793Y-106563130D01*
X153850434Y-106959204D01*
X153142082Y-107253298D01*
X152460245Y-107441535D01*
X151816431Y-107520037D01*
X151727241Y-107522078D01*
X151434256Y-107518220D01*
X151217046Y-107494097D01*
X151026786Y-107440881D01*
X150840077Y-107361673D01*
X150489151Y-107135915D01*
X150231647Y-106833573D01*
X150067873Y-106461649D01*
X150051162Y-106357520D01*
X150601133Y-106357520D01*
X150638776Y-106451804D01*
X150729664Y-106590167D01*
X150840731Y-106726096D01*
X150911070Y-106793528D01*
X151157374Y-106918533D01*
X151493414Y-106980214D01*
X151900461Y-106977628D01*
X152359787Y-106909835D01*
X152514894Y-106874180D01*
X153167301Y-106659954D01*
X153844792Y-106343149D01*
X154532245Y-105937641D01*
X155214540Y-105457307D01*
X155876557Y-104916025D01*
X156503176Y-104327670D01*
X157079275Y-103706120D01*
X157589735Y-103065252D01*
X158019435Y-102418943D01*
X158353255Y-101781069D01*
X158515018Y-101367507D01*
X158628745Y-100935383D01*
X158679104Y-100527719D01*
X158665259Y-100170203D01*
X158586372Y-99888523D01*
X158564572Y-99846760D01*
X158359386Y-99609907D01*
X158068325Y-99454847D01*
X157699995Y-99381340D01*
X157263001Y-99389147D01*
X156765950Y-99478029D01*
X156217446Y-99647747D01*
X155626095Y-99898061D01*
X155559138Y-99930340D01*
X155258548Y-100083038D01*
X155060682Y-100199452D01*
X154951731Y-100288867D01*
X154917888Y-100360568D01*
X154917882Y-100361528D01*
X154941510Y-100509401D01*
X155005712Y-100743360D01*
X155100464Y-101035052D01*
X155215744Y-101356126D01*
X155341529Y-101678230D01*
X155467794Y-101973012D01*
X155545492Y-102136772D01*
X155657765Y-102374130D01*
X155743594Y-102580417D01*
X155789538Y-102722284D01*
X155793744Y-102752652D01*
X155739102Y-103007762D01*
X155590974Y-103283910D01*
X155373055Y-103558272D01*
X155109041Y-103808019D01*
X154822627Y-104010325D01*
X154537508Y-104142364D01*
X154309678Y-104182315D01*
X154182184Y-104150476D01*
X153974544Y-104062678D01*
X153711943Y-103930500D01*
X153478657Y-103800259D01*
X153163081Y-103619998D01*
X153159381Y-103617946D01*
X154302366Y-103617946D01*
X154315192Y-103683947D01*
X154421775Y-103670997D01*
X154617499Y-103574065D01*
X154768383Y-103478497D01*
X154935195Y-103348244D01*
X155097617Y-103191949D01*
X155233254Y-103035642D01*
X155319712Y-102905354D01*
X155334597Y-102827116D01*
X155331767Y-102823622D01*
X155248868Y-102821319D01*
X155100626Y-102884165D01*
X154916000Y-102995076D01*
X154723951Y-103136965D01*
X154576449Y-103269224D01*
X154387913Y-103478027D01*
X154302366Y-103617946D01*
X153159381Y-103617946D01*
X152829412Y-103434933D01*
X152523784Y-103270396D01*
X152346785Y-103178756D01*
X151871501Y-102939309D01*
X151447712Y-103576452D01*
X151270913Y-103846414D01*
X151158805Y-104030710D01*
X151103743Y-104145766D01*
X151098077Y-104208009D01*
X151134161Y-104233863D01*
X151140976Y-104235309D01*
X151245414Y-104266495D01*
X151295814Y-104326351D01*
X151292939Y-104437623D01*
X151237553Y-104623055D01*
X151160850Y-104827473D01*
X150993766Y-105312031D01*
X150903625Y-105706014D01*
X150890990Y-106006546D01*
X150909884Y-106107578D01*
X150935472Y-106294254D01*
X150892738Y-106402772D01*
X150792082Y-106417133D01*
X150728165Y-106387080D01*
X150632328Y-106344667D01*
X150601133Y-106357520D01*
X150051162Y-106357520D01*
X150013319Y-106121724D01*
X150548450Y-106121724D01*
X150558281Y-106210538D01*
X150580005Y-106199926D01*
X150588268Y-106071841D01*
X150580005Y-106043522D01*
X150557170Y-106035663D01*
X150548450Y-106121724D01*
X150013319Y-106121724D01*
X149998139Y-106027141D01*
G37*
G36*
X171679409Y-100652284D02*
G01*
X172063780Y-100722300D01*
X172310000Y-100811509D01*
X172551675Y-100944708D01*
X172790873Y-101104827D01*
X172902116Y-101193446D01*
X173150144Y-101411461D01*
X172604700Y-102062933D01*
X172379148Y-101842794D01*
X172089417Y-101629739D01*
X171746493Y-101484597D01*
X171403339Y-101429632D01*
X171396258Y-101429606D01*
X171175066Y-101457589D01*
X170943776Y-101529732D01*
X170745910Y-101628329D01*
X170624993Y-101735672D01*
X170619012Y-101745824D01*
X170562927Y-101956892D01*
X170581790Y-102189461D01*
X170648425Y-102343771D01*
X170735348Y-102413702D01*
X170914789Y-102520674D01*
X171164240Y-102652491D01*
X171461193Y-102796953D01*
X171615817Y-102868028D01*
X171942359Y-103020877D01*
X172246483Y-103173434D01*
X172500979Y-103311325D01*
X172678636Y-103420176D01*
X172722417Y-103452634D01*
X172979523Y-103742741D01*
X173134086Y-104103087D01*
X173184488Y-104512773D01*
X173137912Y-104938282D01*
X172990734Y-105295362D01*
X172737057Y-105593419D01*
X172370982Y-105841860D01*
X172341281Y-105857488D01*
X172020184Y-105972916D01*
X171627032Y-106037402D01*
X171204946Y-106048892D01*
X170797048Y-106005330D01*
X170548869Y-105942911D01*
X170296410Y-105838827D01*
X170033476Y-105696123D01*
X169784707Y-105532614D01*
X169574742Y-105366117D01*
X169428218Y-105214446D01*
X169369775Y-105095418D01*
X169369606Y-105090211D01*
X169411302Y-105012751D01*
X169519453Y-104881743D01*
X169638669Y-104757602D01*
X169907731Y-104493537D01*
X170092240Y-104687596D01*
X170417051Y-104952620D01*
X170797417Y-105138746D01*
X171202191Y-105237023D01*
X171600227Y-105238498D01*
X171829690Y-105186963D01*
X172055879Y-105066319D01*
X172240492Y-104884424D01*
X172352742Y-104676964D01*
X172372562Y-104557684D01*
X172345866Y-104396101D01*
X172257293Y-104245906D01*
X172094109Y-104096815D01*
X171843584Y-103938543D01*
X171492986Y-103760806D01*
X171246869Y-103648348D01*
X170926271Y-103498139D01*
X170624259Y-103343036D01*
X170371073Y-103199475D01*
X170196949Y-103083893D01*
X170173381Y-103064820D01*
X169903180Y-102761422D01*
X169742072Y-102421441D01*
X169686906Y-102063587D01*
X169734531Y-101706569D01*
X169881795Y-101369096D01*
X170125549Y-101069876D01*
X170462641Y-100827618D01*
X170558276Y-100779474D01*
X170881456Y-100680044D01*
X171270234Y-100637923D01*
X171679409Y-100652284D01*
G37*
G36*
X194894540Y-101132438D02*
G01*
X194885134Y-101264022D01*
X194848163Y-101390900D01*
X194770193Y-101539398D01*
X194637790Y-101735839D01*
X194471509Y-101961379D01*
X194001352Y-102671822D01*
X193652247Y-103393185D01*
X193420126Y-104135906D01*
X193300918Y-104910424D01*
X193295946Y-104976848D01*
X193274918Y-105254839D01*
X193251596Y-105522609D01*
X193230879Y-105724090D01*
X193230084Y-105730714D01*
X193197900Y-105996601D01*
X192763802Y-105996601D01*
X192535893Y-105993790D01*
X192405911Y-105979471D01*
X192346685Y-105944812D01*
X192331049Y-105880980D01*
X192330789Y-105855837D01*
X192344430Y-105597849D01*
X192378538Y-105258172D01*
X192427590Y-104877511D01*
X192486065Y-104496571D01*
X192548439Y-104156057D01*
X192582506Y-104000336D01*
X192698803Y-103608012D01*
X192867328Y-103164491D01*
X193068003Y-102715325D01*
X193280751Y-102306065D01*
X193449717Y-102032800D01*
X193557055Y-101870781D01*
X193627424Y-101753039D01*
X193643498Y-101715501D01*
X193584059Y-101704666D01*
X193418227Y-101695157D01*
X193164732Y-101687507D01*
X192842301Y-101682250D01*
X192469662Y-101679920D01*
X192392266Y-101679852D01*
X191141034Y-101679852D01*
X191141034Y-100866551D01*
X194894729Y-100866551D01*
X194894540Y-101132438D01*
G37*
G36*
X175291282Y-100710147D02*
G01*
X175637096Y-100691657D01*
X175982909Y-100673166D01*
X176900742Y-103287962D01*
X177091572Y-103832740D01*
X177268906Y-104341165D01*
X177428561Y-104801084D01*
X177566354Y-105200347D01*
X177678102Y-105526801D01*
X177759623Y-105768297D01*
X177806733Y-105912681D01*
X177816996Y-105949679D01*
X177758928Y-105972917D01*
X177607728Y-105989698D01*
X177395353Y-105996578D01*
X177381818Y-105996601D01*
X176948218Y-105996601D01*
X176679801Y-105183300D01*
X176411383Y-104370000D01*
X174885373Y-104370000D01*
X174785594Y-104635886D01*
X174718644Y-104821328D01*
X174629320Y-105078048D01*
X174534140Y-105358397D01*
X174509054Y-105433546D01*
X174332292Y-105965320D01*
X173884200Y-105983701D01*
X173665933Y-105990314D01*
X173506927Y-105990667D01*
X173438286Y-105984759D01*
X173437589Y-105983701D01*
X173458024Y-105922782D01*
X173515909Y-105755816D01*
X173607055Y-105494749D01*
X173727275Y-105151528D01*
X173872381Y-104738098D01*
X174038184Y-104266404D01*
X174220497Y-103748394D01*
X174304508Y-103509933D01*
X175187833Y-103509933D01*
X175245253Y-103532405D01*
X175397011Y-103548972D01*
X175612353Y-103556533D01*
X175651529Y-103556699D01*
X176115225Y-103556699D01*
X175888216Y-102869569D01*
X175796168Y-102604609D01*
X175714700Y-102395173D01*
X175652810Y-102262775D01*
X175619988Y-102228313D01*
X175585616Y-102302211D01*
X175524561Y-102463936D01*
X175447476Y-102681894D01*
X175365016Y-102924487D01*
X175287834Y-103160122D01*
X175226584Y-103357201D01*
X175191919Y-103484131D01*
X175187833Y-103509933D01*
X174304508Y-103509933D01*
X174365175Y-103337734D01*
X175291282Y-100710147D01*
G37*
G36*
X179535862Y-100714074D02*
G01*
X179946008Y-100716717D01*
X180253586Y-100722884D01*
X180481143Y-100734840D01*
X180651228Y-100754848D01*
X180786390Y-100785172D01*
X180909176Y-100828076D01*
X180983064Y-100859378D01*
X181348039Y-101073376D01*
X181609054Y-101351624D01*
X181770474Y-101701181D01*
X181836666Y-102129107D01*
X181838871Y-102243084D01*
X181812108Y-102588510D01*
X181728415Y-102861864D01*
X181707927Y-102904248D01*
X181592303Y-103084095D01*
X181433627Y-103273224D01*
X181260181Y-103443922D01*
X181100246Y-103568473D01*
X180982104Y-103619161D01*
X180978290Y-103619261D01*
X180871927Y-103657348D01*
X180849763Y-103681648D01*
X180868434Y-103752125D01*
X180942972Y-103912390D01*
X181064352Y-104145249D01*
X181223552Y-104433508D01*
X181411550Y-104759972D01*
X181448893Y-104823397D01*
X181644681Y-105154892D01*
X181818802Y-105449891D01*
X181961199Y-105691341D01*
X182061816Y-105862190D01*
X182110597Y-105945384D01*
X182113066Y-105949679D01*
X182068425Y-105971464D01*
X181926369Y-105987871D01*
X181714581Y-105996127D01*
X181644666Y-105996601D01*
X181149781Y-105996601D01*
X180509108Y-104901773D01*
X179868436Y-103806945D01*
X179254335Y-103806945D01*
X179254335Y-105996601D01*
X178845721Y-105996601D01*
X178582027Y-105984076D01*
X178435580Y-105946944D01*
X178407075Y-105918338D01*
X178400969Y-105840632D01*
X178396065Y-105651426D01*
X178392432Y-105364337D01*
X178390142Y-104992983D01*
X178389265Y-104550980D01*
X178389871Y-104051947D01*
X178392031Y-103509501D01*
X178393398Y-103275111D01*
X178395193Y-102993645D01*
X179254335Y-102993645D01*
X179739187Y-102993296D01*
X180008232Y-102984953D01*
X180258910Y-102963334D01*
X180439554Y-102932997D01*
X180447651Y-102930830D01*
X180713153Y-102799156D01*
X180895163Y-102588181D01*
X180981768Y-102321228D01*
X180961056Y-102021621D01*
X180943210Y-101960508D01*
X180857481Y-101788346D01*
X180719204Y-101664175D01*
X180509957Y-101580199D01*
X180211316Y-101528624D01*
X179864310Y-101504040D01*
X179254335Y-101477614D01*
X179254335Y-102993645D01*
X178395193Y-102993645D01*
X178404860Y-101477614D01*
X178409754Y-100710147D01*
X179535862Y-100714074D01*
G37*
%TD*%
D10*
%TO.C,D1819*%
X205884728Y-55885227D03*
X204099312Y-55235388D03*
X204307980Y-57439693D03*
%TD*%
D11*
%TO.C,C4*%
X161550000Y-59190000D03*
X159650000Y-59190000D03*
%TD*%
D12*
%TO.C,C8*%
X172818249Y-33118249D03*
X174161751Y-34461751D03*
%TD*%
D13*
%TO.C,D407*%
X143670000Y-43430000D03*
X143670000Y-45330000D03*
X145670000Y-44380000D03*
%TD*%
D14*
%TO.C,SW14*%
X97980000Y-61250000D03*
D15*
X108280000Y-57050000D03*
X98120000Y-57050000D03*
D16*
X103200000Y-57050000D03*
D17*
X97700000Y-57050000D03*
X108700000Y-57050000D03*
D18*
X105719771Y-52259984D03*
D19*
X105740000Y-51970000D03*
D20*
X108200000Y-53250000D03*
D19*
X100700000Y-53050000D03*
D21*
X100044995Y-53779996D03*
D20*
X103200000Y-51150000D03*
%TD*%
D17*
%TO.C,SW35*%
X116750000Y-95150000D03*
D15*
X127330000Y-95150000D03*
D17*
X127750000Y-95150000D03*
D15*
X117170000Y-95150000D03*
D14*
X117030000Y-99350000D03*
D16*
X122250000Y-95150000D03*
D19*
X124790000Y-90070000D03*
D18*
X124769771Y-90359984D03*
D20*
X127250000Y-91350000D03*
D21*
X119094995Y-91879996D03*
D19*
X119750000Y-91150000D03*
D20*
X122250000Y-89250000D03*
%TD*%
D15*
%TO.C,SW15*%
X127330000Y-57050000D03*
D14*
X117030000Y-61250000D03*
D17*
X116750000Y-57050000D03*
X127750000Y-57050000D03*
D15*
X117170000Y-57050000D03*
D16*
X122250000Y-57050000D03*
D19*
X124790000Y-51970000D03*
D18*
X124769771Y-52259984D03*
D20*
X127250000Y-53250000D03*
D19*
X119750000Y-53050000D03*
D21*
X119094995Y-53779996D03*
D20*
X122250000Y-51150000D03*
%TD*%
D22*
%TO.C,DLED2*%
X187280000Y-32710000D03*
X187280000Y-35910000D03*
X192180000Y-35910000D03*
X192180000Y-32710000D03*
%TD*%
D15*
%TO.C,SW31*%
X51130000Y-95150000D03*
D17*
X51550000Y-95150000D03*
D14*
X40830000Y-99350000D03*
D15*
X40970000Y-95150000D03*
D17*
X40550000Y-95150000D03*
D16*
X46050000Y-95150000D03*
D20*
X51050000Y-91350000D03*
D19*
X48590000Y-90070000D03*
D18*
X48569771Y-90359984D03*
D19*
X43550000Y-91150000D03*
D20*
X46050000Y-89250000D03*
D21*
X42894995Y-91879996D03*
%TD*%
D23*
%TO.C,U3*%
X170482202Y-45917596D03*
X170765045Y-45634753D03*
X171047887Y-45351911D03*
X171330730Y-45069068D03*
X171613573Y-44786225D03*
X171896415Y-44503383D03*
X172179258Y-44220540D03*
X172462101Y-43937697D03*
X172744944Y-43654854D03*
X173027786Y-43372012D03*
X173310629Y-43089169D03*
X173593472Y-42806326D03*
X173876314Y-42523484D03*
X174159157Y-42240641D03*
D24*
X174159157Y-41056237D03*
X173876314Y-40773394D03*
X173593472Y-40490552D03*
X173310629Y-40207709D03*
X173027786Y-39924866D03*
X172744944Y-39642024D03*
X172462101Y-39359181D03*
X172179258Y-39076338D03*
X171896415Y-38793495D03*
X171613573Y-38510653D03*
X171330730Y-38227810D03*
X171047887Y-37944967D03*
X170765045Y-37662125D03*
X170482202Y-37379282D03*
D23*
X169297798Y-37379282D03*
X169014955Y-37662125D03*
X168732113Y-37944967D03*
X168449270Y-38227810D03*
X168166427Y-38510653D03*
X167883585Y-38793495D03*
X167600742Y-39076338D03*
X167317899Y-39359181D03*
X167035056Y-39642024D03*
X166752214Y-39924866D03*
X166469371Y-40207709D03*
X166186528Y-40490552D03*
X165903686Y-40773394D03*
X165620843Y-41056237D03*
D24*
X165620843Y-42240641D03*
X165903686Y-42523484D03*
X166186528Y-42806326D03*
X166469371Y-43089169D03*
X166752214Y-43372012D03*
X167035056Y-43654854D03*
X167317899Y-43937697D03*
X167600742Y-44220540D03*
X167883585Y-44503383D03*
X168166427Y-44786225D03*
X168449270Y-45069068D03*
X168732113Y-45351911D03*
X169014955Y-45634753D03*
X169297798Y-45917596D03*
D25*
X169890000Y-41648439D03*
%TD*%
D17*
%TO.C,SW25*%
X127750000Y-76100000D03*
D14*
X117030000Y-80300000D03*
D17*
X116750000Y-76100000D03*
D15*
X127330000Y-76100000D03*
X117170000Y-76100000D03*
D16*
X122250000Y-76100000D03*
D18*
X124769771Y-71309984D03*
D20*
X127250000Y-72300000D03*
D19*
X124790000Y-71020000D03*
X119750000Y-72100000D03*
D21*
X119094995Y-72829996D03*
D20*
X122250000Y-70200000D03*
%TD*%
D26*
%TO.C,D3435*%
X139960000Y-86470000D03*
X138060000Y-86470000D03*
X139010000Y-88470000D03*
%TD*%
%TO.C,D1617*%
X209640000Y-56210000D03*
X207740000Y-56210000D03*
X208690000Y-58210000D03*
%TD*%
D27*
%TO.C,C2*%
X186151751Y-44518249D03*
X184808249Y-45861751D03*
%TD*%
D15*
%TO.C,SW1.1*%
X40970000Y-57050000D03*
D17*
X40550000Y-57050000D03*
X51550000Y-57050000D03*
D16*
X46050000Y-57050000D03*
D15*
X51130000Y-57050000D03*
D14*
X40830000Y-61250000D03*
D20*
X51050000Y-53250000D03*
D19*
X48590000Y-51970000D03*
D18*
X48569771Y-52259984D03*
D20*
X46050000Y-51150000D03*
D19*
X43550000Y-53050000D03*
D21*
X42894995Y-53779996D03*
%TD*%
D28*
%TO.C,REF\u002A\u002A*%
X138730000Y-79610000D03*
D29*
X141130000Y-79610000D03*
X136330000Y-79610000D03*
X140427056Y-77912944D03*
X137032944Y-81307056D03*
X137032944Y-77912944D03*
X138730000Y-77210000D03*
X140427056Y-81307056D03*
X138730000Y-82010000D03*
%TD*%
D30*
%TO.C,R7*%
X151074765Y-54104765D03*
X152365235Y-55395235D03*
%TD*%
D31*
%TO.C,J1*%
X157370000Y-75055000D03*
D32*
X159910000Y-75055000D03*
X162450000Y-75055000D03*
X164990000Y-75055000D03*
X167530000Y-75055000D03*
%TD*%
D17*
%TO.C,SW47*%
X239668750Y-114200000D03*
D15*
X239248750Y-114200000D03*
D17*
X228668750Y-114200000D03*
D15*
X229088750Y-114200000D03*
D16*
X234168750Y-114200000D03*
D14*
X228948750Y-118400000D03*
D19*
X236708750Y-109120000D03*
D20*
X239168750Y-110400000D03*
D18*
X236688521Y-109409984D03*
D21*
X231013745Y-110929996D03*
D19*
X231668750Y-110200000D03*
D20*
X234168750Y-108300000D03*
%TD*%
D33*
%TO.C,D2021*%
X150552724Y-83778975D03*
X148907276Y-84728975D03*
X150730000Y-85986025D03*
%TD*%
D17*
%TO.C,SW2*%
X70600000Y-38000000D03*
D16*
X65100000Y-38000000D03*
D17*
X59600000Y-38000000D03*
D15*
X70180000Y-38000000D03*
D14*
X59880000Y-42200000D03*
D15*
X60020000Y-38000000D03*
D19*
X67640000Y-32920000D03*
D20*
X70100000Y-34200000D03*
D18*
X67619771Y-33209984D03*
D19*
X62600000Y-34000000D03*
D20*
X65100000Y-32100000D03*
D21*
X61944995Y-34729996D03*
%TD*%
D34*
%TO.C,C7*%
X168920000Y-32620000D03*
X170820000Y-32620000D03*
%TD*%
D35*
%TO.C,REF\u002A\u002A*%
X222268750Y-121185000D03*
D16*
X246068750Y-105945000D03*
D35*
X246068750Y-121185000D03*
D16*
X222268750Y-105945000D03*
%TD*%
D36*
%TO.C,C9*%
X153571751Y-47081751D03*
X152228249Y-45738249D03*
%TD*%
D37*
%TO.C,D1011*%
X138724955Y-53073307D03*
X137269470Y-54294604D03*
X139282788Y-55216044D03*
%TD*%
D38*
%TO.C,Y0*%
X181867919Y-42762081D03*
X183423554Y-44317716D03*
X184625635Y-43115635D03*
X183070000Y-41560000D03*
%TD*%
D15*
%TO.C,SW49*%
X284492500Y-114200000D03*
D14*
X274192500Y-118400000D03*
D17*
X273912500Y-114200000D03*
D15*
X274332500Y-114200000D03*
D17*
X284912500Y-114200000D03*
D16*
X279412500Y-114200000D03*
D20*
X284412500Y-110400000D03*
D19*
X281952500Y-109120000D03*
D18*
X281932271Y-109409984D03*
D21*
X276257495Y-110929996D03*
D19*
X276912500Y-110200000D03*
D20*
X279412500Y-108300000D03*
%TD*%
D39*
%TO.C,D110111*%
X202460530Y-54304604D03*
X201005045Y-53083307D03*
X200447212Y-55226044D03*
%TD*%
D22*
%TO.C,DLED4*%
X147880000Y-57580000D03*
X147880000Y-54380000D03*
X142980000Y-54380000D03*
X142980000Y-57580000D03*
%TD*%
D40*
%TO.C,D809*%
X197511025Y-48902724D03*
X196561025Y-47257276D03*
X195303975Y-49080000D03*
%TD*%
D29*
%TO.C,REF\u002A\u002A*%
X140417056Y-34802944D03*
X138720000Y-34100000D03*
D28*
X138720000Y-36500000D03*
D29*
X138720000Y-38900000D03*
X136320000Y-36500000D03*
X137022944Y-34802944D03*
X140417056Y-38197056D03*
X141120000Y-36500000D03*
X137022944Y-38197056D03*
%TD*%
D35*
%TO.C,REF\u002A\u002A*%
X98443750Y-121185000D03*
X122243750Y-121185000D03*
D16*
X122243750Y-105945000D03*
X98443750Y-105945000D03*
%TD*%
D41*
%TO.C,D55*%
X207467911Y-106015575D03*
X208689208Y-107471060D03*
X209610648Y-105457742D03*
%TD*%
D17*
%TO.C,SW7*%
X231050000Y-38000000D03*
D15*
X231470000Y-38000000D03*
D16*
X236550000Y-38000000D03*
D17*
X242050000Y-38000000D03*
D14*
X231330000Y-42200000D03*
D15*
X241630000Y-38000000D03*
D20*
X241550000Y-34200000D03*
D18*
X239069771Y-33209984D03*
D19*
X239090000Y-32920000D03*
D21*
X233394995Y-34729996D03*
D20*
X236550000Y-32100000D03*
D19*
X234050000Y-34000000D03*
%TD*%
D42*
%TO.C,J4*%
X169900000Y-34370000D03*
%TD*%
D43*
%TO.C,R3*%
X159697500Y-54440000D03*
X161522500Y-54440000D03*
%TD*%
D16*
%TO.C,SW30*%
X27000000Y-95150000D03*
D15*
X21920000Y-95150000D03*
D17*
X32500000Y-95150000D03*
D15*
X32080000Y-95150000D03*
D14*
X21780000Y-99350000D03*
D17*
X21500000Y-95150000D03*
D19*
X29540000Y-90070000D03*
D20*
X32000000Y-91350000D03*
D18*
X29519771Y-90359984D03*
D20*
X27000000Y-89250000D03*
D21*
X23844995Y-91879996D03*
D19*
X24500000Y-91150000D03*
%TD*%
D44*
%TO.C,SW-1*%
X173850000Y-83440000D03*
X180150000Y-83440000D03*
X180150000Y-79640000D03*
X173850000Y-79640000D03*
%TD*%
D13*
%TO.C,D506*%
X196050000Y-45330000D03*
X196050000Y-43430000D03*
X194050000Y-44380000D03*
%TD*%
D17*
%TO.C,SW40*%
X34881250Y-114200000D03*
D15*
X24301250Y-114200000D03*
D14*
X24161250Y-118400000D03*
D16*
X29381250Y-114200000D03*
D15*
X34461250Y-114200000D03*
D17*
X23881250Y-114200000D03*
D18*
X31901021Y-109409984D03*
D20*
X34381250Y-110400000D03*
D19*
X31921250Y-109120000D03*
X26881250Y-110200000D03*
D21*
X26226245Y-110929996D03*
D20*
X29381250Y-108300000D03*
%TD*%
D45*
%TO.C,D4041*%
X138580158Y-97950784D03*
X138250226Y-99821919D03*
X140384808Y-99233648D03*
%TD*%
D15*
%TO.C,SW1.0*%
X21920000Y-57050000D03*
D14*
X21780000Y-61250000D03*
D17*
X32500000Y-57050000D03*
X21500000Y-57050000D03*
D15*
X32080000Y-57050000D03*
D16*
X27000000Y-57050000D03*
D20*
X32000000Y-53250000D03*
D18*
X29519771Y-52259984D03*
D19*
X29540000Y-51970000D03*
D20*
X27000000Y-51150000D03*
D21*
X23844995Y-53779996D03*
D19*
X24500000Y-53050000D03*
%TD*%
D16*
%TO.C,SW8*%
X255600000Y-38000000D03*
D15*
X260680000Y-38000000D03*
X250520000Y-38000000D03*
D14*
X250380000Y-42200000D03*
D17*
X261100000Y-38000000D03*
X250100000Y-38000000D03*
D18*
X258119771Y-33209984D03*
D20*
X260600000Y-34200000D03*
D19*
X258140000Y-32920000D03*
X253100000Y-34000000D03*
D21*
X252444995Y-34729996D03*
D20*
X255600000Y-32100000D03*
%TD*%
D46*
%TO.C,D2627*%
X186104612Y-79120688D03*
X185454773Y-77335272D03*
X183900307Y-78912020D03*
%TD*%
D47*
%TO.C,ENCODERLEFT2*%
X129280000Y-75000000D03*
D20*
X134280000Y-75000000D03*
X131780000Y-75000000D03*
D48*
X126180000Y-67500000D03*
X137380000Y-67500000D03*
D20*
X134280000Y-60500000D03*
X129280000Y-60500000D03*
%TD*%
D49*
%TO.C,D203*%
X143168975Y-47247276D03*
X142218975Y-48892724D03*
X144426025Y-49070000D03*
%TD*%
D14*
%TO.C,SW37*%
X231330000Y-99350000D03*
D16*
X236550000Y-95150000D03*
D17*
X242050000Y-95150000D03*
D15*
X231470000Y-95150000D03*
D17*
X231050000Y-95150000D03*
D15*
X241630000Y-95150000D03*
D19*
X239090000Y-90070000D03*
D20*
X241550000Y-91350000D03*
D18*
X239069771Y-90359984D03*
D20*
X236550000Y-89250000D03*
D19*
X234050000Y-91150000D03*
D21*
X233394995Y-91879996D03*
%TD*%
D50*
%TO.C,U2*%
X173480000Y-58015000D03*
X173480000Y-56745000D03*
X173480000Y-55475000D03*
X173480000Y-54205000D03*
X166280000Y-54205000D03*
X166280000Y-55475000D03*
X166280000Y-56745000D03*
X166280000Y-58015000D03*
%TD*%
D16*
%TO.C,SW0*%
X27000000Y-38000000D03*
D15*
X32080000Y-38000000D03*
D14*
X21780000Y-42200000D03*
D17*
X21500000Y-38000000D03*
D15*
X21920000Y-38000000D03*
D17*
X32500000Y-38000000D03*
D18*
X29519771Y-33209984D03*
D19*
X29540000Y-32920000D03*
D20*
X32000000Y-34200000D03*
D19*
X24500000Y-34000000D03*
D21*
X23844995Y-34729996D03*
D20*
X27000000Y-32100000D03*
%TD*%
D47*
%TO.C,ENCODERLEFT1*%
X144280000Y-75000000D03*
D20*
X149280000Y-75000000D03*
X146780000Y-75000000D03*
D48*
X152380000Y-67500000D03*
X141180000Y-67500000D03*
D20*
X149280000Y-60500000D03*
X144280000Y-60500000D03*
%TD*%
D14*
%TO.C,SW32*%
X59880000Y-99350000D03*
D15*
X70180000Y-95150000D03*
D16*
X65100000Y-95150000D03*
D15*
X60020000Y-95150000D03*
D17*
X59600000Y-95150000D03*
X70600000Y-95150000D03*
D18*
X67619771Y-90359984D03*
D20*
X70100000Y-91350000D03*
D19*
X67640000Y-90070000D03*
D21*
X61944995Y-91879996D03*
D20*
X65100000Y-89250000D03*
D19*
X62600000Y-91150000D03*
%TD*%
D36*
%TO.C,C12*%
X157931751Y-42781751D03*
X156588249Y-41438249D03*
%TD*%
D16*
%TO.C,SW41*%
X50812500Y-114200000D03*
D15*
X45732500Y-114200000D03*
D14*
X45592500Y-118400000D03*
D15*
X55892500Y-114200000D03*
D17*
X45312500Y-114200000D03*
X56312500Y-114200000D03*
D18*
X53332271Y-109409984D03*
D20*
X55812500Y-110400000D03*
D19*
X53352500Y-109120000D03*
D21*
X47657495Y-110929996D03*
D20*
X50812500Y-108300000D03*
D19*
X48312500Y-110200000D03*
%TD*%
D30*
%TO.C,R6*%
X149674765Y-55494765D03*
X150965235Y-56785235D03*
%TD*%
D16*
%TO.C,SW1*%
X46050000Y-38000000D03*
D15*
X51130000Y-38000000D03*
D14*
X40830000Y-42200000D03*
D17*
X51550000Y-38000000D03*
X40550000Y-38000000D03*
D15*
X40970000Y-38000000D03*
D18*
X48569771Y-33209984D03*
D19*
X48590000Y-32920000D03*
D20*
X51050000Y-34200000D03*
D19*
X43550000Y-34000000D03*
D21*
X42894995Y-34729996D03*
D20*
X46050000Y-32100000D03*
%TD*%
D31*
%TO.C,J2*%
X179990000Y-75050000D03*
D32*
X177450000Y-75050000D03*
X174910000Y-75050000D03*
X172370000Y-75050000D03*
%TD*%
D15*
%TO.C,SW311*%
X307670000Y-95150000D03*
D14*
X307530000Y-99350000D03*
D15*
X317830000Y-95150000D03*
D16*
X312750000Y-95150000D03*
D17*
X307250000Y-95150000D03*
X318250000Y-95150000D03*
D20*
X317750000Y-91350000D03*
D19*
X315290000Y-90070000D03*
D18*
X315269771Y-90359984D03*
D20*
X312750000Y-89250000D03*
D21*
X309594995Y-91879996D03*
D19*
X310250000Y-91150000D03*
%TD*%
D17*
%TO.C,SW29*%
X280150000Y-76100000D03*
D15*
X279730000Y-76100000D03*
D17*
X269150000Y-76100000D03*
D16*
X274650000Y-76100000D03*
D14*
X269430000Y-80300000D03*
D15*
X269570000Y-76100000D03*
D19*
X277190000Y-71020000D03*
D18*
X277169771Y-71309984D03*
D20*
X279650000Y-72300000D03*
D19*
X272150000Y-72100000D03*
D21*
X271494995Y-72829996D03*
D20*
X274650000Y-70200000D03*
%TD*%
D15*
%TO.C,SW10*%
X288620000Y-38000000D03*
X298780000Y-38000000D03*
D14*
X288480000Y-42200000D03*
D17*
X299200000Y-38000000D03*
X288200000Y-38000000D03*
D16*
X293700000Y-38000000D03*
D20*
X298700000Y-34200000D03*
D19*
X296240000Y-32920000D03*
D18*
X296219771Y-33209984D03*
D20*
X293700000Y-32100000D03*
D19*
X291200000Y-34000000D03*
D21*
X290544995Y-34729996D03*
%TD*%
D17*
%TO.C,SW9*%
X280150000Y-38000000D03*
D16*
X274650000Y-38000000D03*
D17*
X269150000Y-38000000D03*
D15*
X269570000Y-38000000D03*
X279730000Y-38000000D03*
D14*
X269430000Y-42200000D03*
D18*
X277169771Y-33209984D03*
D20*
X279650000Y-34200000D03*
D19*
X277190000Y-32920000D03*
X272150000Y-34000000D03*
D20*
X274650000Y-32100000D03*
D21*
X271494995Y-34729996D03*
%TD*%
D34*
%TO.C,C1*%
X159650000Y-64930000D03*
X161550000Y-64930000D03*
%TD*%
D15*
%TO.C,SW17*%
X241630000Y-57050000D03*
D17*
X242050000Y-57050000D03*
D15*
X231470000Y-57050000D03*
D17*
X231050000Y-57050000D03*
D14*
X231330000Y-61250000D03*
D16*
X236550000Y-57050000D03*
D20*
X241550000Y-53250000D03*
D18*
X239069771Y-52259984D03*
D19*
X239090000Y-51970000D03*
X234050000Y-53050000D03*
D21*
X233394995Y-53779996D03*
D20*
X236550000Y-51150000D03*
%TD*%
D51*
%TO.C,D4445*%
X135935396Y-107456574D03*
X137156693Y-106001089D03*
X135013956Y-105443256D03*
%TD*%
D17*
%TO.C,SW411*%
X302487500Y-114200000D03*
D15*
X313067500Y-114200000D03*
D16*
X307987500Y-114200000D03*
D15*
X302907500Y-114200000D03*
D14*
X302767500Y-118400000D03*
D17*
X313487500Y-114200000D03*
D19*
X310527500Y-109120000D03*
D18*
X310507271Y-109409984D03*
D20*
X312987500Y-110400000D03*
D21*
X304832495Y-110929996D03*
D19*
X305487500Y-110200000D03*
D20*
X307987500Y-108300000D03*
%TD*%
D29*
%TO.C,REF\u002A\u002A*%
X203410000Y-79610000D03*
X201010000Y-77210000D03*
X201010000Y-82010000D03*
X199312944Y-81307056D03*
X199312944Y-77912944D03*
D28*
X201010000Y-79610000D03*
D29*
X202707056Y-81307056D03*
X202707056Y-77912944D03*
X198610000Y-79610000D03*
%TD*%
D14*
%TO.C,SW211*%
X307530000Y-80300000D03*
D16*
X312750000Y-76100000D03*
D15*
X317830000Y-76100000D03*
D17*
X318250000Y-76100000D03*
X307250000Y-76100000D03*
D15*
X307670000Y-76100000D03*
D18*
X315269771Y-71309984D03*
D19*
X315290000Y-71020000D03*
D20*
X317750000Y-72300000D03*
D19*
X310250000Y-72100000D03*
D21*
X309594995Y-72829996D03*
D20*
X312750000Y-70200000D03*
%TD*%
D11*
%TO.C,C17*%
X161550000Y-57100000D03*
X159650000Y-57100000D03*
%TD*%
D52*
%TO.C,U44*%
X156880000Y-54122500D03*
X155930000Y-54122500D03*
X154980000Y-54122500D03*
X154980000Y-56397500D03*
X155930000Y-56397500D03*
X156880000Y-56397500D03*
%TD*%
D15*
%TO.C,SW19*%
X269570000Y-57050000D03*
D17*
X280150000Y-57050000D03*
X269150000Y-57050000D03*
D14*
X269430000Y-61250000D03*
D15*
X279730000Y-57050000D03*
D16*
X274650000Y-57050000D03*
D20*
X279650000Y-53250000D03*
D19*
X277190000Y-51970000D03*
D18*
X277169771Y-52259984D03*
D19*
X272150000Y-53050000D03*
D20*
X274650000Y-51150000D03*
D21*
X271494995Y-53779996D03*
%TD*%
D22*
%TO.C,DLED3*%
X196220000Y-57580000D03*
X196220000Y-54380000D03*
X191320000Y-54380000D03*
X191320000Y-57580000D03*
%TD*%
D16*
%TO.C,SW33*%
X84150000Y-95150000D03*
D15*
X89230000Y-95150000D03*
D17*
X78650000Y-95150000D03*
D15*
X79070000Y-95150000D03*
D14*
X78930000Y-99350000D03*
D17*
X89650000Y-95150000D03*
D19*
X86690000Y-90070000D03*
D20*
X89150000Y-91350000D03*
D18*
X86669771Y-90359984D03*
D20*
X84150000Y-89250000D03*
D19*
X81650000Y-91150000D03*
D21*
X80994995Y-91879996D03*
%TD*%
D17*
%TO.C,SW110*%
X288200000Y-57050000D03*
X299200000Y-57050000D03*
D15*
X298780000Y-57050000D03*
D14*
X288480000Y-61250000D03*
D16*
X293700000Y-57050000D03*
D15*
X288620000Y-57050000D03*
D19*
X296240000Y-51970000D03*
D20*
X298700000Y-53250000D03*
D18*
X296219771Y-52259984D03*
D21*
X290544995Y-53779996D03*
D19*
X291200000Y-53050000D03*
D20*
X293700000Y-51150000D03*
%TD*%
D26*
%TO.C,D56*%
X170840000Y-63430000D03*
X168940000Y-63430000D03*
X169890000Y-65430000D03*
%TD*%
D17*
%TO.C,SW36*%
X212000000Y-95150000D03*
D16*
X217500000Y-95150000D03*
D15*
X222580000Y-95150000D03*
D17*
X223000000Y-95150000D03*
D14*
X212280000Y-99350000D03*
D15*
X212420000Y-95150000D03*
D20*
X222500000Y-91350000D03*
D19*
X220040000Y-90070000D03*
D18*
X220019771Y-90359984D03*
D21*
X214344995Y-91879996D03*
D19*
X215000000Y-91150000D03*
D20*
X217500000Y-89250000D03*
%TD*%
D15*
%TO.C,SW6*%
X222580000Y-38000000D03*
D16*
X217500000Y-38000000D03*
D14*
X212280000Y-42200000D03*
D15*
X212420000Y-38000000D03*
D17*
X212000000Y-38000000D03*
X223000000Y-38000000D03*
D19*
X220040000Y-32920000D03*
D18*
X220019771Y-33209984D03*
D20*
X222500000Y-34200000D03*
D21*
X214344995Y-34729996D03*
D20*
X217500000Y-32100000D03*
D19*
X215000000Y-34000000D03*
%TD*%
D53*
%TO.C,D10011*%
X199741297Y-51825485D03*
X198520000Y-50370000D03*
X197598560Y-52383318D03*
%TD*%
D17*
%TO.C,SW39*%
X269150000Y-95150000D03*
X280150000Y-95150000D03*
D16*
X274650000Y-95150000D03*
D14*
X269430000Y-99350000D03*
D15*
X269570000Y-95150000D03*
X279730000Y-95150000D03*
D19*
X277190000Y-90070000D03*
D20*
X279650000Y-91350000D03*
D18*
X277169771Y-90359984D03*
D20*
X274650000Y-89250000D03*
D21*
X271494995Y-91879996D03*
D19*
X272150000Y-91150000D03*
%TD*%
D26*
%TO.C,D1415*%
X131980000Y-56210000D03*
X130080000Y-56210000D03*
X131030000Y-58210000D03*
%TD*%
D54*
%TO.C,D210211*%
X190850000Y-84720000D03*
X189204552Y-83770000D03*
X189027276Y-85977050D03*
%TD*%
D15*
%TO.C,SW38*%
X260680000Y-95150000D03*
D17*
X250100000Y-95150000D03*
D14*
X250380000Y-99350000D03*
D17*
X261100000Y-95150000D03*
D16*
X255600000Y-95150000D03*
D15*
X250520000Y-95150000D03*
D19*
X258140000Y-90070000D03*
D20*
X260600000Y-91350000D03*
D18*
X258119771Y-90359984D03*
D21*
X252444995Y-91879996D03*
D20*
X255600000Y-89250000D03*
D19*
X253100000Y-91150000D03*
%TD*%
D14*
%TO.C,SW11*%
X307530000Y-42200000D03*
D16*
X312750000Y-38000000D03*
D17*
X307250000Y-38000000D03*
X318250000Y-38000000D03*
D15*
X307670000Y-38000000D03*
X317830000Y-38000000D03*
D18*
X315269771Y-33209984D03*
D19*
X315290000Y-32920000D03*
D20*
X317750000Y-34200000D03*
D21*
X309594995Y-34729996D03*
D20*
X312750000Y-32100000D03*
D19*
X310250000Y-34000000D03*
%TD*%
D31*
%TO.C,J5*%
X157365000Y-67800000D03*
D32*
X159905000Y-67800000D03*
%TD*%
D55*
%TO.C,D3233*%
X143601919Y-85980226D03*
X141730784Y-86310158D03*
X143013648Y-88114808D03*
%TD*%
D15*
%TO.C,SW34*%
X98120000Y-95150000D03*
D17*
X97700000Y-95150000D03*
D15*
X108280000Y-95150000D03*
D17*
X108700000Y-95150000D03*
D14*
X97980000Y-99350000D03*
D16*
X103200000Y-95150000D03*
D20*
X108200000Y-91350000D03*
D18*
X105719771Y-90359984D03*
D19*
X105740000Y-90070000D03*
D20*
X103200000Y-89250000D03*
D19*
X100700000Y-91150000D03*
D21*
X100044995Y-91879996D03*
%TD*%
D17*
%TO.C,SW310*%
X288200000Y-95150000D03*
X299200000Y-95150000D03*
D16*
X293700000Y-95150000D03*
D14*
X288480000Y-99350000D03*
D15*
X288620000Y-95150000D03*
X298780000Y-95150000D03*
D19*
X296240000Y-90070000D03*
D20*
X298700000Y-91350000D03*
D18*
X296219771Y-90359984D03*
D20*
X293700000Y-89250000D03*
D19*
X291200000Y-91150000D03*
D21*
X290544995Y-91879996D03*
%TD*%
D56*
%TO.C,C5*%
X169900000Y-59970000D03*
X169900000Y-61870000D03*
%TD*%
D57*
%TO.C,D1213*%
X135630688Y-55235388D03*
X133845272Y-55885227D03*
X135422020Y-57439693D03*
%TD*%
D16*
%TO.C,SW1.2*%
X65100000Y-57050000D03*
D17*
X59600000Y-57050000D03*
X70600000Y-57050000D03*
D15*
X70180000Y-57050000D03*
D14*
X59880000Y-61250000D03*
D15*
X60020000Y-57050000D03*
D19*
X67640000Y-51970000D03*
D20*
X70100000Y-53250000D03*
D18*
X67619771Y-52259984D03*
D19*
X62600000Y-53050000D03*
D20*
X65100000Y-51150000D03*
D21*
X61944995Y-53779996D03*
%TD*%
D58*
%TO.C,D3839*%
X198019216Y-86310158D03*
X196148081Y-85980226D03*
X196736352Y-88114808D03*
%TD*%
D22*
%TO.C,DLED1*%
X152480000Y-35910000D03*
X152480000Y-32710000D03*
X147580000Y-32710000D03*
X147580000Y-35910000D03*
%TD*%
D44*
%TO.C,SW-2*%
X165930000Y-83430000D03*
X159630000Y-83430000D03*
X165930000Y-79630000D03*
X159630000Y-79630000D03*
%TD*%
D17*
%TO.C,SW23*%
X78650000Y-76100000D03*
D14*
X78930000Y-80300000D03*
D15*
X79070000Y-76100000D03*
D16*
X84150000Y-76100000D03*
D15*
X89230000Y-76100000D03*
D17*
X89650000Y-76100000D03*
D20*
X89150000Y-72300000D03*
D18*
X86669771Y-71309984D03*
D19*
X86690000Y-71020000D03*
D20*
X84150000Y-70200000D03*
D21*
X80994995Y-72829996D03*
D19*
X81650000Y-72100000D03*
%TD*%
D47*
%TO.C,ENCODERRIGHT2*%
X205470000Y-74920000D03*
D20*
X210470000Y-74920000D03*
X207970000Y-74920000D03*
D48*
X213570000Y-67420000D03*
X202370000Y-67420000D03*
D20*
X210470000Y-60420000D03*
X205470000Y-60420000D03*
%TD*%
D59*
%TO.C,R8*%
X164034765Y-61725235D03*
X165325235Y-60434765D03*
%TD*%
D17*
%TO.C,SW111*%
X307250000Y-57050000D03*
D15*
X317830000Y-57050000D03*
D14*
X307530000Y-61250000D03*
D16*
X312750000Y-57050000D03*
D17*
X318250000Y-57050000D03*
D15*
X307670000Y-57050000D03*
D19*
X315290000Y-51970000D03*
D20*
X317750000Y-53250000D03*
D18*
X315269771Y-52259984D03*
D20*
X312750000Y-51150000D03*
D21*
X309594995Y-53779996D03*
D19*
X310250000Y-53050000D03*
%TD*%
D14*
%TO.C,SW13*%
X78930000Y-61250000D03*
D16*
X84150000Y-57050000D03*
D17*
X89650000Y-57050000D03*
D15*
X89230000Y-57050000D03*
D17*
X78650000Y-57050000D03*
D15*
X79070000Y-57050000D03*
D19*
X86690000Y-51970000D03*
D20*
X89150000Y-53250000D03*
D18*
X86669771Y-52259984D03*
D21*
X80994995Y-53779996D03*
D19*
X81650000Y-53050000D03*
D20*
X84150000Y-51150000D03*
%TD*%
D15*
%TO.C,SW44*%
X105263750Y-114200000D03*
D16*
X110343750Y-114200000D03*
D17*
X104843750Y-114200000D03*
D15*
X115423750Y-114200000D03*
D14*
X105123750Y-118400000D03*
D17*
X115843750Y-114200000D03*
D19*
X112883750Y-109120000D03*
D20*
X115343750Y-110400000D03*
D18*
X112863521Y-109409984D03*
D21*
X107188745Y-110929996D03*
D19*
X107843750Y-110200000D03*
D20*
X110343750Y-108300000D03*
%TD*%
D47*
%TO.C,ENCODERRIGHT1*%
X190470000Y-74980000D03*
D20*
X195470000Y-74980000D03*
X192970000Y-74980000D03*
D48*
X187370000Y-67480000D03*
X198570000Y-67480000D03*
D20*
X195470000Y-60480000D03*
X190470000Y-60480000D03*
%TD*%
D15*
%TO.C,SW22*%
X70180000Y-76100000D03*
D17*
X70600000Y-76100000D03*
D16*
X65100000Y-76100000D03*
D15*
X60020000Y-76100000D03*
D17*
X59600000Y-76100000D03*
D14*
X59880000Y-80300000D03*
D18*
X67619771Y-71309984D03*
D19*
X67640000Y-71020000D03*
D20*
X70100000Y-72300000D03*
X65100000Y-70200000D03*
D19*
X62600000Y-72100000D03*
D21*
X61944995Y-72829996D03*
%TD*%
D29*
%TO.C,REF\u002A\u002A*%
X201000000Y-34080000D03*
X203400000Y-36480000D03*
X202697056Y-34782944D03*
X198600000Y-36480000D03*
X199302944Y-34782944D03*
X201000000Y-38880000D03*
D28*
X201000000Y-36480000D03*
D29*
X199302944Y-38177056D03*
X202697056Y-38177056D03*
%TD*%
D15*
%TO.C,SW16*%
X212420000Y-57050000D03*
D16*
X217500000Y-57050000D03*
D15*
X222580000Y-57050000D03*
D14*
X212280000Y-61250000D03*
D17*
X212000000Y-57050000D03*
X223000000Y-57050000D03*
D20*
X222500000Y-53250000D03*
D19*
X220040000Y-51970000D03*
D18*
X220019771Y-52259984D03*
D21*
X214344995Y-53779996D03*
D19*
X215000000Y-53050000D03*
D20*
X217500000Y-51150000D03*
%TD*%
D27*
%TO.C,C6*%
X166911751Y-33118249D03*
X165568249Y-34461751D03*
%TD*%
D15*
%TO.C,SW20*%
X21920000Y-76100000D03*
D14*
X21780000Y-80300000D03*
D17*
X21500000Y-76100000D03*
D15*
X32080000Y-76100000D03*
D16*
X27000000Y-76100000D03*
D17*
X32500000Y-76100000D03*
D19*
X29540000Y-71020000D03*
D20*
X32000000Y-72300000D03*
D18*
X29519771Y-71309984D03*
D19*
X24500000Y-72100000D03*
D21*
X23844995Y-72829996D03*
D20*
X27000000Y-70200000D03*
%TD*%
D16*
%TO.C,REF\u002A\u002A*%
X140188750Y-116575000D03*
D35*
X155428750Y-116575000D03*
D16*
X140188750Y-92775000D03*
D35*
X155428750Y-92775000D03*
%TD*%
D49*
%TO.C,D4243*%
X137598975Y-101597276D03*
X136648975Y-103242724D03*
X138856025Y-103420000D03*
%TD*%
D16*
%TO.C,SW56*%
X172256250Y-114200000D03*
D17*
X166756250Y-114200000D03*
X177756250Y-114200000D03*
D15*
X177336250Y-114200000D03*
D14*
X167036250Y-118400000D03*
D15*
X167176250Y-114200000D03*
D20*
X177256250Y-110400000D03*
D19*
X174796250Y-109120000D03*
D18*
X174776021Y-109409984D03*
D21*
X169101245Y-110929996D03*
D19*
X169756250Y-110200000D03*
D20*
X172256250Y-108300000D03*
%TD*%
D36*
%TO.C,C11*%
X156481751Y-44211751D03*
X155138249Y-42868249D03*
%TD*%
D40*
%TO.C,D4647*%
X207951025Y-103252724D03*
X207001025Y-101607276D03*
X205743975Y-103430000D03*
%TD*%
D15*
%TO.C,SW55*%
X167176250Y-95140000D03*
D17*
X177756250Y-95140000D03*
X166756250Y-95140000D03*
D14*
X167036250Y-99340000D03*
D16*
X172256250Y-95140000D03*
D15*
X177336250Y-95140000D03*
D19*
X174796250Y-90060000D03*
D18*
X174776021Y-90349984D03*
D20*
X177256250Y-91340000D03*
X172256250Y-89240000D03*
D19*
X169756250Y-91140000D03*
D21*
X169101245Y-91869996D03*
%TD*%
D17*
%TO.C,SW42*%
X77743750Y-114200000D03*
D15*
X77323750Y-114200000D03*
X67163750Y-114200000D03*
D16*
X72243750Y-114200000D03*
D14*
X67023750Y-118400000D03*
D17*
X66743750Y-114200000D03*
D20*
X77243750Y-110400000D03*
D19*
X74783750Y-109120000D03*
D18*
X74763521Y-109409984D03*
D21*
X69088745Y-110929996D03*
D19*
X69743750Y-110200000D03*
D20*
X72243750Y-108300000D03*
%TD*%
D14*
%TO.C,SW18*%
X250380000Y-61250000D03*
D16*
X255600000Y-57050000D03*
D15*
X250520000Y-57050000D03*
X260680000Y-57050000D03*
D17*
X261100000Y-57050000D03*
X250100000Y-57050000D03*
D18*
X258119771Y-52259984D03*
D19*
X258140000Y-51970000D03*
D20*
X260600000Y-53250000D03*
D21*
X252444995Y-53779996D03*
D19*
X253100000Y-53050000D03*
D20*
X255600000Y-51150000D03*
%TD*%
D16*
%TO.C,SW26*%
X217500000Y-76100000D03*
D15*
X222580000Y-76100000D03*
D14*
X212280000Y-80300000D03*
D17*
X212000000Y-76100000D03*
X223000000Y-76100000D03*
D15*
X212420000Y-76100000D03*
D18*
X220019771Y-71309984D03*
D20*
X222500000Y-72300000D03*
D19*
X220040000Y-71020000D03*
X215000000Y-72100000D03*
D21*
X214344995Y-72829996D03*
D20*
X217500000Y-70200000D03*
%TD*%
D60*
%TO.C,DLED0*%
X179111041Y-50263782D03*
X181373782Y-48001041D03*
X177908959Y-44536218D03*
X175646218Y-46798959D03*
%TD*%
D43*
%TO.C,R4*%
X159697500Y-52440000D03*
X161522500Y-52440000D03*
%TD*%
D15*
%TO.C,SW210*%
X298780000Y-76100000D03*
D17*
X288200000Y-76100000D03*
D16*
X293700000Y-76100000D03*
D14*
X288480000Y-80300000D03*
D17*
X299200000Y-76100000D03*
D15*
X288620000Y-76100000D03*
D19*
X296240000Y-71020000D03*
D20*
X298700000Y-72300000D03*
D18*
X296219771Y-71309984D03*
D21*
X290544995Y-72829996D03*
D19*
X291200000Y-72100000D03*
D20*
X293700000Y-70200000D03*
%TD*%
D61*
%TO.C,D410411*%
X206349774Y-99801919D03*
X206019842Y-97930784D03*
X204215192Y-99213648D03*
%TD*%
D30*
%TO.C,R1*%
X174434765Y-60434765D03*
X175725235Y-61725235D03*
%TD*%
D17*
%TO.C,SW46*%
X196068750Y-110175000D03*
D15*
X196068750Y-109755000D03*
D14*
X191868750Y-99455000D03*
D17*
X196068750Y-99175000D03*
D16*
X196068750Y-104675000D03*
D15*
X196068750Y-99595000D03*
D19*
X201148750Y-107215000D03*
D62*
X200858766Y-107194771D03*
D20*
X199868750Y-109675000D03*
X201968750Y-104675000D03*
D19*
X200068750Y-102175000D03*
D63*
X199338754Y-101519995D03*
%TD*%
D40*
%TO.C,D2829*%
X187811025Y-82372724D03*
X186861025Y-80727276D03*
X185603975Y-82550000D03*
%TD*%
D64*
%TO.C,D1*%
X141194604Y-50359470D03*
X139973307Y-51814955D03*
X142116044Y-52372788D03*
%TD*%
D55*
%TO.C,D3031*%
X147141919Y-85360226D03*
X145270784Y-85690158D03*
X146553648Y-87494808D03*
%TD*%
D14*
%TO.C,SW28*%
X250380000Y-80300000D03*
D15*
X250520000Y-76100000D03*
D17*
X250100000Y-76100000D03*
D16*
X255600000Y-76100000D03*
D17*
X261100000Y-76100000D03*
D15*
X260680000Y-76100000D03*
D18*
X258119771Y-71309984D03*
D19*
X258140000Y-71020000D03*
D20*
X260600000Y-72300000D03*
D19*
X253100000Y-72100000D03*
D20*
X255600000Y-70200000D03*
D21*
X252444995Y-72829996D03*
%TD*%
D65*
%TO.C,DLED0.5*%
X155746218Y-48001041D03*
X158008959Y-50263782D03*
X161473782Y-46798959D03*
X159211041Y-44536218D03*
%TD*%
D16*
%TO.C,SW4*%
X103200000Y-38000000D03*
D15*
X98120000Y-38000000D03*
D14*
X97980000Y-42200000D03*
D17*
X97700000Y-38000000D03*
D15*
X108280000Y-38000000D03*
D17*
X108700000Y-38000000D03*
D18*
X105719771Y-33209984D03*
D20*
X108200000Y-34200000D03*
D19*
X105740000Y-32920000D03*
X100700000Y-34000000D03*
D20*
X103200000Y-32100000D03*
D21*
X100044995Y-34729996D03*
%TD*%
D58*
%TO.C,D310311*%
X194499216Y-85690158D03*
X192628081Y-85360226D03*
X193216352Y-87494808D03*
%TD*%
D66*
%TO.C,F0*%
X153950000Y-58570000D03*
X156750000Y-58570000D03*
%TD*%
D26*
%TO.C,D3637*%
X201700000Y-86470000D03*
X199800000Y-86470000D03*
X200750000Y-88470000D03*
%TD*%
D13*
%TO.C,U1*%
X161600000Y-63040000D03*
X161600000Y-61140000D03*
X159600000Y-62090000D03*
%TD*%
D16*
%TO.C,REF\u002A\u002A*%
X204323750Y-92775000D03*
X204323750Y-116575000D03*
D35*
X189083750Y-92775000D03*
X189083750Y-116575000D03*
%TD*%
D49*
%TO.C,D2223*%
X152888975Y-80737276D03*
X151938975Y-82382724D03*
X154146025Y-82560000D03*
%TD*%
D15*
%TO.C,SW27*%
X241630000Y-76100000D03*
D14*
X231330000Y-80300000D03*
D16*
X236550000Y-76100000D03*
D17*
X242050000Y-76100000D03*
X231050000Y-76100000D03*
D15*
X231470000Y-76100000D03*
D18*
X239069771Y-71309984D03*
D20*
X241550000Y-72300000D03*
D19*
X239090000Y-71020000D03*
X234050000Y-72100000D03*
D20*
X236550000Y-70200000D03*
D21*
X233394995Y-72829996D03*
%TD*%
D67*
%TO.C,D2425*%
X154305227Y-77345272D03*
X153655388Y-79130688D03*
X155859693Y-78922020D03*
%TD*%
D16*
%TO.C,SW21*%
X46050000Y-76100000D03*
D14*
X40830000Y-80300000D03*
D15*
X51130000Y-76100000D03*
D17*
X40550000Y-76100000D03*
X51550000Y-76100000D03*
D15*
X40970000Y-76100000D03*
D20*
X51050000Y-72300000D03*
D18*
X48569771Y-71309984D03*
D19*
X48590000Y-71020000D03*
X43550000Y-72100000D03*
D21*
X42894995Y-72829996D03*
D20*
X46050000Y-70200000D03*
%TD*%
D68*
%TO.C,R5*%
X180160000Y-41420000D03*
X181206776Y-39925048D03*
%TD*%
D16*
%TO.C,SW3*%
X84150000Y-38000000D03*
D15*
X79070000Y-38000000D03*
X89230000Y-38000000D03*
D17*
X78650000Y-38000000D03*
D14*
X78930000Y-42200000D03*
D17*
X89650000Y-38000000D03*
D20*
X89150000Y-34200000D03*
D19*
X86690000Y-32920000D03*
D18*
X86669771Y-33209984D03*
D19*
X81650000Y-34000000D03*
D21*
X80994995Y-34729996D03*
D20*
X84150000Y-32100000D03*
%TD*%
D69*
%TO.C,C10*%
X161189796Y-39936388D03*
X160100000Y-38380000D03*
%TD*%
%TO.C,C14*%
X159574898Y-41388194D03*
X158485102Y-39831806D03*
%TD*%
D70*
%TO.C,C3*%
X179684898Y-38571806D03*
X178595102Y-40128194D03*
%TD*%
D17*
%TO.C,SW45*%
X148443750Y-110175000D03*
X148443750Y-99175000D03*
D16*
X148443750Y-104675000D03*
D15*
X148443750Y-99595000D03*
D14*
X152643750Y-109895000D03*
D15*
X148443750Y-109755000D03*
D20*
X144643750Y-99675000D03*
D71*
X143653734Y-102155229D03*
D19*
X143363750Y-102135000D03*
D72*
X145173746Y-107830005D03*
D19*
X144443750Y-107175000D03*
D20*
X142543750Y-104675000D03*
%TD*%
D36*
%TO.C,C13*%
X155021751Y-45641751D03*
X153678249Y-44298249D03*
%TD*%
D15*
%TO.C,SW24*%
X98120000Y-76100000D03*
D17*
X108700000Y-76100000D03*
D15*
X108280000Y-76100000D03*
D14*
X97980000Y-80300000D03*
D17*
X97700000Y-76100000D03*
D16*
X103200000Y-76100000D03*
D18*
X105719771Y-71309984D03*
D19*
X105740000Y-71020000D03*
D20*
X108200000Y-72300000D03*
D19*
X100700000Y-72100000D03*
D20*
X103200000Y-70200000D03*
D21*
X100044995Y-72829996D03*
%TD*%
D17*
%TO.C,SW5*%
X116750000Y-38000000D03*
D14*
X117030000Y-42200000D03*
D15*
X127330000Y-38000000D03*
D16*
X122250000Y-38000000D03*
D15*
X117170000Y-38000000D03*
D17*
X127750000Y-38000000D03*
D19*
X124790000Y-32920000D03*
D20*
X127250000Y-34200000D03*
D18*
X124769771Y-33209984D03*
D21*
X119094995Y-34729996D03*
D20*
X122250000Y-32100000D03*
D19*
X119750000Y-34000000D03*
%TD*%
D73*
%TO.C,J0*%
X39420000Y-29190000D03*
X33640000Y-29190000D03*
D74*
X40850000Y-29720000D03*
D75*
X40850000Y-25540000D03*
D74*
X32210000Y-29720000D03*
D75*
X32210000Y-25540000D03*
%TD*%
M02*
