M48
; DRILL file {KiCad 7.0.7} date Thu 28 Sep 2023 00:00:28 CEST
; FORMAT={-:-/ absolute / metric / decimal}
; #@! TF.CreationDate,2023-09-28T00:00:28+02:00
; #@! TF.GenerationSoftware,Kicad,Pcbnew,7.0.7
; #@! TF.FileFunction,NonPlated,1,2,NPTH
FMAT,2
METRIC
; #@! TA.AperFunction,NonPlated,NPTH,ComponentDrill
T1C0.650
; #@! TA.AperFunction,NonPlated,NPTH,ComponentDrill
T2C0.787
; #@! TA.AperFunction,NonPlated,NPTH,ComponentDrill
T3C1.200
; #@! TA.AperFunction,NonPlated,NPTH,ComponentDrill
T4C1.700
; #@! TA.AperFunction,NonPlated,NPTH,ComponentDrill
T5C1.750
; #@! TA.AperFunction,NonPlated,NPTH,ComponentDrill
T6C3.048
; #@! TA.AperFunction,NonPlated,NPTH,ComponentDrill
T7C3.988
%
G90
G05
T1
X33.64Y-29.19
X39.42Y-29.19
T2
X31.85Y-28.79
X33.12Y-28.79
X34.39Y-28.79
X35.66Y-28.79
X35.66Y-28.79
X36.93Y-28.79
X36.93Y-28.79
X38.2Y-28.79
X39.47Y-28.79
X40.74Y-28.79
T3
X21.78Y-42.2
X21.78Y-61.25
X21.78Y-80.3
X21.78Y-99.35
X24.161Y-118.4
X40.83Y-42.2
X40.83Y-61.25
X40.83Y-80.3
X40.83Y-99.35
X45.593Y-118.4
X59.88Y-42.2
X59.88Y-61.25
X59.88Y-80.3
X59.88Y-99.35
X67.024Y-118.4
X78.93Y-42.2
X78.93Y-61.25
X78.93Y-80.3
X78.93Y-99.35
X79.845Y-110.0
X88.455Y-118.4
X97.98Y-42.2
X97.98Y-61.25
X97.98Y-80.3
X97.98Y-99.35
X105.124Y-118.4
X117.03Y-42.2
X117.03Y-61.25
X117.03Y-80.3
X117.03Y-99.35
X122.707Y-110.0
X152.644Y-109.895
X167.036Y-99.34
X167.036Y-118.4
X191.869Y-99.455
X212.28Y-42.2
X212.28Y-61.25
X212.28Y-80.3
X212.28Y-99.35
X217.042Y-118.4
X228.949Y-118.4
X231.33Y-42.2
X231.33Y-61.25
X231.33Y-80.3
X231.33Y-99.35
X240.855Y-118.4
X250.38Y-42.2
X250.38Y-61.25
X250.38Y-80.3
X250.38Y-99.35
X269.43Y-42.2
X269.43Y-61.25
X269.43Y-80.3
X269.43Y-99.35
X274.192Y-118.4
X279.87Y-110.0
X288.48Y-42.2
X288.48Y-61.25
X288.48Y-80.3
X288.48Y-99.35
X288.48Y-118.4
X307.53Y-42.2
X307.53Y-61.25
X307.53Y-80.3
X307.53Y-99.35
X307.53Y-118.4
X313.207Y-110.0
T4
X21.5Y-38.0
X21.5Y-57.05
X21.5Y-76.1
X21.5Y-95.15
X23.881Y-114.2
X32.5Y-38.0
X32.5Y-57.05
X32.5Y-76.1
X32.5Y-95.15
X34.881Y-114.2
X40.55Y-38.0
X40.55Y-57.05
X40.55Y-76.1
X40.55Y-95.15
X45.312Y-114.2
X51.55Y-38.0
X51.55Y-57.05
X51.55Y-76.1
X51.55Y-95.15
X56.312Y-114.2
X59.6Y-38.0
X59.6Y-57.05
X59.6Y-76.1
X59.6Y-95.15
X66.744Y-114.2
X69.125Y-114.2
X70.6Y-38.0
X70.6Y-57.05
X70.6Y-76.1
X70.6Y-95.15
X77.744Y-114.2
X78.65Y-38.0
X78.65Y-57.05
X78.65Y-76.1
X78.65Y-95.15
X80.125Y-114.2
X88.175Y-114.2
X89.65Y-38.0
X89.65Y-57.05
X89.65Y-76.1
X89.65Y-95.15
X97.7Y-38.0
X97.7Y-57.05
X97.7Y-76.1
X97.7Y-95.15
X99.175Y-114.2
X104.844Y-114.2
X108.7Y-38.0
X108.7Y-57.05
X108.7Y-76.1
X108.7Y-95.15
X111.987Y-114.2
X115.844Y-114.2
X116.75Y-38.0
X116.75Y-57.05
X116.75Y-76.1
X116.75Y-95.15
X122.987Y-114.2
X127.75Y-38.0
X127.75Y-57.05
X127.75Y-76.1
X127.75Y-95.15
X148.444Y-99.175
X148.444Y-110.175
X166.756Y-95.14
X166.756Y-114.2
X177.756Y-95.14
X177.756Y-114.2
X196.069Y-99.175
X196.069Y-110.175
X212.0Y-38.0
X212.0Y-57.05
X212.0Y-76.1
X212.0Y-95.15
X216.762Y-114.2
X223.0Y-38.0
X223.0Y-57.05
X223.0Y-76.1
X223.0Y-95.15
X227.762Y-114.2
X228.669Y-114.2
X231.05Y-38.0
X231.05Y-57.05
X231.05Y-76.1
X231.05Y-95.15
X239.669Y-114.2
X240.575Y-114.2
X242.05Y-38.0
X242.05Y-57.05
X242.05Y-76.1
X242.05Y-95.15
X250.1Y-38.0
X250.1Y-57.05
X250.1Y-76.1
X250.1Y-95.15
X251.575Y-114.2
X261.1Y-38.0
X261.1Y-57.05
X261.1Y-76.1
X261.1Y-95.15
X269.15Y-38.0
X269.15Y-57.05
X269.15Y-76.1
X269.15Y-95.15
X269.15Y-114.2
X273.912Y-114.2
X280.15Y-38.0
X280.15Y-57.05
X280.15Y-76.1
X280.15Y-95.15
X280.15Y-114.2
X284.912Y-114.2
X288.2Y-38.0
X288.2Y-57.05
X288.2Y-76.1
X288.2Y-95.15
X288.2Y-114.2
X299.2Y-38.0
X299.2Y-57.05
X299.2Y-76.1
X299.2Y-95.15
X299.2Y-114.2
X302.488Y-114.2
X307.25Y-38.0
X307.25Y-57.05
X307.25Y-76.1
X307.25Y-95.15
X307.25Y-114.2
X313.488Y-114.2
X318.25Y-38.0
X318.25Y-57.05
X318.25Y-76.1
X318.25Y-95.15
X318.25Y-114.2
T5
X21.92Y-38.0
X21.92Y-57.05
X21.92Y-76.1
X21.92Y-95.15
X24.301Y-114.2
X32.08Y-38.0
X32.08Y-57.05
X32.08Y-76.1
X32.08Y-95.15
X34.461Y-114.2
X40.97Y-38.0
X40.97Y-57.05
X40.97Y-76.1
X40.97Y-95.15
X45.732Y-114.2
X51.13Y-38.0
X51.13Y-57.05
X51.13Y-76.1
X51.13Y-95.15
X55.892Y-114.2
X60.02Y-38.0
X60.02Y-57.05
X60.02Y-76.1
X60.02Y-95.15
X67.164Y-114.2
X69.545Y-114.2
X70.18Y-38.0
X70.18Y-57.05
X70.18Y-76.1
X70.18Y-95.15
X77.324Y-114.2
X79.07Y-38.0
X79.07Y-57.05
X79.07Y-76.1
X79.07Y-95.15
X79.705Y-114.2
X88.595Y-114.2
X89.23Y-38.0
X89.23Y-57.05
X89.23Y-76.1
X89.23Y-95.15
X98.12Y-38.0
X98.12Y-57.05
X98.12Y-76.1
X98.12Y-95.15
X98.755Y-114.2
X105.264Y-114.2
X108.28Y-38.0
X108.28Y-57.05
X108.28Y-76.1
X108.28Y-95.15
X112.407Y-114.2
X115.424Y-114.2
X117.17Y-38.0
X117.17Y-57.05
X117.17Y-76.1
X117.17Y-95.15
X122.567Y-114.2
X127.33Y-38.0
X127.33Y-57.05
X127.33Y-76.1
X127.33Y-95.15
X148.444Y-99.595
X148.444Y-109.755
X167.176Y-95.14
X167.176Y-114.2
X177.336Y-95.14
X177.336Y-114.2
X196.069Y-99.595
X196.069Y-109.755
X212.42Y-38.0
X212.42Y-57.05
X212.42Y-76.1
X212.42Y-95.15
X217.182Y-114.2
X222.58Y-38.0
X222.58Y-57.05
X222.58Y-76.1
X222.58Y-95.15
X227.343Y-114.2
X229.089Y-114.2
X231.47Y-38.0
X231.47Y-57.05
X231.47Y-76.1
X231.47Y-95.15
X239.249Y-114.2
X240.995Y-114.2
X241.63Y-38.0
X241.63Y-57.05
X241.63Y-76.1
X241.63Y-95.15
X250.52Y-38.0
X250.52Y-57.05
X250.52Y-76.1
X250.52Y-95.15
X251.155Y-114.2
X260.68Y-38.0
X260.68Y-57.05
X260.68Y-76.1
X260.68Y-95.15
X269.57Y-38.0
X269.57Y-57.05
X269.57Y-76.1
X269.57Y-95.15
X269.57Y-114.2
X274.332Y-114.2
X279.73Y-38.0
X279.73Y-57.05
X279.73Y-76.1
X279.73Y-95.15
X279.73Y-114.2
X284.493Y-114.2
X288.62Y-38.0
X288.62Y-57.05
X288.62Y-76.1
X288.62Y-95.15
X288.62Y-114.2
X298.78Y-38.0
X298.78Y-57.05
X298.78Y-76.1
X298.78Y-95.15
X298.78Y-114.2
X302.907Y-114.2
X307.67Y-38.0
X307.67Y-57.05
X307.67Y-76.1
X307.67Y-95.15
X307.67Y-114.2
X313.067Y-114.2
X317.83Y-38.0
X317.83Y-57.05
X317.83Y-76.1
X317.83Y-95.15
X317.83Y-114.2
T6
X98.444Y-121.185
X122.244Y-121.185
X155.429Y-92.775
X155.429Y-116.575
X189.084Y-92.775
X189.084Y-116.575
X222.269Y-121.185
X246.069Y-121.185
T7
X27.0Y-38.0
X27.0Y-57.05
X27.0Y-76.1
X27.0Y-95.15
X29.381Y-114.2
X46.05Y-38.0
X46.05Y-57.05
X46.05Y-76.1
X46.05Y-95.15
X50.812Y-114.2
X65.1Y-38.0
X65.1Y-57.05
X65.1Y-76.1
X65.1Y-95.15
X72.244Y-114.2
X74.625Y-114.2
X84.15Y-38.0
X84.15Y-57.05
X84.15Y-76.1
X84.15Y-95.15
X93.675Y-114.2
X98.444Y-105.945
X103.2Y-38.0
X103.2Y-57.05
X103.2Y-76.1
X103.2Y-95.15
X110.344Y-114.2
X117.487Y-114.2
X122.244Y-105.945
X122.25Y-38.0
X122.25Y-57.05
X122.25Y-76.1
X122.25Y-95.15
X140.189Y-92.775
X140.189Y-116.575
X148.444Y-104.675
X172.256Y-95.14
X172.256Y-114.2
X196.069Y-104.675
X204.324Y-92.775
X204.324Y-116.575
X217.5Y-38.0
X217.5Y-57.05
X217.5Y-76.1
X217.5Y-95.15
X222.262Y-114.2
X222.269Y-105.945
X234.169Y-114.2
X236.55Y-38.0
X236.55Y-57.05
X236.55Y-76.1
X236.55Y-95.15
X246.069Y-105.945
X246.075Y-114.2
X255.6Y-38.0
X255.6Y-57.05
X255.6Y-76.1
X255.6Y-95.15
X274.65Y-38.0
X274.65Y-57.05
X274.65Y-76.1
X274.65Y-95.15
X274.65Y-114.2
X279.412Y-114.2
X293.7Y-38.0
X293.7Y-57.05
X293.7Y-76.1
X293.7Y-95.15
X293.7Y-114.2
X307.988Y-114.2
X312.75Y-38.0
X312.75Y-57.05
X312.75Y-76.1
X312.75Y-95.15
X312.75Y-114.2
T0
M30
