%TF.GenerationSoftware,KiCad,Pcbnew,(6.0.8)*%
%TF.CreationDate,2022-10-26T23:20:13+02:00*%
%TF.ProjectId,32u4,33327534-2e6b-4696-9361-645f70636258,rev?*%
%TF.SameCoordinates,Original*%
%TF.FileFunction,Legend,Bot*%
%TF.FilePolarity,Positive*%
%FSLAX46Y46*%
G04 Gerber Fmt 4.6, Leading zero omitted, Abs format (unit mm)*
G04 Created by KiCad (PCBNEW (6.0.8)) date 2022-10-26 23:20:13*
%MOMM*%
%LPD*%
G01*
G04 APERTURE LIST*
%ADD10C,0.150000*%
%ADD11C,0.120000*%
G04 APERTURE END LIST*
D10*
%TO.C,SW14*%
X105009523Y-60629761D02*
X104866666Y-60677380D01*
X104628571Y-60677380D01*
X104533333Y-60629761D01*
X104485714Y-60582142D01*
X104438095Y-60486904D01*
X104438095Y-60391666D01*
X104485714Y-60296428D01*
X104533333Y-60248809D01*
X104628571Y-60201190D01*
X104819047Y-60153571D01*
X104914285Y-60105952D01*
X104961904Y-60058333D01*
X105009523Y-59963095D01*
X105009523Y-59867857D01*
X104961904Y-59772619D01*
X104914285Y-59725000D01*
X104819047Y-59677380D01*
X104580952Y-59677380D01*
X104438095Y-59725000D01*
X104104761Y-59677380D02*
X103866666Y-60677380D01*
X103676190Y-59963095D01*
X103485714Y-60677380D01*
X103247619Y-59677380D01*
X102342857Y-60677380D02*
X102914285Y-60677380D01*
X102628571Y-60677380D02*
X102628571Y-59677380D01*
X102723809Y-59820238D01*
X102819047Y-59915476D01*
X102914285Y-59963095D01*
X101485714Y-60010714D02*
X101485714Y-60677380D01*
X101723809Y-59629761D02*
X101961904Y-60344047D01*
X101342857Y-60344047D01*
%TO.C,SW35*%
X124059523Y-98729761D02*
X123916666Y-98777380D01*
X123678571Y-98777380D01*
X123583333Y-98729761D01*
X123535714Y-98682142D01*
X123488095Y-98586904D01*
X123488095Y-98491666D01*
X123535714Y-98396428D01*
X123583333Y-98348809D01*
X123678571Y-98301190D01*
X123869047Y-98253571D01*
X123964285Y-98205952D01*
X124011904Y-98158333D01*
X124059523Y-98063095D01*
X124059523Y-97967857D01*
X124011904Y-97872619D01*
X123964285Y-97825000D01*
X123869047Y-97777380D01*
X123630952Y-97777380D01*
X123488095Y-97825000D01*
X123154761Y-97777380D02*
X122916666Y-98777380D01*
X122726190Y-98063095D01*
X122535714Y-98777380D01*
X122297619Y-97777380D01*
X122011904Y-97777380D02*
X121392857Y-97777380D01*
X121726190Y-98158333D01*
X121583333Y-98158333D01*
X121488095Y-98205952D01*
X121440476Y-98253571D01*
X121392857Y-98348809D01*
X121392857Y-98586904D01*
X121440476Y-98682142D01*
X121488095Y-98729761D01*
X121583333Y-98777380D01*
X121869047Y-98777380D01*
X121964285Y-98729761D01*
X122011904Y-98682142D01*
X120488095Y-97777380D02*
X120964285Y-97777380D01*
X121011904Y-98253571D01*
X120964285Y-98205952D01*
X120869047Y-98158333D01*
X120630952Y-98158333D01*
X120535714Y-98205952D01*
X120488095Y-98253571D01*
X120440476Y-98348809D01*
X120440476Y-98586904D01*
X120488095Y-98682142D01*
X120535714Y-98729761D01*
X120630952Y-98777380D01*
X120869047Y-98777380D01*
X120964285Y-98729761D01*
X121011904Y-98682142D01*
%TO.C,SW15*%
X124059523Y-60629761D02*
X123916666Y-60677380D01*
X123678571Y-60677380D01*
X123583333Y-60629761D01*
X123535714Y-60582142D01*
X123488095Y-60486904D01*
X123488095Y-60391666D01*
X123535714Y-60296428D01*
X123583333Y-60248809D01*
X123678571Y-60201190D01*
X123869047Y-60153571D01*
X123964285Y-60105952D01*
X124011904Y-60058333D01*
X124059523Y-59963095D01*
X124059523Y-59867857D01*
X124011904Y-59772619D01*
X123964285Y-59725000D01*
X123869047Y-59677380D01*
X123630952Y-59677380D01*
X123488095Y-59725000D01*
X123154761Y-59677380D02*
X122916666Y-60677380D01*
X122726190Y-59963095D01*
X122535714Y-60677380D01*
X122297619Y-59677380D01*
X121392857Y-60677380D02*
X121964285Y-60677380D01*
X121678571Y-60677380D02*
X121678571Y-59677380D01*
X121773809Y-59820238D01*
X121869047Y-59915476D01*
X121964285Y-59963095D01*
X120488095Y-59677380D02*
X120964285Y-59677380D01*
X121011904Y-60153571D01*
X120964285Y-60105952D01*
X120869047Y-60058333D01*
X120630952Y-60058333D01*
X120535714Y-60105952D01*
X120488095Y-60153571D01*
X120440476Y-60248809D01*
X120440476Y-60486904D01*
X120488095Y-60582142D01*
X120535714Y-60629761D01*
X120630952Y-60677380D01*
X120869047Y-60677380D01*
X120964285Y-60629761D01*
X121011904Y-60582142D01*
%TO.C,SW31*%
X47859523Y-98729761D02*
X47716666Y-98777380D01*
X47478571Y-98777380D01*
X47383333Y-98729761D01*
X47335714Y-98682142D01*
X47288095Y-98586904D01*
X47288095Y-98491666D01*
X47335714Y-98396428D01*
X47383333Y-98348809D01*
X47478571Y-98301190D01*
X47669047Y-98253571D01*
X47764285Y-98205952D01*
X47811904Y-98158333D01*
X47859523Y-98063095D01*
X47859523Y-97967857D01*
X47811904Y-97872619D01*
X47764285Y-97825000D01*
X47669047Y-97777380D01*
X47430952Y-97777380D01*
X47288095Y-97825000D01*
X46954761Y-97777380D02*
X46716666Y-98777380D01*
X46526190Y-98063095D01*
X46335714Y-98777380D01*
X46097619Y-97777380D01*
X45811904Y-97777380D02*
X45192857Y-97777380D01*
X45526190Y-98158333D01*
X45383333Y-98158333D01*
X45288095Y-98205952D01*
X45240476Y-98253571D01*
X45192857Y-98348809D01*
X45192857Y-98586904D01*
X45240476Y-98682142D01*
X45288095Y-98729761D01*
X45383333Y-98777380D01*
X45669047Y-98777380D01*
X45764285Y-98729761D01*
X45811904Y-98682142D01*
X44240476Y-98777380D02*
X44811904Y-98777380D01*
X44526190Y-98777380D02*
X44526190Y-97777380D01*
X44621428Y-97920238D01*
X44716666Y-98015476D01*
X44811904Y-98063095D01*
%TO.C,SW25*%
X124059523Y-79679761D02*
X123916666Y-79727380D01*
X123678571Y-79727380D01*
X123583333Y-79679761D01*
X123535714Y-79632142D01*
X123488095Y-79536904D01*
X123488095Y-79441666D01*
X123535714Y-79346428D01*
X123583333Y-79298809D01*
X123678571Y-79251190D01*
X123869047Y-79203571D01*
X123964285Y-79155952D01*
X124011904Y-79108333D01*
X124059523Y-79013095D01*
X124059523Y-78917857D01*
X124011904Y-78822619D01*
X123964285Y-78775000D01*
X123869047Y-78727380D01*
X123630952Y-78727380D01*
X123488095Y-78775000D01*
X123154761Y-78727380D02*
X122916666Y-79727380D01*
X122726190Y-79013095D01*
X122535714Y-79727380D01*
X122297619Y-78727380D01*
X121964285Y-78822619D02*
X121916666Y-78775000D01*
X121821428Y-78727380D01*
X121583333Y-78727380D01*
X121488095Y-78775000D01*
X121440476Y-78822619D01*
X121392857Y-78917857D01*
X121392857Y-79013095D01*
X121440476Y-79155952D01*
X122011904Y-79727380D01*
X121392857Y-79727380D01*
X120488095Y-78727380D02*
X120964285Y-78727380D01*
X121011904Y-79203571D01*
X120964285Y-79155952D01*
X120869047Y-79108333D01*
X120630952Y-79108333D01*
X120535714Y-79155952D01*
X120488095Y-79203571D01*
X120440476Y-79298809D01*
X120440476Y-79536904D01*
X120488095Y-79632142D01*
X120535714Y-79679761D01*
X120630952Y-79727380D01*
X120869047Y-79727380D01*
X120964285Y-79679761D01*
X121011904Y-79632142D01*
%TO.C,SW1.1*%
X48097619Y-60629761D02*
X47954761Y-60677380D01*
X47716666Y-60677380D01*
X47621428Y-60629761D01*
X47573809Y-60582142D01*
X47526190Y-60486904D01*
X47526190Y-60391666D01*
X47573809Y-60296428D01*
X47621428Y-60248809D01*
X47716666Y-60201190D01*
X47907142Y-60153571D01*
X48002380Y-60105952D01*
X48050000Y-60058333D01*
X48097619Y-59963095D01*
X48097619Y-59867857D01*
X48050000Y-59772619D01*
X48002380Y-59725000D01*
X47907142Y-59677380D01*
X47669047Y-59677380D01*
X47526190Y-59725000D01*
X47192857Y-59677380D02*
X46954761Y-60677380D01*
X46764285Y-59963095D01*
X46573809Y-60677380D01*
X46335714Y-59677380D01*
X45430952Y-60677380D02*
X46002380Y-60677380D01*
X45716666Y-60677380D02*
X45716666Y-59677380D01*
X45811904Y-59820238D01*
X45907142Y-59915476D01*
X46002380Y-59963095D01*
X45002380Y-60582142D02*
X44954761Y-60629761D01*
X45002380Y-60677380D01*
X45050000Y-60629761D01*
X45002380Y-60582142D01*
X45002380Y-60677380D01*
X44002380Y-60677380D02*
X44573809Y-60677380D01*
X44288095Y-60677380D02*
X44288095Y-59677380D01*
X44383333Y-59820238D01*
X44478571Y-59915476D01*
X44573809Y-59963095D01*
%TO.C,SW47*%
X235978273Y-117779761D02*
X235835416Y-117827380D01*
X235597321Y-117827380D01*
X235502083Y-117779761D01*
X235454464Y-117732142D01*
X235406845Y-117636904D01*
X235406845Y-117541666D01*
X235454464Y-117446428D01*
X235502083Y-117398809D01*
X235597321Y-117351190D01*
X235787797Y-117303571D01*
X235883035Y-117255952D01*
X235930654Y-117208333D01*
X235978273Y-117113095D01*
X235978273Y-117017857D01*
X235930654Y-116922619D01*
X235883035Y-116875000D01*
X235787797Y-116827380D01*
X235549702Y-116827380D01*
X235406845Y-116875000D01*
X235073511Y-116827380D02*
X234835416Y-117827380D01*
X234644940Y-117113095D01*
X234454464Y-117827380D01*
X234216369Y-116827380D01*
X233406845Y-117160714D02*
X233406845Y-117827380D01*
X233644940Y-116779761D02*
X233883035Y-117494047D01*
X233263988Y-117494047D01*
X232978273Y-116827380D02*
X232311607Y-116827380D01*
X232740178Y-117827380D01*
%TO.C,SW2*%
X66433333Y-41579761D02*
X66290476Y-41627380D01*
X66052380Y-41627380D01*
X65957142Y-41579761D01*
X65909523Y-41532142D01*
X65861904Y-41436904D01*
X65861904Y-41341666D01*
X65909523Y-41246428D01*
X65957142Y-41198809D01*
X66052380Y-41151190D01*
X66242857Y-41103571D01*
X66338095Y-41055952D01*
X66385714Y-41008333D01*
X66433333Y-40913095D01*
X66433333Y-40817857D01*
X66385714Y-40722619D01*
X66338095Y-40675000D01*
X66242857Y-40627380D01*
X66004761Y-40627380D01*
X65861904Y-40675000D01*
X65528571Y-40627380D02*
X65290476Y-41627380D01*
X65100000Y-40913095D01*
X64909523Y-41627380D01*
X64671428Y-40627380D01*
X64338095Y-40722619D02*
X64290476Y-40675000D01*
X64195238Y-40627380D01*
X63957142Y-40627380D01*
X63861904Y-40675000D01*
X63814285Y-40722619D01*
X63766666Y-40817857D01*
X63766666Y-40913095D01*
X63814285Y-41055952D01*
X64385714Y-41627380D01*
X63766666Y-41627380D01*
%TO.C,SW49*%
X281222023Y-117779761D02*
X281079166Y-117827380D01*
X280841071Y-117827380D01*
X280745833Y-117779761D01*
X280698214Y-117732142D01*
X280650595Y-117636904D01*
X280650595Y-117541666D01*
X280698214Y-117446428D01*
X280745833Y-117398809D01*
X280841071Y-117351190D01*
X281031547Y-117303571D01*
X281126785Y-117255952D01*
X281174404Y-117208333D01*
X281222023Y-117113095D01*
X281222023Y-117017857D01*
X281174404Y-116922619D01*
X281126785Y-116875000D01*
X281031547Y-116827380D01*
X280793452Y-116827380D01*
X280650595Y-116875000D01*
X280317261Y-116827380D02*
X280079166Y-117827380D01*
X279888690Y-117113095D01*
X279698214Y-117827380D01*
X279460119Y-116827380D01*
X278650595Y-117160714D02*
X278650595Y-117827380D01*
X278888690Y-116779761D02*
X279126785Y-117494047D01*
X278507738Y-117494047D01*
X278079166Y-117827380D02*
X277888690Y-117827380D01*
X277793452Y-117779761D01*
X277745833Y-117732142D01*
X277650595Y-117589285D01*
X277602976Y-117398809D01*
X277602976Y-117017857D01*
X277650595Y-116922619D01*
X277698214Y-116875000D01*
X277793452Y-116827380D01*
X277983928Y-116827380D01*
X278079166Y-116875000D01*
X278126785Y-116922619D01*
X278174404Y-117017857D01*
X278174404Y-117255952D01*
X278126785Y-117351190D01*
X278079166Y-117398809D01*
X277983928Y-117446428D01*
X277793452Y-117446428D01*
X277698214Y-117398809D01*
X277650595Y-117351190D01*
X277602976Y-117255952D01*
%TO.C,SW7*%
X237883333Y-41579761D02*
X237740476Y-41627380D01*
X237502380Y-41627380D01*
X237407142Y-41579761D01*
X237359523Y-41532142D01*
X237311904Y-41436904D01*
X237311904Y-41341666D01*
X237359523Y-41246428D01*
X237407142Y-41198809D01*
X237502380Y-41151190D01*
X237692857Y-41103571D01*
X237788095Y-41055952D01*
X237835714Y-41008333D01*
X237883333Y-40913095D01*
X237883333Y-40817857D01*
X237835714Y-40722619D01*
X237788095Y-40675000D01*
X237692857Y-40627380D01*
X237454761Y-40627380D01*
X237311904Y-40675000D01*
X236978571Y-40627380D02*
X236740476Y-41627380D01*
X236550000Y-40913095D01*
X236359523Y-41627380D01*
X236121428Y-40627380D01*
X235835714Y-40627380D02*
X235169047Y-40627380D01*
X235597619Y-41627380D01*
%TO.C,SW30*%
X28809523Y-98729761D02*
X28666666Y-98777380D01*
X28428571Y-98777380D01*
X28333333Y-98729761D01*
X28285714Y-98682142D01*
X28238095Y-98586904D01*
X28238095Y-98491666D01*
X28285714Y-98396428D01*
X28333333Y-98348809D01*
X28428571Y-98301190D01*
X28619047Y-98253571D01*
X28714285Y-98205952D01*
X28761904Y-98158333D01*
X28809523Y-98063095D01*
X28809523Y-97967857D01*
X28761904Y-97872619D01*
X28714285Y-97825000D01*
X28619047Y-97777380D01*
X28380952Y-97777380D01*
X28238095Y-97825000D01*
X27904761Y-97777380D02*
X27666666Y-98777380D01*
X27476190Y-98063095D01*
X27285714Y-98777380D01*
X27047619Y-97777380D01*
X26761904Y-97777380D02*
X26142857Y-97777380D01*
X26476190Y-98158333D01*
X26333333Y-98158333D01*
X26238095Y-98205952D01*
X26190476Y-98253571D01*
X26142857Y-98348809D01*
X26142857Y-98586904D01*
X26190476Y-98682142D01*
X26238095Y-98729761D01*
X26333333Y-98777380D01*
X26619047Y-98777380D01*
X26714285Y-98729761D01*
X26761904Y-98682142D01*
X25523809Y-97777380D02*
X25428571Y-97777380D01*
X25333333Y-97825000D01*
X25285714Y-97872619D01*
X25238095Y-97967857D01*
X25190476Y-98158333D01*
X25190476Y-98396428D01*
X25238095Y-98586904D01*
X25285714Y-98682142D01*
X25333333Y-98729761D01*
X25428571Y-98777380D01*
X25523809Y-98777380D01*
X25619047Y-98729761D01*
X25666666Y-98682142D01*
X25714285Y-98586904D01*
X25761904Y-98396428D01*
X25761904Y-98158333D01*
X25714285Y-97967857D01*
X25666666Y-97872619D01*
X25619047Y-97825000D01*
X25523809Y-97777380D01*
%TO.C,SW40*%
X31190773Y-117779761D02*
X31047916Y-117827380D01*
X30809821Y-117827380D01*
X30714583Y-117779761D01*
X30666964Y-117732142D01*
X30619345Y-117636904D01*
X30619345Y-117541666D01*
X30666964Y-117446428D01*
X30714583Y-117398809D01*
X30809821Y-117351190D01*
X31000297Y-117303571D01*
X31095535Y-117255952D01*
X31143154Y-117208333D01*
X31190773Y-117113095D01*
X31190773Y-117017857D01*
X31143154Y-116922619D01*
X31095535Y-116875000D01*
X31000297Y-116827380D01*
X30762202Y-116827380D01*
X30619345Y-116875000D01*
X30286011Y-116827380D02*
X30047916Y-117827380D01*
X29857440Y-117113095D01*
X29666964Y-117827380D01*
X29428869Y-116827380D01*
X28619345Y-117160714D02*
X28619345Y-117827380D01*
X28857440Y-116779761D02*
X29095535Y-117494047D01*
X28476488Y-117494047D01*
X27905059Y-116827380D02*
X27809821Y-116827380D01*
X27714583Y-116875000D01*
X27666964Y-116922619D01*
X27619345Y-117017857D01*
X27571726Y-117208333D01*
X27571726Y-117446428D01*
X27619345Y-117636904D01*
X27666964Y-117732142D01*
X27714583Y-117779761D01*
X27809821Y-117827380D01*
X27905059Y-117827380D01*
X28000297Y-117779761D01*
X28047916Y-117732142D01*
X28095535Y-117636904D01*
X28143154Y-117446428D01*
X28143154Y-117208333D01*
X28095535Y-117017857D01*
X28047916Y-116922619D01*
X28000297Y-116875000D01*
X27905059Y-116827380D01*
%TO.C,SW1.0*%
X29047619Y-60629761D02*
X28904761Y-60677380D01*
X28666666Y-60677380D01*
X28571428Y-60629761D01*
X28523809Y-60582142D01*
X28476190Y-60486904D01*
X28476190Y-60391666D01*
X28523809Y-60296428D01*
X28571428Y-60248809D01*
X28666666Y-60201190D01*
X28857142Y-60153571D01*
X28952380Y-60105952D01*
X29000000Y-60058333D01*
X29047619Y-59963095D01*
X29047619Y-59867857D01*
X29000000Y-59772619D01*
X28952380Y-59725000D01*
X28857142Y-59677380D01*
X28619047Y-59677380D01*
X28476190Y-59725000D01*
X28142857Y-59677380D02*
X27904761Y-60677380D01*
X27714285Y-59963095D01*
X27523809Y-60677380D01*
X27285714Y-59677380D01*
X26380952Y-60677380D02*
X26952380Y-60677380D01*
X26666666Y-60677380D02*
X26666666Y-59677380D01*
X26761904Y-59820238D01*
X26857142Y-59915476D01*
X26952380Y-59963095D01*
X25952380Y-60582142D02*
X25904761Y-60629761D01*
X25952380Y-60677380D01*
X26000000Y-60629761D01*
X25952380Y-60582142D01*
X25952380Y-60677380D01*
X25285714Y-59677380D02*
X25190476Y-59677380D01*
X25095238Y-59725000D01*
X25047619Y-59772619D01*
X25000000Y-59867857D01*
X24952380Y-60058333D01*
X24952380Y-60296428D01*
X25000000Y-60486904D01*
X25047619Y-60582142D01*
X25095238Y-60629761D01*
X25190476Y-60677380D01*
X25285714Y-60677380D01*
X25380952Y-60629761D01*
X25428571Y-60582142D01*
X25476190Y-60486904D01*
X25523809Y-60296428D01*
X25523809Y-60058333D01*
X25476190Y-59867857D01*
X25428571Y-59772619D01*
X25380952Y-59725000D01*
X25285714Y-59677380D01*
%TO.C,SW8*%
X256933333Y-41579761D02*
X256790476Y-41627380D01*
X256552380Y-41627380D01*
X256457142Y-41579761D01*
X256409523Y-41532142D01*
X256361904Y-41436904D01*
X256361904Y-41341666D01*
X256409523Y-41246428D01*
X256457142Y-41198809D01*
X256552380Y-41151190D01*
X256742857Y-41103571D01*
X256838095Y-41055952D01*
X256885714Y-41008333D01*
X256933333Y-40913095D01*
X256933333Y-40817857D01*
X256885714Y-40722619D01*
X256838095Y-40675000D01*
X256742857Y-40627380D01*
X256504761Y-40627380D01*
X256361904Y-40675000D01*
X256028571Y-40627380D02*
X255790476Y-41627380D01*
X255600000Y-40913095D01*
X255409523Y-41627380D01*
X255171428Y-40627380D01*
X254647619Y-41055952D02*
X254742857Y-41008333D01*
X254790476Y-40960714D01*
X254838095Y-40865476D01*
X254838095Y-40817857D01*
X254790476Y-40722619D01*
X254742857Y-40675000D01*
X254647619Y-40627380D01*
X254457142Y-40627380D01*
X254361904Y-40675000D01*
X254314285Y-40722619D01*
X254266666Y-40817857D01*
X254266666Y-40865476D01*
X254314285Y-40960714D01*
X254361904Y-41008333D01*
X254457142Y-41055952D01*
X254647619Y-41055952D01*
X254742857Y-41103571D01*
X254790476Y-41151190D01*
X254838095Y-41246428D01*
X254838095Y-41436904D01*
X254790476Y-41532142D01*
X254742857Y-41579761D01*
X254647619Y-41627380D01*
X254457142Y-41627380D01*
X254361904Y-41579761D01*
X254314285Y-41532142D01*
X254266666Y-41436904D01*
X254266666Y-41246428D01*
X254314285Y-41151190D01*
X254361904Y-41103571D01*
X254457142Y-41055952D01*
%TO.C,SW37*%
X238359523Y-98729761D02*
X238216666Y-98777380D01*
X237978571Y-98777380D01*
X237883333Y-98729761D01*
X237835714Y-98682142D01*
X237788095Y-98586904D01*
X237788095Y-98491666D01*
X237835714Y-98396428D01*
X237883333Y-98348809D01*
X237978571Y-98301190D01*
X238169047Y-98253571D01*
X238264285Y-98205952D01*
X238311904Y-98158333D01*
X238359523Y-98063095D01*
X238359523Y-97967857D01*
X238311904Y-97872619D01*
X238264285Y-97825000D01*
X238169047Y-97777380D01*
X237930952Y-97777380D01*
X237788095Y-97825000D01*
X237454761Y-97777380D02*
X237216666Y-98777380D01*
X237026190Y-98063095D01*
X236835714Y-98777380D01*
X236597619Y-97777380D01*
X236311904Y-97777380D02*
X235692857Y-97777380D01*
X236026190Y-98158333D01*
X235883333Y-98158333D01*
X235788095Y-98205952D01*
X235740476Y-98253571D01*
X235692857Y-98348809D01*
X235692857Y-98586904D01*
X235740476Y-98682142D01*
X235788095Y-98729761D01*
X235883333Y-98777380D01*
X236169047Y-98777380D01*
X236264285Y-98729761D01*
X236311904Y-98682142D01*
X235359523Y-97777380D02*
X234692857Y-97777380D01*
X235121428Y-98777380D01*
%TO.C,SW0*%
X28333333Y-41579761D02*
X28190476Y-41627380D01*
X27952380Y-41627380D01*
X27857142Y-41579761D01*
X27809523Y-41532142D01*
X27761904Y-41436904D01*
X27761904Y-41341666D01*
X27809523Y-41246428D01*
X27857142Y-41198809D01*
X27952380Y-41151190D01*
X28142857Y-41103571D01*
X28238095Y-41055952D01*
X28285714Y-41008333D01*
X28333333Y-40913095D01*
X28333333Y-40817857D01*
X28285714Y-40722619D01*
X28238095Y-40675000D01*
X28142857Y-40627380D01*
X27904761Y-40627380D01*
X27761904Y-40675000D01*
X27428571Y-40627380D02*
X27190476Y-41627380D01*
X27000000Y-40913095D01*
X26809523Y-41627380D01*
X26571428Y-40627380D01*
X26000000Y-40627380D02*
X25904761Y-40627380D01*
X25809523Y-40675000D01*
X25761904Y-40722619D01*
X25714285Y-40817857D01*
X25666666Y-41008333D01*
X25666666Y-41246428D01*
X25714285Y-41436904D01*
X25761904Y-41532142D01*
X25809523Y-41579761D01*
X25904761Y-41627380D01*
X26000000Y-41627380D01*
X26095238Y-41579761D01*
X26142857Y-41532142D01*
X26190476Y-41436904D01*
X26238095Y-41246428D01*
X26238095Y-41008333D01*
X26190476Y-40817857D01*
X26142857Y-40722619D01*
X26095238Y-40675000D01*
X26000000Y-40627380D01*
%TO.C,SW32*%
X66909523Y-98729761D02*
X66766666Y-98777380D01*
X66528571Y-98777380D01*
X66433333Y-98729761D01*
X66385714Y-98682142D01*
X66338095Y-98586904D01*
X66338095Y-98491666D01*
X66385714Y-98396428D01*
X66433333Y-98348809D01*
X66528571Y-98301190D01*
X66719047Y-98253571D01*
X66814285Y-98205952D01*
X66861904Y-98158333D01*
X66909523Y-98063095D01*
X66909523Y-97967857D01*
X66861904Y-97872619D01*
X66814285Y-97825000D01*
X66719047Y-97777380D01*
X66480952Y-97777380D01*
X66338095Y-97825000D01*
X66004761Y-97777380D02*
X65766666Y-98777380D01*
X65576190Y-98063095D01*
X65385714Y-98777380D01*
X65147619Y-97777380D01*
X64861904Y-97777380D02*
X64242857Y-97777380D01*
X64576190Y-98158333D01*
X64433333Y-98158333D01*
X64338095Y-98205952D01*
X64290476Y-98253571D01*
X64242857Y-98348809D01*
X64242857Y-98586904D01*
X64290476Y-98682142D01*
X64338095Y-98729761D01*
X64433333Y-98777380D01*
X64719047Y-98777380D01*
X64814285Y-98729761D01*
X64861904Y-98682142D01*
X63861904Y-97872619D02*
X63814285Y-97825000D01*
X63719047Y-97777380D01*
X63480952Y-97777380D01*
X63385714Y-97825000D01*
X63338095Y-97872619D01*
X63290476Y-97967857D01*
X63290476Y-98063095D01*
X63338095Y-98205952D01*
X63909523Y-98777380D01*
X63290476Y-98777380D01*
%TO.C,SW41*%
X52622023Y-117779761D02*
X52479166Y-117827380D01*
X52241071Y-117827380D01*
X52145833Y-117779761D01*
X52098214Y-117732142D01*
X52050595Y-117636904D01*
X52050595Y-117541666D01*
X52098214Y-117446428D01*
X52145833Y-117398809D01*
X52241071Y-117351190D01*
X52431547Y-117303571D01*
X52526785Y-117255952D01*
X52574404Y-117208333D01*
X52622023Y-117113095D01*
X52622023Y-117017857D01*
X52574404Y-116922619D01*
X52526785Y-116875000D01*
X52431547Y-116827380D01*
X52193452Y-116827380D01*
X52050595Y-116875000D01*
X51717261Y-116827380D02*
X51479166Y-117827380D01*
X51288690Y-117113095D01*
X51098214Y-117827380D01*
X50860119Y-116827380D01*
X50050595Y-117160714D02*
X50050595Y-117827380D01*
X50288690Y-116779761D02*
X50526785Y-117494047D01*
X49907738Y-117494047D01*
X49002976Y-117827380D02*
X49574404Y-117827380D01*
X49288690Y-117827380D02*
X49288690Y-116827380D01*
X49383928Y-116970238D01*
X49479166Y-117065476D01*
X49574404Y-117113095D01*
%TO.C,SW1*%
X47383333Y-41579761D02*
X47240476Y-41627380D01*
X47002380Y-41627380D01*
X46907142Y-41579761D01*
X46859523Y-41532142D01*
X46811904Y-41436904D01*
X46811904Y-41341666D01*
X46859523Y-41246428D01*
X46907142Y-41198809D01*
X47002380Y-41151190D01*
X47192857Y-41103571D01*
X47288095Y-41055952D01*
X47335714Y-41008333D01*
X47383333Y-40913095D01*
X47383333Y-40817857D01*
X47335714Y-40722619D01*
X47288095Y-40675000D01*
X47192857Y-40627380D01*
X46954761Y-40627380D01*
X46811904Y-40675000D01*
X46478571Y-40627380D02*
X46240476Y-41627380D01*
X46050000Y-40913095D01*
X45859523Y-41627380D01*
X45621428Y-40627380D01*
X44716666Y-41627380D02*
X45288095Y-41627380D01*
X45002380Y-41627380D02*
X45002380Y-40627380D01*
X45097619Y-40770238D01*
X45192857Y-40865476D01*
X45288095Y-40913095D01*
%TO.C,SW311*%
X315035714Y-98729761D02*
X314892857Y-98777380D01*
X314654761Y-98777380D01*
X314559523Y-98729761D01*
X314511904Y-98682142D01*
X314464285Y-98586904D01*
X314464285Y-98491666D01*
X314511904Y-98396428D01*
X314559523Y-98348809D01*
X314654761Y-98301190D01*
X314845238Y-98253571D01*
X314940476Y-98205952D01*
X314988095Y-98158333D01*
X315035714Y-98063095D01*
X315035714Y-97967857D01*
X314988095Y-97872619D01*
X314940476Y-97825000D01*
X314845238Y-97777380D01*
X314607142Y-97777380D01*
X314464285Y-97825000D01*
X314130952Y-97777380D02*
X313892857Y-98777380D01*
X313702380Y-98063095D01*
X313511904Y-98777380D01*
X313273809Y-97777380D01*
X312988095Y-97777380D02*
X312369047Y-97777380D01*
X312702380Y-98158333D01*
X312559523Y-98158333D01*
X312464285Y-98205952D01*
X312416666Y-98253571D01*
X312369047Y-98348809D01*
X312369047Y-98586904D01*
X312416666Y-98682142D01*
X312464285Y-98729761D01*
X312559523Y-98777380D01*
X312845238Y-98777380D01*
X312940476Y-98729761D01*
X312988095Y-98682142D01*
X311416666Y-98777380D02*
X311988095Y-98777380D01*
X311702380Y-98777380D02*
X311702380Y-97777380D01*
X311797619Y-97920238D01*
X311892857Y-98015476D01*
X311988095Y-98063095D01*
X310464285Y-98777380D02*
X311035714Y-98777380D01*
X310750000Y-98777380D02*
X310750000Y-97777380D01*
X310845238Y-97920238D01*
X310940476Y-98015476D01*
X311035714Y-98063095D01*
%TO.C,SW29*%
X276459523Y-79679761D02*
X276316666Y-79727380D01*
X276078571Y-79727380D01*
X275983333Y-79679761D01*
X275935714Y-79632142D01*
X275888095Y-79536904D01*
X275888095Y-79441666D01*
X275935714Y-79346428D01*
X275983333Y-79298809D01*
X276078571Y-79251190D01*
X276269047Y-79203571D01*
X276364285Y-79155952D01*
X276411904Y-79108333D01*
X276459523Y-79013095D01*
X276459523Y-78917857D01*
X276411904Y-78822619D01*
X276364285Y-78775000D01*
X276269047Y-78727380D01*
X276030952Y-78727380D01*
X275888095Y-78775000D01*
X275554761Y-78727380D02*
X275316666Y-79727380D01*
X275126190Y-79013095D01*
X274935714Y-79727380D01*
X274697619Y-78727380D01*
X274364285Y-78822619D02*
X274316666Y-78775000D01*
X274221428Y-78727380D01*
X273983333Y-78727380D01*
X273888095Y-78775000D01*
X273840476Y-78822619D01*
X273792857Y-78917857D01*
X273792857Y-79013095D01*
X273840476Y-79155952D01*
X274411904Y-79727380D01*
X273792857Y-79727380D01*
X273316666Y-79727380D02*
X273126190Y-79727380D01*
X273030952Y-79679761D01*
X272983333Y-79632142D01*
X272888095Y-79489285D01*
X272840476Y-79298809D01*
X272840476Y-78917857D01*
X272888095Y-78822619D01*
X272935714Y-78775000D01*
X273030952Y-78727380D01*
X273221428Y-78727380D01*
X273316666Y-78775000D01*
X273364285Y-78822619D01*
X273411904Y-78917857D01*
X273411904Y-79155952D01*
X273364285Y-79251190D01*
X273316666Y-79298809D01*
X273221428Y-79346428D01*
X273030952Y-79346428D01*
X272935714Y-79298809D01*
X272888095Y-79251190D01*
X272840476Y-79155952D01*
%TO.C,SW10*%
X295509523Y-41579761D02*
X295366666Y-41627380D01*
X295128571Y-41627380D01*
X295033333Y-41579761D01*
X294985714Y-41532142D01*
X294938095Y-41436904D01*
X294938095Y-41341666D01*
X294985714Y-41246428D01*
X295033333Y-41198809D01*
X295128571Y-41151190D01*
X295319047Y-41103571D01*
X295414285Y-41055952D01*
X295461904Y-41008333D01*
X295509523Y-40913095D01*
X295509523Y-40817857D01*
X295461904Y-40722619D01*
X295414285Y-40675000D01*
X295319047Y-40627380D01*
X295080952Y-40627380D01*
X294938095Y-40675000D01*
X294604761Y-40627380D02*
X294366666Y-41627380D01*
X294176190Y-40913095D01*
X293985714Y-41627380D01*
X293747619Y-40627380D01*
X292842857Y-41627380D02*
X293414285Y-41627380D01*
X293128571Y-41627380D02*
X293128571Y-40627380D01*
X293223809Y-40770238D01*
X293319047Y-40865476D01*
X293414285Y-40913095D01*
X292223809Y-40627380D02*
X292128571Y-40627380D01*
X292033333Y-40675000D01*
X291985714Y-40722619D01*
X291938095Y-40817857D01*
X291890476Y-41008333D01*
X291890476Y-41246428D01*
X291938095Y-41436904D01*
X291985714Y-41532142D01*
X292033333Y-41579761D01*
X292128571Y-41627380D01*
X292223809Y-41627380D01*
X292319047Y-41579761D01*
X292366666Y-41532142D01*
X292414285Y-41436904D01*
X292461904Y-41246428D01*
X292461904Y-41008333D01*
X292414285Y-40817857D01*
X292366666Y-40722619D01*
X292319047Y-40675000D01*
X292223809Y-40627380D01*
%TO.C,SW9*%
X275983333Y-41579761D02*
X275840476Y-41627380D01*
X275602380Y-41627380D01*
X275507142Y-41579761D01*
X275459523Y-41532142D01*
X275411904Y-41436904D01*
X275411904Y-41341666D01*
X275459523Y-41246428D01*
X275507142Y-41198809D01*
X275602380Y-41151190D01*
X275792857Y-41103571D01*
X275888095Y-41055952D01*
X275935714Y-41008333D01*
X275983333Y-40913095D01*
X275983333Y-40817857D01*
X275935714Y-40722619D01*
X275888095Y-40675000D01*
X275792857Y-40627380D01*
X275554761Y-40627380D01*
X275411904Y-40675000D01*
X275078571Y-40627380D02*
X274840476Y-41627380D01*
X274650000Y-40913095D01*
X274459523Y-41627380D01*
X274221428Y-40627380D01*
X273792857Y-41627380D02*
X273602380Y-41627380D01*
X273507142Y-41579761D01*
X273459523Y-41532142D01*
X273364285Y-41389285D01*
X273316666Y-41198809D01*
X273316666Y-40817857D01*
X273364285Y-40722619D01*
X273411904Y-40675000D01*
X273507142Y-40627380D01*
X273697619Y-40627380D01*
X273792857Y-40675000D01*
X273840476Y-40722619D01*
X273888095Y-40817857D01*
X273888095Y-41055952D01*
X273840476Y-41151190D01*
X273792857Y-41198809D01*
X273697619Y-41246428D01*
X273507142Y-41246428D01*
X273411904Y-41198809D01*
X273364285Y-41151190D01*
X273316666Y-41055952D01*
%TO.C,SW17*%
X238359523Y-60629761D02*
X238216666Y-60677380D01*
X237978571Y-60677380D01*
X237883333Y-60629761D01*
X237835714Y-60582142D01*
X237788095Y-60486904D01*
X237788095Y-60391666D01*
X237835714Y-60296428D01*
X237883333Y-60248809D01*
X237978571Y-60201190D01*
X238169047Y-60153571D01*
X238264285Y-60105952D01*
X238311904Y-60058333D01*
X238359523Y-59963095D01*
X238359523Y-59867857D01*
X238311904Y-59772619D01*
X238264285Y-59725000D01*
X238169047Y-59677380D01*
X237930952Y-59677380D01*
X237788095Y-59725000D01*
X237454761Y-59677380D02*
X237216666Y-60677380D01*
X237026190Y-59963095D01*
X236835714Y-60677380D01*
X236597619Y-59677380D01*
X235692857Y-60677380D02*
X236264285Y-60677380D01*
X235978571Y-60677380D02*
X235978571Y-59677380D01*
X236073809Y-59820238D01*
X236169047Y-59915476D01*
X236264285Y-59963095D01*
X235359523Y-59677380D02*
X234692857Y-59677380D01*
X235121428Y-60677380D01*
%TO.C,SW411*%
X310273214Y-117779761D02*
X310130357Y-117827380D01*
X309892261Y-117827380D01*
X309797023Y-117779761D01*
X309749404Y-117732142D01*
X309701785Y-117636904D01*
X309701785Y-117541666D01*
X309749404Y-117446428D01*
X309797023Y-117398809D01*
X309892261Y-117351190D01*
X310082738Y-117303571D01*
X310177976Y-117255952D01*
X310225595Y-117208333D01*
X310273214Y-117113095D01*
X310273214Y-117017857D01*
X310225595Y-116922619D01*
X310177976Y-116875000D01*
X310082738Y-116827380D01*
X309844642Y-116827380D01*
X309701785Y-116875000D01*
X309368452Y-116827380D02*
X309130357Y-117827380D01*
X308939880Y-117113095D01*
X308749404Y-117827380D01*
X308511309Y-116827380D01*
X307701785Y-117160714D02*
X307701785Y-117827380D01*
X307939880Y-116779761D02*
X308177976Y-117494047D01*
X307558928Y-117494047D01*
X306654166Y-117827380D02*
X307225595Y-117827380D01*
X306939880Y-117827380D02*
X306939880Y-116827380D01*
X307035119Y-116970238D01*
X307130357Y-117065476D01*
X307225595Y-117113095D01*
X305701785Y-117827380D02*
X306273214Y-117827380D01*
X305987500Y-117827380D02*
X305987500Y-116827380D01*
X306082738Y-116970238D01*
X306177976Y-117065476D01*
X306273214Y-117113095D01*
%TO.C,SW211*%
X315035714Y-79679761D02*
X314892857Y-79727380D01*
X314654761Y-79727380D01*
X314559523Y-79679761D01*
X314511904Y-79632142D01*
X314464285Y-79536904D01*
X314464285Y-79441666D01*
X314511904Y-79346428D01*
X314559523Y-79298809D01*
X314654761Y-79251190D01*
X314845238Y-79203571D01*
X314940476Y-79155952D01*
X314988095Y-79108333D01*
X315035714Y-79013095D01*
X315035714Y-78917857D01*
X314988095Y-78822619D01*
X314940476Y-78775000D01*
X314845238Y-78727380D01*
X314607142Y-78727380D01*
X314464285Y-78775000D01*
X314130952Y-78727380D02*
X313892857Y-79727380D01*
X313702380Y-79013095D01*
X313511904Y-79727380D01*
X313273809Y-78727380D01*
X312940476Y-78822619D02*
X312892857Y-78775000D01*
X312797619Y-78727380D01*
X312559523Y-78727380D01*
X312464285Y-78775000D01*
X312416666Y-78822619D01*
X312369047Y-78917857D01*
X312369047Y-79013095D01*
X312416666Y-79155952D01*
X312988095Y-79727380D01*
X312369047Y-79727380D01*
X311416666Y-79727380D02*
X311988095Y-79727380D01*
X311702380Y-79727380D02*
X311702380Y-78727380D01*
X311797619Y-78870238D01*
X311892857Y-78965476D01*
X311988095Y-79013095D01*
X310464285Y-79727380D02*
X311035714Y-79727380D01*
X310750000Y-79727380D02*
X310750000Y-78727380D01*
X310845238Y-78870238D01*
X310940476Y-78965476D01*
X311035714Y-79013095D01*
%TO.C,SW19*%
X276459523Y-60629761D02*
X276316666Y-60677380D01*
X276078571Y-60677380D01*
X275983333Y-60629761D01*
X275935714Y-60582142D01*
X275888095Y-60486904D01*
X275888095Y-60391666D01*
X275935714Y-60296428D01*
X275983333Y-60248809D01*
X276078571Y-60201190D01*
X276269047Y-60153571D01*
X276364285Y-60105952D01*
X276411904Y-60058333D01*
X276459523Y-59963095D01*
X276459523Y-59867857D01*
X276411904Y-59772619D01*
X276364285Y-59725000D01*
X276269047Y-59677380D01*
X276030952Y-59677380D01*
X275888095Y-59725000D01*
X275554761Y-59677380D02*
X275316666Y-60677380D01*
X275126190Y-59963095D01*
X274935714Y-60677380D01*
X274697619Y-59677380D01*
X273792857Y-60677380D02*
X274364285Y-60677380D01*
X274078571Y-60677380D02*
X274078571Y-59677380D01*
X274173809Y-59820238D01*
X274269047Y-59915476D01*
X274364285Y-59963095D01*
X273316666Y-60677380D02*
X273126190Y-60677380D01*
X273030952Y-60629761D01*
X272983333Y-60582142D01*
X272888095Y-60439285D01*
X272840476Y-60248809D01*
X272840476Y-59867857D01*
X272888095Y-59772619D01*
X272935714Y-59725000D01*
X273030952Y-59677380D01*
X273221428Y-59677380D01*
X273316666Y-59725000D01*
X273364285Y-59772619D01*
X273411904Y-59867857D01*
X273411904Y-60105952D01*
X273364285Y-60201190D01*
X273316666Y-60248809D01*
X273221428Y-60296428D01*
X273030952Y-60296428D01*
X272935714Y-60248809D01*
X272888095Y-60201190D01*
X272840476Y-60105952D01*
%TO.C,SW33*%
X85959523Y-98729761D02*
X85816666Y-98777380D01*
X85578571Y-98777380D01*
X85483333Y-98729761D01*
X85435714Y-98682142D01*
X85388095Y-98586904D01*
X85388095Y-98491666D01*
X85435714Y-98396428D01*
X85483333Y-98348809D01*
X85578571Y-98301190D01*
X85769047Y-98253571D01*
X85864285Y-98205952D01*
X85911904Y-98158333D01*
X85959523Y-98063095D01*
X85959523Y-97967857D01*
X85911904Y-97872619D01*
X85864285Y-97825000D01*
X85769047Y-97777380D01*
X85530952Y-97777380D01*
X85388095Y-97825000D01*
X85054761Y-97777380D02*
X84816666Y-98777380D01*
X84626190Y-98063095D01*
X84435714Y-98777380D01*
X84197619Y-97777380D01*
X83911904Y-97777380D02*
X83292857Y-97777380D01*
X83626190Y-98158333D01*
X83483333Y-98158333D01*
X83388095Y-98205952D01*
X83340476Y-98253571D01*
X83292857Y-98348809D01*
X83292857Y-98586904D01*
X83340476Y-98682142D01*
X83388095Y-98729761D01*
X83483333Y-98777380D01*
X83769047Y-98777380D01*
X83864285Y-98729761D01*
X83911904Y-98682142D01*
X82959523Y-97777380D02*
X82340476Y-97777380D01*
X82673809Y-98158333D01*
X82530952Y-98158333D01*
X82435714Y-98205952D01*
X82388095Y-98253571D01*
X82340476Y-98348809D01*
X82340476Y-98586904D01*
X82388095Y-98682142D01*
X82435714Y-98729761D01*
X82530952Y-98777380D01*
X82816666Y-98777380D01*
X82911904Y-98729761D01*
X82959523Y-98682142D01*
%TO.C,SW110*%
X295985714Y-60629761D02*
X295842857Y-60677380D01*
X295604761Y-60677380D01*
X295509523Y-60629761D01*
X295461904Y-60582142D01*
X295414285Y-60486904D01*
X295414285Y-60391666D01*
X295461904Y-60296428D01*
X295509523Y-60248809D01*
X295604761Y-60201190D01*
X295795238Y-60153571D01*
X295890476Y-60105952D01*
X295938095Y-60058333D01*
X295985714Y-59963095D01*
X295985714Y-59867857D01*
X295938095Y-59772619D01*
X295890476Y-59725000D01*
X295795238Y-59677380D01*
X295557142Y-59677380D01*
X295414285Y-59725000D01*
X295080952Y-59677380D02*
X294842857Y-60677380D01*
X294652380Y-59963095D01*
X294461904Y-60677380D01*
X294223809Y-59677380D01*
X293319047Y-60677380D02*
X293890476Y-60677380D01*
X293604761Y-60677380D02*
X293604761Y-59677380D01*
X293700000Y-59820238D01*
X293795238Y-59915476D01*
X293890476Y-59963095D01*
X292366666Y-60677380D02*
X292938095Y-60677380D01*
X292652380Y-60677380D02*
X292652380Y-59677380D01*
X292747619Y-59820238D01*
X292842857Y-59915476D01*
X292938095Y-59963095D01*
X291747619Y-59677380D02*
X291652380Y-59677380D01*
X291557142Y-59725000D01*
X291509523Y-59772619D01*
X291461904Y-59867857D01*
X291414285Y-60058333D01*
X291414285Y-60296428D01*
X291461904Y-60486904D01*
X291509523Y-60582142D01*
X291557142Y-60629761D01*
X291652380Y-60677380D01*
X291747619Y-60677380D01*
X291842857Y-60629761D01*
X291890476Y-60582142D01*
X291938095Y-60486904D01*
X291985714Y-60296428D01*
X291985714Y-60058333D01*
X291938095Y-59867857D01*
X291890476Y-59772619D01*
X291842857Y-59725000D01*
X291747619Y-59677380D01*
%TO.C,SW36*%
X219309523Y-98729761D02*
X219166666Y-98777380D01*
X218928571Y-98777380D01*
X218833333Y-98729761D01*
X218785714Y-98682142D01*
X218738095Y-98586904D01*
X218738095Y-98491666D01*
X218785714Y-98396428D01*
X218833333Y-98348809D01*
X218928571Y-98301190D01*
X219119047Y-98253571D01*
X219214285Y-98205952D01*
X219261904Y-98158333D01*
X219309523Y-98063095D01*
X219309523Y-97967857D01*
X219261904Y-97872619D01*
X219214285Y-97825000D01*
X219119047Y-97777380D01*
X218880952Y-97777380D01*
X218738095Y-97825000D01*
X218404761Y-97777380D02*
X218166666Y-98777380D01*
X217976190Y-98063095D01*
X217785714Y-98777380D01*
X217547619Y-97777380D01*
X217261904Y-97777380D02*
X216642857Y-97777380D01*
X216976190Y-98158333D01*
X216833333Y-98158333D01*
X216738095Y-98205952D01*
X216690476Y-98253571D01*
X216642857Y-98348809D01*
X216642857Y-98586904D01*
X216690476Y-98682142D01*
X216738095Y-98729761D01*
X216833333Y-98777380D01*
X217119047Y-98777380D01*
X217214285Y-98729761D01*
X217261904Y-98682142D01*
X215785714Y-97777380D02*
X215976190Y-97777380D01*
X216071428Y-97825000D01*
X216119047Y-97872619D01*
X216214285Y-98015476D01*
X216261904Y-98205952D01*
X216261904Y-98586904D01*
X216214285Y-98682142D01*
X216166666Y-98729761D01*
X216071428Y-98777380D01*
X215880952Y-98777380D01*
X215785714Y-98729761D01*
X215738095Y-98682142D01*
X215690476Y-98586904D01*
X215690476Y-98348809D01*
X215738095Y-98253571D01*
X215785714Y-98205952D01*
X215880952Y-98158333D01*
X216071428Y-98158333D01*
X216166666Y-98205952D01*
X216214285Y-98253571D01*
X216261904Y-98348809D01*
%TO.C,SW6*%
X218833333Y-41579761D02*
X218690476Y-41627380D01*
X218452380Y-41627380D01*
X218357142Y-41579761D01*
X218309523Y-41532142D01*
X218261904Y-41436904D01*
X218261904Y-41341666D01*
X218309523Y-41246428D01*
X218357142Y-41198809D01*
X218452380Y-41151190D01*
X218642857Y-41103571D01*
X218738095Y-41055952D01*
X218785714Y-41008333D01*
X218833333Y-40913095D01*
X218833333Y-40817857D01*
X218785714Y-40722619D01*
X218738095Y-40675000D01*
X218642857Y-40627380D01*
X218404761Y-40627380D01*
X218261904Y-40675000D01*
X217928571Y-40627380D02*
X217690476Y-41627380D01*
X217500000Y-40913095D01*
X217309523Y-41627380D01*
X217071428Y-40627380D01*
X216261904Y-40627380D02*
X216452380Y-40627380D01*
X216547619Y-40675000D01*
X216595238Y-40722619D01*
X216690476Y-40865476D01*
X216738095Y-41055952D01*
X216738095Y-41436904D01*
X216690476Y-41532142D01*
X216642857Y-41579761D01*
X216547619Y-41627380D01*
X216357142Y-41627380D01*
X216261904Y-41579761D01*
X216214285Y-41532142D01*
X216166666Y-41436904D01*
X216166666Y-41198809D01*
X216214285Y-41103571D01*
X216261904Y-41055952D01*
X216357142Y-41008333D01*
X216547619Y-41008333D01*
X216642857Y-41055952D01*
X216690476Y-41103571D01*
X216738095Y-41198809D01*
%TO.C,SW39*%
X276459523Y-98729761D02*
X276316666Y-98777380D01*
X276078571Y-98777380D01*
X275983333Y-98729761D01*
X275935714Y-98682142D01*
X275888095Y-98586904D01*
X275888095Y-98491666D01*
X275935714Y-98396428D01*
X275983333Y-98348809D01*
X276078571Y-98301190D01*
X276269047Y-98253571D01*
X276364285Y-98205952D01*
X276411904Y-98158333D01*
X276459523Y-98063095D01*
X276459523Y-97967857D01*
X276411904Y-97872619D01*
X276364285Y-97825000D01*
X276269047Y-97777380D01*
X276030952Y-97777380D01*
X275888095Y-97825000D01*
X275554761Y-97777380D02*
X275316666Y-98777380D01*
X275126190Y-98063095D01*
X274935714Y-98777380D01*
X274697619Y-97777380D01*
X274411904Y-97777380D02*
X273792857Y-97777380D01*
X274126190Y-98158333D01*
X273983333Y-98158333D01*
X273888095Y-98205952D01*
X273840476Y-98253571D01*
X273792857Y-98348809D01*
X273792857Y-98586904D01*
X273840476Y-98682142D01*
X273888095Y-98729761D01*
X273983333Y-98777380D01*
X274269047Y-98777380D01*
X274364285Y-98729761D01*
X274411904Y-98682142D01*
X273316666Y-98777380D02*
X273126190Y-98777380D01*
X273030952Y-98729761D01*
X272983333Y-98682142D01*
X272888095Y-98539285D01*
X272840476Y-98348809D01*
X272840476Y-97967857D01*
X272888095Y-97872619D01*
X272935714Y-97825000D01*
X273030952Y-97777380D01*
X273221428Y-97777380D01*
X273316666Y-97825000D01*
X273364285Y-97872619D01*
X273411904Y-97967857D01*
X273411904Y-98205952D01*
X273364285Y-98301190D01*
X273316666Y-98348809D01*
X273221428Y-98396428D01*
X273030952Y-98396428D01*
X272935714Y-98348809D01*
X272888095Y-98301190D01*
X272840476Y-98205952D01*
%TO.C,SW38*%
X257409523Y-98729761D02*
X257266666Y-98777380D01*
X257028571Y-98777380D01*
X256933333Y-98729761D01*
X256885714Y-98682142D01*
X256838095Y-98586904D01*
X256838095Y-98491666D01*
X256885714Y-98396428D01*
X256933333Y-98348809D01*
X257028571Y-98301190D01*
X257219047Y-98253571D01*
X257314285Y-98205952D01*
X257361904Y-98158333D01*
X257409523Y-98063095D01*
X257409523Y-97967857D01*
X257361904Y-97872619D01*
X257314285Y-97825000D01*
X257219047Y-97777380D01*
X256980952Y-97777380D01*
X256838095Y-97825000D01*
X256504761Y-97777380D02*
X256266666Y-98777380D01*
X256076190Y-98063095D01*
X255885714Y-98777380D01*
X255647619Y-97777380D01*
X255361904Y-97777380D02*
X254742857Y-97777380D01*
X255076190Y-98158333D01*
X254933333Y-98158333D01*
X254838095Y-98205952D01*
X254790476Y-98253571D01*
X254742857Y-98348809D01*
X254742857Y-98586904D01*
X254790476Y-98682142D01*
X254838095Y-98729761D01*
X254933333Y-98777380D01*
X255219047Y-98777380D01*
X255314285Y-98729761D01*
X255361904Y-98682142D01*
X254171428Y-98205952D02*
X254266666Y-98158333D01*
X254314285Y-98110714D01*
X254361904Y-98015476D01*
X254361904Y-97967857D01*
X254314285Y-97872619D01*
X254266666Y-97825000D01*
X254171428Y-97777380D01*
X253980952Y-97777380D01*
X253885714Y-97825000D01*
X253838095Y-97872619D01*
X253790476Y-97967857D01*
X253790476Y-98015476D01*
X253838095Y-98110714D01*
X253885714Y-98158333D01*
X253980952Y-98205952D01*
X254171428Y-98205952D01*
X254266666Y-98253571D01*
X254314285Y-98301190D01*
X254361904Y-98396428D01*
X254361904Y-98586904D01*
X254314285Y-98682142D01*
X254266666Y-98729761D01*
X254171428Y-98777380D01*
X253980952Y-98777380D01*
X253885714Y-98729761D01*
X253838095Y-98682142D01*
X253790476Y-98586904D01*
X253790476Y-98396428D01*
X253838095Y-98301190D01*
X253885714Y-98253571D01*
X253980952Y-98205952D01*
%TO.C,SW11*%
X314559523Y-41579761D02*
X314416666Y-41627380D01*
X314178571Y-41627380D01*
X314083333Y-41579761D01*
X314035714Y-41532142D01*
X313988095Y-41436904D01*
X313988095Y-41341666D01*
X314035714Y-41246428D01*
X314083333Y-41198809D01*
X314178571Y-41151190D01*
X314369047Y-41103571D01*
X314464285Y-41055952D01*
X314511904Y-41008333D01*
X314559523Y-40913095D01*
X314559523Y-40817857D01*
X314511904Y-40722619D01*
X314464285Y-40675000D01*
X314369047Y-40627380D01*
X314130952Y-40627380D01*
X313988095Y-40675000D01*
X313654761Y-40627380D02*
X313416666Y-41627380D01*
X313226190Y-40913095D01*
X313035714Y-41627380D01*
X312797619Y-40627380D01*
X311892857Y-41627380D02*
X312464285Y-41627380D01*
X312178571Y-41627380D02*
X312178571Y-40627380D01*
X312273809Y-40770238D01*
X312369047Y-40865476D01*
X312464285Y-40913095D01*
X310940476Y-41627380D02*
X311511904Y-41627380D01*
X311226190Y-41627380D02*
X311226190Y-40627380D01*
X311321428Y-40770238D01*
X311416666Y-40865476D01*
X311511904Y-40913095D01*
%TO.C,SW34*%
X105009523Y-98729761D02*
X104866666Y-98777380D01*
X104628571Y-98777380D01*
X104533333Y-98729761D01*
X104485714Y-98682142D01*
X104438095Y-98586904D01*
X104438095Y-98491666D01*
X104485714Y-98396428D01*
X104533333Y-98348809D01*
X104628571Y-98301190D01*
X104819047Y-98253571D01*
X104914285Y-98205952D01*
X104961904Y-98158333D01*
X105009523Y-98063095D01*
X105009523Y-97967857D01*
X104961904Y-97872619D01*
X104914285Y-97825000D01*
X104819047Y-97777380D01*
X104580952Y-97777380D01*
X104438095Y-97825000D01*
X104104761Y-97777380D02*
X103866666Y-98777380D01*
X103676190Y-98063095D01*
X103485714Y-98777380D01*
X103247619Y-97777380D01*
X102961904Y-97777380D02*
X102342857Y-97777380D01*
X102676190Y-98158333D01*
X102533333Y-98158333D01*
X102438095Y-98205952D01*
X102390476Y-98253571D01*
X102342857Y-98348809D01*
X102342857Y-98586904D01*
X102390476Y-98682142D01*
X102438095Y-98729761D01*
X102533333Y-98777380D01*
X102819047Y-98777380D01*
X102914285Y-98729761D01*
X102961904Y-98682142D01*
X101485714Y-98110714D02*
X101485714Y-98777380D01*
X101723809Y-97729761D02*
X101961904Y-98444047D01*
X101342857Y-98444047D01*
%TO.C,SW310*%
X295985714Y-98729761D02*
X295842857Y-98777380D01*
X295604761Y-98777380D01*
X295509523Y-98729761D01*
X295461904Y-98682142D01*
X295414285Y-98586904D01*
X295414285Y-98491666D01*
X295461904Y-98396428D01*
X295509523Y-98348809D01*
X295604761Y-98301190D01*
X295795238Y-98253571D01*
X295890476Y-98205952D01*
X295938095Y-98158333D01*
X295985714Y-98063095D01*
X295985714Y-97967857D01*
X295938095Y-97872619D01*
X295890476Y-97825000D01*
X295795238Y-97777380D01*
X295557142Y-97777380D01*
X295414285Y-97825000D01*
X295080952Y-97777380D02*
X294842857Y-98777380D01*
X294652380Y-98063095D01*
X294461904Y-98777380D01*
X294223809Y-97777380D01*
X293938095Y-97777380D02*
X293319047Y-97777380D01*
X293652380Y-98158333D01*
X293509523Y-98158333D01*
X293414285Y-98205952D01*
X293366666Y-98253571D01*
X293319047Y-98348809D01*
X293319047Y-98586904D01*
X293366666Y-98682142D01*
X293414285Y-98729761D01*
X293509523Y-98777380D01*
X293795238Y-98777380D01*
X293890476Y-98729761D01*
X293938095Y-98682142D01*
X292366666Y-98777380D02*
X292938095Y-98777380D01*
X292652380Y-98777380D02*
X292652380Y-97777380D01*
X292747619Y-97920238D01*
X292842857Y-98015476D01*
X292938095Y-98063095D01*
X291747619Y-97777380D02*
X291652380Y-97777380D01*
X291557142Y-97825000D01*
X291509523Y-97872619D01*
X291461904Y-97967857D01*
X291414285Y-98158333D01*
X291414285Y-98396428D01*
X291461904Y-98586904D01*
X291509523Y-98682142D01*
X291557142Y-98729761D01*
X291652380Y-98777380D01*
X291747619Y-98777380D01*
X291842857Y-98729761D01*
X291890476Y-98682142D01*
X291938095Y-98586904D01*
X291985714Y-98396428D01*
X291985714Y-98158333D01*
X291938095Y-97967857D01*
X291890476Y-97872619D01*
X291842857Y-97825000D01*
X291747619Y-97777380D01*
%TO.C,SW1.2*%
X67147619Y-60629761D02*
X67004761Y-60677380D01*
X66766666Y-60677380D01*
X66671428Y-60629761D01*
X66623809Y-60582142D01*
X66576190Y-60486904D01*
X66576190Y-60391666D01*
X66623809Y-60296428D01*
X66671428Y-60248809D01*
X66766666Y-60201190D01*
X66957142Y-60153571D01*
X67052380Y-60105952D01*
X67100000Y-60058333D01*
X67147619Y-59963095D01*
X67147619Y-59867857D01*
X67100000Y-59772619D01*
X67052380Y-59725000D01*
X66957142Y-59677380D01*
X66719047Y-59677380D01*
X66576190Y-59725000D01*
X66242857Y-59677380D02*
X66004761Y-60677380D01*
X65814285Y-59963095D01*
X65623809Y-60677380D01*
X65385714Y-59677380D01*
X64480952Y-60677380D02*
X65052380Y-60677380D01*
X64766666Y-60677380D02*
X64766666Y-59677380D01*
X64861904Y-59820238D01*
X64957142Y-59915476D01*
X65052380Y-59963095D01*
X64052380Y-60582142D02*
X64004761Y-60629761D01*
X64052380Y-60677380D01*
X64100000Y-60629761D01*
X64052380Y-60582142D01*
X64052380Y-60677380D01*
X63623809Y-59772619D02*
X63576190Y-59725000D01*
X63480952Y-59677380D01*
X63242857Y-59677380D01*
X63147619Y-59725000D01*
X63100000Y-59772619D01*
X63052380Y-59867857D01*
X63052380Y-59963095D01*
X63100000Y-60105952D01*
X63671428Y-60677380D01*
X63052380Y-60677380D01*
%TO.C,SW23*%
X85959523Y-79679761D02*
X85816666Y-79727380D01*
X85578571Y-79727380D01*
X85483333Y-79679761D01*
X85435714Y-79632142D01*
X85388095Y-79536904D01*
X85388095Y-79441666D01*
X85435714Y-79346428D01*
X85483333Y-79298809D01*
X85578571Y-79251190D01*
X85769047Y-79203571D01*
X85864285Y-79155952D01*
X85911904Y-79108333D01*
X85959523Y-79013095D01*
X85959523Y-78917857D01*
X85911904Y-78822619D01*
X85864285Y-78775000D01*
X85769047Y-78727380D01*
X85530952Y-78727380D01*
X85388095Y-78775000D01*
X85054761Y-78727380D02*
X84816666Y-79727380D01*
X84626190Y-79013095D01*
X84435714Y-79727380D01*
X84197619Y-78727380D01*
X83864285Y-78822619D02*
X83816666Y-78775000D01*
X83721428Y-78727380D01*
X83483333Y-78727380D01*
X83388095Y-78775000D01*
X83340476Y-78822619D01*
X83292857Y-78917857D01*
X83292857Y-79013095D01*
X83340476Y-79155952D01*
X83911904Y-79727380D01*
X83292857Y-79727380D01*
X82959523Y-78727380D02*
X82340476Y-78727380D01*
X82673809Y-79108333D01*
X82530952Y-79108333D01*
X82435714Y-79155952D01*
X82388095Y-79203571D01*
X82340476Y-79298809D01*
X82340476Y-79536904D01*
X82388095Y-79632142D01*
X82435714Y-79679761D01*
X82530952Y-79727380D01*
X82816666Y-79727380D01*
X82911904Y-79679761D01*
X82959523Y-79632142D01*
%TO.C,SW111*%
X315035714Y-60629761D02*
X314892857Y-60677380D01*
X314654761Y-60677380D01*
X314559523Y-60629761D01*
X314511904Y-60582142D01*
X314464285Y-60486904D01*
X314464285Y-60391666D01*
X314511904Y-60296428D01*
X314559523Y-60248809D01*
X314654761Y-60201190D01*
X314845238Y-60153571D01*
X314940476Y-60105952D01*
X314988095Y-60058333D01*
X315035714Y-59963095D01*
X315035714Y-59867857D01*
X314988095Y-59772619D01*
X314940476Y-59725000D01*
X314845238Y-59677380D01*
X314607142Y-59677380D01*
X314464285Y-59725000D01*
X314130952Y-59677380D02*
X313892857Y-60677380D01*
X313702380Y-59963095D01*
X313511904Y-60677380D01*
X313273809Y-59677380D01*
X312369047Y-60677380D02*
X312940476Y-60677380D01*
X312654761Y-60677380D02*
X312654761Y-59677380D01*
X312750000Y-59820238D01*
X312845238Y-59915476D01*
X312940476Y-59963095D01*
X311416666Y-60677380D02*
X311988095Y-60677380D01*
X311702380Y-60677380D02*
X311702380Y-59677380D01*
X311797619Y-59820238D01*
X311892857Y-59915476D01*
X311988095Y-59963095D01*
X310464285Y-60677380D02*
X311035714Y-60677380D01*
X310750000Y-60677380D02*
X310750000Y-59677380D01*
X310845238Y-59820238D01*
X310940476Y-59915476D01*
X311035714Y-59963095D01*
%TO.C,SW13*%
X85959523Y-60629761D02*
X85816666Y-60677380D01*
X85578571Y-60677380D01*
X85483333Y-60629761D01*
X85435714Y-60582142D01*
X85388095Y-60486904D01*
X85388095Y-60391666D01*
X85435714Y-60296428D01*
X85483333Y-60248809D01*
X85578571Y-60201190D01*
X85769047Y-60153571D01*
X85864285Y-60105952D01*
X85911904Y-60058333D01*
X85959523Y-59963095D01*
X85959523Y-59867857D01*
X85911904Y-59772619D01*
X85864285Y-59725000D01*
X85769047Y-59677380D01*
X85530952Y-59677380D01*
X85388095Y-59725000D01*
X85054761Y-59677380D02*
X84816666Y-60677380D01*
X84626190Y-59963095D01*
X84435714Y-60677380D01*
X84197619Y-59677380D01*
X83292857Y-60677380D02*
X83864285Y-60677380D01*
X83578571Y-60677380D02*
X83578571Y-59677380D01*
X83673809Y-59820238D01*
X83769047Y-59915476D01*
X83864285Y-59963095D01*
X82959523Y-59677380D02*
X82340476Y-59677380D01*
X82673809Y-60058333D01*
X82530952Y-60058333D01*
X82435714Y-60105952D01*
X82388095Y-60153571D01*
X82340476Y-60248809D01*
X82340476Y-60486904D01*
X82388095Y-60582142D01*
X82435714Y-60629761D01*
X82530952Y-60677380D01*
X82816666Y-60677380D01*
X82911904Y-60629761D01*
X82959523Y-60582142D01*
%TO.C,SW44*%
X112153273Y-117779761D02*
X112010416Y-117827380D01*
X111772321Y-117827380D01*
X111677083Y-117779761D01*
X111629464Y-117732142D01*
X111581845Y-117636904D01*
X111581845Y-117541666D01*
X111629464Y-117446428D01*
X111677083Y-117398809D01*
X111772321Y-117351190D01*
X111962797Y-117303571D01*
X112058035Y-117255952D01*
X112105654Y-117208333D01*
X112153273Y-117113095D01*
X112153273Y-117017857D01*
X112105654Y-116922619D01*
X112058035Y-116875000D01*
X111962797Y-116827380D01*
X111724702Y-116827380D01*
X111581845Y-116875000D01*
X111248511Y-116827380D02*
X111010416Y-117827380D01*
X110819940Y-117113095D01*
X110629464Y-117827380D01*
X110391369Y-116827380D01*
X109581845Y-117160714D02*
X109581845Y-117827380D01*
X109819940Y-116779761D02*
X110058035Y-117494047D01*
X109438988Y-117494047D01*
X108629464Y-117160714D02*
X108629464Y-117827380D01*
X108867559Y-116779761D02*
X109105654Y-117494047D01*
X108486607Y-117494047D01*
%TO.C,SW22*%
X66909523Y-79679761D02*
X66766666Y-79727380D01*
X66528571Y-79727380D01*
X66433333Y-79679761D01*
X66385714Y-79632142D01*
X66338095Y-79536904D01*
X66338095Y-79441666D01*
X66385714Y-79346428D01*
X66433333Y-79298809D01*
X66528571Y-79251190D01*
X66719047Y-79203571D01*
X66814285Y-79155952D01*
X66861904Y-79108333D01*
X66909523Y-79013095D01*
X66909523Y-78917857D01*
X66861904Y-78822619D01*
X66814285Y-78775000D01*
X66719047Y-78727380D01*
X66480952Y-78727380D01*
X66338095Y-78775000D01*
X66004761Y-78727380D02*
X65766666Y-79727380D01*
X65576190Y-79013095D01*
X65385714Y-79727380D01*
X65147619Y-78727380D01*
X64814285Y-78822619D02*
X64766666Y-78775000D01*
X64671428Y-78727380D01*
X64433333Y-78727380D01*
X64338095Y-78775000D01*
X64290476Y-78822619D01*
X64242857Y-78917857D01*
X64242857Y-79013095D01*
X64290476Y-79155952D01*
X64861904Y-79727380D01*
X64242857Y-79727380D01*
X63861904Y-78822619D02*
X63814285Y-78775000D01*
X63719047Y-78727380D01*
X63480952Y-78727380D01*
X63385714Y-78775000D01*
X63338095Y-78822619D01*
X63290476Y-78917857D01*
X63290476Y-79013095D01*
X63338095Y-79155952D01*
X63909523Y-79727380D01*
X63290476Y-79727380D01*
%TO.C,SW16*%
X219309523Y-60629761D02*
X219166666Y-60677380D01*
X218928571Y-60677380D01*
X218833333Y-60629761D01*
X218785714Y-60582142D01*
X218738095Y-60486904D01*
X218738095Y-60391666D01*
X218785714Y-60296428D01*
X218833333Y-60248809D01*
X218928571Y-60201190D01*
X219119047Y-60153571D01*
X219214285Y-60105952D01*
X219261904Y-60058333D01*
X219309523Y-59963095D01*
X219309523Y-59867857D01*
X219261904Y-59772619D01*
X219214285Y-59725000D01*
X219119047Y-59677380D01*
X218880952Y-59677380D01*
X218738095Y-59725000D01*
X218404761Y-59677380D02*
X218166666Y-60677380D01*
X217976190Y-59963095D01*
X217785714Y-60677380D01*
X217547619Y-59677380D01*
X216642857Y-60677380D02*
X217214285Y-60677380D01*
X216928571Y-60677380D02*
X216928571Y-59677380D01*
X217023809Y-59820238D01*
X217119047Y-59915476D01*
X217214285Y-59963095D01*
X215785714Y-59677380D02*
X215976190Y-59677380D01*
X216071428Y-59725000D01*
X216119047Y-59772619D01*
X216214285Y-59915476D01*
X216261904Y-60105952D01*
X216261904Y-60486904D01*
X216214285Y-60582142D01*
X216166666Y-60629761D01*
X216071428Y-60677380D01*
X215880952Y-60677380D01*
X215785714Y-60629761D01*
X215738095Y-60582142D01*
X215690476Y-60486904D01*
X215690476Y-60248809D01*
X215738095Y-60153571D01*
X215785714Y-60105952D01*
X215880952Y-60058333D01*
X216071428Y-60058333D01*
X216166666Y-60105952D01*
X216214285Y-60153571D01*
X216261904Y-60248809D01*
%TO.C,SW20*%
X28809523Y-79679761D02*
X28666666Y-79727380D01*
X28428571Y-79727380D01*
X28333333Y-79679761D01*
X28285714Y-79632142D01*
X28238095Y-79536904D01*
X28238095Y-79441666D01*
X28285714Y-79346428D01*
X28333333Y-79298809D01*
X28428571Y-79251190D01*
X28619047Y-79203571D01*
X28714285Y-79155952D01*
X28761904Y-79108333D01*
X28809523Y-79013095D01*
X28809523Y-78917857D01*
X28761904Y-78822619D01*
X28714285Y-78775000D01*
X28619047Y-78727380D01*
X28380952Y-78727380D01*
X28238095Y-78775000D01*
X27904761Y-78727380D02*
X27666666Y-79727380D01*
X27476190Y-79013095D01*
X27285714Y-79727380D01*
X27047619Y-78727380D01*
X26714285Y-78822619D02*
X26666666Y-78775000D01*
X26571428Y-78727380D01*
X26333333Y-78727380D01*
X26238095Y-78775000D01*
X26190476Y-78822619D01*
X26142857Y-78917857D01*
X26142857Y-79013095D01*
X26190476Y-79155952D01*
X26761904Y-79727380D01*
X26142857Y-79727380D01*
X25523809Y-78727380D02*
X25428571Y-78727380D01*
X25333333Y-78775000D01*
X25285714Y-78822619D01*
X25238095Y-78917857D01*
X25190476Y-79108333D01*
X25190476Y-79346428D01*
X25238095Y-79536904D01*
X25285714Y-79632142D01*
X25333333Y-79679761D01*
X25428571Y-79727380D01*
X25523809Y-79727380D01*
X25619047Y-79679761D01*
X25666666Y-79632142D01*
X25714285Y-79536904D01*
X25761904Y-79346428D01*
X25761904Y-79108333D01*
X25714285Y-78917857D01*
X25666666Y-78822619D01*
X25619047Y-78775000D01*
X25523809Y-78727380D01*
%TO.C,SW56*%
X174065773Y-117779761D02*
X173922916Y-117827380D01*
X173684821Y-117827380D01*
X173589583Y-117779761D01*
X173541964Y-117732142D01*
X173494345Y-117636904D01*
X173494345Y-117541666D01*
X173541964Y-117446428D01*
X173589583Y-117398809D01*
X173684821Y-117351190D01*
X173875297Y-117303571D01*
X173970535Y-117255952D01*
X174018154Y-117208333D01*
X174065773Y-117113095D01*
X174065773Y-117017857D01*
X174018154Y-116922619D01*
X173970535Y-116875000D01*
X173875297Y-116827380D01*
X173637202Y-116827380D01*
X173494345Y-116875000D01*
X173161011Y-116827380D02*
X172922916Y-117827380D01*
X172732440Y-117113095D01*
X172541964Y-117827380D01*
X172303869Y-116827380D01*
X171446726Y-116827380D02*
X171922916Y-116827380D01*
X171970535Y-117303571D01*
X171922916Y-117255952D01*
X171827678Y-117208333D01*
X171589583Y-117208333D01*
X171494345Y-117255952D01*
X171446726Y-117303571D01*
X171399107Y-117398809D01*
X171399107Y-117636904D01*
X171446726Y-117732142D01*
X171494345Y-117779761D01*
X171589583Y-117827380D01*
X171827678Y-117827380D01*
X171922916Y-117779761D01*
X171970535Y-117732142D01*
X170541964Y-116827380D02*
X170732440Y-116827380D01*
X170827678Y-116875000D01*
X170875297Y-116922619D01*
X170970535Y-117065476D01*
X171018154Y-117255952D01*
X171018154Y-117636904D01*
X170970535Y-117732142D01*
X170922916Y-117779761D01*
X170827678Y-117827380D01*
X170637202Y-117827380D01*
X170541964Y-117779761D01*
X170494345Y-117732142D01*
X170446726Y-117636904D01*
X170446726Y-117398809D01*
X170494345Y-117303571D01*
X170541964Y-117255952D01*
X170637202Y-117208333D01*
X170827678Y-117208333D01*
X170922916Y-117255952D01*
X170970535Y-117303571D01*
X171018154Y-117398809D01*
%TO.C,SW55*%
X174065773Y-98719761D02*
X173922916Y-98767380D01*
X173684821Y-98767380D01*
X173589583Y-98719761D01*
X173541964Y-98672142D01*
X173494345Y-98576904D01*
X173494345Y-98481666D01*
X173541964Y-98386428D01*
X173589583Y-98338809D01*
X173684821Y-98291190D01*
X173875297Y-98243571D01*
X173970535Y-98195952D01*
X174018154Y-98148333D01*
X174065773Y-98053095D01*
X174065773Y-97957857D01*
X174018154Y-97862619D01*
X173970535Y-97815000D01*
X173875297Y-97767380D01*
X173637202Y-97767380D01*
X173494345Y-97815000D01*
X173161011Y-97767380D02*
X172922916Y-98767380D01*
X172732440Y-98053095D01*
X172541964Y-98767380D01*
X172303869Y-97767380D01*
X171446726Y-97767380D02*
X171922916Y-97767380D01*
X171970535Y-98243571D01*
X171922916Y-98195952D01*
X171827678Y-98148333D01*
X171589583Y-98148333D01*
X171494345Y-98195952D01*
X171446726Y-98243571D01*
X171399107Y-98338809D01*
X171399107Y-98576904D01*
X171446726Y-98672142D01*
X171494345Y-98719761D01*
X171589583Y-98767380D01*
X171827678Y-98767380D01*
X171922916Y-98719761D01*
X171970535Y-98672142D01*
X170494345Y-97767380D02*
X170970535Y-97767380D01*
X171018154Y-98243571D01*
X170970535Y-98195952D01*
X170875297Y-98148333D01*
X170637202Y-98148333D01*
X170541964Y-98195952D01*
X170494345Y-98243571D01*
X170446726Y-98338809D01*
X170446726Y-98576904D01*
X170494345Y-98672142D01*
X170541964Y-98719761D01*
X170637202Y-98767380D01*
X170875297Y-98767380D01*
X170970535Y-98719761D01*
X171018154Y-98672142D01*
%TO.C,SW42*%
X74053273Y-117779761D02*
X73910416Y-117827380D01*
X73672321Y-117827380D01*
X73577083Y-117779761D01*
X73529464Y-117732142D01*
X73481845Y-117636904D01*
X73481845Y-117541666D01*
X73529464Y-117446428D01*
X73577083Y-117398809D01*
X73672321Y-117351190D01*
X73862797Y-117303571D01*
X73958035Y-117255952D01*
X74005654Y-117208333D01*
X74053273Y-117113095D01*
X74053273Y-117017857D01*
X74005654Y-116922619D01*
X73958035Y-116875000D01*
X73862797Y-116827380D01*
X73624702Y-116827380D01*
X73481845Y-116875000D01*
X73148511Y-116827380D02*
X72910416Y-117827380D01*
X72719940Y-117113095D01*
X72529464Y-117827380D01*
X72291369Y-116827380D01*
X71481845Y-117160714D02*
X71481845Y-117827380D01*
X71719940Y-116779761D02*
X71958035Y-117494047D01*
X71338988Y-117494047D01*
X71005654Y-116922619D02*
X70958035Y-116875000D01*
X70862797Y-116827380D01*
X70624702Y-116827380D01*
X70529464Y-116875000D01*
X70481845Y-116922619D01*
X70434226Y-117017857D01*
X70434226Y-117113095D01*
X70481845Y-117255952D01*
X71053273Y-117827380D01*
X70434226Y-117827380D01*
%TO.C,SW18*%
X257409523Y-60629761D02*
X257266666Y-60677380D01*
X257028571Y-60677380D01*
X256933333Y-60629761D01*
X256885714Y-60582142D01*
X256838095Y-60486904D01*
X256838095Y-60391666D01*
X256885714Y-60296428D01*
X256933333Y-60248809D01*
X257028571Y-60201190D01*
X257219047Y-60153571D01*
X257314285Y-60105952D01*
X257361904Y-60058333D01*
X257409523Y-59963095D01*
X257409523Y-59867857D01*
X257361904Y-59772619D01*
X257314285Y-59725000D01*
X257219047Y-59677380D01*
X256980952Y-59677380D01*
X256838095Y-59725000D01*
X256504761Y-59677380D02*
X256266666Y-60677380D01*
X256076190Y-59963095D01*
X255885714Y-60677380D01*
X255647619Y-59677380D01*
X254742857Y-60677380D02*
X255314285Y-60677380D01*
X255028571Y-60677380D02*
X255028571Y-59677380D01*
X255123809Y-59820238D01*
X255219047Y-59915476D01*
X255314285Y-59963095D01*
X254171428Y-60105952D02*
X254266666Y-60058333D01*
X254314285Y-60010714D01*
X254361904Y-59915476D01*
X254361904Y-59867857D01*
X254314285Y-59772619D01*
X254266666Y-59725000D01*
X254171428Y-59677380D01*
X253980952Y-59677380D01*
X253885714Y-59725000D01*
X253838095Y-59772619D01*
X253790476Y-59867857D01*
X253790476Y-59915476D01*
X253838095Y-60010714D01*
X253885714Y-60058333D01*
X253980952Y-60105952D01*
X254171428Y-60105952D01*
X254266666Y-60153571D01*
X254314285Y-60201190D01*
X254361904Y-60296428D01*
X254361904Y-60486904D01*
X254314285Y-60582142D01*
X254266666Y-60629761D01*
X254171428Y-60677380D01*
X253980952Y-60677380D01*
X253885714Y-60629761D01*
X253838095Y-60582142D01*
X253790476Y-60486904D01*
X253790476Y-60296428D01*
X253838095Y-60201190D01*
X253885714Y-60153571D01*
X253980952Y-60105952D01*
%TO.C,SW26*%
X219309523Y-79679761D02*
X219166666Y-79727380D01*
X218928571Y-79727380D01*
X218833333Y-79679761D01*
X218785714Y-79632142D01*
X218738095Y-79536904D01*
X218738095Y-79441666D01*
X218785714Y-79346428D01*
X218833333Y-79298809D01*
X218928571Y-79251190D01*
X219119047Y-79203571D01*
X219214285Y-79155952D01*
X219261904Y-79108333D01*
X219309523Y-79013095D01*
X219309523Y-78917857D01*
X219261904Y-78822619D01*
X219214285Y-78775000D01*
X219119047Y-78727380D01*
X218880952Y-78727380D01*
X218738095Y-78775000D01*
X218404761Y-78727380D02*
X218166666Y-79727380D01*
X217976190Y-79013095D01*
X217785714Y-79727380D01*
X217547619Y-78727380D01*
X217214285Y-78822619D02*
X217166666Y-78775000D01*
X217071428Y-78727380D01*
X216833333Y-78727380D01*
X216738095Y-78775000D01*
X216690476Y-78822619D01*
X216642857Y-78917857D01*
X216642857Y-79013095D01*
X216690476Y-79155952D01*
X217261904Y-79727380D01*
X216642857Y-79727380D01*
X215785714Y-78727380D02*
X215976190Y-78727380D01*
X216071428Y-78775000D01*
X216119047Y-78822619D01*
X216214285Y-78965476D01*
X216261904Y-79155952D01*
X216261904Y-79536904D01*
X216214285Y-79632142D01*
X216166666Y-79679761D01*
X216071428Y-79727380D01*
X215880952Y-79727380D01*
X215785714Y-79679761D01*
X215738095Y-79632142D01*
X215690476Y-79536904D01*
X215690476Y-79298809D01*
X215738095Y-79203571D01*
X215785714Y-79155952D01*
X215880952Y-79108333D01*
X216071428Y-79108333D01*
X216166666Y-79155952D01*
X216214285Y-79203571D01*
X216261904Y-79298809D01*
%TO.C,SW210*%
X295985714Y-79679761D02*
X295842857Y-79727380D01*
X295604761Y-79727380D01*
X295509523Y-79679761D01*
X295461904Y-79632142D01*
X295414285Y-79536904D01*
X295414285Y-79441666D01*
X295461904Y-79346428D01*
X295509523Y-79298809D01*
X295604761Y-79251190D01*
X295795238Y-79203571D01*
X295890476Y-79155952D01*
X295938095Y-79108333D01*
X295985714Y-79013095D01*
X295985714Y-78917857D01*
X295938095Y-78822619D01*
X295890476Y-78775000D01*
X295795238Y-78727380D01*
X295557142Y-78727380D01*
X295414285Y-78775000D01*
X295080952Y-78727380D02*
X294842857Y-79727380D01*
X294652380Y-79013095D01*
X294461904Y-79727380D01*
X294223809Y-78727380D01*
X293890476Y-78822619D02*
X293842857Y-78775000D01*
X293747619Y-78727380D01*
X293509523Y-78727380D01*
X293414285Y-78775000D01*
X293366666Y-78822619D01*
X293319047Y-78917857D01*
X293319047Y-79013095D01*
X293366666Y-79155952D01*
X293938095Y-79727380D01*
X293319047Y-79727380D01*
X292366666Y-79727380D02*
X292938095Y-79727380D01*
X292652380Y-79727380D02*
X292652380Y-78727380D01*
X292747619Y-78870238D01*
X292842857Y-78965476D01*
X292938095Y-79013095D01*
X291747619Y-78727380D02*
X291652380Y-78727380D01*
X291557142Y-78775000D01*
X291509523Y-78822619D01*
X291461904Y-78917857D01*
X291414285Y-79108333D01*
X291414285Y-79346428D01*
X291461904Y-79536904D01*
X291509523Y-79632142D01*
X291557142Y-79679761D01*
X291652380Y-79727380D01*
X291747619Y-79727380D01*
X291842857Y-79679761D01*
X291890476Y-79632142D01*
X291938095Y-79536904D01*
X291985714Y-79346428D01*
X291985714Y-79108333D01*
X291938095Y-78917857D01*
X291890476Y-78822619D01*
X291842857Y-78775000D01*
X291747619Y-78727380D01*
%TO.C,SW46*%
X193298511Y-102865476D02*
X193346130Y-103008333D01*
X193346130Y-103246428D01*
X193298511Y-103341666D01*
X193250892Y-103389285D01*
X193155654Y-103436904D01*
X193060416Y-103436904D01*
X192965178Y-103389285D01*
X192917559Y-103341666D01*
X192869940Y-103246428D01*
X192822321Y-103055952D01*
X192774702Y-102960714D01*
X192727083Y-102913095D01*
X192631845Y-102865476D01*
X192536607Y-102865476D01*
X192441369Y-102913095D01*
X192393750Y-102960714D01*
X192346130Y-103055952D01*
X192346130Y-103294047D01*
X192393750Y-103436904D01*
X192346130Y-103770238D02*
X193346130Y-104008333D01*
X192631845Y-104198809D01*
X193346130Y-104389285D01*
X192346130Y-104627380D01*
X192679464Y-105436904D02*
X193346130Y-105436904D01*
X192298511Y-105198809D02*
X193012797Y-104960714D01*
X193012797Y-105579761D01*
X192346130Y-106389285D02*
X192346130Y-106198809D01*
X192393750Y-106103571D01*
X192441369Y-106055952D01*
X192584226Y-105960714D01*
X192774702Y-105913095D01*
X193155654Y-105913095D01*
X193250892Y-105960714D01*
X193298511Y-106008333D01*
X193346130Y-106103571D01*
X193346130Y-106294047D01*
X193298511Y-106389285D01*
X193250892Y-106436904D01*
X193155654Y-106484523D01*
X192917559Y-106484523D01*
X192822321Y-106436904D01*
X192774702Y-106389285D01*
X192727083Y-106294047D01*
X192727083Y-106103571D01*
X192774702Y-106008333D01*
X192822321Y-105960714D01*
X192917559Y-105913095D01*
%TO.C,SW28*%
X257409523Y-79679761D02*
X257266666Y-79727380D01*
X257028571Y-79727380D01*
X256933333Y-79679761D01*
X256885714Y-79632142D01*
X256838095Y-79536904D01*
X256838095Y-79441666D01*
X256885714Y-79346428D01*
X256933333Y-79298809D01*
X257028571Y-79251190D01*
X257219047Y-79203571D01*
X257314285Y-79155952D01*
X257361904Y-79108333D01*
X257409523Y-79013095D01*
X257409523Y-78917857D01*
X257361904Y-78822619D01*
X257314285Y-78775000D01*
X257219047Y-78727380D01*
X256980952Y-78727380D01*
X256838095Y-78775000D01*
X256504761Y-78727380D02*
X256266666Y-79727380D01*
X256076190Y-79013095D01*
X255885714Y-79727380D01*
X255647619Y-78727380D01*
X255314285Y-78822619D02*
X255266666Y-78775000D01*
X255171428Y-78727380D01*
X254933333Y-78727380D01*
X254838095Y-78775000D01*
X254790476Y-78822619D01*
X254742857Y-78917857D01*
X254742857Y-79013095D01*
X254790476Y-79155952D01*
X255361904Y-79727380D01*
X254742857Y-79727380D01*
X254171428Y-79155952D02*
X254266666Y-79108333D01*
X254314285Y-79060714D01*
X254361904Y-78965476D01*
X254361904Y-78917857D01*
X254314285Y-78822619D01*
X254266666Y-78775000D01*
X254171428Y-78727380D01*
X253980952Y-78727380D01*
X253885714Y-78775000D01*
X253838095Y-78822619D01*
X253790476Y-78917857D01*
X253790476Y-78965476D01*
X253838095Y-79060714D01*
X253885714Y-79108333D01*
X253980952Y-79155952D01*
X254171428Y-79155952D01*
X254266666Y-79203571D01*
X254314285Y-79251190D01*
X254361904Y-79346428D01*
X254361904Y-79536904D01*
X254314285Y-79632142D01*
X254266666Y-79679761D01*
X254171428Y-79727380D01*
X253980952Y-79727380D01*
X253885714Y-79679761D01*
X253838095Y-79632142D01*
X253790476Y-79536904D01*
X253790476Y-79346428D01*
X253838095Y-79251190D01*
X253885714Y-79203571D01*
X253980952Y-79155952D01*
%TO.C,SW4*%
X104533333Y-41579761D02*
X104390476Y-41627380D01*
X104152380Y-41627380D01*
X104057142Y-41579761D01*
X104009523Y-41532142D01*
X103961904Y-41436904D01*
X103961904Y-41341666D01*
X104009523Y-41246428D01*
X104057142Y-41198809D01*
X104152380Y-41151190D01*
X104342857Y-41103571D01*
X104438095Y-41055952D01*
X104485714Y-41008333D01*
X104533333Y-40913095D01*
X104533333Y-40817857D01*
X104485714Y-40722619D01*
X104438095Y-40675000D01*
X104342857Y-40627380D01*
X104104761Y-40627380D01*
X103961904Y-40675000D01*
X103628571Y-40627380D02*
X103390476Y-41627380D01*
X103200000Y-40913095D01*
X103009523Y-41627380D01*
X102771428Y-40627380D01*
X101961904Y-40960714D02*
X101961904Y-41627380D01*
X102200000Y-40579761D02*
X102438095Y-41294047D01*
X101819047Y-41294047D01*
%TO.C,SW27*%
X238359523Y-79679761D02*
X238216666Y-79727380D01*
X237978571Y-79727380D01*
X237883333Y-79679761D01*
X237835714Y-79632142D01*
X237788095Y-79536904D01*
X237788095Y-79441666D01*
X237835714Y-79346428D01*
X237883333Y-79298809D01*
X237978571Y-79251190D01*
X238169047Y-79203571D01*
X238264285Y-79155952D01*
X238311904Y-79108333D01*
X238359523Y-79013095D01*
X238359523Y-78917857D01*
X238311904Y-78822619D01*
X238264285Y-78775000D01*
X238169047Y-78727380D01*
X237930952Y-78727380D01*
X237788095Y-78775000D01*
X237454761Y-78727380D02*
X237216666Y-79727380D01*
X237026190Y-79013095D01*
X236835714Y-79727380D01*
X236597619Y-78727380D01*
X236264285Y-78822619D02*
X236216666Y-78775000D01*
X236121428Y-78727380D01*
X235883333Y-78727380D01*
X235788095Y-78775000D01*
X235740476Y-78822619D01*
X235692857Y-78917857D01*
X235692857Y-79013095D01*
X235740476Y-79155952D01*
X236311904Y-79727380D01*
X235692857Y-79727380D01*
X235359523Y-78727380D02*
X234692857Y-78727380D01*
X235121428Y-79727380D01*
%TO.C,SW21*%
X47859523Y-79679761D02*
X47716666Y-79727380D01*
X47478571Y-79727380D01*
X47383333Y-79679761D01*
X47335714Y-79632142D01*
X47288095Y-79536904D01*
X47288095Y-79441666D01*
X47335714Y-79346428D01*
X47383333Y-79298809D01*
X47478571Y-79251190D01*
X47669047Y-79203571D01*
X47764285Y-79155952D01*
X47811904Y-79108333D01*
X47859523Y-79013095D01*
X47859523Y-78917857D01*
X47811904Y-78822619D01*
X47764285Y-78775000D01*
X47669047Y-78727380D01*
X47430952Y-78727380D01*
X47288095Y-78775000D01*
X46954761Y-78727380D02*
X46716666Y-79727380D01*
X46526190Y-79013095D01*
X46335714Y-79727380D01*
X46097619Y-78727380D01*
X45764285Y-78822619D02*
X45716666Y-78775000D01*
X45621428Y-78727380D01*
X45383333Y-78727380D01*
X45288095Y-78775000D01*
X45240476Y-78822619D01*
X45192857Y-78917857D01*
X45192857Y-79013095D01*
X45240476Y-79155952D01*
X45811904Y-79727380D01*
X45192857Y-79727380D01*
X44240476Y-79727380D02*
X44811904Y-79727380D01*
X44526190Y-79727380D02*
X44526190Y-78727380D01*
X44621428Y-78870238D01*
X44716666Y-78965476D01*
X44811904Y-79013095D01*
%TO.C,SW3*%
X85483333Y-41579761D02*
X85340476Y-41627380D01*
X85102380Y-41627380D01*
X85007142Y-41579761D01*
X84959523Y-41532142D01*
X84911904Y-41436904D01*
X84911904Y-41341666D01*
X84959523Y-41246428D01*
X85007142Y-41198809D01*
X85102380Y-41151190D01*
X85292857Y-41103571D01*
X85388095Y-41055952D01*
X85435714Y-41008333D01*
X85483333Y-40913095D01*
X85483333Y-40817857D01*
X85435714Y-40722619D01*
X85388095Y-40675000D01*
X85292857Y-40627380D01*
X85054761Y-40627380D01*
X84911904Y-40675000D01*
X84578571Y-40627380D02*
X84340476Y-41627380D01*
X84150000Y-40913095D01*
X83959523Y-41627380D01*
X83721428Y-40627380D01*
X83435714Y-40627380D02*
X82816666Y-40627380D01*
X83150000Y-41008333D01*
X83007142Y-41008333D01*
X82911904Y-41055952D01*
X82864285Y-41103571D01*
X82816666Y-41198809D01*
X82816666Y-41436904D01*
X82864285Y-41532142D01*
X82911904Y-41579761D01*
X83007142Y-41627380D01*
X83292857Y-41627380D01*
X83388095Y-41579761D01*
X83435714Y-41532142D01*
%TO.C,SW45*%
X152023511Y-102865476D02*
X152071130Y-103008333D01*
X152071130Y-103246428D01*
X152023511Y-103341666D01*
X151975892Y-103389285D01*
X151880654Y-103436904D01*
X151785416Y-103436904D01*
X151690178Y-103389285D01*
X151642559Y-103341666D01*
X151594940Y-103246428D01*
X151547321Y-103055952D01*
X151499702Y-102960714D01*
X151452083Y-102913095D01*
X151356845Y-102865476D01*
X151261607Y-102865476D01*
X151166369Y-102913095D01*
X151118750Y-102960714D01*
X151071130Y-103055952D01*
X151071130Y-103294047D01*
X151118750Y-103436904D01*
X151071130Y-103770238D02*
X152071130Y-104008333D01*
X151356845Y-104198809D01*
X152071130Y-104389285D01*
X151071130Y-104627380D01*
X151404464Y-105436904D02*
X152071130Y-105436904D01*
X151023511Y-105198809D02*
X151737797Y-104960714D01*
X151737797Y-105579761D01*
X151071130Y-106436904D02*
X151071130Y-105960714D01*
X151547321Y-105913095D01*
X151499702Y-105960714D01*
X151452083Y-106055952D01*
X151452083Y-106294047D01*
X151499702Y-106389285D01*
X151547321Y-106436904D01*
X151642559Y-106484523D01*
X151880654Y-106484523D01*
X151975892Y-106436904D01*
X152023511Y-106389285D01*
X152071130Y-106294047D01*
X152071130Y-106055952D01*
X152023511Y-105960714D01*
X151975892Y-105913095D01*
%TO.C,SW24*%
X105009523Y-79679761D02*
X104866666Y-79727380D01*
X104628571Y-79727380D01*
X104533333Y-79679761D01*
X104485714Y-79632142D01*
X104438095Y-79536904D01*
X104438095Y-79441666D01*
X104485714Y-79346428D01*
X104533333Y-79298809D01*
X104628571Y-79251190D01*
X104819047Y-79203571D01*
X104914285Y-79155952D01*
X104961904Y-79108333D01*
X105009523Y-79013095D01*
X105009523Y-78917857D01*
X104961904Y-78822619D01*
X104914285Y-78775000D01*
X104819047Y-78727380D01*
X104580952Y-78727380D01*
X104438095Y-78775000D01*
X104104761Y-78727380D02*
X103866666Y-79727380D01*
X103676190Y-79013095D01*
X103485714Y-79727380D01*
X103247619Y-78727380D01*
X102914285Y-78822619D02*
X102866666Y-78775000D01*
X102771428Y-78727380D01*
X102533333Y-78727380D01*
X102438095Y-78775000D01*
X102390476Y-78822619D01*
X102342857Y-78917857D01*
X102342857Y-79013095D01*
X102390476Y-79155952D01*
X102961904Y-79727380D01*
X102342857Y-79727380D01*
X101485714Y-79060714D02*
X101485714Y-79727380D01*
X101723809Y-78679761D02*
X101961904Y-79394047D01*
X101342857Y-79394047D01*
%TO.C,SW5*%
X123583333Y-41579761D02*
X123440476Y-41627380D01*
X123202380Y-41627380D01*
X123107142Y-41579761D01*
X123059523Y-41532142D01*
X123011904Y-41436904D01*
X123011904Y-41341666D01*
X123059523Y-41246428D01*
X123107142Y-41198809D01*
X123202380Y-41151190D01*
X123392857Y-41103571D01*
X123488095Y-41055952D01*
X123535714Y-41008333D01*
X123583333Y-40913095D01*
X123583333Y-40817857D01*
X123535714Y-40722619D01*
X123488095Y-40675000D01*
X123392857Y-40627380D01*
X123154761Y-40627380D01*
X123011904Y-40675000D01*
X122678571Y-40627380D02*
X122440476Y-41627380D01*
X122250000Y-40913095D01*
X122059523Y-41627380D01*
X121821428Y-40627380D01*
X120964285Y-40627380D02*
X121440476Y-40627380D01*
X121488095Y-41103571D01*
X121440476Y-41055952D01*
X121345238Y-41008333D01*
X121107142Y-41008333D01*
X121011904Y-41055952D01*
X120964285Y-41103571D01*
X120916666Y-41198809D01*
X120916666Y-41436904D01*
X120964285Y-41532142D01*
X121011904Y-41579761D01*
X121107142Y-41627380D01*
X121345238Y-41627380D01*
X121440476Y-41579761D01*
X121488095Y-41532142D01*
%TO.C,J0*%
X36863333Y-31687380D02*
X36863333Y-32401666D01*
X36910952Y-32544523D01*
X37006190Y-32639761D01*
X37149047Y-32687380D01*
X37244285Y-32687380D01*
X36196666Y-31687380D02*
X36101428Y-31687380D01*
X36006190Y-31735000D01*
X35958571Y-31782619D01*
X35910952Y-31877857D01*
X35863333Y-32068333D01*
X35863333Y-32306428D01*
X35910952Y-32496904D01*
X35958571Y-32592142D01*
X36006190Y-32639761D01*
X36101428Y-32687380D01*
X36196666Y-32687380D01*
X36291904Y-32639761D01*
X36339523Y-32592142D01*
X36387142Y-32496904D01*
X36434761Y-32306428D01*
X36434761Y-32068333D01*
X36387142Y-31877857D01*
X36339523Y-31782619D01*
X36291904Y-31735000D01*
X36196666Y-31687380D01*
D11*
X31830000Y-24590000D02*
X31830000Y-22690000D01*
X31830000Y-28490000D02*
X31830000Y-26490000D01*
X31830000Y-22690000D02*
X41230000Y-22690000D01*
X41230000Y-24590000D02*
X41230000Y-22690000D01*
X41230000Y-28490000D02*
X41230000Y-26490000D01*
%TD*%
M02*
