M48
; DRILL file {KiCad 7.0.7} date Thu 28 Sep 2023 00:00:28 CEST
; FORMAT={-:-/ absolute / metric / decimal}
; #@! TF.CreationDate,2023-09-28T00:00:28+02:00
; #@! TF.GenerationSoftware,Kicad,Pcbnew,7.0.7
; #@! TF.FileFunction,Plated,1,2,PTH
FMAT,2
METRIC
; #@! TA.AperFunction,Plated,PTH,ComponentDrill
T1C0.350
; #@! TA.AperFunction,Plated,PTH,ViaDrill
T2C0.400
; #@! TA.AperFunction,Plated,PTH,ComponentDrill
T3C0.500
; #@! TA.AperFunction,Plated,PTH,ComponentDrill
T4C0.600
; #@! TA.AperFunction,Plated,PTH,ComponentDrill
T5C0.700
; #@! TA.AperFunction,Plated,PTH,ComponentDrill
T6C1.000
; #@! TA.AperFunction,Plated,PTH,ComponentDrill
T7C1.200
; #@! TA.AperFunction,Plated,PTH,ComponentDrill
T8C1.470
; #@! TA.AperFunction,Plated,PTH,ComponentDrill
T9C1.500
; #@! TA.AperFunction,Plated,PTH,ComponentDrill
T10C3.200
%
G90
G05
T1
X168.087Y-41.648
X168.988Y-40.747
X168.988Y-42.55
X169.89Y-39.845
X169.89Y-41.648
X169.89Y-43.452
X170.792Y-40.747
X170.792Y-42.55
X171.693Y-41.648
T2
X22.39Y-68.17
X23.42Y-67.34
X24.426Y-67.697
X24.44Y-50.84
X25.41Y-67.87
X26.26Y-35.09
X32.05Y-36.16
X34.581Y-33.69
X36.548Y-45.582
X36.895Y-46.53
X38.158Y-44.214
X38.689Y-45.06
X39.025Y-31.751
X46.03Y-34.43
X47.852Y-48.359
X51.17Y-36.32
X64.95Y-109.972
X65.0Y-34.32
X70.22Y-36.14
X78.652Y-103.253
X84.2Y-34.45
X89.21Y-36.1
X99.79Y-42.12
X100.09Y-30.9
X103.24Y-34.45
X103.64Y-41.92
X108.2Y-36.11
X114.909Y-108.231
X122.26Y-34.43
X122.27Y-53.51
X127.29Y-36.14
X129.33Y-72.42
X129.75Y-53.16
X130.357Y-103.724
X134.59Y-80.44
X136.014Y-82.593
X141.3Y-82.62
X142.35Y-106.53
X142.377Y-59.307
X142.87Y-79.77
X143.03Y-82.5
X143.85Y-36.18
X144.71Y-38.37
X146.233Y-51.503
X147.23Y-48.92
X147.41Y-47.15
X147.49Y-49.95
X147.84Y-59.48
X147.98Y-48.17
X148.029Y-45.57
X148.447Y-42.763
X148.52Y-43.76
X148.58Y-51.03
X148.639Y-46.45
X148.672Y-44.804
X148.75Y-38.88
X148.8Y-36.35
X149.47Y-49.05
X150.381Y-43.969
X150.901Y-43.116
X152.664Y-38.171
X153.12Y-57.04
X155.02Y-48.74
X156.733Y-46.767
X157.59Y-49.84
X158.46Y-77.25
X158.93Y-52.47
X159.88Y-70.68
X160.53Y-43.58
X162.64Y-53.37
X162.87Y-57.03
X162.871Y-34.539
X162.96Y-55.2
X163.75Y-67.98
X164.191Y-39.965
X164.872Y-44.688
X165.035Y-66.075
X165.61Y-77.141
X165.984Y-65.126
X167.799Y-61.28
X168.076Y-65.454
X169.21Y-59.28
X169.88Y-47.47
X169.88Y-79.48
X169.885Y-66.625
X170.14Y-58.11
X171.318Y-50.868
X171.861Y-35.1
X172.042Y-50.0
X172.12Y-42.8
X172.52Y-77.941
X172.699Y-35.668
X173.062Y-36.599
X173.9Y-76.99
X174.76Y-41.53
X174.81Y-35.71
X174.81Y-36.83
X175.15Y-65.93
X176.641Y-43.69
X177.209Y-42.63
X177.27Y-108.17
X177.39Y-89.33
X177.909Y-43.351
X178.69Y-40.26
X179.537Y-58.893
X180.18Y-45.774
X180.42Y-57.53
X180.525Y-58.739
X180.78Y-82.11
X180.96Y-45.149
X181.099Y-54.295
X181.54Y-57.625
X181.8Y-83.87
X182.507Y-83.163
X182.608Y-57.668
X183.248Y-82.493
X183.299Y-78.067
X183.999Y-79.36
X186.935Y-84.77
X187.496Y-46.119
X188.1Y-84.99
X188.31Y-81.09
X189.609Y-87.829
X191.71Y-52.2
X191.97Y-38.65
X192.13Y-35.58
X192.36Y-50.1
X193.0Y-60.59
X193.109Y-50.86
X193.26Y-35.57
X194.2Y-109.96
X194.73Y-38.71
X197.79Y-60.47
X198.63Y-82.62
X201.88Y-99.94
X203.124Y-106.504
X203.34Y-60.5
X203.5Y-82.62
X205.43Y-80.38
X206.0Y-77.55
X207.55Y-70.93
X210.79Y-80.26
X213.06Y-58.63
X214.1Y-60.61
X217.55Y-72.75
X217.67Y-34.78
X222.75Y-36.23
X225.03Y-103.799
X236.56Y-34.39
X236.619Y-103.399
X239.684Y-50.009
X241.74Y-36.15
X255.52Y-34.44
X260.72Y-36.24
X270.496Y-102.999
X274.68Y-34.21
X279.77Y-36.26
X293.65Y-34.48
X298.85Y-36.2
X303.008Y-102.199
X304.36Y-46.67
X312.85Y-34.35
X317.98Y-36.18
T3
X136.32Y-36.5
X136.33Y-79.61
X137.023Y-34.803
X137.023Y-38.197
X137.033Y-77.913
X137.033Y-81.307
X138.72Y-34.1
X138.72Y-38.9
X138.73Y-77.21
X138.73Y-82.01
X140.417Y-34.803
X140.417Y-38.197
X140.427Y-77.913
X140.427Y-81.307
X141.12Y-36.5
X141.13Y-79.61
X198.6Y-36.48
X198.61Y-79.61
X199.303Y-34.783
X199.303Y-38.177
X199.313Y-77.913
X199.313Y-81.307
X201.0Y-34.08
X201.0Y-38.88
X201.01Y-77.21
X201.01Y-82.01
X202.697Y-34.783
X202.697Y-38.177
X202.707Y-77.913
X202.707Y-81.307
X203.4Y-36.48
X203.41Y-79.61
T5
X169.9Y-34.37
T6
X38.165Y-61.54
X38.165Y-64.08
X38.165Y-66.62
X38.165Y-69.16
X129.28Y-60.5
X129.28Y-75.0
X131.78Y-75.0
X134.28Y-60.5
X134.28Y-75.0
X144.28Y-60.5
X144.28Y-75.0
X146.78Y-75.0
X149.28Y-60.5
X149.28Y-75.0
X157.365Y-67.8
X157.37Y-75.055
X159.905Y-67.8
X159.91Y-75.055
X162.45Y-75.055
X164.99Y-75.055
X167.53Y-75.055
X172.37Y-75.05
X174.91Y-75.05
X177.45Y-75.05
X179.99Y-75.05
X190.47Y-60.48
X190.47Y-74.98
X192.97Y-74.98
X195.47Y-60.48
X195.47Y-74.98
X205.47Y-60.42
X205.47Y-74.92
X207.97Y-74.92
X210.47Y-60.42
X210.47Y-74.92
T7
X27.0Y-32.1
X27.0Y-51.15
X27.0Y-70.2
X27.0Y-89.25
X29.381Y-108.3
X32.0Y-34.2
X32.0Y-53.25
X32.0Y-72.3
X32.0Y-91.35
X34.381Y-110.4
X46.05Y-32.1
X46.05Y-51.15
X46.05Y-70.2
X46.05Y-89.25
X50.812Y-108.3
X51.05Y-34.2
X51.05Y-53.25
X51.05Y-72.3
X51.05Y-91.35
X55.812Y-110.4
X65.1Y-32.1
X65.1Y-51.15
X65.1Y-70.2
X65.1Y-89.25
X69.625Y-118.0
X70.1Y-34.2
X70.1Y-53.25
X70.1Y-72.3
X70.1Y-91.35
X72.244Y-108.3
X74.625Y-120.1
X77.244Y-110.4
X84.15Y-32.1
X84.15Y-51.15
X84.15Y-70.2
X84.15Y-89.25
X89.15Y-34.2
X89.15Y-53.25
X89.15Y-72.3
X89.15Y-91.35
X93.675Y-108.3
X98.675Y-110.4
X103.2Y-32.1
X103.2Y-51.15
X103.2Y-70.2
X103.2Y-89.25
X108.2Y-34.2
X108.2Y-53.25
X108.2Y-72.3
X108.2Y-91.35
X110.344Y-108.3
X112.487Y-118.0
X115.344Y-110.4
X117.487Y-120.1
X122.25Y-32.1
X122.25Y-51.15
X122.25Y-70.2
X122.25Y-89.25
X127.25Y-34.2
X127.25Y-53.25
X127.25Y-72.3
X127.25Y-91.35
X142.544Y-104.675
X144.644Y-99.675
X172.256Y-89.24
X172.256Y-108.3
X177.256Y-91.34
X177.256Y-110.4
X199.869Y-109.675
X201.969Y-104.675
X217.5Y-32.1
X217.5Y-51.15
X217.5Y-70.2
X217.5Y-89.25
X222.262Y-108.3
X222.5Y-34.2
X222.5Y-53.25
X222.5Y-72.3
X222.5Y-91.35
X227.262Y-110.4
X234.169Y-108.3
X236.55Y-32.1
X236.55Y-51.15
X236.55Y-70.2
X236.55Y-89.25
X239.169Y-110.4
X241.55Y-34.2
X241.55Y-53.25
X241.55Y-72.3
X241.55Y-91.35
X246.075Y-108.3
X251.075Y-110.4
X255.6Y-32.1
X255.6Y-51.15
X255.6Y-70.2
X255.6Y-89.25
X260.6Y-34.2
X260.6Y-53.25
X260.6Y-72.3
X260.6Y-91.35
X269.65Y-118.0
X274.65Y-32.1
X274.65Y-51.15
X274.65Y-70.2
X274.65Y-89.25
X274.65Y-120.1
X279.412Y-108.3
X279.65Y-34.2
X279.65Y-53.25
X279.65Y-72.3
X279.65Y-91.35
X284.412Y-110.4
X293.7Y-32.1
X293.7Y-51.15
X293.7Y-70.2
X293.7Y-89.25
X293.7Y-108.3
X298.7Y-34.2
X298.7Y-53.25
X298.7Y-72.3
X298.7Y-91.35
X298.7Y-110.4
X302.988Y-118.0
X307.988Y-120.1
X312.75Y-32.1
X312.75Y-51.15
X312.75Y-70.2
X312.75Y-89.25
X312.75Y-108.3
X317.75Y-34.2
X317.75Y-53.25
X317.75Y-72.3
X317.75Y-91.35
X317.75Y-110.4
T8
X23.19Y-35.46
X23.19Y-54.51
X23.19Y-73.56
X23.19Y-92.61
X24.5Y-34.0
X24.5Y-53.05
X24.5Y-72.1
X24.5Y-91.15
X25.571Y-111.66
X26.881Y-110.2
X29.5Y-33.5
X29.5Y-52.55
X29.5Y-71.6
X29.5Y-90.65
X29.54Y-32.92
X29.54Y-51.97
X29.54Y-71.02
X29.54Y-90.07
X31.881Y-109.7
X31.921Y-109.12
X42.24Y-35.46
X42.24Y-54.51
X42.24Y-73.56
X42.24Y-92.61
X43.55Y-34.0
X43.55Y-53.05
X43.55Y-72.1
X43.55Y-91.15
X47.002Y-111.66
X48.312Y-110.2
X48.55Y-33.5
X48.55Y-52.55
X48.55Y-71.6
X48.55Y-90.65
X48.59Y-32.92
X48.59Y-51.97
X48.59Y-71.02
X48.59Y-90.07
X53.312Y-109.7
X53.352Y-109.12
X61.29Y-35.46
X61.29Y-54.51
X61.29Y-73.56
X61.29Y-92.61
X62.6Y-34.0
X62.6Y-53.05
X62.6Y-72.1
X62.6Y-91.15
X67.6Y-33.5
X67.6Y-52.55
X67.6Y-71.6
X67.6Y-90.65
X67.64Y-32.92
X67.64Y-51.97
X67.64Y-71.02
X67.64Y-90.07
X68.434Y-111.66
X69.744Y-110.2
X72.085Y-119.28
X72.125Y-118.7
X74.744Y-109.7
X74.784Y-109.12
X77.125Y-118.2
X78.435Y-116.74
X80.34Y-35.46
X80.34Y-54.51
X80.34Y-73.56
X80.34Y-92.61
X81.65Y-34.0
X81.65Y-53.05
X81.65Y-72.1
X81.65Y-91.15
X86.65Y-33.5
X86.65Y-52.55
X86.65Y-71.6
X86.65Y-90.65
X86.69Y-32.92
X86.69Y-51.97
X86.69Y-71.02
X86.69Y-90.07
X89.865Y-111.66
X91.175Y-110.2
X96.175Y-109.7
X96.215Y-109.12
X99.39Y-35.46
X99.39Y-54.51
X99.39Y-73.56
X99.39Y-92.61
X100.7Y-34.0
X100.7Y-53.05
X100.7Y-72.1
X100.7Y-91.15
X105.7Y-33.5
X105.7Y-52.55
X105.7Y-71.6
X105.7Y-90.65
X105.74Y-32.92
X105.74Y-51.97
X105.74Y-71.02
X105.74Y-90.07
X106.534Y-111.66
X107.844Y-110.2
X112.844Y-109.7
X112.884Y-109.12
X114.947Y-119.28
X114.987Y-118.7
X118.44Y-35.46
X118.44Y-54.51
X118.44Y-73.56
X118.44Y-92.61
X119.75Y-34.0
X119.75Y-53.05
X119.75Y-72.1
X119.75Y-91.15
X119.987Y-118.2
X121.297Y-116.74
X124.75Y-33.5
X124.75Y-52.55
X124.75Y-71.6
X124.75Y-90.65
X124.79Y-32.92
X124.79Y-51.97
X124.79Y-71.02
X124.79Y-90.07
X143.364Y-102.135
X143.944Y-102.175
X144.444Y-107.175
X145.904Y-108.485
X168.446Y-92.6
X168.446Y-111.66
X169.756Y-91.14
X169.756Y-110.2
X174.756Y-90.64
X174.756Y-109.7
X174.796Y-90.06
X174.796Y-109.12
X198.609Y-100.865
X200.069Y-102.175
X200.569Y-107.175
X201.149Y-107.215
X213.69Y-35.46
X213.69Y-54.51
X213.69Y-73.56
X213.69Y-92.61
X215.0Y-34.0
X215.0Y-53.05
X215.0Y-72.1
X215.0Y-91.15
X218.452Y-111.66
X219.762Y-110.2
X220.0Y-33.5
X220.0Y-52.55
X220.0Y-71.6
X220.0Y-90.65
X220.04Y-32.92
X220.04Y-51.97
X220.04Y-71.02
X220.04Y-90.07
X224.762Y-109.7
X224.802Y-109.12
X230.359Y-111.66
X231.669Y-110.2
X232.74Y-35.46
X232.74Y-54.51
X232.74Y-73.56
X232.74Y-92.61
X234.05Y-34.0
X234.05Y-53.05
X234.05Y-72.1
X234.05Y-91.15
X236.669Y-109.7
X236.709Y-109.12
X239.05Y-33.5
X239.05Y-52.55
X239.05Y-71.6
X239.05Y-90.65
X239.09Y-32.92
X239.09Y-51.97
X239.09Y-71.02
X239.09Y-90.07
X242.265Y-111.66
X243.575Y-110.2
X248.575Y-109.7
X248.615Y-109.12
X251.79Y-35.46
X251.79Y-54.51
X251.79Y-73.56
X251.79Y-92.61
X253.1Y-34.0
X253.1Y-53.05
X253.1Y-72.1
X253.1Y-91.15
X258.1Y-33.5
X258.1Y-52.55
X258.1Y-71.6
X258.1Y-90.65
X258.14Y-32.92
X258.14Y-51.97
X258.14Y-71.02
X258.14Y-90.07
X270.84Y-35.46
X270.84Y-54.51
X270.84Y-73.56
X270.84Y-92.61
X272.11Y-119.28
X272.15Y-34.0
X272.15Y-53.05
X272.15Y-72.1
X272.15Y-91.15
X272.15Y-118.7
X275.602Y-111.66
X276.912Y-110.2
X277.15Y-33.5
X277.15Y-52.55
X277.15Y-71.6
X277.15Y-90.65
X277.15Y-118.2
X277.19Y-32.92
X277.19Y-51.97
X277.19Y-71.02
X277.19Y-90.07
X278.46Y-116.74
X281.912Y-109.7
X281.952Y-109.12
X289.89Y-35.46
X289.89Y-54.51
X289.89Y-73.56
X289.89Y-92.61
X289.89Y-111.66
X291.2Y-34.0
X291.2Y-53.05
X291.2Y-72.1
X291.2Y-91.15
X291.2Y-110.2
X296.2Y-33.5
X296.2Y-52.55
X296.2Y-71.6
X296.2Y-90.65
X296.2Y-109.7
X296.24Y-32.92
X296.24Y-51.97
X296.24Y-71.02
X296.24Y-90.07
X296.24Y-109.12
X305.447Y-119.28
X305.488Y-118.7
X308.94Y-35.46
X308.94Y-54.51
X308.94Y-73.56
X308.94Y-92.61
X308.94Y-111.66
X310.25Y-34.0
X310.25Y-53.05
X310.25Y-72.1
X310.25Y-91.15
X310.25Y-110.2
X310.488Y-118.2
X311.798Y-116.74
X315.25Y-33.5
X315.25Y-52.55
X315.25Y-71.6
X315.25Y-90.65
X315.25Y-109.7
X315.29Y-32.92
X315.29Y-51.97
X315.29Y-71.02
X315.29Y-90.07
X315.29Y-109.12
T10
X138.72Y-36.5
X138.73Y-79.61
X201.0Y-36.48
X201.01Y-79.61
T4
G00X32.21Y-25.24
M15
G01X32.21Y-25.84
M16
G05
G00X32.21Y-29.17
M15
G01X32.21Y-30.27
M16
G05
G00X40.85Y-25.24
M15
G01X40.85Y-25.84
M16
G05
G00X40.85Y-29.17
M15
G01X40.85Y-30.27
M16
G05
T9
G00X126.18Y-68.15
M15
G01X126.18Y-66.85
M16
G05
G00X137.38Y-68.15
M15
G01X137.38Y-66.85
M16
G05
G00X141.18Y-68.15
M15
G01X141.18Y-66.85
M16
G05
G00X152.38Y-68.15
M15
G01X152.38Y-66.85
M16
G05
G00X187.37Y-68.13
M15
G01X187.37Y-66.83
M16
G05
G00X198.57Y-68.13
M15
G01X198.57Y-66.83
M16
G05
G00X202.37Y-68.07
M15
G01X202.37Y-66.77
M16
G05
G00X213.57Y-68.07
M15
G01X213.57Y-66.77
M16
G05
T0
M30
