%TF.GenerationSoftware,KiCad,Pcbnew,7.0.7*%
%TF.CreationDate,2023-09-26T20:46:34+02:00*%
%TF.ProjectId,32u4,33327534-2e6b-4696-9361-645f70636258,rev?*%
%TF.SameCoordinates,Original*%
%TF.FileFunction,Soldermask,Bot*%
%TF.FilePolarity,Negative*%
%FSLAX46Y46*%
G04 Gerber Fmt 4.6, Leading zero omitted, Abs format (unit mm)*
G04 Created by KiCad (PCBNEW 7.0.7) date 2023-09-26 20:46:34*
%MOMM*%
%LPD*%
G01*
G04 APERTURE LIST*
G04 Aperture macros list*
%AMRoundRect*
0 Rectangle with rounded corners*
0 $1 Rounding radius*
0 $2 $3 $4 $5 $6 $7 $8 $9 X,Y pos of 4 corners*
0 Add a 4 corners polygon primitive as box body*
4,1,4,$2,$3,$4,$5,$6,$7,$8,$9,$2,$3,0*
0 Add four circle primitives for the rounded corners*
1,1,$1+$1,$2,$3*
1,1,$1+$1,$4,$5*
1,1,$1+$1,$6,$7*
1,1,$1+$1,$8,$9*
0 Add four rect primitives between the rounded corners*
20,1,$1+$1,$2,$3,$4,$5,0*
20,1,$1+$1,$4,$5,$6,$7,0*
20,1,$1+$1,$6,$7,$8,$9,0*
20,1,$1+$1,$8,$9,$2,$3,0*%
%AMHorizOval*
0 Thick line with rounded ends*
0 $1 width*
0 $2 $3 position (X,Y) of the first rounded end (center of the circle)*
0 $4 $5 position (X,Y) of the second rounded end (center of the circle)*
0 Add line between two ends*
20,1,$1,$2,$3,$4,$5,0*
0 Add two circle primitives to create the rounded ends*
1,1,$1,$2,$3*
1,1,$1,$4,$5*%
G04 Aperture macros list end*
%ADD10C,1.700000*%
%ADD11C,1.200000*%
%ADD12C,1.750000*%
%ADD13C,3.987800*%
%ADD14HorizOval,2.250000X0.019771X0.290016X-0.019771X-0.290016X0*%
%ADD15C,2.250000*%
%ADD16C,2.000000*%
%ADD17HorizOval,2.250000X0.654995X0.730004X-0.654995X-0.730004X0*%
%ADD18C,0.800000*%
%ADD19C,6.400000*%
%ADD20R,1.700000X1.700000*%
%ADD21O,1.700000X1.700000*%
%ADD22C,3.048000*%
%ADD23R,1.000000X1.000000*%
%ADD24R,2.000000X2.000000*%
%ADD25R,2.000000X3.200000*%
%ADD26C,0.787400*%
%ADD27HorizOval,2.250000X0.290016X-0.019771X-0.290016X0.019771X0*%
%ADD28HorizOval,2.250000X0.730004X-0.654995X-0.730004X0.654995X0*%
%ADD29HorizOval,2.250000X-0.290016X0.019771X0.290016X-0.019771X0*%
%ADD30HorizOval,2.250000X-0.730004X0.654995X0.730004X-0.654995X0*%
%ADD31C,0.650000*%
%ADD32R,0.600000X1.450000*%
%ADD33R,0.300000X1.450000*%
%ADD34O,1.000000X1.600000*%
%ADD35O,1.000000X2.100000*%
%ADD36RoundRect,0.150000X-0.150000X-0.775000X0.150000X-0.775000X0.150000X0.775000X-0.150000X0.775000X0*%
%ADD37RoundRect,0.332800X-0.467200X-0.567200X0.467200X-0.567200X0.467200X0.567200X-0.467200X0.567200X0*%
G04 APERTURE END LIST*
D10*
%TO.C,SW14*%
X97700000Y-57050000D03*
D11*
X97980000Y-61250000D03*
D12*
X98120000Y-57050000D03*
D13*
X103200000Y-57050000D03*
D12*
X108280000Y-57050000D03*
D10*
X108700000Y-57050000D03*
D14*
X105719771Y-52259984D03*
D15*
X105740000Y-51970000D03*
D16*
X108200000Y-53250000D03*
D17*
X100044995Y-53779996D03*
D15*
X100700000Y-53050000D03*
D16*
X103200000Y-51150000D03*
%TD*%
D10*
%TO.C,SW35*%
X116750000Y-95150000D03*
D11*
X117030000Y-99350000D03*
D12*
X117170000Y-95150000D03*
D13*
X122250000Y-95150000D03*
D12*
X127330000Y-95150000D03*
D10*
X127750000Y-95150000D03*
D14*
X124769771Y-90359984D03*
D15*
X124790000Y-90070000D03*
D16*
X127250000Y-91350000D03*
D17*
X119094995Y-91879996D03*
D15*
X119750000Y-91150000D03*
D16*
X122250000Y-89250000D03*
%TD*%
D10*
%TO.C,SW15*%
X116750000Y-57050000D03*
D11*
X117030000Y-61250000D03*
D12*
X117170000Y-57050000D03*
D13*
X122250000Y-57050000D03*
D12*
X127330000Y-57050000D03*
D10*
X127750000Y-57050000D03*
D14*
X124769771Y-52259984D03*
D15*
X124790000Y-51970000D03*
D16*
X127250000Y-53250000D03*
D17*
X119094995Y-53779996D03*
D15*
X119750000Y-53050000D03*
D16*
X122250000Y-51150000D03*
%TD*%
D10*
%TO.C,SW31*%
X40550000Y-95150000D03*
D11*
X40830000Y-99350000D03*
D12*
X40970000Y-95150000D03*
D13*
X46050000Y-95150000D03*
D12*
X51130000Y-95150000D03*
D10*
X51550000Y-95150000D03*
D14*
X48569771Y-90359984D03*
D15*
X48590000Y-90070000D03*
D16*
X51050000Y-91350000D03*
D17*
X42894995Y-91879996D03*
D15*
X43550000Y-91150000D03*
D16*
X46050000Y-89250000D03*
%TD*%
D10*
%TO.C,SW25*%
X116750000Y-76100000D03*
D11*
X117030000Y-80300000D03*
D12*
X117170000Y-76100000D03*
D13*
X122250000Y-76100000D03*
D12*
X127330000Y-76100000D03*
D10*
X127750000Y-76100000D03*
D14*
X124769771Y-71309984D03*
D15*
X124790000Y-71020000D03*
D16*
X127250000Y-72300000D03*
D17*
X119094995Y-72829996D03*
D15*
X119750000Y-72100000D03*
D16*
X122250000Y-70200000D03*
%TD*%
D10*
%TO.C,SW1.1*%
X40550000Y-57050000D03*
D11*
X40830000Y-61250000D03*
D12*
X40970000Y-57050000D03*
D13*
X46050000Y-57050000D03*
D12*
X51130000Y-57050000D03*
D10*
X51550000Y-57050000D03*
D14*
X48569771Y-52259984D03*
D15*
X48590000Y-51970000D03*
D16*
X51050000Y-53250000D03*
D17*
X42894995Y-53779996D03*
D15*
X43550000Y-53050000D03*
D16*
X46050000Y-51150000D03*
%TD*%
D18*
%TO.C,REF\u002A\u002A*%
X136330000Y-79610000D03*
X137032944Y-77912944D03*
X137032944Y-81307056D03*
X138730000Y-77210000D03*
D19*
X138730000Y-79610000D03*
D18*
X138730000Y-82010000D03*
X140427056Y-77912944D03*
X140427056Y-81307056D03*
X141130000Y-79610000D03*
%TD*%
D20*
%TO.C,J1*%
X157370000Y-75055000D03*
D21*
X159910000Y-75055000D03*
X162450000Y-75055000D03*
X164990000Y-75055000D03*
X167530000Y-75055000D03*
%TD*%
D10*
%TO.C,SW47*%
X228668750Y-114200000D03*
D11*
X228948750Y-118400000D03*
D12*
X229088750Y-114200000D03*
D13*
X234168750Y-114200000D03*
D12*
X239248750Y-114200000D03*
D10*
X239668750Y-114200000D03*
D14*
X236688521Y-109409984D03*
D15*
X236708750Y-109120000D03*
D16*
X239168750Y-110400000D03*
D17*
X231013745Y-110929996D03*
D15*
X231668750Y-110200000D03*
D16*
X234168750Y-108300000D03*
%TD*%
D10*
%TO.C,SW2*%
X59600000Y-38000000D03*
D11*
X59880000Y-42200000D03*
D12*
X60020000Y-38000000D03*
D13*
X65100000Y-38000000D03*
D12*
X70180000Y-38000000D03*
D10*
X70600000Y-38000000D03*
D14*
X67619771Y-33209984D03*
D15*
X67640000Y-32920000D03*
D16*
X70100000Y-34200000D03*
D17*
X61944995Y-34729996D03*
D15*
X62600000Y-34000000D03*
D16*
X65100000Y-32100000D03*
%TD*%
D22*
%TO.C,REF\u002A\u002A*%
X246068750Y-121185000D03*
D13*
X246068750Y-105945000D03*
D22*
X222268750Y-121185000D03*
D13*
X222268750Y-105945000D03*
%TD*%
D10*
%TO.C,SW49*%
X273912500Y-114200000D03*
D11*
X274192500Y-118400000D03*
D12*
X274332500Y-114200000D03*
D13*
X279412500Y-114200000D03*
D12*
X284492500Y-114200000D03*
D10*
X284912500Y-114200000D03*
D14*
X281932271Y-109409984D03*
D15*
X281952500Y-109120000D03*
D16*
X284412500Y-110400000D03*
D17*
X276257495Y-110929996D03*
D15*
X276912500Y-110200000D03*
D16*
X279412500Y-108300000D03*
%TD*%
D18*
%TO.C,REF\u002A\u002A*%
X136320000Y-36500000D03*
X137022944Y-34802944D03*
X137022944Y-38197056D03*
X138720000Y-34100000D03*
D19*
X138720000Y-36500000D03*
D18*
X138720000Y-38900000D03*
X140417056Y-34802944D03*
X140417056Y-38197056D03*
X141120000Y-36500000D03*
%TD*%
D22*
%TO.C,REF\u002A\u002A*%
X122243750Y-121185000D03*
D13*
X122243750Y-105945000D03*
D22*
X98443750Y-121185000D03*
D13*
X98443750Y-105945000D03*
%TD*%
D10*
%TO.C,SW7*%
X231050000Y-38000000D03*
D11*
X231330000Y-42200000D03*
D12*
X231470000Y-38000000D03*
D13*
X236550000Y-38000000D03*
D12*
X241630000Y-38000000D03*
D10*
X242050000Y-38000000D03*
D14*
X239069771Y-33209984D03*
D15*
X239090000Y-32920000D03*
D16*
X241550000Y-34200000D03*
D17*
X233394995Y-34729996D03*
D15*
X234050000Y-34000000D03*
D16*
X236550000Y-32100000D03*
%TD*%
D23*
%TO.C,J4*%
X169900000Y-34370000D03*
%TD*%
D10*
%TO.C,SW30*%
X21500000Y-95150000D03*
D11*
X21780000Y-99350000D03*
D12*
X21920000Y-95150000D03*
D13*
X27000000Y-95150000D03*
D12*
X32080000Y-95150000D03*
D10*
X32500000Y-95150000D03*
D14*
X29519771Y-90359984D03*
D15*
X29540000Y-90070000D03*
D16*
X32000000Y-91350000D03*
D17*
X23844995Y-91879996D03*
D15*
X24500000Y-91150000D03*
D16*
X27000000Y-89250000D03*
%TD*%
D10*
%TO.C,SW40*%
X23881250Y-114200000D03*
D11*
X24161250Y-118400000D03*
D12*
X24301250Y-114200000D03*
D13*
X29381250Y-114200000D03*
D12*
X34461250Y-114200000D03*
D10*
X34881250Y-114200000D03*
D14*
X31901021Y-109409984D03*
D15*
X31921250Y-109120000D03*
D16*
X34381250Y-110400000D03*
D17*
X26226245Y-110929996D03*
D15*
X26881250Y-110200000D03*
D16*
X29381250Y-108300000D03*
%TD*%
D10*
%TO.C,SW1.0*%
X21500000Y-57050000D03*
D11*
X21780000Y-61250000D03*
D12*
X21920000Y-57050000D03*
D13*
X27000000Y-57050000D03*
D12*
X32080000Y-57050000D03*
D10*
X32500000Y-57050000D03*
D14*
X29519771Y-52259984D03*
D15*
X29540000Y-51970000D03*
D16*
X32000000Y-53250000D03*
D17*
X23844995Y-53779996D03*
D15*
X24500000Y-53050000D03*
D16*
X27000000Y-51150000D03*
%TD*%
D10*
%TO.C,SW8*%
X250100000Y-38000000D03*
D11*
X250380000Y-42200000D03*
D12*
X250520000Y-38000000D03*
D13*
X255600000Y-38000000D03*
D12*
X260680000Y-38000000D03*
D10*
X261100000Y-38000000D03*
D14*
X258119771Y-33209984D03*
D15*
X258140000Y-32920000D03*
D16*
X260600000Y-34200000D03*
D17*
X252444995Y-34729996D03*
D15*
X253100000Y-34000000D03*
D16*
X255600000Y-32100000D03*
%TD*%
D24*
%TO.C,ENCODERLEFT2*%
X129280000Y-75000000D03*
D16*
X134280000Y-75000000D03*
X131780000Y-75000000D03*
D25*
X126180000Y-67500000D03*
X137380000Y-67500000D03*
D16*
X134280000Y-60500000D03*
X129280000Y-60500000D03*
%TD*%
D10*
%TO.C,SW37*%
X231050000Y-95150000D03*
D11*
X231330000Y-99350000D03*
D12*
X231470000Y-95150000D03*
D13*
X236550000Y-95150000D03*
D12*
X241630000Y-95150000D03*
D10*
X242050000Y-95150000D03*
D14*
X239069771Y-90359984D03*
D15*
X239090000Y-90070000D03*
D16*
X241550000Y-91350000D03*
D17*
X233394995Y-91879996D03*
D15*
X234050000Y-91150000D03*
D16*
X236550000Y-89250000D03*
%TD*%
D10*
%TO.C,SW0*%
X21500000Y-38000000D03*
D11*
X21780000Y-42200000D03*
D12*
X21920000Y-38000000D03*
D13*
X27000000Y-38000000D03*
D12*
X32080000Y-38000000D03*
D10*
X32500000Y-38000000D03*
D14*
X29519771Y-33209984D03*
D15*
X29540000Y-32920000D03*
D16*
X32000000Y-34200000D03*
D17*
X23844995Y-34729996D03*
D15*
X24500000Y-34000000D03*
D16*
X27000000Y-32100000D03*
%TD*%
D24*
%TO.C,ENCODERLEFT1*%
X144280000Y-75000000D03*
D16*
X149280000Y-75000000D03*
X146780000Y-75000000D03*
D25*
X141180000Y-67500000D03*
X152380000Y-67500000D03*
D16*
X149280000Y-60500000D03*
X144280000Y-60500000D03*
%TD*%
D10*
%TO.C,SW32*%
X59600000Y-95150000D03*
D11*
X59880000Y-99350000D03*
D12*
X60020000Y-95150000D03*
D13*
X65100000Y-95150000D03*
D12*
X70180000Y-95150000D03*
D10*
X70600000Y-95150000D03*
D14*
X67619771Y-90359984D03*
D15*
X67640000Y-90070000D03*
D16*
X70100000Y-91350000D03*
D17*
X61944995Y-91879996D03*
D15*
X62600000Y-91150000D03*
D16*
X65100000Y-89250000D03*
%TD*%
D10*
%TO.C,SW41*%
X45312500Y-114200000D03*
D11*
X45592500Y-118400000D03*
D12*
X45732500Y-114200000D03*
D13*
X50812500Y-114200000D03*
D12*
X55892500Y-114200000D03*
D10*
X56312500Y-114200000D03*
D14*
X53332271Y-109409984D03*
D15*
X53352500Y-109120000D03*
D16*
X55812500Y-110400000D03*
D17*
X47657495Y-110929996D03*
D15*
X48312500Y-110200000D03*
D16*
X50812500Y-108300000D03*
%TD*%
D10*
%TO.C,SW1*%
X40550000Y-38000000D03*
D11*
X40830000Y-42200000D03*
D12*
X40970000Y-38000000D03*
D13*
X46050000Y-38000000D03*
D12*
X51130000Y-38000000D03*
D10*
X51550000Y-38000000D03*
D14*
X48569771Y-33209984D03*
D15*
X48590000Y-32920000D03*
D16*
X51050000Y-34200000D03*
D17*
X42894995Y-34729996D03*
D15*
X43550000Y-34000000D03*
D16*
X46050000Y-32100000D03*
%TD*%
D20*
%TO.C,J2*%
X179990000Y-75050000D03*
D21*
X177450000Y-75050000D03*
X174910000Y-75050000D03*
X172370000Y-75050000D03*
%TD*%
D10*
%TO.C,SW311*%
X307250000Y-95150000D03*
D11*
X307530000Y-99350000D03*
D12*
X307670000Y-95150000D03*
D13*
X312750000Y-95150000D03*
D12*
X317830000Y-95150000D03*
D10*
X318250000Y-95150000D03*
D14*
X315269771Y-90359984D03*
D15*
X315290000Y-90070000D03*
D16*
X317750000Y-91350000D03*
D17*
X309594995Y-91879996D03*
D15*
X310250000Y-91150000D03*
D16*
X312750000Y-89250000D03*
%TD*%
D10*
%TO.C,SW29*%
X269150000Y-76100000D03*
D11*
X269430000Y-80300000D03*
D12*
X269570000Y-76100000D03*
D13*
X274650000Y-76100000D03*
D12*
X279730000Y-76100000D03*
D10*
X280150000Y-76100000D03*
D14*
X277169771Y-71309984D03*
D15*
X277190000Y-71020000D03*
D16*
X279650000Y-72300000D03*
D17*
X271494995Y-72829996D03*
D15*
X272150000Y-72100000D03*
D16*
X274650000Y-70200000D03*
%TD*%
D10*
%TO.C,SW10*%
X288200000Y-38000000D03*
D11*
X288480000Y-42200000D03*
D12*
X288620000Y-38000000D03*
D13*
X293700000Y-38000000D03*
D12*
X298780000Y-38000000D03*
D10*
X299200000Y-38000000D03*
D14*
X296219771Y-33209984D03*
D15*
X296240000Y-32920000D03*
D16*
X298700000Y-34200000D03*
D17*
X290544995Y-34729996D03*
D15*
X291200000Y-34000000D03*
D16*
X293700000Y-32100000D03*
%TD*%
D10*
%TO.C,SW9*%
X269150000Y-38000000D03*
D11*
X269430000Y-42200000D03*
D12*
X269570000Y-38000000D03*
D13*
X274650000Y-38000000D03*
D12*
X279730000Y-38000000D03*
D10*
X280150000Y-38000000D03*
D14*
X277169771Y-33209984D03*
D15*
X277190000Y-32920000D03*
D16*
X279650000Y-34200000D03*
D17*
X271494995Y-34729996D03*
D15*
X272150000Y-34000000D03*
D16*
X274650000Y-32100000D03*
%TD*%
D10*
%TO.C,SW17*%
X231050000Y-57050000D03*
D11*
X231330000Y-61250000D03*
D12*
X231470000Y-57050000D03*
D13*
X236550000Y-57050000D03*
D12*
X241630000Y-57050000D03*
D10*
X242050000Y-57050000D03*
D14*
X239069771Y-52259984D03*
D15*
X239090000Y-51970000D03*
D16*
X241550000Y-53250000D03*
D17*
X233394995Y-53779996D03*
D15*
X234050000Y-53050000D03*
D16*
X236550000Y-51150000D03*
%TD*%
D10*
%TO.C,SW411*%
X302487500Y-114200000D03*
D11*
X302767500Y-118400000D03*
D12*
X302907500Y-114200000D03*
D13*
X307987500Y-114200000D03*
D12*
X313067500Y-114200000D03*
D10*
X313487500Y-114200000D03*
D14*
X310507271Y-109409984D03*
D15*
X310527500Y-109120000D03*
D16*
X312987500Y-110400000D03*
D17*
X304832495Y-110929996D03*
D15*
X305487500Y-110200000D03*
D16*
X307987500Y-108300000D03*
%TD*%
D18*
%TO.C,REF\u002A\u002A*%
X198610000Y-79610000D03*
X199312944Y-77912944D03*
X199312944Y-81307056D03*
X201010000Y-77210000D03*
D19*
X201010000Y-79610000D03*
D18*
X201010000Y-82010000D03*
X202707056Y-77912944D03*
X202707056Y-81307056D03*
X203410000Y-79610000D03*
%TD*%
D10*
%TO.C,SW211*%
X307250000Y-76100000D03*
D11*
X307530000Y-80300000D03*
D12*
X307670000Y-76100000D03*
D13*
X312750000Y-76100000D03*
D12*
X317830000Y-76100000D03*
D10*
X318250000Y-76100000D03*
D14*
X315269771Y-71309984D03*
D15*
X315290000Y-71020000D03*
D16*
X317750000Y-72300000D03*
D17*
X309594995Y-72829996D03*
D15*
X310250000Y-72100000D03*
D16*
X312750000Y-70200000D03*
%TD*%
D10*
%TO.C,SW19*%
X269150000Y-57050000D03*
D11*
X269430000Y-61250000D03*
D12*
X269570000Y-57050000D03*
D13*
X274650000Y-57050000D03*
D12*
X279730000Y-57050000D03*
D10*
X280150000Y-57050000D03*
D14*
X277169771Y-52259984D03*
D15*
X277190000Y-51970000D03*
D16*
X279650000Y-53250000D03*
D17*
X271494995Y-53779996D03*
D15*
X272150000Y-53050000D03*
D16*
X274650000Y-51150000D03*
%TD*%
D10*
%TO.C,SW33*%
X78650000Y-95150000D03*
D11*
X78930000Y-99350000D03*
D12*
X79070000Y-95150000D03*
D13*
X84150000Y-95150000D03*
D12*
X89230000Y-95150000D03*
D10*
X89650000Y-95150000D03*
D14*
X86669771Y-90359984D03*
D15*
X86690000Y-90070000D03*
D16*
X89150000Y-91350000D03*
D17*
X80994995Y-91879996D03*
D15*
X81650000Y-91150000D03*
D16*
X84150000Y-89250000D03*
%TD*%
D10*
%TO.C,SW110*%
X288200000Y-57050000D03*
D11*
X288480000Y-61250000D03*
D12*
X288620000Y-57050000D03*
D13*
X293700000Y-57050000D03*
D12*
X298780000Y-57050000D03*
D10*
X299200000Y-57050000D03*
D14*
X296219771Y-52259984D03*
D15*
X296240000Y-51970000D03*
D16*
X298700000Y-53250000D03*
D17*
X290544995Y-53779996D03*
D15*
X291200000Y-53050000D03*
D16*
X293700000Y-51150000D03*
%TD*%
D10*
%TO.C,SW36*%
X212000000Y-95150000D03*
D11*
X212280000Y-99350000D03*
D12*
X212420000Y-95150000D03*
D13*
X217500000Y-95150000D03*
D12*
X222580000Y-95150000D03*
D10*
X223000000Y-95150000D03*
D14*
X220019771Y-90359984D03*
D15*
X220040000Y-90070000D03*
D16*
X222500000Y-91350000D03*
D17*
X214344995Y-91879996D03*
D15*
X215000000Y-91150000D03*
D16*
X217500000Y-89250000D03*
%TD*%
D10*
%TO.C,SW6*%
X212000000Y-38000000D03*
D11*
X212280000Y-42200000D03*
D12*
X212420000Y-38000000D03*
D13*
X217500000Y-38000000D03*
D12*
X222580000Y-38000000D03*
D10*
X223000000Y-38000000D03*
D14*
X220019771Y-33209984D03*
D15*
X220040000Y-32920000D03*
D16*
X222500000Y-34200000D03*
D17*
X214344995Y-34729996D03*
D15*
X215000000Y-34000000D03*
D16*
X217500000Y-32100000D03*
%TD*%
D10*
%TO.C,SW39*%
X269150000Y-95150000D03*
D11*
X269430000Y-99350000D03*
D12*
X269570000Y-95150000D03*
D13*
X274650000Y-95150000D03*
D12*
X279730000Y-95150000D03*
D10*
X280150000Y-95150000D03*
D14*
X277169771Y-90359984D03*
D15*
X277190000Y-90070000D03*
D16*
X279650000Y-91350000D03*
D17*
X271494995Y-91879996D03*
D15*
X272150000Y-91150000D03*
D16*
X274650000Y-89250000D03*
%TD*%
D10*
%TO.C,SW38*%
X250100000Y-95150000D03*
D11*
X250380000Y-99350000D03*
D12*
X250520000Y-95150000D03*
D13*
X255600000Y-95150000D03*
D12*
X260680000Y-95150000D03*
D10*
X261100000Y-95150000D03*
D14*
X258119771Y-90359984D03*
D15*
X258140000Y-90070000D03*
D16*
X260600000Y-91350000D03*
D17*
X252444995Y-91879996D03*
D15*
X253100000Y-91150000D03*
D16*
X255600000Y-89250000D03*
%TD*%
D10*
%TO.C,SW11*%
X307250000Y-38000000D03*
D11*
X307530000Y-42200000D03*
D12*
X307670000Y-38000000D03*
D13*
X312750000Y-38000000D03*
D12*
X317830000Y-38000000D03*
D10*
X318250000Y-38000000D03*
D14*
X315269771Y-33209984D03*
D15*
X315290000Y-32920000D03*
D16*
X317750000Y-34200000D03*
D17*
X309594995Y-34729996D03*
D15*
X310250000Y-34000000D03*
D16*
X312750000Y-32100000D03*
%TD*%
D20*
%TO.C,J5*%
X157365000Y-67800000D03*
D21*
X159905000Y-67800000D03*
%TD*%
D10*
%TO.C,SW34*%
X97700000Y-95150000D03*
D11*
X97980000Y-99350000D03*
D12*
X98120000Y-95150000D03*
D13*
X103200000Y-95150000D03*
D12*
X108280000Y-95150000D03*
D10*
X108700000Y-95150000D03*
D14*
X105719771Y-90359984D03*
D15*
X105740000Y-90070000D03*
D16*
X108200000Y-91350000D03*
D17*
X100044995Y-91879996D03*
D15*
X100700000Y-91150000D03*
D16*
X103200000Y-89250000D03*
%TD*%
D10*
%TO.C,SW310*%
X288200000Y-95150000D03*
D11*
X288480000Y-99350000D03*
D12*
X288620000Y-95150000D03*
D13*
X293700000Y-95150000D03*
D12*
X298780000Y-95150000D03*
D10*
X299200000Y-95150000D03*
D14*
X296219771Y-90359984D03*
D15*
X296240000Y-90070000D03*
D16*
X298700000Y-91350000D03*
D17*
X290544995Y-91879996D03*
D15*
X291200000Y-91150000D03*
D16*
X293700000Y-89250000D03*
%TD*%
D10*
%TO.C,SW1.2*%
X59600000Y-57050000D03*
D11*
X59880000Y-61250000D03*
D12*
X60020000Y-57050000D03*
D13*
X65100000Y-57050000D03*
D12*
X70180000Y-57050000D03*
D10*
X70600000Y-57050000D03*
D14*
X67619771Y-52259984D03*
D15*
X67640000Y-51970000D03*
D16*
X70100000Y-53250000D03*
D17*
X61944995Y-53779996D03*
D15*
X62600000Y-53050000D03*
D16*
X65100000Y-51150000D03*
%TD*%
D26*
%TO.C,REF\u002A\u002A*%
X35660000Y-28790000D03*
X36930000Y-28790000D03*
X38200000Y-28790000D03*
X39470000Y-28790000D03*
X40740000Y-28790000D03*
%TD*%
D10*
%TO.C,SW23*%
X78650000Y-76100000D03*
D11*
X78930000Y-80300000D03*
D12*
X79070000Y-76100000D03*
D13*
X84150000Y-76100000D03*
D12*
X89230000Y-76100000D03*
D10*
X89650000Y-76100000D03*
D14*
X86669771Y-71309984D03*
D15*
X86690000Y-71020000D03*
D16*
X89150000Y-72300000D03*
D17*
X80994995Y-72829996D03*
D15*
X81650000Y-72100000D03*
D16*
X84150000Y-70200000D03*
%TD*%
D24*
%TO.C,ENCODERRIGHT2*%
X205470000Y-74920000D03*
D16*
X210470000Y-74920000D03*
X207970000Y-74920000D03*
D25*
X202370000Y-67420000D03*
X213570000Y-67420000D03*
D16*
X210470000Y-60420000D03*
X205470000Y-60420000D03*
%TD*%
D10*
%TO.C,SW111*%
X307250000Y-57050000D03*
D11*
X307530000Y-61250000D03*
D12*
X307670000Y-57050000D03*
D13*
X312750000Y-57050000D03*
D12*
X317830000Y-57050000D03*
D10*
X318250000Y-57050000D03*
D14*
X315269771Y-52259984D03*
D15*
X315290000Y-51970000D03*
D16*
X317750000Y-53250000D03*
D17*
X309594995Y-53779996D03*
D15*
X310250000Y-53050000D03*
D16*
X312750000Y-51150000D03*
%TD*%
D10*
%TO.C,SW13*%
X78650000Y-57050000D03*
D11*
X78930000Y-61250000D03*
D12*
X79070000Y-57050000D03*
D13*
X84150000Y-57050000D03*
D12*
X89230000Y-57050000D03*
D10*
X89650000Y-57050000D03*
D14*
X86669771Y-52259984D03*
D15*
X86690000Y-51970000D03*
D16*
X89150000Y-53250000D03*
D17*
X80994995Y-53779996D03*
D15*
X81650000Y-53050000D03*
D16*
X84150000Y-51150000D03*
%TD*%
D10*
%TO.C,SW44*%
X104843750Y-114200000D03*
D11*
X105123750Y-118400000D03*
D12*
X105263750Y-114200000D03*
D13*
X110343750Y-114200000D03*
D12*
X115423750Y-114200000D03*
D10*
X115843750Y-114200000D03*
D14*
X112863521Y-109409984D03*
D15*
X112883750Y-109120000D03*
D16*
X115343750Y-110400000D03*
D17*
X107188745Y-110929996D03*
D15*
X107843750Y-110200000D03*
D16*
X110343750Y-108300000D03*
%TD*%
D24*
%TO.C,ENCODERRIGHT1*%
X190470000Y-74980000D03*
D16*
X195470000Y-74980000D03*
X192970000Y-74980000D03*
D25*
X187370000Y-67480000D03*
X198570000Y-67480000D03*
D16*
X195470000Y-60480000D03*
X190470000Y-60480000D03*
%TD*%
D26*
%TO.C,REF\u002A\u002A*%
X31850000Y-28790000D03*
X33120000Y-28790000D03*
X34390000Y-28790000D03*
X35660000Y-28790000D03*
X36930000Y-28790000D03*
%TD*%
D10*
%TO.C,SW22*%
X59600000Y-76100000D03*
D11*
X59880000Y-80300000D03*
D12*
X60020000Y-76100000D03*
D13*
X65100000Y-76100000D03*
D12*
X70180000Y-76100000D03*
D10*
X70600000Y-76100000D03*
D14*
X67619771Y-71309984D03*
D15*
X67640000Y-71020000D03*
D16*
X70100000Y-72300000D03*
D17*
X61944995Y-72829996D03*
D15*
X62600000Y-72100000D03*
D16*
X65100000Y-70200000D03*
%TD*%
D18*
%TO.C,REF\u002A\u002A*%
X198600000Y-36480000D03*
X199302944Y-34782944D03*
X199302944Y-38177056D03*
X201000000Y-34080000D03*
D19*
X201000000Y-36480000D03*
D18*
X201000000Y-38880000D03*
X202697056Y-34782944D03*
X202697056Y-38177056D03*
X203400000Y-36480000D03*
%TD*%
D10*
%TO.C,SW16*%
X212000000Y-57050000D03*
D11*
X212280000Y-61250000D03*
D12*
X212420000Y-57050000D03*
D13*
X217500000Y-57050000D03*
D12*
X222580000Y-57050000D03*
D10*
X223000000Y-57050000D03*
D14*
X220019771Y-52259984D03*
D15*
X220040000Y-51970000D03*
D16*
X222500000Y-53250000D03*
D17*
X214344995Y-53779996D03*
D15*
X215000000Y-53050000D03*
D16*
X217500000Y-51150000D03*
%TD*%
D10*
%TO.C,SW20*%
X21500000Y-76100000D03*
D11*
X21780000Y-80300000D03*
D12*
X21920000Y-76100000D03*
D13*
X27000000Y-76100000D03*
D12*
X32080000Y-76100000D03*
D10*
X32500000Y-76100000D03*
D14*
X29519771Y-71309984D03*
D15*
X29540000Y-71020000D03*
D16*
X32000000Y-72300000D03*
D17*
X23844995Y-72829996D03*
D15*
X24500000Y-72100000D03*
D16*
X27000000Y-70200000D03*
%TD*%
D22*
%TO.C,REF\u002A\u002A*%
X155428750Y-92775000D03*
D13*
X140188750Y-92775000D03*
D22*
X155428750Y-116575000D03*
D13*
X140188750Y-116575000D03*
%TD*%
D10*
%TO.C,SW56*%
X166756250Y-114200000D03*
D11*
X167036250Y-118400000D03*
D12*
X167176250Y-114200000D03*
D13*
X172256250Y-114200000D03*
D12*
X177336250Y-114200000D03*
D10*
X177756250Y-114200000D03*
D14*
X174776021Y-109409984D03*
D15*
X174796250Y-109120000D03*
D16*
X177256250Y-110400000D03*
D17*
X169101245Y-110929996D03*
D15*
X169756250Y-110200000D03*
D16*
X172256250Y-108300000D03*
%TD*%
D10*
%TO.C,SW55*%
X166756250Y-95140000D03*
D11*
X167036250Y-99340000D03*
D12*
X167176250Y-95140000D03*
D13*
X172256250Y-95140000D03*
D12*
X177336250Y-95140000D03*
D10*
X177756250Y-95140000D03*
D14*
X174776021Y-90349984D03*
D15*
X174796250Y-90060000D03*
D16*
X177256250Y-91340000D03*
D17*
X169101245Y-91869996D03*
D15*
X169756250Y-91140000D03*
D16*
X172256250Y-89240000D03*
%TD*%
D10*
%TO.C,SW42*%
X66743750Y-114200000D03*
D11*
X67023750Y-118400000D03*
D12*
X67163750Y-114200000D03*
D13*
X72243750Y-114200000D03*
D12*
X77323750Y-114200000D03*
D10*
X77743750Y-114200000D03*
D14*
X74763521Y-109409984D03*
D15*
X74783750Y-109120000D03*
D16*
X77243750Y-110400000D03*
D17*
X69088745Y-110929996D03*
D15*
X69743750Y-110200000D03*
D16*
X72243750Y-108300000D03*
%TD*%
D10*
%TO.C,SW18*%
X250100000Y-57050000D03*
D11*
X250380000Y-61250000D03*
D12*
X250520000Y-57050000D03*
D13*
X255600000Y-57050000D03*
D12*
X260680000Y-57050000D03*
D10*
X261100000Y-57050000D03*
D14*
X258119771Y-52259984D03*
D15*
X258140000Y-51970000D03*
D16*
X260600000Y-53250000D03*
D17*
X252444995Y-53779996D03*
D15*
X253100000Y-53050000D03*
D16*
X255600000Y-51150000D03*
%TD*%
D10*
%TO.C,SW26*%
X212000000Y-76100000D03*
D11*
X212280000Y-80300000D03*
D12*
X212420000Y-76100000D03*
D13*
X217500000Y-76100000D03*
D12*
X222580000Y-76100000D03*
D10*
X223000000Y-76100000D03*
D14*
X220019771Y-71309984D03*
D15*
X220040000Y-71020000D03*
D16*
X222500000Y-72300000D03*
D17*
X214344995Y-72829996D03*
D15*
X215000000Y-72100000D03*
D16*
X217500000Y-70200000D03*
%TD*%
D10*
%TO.C,SW210*%
X288200000Y-76100000D03*
D11*
X288480000Y-80300000D03*
D12*
X288620000Y-76100000D03*
D13*
X293700000Y-76100000D03*
D12*
X298780000Y-76100000D03*
D10*
X299200000Y-76100000D03*
D14*
X296219771Y-71309984D03*
D15*
X296240000Y-71020000D03*
D16*
X298700000Y-72300000D03*
D17*
X290544995Y-72829996D03*
D15*
X291200000Y-72100000D03*
D16*
X293700000Y-70200000D03*
%TD*%
D10*
%TO.C,SW46*%
X196068750Y-99175000D03*
D11*
X191868750Y-99455000D03*
D12*
X196068750Y-99595000D03*
D13*
X196068750Y-104675000D03*
D12*
X196068750Y-109755000D03*
D10*
X196068750Y-110175000D03*
D27*
X200858766Y-107194771D03*
D15*
X201148750Y-107215000D03*
D16*
X199868750Y-109675000D03*
D28*
X199338754Y-101519995D03*
D15*
X200068750Y-102175000D03*
D16*
X201968750Y-104675000D03*
%TD*%
D10*
%TO.C,SW28*%
X250100000Y-76100000D03*
D11*
X250380000Y-80300000D03*
D12*
X250520000Y-76100000D03*
D13*
X255600000Y-76100000D03*
D12*
X260680000Y-76100000D03*
D10*
X261100000Y-76100000D03*
D14*
X258119771Y-71309984D03*
D15*
X258140000Y-71020000D03*
D16*
X260600000Y-72300000D03*
D17*
X252444995Y-72829996D03*
D15*
X253100000Y-72100000D03*
D16*
X255600000Y-70200000D03*
%TD*%
D10*
%TO.C,SW4*%
X97700000Y-38000000D03*
D11*
X97980000Y-42200000D03*
D12*
X98120000Y-38000000D03*
D13*
X103200000Y-38000000D03*
D12*
X108280000Y-38000000D03*
D10*
X108700000Y-38000000D03*
D14*
X105719771Y-33209984D03*
D15*
X105740000Y-32920000D03*
D16*
X108200000Y-34200000D03*
D17*
X100044995Y-34729996D03*
D15*
X100700000Y-34000000D03*
D16*
X103200000Y-32100000D03*
%TD*%
D22*
%TO.C,REF\u002A\u002A*%
X189083750Y-116575000D03*
D13*
X204323750Y-116575000D03*
D22*
X189083750Y-92775000D03*
D13*
X204323750Y-92775000D03*
%TD*%
D10*
%TO.C,SW27*%
X231050000Y-76100000D03*
D11*
X231330000Y-80300000D03*
D12*
X231470000Y-76100000D03*
D13*
X236550000Y-76100000D03*
D12*
X241630000Y-76100000D03*
D10*
X242050000Y-76100000D03*
D14*
X239069771Y-71309984D03*
D15*
X239090000Y-71020000D03*
D16*
X241550000Y-72300000D03*
D17*
X233394995Y-72829996D03*
D15*
X234050000Y-72100000D03*
D16*
X236550000Y-70200000D03*
%TD*%
D10*
%TO.C,SW21*%
X40550000Y-76100000D03*
D11*
X40830000Y-80300000D03*
D12*
X40970000Y-76100000D03*
D13*
X46050000Y-76100000D03*
D12*
X51130000Y-76100000D03*
D10*
X51550000Y-76100000D03*
D14*
X48569771Y-71309984D03*
D15*
X48590000Y-71020000D03*
D16*
X51050000Y-72300000D03*
D17*
X42894995Y-72829996D03*
D15*
X43550000Y-72100000D03*
D16*
X46050000Y-70200000D03*
%TD*%
D10*
%TO.C,SW3*%
X78650000Y-38000000D03*
D11*
X78930000Y-42200000D03*
D12*
X79070000Y-38000000D03*
D13*
X84150000Y-38000000D03*
D12*
X89230000Y-38000000D03*
D10*
X89650000Y-38000000D03*
D14*
X86669771Y-33209984D03*
D15*
X86690000Y-32920000D03*
D16*
X89150000Y-34200000D03*
D17*
X80994995Y-34729996D03*
D15*
X81650000Y-34000000D03*
D16*
X84150000Y-32100000D03*
%TD*%
D10*
%TO.C,SW45*%
X148443750Y-110175000D03*
D11*
X152643750Y-109895000D03*
D12*
X148443750Y-109755000D03*
D13*
X148443750Y-104675000D03*
D12*
X148443750Y-99595000D03*
D10*
X148443750Y-99175000D03*
D29*
X143653734Y-102155229D03*
D15*
X143363750Y-102135000D03*
D16*
X144643750Y-99675000D03*
D30*
X145173746Y-107830005D03*
D15*
X144443750Y-107175000D03*
D16*
X142543750Y-104675000D03*
%TD*%
D10*
%TO.C,SW24*%
X97700000Y-76100000D03*
D11*
X97980000Y-80300000D03*
D12*
X98120000Y-76100000D03*
D13*
X103200000Y-76100000D03*
D12*
X108280000Y-76100000D03*
D10*
X108700000Y-76100000D03*
D14*
X105719771Y-71309984D03*
D15*
X105740000Y-71020000D03*
D16*
X108200000Y-72300000D03*
D17*
X100044995Y-72829996D03*
D15*
X100700000Y-72100000D03*
D16*
X103200000Y-70200000D03*
%TD*%
D10*
%TO.C,SW5*%
X116750000Y-38000000D03*
D11*
X117030000Y-42200000D03*
D12*
X117170000Y-38000000D03*
D13*
X122250000Y-38000000D03*
D12*
X127330000Y-38000000D03*
D10*
X127750000Y-38000000D03*
D14*
X124769771Y-33209984D03*
D15*
X124790000Y-32920000D03*
D16*
X127250000Y-34200000D03*
D17*
X119094995Y-34729996D03*
D15*
X119750000Y-34000000D03*
D16*
X122250000Y-32100000D03*
%TD*%
D20*
%TO.C,Breakout_USB >>*%
X38165000Y-61540000D03*
D21*
X38165000Y-64080000D03*
X38165000Y-66620000D03*
X38165000Y-69160000D03*
%TD*%
D31*
%TO.C,J0*%
X33640000Y-29190000D03*
X39420000Y-29190000D03*
D32*
X33280000Y-30635000D03*
X34080000Y-30635000D03*
D33*
X35280000Y-30635000D03*
X36280000Y-30635000D03*
X36780000Y-30635000D03*
X37780000Y-30635000D03*
D32*
X38980000Y-30635000D03*
X39780000Y-30635000D03*
X39780000Y-30635000D03*
X38980000Y-30635000D03*
D33*
X38280000Y-30635000D03*
X37280000Y-30635000D03*
X35780000Y-30635000D03*
X34780000Y-30635000D03*
D32*
X34080000Y-30635000D03*
X33280000Y-30635000D03*
D34*
X32210000Y-25540000D03*
D35*
X32210000Y-29720000D03*
D34*
X40850000Y-25540000D03*
D35*
X40850000Y-29720000D03*
%TD*%
D36*
%TO.C,J3*%
X22400000Y-67510000D03*
X23400000Y-67510000D03*
X24400000Y-67510000D03*
X25400000Y-67510000D03*
D37*
X20900000Y-63485000D03*
X26900000Y-63485000D03*
%TD*%
M02*
